<?xml version="1.0" encoding="utf-8"?>
<!-- Generator: Adobe Illustrator 22.1.0, SVG Export Plug-In . SVG Version: 6.00 Build 0)  -->
<svg version="1.1" xmlns="http://www.w3.org/2000/svg" xmlns:xlink="http://www.w3.org/1999/xlink" x="0px" y="0px"
	 viewBox="0 0 420.9 595.3" style="enable-background:new 0 0 420.9 595.3;" xml:space="preserve">
<style type="text/css">
	.st0{fill:#C8BFC2;}
	.st1{fill:#FFFDE8;}
</style>
<g id="Слой_4">
</g>
<g id="Слой_18">
	<rect x="-14.2" y="-14.2" class="st0" width="449.3" height="623.6"/>
	<path class="st1" d="M185.1,282.9c0.2,0,0.4,0.2,0.7,0.5c0.8,1,1.8,1.8,2.9,2.3c1.2,0.6,2.3,0.9,3.4,0.9c1.3,0,1.9-0.4,1.9-1.2
		c0-0.5-0.2-1.1-0.6-1.8c-0.4-0.7-1.5-2-3.1-4c-2.1-2.5-3.5-4.3-4.1-5.6c-0.9-1.6-1.4-3.1-1.4-4.6c0-2.2,0.9-3.9,2.6-5.3
		c1.7-1.3,3.9-2,6.4-2c1.8,0,3.4,0.4,4.9,1.2c0.6,0.3,1,0.7,1.4,1.1c0.4,0.4,0.6,0.7,0.6,1c0,0.1-0.1,0.3-0.2,0.4
		c-0.1,0.1-0.2,0.2-0.3,0.2c-0.2,0-0.4-0.2-0.8-0.6c-0.6-0.6-1.3-1.1-2.3-1.5c-0.9-0.4-1.8-0.6-2.7-0.6c-0.5,0-1,0.1-1.3,0.4
		c-0.3,0.3-0.5,0.6-0.5,1c0,0.5,0.2,1.1,0.6,1.8c0.4,0.7,1.1,1.6,2.1,2.8c3.1,3.7,5,6.2,5.7,7.5c0.7,1.4,1.1,2.7,1.1,3.9
		c0,1.1-0.3,2.1-0.8,3c-0.5,1-1.3,1.7-2.2,2.3c-1.8,1.2-3.9,1.7-6.5,1.7c-2.4,0-4.4-0.7-6.2-2c-1.2-0.9-1.9-1.7-1.9-2.2
		c0-0.2,0.1-0.3,0.2-0.4C184.9,283,185,282.9,185.1,282.9z"/>
	<path class="st1" d="M220.3,264.2l-0.1,5.5l-0.1,5.3l0,36.2l-9.8,0l0.1-38.1l0-4.8l0-4.1l-2.1,0l-3,0.1l-0.5,0
		c-0.5,0-0.8-0.2-0.8-0.6c0-0.4,0.2-0.6,0.5-0.6c0.1,0,0.3,0,0.8-0.1L225,263c0.7,0,1.1,0.1,1.2,0.1c0.2,0.1,0.3,0.3,0.3,0.6
		c0,0.4-0.3,0.6-0.8,0.6l-1.4-0.1l-3.7-0.1L220.3,264.2z"/>
	<path class="st1" d="M246.5,272.3l5.1-8.2c0.3-0.6,0.6-1,0.7-1.1c0.1-0.1,0.3-0.2,0.5-0.2c0.2,0,0.3,0.1,0.5,0.2
		c0.1,0.1,0.2,0.2,0.2,0.4c0,0.2-0.1,0.3-0.2,0.5c-0.1,0.2-0.2,0.3-0.3,0.5l-0.5,0.8l-13.1,20.2l-0.5,0.8c-0.5,0.7-0.8,1.1-0.9,1.3
		c-0.1,0.1-0.3,0.2-0.5,0.2c-0.3,0-0.5-0.2-0.5-0.5c0-0.2,0.2-0.5,0.5-0.9l3.7-5.5l-0.4-0.7c-3.2-4.8-5.5-8.2-6.8-10.1
		c-1.3-1.9-3-4.2-5.1-6.9l11.6,0L246.5,272.3z"/>
	<path class="st1" d="M266.4,263.1l-0.1,3.7l-0.1,5.9v4.3l0,9.1l1.2,0l6.9-0.1l1.2,0c0.6,0,0.9,0.2,0.9,0.6c0,0.4-0.2,0.6-0.5,0.6
		c-0.1,0-0.3,0-0.7,0l-18.8-0.1l0.1-6.7l0-4.1l0-4.7l0-7.1l0-1.5L266.4,263.1z"/>
	<path class="st1" d="M289.9,271c0,0.5,0,1.2,0,2l0,1.1l0.1,12.2l5.4,0l3.8,0c0.6,0,0.9,0.2,0.9,0.6c0,0.3-0.2,0.5-0.5,0.6
		c-0.1,0-0.5,0-1.3,0l-18.2-0.1l0-0.9l0-5.9l0.1-6.3l-0.1-11l17,0.1c0.8,0,1.2,0,1.3,0.1c0.2,0.1,0.4,0.3,0.4,0.6
		c0,0.4-0.2,0.6-0.7,0.6l-0.1,0l-8-0.1l-0.1,5.5l1.7,0l5.6-0.1l1.2,0c0.4,0,0.7,0,0.9,0.1c0.1,0.1,0.2,0.3,0.2,0.5
		c0,0.5-0.4,0.7-1.1,0.7l-1.3,0L289.9,271z"/>
	<g>
		<path class="st1" d="M165.9,286.8c1.7,0,3.3,0.4,4.9,1.2c2.3,1.2,4.1,3,5.3,5.4c1,1.9,1.5,4.1,1.5,6.4c0,1.8-0.4,3.6-1.1,5.3
			c-1.1,2.6-2.8,4.5-5.1,5.9c-1.7,1-3.5,1.5-5.4,1.5c-2,0-3.9-0.6-5.6-1.7c-2.4-1.5-4-3.5-5.1-6.2c-0.6-1.6-0.9-3.3-0.9-5
			c0-2.2,0.5-4.2,1.5-6.2c1.2-2.4,2.9-4.2,5.2-5.4C162.5,287.2,164.2,286.8,165.9,286.8z M164.7,287.9l-0.1,11.5l0.1,9.6l0,2.2
			c0.4,0.1,0.7,0.1,1,0.1c2.4,0,4.5-0.7,6.3-2.2c1.7-1.3,2.9-3,3.7-5.1c0.5-1.5,0.8-3,0.8-4.5c0-2.1-0.4-4-1.3-5.7
			c-1.1-2.2-2.7-3.8-4.6-4.8c-1.5-0.8-3.1-1.2-4.7-1.2C165.4,287.8,165.1,287.9,164.7,287.9z"/>
		<path class="st1" d="M191.7,287.5l-0.1,9.2l0,9.6l0,4.9c0.5,0,1,0.1,1.4,0.1c3.8,0,6.3-1,7.5-2.9c0.7-1,1.1-2.4,1.3-4.2
			c0.2-1.8,0.3-5.1,0.3-9.9l0-4.7l-0.1-1.5c0-0.6,0.2-0.9,0.7-0.9c0.4,0,0.6,0.3,0.6,0.9c0,0.3,0,0.8,0,1.4l-0.1,7.1
			c0,3-0.1,5-0.1,6.1s-0.2,2.1-0.3,3c-0.3,1.9-1.1,3.5-2.3,4.6c-1.5,1.5-4.1,2.2-7.9,2.2c-3.2,0-5.7-0.5-7.4-1.5
			c-1.3-0.7-2.2-2-2.8-3.8c-0.2-0.8-0.4-1.7-0.4-2.5c0-0.9-0.1-3.5-0.1-7.9l-0.1-9.3H191.7z"/>
	</g>
	<g>
		<path class="st1" d="M210.3,310.8l9.9,0l2.1-0.1l3-0.1l0.4,0c0.5,0,0.8,0.2,0.8,0.7c0,0.4-0.1,0.6-0.4,0.7c-0.1,0-0.3,0-0.8,0.1
			l-19.7,0c-0.7,0-1.1,0-1.2-0.1c-0.2-0.1-0.3-0.3-0.3-0.6c0-0.4,0.3-0.6,0.8-0.6l1.4,0.1l3.7,0.1H210.3z"/>
	</g>
</g>
</svg>
