<?xml version="1.0" encoding="utf-8"?>
<!-- Generator: Adobe Illustrator 22.1.0, SVG Export Plug-In . SVG Version: 6.00 Build 0)  -->
<svg version="1.1" id="Layer_1" xmlns="http://www.w3.org/2000/svg" xmlns:xlink="http://www.w3.org/1999/xlink" x="0px" y="0px"
	 viewBox="0 0 420.9 595.3" style="enable-background:new 0 0 420.9 595.3;" xml:space="preserve">
<style type="text/css">
	.st0{fill:#EDD9B0;}
</style>
<rect class="st0" width="420.9" height="595.3"/>
<g>
	<g>
		<path d="M275.3,43.3c-0.5,0-1.2,0.2-2,0.4c-0.8,0.2-1.5,0.7-2.3,1.3c-0.7,0.6-1.4,1.6-1.9,2.8c-0.5,1.2-0.8,2.8-0.8,4.8
			c0,2.5,0.5,4.6,1.4,6.1c1,1.5,2.5,2.3,4.6,2.3c1.7,0,3-0.5,4-1.4c1-1,1.8-2.2,2.5-3.6c0.7-1.5,1.3-3,1.8-4.7
			c0.5-1.7,1.2-3.3,2-4.7c0.8-1.5,1.7-2.7,2.9-3.6c1.2-1,2.7-1.4,4.6-1.4c1.4,0,2.7,0.3,3.8,0.9c1.1,0.6,2,1.4,2.8,2.4
			c0.7,1,1.3,2.2,1.7,3.5c0.4,1.3,0.6,2.7,0.6,4.2c0,1.4-0.2,2.8-0.5,4.1c-0.3,1.3-0.8,2.5-1.5,3.5c-0.7,1-1.5,1.9-2.4,2.5
			c-0.9,0.7-2,1.1-3.2,1.3v-3.3c1.9-0.3,3.3-1.1,4.2-2.6c0.9-1.5,1.3-3.2,1.3-5.3c0-1.3-0.2-2.4-0.5-3.3c-0.3-1-0.7-1.8-1.2-2.4
			c-0.5-0.7-1.1-1.2-1.8-1.5c-0.7-0.3-1.4-0.5-2.2-0.5c-1.4,0-2.5,0.5-3.3,1.5c-0.8,1-1.6,2.2-2.2,3.7c-0.6,1.5-1.2,3.1-1.8,4.9
			c-0.6,1.7-1.3,3.4-2.1,4.9c-0.8,1.5-1.9,2.7-3.2,3.7c-1.3,1-2.9,1.5-4.9,1.5c-1.4,0-2.8-0.3-3.9-0.9c-1.2-0.6-2.2-1.4-3-2.5
			c-0.8-1.1-1.5-2.3-1.9-3.8c-0.4-1.5-0.7-3.2-0.7-5c0-1.8,0.2-3.5,0.6-5c0.4-1.5,1-2.9,1.8-4c0.8-1.1,1.7-2,2.9-2.7
			c1.1-0.7,2.4-1,3.7-1.1V43.3z"/>
	</g>
	<g>
		<path d="M266.8,120.2h31v-12.9h2.6v30.1h-2.6v-12.9h-31V120.2z"/>
	</g>
	<g>
		<path d="M300.4,175.5l-17.7,9.8v0.2l17.7,10.3v2.6l-20.4-11.8h-13.2v-4.4h12.7l20.9-11.6V175.5z"/>
	</g>
	<g>
		<path d="M266.8,223.6h33.6v4.4h-31v17.3h-2.6V223.6z"/>
	</g>
	<g>
		<path d="M300.4,282.3h-2.6V265h-12v14.9h-2.2V265h-14.1v17.3h-2.6v-21.7h33.6V282.3z"/>
	</g>
	<g>
		<path d="M266.8,286.5h33.6v9.3h-12.7v12h12.7v9.3h-33.6v-9.3h12.8v-12h-12.8V286.5z"/>
	</g>
	<g>
		<path d="M266.8,377.5h33.6v13c0,3-0.4,5.6-1.2,8c-0.8,2.4-2,4.4-3.5,6c-1.5,1.6-3.2,2.8-5.3,3.7c-2.1,0.9-4.3,1.3-6.8,1.3
			c-2.4,0-4.7-0.4-6.7-1.3c-2.1-0.9-3.8-2.1-5.3-3.7c-1.5-1.6-2.7-3.6-3.5-6c-0.9-2.4-1.3-5.1-1.3-8.1V377.5z"/>
	</g>
	<g>
		<path d="M266.8,351.6h33.6v15.9c0,4.9-1.2,8.5-3.6,10.9c-2,2-4.7,3-8,3c-2.5,0-4.5-0.6-6.3-1.8c-1.7-1.2-3-2.9-3.9-5l-11.8,8
			v-10.7L277,365v-4.1h-10.2V351.6z"/>
	</g>
	<g>
		<path d="M266.8,317l33.8,14.3v9l-33.8,14.3v-10l6-2.5v-13l-6-2.4V317z M280,332v7.5l9.6-3.8L280,332z"/>
	</g>
</g>
</svg>
