<?xml version="1.0" encoding="utf-8"?>
<!-- Generator: Adobe Illustrator 22.1.0, SVG Export Plug-In . SVG Version: 6.00 Build 0)  -->
<svg version="1.1" id="Layer_1" xmlns="http://www.w3.org/2000/svg" xmlns:xlink="http://www.w3.org/1999/xlink" x="0px" y="0px"
	 viewBox="0 0 420.9 595.3" style="enable-background:new 0 0 420.9 595.3;" xml:space="preserve">
<g>
	<g>
		<circle cx="282.8" cy="255.1" r="0.3"/>
		<circle cx="268.6" cy="255.1" r="0.3"/>
	</g>
	<g>
		<circle cx="254.5" cy="255.1" r="0.3"/>
		<circle cx="240.3" cy="255.1" r="0.3"/>
	</g>
	<g>
		<circle cx="226.1" cy="255.1" r="0.3"/>
		<circle cx="211.9" cy="255.1" r="0.3"/>
	</g>
	<g>
		<circle cx="197.8" cy="255.1" r="0.3"/>
		<circle cx="183.6" cy="255.1" r="0.3"/>
	</g>
	<g>
		<circle cx="169.4" cy="255.1" r="0.3"/>
		<path d="M155,255.1c0,0.2,0.1,0.3,0.3,0.3s0.3-0.1,0.3-0.3s-0.1-0.3-0.3-0.3S155,255,155,255.1z"/>
	</g>
	<g>
		<path d="M140.8,255.1c0,0.2,0.1,0.3,0.3,0.3s0.3-0.1,0.3-0.3s-0.1-0.3-0.3-0.3S140.8,255,140.8,255.1z"/>
		<path d="M126.6,255.1c0,0.2,0.1,0.3,0.3,0.3s0.3-0.1,0.3-0.3s-0.1-0.3-0.3-0.3S126.6,255,126.6,255.1z"/>
	</g>
	<g>
		<path d="M282.5,269.3c0,0.2,0.1,0.3,0.3,0.3s0.3-0.1,0.3-0.3s-0.1-0.3-0.3-0.3S282.5,269.1,282.5,269.3z"/>
		<path d="M268.3,269.3c0,0.2,0.1,0.3,0.3,0.3s0.3-0.1,0.3-0.3s-0.1-0.3-0.3-0.3S268.3,269.1,268.3,269.3z"/>
	</g>
	<g>
		<path d="M254.2,269.3c0,0.2,0.1,0.3,0.3,0.3s0.3-0.1,0.3-0.3s-0.1-0.3-0.3-0.3S254.2,269.1,254.2,269.3z"/>
		<path d="M240,269.3c0,0.2,0.1,0.3,0.3,0.3c0.2,0,0.3-0.1,0.3-0.3s-0.1-0.3-0.3-0.3C240.1,269,240,269.1,240,269.3z"/>
	</g>
	<g>
		<path d="M225.8,269.3c0,0.2,0.1,0.3,0.3,0.3s0.3-0.1,0.3-0.3s-0.1-0.3-0.3-0.3S225.8,269.1,225.8,269.3z"/>
		<path d="M211.7,269.3c0,0.2,0.1,0.3,0.3,0.3c0.2,0,0.3-0.1,0.3-0.3s-0.1-0.3-0.3-0.3C211.8,269,211.7,269.1,211.7,269.3z"/>
	</g>
	<g>
		<path d="M197.5,269.3c0,0.2,0.1,0.3,0.3,0.3c0.2,0,0.3-0.1,0.3-0.3s-0.1-0.3-0.3-0.3C197.6,269,197.5,269.1,197.5,269.3z"/>
		<path d="M183.3,269.3c0,0.2,0.1,0.3,0.3,0.3s0.3-0.1,0.3-0.3s-0.1-0.3-0.3-0.3S183.3,269.1,183.3,269.3z"/>
	</g>
	<g>
		<path d="M169.1,269.3c0,0.2,0.1,0.3,0.3,0.3c0.2,0,0.3-0.1,0.3-0.3s-0.1-0.3-0.3-0.3C169.3,269,169.1,269.1,169.1,269.3z"/>
		<path d="M155,269.3c0,0.2,0.1,0.3,0.3,0.3s0.3-0.1,0.3-0.3s-0.1-0.3-0.3-0.3S155,269.1,155,269.3z"/>
	</g>
	<g>
		<path d="M140.8,269.3c0,0.2,0.1,0.3,0.3,0.3s0.3-0.1,0.3-0.3s-0.1-0.3-0.3-0.3S140.8,269.1,140.8,269.3z"/>
		<path d="M126.6,269.3c0,0.2,0.1,0.3,0.3,0.3s0.3-0.1,0.3-0.3s-0.1-0.3-0.3-0.3S126.6,269.1,126.6,269.3z"/>
	</g>
	<g>
		<path d="M282.5,283.5c0,0.2,0.1,0.3,0.3,0.3s0.3-0.1,0.3-0.3s-0.1-0.3-0.3-0.3S282.5,283.3,282.5,283.5z"/>
		<path d="M268.3,283.5c0,0.2,0.1,0.3,0.3,0.3c0.2,0,0.3-0.1,0.3-0.3s-0.1-0.3-0.3-0.3C268.5,283.2,268.3,283.3,268.3,283.5z"/>
	</g>
	<g>
		<path d="M254.2,283.5c0,0.2,0.1,0.3,0.3,0.3c0.2,0,0.3-0.1,0.3-0.3s-0.1-0.3-0.3-0.3C254.3,283.2,254.2,283.3,254.2,283.5z"/>
		<path d="M240,283.5c0,0.2,0.1,0.3,0.3,0.3s0.3-0.1,0.3-0.3s-0.1-0.3-0.3-0.3S240,283.3,240,283.5z"/>
	</g>
	<g>
		<path d="M225.8,283.5c0,0.2,0.1,0.3,0.3,0.3c0.2,0,0.3-0.1,0.3-0.3s-0.1-0.3-0.3-0.3C226,283.2,225.8,283.3,225.8,283.5z"/>
		<path d="M211.7,283.5c0,0.2,0.1,0.3,0.3,0.3s0.3-0.1,0.3-0.3s-0.1-0.3-0.3-0.3S211.7,283.3,211.7,283.5z"/>
	</g>
	<g>
		<path d="M197.5,283.5c0,0.2,0.1,0.3,0.3,0.3s0.3-0.1,0.3-0.3s-0.1-0.3-0.3-0.3S197.5,283.3,197.5,283.5z"/>
		<path d="M183.3,283.5c0,0.2,0.1,0.3,0.3,0.3c0.2,0,0.3-0.1,0.3-0.3s-0.1-0.3-0.3-0.3C183.4,283.2,183.3,283.3,183.3,283.5z"/>
	</g>
	<g>
		<path d="M169.1,283.5c0,0.2,0.1,0.3,0.3,0.3s0.3-0.1,0.3-0.3s-0.1-0.3-0.3-0.3S169.1,283.3,169.1,283.5z"/>
		<path d="M155,283.5c0,0.2,0.1,0.3,0.3,0.3s0.3-0.1,0.3-0.3s-0.1-0.3-0.3-0.3S155,283.3,155,283.5z"/>
	</g>
	<g>
		<path d="M140.8,283.5c0,0.2,0.1,0.3,0.3,0.3s0.3-0.1,0.3-0.3s-0.1-0.3-0.3-0.3S140.8,283.3,140.8,283.5z"/>
		<path d="M126.6,283.5c0,0.2,0.1,0.3,0.3,0.3s0.3-0.1,0.3-0.3s-0.1-0.3-0.3-0.3S126.6,283.3,126.6,283.5z"/>
	</g>
	<g>
		<path d="M282.5,297.6c0,0.2,0.1,0.3,0.3,0.3s0.3-0.1,0.3-0.3s-0.1-0.3-0.3-0.3S282.5,297.5,282.5,297.6z"/>
		<path d="M268.3,297.6c0,0.2,0.1,0.3,0.3,0.3s0.3-0.1,0.3-0.3s-0.1-0.3-0.3-0.3S268.3,297.5,268.3,297.6z"/>
	</g>
	<g>
		<path d="M254.2,297.6c0,0.2,0.1,0.3,0.3,0.3s0.3-0.1,0.3-0.3s-0.1-0.3-0.3-0.3S254.2,297.5,254.2,297.6z"/>
		<path d="M240,297.6c0,0.2,0.1,0.3,0.3,0.3c0.2,0,0.3-0.1,0.3-0.3s-0.1-0.3-0.3-0.3C240.1,297.4,240,297.5,240,297.6z"/>
	</g>
	<g>
		<path d="M225.8,297.6c0,0.2,0.1,0.3,0.3,0.3s0.3-0.1,0.3-0.3s-0.1-0.3-0.3-0.3S225.8,297.5,225.8,297.6z"/>
		<path d="M211.7,297.6c0,0.2,0.1,0.3,0.3,0.3c0.2,0,0.3-0.1,0.3-0.3s-0.1-0.3-0.3-0.3C211.8,297.4,211.7,297.5,211.7,297.6z"/>
	</g>
	<g>
		<path d="M197.5,297.6c0,0.2,0.1,0.3,0.3,0.3c0.2,0,0.3-0.1,0.3-0.3s-0.1-0.3-0.3-0.3C197.6,297.4,197.5,297.5,197.5,297.6z"/>
		<path d="M183.3,297.6c0,0.2,0.1,0.3,0.3,0.3s0.3-0.1,0.3-0.3s-0.1-0.3-0.3-0.3S183.3,297.5,183.3,297.6z"/>
	</g>
	<g>
		<path d="M169.1,297.6c0,0.2,0.1,0.3,0.3,0.3c0.2,0,0.3-0.1,0.3-0.3s-0.1-0.3-0.3-0.3C169.3,297.4,169.1,297.5,169.1,297.6z"/>
		<path d="M155,297.6c0,0.2,0.1,0.3,0.3,0.3s0.3-0.1,0.3-0.3s-0.1-0.3-0.3-0.3S155,297.5,155,297.6z"/>
	</g>
	<g>
		<path d="M140.8,297.6c0,0.2,0.1,0.3,0.3,0.3s0.3-0.1,0.3-0.3s-0.1-0.3-0.3-0.3S140.8,297.5,140.8,297.6z"/>
		<path d="M126.6,297.6c0,0.2,0.1,0.3,0.3,0.3s0.3-0.1,0.3-0.3s-0.1-0.3-0.3-0.3S126.6,297.5,126.6,297.6z"/>
	</g>
	<g>
		<path d="M282.5,311.8c0,0.2,0.1,0.3,0.3,0.3s0.3-0.1,0.3-0.3s-0.1-0.3-0.3-0.3S282.5,311.7,282.5,311.8z"/>
		<path d="M268.3,311.8c0,0.2,0.1,0.3,0.3,0.3s0.3-0.1,0.3-0.3s-0.1-0.3-0.3-0.3S268.3,311.7,268.3,311.8z"/>
	</g>
	<g>
		<path d="M254.2,311.8c0,0.2,0.1,0.3,0.3,0.3s0.3-0.1,0.3-0.3s-0.1-0.3-0.3-0.3S254.2,311.7,254.2,311.8z"/>
		<path d="M240,311.8c0,0.2,0.1,0.3,0.3,0.3c0.2,0,0.3-0.1,0.3-0.3s-0.1-0.3-0.3-0.3C240.1,311.5,240,311.7,240,311.8z"/>
	</g>
	<g>
		<path d="M225.8,311.8c0,0.2,0.1,0.3,0.3,0.3s0.3-0.1,0.3-0.3s-0.1-0.3-0.3-0.3S225.8,311.7,225.8,311.8z"/>
		<path d="M211.7,311.8c0,0.2,0.1,0.3,0.3,0.3c0.2,0,0.3-0.1,0.3-0.3s-0.1-0.3-0.3-0.3C211.8,311.5,211.7,311.7,211.7,311.8z"/>
	</g>
	<g>
		<path d="M197.5,311.8c0,0.2,0.1,0.3,0.3,0.3c0.2,0,0.3-0.1,0.3-0.3s-0.1-0.3-0.3-0.3C197.6,311.5,197.5,311.7,197.5,311.8z"/>
		<path d="M183.3,311.8c0,0.2,0.1,0.3,0.3,0.3s0.3-0.1,0.3-0.3s-0.1-0.3-0.3-0.3S183.3,311.7,183.3,311.8z"/>
	</g>
	<g>
		<path d="M169.1,311.8c0,0.2,0.1,0.3,0.3,0.3c0.2,0,0.3-0.1,0.3-0.3s-0.1-0.3-0.3-0.3C169.3,311.5,169.1,311.7,169.1,311.8z"/>
		<path d="M155,311.8c0,0.2,0.1,0.3,0.3,0.3s0.3-0.1,0.3-0.3s-0.1-0.3-0.3-0.3S155,311.7,155,311.8z"/>
	</g>
	<g>
		<path d="M140.8,311.8c0,0.2,0.1,0.3,0.3,0.3s0.3-0.1,0.3-0.3s-0.1-0.3-0.3-0.3S140.8,311.7,140.8,311.8z"/>
		<path d="M126.6,311.8c0,0.2,0.1,0.3,0.3,0.3s0.3-0.1,0.3-0.3s-0.1-0.3-0.3-0.3S126.6,311.7,126.6,311.8z"/>
	</g>
	<g>
		<path d="M282.5,326c0,0.2,0.1,0.3,0.3,0.3s0.3-0.1,0.3-0.3c0-0.2-0.1-0.3-0.3-0.3S282.5,325.8,282.5,326z"/>
		<path d="M268.4,326c0,0.2,0.1,0.3,0.3,0.3s0.3-0.1,0.3-0.3c0-0.2-0.1-0.3-0.3-0.3S268.4,325.8,268.4,326z"/>
	</g>
	<g>
		<path d="M254.2,326c0,0.2,0.1,0.3,0.3,0.3s0.3-0.1,0.3-0.3c0-0.2-0.1-0.3-0.3-0.3S254.2,325.8,254.2,326z"/>
		<path d="M240,326c0,0.2,0.1,0.3,0.3,0.3c0.2,0,0.3-0.1,0.3-0.3c0-0.2-0.1-0.3-0.3-0.3C240.1,325.7,240,325.8,240,326z"/>
	</g>
	<g>
		<path d="M225.8,326c0,0.2,0.1,0.3,0.3,0.3s0.3-0.1,0.3-0.3c0-0.2-0.1-0.3-0.3-0.3S225.8,325.8,225.8,326z"/>
		<path d="M211.7,326c0,0.2,0.1,0.3,0.3,0.3c0.2,0,0.3-0.1,0.3-0.3c0-0.2-0.1-0.3-0.3-0.3C211.8,325.7,211.7,325.8,211.7,326z"/>
	</g>
	<g>
		<path d="M197.5,326c0,0.2,0.1,0.3,0.3,0.3c0.2,0,0.3-0.1,0.3-0.3c0-0.2-0.1-0.3-0.3-0.3C197.6,325.7,197.5,325.8,197.5,326z"/>
		<path d="M183.3,326c0,0.2,0.1,0.3,0.3,0.3s0.3-0.1,0.3-0.3c0-0.2-0.1-0.3-0.3-0.3S183.3,325.8,183.3,326z"/>
	</g>
	<g>
		<path d="M169.1,326c0,0.2,0.1,0.3,0.3,0.3c0.2,0,0.3-0.1,0.3-0.3c0-0.2-0.1-0.3-0.3-0.3C169.3,325.7,169.1,325.8,169.1,326z"/>
		<path d="M155,326c0,0.2,0.1,0.3,0.3,0.3s0.3-0.1,0.3-0.3c0-0.2-0.1-0.3-0.3-0.3S155,325.8,155,326z"/>
	</g>
	<g>
		<path d="M140.8,326c0,0.2,0.1,0.3,0.3,0.3s0.3-0.1,0.3-0.3c0-0.2-0.1-0.3-0.3-0.3S140.8,325.8,140.8,326z"/>
		<path d="M126.6,326c0,0.2,0.1,0.3,0.3,0.3s0.3-0.1,0.3-0.3c0-0.2-0.1-0.3-0.3-0.3S126.6,325.8,126.6,326z"/>
	</g>
</g>
</svg>
