<?xml version="1.0" encoding="utf-8"?>
<!-- Generator: Adobe Illustrator 22.1.0, SVG Export Plug-In . SVG Version: 6.00 Build 0)  -->
<svg version="1.1" id="Layer_1" xmlns="http://www.w3.org/2000/svg" xmlns:xlink="http://www.w3.org/1999/xlink" x="0px" y="0px"
	 viewBox="0 0 420.9 595.3" style="enable-background:new 0 0 420.9 595.3;" xml:space="preserve">
<style type="text/css">
	.st0{fill:#6A6E72;}
</style>
<g>
	<path class="st0" d="M117.7,125.9c1.5-1.9,4-2.8,7.6-2.8s6.2,0.9,7.6,2.8s2.2,5.2,2.2,10.1c0,4.8-0.7,8.2-2.2,10.1
		c-1.4,1.9-4,2.8-7.6,2.8s-6.2-0.9-7.6-2.8c-1.5-1.9-2.2-5.2-2.2-10.1C115.5,131.1,116.2,127.7,117.7,125.9z M130.4,128
		c-0.9-1.5-2.6-2.2-5.1-2.2c-2.4,0-4.1,0.7-5.1,2.2c-0.9,1.5-1.4,4.1-1.4,7.9c0,3.8,0.5,6.4,1.4,7.9s2.6,2.2,5.1,2.2
		c2.4,0,4.1-0.7,5.1-2.2c0.9-1.5,1.4-4.1,1.4-7.9C131.8,132.1,131.3,129.5,130.4,128z"/>
	<path class="st0" d="M154.4,121.8l0.7,2.4c-0.9,0.5-1.7,0.9-2.5,1.2s-1.7,0.5-2.7,0.7s-1.8,0.4-2.4,0.5c-1.7,0.5-2.9,1.2-3.6,2.2
		c-0.7,1-1.2,2.2-1.4,3.7c-0.1,0.7-0.3,1.6-0.3,2.6h0.1c0.5-1.1,1.2-2,2.2-2.7s2.5-1,4.5-1c2.6,0,4.4,0.6,5.4,1.9
		c1,1.3,1.6,3.5,1.6,6.5s-0.6,5.2-1.7,6.7c-1.2,1.5-3.3,2.2-6.3,2.2c-1.5,0-2.7-0.2-3.7-0.6c-1-0.4-1.8-0.9-2.4-1.4
		c-0.6-0.6-1-1.4-1.3-2.4s-0.5-2-0.6-3c-0.1-0.9-0.1-2.1-0.1-3.6c0-1.7,0-3,0.1-4.2c0.1-1.1,0.3-2.2,0.5-3.3c0.3-1.1,0.6-2,1.1-2.7
		c0.5-0.7,1.1-1.3,1.9-1.9s1.8-1,2.9-1.4c0.6-0.2,1.5-0.4,2.5-0.6s1.9-0.4,2.8-0.7C152.7,122.7,153.5,122.3,154.4,121.8z
		 M148.2,133.9c-2,0-3.4,0.5-4.1,1.4c-0.7,0.9-1,2.4-1,4.5c0,2.4,0.4,4.1,1.1,5c0.7,0.9,2,1.4,3.8,1.4s3-0.5,3.7-1.4s1.1-2.6,1.1-5
		c0-2.3-0.3-3.8-1-4.6C151.1,134.3,149.9,133.9,148.2,133.9z"/>
	<path class="st0" d="M168.3,130.4c3,0,5.1,0.7,6.4,2.1c1.2,1.4,1.9,3.8,1.9,7.1c0,3.4-0.6,5.7-1.9,7.1c-1.2,1.4-3.4,2.1-6.4,2.1
		s-5.2-0.7-6.4-2.1c-1.2-1.4-1.9-3.8-1.9-7.1c0-3.4,0.6-5.7,1.9-7.1C163.1,131.1,165.3,130.4,168.3,130.4z M168.3,133
		c-1.9,0-3.3,0.5-4,1.4s-1.1,2.7-1.1,5.2s0.4,4.3,1.1,5.2c0.7,0.9,2.1,1.4,4,1.4s3.2-0.5,4-1.4c0.7-0.9,1.1-2.7,1.1-5.2
		s-0.4-4.3-1.1-5.2C171.5,133.4,170.2,133,168.3,133z"/>
	<path class="st0" d="M183.9,130.8l0.3,2.8c1-1,2.1-1.8,3.4-2.4c1.3-0.6,2.6-0.9,3.9-0.9c2.1,0,3.6,0.8,4.6,2.3s1.4,3.9,1.4,7
		c0,3.3-0.5,5.7-1.6,7c-1.1,1.4-2.7,2.1-5,2.1c-2.4,0-4.5-0.6-6.5-1.8c0.1,1,0.1,2.2,0.1,3.5v5.1h-3v-24.8L183.9,130.8L183.9,130.8z
		 M184.5,135.7v9.3c2.4,0.7,4.3,1.1,5.6,1.1c1.6,0,2.7-0.4,3.3-1.3c0.6-0.9,0.9-2.6,0.9-5.1c0-2.4-0.3-4.2-0.9-5.1
		c-0.6-1-1.6-1.5-3-1.5C188.9,133,186.9,133.9,184.5,135.7z"/>
	<path class="st0" d="M209.9,130.4c3,0,5.1,0.7,6.4,2.1c1.2,1.4,1.9,3.8,1.9,7.1c0,3.4-0.6,5.7-1.9,7.1c-1.2,1.4-3.4,2.1-6.4,2.1
		s-5.2-0.7-6.4-2.1c-1.2-1.4-1.9-3.8-1.9-7.1c0-3.4,0.6-5.7,1.9-7.1C204.7,131.1,206.8,130.4,209.9,130.4z M209.9,133
		c-1.9,0-3.3,0.5-4,1.4s-1.1,2.7-1.1,5.2s0.4,4.3,1.1,5.2c0.7,0.9,2.1,1.4,4,1.4s3.2-0.5,4-1.4s1.1-2.7,1.1-5.2s-0.4-4.3-1.1-5.2
		C213.1,133.4,211.8,133,209.9,133z"/>
	<path class="st0" d="M236.5,133.3h-6.3v15h-3.1v-15h-6.4v-2.5h15.8V133.3z"/>
	<path class="st0" d="M255.6,130.8v17.5h-3v-8.1h-9.2v8.1h-3v-17.5h3v7.1h9.2v-7.1H255.6z"/>
	<path class="st0" d="M261.4,133.4l-0.3-2.3c3.3-0.5,6.1-0.8,8.5-0.8c2,0,3.5,0.4,4.5,1.3c1,0.9,1.5,2.3,1.5,4.3v12.3h-2.4l-0.4-2.9
		c-0.8,0.9-1.9,1.6-3.2,2.2s-2.6,1-4.1,1c-1.6,0-2.9-0.4-3.8-1.3c-0.9-0.9-1.4-2.1-1.4-3.6v-1.9c0-1.4,0.4-2.4,1.3-3.2
		s2-1.1,3.6-1.1h7.3V136c0-1.1-0.3-1.9-0.8-2.3c-0.5-0.5-1.4-0.7-2.8-0.7C267.2,133,264.7,133.1,261.4,133.4z M263.4,142.3v1.1
		c0,0.9,0.2,1.6,0.7,2c0.4,0.4,1.1,0.6,2.1,0.6c0.9,0,2-0.2,3.1-0.6c1.2-0.5,2.2-1.1,3.2-2v-3.5h-6.8
		C264.2,139.9,263.4,140.8,263.4,142.3z"/>
	<path class="st0" d="M284.7,140.8v-0.1c-1.4-0.2-2.4-0.7-3.1-1.5c-0.6-0.8-0.9-1.9-0.9-3.4c0-1.7,0.5-3,1.5-3.9s2.7-1.3,5.1-1.3
		c3.4,0,6,0.1,7.7,0.3v17.5h-3v-6.5h-4.7c-1.7,0-2.7,0.6-3.1,1.8l-1.3,4.7h-3.2l1.6-5.3C281.7,141.8,282.9,141,284.7,140.8z
		 M292,139.5v-6.4c-0.4,0-1.1,0-2.1,0s-1.9,0-2.6,0c-1.4,0-2.4,0.2-2.9,0.7s-0.7,1.3-0.7,2.5s0.3,2.1,0.8,2.6s1.5,0.7,2.9,0.7h4.6
		V139.5z"/>
	<path class="st0" d="M152.6,181.8l0.3,2.1c-1.7,0.6-3.7,0.9-6,0.9c-3,0-5.2-0.7-6.4-2.1c-1.2-1.4-1.9-3.8-1.9-7.1
		c0-3.4,0.6-5.7,1.9-7.1c1.3-1.4,3.4-2.1,6.4-2.1c2.3,0,4.2,0.3,5.7,0.8l-0.4,2c-1.6-0.1-3.2-0.2-4.8-0.2c-2.1,0-3.5,0.5-4.4,1.4
		c-0.8,0.9-1.2,2.7-1.2,5.2s0.4,4.3,1.2,5.2s2.3,1.4,4.4,1.4C149.4,182.2,151.1,182.1,152.6,181.8z"/>
	<path class="st0" d="M171,169.3h-6.3v15h-3.1v-15h-6.4v-2.5H171V169.3z"/>
	<path class="st0" d="M181.9,166.4c3,0,5.1,0.7,6.4,2.1c1.2,1.4,1.9,3.8,1.9,7.1c0,3.4-0.6,5.7-1.9,7.1c-1.2,1.4-3.4,2.1-6.4,2.1
		s-5.2-0.7-6.4-2.1c-1.2-1.4-1.9-3.8-1.9-7.1c0-3.4,0.6-5.7,1.9-7.1C176.8,167.1,178.9,166.4,181.9,166.4z M181.9,169
		c-1.9,0-3.3,0.5-4,1.4s-1.1,2.7-1.1,5.2s0.4,4.3,1.1,5.2c0.7,0.9,2.1,1.4,4,1.4s3.2-0.5,4-1.4c0.7-0.9,1.1-2.7,1.1-5.2
		s-0.4-4.3-1.1-5.2C185.2,169.4,183.9,169,181.9,169z"/>
	<path class="st0" d="M197.6,166.8l0.3,2.8c1-1,2.1-1.8,3.4-2.4c1.3-0.6,2.6-0.9,3.9-0.9c2.1,0,3.6,0.8,4.6,2.3s1.4,3.9,1.4,7
		c0,3.3-0.5,5.7-1.6,7c-1.1,1.4-2.7,2.1-5,2.1c-2.4,0-4.5-0.6-6.5-1.8c0.1,1,0.1,2.2,0.1,3.5v5.1h-3v-24.8L197.6,166.8L197.6,166.8z
		 M198.1,171.7v9.3c2.4,0.7,4.3,1.1,5.6,1.1c1.6,0,2.7-0.4,3.3-1.3c0.6-0.9,0.9-2.6,0.9-5.1c0-2.4-0.3-4.2-0.9-5.1
		c-0.6-1-1.6-1.5-3-1.5C202.5,169,200.5,169.9,198.1,171.7z"/>
	<path class="st0" d="M223.5,166.4c3,0,5.1,0.7,6.4,2.1c1.2,1.4,1.9,3.8,1.9,7.1c0,3.4-0.6,5.7-1.9,7.1c-1.2,1.4-3.4,2.1-6.4,2.1
		s-5.2-0.7-6.4-2.1c-1.2-1.4-1.9-3.8-1.9-7.1c0-3.4,0.6-5.7,1.9-7.1C218.3,167.1,220.5,166.4,223.5,166.4z M223.5,169
		c-1.9,0-3.3,0.5-4,1.4s-1.1,2.7-1.1,5.2s0.4,4.3,1.1,5.2s2.1,1.4,4,1.4s3.2-0.5,4-1.4s1.1-2.7,1.1-5.2s-0.4-4.3-1.1-5.2
		C226.7,169.4,225.4,169,223.5,169z"/>
	<path class="st0" d="M251.8,166.8v17.5h-3v-8.1h-9.2v8.1h-3v-17.5h3v7.1h9.2v-7.1H251.8z"/>
	<path class="st0" d="M257.6,169.4l-0.3-2.3c3.3-0.5,6.1-0.8,8.5-0.8c2,0,3.5,0.4,4.5,1.3c1,0.9,1.5,2.3,1.5,4.3v12.3h-2.4l-0.4-2.9
		c-0.8,0.9-1.9,1.6-3.2,2.2s-2.6,1-4.1,1c-1.6,0-2.9-0.4-3.8-1.3c-0.9-0.9-1.4-2.1-1.4-3.6v-1.9c0-1.4,0.4-2.4,1.3-3.2
		s2-1.1,3.6-1.1h7.3V172c0-1.1-0.3-1.9-0.8-2.3c-0.5-0.5-1.4-0.7-2.8-0.7C263.5,169,261,169.1,257.6,169.4z M259.7,178.3v1.1
		c0,0.9,0.2,1.6,0.7,2c0.4,0.4,1.1,0.6,2.1,0.6c0.9,0,2-0.2,3.1-0.6c1.2-0.5,2.2-1.1,3.2-2v-3.5H262
		C260.5,175.9,259.7,176.8,259.7,178.3z"/>
</g>
</svg>
