<?xml version="1.0" encoding="utf-8"?>
<!-- Generator: Adobe Illustrator 22.1.0, SVG Export Plug-In . SVG Version: 6.00 Build 0)  -->
<svg version="1.1" id="Layer_1" xmlns="http://www.w3.org/2000/svg" xmlns:xlink="http://www.w3.org/1999/xlink" x="0px" y="0px"
	 viewBox="0 0 420.9 595.3" style="enable-background:new 0 0 420.9 595.3;" xml:space="preserve">
<style type="text/css">
	.st0{fill:#6B6966;}
	.st1{fill:#B85048;}
	.st2{fill:#D66358;}
	.st3{fill:#DB7572;}
	.st4{fill:#E3957C;}
	.st5{fill:#643C37;}
	.st6{fill:#9E5848;}
	.st7{fill:#C77256;}
	.st8{fill:#C37A54;}
	.st9{fill:#DD9364;}
	.st10{fill:#564738;}
	.st11{fill:#9D7A52;}
	.st12{fill:#C69D60;}
	.st13{fill:#E5A965;}
	.st14{fill:#E8BC67;}
	.st15{fill:#2B2B1F;}
	.st16{fill:#5A563B;}
	.st17{fill:#959351;}
	.st18{fill:#949F6E;}
	.st19{fill:#B7B47F;}
	.st20{fill:#1C2A21;}
	.st21{fill:#547383;}
	.st22{fill:#75B2C6;}
	.st23{fill:#55777B;}
	.st24{fill:#70AEB3;}
	.st25{fill:#312424;}
	.st26{fill:#694947;}
	.st27{fill:#90645B;}
	.st28{fill:#C6907A;}
	.st29{fill:#DDA982;}
	.st30{fill:#434154;}
	.st31{fill:#6E668D;}
	.st32{fill:#4A5372;}
	.st33{fill:#6C7FAC;}
	.st34{fill:#C6944A;}
	.st35{fill:#332E30;}
	.st36{fill:#3D3632;}
	.st37{fill:#685F56;}
	.st38{fill:#A28B6C;}
	.st39{fill:#C1A783;}
	.st40{fill:#3D3C37;}
	.st41{fill:#5C5852;}
	.st42{fill:#7C7467;}
	.st43{fill:#808374;}
	.st44{fill:#B7BAA1;}
	.st45{fill:#4B4243;}
	.st46{fill:#83817E;}
	.st47{fill:#B4B4A8;}
	.st48{fill:#E8B5A0;}
	.st49{fill:#E9C9B8;}
	.st50{fill:#E6CD95;}
	.st51{fill:#E6D7AA;}
	.st52{fill:#C9C0A9;}
	.st53{fill:#D9CCB4;}
	.st54{fill:#E4D8BE;}
</style>
<g>
	<path d="M122.2,45v-1h11.3v1h-5.1v13.7h-1.1V45H122.2z"/>
	<path d="M136.1,58.7V44h10.5v1h-9.4v5.8h8.4v1h-8.4v5.9h9.5v1H136.1z M139,42.6v-1.7h1.5v1.7H139z M142.4,42.6v-1.7h1.5v1.7H142.4z
		"/>
	<path d="M149.4,58.7V44h11.4v14.7h-1.1V45h-9.2v13.7H149.4z"/>
	<path d="M162.8,58.5l0.3-0.9c0.4,0.2,0.8,0.3,1.4,0.3c0.2,0,0.4,0,0.5-0.1s0.4-0.1,0.6-0.3c0.2-0.2,0.4-0.4,0.6-0.7
		s0.4-0.7,0.6-1.3s0.4-1.2,0.5-2s0.2-1.7,0.3-2.9s0.1-2.4,0.1-3.9V44h9v14.7h-1.1V45h-6.9v1.8c0,1.5,0,2.8-0.1,4
		c-0.1,1.2-0.2,2.2-0.3,3s-0.3,1.5-0.5,2.1c-0.2,0.6-0.4,1.1-0.7,1.4s-0.5,0.6-0.8,0.8s-0.6,0.3-0.9,0.4s-0.6,0.1-0.9,0.1
		c-0.3,0-0.6,0-0.9-0.1C163.2,58.7,163,58.6,162.8,58.5z"/>
	<path d="M179.2,58.7l6.8-14.8h1l6.8,14.8h-1.2l-1.9-4.1h-8.7l-1.9,4.1H179.2z M182.7,53.6h7.8l-3.9-8.5L182.7,53.6z"/>
	<path d="M195.9,58.7l4.7-6.1c-1.3-0.2-2.3-0.6-3-1.4c-0.7-0.8-1.1-1.7-1.1-3c0-1.2,0.5-2.3,1.4-3.1c1-0.8,2.2-1.2,3.8-1.2h6.2v14.7
		h-1.1v-5.9h-5l-4.5,5.9H195.9z M197.5,48.4c0,1,0.4,1.9,1.2,2.5c0.8,0.6,1.8,0.9,3.1,0.9h5V45h-5c-1.3,0-2.4,0.3-3.1,0.9
		C197.9,46.5,197.5,47.3,197.5,48.4z"/>
	<path d="M216.8,51.3c0-1,0.2-2,0.5-2.9c0.4-0.9,0.9-1.7,1.5-2.4c0.6-0.7,1.4-1.3,2.4-1.7s1.9-0.6,3-0.6c1.1,0,2.1,0.2,3,0.6
		c0.9,0.4,1.7,1,2.3,1.7c0.6,0.7,1.1,1.5,1.5,2.4c0.4,0.9,0.5,1.9,0.5,2.9c0,1-0.2,2-0.5,2.9c-0.4,0.9-0.9,1.7-1.5,2.4
		c-0.6,0.7-1.4,1.3-2.4,1.7c-0.9,0.4-1.9,0.6-3,0.6c-1.1,0-2.1-0.2-3-0.6c-0.9-0.4-1.7-1-2.3-1.7c-0.6-0.7-1.1-1.5-1.5-2.4
		S216.8,52.4,216.8,51.3z M218,51.3c0,1.2,0.3,2.3,0.8,3.3c0.5,1,1.3,1.8,2.3,2.4s2,0.9,3.2,0.9s2.3-0.3,3.2-0.9
		c1-0.6,1.7-1.4,2.2-2.4c0.5-1,0.8-2.1,0.8-3.3c0-0.9-0.2-1.8-0.5-2.6c-0.3-0.8-0.8-1.5-1.3-2.1c-0.6-0.6-1.2-1.1-2-1.4
		c-0.8-0.4-1.6-0.5-2.5-0.5c-1.2,0-2.3,0.3-3.2,0.9c-1,0.6-1.7,1.4-2.2,2.4C218.2,49,218,50.1,218,51.3z"/>
	<path d="M234.1,51.3c0-1.4,0.3-2.6,0.9-3.8c0.6-1.2,1.5-2.1,2.6-2.8c1.1-0.7,2.4-1,3.8-1c0.6,0,1.2,0.1,1.8,0.2s1,0.3,1.5,0.5
		s0.9,0.5,1.2,0.7c0.4,0.3,0.7,0.6,1.2,1l-0.7,0.7c-0.7-0.7-1.5-1.2-2.2-1.6s-1.7-0.6-2.7-0.6c-0.9,0-1.7,0.2-2.5,0.5
		s-1.4,0.8-2,1.4c-0.5,0.6-1,1.3-1.3,2.1c-0.3,0.8-0.5,1.7-0.5,2.6c0,0.9,0.2,1.8,0.5,2.6c0.3,0.8,0.8,1.5,1.3,2.1
		c0.6,0.6,1.2,1.1,2,1.4c0.8,0.3,1.6,0.5,2.4,0.5c1,0,1.9-0.2,2.7-0.6s1.6-1,2.4-1.7l0.7,0.7c-0.9,0.8-1.7,1.5-2.6,1.9
		c-0.9,0.4-2,0.7-3.2,0.7c-1.4,0-2.6-0.3-3.7-1c-1.1-0.7-2-1.6-2.6-2.7C234.4,54,234.1,52.7,234.1,51.3z"/>
	<path d="M249.6,58.7V44h10.5v1h-9.4v5.8h8.4v1h-8.4v5.9h9.5v1H249.6z"/>
	<path d="M262.9,58.7V44h1.1v6.8h9.4V44h1.1v14.7h-1.1v-6.9H264v6.9H262.9z"/>
	<path d="M278.2,58.7V44h1.1v5.9h4.3c0.7,0,1.4,0.1,2,0.2s1.2,0.4,1.7,0.7c0.5,0.3,0.9,0.8,1.2,1.3c0.3,0.6,0.4,1.2,0.4,1.9
		c0,1.4-0.5,2.5-1.4,3.3c-1,0.8-2.2,1.2-3.8,1.2H278.2z M279.3,57.7h4.3c1.4,0,2.4-0.3,3.2-0.9s1.1-1.5,1.1-2.6
		c0-1.1-0.4-1.9-1.2-2.4c-0.8-0.5-1.9-0.8-3.3-0.8h-4.1V57.7z"/>
</g>
<g>
	<path class="st0" d="M132.2,67.9v-0.6h6.5v0.6h-2.9v7.8h-0.6v-7.8H132.2z"/>
	<path class="st0" d="M138.8,72.6c0-0.4,0.1-0.9,0.2-1.2s0.3-0.7,0.6-1s0.6-0.5,0.9-0.7s0.7-0.3,1.2-0.3c0.6,0,1.1,0.1,1.5,0.4
		s0.8,0.7,1,1.2s0.3,1,0.3,1.6c0,0.1,0,0.2,0,0.2h-5.1c0.1,0.7,0.3,1.3,0.8,1.8s1,0.7,1.6,0.7c0.8,0,1.5-0.3,2.1-1l0.4,0.4
		c-0.3,0.4-0.7,0.7-1.1,0.9s-0.9,0.3-1.4,0.3c-0.4,0-0.8-0.1-1.1-0.2s-0.7-0.4-1-0.6s-0.5-0.6-0.7-1S138.8,73.1,138.8,72.6z
		 M139.4,72.4h4.5c0-0.3-0.1-0.6-0.2-0.9s-0.2-0.5-0.4-0.8s-0.4-0.4-0.7-0.5S142,70,141.7,70c-0.6,0-1.1,0.2-1.5,0.7
		S139.5,71.7,139.4,72.4z"/>
	<path class="st0" d="M146.2,75.7v-6.1h5.1v6.1h-0.6v-5.6h-3.9v5.6H146.2z"/>
	<path class="st0" d="M152.5,75.7l0.1-0.5c0.2,0.1,0.3,0.1,0.5,0.1c0.1,0,0.2,0,0.3,0s0.2-0.1,0.3-0.2s0.2-0.2,0.3-0.3
		s0.1-0.4,0.2-0.6s0.1-0.6,0.2-1s0.1-0.8,0.1-1.4s0-1.2,0-1.9v-0.3h4.2v6.1h-0.6v-5.6h-3v0.2c0,0.7,0,1.3-0.1,1.9s-0.1,1-0.1,1.4
		c-0.1,0.4-0.1,0.7-0.2,1s-0.2,0.5-0.3,0.6s-0.2,0.3-0.4,0.4s-0.3,0.1-0.4,0.2s-0.3,0-0.5,0C152.9,75.8,152.7,75.8,152.5,75.7z"/>
	<path class="st0" d="M160.9,75.7v-6.1h0.6v2.3h1.8c0.3,0,0.6,0,0.9,0.1s0.5,0.2,0.7,0.3s0.4,0.3,0.5,0.6s0.2,0.5,0.2,0.8
		c0,0.6-0.2,1.1-0.6,1.4s-0.9,0.5-1.6,0.5H160.9z M161.5,75.2h1.8c0.5,0,0.9-0.1,1.2-0.4s0.5-0.6,0.5-1c0-0.4-0.2-0.7-0.5-1
		s-0.7-0.3-1.3-0.3h-1.8V75.2z M166.8,75.7v-6.1h0.6v6.1H166.8z"/>
	<path class="st0" d="M169.7,75.7v-6.1h0.6v5.3l4.1-5.3h0.6v6.1h-0.6v-5.3l-4.1,5.3H169.7z M170.7,67.2l0.5-0.1
		c0.2,0.6,0.5,0.9,1.1,0.9c0.6,0,1-0.3,1.1-0.9l0.5,0.1c-0.1,0.4-0.3,0.7-0.6,1s-0.7,0.4-1.1,0.4s-0.8-0.1-1.1-0.4
		S170.8,67.6,170.7,67.2z"/>
	<path class="st0" d="M180.8,75.7v-6.1h0.5l2.5,3.5l2.5-3.5h0.5v6.1h-0.6v-5.1l-2.5,3.4l-2.4-3.4v5.1H180.8z"/>
	<path class="st0" d="M188.6,75.7l1.9-2.4c-0.5-0.1-0.9-0.3-1.3-0.6c-0.3-0.3-0.5-0.7-0.5-1.2c0-0.5,0.2-1,0.6-1.3s0.9-0.5,1.6-0.5
		h2.7v6.1h-0.6v-2.3h-2l-1.8,2.3H188.6z M189.4,71.4c0,0.4,0.2,0.8,0.5,1s0.7,0.4,1.2,0.4h2v-2.7h-2.1c-0.5,0-0.9,0.1-1.2,0.4
		S189.4,71,189.4,71.4z"/>
	<path class="st0" d="M196,75.7v-6.1h4v0.5h-3.5v5.6H196z"/>
	<path class="st0" d="M201.5,75.7v-6.1h0.6v3.9l3.8-3.9h0.8l-2.7,2.7l2.8,3.4H206l-2.4-3l-1.5,1.5v1.5H201.5z"/>
	<path class="st0" d="M208.2,75.7v-6.1h0.6v5.3l4.1-5.3h0.6v6.1h-0.6v-5.3l-4.1,5.3H208.2z"/>
	<path class="st0" d="M215.7,75.7v-6.1h0.6v5.3l4.1-5.3h0.6v6.1h-0.6v-5.3l-4.1,5.3H215.7z M216.8,67.2l0.5-0.1
		c0.2,0.6,0.5,0.9,1.1,0.9c0.6,0,1-0.3,1.1-0.9l0.5,0.1c-0.1,0.4-0.3,0.7-0.6,1s-0.7,0.4-1.1,0.4s-0.8-0.1-1.1-0.4
		S216.9,67.6,216.8,67.2z"/>
	<path class="st0" d="M226.9,75.7v-6.1h0.6v3.9l3.8-3.9h0.8l-2.7,2.7l2.8,3.4h-0.7l-2.4-3l-1.5,1.5v1.5H226.9z"/>
	<path class="st0" d="M232.9,72.6c0-0.4,0.1-0.8,0.2-1.2s0.4-0.7,0.7-1s0.6-0.5,1-0.7s0.8-0.3,1.3-0.3c0.6,0,1.1,0.1,1.6,0.4
		s0.9,0.7,1.1,1.2s0.4,1,0.4,1.6c0,0.6-0.1,1.1-0.4,1.6s-0.6,0.9-1.1,1.2s-1,0.4-1.6,0.4c-0.4,0-0.9-0.1-1.2-0.3s-0.7-0.4-1-0.7
		s-0.5-0.6-0.6-1S232.9,73.1,232.9,72.6z M233.5,72.6c0,0.7,0.2,1.4,0.7,1.9s1.1,0.8,1.8,0.8c0.4,0,0.9-0.1,1.2-0.4s0.7-0.6,0.9-1
		s0.3-0.8,0.3-1.3c0-0.7-0.2-1.4-0.7-1.9S236.7,70,236,70c-0.5,0-0.9,0.1-1.3,0.4s-0.7,0.6-0.9,1S233.5,72.2,233.5,72.6z"/>
	<path class="st0" d="M239.7,75.7l0.1-0.5c0.2,0.1,0.3,0.1,0.5,0.1c0.1,0,0.2,0,0.3,0s0.2-0.1,0.3-0.2s0.2-0.2,0.3-0.3
		s0.1-0.4,0.2-0.6s0.1-0.6,0.2-1s0.1-0.8,0.1-1.4s0-1.2,0-1.9v-0.3h4.2v6.1h-0.6v-5.6h-3v0.2c0,0.7,0,1.3-0.1,1.9s-0.1,1-0.1,1.4
		c-0.1,0.4-0.1,0.7-0.2,1c-0.1,0.3-0.2,0.5-0.3,0.6c-0.1,0.2-0.2,0.3-0.4,0.4s-0.3,0.1-0.4,0.2s-0.3,0-0.5,0
		C240.1,75.8,239.9,75.8,239.7,75.7z"/>
	<path class="st0" d="M247.7,72.6c0-0.4,0.1-0.8,0.2-1.2s0.4-0.7,0.7-1s0.6-0.5,1-0.7s0.8-0.3,1.3-0.3c0.6,0,1.1,0.1,1.6,0.4
		s0.9,0.7,1.1,1.2s0.4,1,0.4,1.6c0,0.6-0.1,1.1-0.4,1.6s-0.6,0.9-1.1,1.2s-1,0.4-1.6,0.4c-0.4,0-0.9-0.1-1.2-0.3s-0.7-0.4-1-0.7
		s-0.5-0.6-0.6-1S247.7,73.1,247.7,72.6z M248.3,72.6c0,0.7,0.2,1.4,0.7,1.9s1.1,0.8,1.8,0.8c0.4,0,0.9-0.1,1.2-0.4s0.7-0.6,0.9-1
		s0.3-0.8,0.3-1.3c0-0.7-0.2-1.4-0.7-1.9s-1.1-0.8-1.8-0.8c-0.5,0-0.9,0.1-1.3,0.4s-0.7,0.6-0.9,1S248.3,72.2,248.3,72.6z"/>
	<path class="st0" d="M255.7,77.6v-8h0.6v1.4c0.7-1,1.5-1.5,2.5-1.5c0.4,0,0.7,0.1,1.1,0.2s0.7,0.4,1,0.6s0.5,0.6,0.7,1
		s0.3,0.9,0.3,1.3c0,0.5-0.1,0.9-0.3,1.3s-0.4,0.7-0.7,1s-0.6,0.5-1,0.6s-0.7,0.2-1.1,0.2c-1,0-1.9-0.5-2.5-1.5v3.2H255.7z
		 M256.3,72.7c0,0.5,0.1,1,0.4,1.4s0.5,0.7,0.9,0.9s0.8,0.3,1.2,0.3c0.7,0,1.3-0.2,1.7-0.7s0.7-1.1,0.7-1.9c0-0.4-0.1-0.8-0.2-1.1
		s-0.3-0.6-0.5-0.8s-0.5-0.4-0.8-0.5s-0.6-0.2-0.9-0.2c-0.3,0-0.6,0.1-0.9,0.2s-0.6,0.3-0.8,0.5s-0.4,0.5-0.6,0.8
		S256.3,72.3,256.3,72.7z"/>
	<path class="st0" d="M263.7,75.7v-6.1h0.6v5.3l4.1-5.3h0.6v6.1h-0.6v-5.3l-4.1,5.3H263.7z"/>
	<path class="st0" d="M270.5,70.1v-0.5h5.2v0.5h-2.3v5.6h-0.6v-5.6H270.5z"/>
</g>
<rect x="41.2" y="102" class="st1" width="65.8" height="39.7"/>
<rect x="106.9" y="102" class="st2" width="65.8" height="39.7"/>
<rect x="172.7" y="102" class="st3" width="65.8" height="39.7"/>
<rect x="238.4" y="102" class="st3" width="65.8" height="39.7"/>
<rect x="304.2" y="102" class="st4" width="65.8" height="39.7"/>
<rect x="41.2" y="141.7" class="st5" width="65.8" height="39.7"/>
<rect x="106.9" y="141.7" class="st6" width="65.8" height="39.7"/>
<rect x="172.7" y="141.7" class="st7" width="65.8" height="39.7"/>
<rect x="238.4" y="141.7" class="st8" width="65.8" height="39.7"/>
<rect x="304.2" y="141.7" class="st9" width="65.8" height="39.7"/>
<rect x="41.2" y="181.4" class="st10" width="65.8" height="39.7"/>
<rect x="106.9" y="181.4" class="st11" width="65.8" height="39.7"/>
<rect x="172.7" y="181.4" class="st12" width="65.8" height="39.7"/>
<rect x="238.4" y="181.4" class="st13" width="65.8" height="39.7"/>
<rect x="304.2" y="181.4" class="st14" width="65.8" height="39.7"/>
<rect x="41.2" y="221.1" class="st15" width="65.8" height="39.7"/>
<rect x="106.9" y="221.1" class="st16" width="65.8" height="39.7"/>
<rect x="172.7" y="221.1" class="st17" width="65.8" height="39.7"/>
<rect x="238.4" y="221.1" class="st18" width="65.8" height="39.7"/>
<rect x="304.2" y="221.1" class="st19" width="65.8" height="39.7"/>
<rect x="41.2" y="260.8" class="st20" width="65.8" height="39.7"/>
<rect x="106.9" y="260.8" class="st21" width="65.8" height="39.7"/>
<rect x="172.7" y="260.8" class="st22" width="65.8" height="39.7"/>
<rect x="238.4" y="260.8" class="st23" width="65.8" height="39.7"/>
<rect x="304.2" y="260.8" class="st24" width="65.8" height="39.7"/>
<rect x="41.2" y="300.5" class="st25" width="65.8" height="39.7"/>
<rect x="106.9" y="300.5" class="st26" width="65.8" height="39.7"/>
<rect x="172.7" y="300.5" class="st27" width="65.8" height="39.7"/>
<rect x="238.4" y="300.5" class="st28" width="65.8" height="39.7"/>
<rect x="304.2" y="300.5" class="st29" width="65.8" height="39.7"/>
<rect x="41.2" y="340.2" class="st30" width="65.8" height="39.7"/>
<rect x="106.9" y="340.2" class="st31" width="65.8" height="39.7"/>
<rect x="172.7" y="340.2" class="st32" width="65.8" height="39.7"/>
<rect x="238.4" y="340.2" class="st33" width="65.8" height="39.7"/>
<rect x="304.2" y="340.2" class="st34" width="65.8" height="39.7"/>
<rect x="41.2" y="379.8" class="st35" width="65.8" height="39.7"/>
<rect x="106.9" y="379.8" class="st36" width="65.8" height="39.7"/>
<rect x="172.7" y="379.8" class="st37" width="65.8" height="39.7"/>
<rect x="238.4" y="379.8" class="st38" width="65.8" height="39.7"/>
<rect x="304.2" y="379.8" class="st39" width="65.8" height="39.7"/>
<rect x="41.2" y="419.5" class="st40" width="65.8" height="39.7"/>
<rect x="106.9" y="419.5" class="st41" width="65.8" height="39.7"/>
<rect x="172.7" y="419.5" class="st42" width="65.8" height="39.7"/>
<rect x="238.4" y="419.5" class="st43" width="65.8" height="39.7"/>
<rect x="304.2" y="419.5" class="st44" width="65.8" height="39.7"/>
<rect x="41.2" y="459.2" class="st45" width="65.8" height="39.7"/>
<rect x="106.9" y="459.2" class="st46" width="65.8" height="39.7"/>
<rect x="172.7" y="459.2" class="st47" width="65.8" height="39.7"/>
<rect x="238.4" y="459.2" class="st48" width="65.8" height="39.7"/>
<rect x="304.2" y="459.2" class="st49" width="65.8" height="39.7"/>
<rect x="41.2" y="498.9" class="st50" width="65.8" height="39.7"/>
<rect x="106.9" y="498.9" class="st51" width="65.8" height="39.7"/>
<rect x="172.7" y="498.9" class="st52" width="65.8" height="39.7"/>
<rect x="238.4" y="498.9" class="st53" width="65.8" height="39.7"/>
<rect x="304.2" y="498.9" class="st54" width="65.8" height="39.7"/>
</svg>
