<?xml version="1.0" encoding="utf-8"?>
<!-- Generator: Adobe Illustrator 22.1.0, SVG Export Plug-In . SVG Version: 6.00 Build 0)  -->
<svg version="1.1" id="Layer_1" xmlns="http://www.w3.org/2000/svg" xmlns:xlink="http://www.w3.org/1999/xlink" x="0px" y="0px"
	 viewBox="0 0 420.9 595.3" style="enable-background:new 0 0 420.9 595.3;" xml:space="preserve">
<style type="text/css">
	.st0{fill:#6B6966;}
	.st1{fill:#744F66;}
	.st2{fill:#9B5D84;}
	.st3{fill:#A45B80;}
	.st4{fill:#A05D83;}
	.st5{fill:#DA6CA6;}
	.st6{fill:#DA6CA0;}
	.st7{fill:#DA6DA1;}
	.st8{fill:#DB6FA5;}
	.st9{fill:#D778AD;}
	.st10{fill:#DF87B6;}
	.st11{fill:#D1D4EC;}
	.st12{fill:#F2EFF7;}
	.st13{fill:#F1D9E9;}
	.st14{fill:#F7F29A;}
	.st15{fill:#CCE2C1;}
	.st16{fill:#363E5A;}
	.st17{fill:#4C5791;}
	.st18{fill:#4E5EA5;}
	.st19{fill:#6171B3;}
	.st20{fill:#CBE6F3;}
	.st21{fill:#5C6EB1;}
	.st22{fill:#6783C1;}
	.st23{fill:#75A2D8;}
	.st24{fill:#8AB4E3;}
	.st25{fill:#F8F07D;}
	.st26{fill:#585B9D;}
	.st27{fill:#8569A9;}
	.st28{fill:#7F72B1;}
	.st29{fill:#988CC1;}
	.st30{fill:#715884;}
	.st31{fill:#1C2B2D;}
	.st32{fill:#3D5350;}
	.st33{fill:#3B5252;}
	.st34{fill:#618585;}
	.st35{fill:#547966;}
	.st36{fill:#75B983;}
	.st37{fill:#84BF8A;}
	.st38{fill:#080E0D;}
	.st39{fill:#3D3E5D;}
	.st40{fill:#96515C;}
	.st41{fill:#CB5A65;}
	.st42{fill:#C46AA6;}
	.st43{fill:#D699C2;}
	.st44{fill:#E8BFD9;}
	.st45{fill:#7C737E;}
	.st46{fill:#9B9498;}
	.st47{fill:#E4DBE2;}
	.st48{fill:#3F434D;}
	.st49{fill:#9D9D9F;}
	.st50{fill:#9296A2;}
	.st51{fill:#C9CBD8;}
	.st52{fill:#E2E2EE;}
	.st53{fill:#FFFFFF;}
</style>
<g>
	<path d="M120.5,58.7l5.9-7.5l-5.6-7.2h1.3l5,6.5l5-6.5h1.3l-5.6,7.2l5.8,7.5h-1.3l-5.2-6.8l-5.2,6.8H120.5z"/>
	<path d="M134.4,51.3c0-1,0.2-2,0.5-2.9c0.4-0.9,0.9-1.7,1.5-2.4c0.6-0.7,1.4-1.3,2.4-1.7s1.9-0.6,3-0.6c1.1,0,2.1,0.2,3,0.6
		c0.9,0.4,1.7,1,2.3,1.7c0.6,0.7,1.1,1.5,1.5,2.4c0.4,0.9,0.5,1.9,0.5,2.9c0,1-0.2,2-0.5,2.9c-0.4,0.9-0.9,1.7-1.5,2.4
		c-0.6,0.7-1.4,1.3-2.4,1.7s-1.9,0.6-3,0.6c-1.1,0-2.1-0.2-3-0.6c-0.9-0.4-1.7-1-2.3-1.7c-0.6-0.7-1.1-1.5-1.5-2.4
		S134.4,52.4,134.4,51.3z M135.6,51.3c0,1.2,0.3,2.3,0.8,3.3c0.5,1,1.3,1.8,2.3,2.4s2,0.9,3.2,0.9s2.3-0.3,3.2-0.9
		c1-0.6,1.7-1.4,2.2-2.4c0.5-1,0.8-2.1,0.8-3.3c0-0.9-0.2-1.8-0.5-2.6c-0.3-0.8-0.8-1.5-1.3-2.1c-0.6-0.6-1.2-1.1-2-1.4
		s-1.6-0.5-2.5-0.5c-1.2,0-2.3,0.3-3.2,0.9c-1,0.6-1.7,1.4-2.2,2.4C135.8,49,135.6,50.1,135.6,51.3z"/>
	<path d="M149.5,58.5l0.3-0.9c0.4,0.2,0.8,0.3,1.4,0.3c0.2,0,0.4,0,0.5-0.1s0.4-0.1,0.6-0.3c0.2-0.2,0.4-0.4,0.6-0.7
		s0.4-0.7,0.6-1.3s0.4-1.2,0.5-2s0.2-1.7,0.3-2.9s0.1-2.4,0.1-3.9V44h9v14.7h-1.1V45h-6.9v1.8c0,1.5,0,2.8-0.1,4
		c-0.1,1.2-0.2,2.2-0.3,3s-0.3,1.5-0.5,2.1c-0.2,0.6-0.4,1.1-0.7,1.4s-0.5,0.6-0.8,0.8s-0.6,0.3-0.9,0.4s-0.6,0.1-0.9,0.1
		c-0.3,0-0.6,0-0.9-0.1C150,58.7,149.7,58.6,149.5,58.5z"/>
	<path d="M166.5,51.3c0-1,0.2-2,0.5-2.9c0.4-0.9,0.9-1.7,1.5-2.4c0.6-0.7,1.4-1.3,2.4-1.7s1.9-0.6,3-0.6c1.1,0,2.1,0.2,3,0.6
		c0.9,0.4,1.7,1,2.3,1.7c0.6,0.7,1.1,1.5,1.5,2.4c0.4,0.9,0.5,1.9,0.5,2.9c0,1-0.2,2-0.5,2.9c-0.4,0.9-0.9,1.7-1.5,2.4
		c-0.6,0.7-1.4,1.3-2.4,1.7s-1.9,0.6-3,0.6c-1.1,0-2.1-0.2-3-0.6c-0.9-0.4-1.7-1-2.3-1.7c-0.6-0.7-1.1-1.5-1.5-2.4
		S166.5,52.4,166.5,51.3z M167.6,51.3c0,1.2,0.3,2.3,0.8,3.3c0.5,1,1.3,1.8,2.3,2.4s2,0.9,3.2,0.9s2.3-0.3,3.2-0.9
		c1-0.6,1.7-1.4,2.2-2.4c0.5-1,0.8-2.1,0.8-3.3c0-0.9-0.2-1.8-0.5-2.6c-0.3-0.8-0.8-1.5-1.3-2.1c-0.6-0.6-1.2-1.1-2-1.4
		s-1.6-0.5-2.5-0.5c-1.2,0-2.3,0.3-3.2,0.9c-1,0.6-1.7,1.4-2.2,2.4C167.9,49,167.6,50.1,167.6,51.3z"/>
	<path d="M181.7,57.7h1.7c0.7-1.1,1.3-2.5,1.7-4.4s0.6-3.9,0.6-6.2V44h9v13.7h2l-0.1,4.4h-1v-3.4h-12.6l-0.2,3.4h-1V57.7z
		 M184.6,57.7h9V45h-6.8v2.9c0,2-0.2,3.9-0.6,5.7C185.8,55.3,185.3,56.7,184.6,57.7z"/>
	<path d="M199,58.7V44h1.1v6.8h9.4V44h1.1v14.7h-1.1v-6.9h-9.4v6.9H199z"/>
	<path d="M213.1,58.7l6.8-14.8h1l6.8,14.8h-1.2l-1.9-4.1h-8.7l-1.9,4.1H213.1z M216.5,53.6h7.8l-3.9-8.5L216.5,53.6z"/>
	<path d="M229.7,58.7l4.7-6.1c-1.3-0.2-2.3-0.6-3-1.4c-0.7-0.8-1.1-1.7-1.1-3c0-1.2,0.5-2.3,1.4-3.1c1-0.8,2.2-1.2,3.8-1.2h6.2v14.7
		h-1.1v-5.9h-5l-4.5,5.9H229.7z M231.4,48.4c0,1,0.4,1.9,1.2,2.5c0.8,0.6,1.8,0.9,3.1,0.9h5V45h-5c-1.3,0-2.4,0.3-3.1,0.9
		C231.7,46.5,231.4,47.3,231.4,48.4z"/>
	<path d="M250,56.6l0.7-0.8c0.8,0.8,1.7,1.3,2.5,1.7C254,57.8,255,58,256,58c1.1,0,2-0.3,2.7-0.9c0.7-0.6,1.1-1.3,1.1-2.3
		c0-1-0.4-1.7-1.1-2.2s-1.8-0.8-3.2-0.8h-1.6v-1h1.6c1.1,0,2.1-0.3,2.8-0.8c0.7-0.6,1.1-1.3,1.1-2.3c0-0.9-0.3-1.6-1-2.1
		c-0.7-0.6-1.6-0.8-2.6-0.8c-1.6,0-3.1,0.6-4.4,1.7l-0.7-0.8c0.8-0.6,1.6-1.1,2.4-1.4c0.8-0.3,1.7-0.4,2.8-0.4
		c1.4,0,2.5,0.4,3.4,1.1c0.9,0.7,1.3,1.7,1.3,2.8c0,0.5-0.1,0.9-0.2,1.3c-0.2,0.4-0.4,0.7-0.7,1c-0.3,0.3-0.6,0.5-0.9,0.7
		c-0.3,0.2-0.7,0.3-1,0.5c1,0.3,1.7,0.7,2.3,1.3c0.6,0.6,0.9,1.4,0.9,2.3c0,1.2-0.5,2.1-1.4,2.9c-0.9,0.8-2.1,1.2-3.6,1.2
		c-1.2,0-2.2-0.2-3.2-0.6C251.8,58,250.9,57.4,250,56.6z"/>
	<path d="M263.9,58.7V44h1.1v13.1l9.6-13.1h1.1v14.7h-1.1V45.6L265,58.7H263.9z"/>
	<path d="M279.4,58.7V44h1l5.9,8.7l5.9-8.7h1v14.7h-1.1V45.9l-5.8,8.5h-0.1l-5.8-8.5v12.8H279.4z"/>
	<path d="M295.8,58.7l6.8-14.8h1l6.8,14.8h-1.2l-1.9-4.1h-8.7l-1.9,4.1H295.8z M299.2,53.6h7.8l-3.9-8.5L299.2,53.6z"/>
</g>
<g>
	<path class="st0" d="M136.2,75.7l3.4-4.3l-3.2-4.1h0.7L140,71l2.9-3.7h0.7l-3.2,4.1l3.3,4.3h-0.7l-3-3.9l-3,3.9H136.2z"/>
	<path class="st0" d="M145,72.6c0-0.4,0.1-0.8,0.2-1.2s0.4-0.7,0.7-1s0.6-0.5,1-0.7s0.8-0.3,1.3-0.3c0.6,0,1.1,0.1,1.6,0.4
		s0.9,0.7,1.1,1.2s0.4,1,0.4,1.6c0,0.6-0.1,1.1-0.4,1.6s-0.6,0.9-1.1,1.2s-1,0.4-1.6,0.4c-0.4,0-0.9-0.1-1.2-0.3s-0.7-0.4-1-0.7
		s-0.5-0.6-0.6-1S145,73.1,145,72.6z M145.6,72.6c0,0.7,0.2,1.4,0.7,1.9s1.1,0.8,1.8,0.8c0.4,0,0.9-0.1,1.2-0.4s0.7-0.6,0.9-1
		s0.3-0.8,0.3-1.3c0-0.7-0.2-1.4-0.7-1.9s-1.1-0.8-1.8-0.8c-0.5,0-0.9,0.1-1.3,0.4s-0.7,0.6-0.9,1S145.6,72.2,145.6,72.6z"/>
	<path class="st0" d="M151.8,75.7l0.1-0.5c0.2,0.1,0.3,0.1,0.5,0.1c0.1,0,0.2,0,0.3,0s0.2-0.1,0.3-0.2s0.2-0.2,0.3-0.3
		s0.1-0.4,0.2-0.6s0.1-0.6,0.2-1s0.1-0.8,0.1-1.4s0-1.2,0-1.9v-0.3h4.2v6.1h-0.6v-5.6h-3v0.2c0,0.7,0,1.3-0.1,1.9s-0.1,1-0.1,1.4
		c-0.1,0.4-0.1,0.7-0.2,1s-0.2,0.5-0.3,0.6s-0.2,0.3-0.4,0.4s-0.3,0.1-0.4,0.2s-0.3,0-0.5,0C152.2,75.8,152,75.8,151.8,75.7z"/>
	<path class="st0" d="M159.7,72.6c0-0.4,0.1-0.8,0.2-1.2s0.4-0.7,0.7-1s0.6-0.5,1-0.7s0.8-0.3,1.3-0.3c0.6,0,1.1,0.1,1.6,0.4
		s0.9,0.7,1.1,1.2s0.4,1,0.4,1.6c0,0.6-0.1,1.1-0.4,1.6s-0.6,0.9-1.1,1.2s-1,0.4-1.6,0.4c-0.4,0-0.9-0.1-1.2-0.3s-0.7-0.4-1-0.7
		s-0.5-0.6-0.6-1S159.7,73.1,159.7,72.6z M160.4,72.6c0,0.7,0.2,1.4,0.7,1.9s1.1,0.8,1.8,0.8c0.4,0,0.9-0.1,1.2-0.4s0.7-0.6,0.9-1
		s0.3-0.8,0.3-1.3c0-0.7-0.2-1.4-0.7-1.9s-1.1-0.8-1.8-0.8c-0.5,0-0.9,0.1-1.3,0.4s-0.7,0.6-0.9,1S160.4,72.2,160.4,72.6z"/>
	<path class="st0" d="M166.7,75.2h0.8c0.6-1,0.9-2.4,0.9-4.3v-1.3h4.1v5.6h1l-0.1,2.3h-0.5v-1.7h-5.6l-0.1,1.7h-0.5V75.2z
		 M168.1,75.2h3.8v-5.1h-2.9v1.1c0,0.8-0.1,1.6-0.2,2.3C168.6,74.2,168.4,74.8,168.1,75.2z"/>
	<path class="st0" d="M174.9,75.7v-6.1h0.6v2.7h4.1v-2.7h0.6v6.1h-0.6v-2.9h-4.1v2.9H174.9z"/>
	<path class="st0" d="M182.4,75.7v-6.1h0.6v2.3h1.8c0.3,0,0.6,0,0.9,0.1s0.5,0.2,0.7,0.3s0.4,0.3,0.5,0.6s0.2,0.5,0.2,0.8
		c0,0.6-0.2,1.1-0.6,1.4s-0.9,0.5-1.6,0.5H182.4z M183,75.2h1.8c0.5,0,0.9-0.1,1.2-0.4s0.5-0.6,0.5-1c0-0.4-0.2-0.7-0.5-1
		s-0.7-0.3-1.3-0.3H183V75.2z M188.4,75.7v-6.1h0.6v6.1H188.4z"/>
	<path class="st0" d="M191.2,75.7v-6.1h0.6v5.3l4.1-5.3h0.6v6.1h-0.6v-5.3l-4.1,5.3H191.2z M192.2,67.2l0.5-0.1
		c0.2,0.6,0.5,0.9,1.1,0.9c0.6,0,1-0.3,1.1-0.9l0.5,0.1c-0.1,0.4-0.3,0.7-0.6,1s-0.7,0.4-1.1,0.4s-0.8-0.1-1.1-0.4
		S192.3,67.6,192.2,67.2z"/>
	<path class="st0" d="M201.8,75.7l1.9-2.4c-0.5-0.1-0.9-0.3-1.3-0.6c-0.3-0.3-0.5-0.7-0.5-1.2c0-0.5,0.2-1,0.6-1.3s0.9-0.5,1.6-0.5
		h2.7v6.1h-0.6v-2.3h-2l-1.8,2.3H201.8z M202.7,71.4c0,0.4,0.2,0.8,0.5,1s0.7,0.4,1.2,0.4h2v-2.7h-2.1c-0.5,0-0.9,0.1-1.2,0.4
		S202.7,71,202.7,71.4z"/>
	<path class="st0" d="M209.2,77.6v-8h0.6v1.4c0.7-1,1.5-1.5,2.5-1.5c0.4,0,0.7,0.1,1.1,0.2s0.7,0.4,1,0.6s0.5,0.6,0.7,1
		s0.3,0.9,0.3,1.3c0,0.5-0.1,0.9-0.3,1.3s-0.4,0.7-0.7,1s-0.6,0.5-1,0.6s-0.7,0.2-1.1,0.2c-1,0-1.9-0.5-2.5-1.5v3.2H209.2z
		 M209.8,72.7c0,0.5,0.1,1,0.4,1.4s0.5,0.7,0.9,0.9s0.8,0.3,1.2,0.3c0.7,0,1.3-0.2,1.7-0.7s0.7-1.1,0.7-1.9c0-0.4-0.1-0.8-0.2-1.1
		s-0.3-0.6-0.5-0.8s-0.5-0.4-0.8-0.5s-0.6-0.2-0.9-0.2c-0.3,0-0.6,0.1-0.9,0.2s-0.6,0.3-0.8,0.5s-0.4,0.5-0.6,0.8
		S209.8,72.3,209.8,72.7z"/>
	<path class="st0" d="M217.1,75.7v-6.1h0.6v3.9l3.8-3.9h0.8l-2.7,2.7l2.8,3.4h-0.7l-2.4-3l-1.5,1.5v1.5H217.1z"/>
	<path class="st0" d="M223.8,75.7v-6.1h0.6v5.3l4.1-5.3h0.6v6.1h-0.6v-5.3l-4.1,5.3H223.8z"/>
	<path class="st0" d="M231.4,75.7v-6.1h0.6v5.3l4.1-5.3h0.6v6.1h-0.6v-5.3l-4.1,5.3H231.4z M232.4,67.2l0.5-0.1
		c0.2,0.6,0.5,0.9,1.1,0.9c0.6,0,1-0.3,1.1-0.9l0.5,0.1c-0.1,0.4-0.3,0.7-0.6,1s-0.7,0.4-1.1,0.4s-0.8-0.1-1.1-0.4
		S232.5,67.6,232.4,67.2z"/>
	<path class="st0" d="M242.5,75.7v-6.1h0.6v3.9l3.8-3.9h0.8l-2.7,2.7l2.8,3.4H247l-2.4-3l-1.5,1.5v1.5H242.5z"/>
	<path class="st0" d="M248.5,72.6c0-0.4,0.1-0.8,0.2-1.2s0.4-0.7,0.7-1s0.6-0.5,1-0.7s0.8-0.3,1.3-0.3c0.6,0,1.1,0.1,1.6,0.4
		s0.9,0.7,1.1,1.2s0.4,1,0.4,1.6c0,0.6-0.1,1.1-0.4,1.6s-0.6,0.9-1.1,1.2s-1,0.4-1.6,0.4c-0.4,0-0.9-0.1-1.2-0.3s-0.7-0.4-1-0.7
		s-0.5-0.6-0.6-1S248.5,73.1,248.5,72.6z M249.2,72.6c0,0.7,0.2,1.4,0.7,1.9s1.1,0.8,1.8,0.8c0.4,0,0.9-0.1,1.2-0.4s0.7-0.6,0.9-1
		s0.3-0.8,0.3-1.3c0-0.7-0.2-1.4-0.7-1.9s-1.1-0.8-1.8-0.8c-0.5,0-0.9,0.1-1.3,0.4s-0.7,0.6-0.9,1S249.2,72.2,249.2,72.6z"/>
	<path class="st0" d="M255.3,75.7l0.1-0.5c0.2,0.1,0.3,0.1,0.5,0.1c0.1,0,0.2,0,0.3,0s0.2-0.1,0.3-0.2s0.2-0.2,0.3-0.3
		s0.1-0.4,0.2-0.6s0.1-0.6,0.2-1s0.1-0.8,0.1-1.4s0-1.2,0-1.9v-0.3h4.2v6.1h-0.6v-5.6h-3v0.2c0,0.7,0,1.3-0.1,1.9s-0.1,1-0.1,1.4
		c-0.1,0.4-0.1,0.7-0.2,1c-0.1,0.3-0.2,0.5-0.3,0.6c-0.1,0.2-0.2,0.3-0.4,0.4s-0.3,0.1-0.4,0.2s-0.3,0-0.5,0
		C255.8,75.8,255.5,75.8,255.3,75.7z"/>
	<path class="st0" d="M263.3,72.6c0-0.4,0.1-0.8,0.2-1.2s0.4-0.7,0.7-1s0.6-0.5,1-0.7s0.8-0.3,1.3-0.3c0.6,0,1.1,0.1,1.6,0.4
		s0.9,0.7,1.1,1.2s0.4,1,0.4,1.6c0,0.6-0.1,1.1-0.4,1.6s-0.6,0.9-1.1,1.2s-1,0.4-1.6,0.4c-0.4,0-0.9-0.1-1.2-0.3s-0.7-0.4-1-0.7
		s-0.5-0.6-0.6-1S263.3,73.1,263.3,72.6z M263.9,72.6c0,0.7,0.2,1.4,0.7,1.9s1.1,0.8,1.8,0.8c0.4,0,0.9-0.1,1.2-0.4s0.7-0.6,0.9-1
		s0.3-0.8,0.3-1.3c0-0.7-0.2-1.4-0.7-1.9s-1.1-0.8-1.8-0.8c-0.5,0-0.9,0.1-1.3,0.4s-0.7,0.6-0.9,1S263.9,72.2,263.9,72.6z"/>
	<path class="st0" d="M271.4,77.6v-8h0.6v1.4c0.7-1,1.5-1.5,2.5-1.5c0.4,0,0.7,0.1,1.1,0.2s0.7,0.4,1,0.6s0.5,0.6,0.7,1
		s0.3,0.9,0.3,1.3c0,0.5-0.1,0.9-0.3,1.3s-0.4,0.7-0.7,1s-0.6,0.5-1,0.6s-0.7,0.2-1.1,0.2c-1,0-1.9-0.5-2.5-1.5v3.2H271.4z
		 M271.9,72.7c0,0.5,0.1,1,0.4,1.4s0.5,0.7,0.9,0.9s0.8,0.3,1.2,0.3c0.7,0,1.3-0.2,1.7-0.7s0.7-1.1,0.7-1.9c0-0.4-0.1-0.8-0.2-1.1
		s-0.3-0.6-0.5-0.8s-0.5-0.4-0.8-0.5s-0.6-0.2-0.9-0.2c-0.3,0-0.6,0.1-0.9,0.2s-0.6,0.3-0.8,0.5s-0.4,0.5-0.6,0.8
		S271.9,72.3,271.9,72.7z"/>
	<path class="st0" d="M279.3,75.7v-6.1h0.6v5.3l4.1-5.3h0.6v6.1H284v-5.3l-4.1,5.3H279.3z"/>
	<path class="st0" d="M286.1,70.1v-0.5h5.2v0.5H289v5.6h-0.6v-5.6H286.1z"/>
</g>
<rect x="51" y="102" class="st1" width="65.8" height="39.7"/>
<rect x="116.8" y="102" class="st2" width="65.8" height="39.7"/>
<rect x="182.6" y="102" class="st3" width="65.8" height="39.7"/>
<rect x="248.3" y="102" class="st4" width="65.8" height="39.7"/>
<rect x="314.1" y="102" class="st5" width="65.8" height="39.7"/>
<rect x="51" y="141.7" class="st6" width="65.8" height="39.7"/>
<rect x="116.8" y="141.7" class="st7" width="65.8" height="39.7"/>
<rect x="182.6" y="141.7" class="st8" width="65.8" height="39.7"/>
<rect x="248.3" y="141.7" class="st9" width="65.8" height="39.7"/>
<rect x="314.1" y="141.7" class="st10" width="65.8" height="39.7"/>
<rect x="51" y="181.4" class="st11" width="65.8" height="39.7"/>
<rect x="116.8" y="181.4" class="st12" width="65.8" height="39.7"/>
<rect x="182.6" y="181.4" class="st13" width="65.8" height="39.7"/>
<rect x="248.3" y="181.4" class="st14" width="65.8" height="39.7"/>
<rect x="314.1" y="181.4" class="st15" width="65.8" height="39.7"/>
<rect x="51" y="221" class="st16" width="65.8" height="39.7"/>
<rect x="116.8" y="221" class="st17" width="65.8" height="39.7"/>
<rect x="182.6" y="221" class="st18" width="65.8" height="39.7"/>
<rect x="248.3" y="221" class="st19" width="65.8" height="39.7"/>
<rect x="314.1" y="221" class="st20" width="65.8" height="39.7"/>
<rect x="51" y="260.7" class="st21" width="65.8" height="39.7"/>
<rect x="116.8" y="260.7" class="st22" width="65.8" height="39.7"/>
<rect x="182.6" y="260.7" class="st23" width="65.8" height="39.7"/>
<rect x="248.3" y="260.7" class="st24" width="65.8" height="39.7"/>
<rect x="314.1" y="260.7" class="st25" width="65.8" height="39.7"/>
<rect x="51" y="300.3" class="st26" width="65.8" height="39.7"/>
<rect x="116.8" y="300.3" class="st27" width="65.8" height="39.7"/>
<rect x="182.6" y="300.3" class="st28" width="65.8" height="39.7"/>
<rect x="248.3" y="300.3" class="st29" width="65.8" height="39.7"/>
<rect x="314.1" y="300.3" class="st30" width="65.8" height="39.7"/>
<rect x="51" y="340" class="st31" width="65.8" height="39.7"/>
<rect x="116.8" y="340" class="st32" width="65.8" height="39.7"/>
<rect x="182.6" y="340" class="st33" width="65.8" height="39.7"/>
<rect x="248.3" y="340" class="st34" width="65.8" height="39.7"/>
<rect x="314.1" y="340" class="st35" width="65.8" height="39.7"/>
<rect x="51" y="379.6" class="st35" width="65.8" height="39.7"/>
<rect x="116.8" y="379.6" class="st36" width="65.8" height="39.7"/>
<rect x="182.6" y="379.6" class="st37" width="65.8" height="39.7"/>
<rect x="248.3" y="379.6" class="st38" width="65.8" height="39.7"/>
<rect x="314.1" y="379.6" class="st39" width="65.8" height="39.7"/>
<rect x="51" y="419.3" class="st40" width="65.8" height="39.7"/>
<rect x="116.8" y="419.3" class="st41" width="65.8" height="39.7"/>
<rect x="182.6" y="419.3" class="st42" width="65.8" height="39.7"/>
<rect x="248.3" y="419.3" class="st43" width="65.8" height="39.7"/>
<rect x="314.1" y="419.3" class="st44" width="65.8" height="39.7"/>
<rect x="51" y="458.9" class="st45" width="65.8" height="39.7"/>
<rect x="116.8" y="458.9" class="st46" width="65.8" height="39.7"/>
<rect x="182.6" y="458.9" class="st47" width="65.8" height="39.7"/>
<rect x="248.3" y="458.9" class="st48" width="65.8" height="39.7"/>
<rect x="314.1" y="458.9" class="st49" width="65.8" height="39.7"/>
<rect x="51" y="498.6" class="st50" width="65.8" height="39.7"/>
<rect x="116.8" y="498.6" class="st51" width="65.8" height="39.7"/>
<rect x="182.6" y="498.6" class="st52" width="65.8" height="39.7"/>
<rect x="248.3" y="498.6" class="st53" width="65.8" height="39.7"/>
<rect x="314.1" y="498.6" class="st53" width="65.8" height="39.7"/>
</svg>
