<?xml version="1.0" encoding="utf-8"?>
<!-- Generator: Adobe Illustrator 22.1.0, SVG Export Plug-In . SVG Version: 6.00 Build 0)  -->
<svg version="1.1" xmlns="http://www.w3.org/2000/svg" xmlns:xlink="http://www.w3.org/1999/xlink" x="0px" y="0px"
	 viewBox="0 0 420.9 595.3" style="enable-background:new 0 0 420.9 595.3;" xml:space="preserve">
<style type="text/css">
	.st0{fill:none;stroke:#000000;stroke-width:0.25;stroke-miterlimit:10;}
	.st1{font-family:'GothamPro-Light';}
	.st2{font-size:21px;}
	.st3{font-family:'GothamPro-Black';}
	.st4{font-size:7.3px;}
	.st5{font-family:'GothamPro';}
	.st6{font-size:6px;}
	.st7{fill:#6B6966;}
	.st8{font-size:12px;}
	.st9{fill:none;stroke:#000000;stroke-width:0.5;stroke-miterlimit:10;}
</style>
<g id="Layer_1">
</g>
<g id="Слой_2">
	<text transform="matrix(1 0 0 1 122.7398 58.6931)" class="st1 st2">КАЛЕНДАРЬ 2019</text>
	<text transform="matrix(1 0 0 1 51.0239 521.5754)"><tspan x="0" y="0" class="st3 st4">1 </tspan><tspan x="4.8" y="0" class="st5 st4">- праздничный или нерабочий день</tspan></text>
	<g>
		<text transform="matrix(1 0 0 1 219.8277 521.5762)"><tspan x="0" y="0" class="st5 st4">9 сентября - международный день красоты</tspan><tspan x="0" y="8.8" class="st5 st4">11 ноября - день шопинга</tspan><tspan x="0" y="17.5" class="st5 st4">23 ноября - день имидж-консультанта</tspan></text>
	</g>
	<g>
		<g>
			<text transform="matrix(1 0 0 1 60.1812 106.3783)" class="st5 st6">ПН</text>
			<text transform="matrix(1 0 0 1 74.3696 106.3784)" class="st5 st6">ВТ</text>
			<text transform="matrix(1 0 0 1 88.0299 106.3783)" class="st5 st6">СР</text>
			<text transform="matrix(1 0 0 1 101.9871 106.3781)" class="st5 st6">ЧТ</text>
			<text transform="matrix(1 0 0 1 115.5908 106.3784)" class="st5 st6">ПТ</text>
			<text transform="matrix(1 0 0 1 129.2629 106.448)" class="st3 st6">СБ</text>
			<text transform="matrix(1 0 0 1 142.9862 106.448)" class="st3 st6">ВС</text>
			<text transform="matrix(1 0 0 1 83.7567 94.5923)" class="st7 st1 st8">Январь</text>
			<g>
				<text transform="matrix(1 0 0 1 77.1501 117.8783)" class="st3 st6">1</text>
			</g>
			<g>
				<text transform="matrix(1 0 0 1 90.3123 117.8781)" class="st3 st6">2</text>
			</g>
			<g>
				<text transform="matrix(1 0 0 1 104.0899 117.8779)" class="st3 st6">3</text>
			</g>
			<g>
				<text transform="matrix(1 0 0 1 117.6545 117.8782)" class="st3 st6">4</text>
			</g>
			<text transform="matrix(1 0 0 1 131.5995 117.9478)" class="st3 st6">5</text>
			<text transform="matrix(1 0 0 1 145.272 117.9478)" class="st3 st6">6</text>
			<g>
				<text transform="matrix(1 0 0 1 62.8059 129.378)" class="st3 st6">7</text>
			</g>
			<g>
				<text transform="matrix(1 0 0 1 76.5261 129.3781)" class="st3 st6">8</text>
			</g>
			<text transform="matrix(1 0 0 1 90.2434 129.378)" class="st5 st6">9</text>
			<text transform="matrix(1 0 0 1 102.7969 129.3778)" class="st5 st6">10</text>
			<text transform="matrix(1 0 0 1 117.6364 129.3781)" class="st5 st6">11</text>
			<text transform="matrix(1 0 0 1 130.4144 129.4477)" class="st3 st6">12</text>
			<text transform="matrix(1 0 0 1 144.192 129.4477)" class="st3 st6">13</text>
			<text transform="matrix(1 0 0 1 61.6237 140.8779)" class="st5 st6">14</text>
			<text transform="matrix(1 0 0 1 75.569 140.878)" class="st5 st6">15</text>
			<text transform="matrix(1 0 0 1 89.2322 140.8778)" class="st5 st6">16</text>
			<text transform="matrix(1 0 0 1 103.1538 140.8777)" class="st5 st6">17</text>
			<text transform="matrix(1 0 0 1 116.8205 140.878)" class="st5 st6">18</text>
			<text transform="matrix(1 0 0 1 130.3007 140.9475)" class="st3 st6">19</text>
			<text transform="matrix(1 0 0 1 143.2589 140.9475)" class="st3 st6">20</text>
			<text transform="matrix(1 0 0 1 61.8396 152.3778)" class="st5 st6">21</text>
			<text transform="matrix(1 0 0 1 74.8854 152.3779)" class="st5 st6">22</text>
			<text transform="matrix(1 0 0 1 88.6116 152.3777)" class="st5 st6">23</text>
			<text transform="matrix(1 0 0 1 102.2056 152.3775)" class="st5 st6">24</text>
			<text transform="matrix(1 0 0 1 116.1516 152.3778)" class="st5 st6">25</text>
			<text transform="matrix(1 0 0 1 129.6947 152.4474)" class="st3 st6">26</text>
			<text transform="matrix(1 0 0 1 143.607 152.4474)" class="st3 st6">27</text>
			<text transform="matrix(1 0 0 1 61.0237 163.8777)" class="st5 st6">28</text>
			<text transform="matrix(1 0 0 1 74.7414 163.8778)" class="st5 st6">29</text>
			<text transform="matrix(1 0 0 1 88.2635 163.8776)" class="st5 st6">30</text>
			<text transform="matrix(1 0 0 1 103.1025 163.8774)" class="st5 st6">31</text>
		</g>
		<g>
			<text transform="matrix(1 0 0 1 169.7874 106.3784)" class="st5 st6">ПН</text>
			<text transform="matrix(1 0 0 1 183.9758 106.3785)" class="st5 st6">ВТ</text>
			<text transform="matrix(1 0 0 1 197.6361 106.3783)" class="st5 st6">СР</text>
			<text transform="matrix(1 0 0 1 211.5933 106.3781)" class="st5 st6">ЧТ</text>
			<text transform="matrix(1 0 0 1 225.197 106.3784)" class="st5 st6">ПТ</text>
			<text transform="matrix(1 0 0 1 238.8691 106.448)" class="st3 st6">СБ</text>
			<text transform="matrix(1 0 0 1 252.5924 106.448)" class="st3 st6">ВС</text>
			<text transform="matrix(1 0 0 1 189.1031 94.5924)" class="st7 st1 st8">Февраль</text>
			<text transform="matrix(1 0 0 1 228.2539 117.8783)" class="st5 st6">1</text>
			<text transform="matrix(1 0 0 1 241.2238 117.9479)" class="st3 st6">2</text>
			<text transform="matrix(1 0 0 1 255.0013 117.9479)" class="st3 st6">3</text>
			<text transform="matrix(1 0 0 1 172.2407 129.3781)" class="st5 st6">4</text>
			<text transform="matrix(1 0 0 1 186.1865 129.3782)" class="st5 st6">5</text>
			<text transform="matrix(1 0 0 1 199.8496 129.3781)" class="st5 st6">6</text>
			<text transform="matrix(1 0 0 1 213.7708 129.3779)" class="st5 st6">7</text>
			<text transform="matrix(1 0 0 1 227.4375 129.3782)" class="st5 st6">8</text>
			<text transform="matrix(1 0 0 1 241.11 129.4478)" class="st3 st6">9</text>
			<text transform="matrix(1 0 0 1 253.471 129.4478)" class="st3 st6">10</text>
			<text transform="matrix(1 0 0 1 172.1689 140.878)" class="st5 st6">11</text>
			<text transform="matrix(1 0 0 1 185.2143 140.8781)" class="st5 st6">12</text>
			<text transform="matrix(1 0 0 1 198.9404 140.8779)" class="st5 st6">13</text>
			<text transform="matrix(1 0 0 1 212.5349 140.8777)" class="st5 st6">14</text>
			<text transform="matrix(1 0 0 1 226.4804 140.878)" class="st5 st6">15</text>
			<text transform="matrix(1 0 0 1 239.9069 140.9476)" class="st3 st6">16</text>
			<text transform="matrix(1 0 0 1 253.8192 140.9476)" class="st3 st6">17</text>
			<text transform="matrix(1 0 0 1 171.353 152.3778)" class="st5 st6">18</text>
			<text transform="matrix(1 0 0 1 185.0703 152.378)" class="st5 st6">19</text>
			<text transform="matrix(1 0 0 1 197.9116 152.3778)" class="st5 st6">20</text>
			<text transform="matrix(1 0 0 1 212.7507 152.3776)" class="st5 st6">21</text>
			<text transform="matrix(1 0 0 1 225.7968 152.3779)" class="st5 st6">22</text>
			<text transform="matrix(1 0 0 1 239.424 152.4475)" class="st3 st6">23</text>
			<text transform="matrix(1 0 0 1 252.9881 152.4475)" class="st3 st6">24</text>
			<g>
				<text transform="matrix(1 0 0 1 170.6841 163.8777)" class="st5 st6">25</text>
			</g>
			<text transform="matrix(1 0 0 1 184.3476 163.8778)" class="st5 st6">26</text>
			<text transform="matrix(1 0 0 1 198.2686 163.8777)" class="st5 st6">27</text>
			<text transform="matrix(1 0 0 1 211.9348 163.8775)" class="st5 st6">28</text>
		</g>
		<g>
			<text transform="matrix(1 0 0 1 279.3936 106.3786)" class="st5 st6">ПН</text>
			<text transform="matrix(1 0 0 1 293.5821 106.3787)" class="st5 st6">ВТ</text>
			<text transform="matrix(1 0 0 1 307.2423 106.3785)" class="st5 st6">СР</text>
			<text transform="matrix(1 0 0 1 321.1996 106.3783)" class="st5 st6">ЧТ</text>
			<text transform="matrix(1 0 0 1 334.8033 106.3786)" class="st5 st6">ПТ</text>
			<text transform="matrix(1 0 0 1 348.4754 106.4482)" class="st3 st6">СБ</text>
			<text transform="matrix(1 0 0 1 362.1987 106.4482)" class="st3 st6">ВС</text>
			<text transform="matrix(1 0 0 1 309.5453 94.5926)" class="st7 st1 st8">Март</text>
			<text transform="matrix(1 0 0 1 337.8601 117.8785)" class="st5 st6">1</text>
			<text transform="matrix(1 0 0 1 350.83 117.9481)" class="st3 st6">2</text>
			<text transform="matrix(1 0 0 1 364.6076 117.9481)" class="st3 st6">3</text>
			<text transform="matrix(1 0 0 1 281.8469 129.3783)" class="st5 st6">4</text>
			<text transform="matrix(1 0 0 1 295.7927 129.3784)" class="st5 st6">5</text>
			<text transform="matrix(1 0 0 1 309.4559 129.3783)" class="st5 st6">6</text>
			<text transform="matrix(1 0 0 1 323.377 129.3781)" class="st5 st6">7</text>
			<g>
				<text transform="matrix(1 0 0 1 337.0437 129.3784)" class="st3 st6">8</text>
			</g>
			<text transform="matrix(1 0 0 1 350.7163 129.448)" class="st3 st6">9</text>
			<text transform="matrix(1 0 0 1 363.0773 129.448)" class="st3 st6">10</text>
			<text transform="matrix(1 0 0 1 281.7751 140.8781)" class="st5 st6">11</text>
			<text transform="matrix(1 0 0 1 294.8206 140.8783)" class="st5 st6">12</text>
			<text transform="matrix(1 0 0 1 308.5467 140.8781)" class="st5 st6">13</text>
			<text transform="matrix(1 0 0 1 322.1412 140.8779)" class="st5 st6">14</text>
			<text transform="matrix(1 0 0 1 336.0867 140.8782)" class="st5 st6">15</text>
			<text transform="matrix(1 0 0 1 349.5132 140.9478)" class="st3 st6">16</text>
			<text transform="matrix(1 0 0 1 363.4254 140.9478)" class="st3 st6">17</text>
			<text transform="matrix(1 0 0 1 280.9592 152.3781)" class="st5 st6">18</text>
			<text transform="matrix(1 0 0 1 294.6765 152.3782)" class="st5 st6">19</text>
			<text transform="matrix(1 0 0 1 307.5179 152.378)" class="st5 st6">20</text>
			<text transform="matrix(1 0 0 1 322.357 152.3778)" class="st5 st6">21</text>
			<text transform="matrix(1 0 0 1 335.4031 152.3781)" class="st5 st6">22</text>
			<text transform="matrix(1 0 0 1 349.0302 152.4477)" class="st3 st6">23</text>
			<text transform="matrix(1 0 0 1 362.5944 152.4477)" class="st3 st6">24</text>
			<text transform="matrix(1 0 0 1 280.2903 163.8779)" class="st5 st6">25</text>
			<text transform="matrix(1 0 0 1 293.9539 163.8781)" class="st5 st6">26</text>
			<text transform="matrix(1 0 0 1 307.8748 163.8779)" class="st5 st6">27</text>
			<text transform="matrix(1 0 0 1 321.5411 163.8777)" class="st5 st6">28</text>
			<text transform="matrix(1 0 0 1 335.2591 163.878)" class="st5 st6">29</text>
			<text transform="matrix(1 0 0 1 348.7124 163.9476)" class="st3 st6">30</text>
			<text transform="matrix(1 0 0 1 363.4044 163.9476)" class="st3 st6">31</text>
		</g>
	</g>
	<g>
		<g>
			<text transform="matrix(1 0 0 1 169.8496 216.9458)" class="st5 st6">ПН</text>
			<text transform="matrix(1 0 0 1 184.0381 216.9459)" class="st5 st6">ВТ</text>
			<text transform="matrix(1 0 0 1 197.6983 216.9457)" class="st5 st6">СР</text>
			<text transform="matrix(1 0 0 1 211.6556 216.9455)" class="st5 st6">ЧТ</text>
			<text transform="matrix(1 0 0 1 225.2593 216.9458)" class="st5 st6">ПТ</text>
			<text transform="matrix(1 0 0 1 238.9313 217.0154)" class="st3 st6">СБ</text>
			<text transform="matrix(1 0 0 1 252.6547 217.0154)" class="st3 st6">ВС</text>
			<text transform="matrix(1 0 0 1 203.1273 205.1598)" class="st7 st1 st8">Май</text>
			<g>
				<text transform="matrix(1 0 0 1 211.5245 274.4446)" class="st5 st6">30</text>
			</g>
			<g>
				<text transform="matrix(1 0 0 1 226.5404 274.515)" class="st5 st6">31</text>
			</g>
			<g>
				<text transform="matrix(1 0 0 1 200.5867 228.4456)" class="st3 st6">1</text>
			</g>
			<g>
				<text transform="matrix(1 0 0 1 213.749 228.4454)" class="st3 st6">2</text>
			</g>
			<g>
				<text transform="matrix(1 0 0 1 227.5271 228.4457)" class="st3 st6">3</text>
			</g>
			<text transform="matrix(1 0 0 1 241.0912 228.5153)" class="st3 st6">4</text>
			<text transform="matrix(1 0 0 1 255.0362 228.5153)" class="st3 st6">5</text>
			<g>
				<text transform="matrix(1 0 0 1 172.3752 239.9455)" class="st5 st6">6</text>
			</g>
			<g>
				<text transform="matrix(1 0 0 1 186.2966 239.9456)" class="st5 st6">7</text>
			</g>
			<text transform="matrix(1 0 0 1 199.9627 239.9455)" class="st5 st6">8</text>
			<g>
				<text transform="matrix(1 0 0 1 213.6353 239.9453)" class="st3 st6">9</text>
			</g>
			<g>
				<text transform="matrix(1 0 0 1 225.9968 239.9456)" class="st3 st6">10</text>
			</g>
			<text transform="matrix(1 0 0 1 240.6893 240.0152)" class="st3 st6">11</text>
			<text transform="matrix(1 0 0 1 253.8511 240.0152)" class="st3 st6">12</text>
			<text transform="matrix(1 0 0 1 171.466 251.4454)" class="st5 st6">13</text>
			<text transform="matrix(1 0 0 1 185.0607 251.4455)" class="st5 st6">14</text>
			<text transform="matrix(1 0 0 1 199.0056 251.4453)" class="st5 st6">15</text>
			<text transform="matrix(1 0 0 1 212.6689 251.4451)" class="st5 st6">16</text>
			<text transform="matrix(1 0 0 1 226.591 251.4454)" class="st5 st6">17</text>
			<text transform="matrix(1 0 0 1 240.0653 251.515)" class="st3 st6">18</text>
			<text transform="matrix(1 0 0 1 253.7374 251.515)" class="st3 st6">19</text>
			<text transform="matrix(1 0 0 1 170.4372 262.9453)" class="st5 st6">20</text>
			<text transform="matrix(1 0 0 1 185.2766 262.9454)" class="st5 st6">21</text>
			<text transform="matrix(1 0 0 1 198.3221 262.9452)" class="st5 st6">22</text>
			<text transform="matrix(1 0 0 1 212.0483 262.945)" class="st5 st6">23</text>
			<text transform="matrix(1 0 0 1 225.6428 262.9453)" class="st5 st6">24</text>
			<text transform="matrix(1 0 0 1 239.4594 263.0149)" class="st3 st6">25</text>
			<text transform="matrix(1 0 0 1 253.1314 263.0149)" class="st3 st6">26</text>
			<text transform="matrix(1 0 0 1 170.7942 274.4451)" class="st5 st6">27</text>
			<text transform="matrix(1 0 0 1 184.4606 274.4453)" class="st5 st6">28</text>
			<text transform="matrix(1 0 0 1 198.178 274.4451)" class="st5 st6">29</text>
		</g>
		<g>
			<text transform="matrix(1 0 0 1 60.2435 216.9454)" class="st5 st6">ПН</text>
			<text transform="matrix(1 0 0 1 74.432 216.9456)" class="st5 st6">ВТ</text>
			<text transform="matrix(1 0 0 1 88.0922 216.9454)" class="st5 st6">СР</text>
			<text transform="matrix(1 0 0 1 102.0494 216.9452)" class="st5 st6">ЧТ</text>
			<text transform="matrix(1 0 0 1 115.6531 216.9455)" class="st5 st6">ПТ</text>
			<text transform="matrix(1 0 0 1 129.3252 217.0151)" class="st3 st6">СБ</text>
			<text transform="matrix(1 0 0 1 143.0485 217.0151)" class="st3 st6">ВС</text>
			<text transform="matrix(1 0 0 1 83.2551 205.1594)" class="st7 st1 st8">Апрель</text>
			<g>
				<text transform="matrix(1 0 0 1 63.6363 228.4453)" class="st5 st6">1</text>
			</g>
			<text transform="matrix(1 0 0 1 76.6816 228.4454)" class="st5 st6">2</text>
			<text transform="matrix(1 0 0 1 90.4078 228.4453)" class="st5 st6">3</text>
			<text transform="matrix(1 0 0 1 104.0018 228.4451)" class="st5 st6">4</text>
			<text transform="matrix(1 0 0 1 117.9478 228.4454)" class="st5 st6">5</text>
			<text transform="matrix(1 0 0 1 131.5661 228.515)" class="st3 st6">6</text>
			<text transform="matrix(1 0 0 1 145.4784 228.515)" class="st3 st6">7</text>
			<g>
				<text transform="matrix(1 0 0 1 62.8199 239.9452)" class="st5 st6">8</text>
			</g>
			<g>
				<text transform="matrix(1 0 0 1 76.5376 239.9453)" class="st5 st6">9</text>
			</g>
			<text transform="matrix(1 0 0 1 89.0909 239.9451)" class="st5 st6">10</text>
			<text transform="matrix(1 0 0 1 103.93 239.9449)" class="st5 st6">11</text>
			<text transform="matrix(1 0 0 1 116.9756 239.9452)" class="st5 st6">12</text>
			<text transform="matrix(1 0 0 1 130.486 240.0148)" class="st3 st6">13</text>
			<text transform="matrix(1 0 0 1 144.0502 240.0148)" class="st3 st6">14</text>
			<text transform="matrix(1 0 0 1 61.8628 251.445)" class="st5 st6">15</text>
			<text transform="matrix(1 0 0 1 75.5264 251.4452)" class="st5 st6">16</text>
			<text transform="matrix(1 0 0 1 89.4478 251.445)" class="st5 st6">17</text>
			<text transform="matrix(1 0 0 1 103.1141 251.4448)" class="st5 st6">18</text>
			<text transform="matrix(1 0 0 1 116.8315 251.4451)" class="st5 st6">19</text>
			<text transform="matrix(1 0 0 1 129.5529 251.5147)" class="st3 st6">20</text>
			<text transform="matrix(1 0 0 1 144.245 251.5147)" class="st3 st6">21</text>
			<text transform="matrix(1 0 0 1 61.1792 262.9449)" class="st5 st6">22</text>
			<text transform="matrix(1 0 0 1 74.9058 262.945)" class="st5 st6">23</text>
			<text transform="matrix(1 0 0 1 88.4996 262.9449)" class="st5 st6">24</text>
			<text transform="matrix(1 0 0 1 102.4451 262.9447)" class="st5 st6">25</text>
			<text transform="matrix(1 0 0 1 116.1089 262.945)" class="st5 st6">26</text>
			<text transform="matrix(1 0 0 1 129.9011 263.0146)" class="st3 st6">27</text>
			<text transform="matrix(1 0 0 1 143.6215 263.0146)" class="st3 st6">28</text>
			<text transform="matrix(1 0 0 1 61.0352 274.4448)" class="st5 st6">29</text>
			<text transform="matrix(1 0 0 1 74.5576 274.4449)" class="st5 st6">30</text>
		</g>
		<g>
			<text transform="matrix(1 0 0 1 279.4563 216.9454)" class="st5 st6">ПН</text>
			<text transform="matrix(1 0 0 1 293.6447 216.9456)" class="st5 st6">ВТ</text>
			<text transform="matrix(1 0 0 1 307.305 216.9454)" class="st5 st6">СР</text>
			<text transform="matrix(1 0 0 1 321.2622 216.9452)" class="st5 st6">ЧТ</text>
			<text transform="matrix(1 0 0 1 334.8659 216.9455)" class="st5 st6">ПТ</text>
			<text transform="matrix(1 0 0 1 348.538 217.0151)" class="st3 st6">СБ</text>
			<text transform="matrix(1 0 0 1 362.2613 217.0151)" class="st3 st6">ВС</text>
			<text transform="matrix(1 0 0 1 308.7378 205.1594)" class="st7 st1 st8">Июнь</text>
			<text transform="matrix(1 0 0 1 351.4986 228.5149)" class="st3 st6">1</text>
			<text transform="matrix(1 0 0 1 364.6609 228.5149)" class="st3 st6">2</text>
			<text transform="matrix(1 0 0 1 282.0839 239.9452)" class="st5 st6">3</text>
			<text transform="matrix(1 0 0 1 295.6781 239.9453)" class="st5 st6">4</text>
			<text transform="matrix(1 0 0 1 309.6235 239.9451)" class="st5 st6">5</text>
			<text transform="matrix(1 0 0 1 323.2868 239.9449)" class="st5 st6">6</text>
			<text transform="matrix(1 0 0 1 337.2083 239.9452)" class="st5 st6">7</text>
			<text transform="matrix(1 0 0 1 350.8746 240.0148)" class="st3 st6">8</text>
			<text transform="matrix(1 0 0 1 364.5471 240.0148)" class="st3 st6">9</text>
			<text transform="matrix(1 0 0 1 280.767 251.445)" class="st5 st6">10</text>
			<text transform="matrix(1 0 0 1 295.6063 251.4451)" class="st5 st6">11</text>
			<g>
				<text transform="matrix(1 0 0 1 308.3842 251.4449)" class="st3 st6">12</text>
			</g>
			<text transform="matrix(1 0 0 1 322.3776 251.4448)" class="st5 st6">13</text>
			<text transform="matrix(1 0 0 1 335.9725 251.4451)" class="st5 st6">14</text>
			<text transform="matrix(1 0 0 1 349.672 251.5146)" class="st3 st6">15</text>
			<text transform="matrix(1 0 0 1 363.344 251.5146)" class="st3 st6">16</text>
			<text transform="matrix(1 0 0 1 281.1239 262.9449)" class="st5 st6">17</text>
			<text transform="matrix(1 0 0 1 294.7904 262.945)" class="st5 st6">18</text>
			<text transform="matrix(1 0 0 1 308.5073 262.9448)" class="st5 st6">19</text>
			<text transform="matrix(1 0 0 1 321.3488 262.9446)" class="st5 st6">20</text>
			<text transform="matrix(1 0 0 1 336.1883 262.9449)" class="st5 st6">21</text>
			<text transform="matrix(1 0 0 1 349.0836 263.0145)" class="st3 st6">22</text>
			<text transform="matrix(1 0 0 1 362.8611 263.0145)" class="st3 st6">23</text>
			<text transform="matrix(1 0 0 1 280.1757 274.4447)" class="st5 st6">24</text>
			<text transform="matrix(1 0 0 1 294.1215 274.4448)" class="st5 st6">25</text>
			<text transform="matrix(1 0 0 1 307.7846 274.4447)" class="st5 st6">26</text>
			<text transform="matrix(1 0 0 1 321.7057 274.4445)" class="st5 st6">27</text>
			<text transform="matrix(1 0 0 1 335.3724 274.4448)" class="st5 st6">28</text>
			<text transform="matrix(1 0 0 1 348.9698 274.5143)" class="st3 st6">29</text>
			<text transform="matrix(1 0 0 1 362.5432 274.5143)" class="st3 st6">30</text>
		</g>
	</g>
	<g>
		<g>
			<text transform="matrix(1 0 0 1 59.9929 327.4713)" class="st5 st6">ПН</text>
			<text transform="matrix(1 0 0 1 74.1814 327.4714)" class="st5 st6">ВТ</text>
			<text transform="matrix(1 0 0 1 87.8416 327.4712)" class="st5 st6">СР</text>
			<text transform="matrix(1 0 0 1 101.7989 327.471)" class="st5 st6">ЧТ</text>
			<text transform="matrix(1 0 0 1 115.4026 327.4713)" class="st5 st6">ПТ</text>
			<text transform="matrix(1 0 0 1 129.0746 327.5409)" class="st3 st6">СБ</text>
			<text transform="matrix(1 0 0 1 142.7979 327.5409)" class="st3 st6">ВС</text>
			<text transform="matrix(1 0 0 1 89.3526 315.6852)" class="st7 st1 st8">Июль</text>
			<g>
				<text transform="matrix(1 0 0 1 63.3857 338.9711)" class="st5 st6">1</text>
			</g>
			<g>
				<text transform="matrix(1 0 0 1 76.4311 338.9712)" class="st5 st6">2</text>
			</g>
			<text transform="matrix(1 0 0 1 90.1572 338.971)" class="st5 st6">3</text>
			<text transform="matrix(1 0 0 1 103.7512 338.9709)" class="st5 st6">4</text>
			<text transform="matrix(1 0 0 1 117.6972 338.9712)" class="st5 st6">5</text>
			<text transform="matrix(1 0 0 1 131.3155 339.0407)" class="st3 st6">6</text>
			<text transform="matrix(1 0 0 1 145.2278 339.0407)" class="st3 st6">7</text>
			<g>
				<text transform="matrix(1 0 0 1 62.5693 350.471)" class="st5 st6">8</text>
			</g>
			<g>
				<text transform="matrix(1 0 0 1 76.287 350.4711)" class="st5 st6">9</text>
			</g>
			<text transform="matrix(1 0 0 1 88.8403 350.4709)" class="st5 st6">10</text>
			<text transform="matrix(1 0 0 1 103.6794 350.4707)" class="st5 st6">11</text>
			<text transform="matrix(1 0 0 1 116.725 350.471)" class="st5 st6">12</text>
			<text transform="matrix(1 0 0 1 130.2354 350.5406)" class="st3 st6">13</text>
			<text transform="matrix(1 0 0 1 143.7996 350.5406)" class="st3 st6">14</text>
			<text transform="matrix(1 0 0 1 61.6122 361.9708)" class="st5 st6">15</text>
			<text transform="matrix(1 0 0 1 75.2758 361.971)" class="st5 st6">16</text>
			<text transform="matrix(1 0 0 1 89.1973 361.9708)" class="st5 st6">17</text>
			<text transform="matrix(1 0 0 1 102.8635 361.9706)" class="st5 st6">18</text>
			<text transform="matrix(1 0 0 1 116.581 361.9709)" class="st5 st6">19</text>
			<text transform="matrix(1 0 0 1 129.3023 362.0405)" class="st3 st6">20</text>
			<text transform="matrix(1 0 0 1 143.9944 362.0405)" class="st3 st6">21</text>
			<text transform="matrix(1 0 0 1 60.9287 373.4707)" class="st5 st6">22</text>
			<text transform="matrix(1 0 0 1 74.6552 373.4708)" class="st5 st6">23</text>
			<text transform="matrix(1 0 0 1 88.249 373.4706)" class="st5 st6">24</text>
			<text transform="matrix(1 0 0 1 102.1946 373.4705)" class="st5 st6">25</text>
			<text transform="matrix(1 0 0 1 115.8583 373.4708)" class="st5 st6">26</text>
			<text transform="matrix(1 0 0 1 129.6505 373.5403)" class="st3 st6">27</text>
			<text transform="matrix(1 0 0 1 143.3709 373.5403)" class="st3 st6">28</text>
			<text transform="matrix(1 0 0 1 60.7846 384.9706)" class="st5 st6">29</text>
			<text transform="matrix(1 0 0 1 74.307 384.9707)" class="st5 st6">30</text>
			<text transform="matrix(1 0 0 1 89.146 384.9705)" class="st5 st6">31</text>
		</g>
		<g>
			<text transform="matrix(1 0 0 1 169.7248 327.471)" class="st5 st6">ПН</text>
			<text transform="matrix(1 0 0 1 183.9133 327.4711)" class="st5 st6">ВТ</text>
			<text transform="matrix(1 0 0 1 197.5735 327.4709)" class="st5 st6">СР</text>
			<text transform="matrix(1 0 0 1 211.5308 327.4707)" class="st5 st6">ЧТ</text>
			<text transform="matrix(1 0 0 1 225.1345 327.471)" class="st5 st6">ПТ</text>
			<text transform="matrix(1 0 0 1 238.8065 327.5406)" class="st3 st6">СБ</text>
			<text transform="matrix(1 0 0 1 252.5299 327.5406)" class="st3 st6">ВС</text>
			<text transform="matrix(1 0 0 1 194.5543 315.6849)" class="st7 st1 st8">Август</text>
			<text transform="matrix(1 0 0 1 214.4225 338.9706)" class="st5 st6">1</text>
			<text transform="matrix(1 0 0 1 227.4681 338.9709)" class="st5 st6">2</text>
			<text transform="matrix(1 0 0 1 241.1705 339.0405)" class="st3 st6">3</text>
			<text transform="matrix(1 0 0 1 254.7346 339.0405)" class="st3 st6">4</text>
			<text transform="matrix(1 0 0 1 172.3554 350.4707)" class="st5 st6">5</text>
			<text transform="matrix(1 0 0 1 186.0189 350.4708)" class="st5 st6">6</text>
			<text transform="matrix(1 0 0 1 199.9399 350.4706)" class="st5 st6">7</text>
			<text transform="matrix(1 0 0 1 213.6061 350.4705)" class="st5 st6">8</text>
			<text transform="matrix(1 0 0 1 227.3241 350.4708)" class="st5 st6">9</text>
			<text transform="matrix(1 0 0 1 239.6402 350.5403)" class="st3 st6">10</text>
			<text transform="matrix(1 0 0 1 254.3328 350.5403)" class="st3 st6">11</text>
			<g>
				<text transform="matrix(1 0 0 1 171.3832 361.9706)" class="st5 st6">12</text>
			</g>
			<text transform="matrix(1 0 0 1 185.1097 361.9707)" class="st5 st6">13</text>
			<text transform="matrix(1 0 0 1 198.7041 361.9705)" class="st5 st6">14</text>
			<text transform="matrix(1 0 0 1 212.6491 361.9703)" class="st5 st6">15</text>
			<text transform="matrix(1 0 0 1 226.3129 361.9706)" class="st5 st6">16</text>
			<text transform="matrix(1 0 0 1 239.9883 362.0402)" class="st3 st6">17</text>
			<text transform="matrix(1 0 0 1 253.7088 362.0402)" class="st3 st6">18</text>
			<text transform="matrix(1 0 0 1 171.2392 373.4704)" class="st5 st6">19</text>
			<text transform="matrix(1 0 0 1 184.0809 373.4706)" class="st5 st6">20</text>
			<text transform="matrix(1 0 0 1 198.9199 373.4704)" class="st5 st6">21</text>
			<text transform="matrix(1 0 0 1 211.9655 373.4702)" class="st5 st6">22</text>
			<text transform="matrix(1 0 0 1 225.6923 373.4705)" class="st5 st6">23</text>
			<text transform="matrix(1 0 0 1 239.1573 373.54)" class="st3 st6">24</text>
			<text transform="matrix(1 0 0 1 253.1028 373.54)" class="st3 st6">25</text>
			<text transform="matrix(1 0 0 1 170.5165 384.9703)" class="st5 st6">26</text>
			<text transform="matrix(1 0 0 1 184.4379 384.9704)" class="st5 st6">27</text>
			<text transform="matrix(1 0 0 1 198.104 384.9702)" class="st5 st6">28</text>
			<text transform="matrix(1 0 0 1 211.8215 384.97)" class="st5 st6">29</text>
			<text transform="matrix(1 0 0 1 225.3441 384.9703)" class="st5 st6">30</text>
			<g>
				<text transform="matrix(1 0 0 1 239.9669 384.9702)" class="st3 st6">31</text>
			</g>
		</g>
		<g>
			<text transform="matrix(1 0 0 1 279.3314 327.4708)" class="st5 st6">ПН</text>
			<text transform="matrix(1 0 0 1 293.5198 327.4709)" class="st5 st6">ВТ</text>
			<text transform="matrix(1 0 0 1 307.1801 327.4707)" class="st5 st6">СР</text>
			<text transform="matrix(1 0 0 1 321.1373 327.4705)" class="st5 st6">ЧТ</text>
			<text transform="matrix(1 0 0 1 334.7411 327.4708)" class="st5 st6">ПТ</text>
			<text transform="matrix(1 0 0 1 348.4131 327.5404)" class="st3 st6">СБ</text>
			<text transform="matrix(1 0 0 1 362.1364 327.5404)" class="st3 st6">ВС</text>
			<text transform="matrix(1 0 0 1 295.9948 315.6847)" class="st7 st1 st8">Сентябрь</text>
			<text transform="matrix(1 0 0 1 365.142 339.0403)" class="st3 st6">1</text>
			<text transform="matrix(1 0 0 1 282.001 350.4705)" class="st5 st6">2</text>
			<text transform="matrix(1 0 0 1 295.7275 350.4706)" class="st5 st6">3</text>
			<text transform="matrix(1 0 0 1 309.3214 350.4705)" class="st5 st6">4</text>
			<text transform="matrix(1 0 0 1 323.2669 350.4703)" class="st5 st6">5</text>
			<text transform="matrix(1 0 0 1 336.9307 350.4706)" class="st5 st6">6</text>
			<text transform="matrix(1 0 0 1 350.7981 350.5402)" class="st3 st6">7</text>
			<text transform="matrix(1 0 0 1 364.518 350.5402)" class="st3 st6">8</text>
			<text transform="matrix(1 0 0 1 281.857 361.9703)" class="st5 st6">9</text>
			<text transform="matrix(1 0 0 1 294.4106 361.9705)" class="st5 st6">10</text>
			<text transform="matrix(1 0 0 1 309.2496 361.9703)" class="st5 st6">11</text>
			<text transform="matrix(1 0 0 1 322.2947 361.9701)" class="st5 st6">12</text>
			<text transform="matrix(1 0 0 1 336.0215 361.9704)" class="st5 st6">13</text>
			<text transform="matrix(1 0 0 1 349.3698 362.04)" class="st3 st6">14</text>
			<text transform="matrix(1 0 0 1 363.3153 362.04)" class="st3 st6">15</text>
			<text transform="matrix(1 0 0 1 280.8457 373.4702)" class="st5 st6">16</text>
			<text transform="matrix(1 0 0 1 294.7676 373.4703)" class="st5 st6">17</text>
			<text transform="matrix(1 0 0 1 308.4337 373.4702)" class="st5 st6">18</text>
			<text transform="matrix(1 0 0 1 322.1507 373.47)" class="st5 st6">19</text>
			<text transform="matrix(1 0 0 1 334.9927 373.4703)" class="st5 st6">20</text>
			<text transform="matrix(1 0 0 1 349.5647 373.5399)" class="st3 st6">21</text>
			<text transform="matrix(1 0 0 1 362.727 373.5399)" class="st3 st6">22</text>
			<text transform="matrix(1 0 0 1 280.2251 384.9701)" class="st5 st6">23</text>
			<text transform="matrix(1 0 0 1 293.8193 384.9702)" class="st5 st6">24</text>
			<text transform="matrix(1 0 0 1 307.7647 384.97)" class="st5 st6">25</text>
			<text transform="matrix(1 0 0 1 321.428 384.9698)" class="st5 st6">26</text>
			<text transform="matrix(1 0 0 1 335.3496 384.9702)" class="st5 st6">27</text>
			<text transform="matrix(1 0 0 1 348.9411 385.0397)" class="st3 st6">28</text>
			<text transform="matrix(1 0 0 1 362.6132 385.0397)" class="st3 st6">29</text>
			<text transform="matrix(1 0 0 1 279.877 396.47)" class="st5 st6">30</text>
		</g>
	</g>
	<g>
		<g>
			<text transform="matrix(1 0 0 1 60.1814 438.0324)" class="st5 st6">ПН</text>
			<text transform="matrix(1 0 0 1 74.3698 438.0325)" class="st5 st6">ВТ</text>
			<text transform="matrix(1 0 0 1 88.0301 438.0323)" class="st5 st6">СР</text>
			<text transform="matrix(1 0 0 1 101.9873 438.0321)" class="st5 st6">ЧТ</text>
			<text transform="matrix(1 0 0 1 115.591 438.0324)" class="st5 st6">ПТ</text>
			<text transform="matrix(1 0 0 1 129.2631 438.102)" class="st3 st6">СБ</text>
			<text transform="matrix(1 0 0 1 142.9864 438.102)" class="st3 st6">ВС</text>
			<text transform="matrix(1 0 0 1 80.0791 426.2464)" class="st7 st1 st8">Октябрь</text>
			<g>
				<text transform="matrix(1 0 0 1 77.3427 449.5323)" class="st5 st6">1</text>
			</g>
			<g>
				<text transform="matrix(1 0 0 1 90.3877 449.5322)" class="st5 st6">2</text>
			</g>
			<g>
				<text transform="matrix(1 0 0 1 104.114 449.532)" class="st5 st6">3</text>
			</g>
			<g>
				<text transform="matrix(1 0 0 1 117.7084 449.5323)" class="st5 st6">4</text>
			</g>
			<text transform="matrix(1 0 0 1 131.5997 449.6019)" class="st3 st6">5</text>
			<text transform="matrix(1 0 0 1 145.2722 449.6019)" class="st3 st6">6</text>
			<g>
				<text transform="matrix(1 0 0 1 62.8598 461.0321)" class="st5 st6">7</text>
			</g>
			<g>
				<text transform="matrix(1 0 0 1 76.5262 461.0322)" class="st5 st6">8</text>
			</g>
			<g>
				<text transform="matrix(1 0 0 1 90.2436 461.032)" class="st5 st6">9</text>
			</g>
			<g>
				<text transform="matrix(1 0 0 1 102.7971 461.0319)" class="st5 st6">10</text>
			</g>
			<g>
				<text transform="matrix(1 0 0 1 117.6366 461.0322)" class="st5 st6">11</text>
			</g>
			<text transform="matrix(1 0 0 1 130.4146 461.1017)" class="st3 st6">12</text>
			<text transform="matrix(1 0 0 1 144.1921 461.1017)" class="st3 st6">13</text>
			<text transform="matrix(1 0 0 1 61.624 472.532)" class="st5 st6">14</text>
			<text transform="matrix(1 0 0 1 75.5692 472.5321)" class="st5 st6">15</text>
			<text transform="matrix(1 0 0 1 89.2324 472.5319)" class="st5 st6">16</text>
			<text transform="matrix(1 0 0 1 103.154 472.5317)" class="st5 st6">17</text>
			<text transform="matrix(1 0 0 1 116.8207 472.532)" class="st5 st6">18</text>
			<text transform="matrix(1 0 0 1 130.3008 472.6016)" class="st3 st6">19</text>
			<text transform="matrix(1 0 0 1 143.259 472.6016)" class="st3 st6">20</text>
			<text transform="matrix(1 0 0 1 61.8398 484.0319)" class="st5 st6">21</text>
			<text transform="matrix(1 0 0 1 74.8856 484.032)" class="st5 st6">22</text>
			<text transform="matrix(1 0 0 1 88.6118 484.0318)" class="st5 st6">23</text>
			<text transform="matrix(1 0 0 1 102.2058 484.0316)" class="st5 st6">24</text>
			<text transform="matrix(1 0 0 1 116.1518 484.0319)" class="st5 st6">25</text>
			<text transform="matrix(1 0 0 1 129.6949 484.1015)" class="st3 st6">26</text>
			<text transform="matrix(1 0 0 1 143.6072 484.1015)" class="st3 st6">27</text>
			<text transform="matrix(1 0 0 1 61.0239 495.5317)" class="st5 st6">28</text>
			<text transform="matrix(1 0 0 1 74.7416 495.5318)" class="st5 st6">29</text>
			<text transform="matrix(1 0 0 1 88.2636 495.5316)" class="st5 st6">30</text>
			<text transform="matrix(1 0 0 1 103.1027 495.5314)" class="st5 st6">31</text>
		</g>
		<g>
			<text transform="matrix(1 0 0 1 169.7877 438.0321)" class="st5 st6">ПН</text>
			<text transform="matrix(1 0 0 1 183.9761 438.0323)" class="st5 st6">ВТ</text>
			<text transform="matrix(1 0 0 1 197.6363 438.0321)" class="st5 st6">СР</text>
			<text transform="matrix(1 0 0 1 211.5936 438.0319)" class="st5 st6">ЧТ</text>
			<text transform="matrix(1 0 0 1 225.1973 438.0322)" class="st5 st6">ПТ</text>
			<text transform="matrix(1 0 0 1 238.8694 438.1018)" class="st3 st6">СБ</text>
			<text transform="matrix(1 0 0 1 252.5927 438.1018)" class="st3 st6">ВС</text>
			<text transform="matrix(1 0 0 1 192.6674 426.2462)" class="st7 st1 st8">Ноябрь</text>
			<text transform="matrix(1 0 0 1 228.2541 449.5321)" class="st5 st6">1</text>
			<text transform="matrix(1 0 0 1 241.224 449.6017)" class="st3 st6">2</text>
			<text transform="matrix(1 0 0 1 255.0016 449.6017)" class="st3 st6">3</text>
			<g>
				<text transform="matrix(1 0 0 1 172.1873 461.0319)" class="st3 st6">4</text>
			</g>
			<text transform="matrix(1 0 0 1 186.1867 461.032)" class="st5 st6">5</text>
			<text transform="matrix(1 0 0 1 199.8499 461.0318)" class="st5 st6">6</text>
			<text transform="matrix(1 0 0 1 213.771 461.0316)" class="st5 st6">7</text>
			<text transform="matrix(1 0 0 1 227.4377 461.0319)" class="st5 st6">8</text>
			<text transform="matrix(1 0 0 1 241.1103 461.1015)" class="st3 st6">9</text>
			<text transform="matrix(1 0 0 1 253.4713 461.1015)" class="st3 st6">10</text>
			<text transform="matrix(1 0 0 1 172.1692 472.5317)" class="st5 st6">11</text>
			<text transform="matrix(1 0 0 1 185.2146 472.5318)" class="st5 st6">12</text>
			<text transform="matrix(1 0 0 1 198.9407 472.5316)" class="st5 st6">13</text>
			<text transform="matrix(1 0 0 1 212.5352 472.5315)" class="st5 st6">14</text>
			<text transform="matrix(1 0 0 1 226.4807 472.5318)" class="st5 st6">15</text>
			<text transform="matrix(1 0 0 1 239.9072 472.6013)" class="st3 st6">16</text>
			<text transform="matrix(1 0 0 1 253.8194 472.6013)" class="st3 st6">17</text>
			<text transform="matrix(1 0 0 1 171.3533 484.0316)" class="st5 st6">18</text>
			<text transform="matrix(1 0 0 1 185.0705 484.0317)" class="st5 st6">19</text>
			<text transform="matrix(1 0 0 1 197.9119 484.0315)" class="st5 st6">20</text>
			<text transform="matrix(1 0 0 1 212.751 484.0313)" class="st5 st6">21</text>
			<text transform="matrix(1 0 0 1 225.7971 484.0316)" class="st5 st6">22</text>
			<text transform="matrix(1 0 0 1 239.4242 484.1012)" class="st3 st6">23</text>
			<text transform="matrix(1 0 0 1 252.9884 484.1012)" class="st3 st6">24</text>
			<text transform="matrix(1 0 0 1 170.6843 495.5315)" class="st5 st6">25</text>
			<text transform="matrix(1 0 0 1 184.3479 495.5316)" class="st5 st6">26</text>
			<text transform="matrix(1 0 0 1 198.2688 495.5314)" class="st5 st6">27</text>
			<text transform="matrix(1 0 0 1 211.9351 495.5312)" class="st5 st6">28</text>
			<text transform="matrix(1 0 0 1 225.6531 495.5315)" class="st5 st6">29</text>
			<text transform="matrix(1 0 0 1 239.1064 495.6011)" class="st3 st6">30</text>
		</g>
		<g>
			<text transform="matrix(1 0 0 1 279.2681 438.0322)" class="st5 st6">ПН</text>
			<text transform="matrix(1 0 0 1 293.4566 438.0323)" class="st5 st6">ВТ</text>
			<text transform="matrix(1 0 0 1 307.1168 438.0322)" class="st5 st6">СР</text>
			<text transform="matrix(1 0 0 1 321.0741 438.032)" class="st5 st6">ЧТ</text>
			<text transform="matrix(1 0 0 1 334.6778 438.0323)" class="st5 st6">ПТ</text>
			<text transform="matrix(1 0 0 1 348.3498 438.1019)" class="st3 st6">СБ</text>
			<text transform="matrix(1 0 0 1 362.0732 438.1019)" class="st3 st6">ВС</text>
			<text transform="matrix(1 0 0 1 299.2016 426.2462)" class="st7 st1 st8">Декабрь</text>
			<text transform="matrix(1 0 0 1 365.0787 449.6017)" class="st3 st6">1</text>
			<text transform="matrix(1 0 0 1 281.9378 461.0319)" class="st5 st6">2</text>
			<text transform="matrix(1 0 0 1 295.6643 461.032)" class="st5 st6">3</text>
			<text transform="matrix(1 0 0 1 309.2582 461.0319)" class="st5 st6">4</text>
			<text transform="matrix(1 0 0 1 323.2037 461.0317)" class="st5 st6">5</text>
			<text transform="matrix(1 0 0 1 336.8675 461.032)" class="st5 st6">6</text>
			<text transform="matrix(1 0 0 1 350.7348 461.1016)" class="st3 st6">7</text>
			<text transform="matrix(1 0 0 1 364.4547 461.1016)" class="st3 st6">8</text>
			<text transform="matrix(1 0 0 1 281.7938 472.5318)" class="st5 st6">9</text>
			<text transform="matrix(1 0 0 1 294.3474 472.5319)" class="st5 st6">10</text>
			<text transform="matrix(1 0 0 1 309.1864 472.5317)" class="st5 st6">11</text>
			<text transform="matrix(1 0 0 1 322.2315 472.5316)" class="st5 st6">12</text>
			<text transform="matrix(1 0 0 1 335.9583 472.5319)" class="st5 st6">13</text>
			<text transform="matrix(1 0 0 1 349.3065 472.6014)" class="st3 st6">14</text>
			<text transform="matrix(1 0 0 1 363.252 472.6014)" class="st3 st6">15</text>
			<text transform="matrix(1 0 0 1 280.7825 484.0317)" class="st5 st6">16</text>
			<text transform="matrix(1 0 0 1 294.7043 484.0318)" class="st5 st6">17</text>
			<text transform="matrix(1 0 0 1 308.3705 484.0316)" class="st5 st6">18</text>
			<text transform="matrix(1 0 0 1 322.0875 484.0314)" class="st5 st6">19</text>
			<text transform="matrix(1 0 0 1 334.9295 484.0317)" class="st5 st6">20</text>
			<text transform="matrix(1 0 0 1 349.5014 484.1013)" class="st3 st6">21</text>
			<text transform="matrix(1 0 0 1 362.6637 484.1013)" class="st3 st6">22</text>
			<text transform="matrix(1 0 0 1 280.1619 495.5315)" class="st5 st6">23</text>
			<text transform="matrix(1 0 0 1 293.7561 495.5316)" class="st5 st6">24</text>
			<text transform="matrix(1 0 0 1 307.7015 495.5315)" class="st5 st6">25</text>
			<text transform="matrix(1 0 0 1 321.3648 495.5313)" class="st5 st6">26</text>
			<text transform="matrix(1 0 0 1 335.2864 495.5316)" class="st5 st6">27</text>
			<text transform="matrix(1 0 0 1 348.8778 495.6012)" class="st3 st6">28</text>
			<text transform="matrix(1 0 0 1 362.5499 495.6012)" class="st3 st6">29</text>
			<text transform="matrix(1 0 0 1 279.8138 507.0314)" class="st5 st6">30</text>
			<text transform="matrix(1 0 0 1 294.6531 507.0315)" class="st5 st6">31</text>
		</g>
	</g>
	<g>
		<text transform="matrix(1 0 0 1 63.7565 535.6638)" class="st5 st4"> -  профессиональные праздники</text>
		<rect x="51" y="528.2" class="st9" width="10.1" height="10.1"/>
	</g>
	<rect x="278.7" y="355" class="st9" width="10.1" height="10.1"/>
	<rect x="169.3" y="465.5" class="st9" width="10.1" height="10.1"/>
	<rect x="238" y="477.1" class="st9" width="10.1" height="10.1"/>
</g>
</svg>
