<?xml version="1.0" encoding="utf-8"?>
<!-- Generator: Adobe Illustrator 22.1.0, SVG Export Plug-In . SVG Version: 6.00 Build 0)  -->
<svg version="1.1" id="Layer_1" xmlns="http://www.w3.org/2000/svg" xmlns:xlink="http://www.w3.org/1999/xlink" x="0px" y="0px"
	 viewBox="0 0 420.9 595.3" style="enable-background:new 0 0 420.9 595.3;" xml:space="preserve">
<style type="text/css">
	.st0{fill:#5D1900;}
	.st1{fill:#8F3629;}
	.st2{fill:#D24A43;}
	.st3{fill:#DC7A73;}
	.st4{fill:#EEC3C1;}
	.st5{fill:#5D2000;}
	.st6{fill:#913F33;}
	.st7{fill:#D55851;}
	.st8{fill:#E08877;}
	.st9{fill:#F2CDBE;}
	.st10{fill:#5F3200;}
	.st11{fill:#94532A;}
	.st12{fill:#DB7643;}
	.st13{fill:#E6A073;}
	.st14{fill:#F5D8C3;}
	.st15{fill:#624100;}
	.st16{fill:#9B6D2B;}
	.st17{fill:#E69E44;}
	.st18{fill:#EFBE7A;}
	.st19{fill:#F9E3C8;}
	.st20{fill:#696400;}
	.st21{fill:#AFA426;}
	.st22{fill:#FFF343;}
	.st23{fill:#FFF687;}
	.st24{fill:#FFFDE8;}
	.st25{fill:#2E4F14;}
	.st26{fill:#5C823E;}
	.st27{fill:#89BE5C;}
	.st28{fill:#B3D28B;}
	.st29{fill:#E7F0D2;}
	.st30{fill:#00481E;}
	.st31{fill:#367747;}
	.st32{fill:#53AC6A;}
	.st33{fill:#88C193;}
	.st34{fill:#C5E0D0;}
	.st35{fill:#00483F;}
	.st36{fill:#337972;}
	.st37{fill:#4EB1AA;}
	.st38{fill:#83C4C4;}
	.st39{fill:#15284D;}
	.st40{fill:#354C7C;}
	.st41{fill:#4C70B4;}
	.st42{fill:#728AC5;}
	.st43{fill:#B9DCDA;}
	.st44{fill:#1A1E49;}
	.st45{fill:#3C457B;}
	.st46{fill:#4D5EA5;}
	.st47{fill:#656FB1;}
	.st48{fill:#8E90C6;}
	.st49{fill:#271C48;}
	.st50{fill:#4A4278;}
	.st51{fill:#6058A0;}
	.st52{fill:#7D72B1;}
	.st53{fill:#B5AAD3;}
	.st54{fill:#411E46;}
	.st55{fill:#6D4378;}
	.st56{fill:#8F589E;}
	.st57{fill:#AD7EB5;}
	.st58{fill:#D9C7E2;}
	.st59{fill:#FFFFFF;}
	.st60{fill:#D04B44;}
	.st61{fill:#E2E2E2;}
	.st62{fill:#67A96A;}
	.st63{fill:#F9EE4D;}
	.st64{fill:#5570B3;}
	.st65{fill:#8ABE5C;}
	.st66{fill:#6AAAA8;}
	.st67{fill:#8E599D;}
	.st68{fill:#DA7644;}
	.st69{fill:#5561A7;}
	.st70{fill:#605BA2;}
	.st71{fill:#6B6966;}
</style>
<path class="st0" d="M215.4,245.1l39.2-146.5c-24.9-6.7-51.8-7.1-78.5,0L215.4,245.1z"/>
<path class="st1" d="M215.4,245.1l34.3-128.2c-21.8-5.9-45.3-6.2-68.7,0L215.4,245.1z"/>
<path class="st2" d="M215.4,245.1l29.4-109.9c-18.7-5-38.9-5.3-58.9,0L215.4,245.1z"/>
<path class="st3" d="M215.4,245.1l19.6-73.2c-12.4-3.3-25.9-3.6-39.2,0L215.4,245.1z"/>
<path class="st4" d="M215.4,245.1l14.7-54.9c-9.3-2.5-19.4-2.7-29.4,0L215.4,245.1z"/>
<path class="st5" d="M215.4,245.1l107.2-107.2c-18.2-18.2-41.3-32.1-68-39.2L215.4,245.1z"/>
<path class="st6" d="M215.4,245.1l93.8-93.8c-15.9-16-36.1-28.1-59.5-34.3L215.4,245.1z"/>
<path class="st7" d="M215.4,245.1l80.4-80.4c-13.7-13.7-31-24.1-51-29.4L215.4,245.1z"/>
<path class="st8" d="M215.4,245.1l53.6-53.6c-9.1-9.1-20.6-16.1-34-19.6L215.4,245.1z"/>
<path class="st9" d="M215.4,245.1l40.2-40.2c-6.8-6.8-15.5-12-25.5-14.7L215.4,245.1z"/>
<path class="st10" d="M215.4,245.1l146.5-39.2c-6.6-24.9-19.7-48.4-39.3-68L215.4,245.1z"/>
<path class="st11" d="M215.4,245.1l128.2-34.3c-5.8-21.8-17.3-42.4-34.4-59.5L215.4,245.1z"/>
<path class="st12" d="M215.4,245.1l109.9-29.4c-5-18.7-14.8-36.3-29.4-51L215.4,245.1z"/>
<path class="st13" d="M215.4,245.1l73.2-19.6c-3.3-12.4-9.8-24.2-19.6-34L215.4,245.1z"/>
<path class="st14" d="M215.4,245.1l54.9-14.7c-2.5-9.3-7.4-18.2-14.7-25.5L215.4,245.1z"/>
<path class="st15" d="M215.4,245.1l146.5,39.2c6.7-24.9,7.1-51.8,0-78.5L215.4,245.1z"/>
<path class="st16" d="M215.4,245.1l128.2,34.3c5.9-21.8,6.2-45.3,0-68.7L215.4,245.1z"/>
<path class="st17" d="M215.4,245.1l109.9,29.4c5-18.7,5.3-38.9,0-58.9L215.4,245.1z"/>
<path class="st18" d="M215.4,245.1l73.2,19.6c3.3-12.4,3.6-25.9,0-39.2L215.4,245.1z"/>
<path class="st19" d="M215.4,245.1l54.9,14.7c2.5-9.3,2.7-19.4,0-29.4L215.4,245.1z"/>
<path class="st20" d="M215.4,245.1l107.2,107.2c18.2-18.2,32.1-41.3,39.2-68L215.4,245.1z"/>
<path class="st21" d="M215.4,245.1l93.8,93.8c16-15.9,28.1-36.1,34.3-59.5L215.4,245.1z"/>
<path class="st22" d="M215.4,245.1l80.4,80.4c13.7-13.7,24.1-31,29.4-51L215.4,245.1z"/>
<path class="st23" d="M215.4,245.1l53.6,53.6c9.1-9.1,16.1-20.6,19.6-34L215.4,245.1z"/>
<path class="st24" d="M215.4,245.1l40.2,40.2c6.8-6.8,12-15.5,14.7-25.5L215.4,245.1z"/>
<path class="st25" d="M215.4,245.1l39.2,146.5c24.9-6.6,48.4-19.7,68-39.3L215.4,245.1z"/>
<path class="st26" d="M215.4,245.1l34.3,128.2c21.8-5.8,42.4-17.3,59.5-34.4L215.4,245.1z"/>
<path class="st27" d="M215.4,245.1l29.4,109.9c18.7-5,36.3-14.8,51-29.4L215.4,245.1z"/>
<path class="st28" d="M215.4,245.1l19.6,73.2c12.5-3.3,24.2-9.8,34-19.6L215.4,245.1z"/>
<path class="st29" d="M215.4,245.1l14.7,54.9c9.3-2.5,18.2-7.4,25.5-14.7L215.4,245.1z"/>
<path class="st30" d="M215.4,245.1l-39.2,146.5c24.9,6.7,51.8,7.1,78.5,0L215.4,245.1z"/>
<path class="st31" d="M215.4,245.1l-34.3,128.2c21.8,5.9,45.3,6.2,68.7,0L215.4,245.1z"/>
<path class="st32" d="M215.4,245.1L186,354.9c18.7,5,38.9,5.4,58.9,0L215.4,245.1z"/>
<path class="st33" d="M215.4,245.1l-19.6,73.2c12.4,3.3,25.9,3.6,39.2,0L215.4,245.1z"/>
<path class="st34" d="M215.4,245.1L200.7,300c9.3,2.5,19.4,2.7,29.4,0L215.4,245.1z"/>
<path class="st35" d="M215.4,245.1L108.2,352.3c18.2,18.2,41.3,32.1,68,39.2L215.4,245.1z"/>
<path class="st36" d="M215.4,245.1l-93.8,93.8c15.9,16,36.1,28.1,59.5,34.3L215.4,245.1z"/>
<path class="st37" d="M215.4,245.1L135,325.5c13.7,13.7,31,24.1,51,29.4L215.4,245.1z"/>
<path class="st38" d="M215.4,245.1l-53.6,53.6c9.1,9.1,20.6,16.1,34,19.6L215.4,245.1z"/>
<path class="st34" d="M215.4,245.1l-40.2,40.2c6.8,6.8,15.5,12,25.5,14.7L215.4,245.1z"/>
<path class="st39" d="M215.4,245.1L69,284.3c6.6,24.9,19.7,48.4,39.3,68L215.4,245.1z"/>
<path class="st40" d="M215.4,245.1L87.3,279.4c5.8,21.8,17.3,42.4,34.4,59.5L215.4,245.1z"/>
<path class="st41" d="M215.4,245.1l-109.9,29.4c5,18.7,14.8,36.3,29.4,51L215.4,245.1z"/>
<path class="st42" d="M215.4,245.1l-73.2,19.6c3.3,12.5,9.8,24.2,19.6,34L215.4,245.1z"/>
<path class="st43" d="M215.4,245.1l-54.9,14.7c2.5,9.3,7.4,18.2,14.7,25.5L215.4,245.1z"/>
<path class="st44" d="M215.4,245.1L69,205.8c-6.7,24.9-7.1,51.8,0,78.5L215.4,245.1z"/>
<path class="st45" d="M215.4,245.1L87.3,210.7c-5.9,21.8-6.2,45.3,0,68.7L215.4,245.1z"/>
<path class="st46" d="M215.4,245.1l-109.9-29.4c-5,18.7-5.3,38.9,0,58.9L215.4,245.1z"/>
<path class="st47" d="M215.4,245.1l-73.2-19.6c-3.3,12.4-3.6,25.9,0,39.2L215.4,245.1z"/>
<path class="st48" d="M215.4,245.1l-54.9-14.7c-2.5,9.3-2.7,19.4,0,29.4L215.4,245.1z"/>
<path class="st49" d="M215.4,245.1L108.2,137.9c-18.2,18.2-32.1,41.3-39.2,68L215.4,245.1z"/>
<path class="st50" d="M215.4,245.1l-93.8-93.8c-16,15.9-28.1,36.1-34.3,59.5L215.4,245.1z"/>
<path class="st51" d="M215.4,245.1L135,164.7c-13.7,13.7-24.1,31-29.4,51L215.4,245.1z"/>
<path class="st52" d="M215.4,245.1l-53.6-53.6c-9.1,9.1-16.1,20.6-19.6,34L215.4,245.1z"/>
<path class="st53" d="M215.4,245.1l-40.2-40.2c-6.8,6.8-12,15.5-14.7,25.5L215.4,245.1z"/>
<path class="st54" d="M215.4,245.1L176.2,98.6c-24.9,6.6-48.4,19.7-68,39.3L215.4,245.1z"/>
<path class="st55" d="M215.4,245.1l-34.3-128.2c-21.8,5.8-42.4,17.3-59.5,34.4L215.4,245.1z"/>
<path class="st56" d="M215.4,245.1L186,135.2c-18.7,5-36.3,14.8-51,29.4L215.4,245.1z"/>
<path class="st57" d="M215.4,245.1l-19.6-73.2c-12.5,3.3-24.2,9.8-34,19.6L215.4,245.1z"/>
<path class="st58" d="M215.4,245.1l-14.7-54.9c-9.3,2.5-18.2,7.4-25.5,14.7L215.4,245.1z"/>
<path class="st59" d="M252,235.3c5.4,20.2-6.6,41-26.8,46.4c-20.2,5.4-41-6.6-46.4-26.8c-5.4-20.2,6.6-41,26.8-46.4
	C225.8,203.1,246.6,215.1,252,235.3z"/>
<g>
	<path d="M127.3,58.7V44h1.1v13.7h9.2V44h1.1v13.7h2l-0.1,4.4h-1v-3.4H127.3z"/>
	<path d="M143,58.7V44h6.1c1.4,0,2.6,0.3,3.5,1s1.3,1.6,1.3,2.7c0,0.5-0.1,0.9-0.2,1.3s-0.3,0.7-0.6,1c-0.3,0.3-0.5,0.5-0.8,0.7
		s-0.6,0.3-0.9,0.5c2.2,0.6,3.3,1.8,3.3,3.5c0,1.2-0.5,2.2-1.4,2.9c-1,0.7-2.2,1.1-3.8,1.1H143z M144.1,50.8h4.9
		c1.1,0,2-0.3,2.7-0.8s1-1.3,1-2.3c0-0.8-0.3-1.5-1-2c-0.6-0.5-1.5-0.7-2.7-0.7h-5V50.8z M144.1,57.7h5.3c1.3,0,2.3-0.3,3-0.8
		c0.7-0.5,1.1-1.3,1.1-2.2c0-0.9-0.4-1.6-1.2-2.1c-0.8-0.5-1.9-0.7-3.3-0.7h-5V57.7z"/>
	<path d="M157.6,58.7V44H168v1h-9.4v5.8h8.4v1h-8.4v5.9h9.5v1H157.6z"/>
	<path d="M170.3,45v-1h11.3v1h-5.1v13.7h-1.1V45H170.3z"/>
	<path d="M182.5,51.3c0-1,0.2-2,0.5-2.9c0.4-0.9,0.9-1.7,1.5-2.4c0.6-0.7,1.4-1.3,2.4-1.7s1.9-0.6,3-0.6c1.1,0,2.1,0.2,3,0.6
		c0.9,0.4,1.7,1,2.3,1.7c0.6,0.7,1.1,1.5,1.5,2.4c0.4,0.9,0.5,1.9,0.5,2.9c0,1-0.2,2-0.5,2.9c-0.4,0.9-0.9,1.7-1.5,2.4
		c-0.6,0.7-1.4,1.3-2.4,1.7s-1.9,0.6-3,0.6c-1.1,0-2.1-0.2-3-0.6c-0.9-0.4-1.7-1-2.3-1.7c-0.6-0.7-1.1-1.5-1.5-2.4
		S182.5,52.4,182.5,51.3z M183.6,51.3c0,1.2,0.3,2.3,0.8,3.3c0.5,1,1.3,1.8,2.3,2.4s2,0.9,3.2,0.9s2.3-0.3,3.2-0.9
		c1-0.6,1.7-1.4,2.2-2.4c0.5-1,0.8-2.1,0.8-3.3c0-0.9-0.2-1.8-0.5-2.6c-0.3-0.8-0.8-1.5-1.3-2.1c-0.6-0.6-1.2-1.1-2-1.4
		s-1.6-0.5-2.5-0.5c-1.2,0-2.3,0.3-3.2,0.9c-1,0.6-1.7,1.4-2.2,2.4C183.9,49,183.6,50.1,183.6,51.3z"/>
	<path d="M200.3,58.7V44h6.1c1.4,0,2.6,0.3,3.5,1c0.9,0.7,1.3,1.6,1.3,2.7c0,0.5-0.1,0.9-0.2,1.3c-0.1,0.4-0.3,0.7-0.6,1
		c-0.3,0.3-0.5,0.5-0.8,0.7s-0.6,0.3-0.9,0.5c2.2,0.6,3.3,1.8,3.3,3.5c0,1.2-0.5,2.2-1.4,2.9c-1,0.7-2.2,1.1-3.8,1.1H200.3z
		 M201.4,50.8h4.9c1.1,0,2-0.3,2.7-0.8s1-1.3,1-2.3c0-0.8-0.3-1.5-1-2c-0.6-0.5-1.5-0.7-2.7-0.7h-5V50.8z M201.4,57.7h5.3
		c1.3,0,2.3-0.3,3-0.8c0.7-0.5,1.1-1.3,1.1-2.2c0-0.9-0.4-1.6-1.2-2.1c-0.8-0.5-1.9-0.7-3.3-0.7h-5V57.7z"/>
	<path d="M214.1,51.3c0-1,0.2-2,0.5-2.9c0.4-0.9,0.9-1.7,1.5-2.4c0.6-0.7,1.4-1.3,2.4-1.7s1.9-0.6,3-0.6c1.1,0,2.1,0.2,3,0.6
		c0.9,0.4,1.7,1,2.3,1.7c0.6,0.7,1.1,1.5,1.5,2.4c0.4,0.9,0.5,1.9,0.5,2.9c0,1-0.2,2-0.5,2.9c-0.4,0.9-0.9,1.7-1.5,2.4
		c-0.6,0.7-1.4,1.3-2.4,1.7c-0.9,0.4-1.9,0.6-3,0.6c-1.1,0-2.1-0.2-3-0.6c-0.9-0.4-1.7-1-2.3-1.7c-0.6-0.7-1.1-1.5-1.5-2.4
		S214.1,52.4,214.1,51.3z M215.2,51.3c0,1.2,0.3,2.3,0.8,3.3c0.5,1,1.3,1.8,2.3,2.4s2,0.9,3.2,0.9s2.3-0.3,3.2-0.9
		c1-0.6,1.7-1.4,2.2-2.4c0.5-1,0.8-2.1,0.8-3.3c0-0.9-0.2-1.8-0.5-2.6c-0.3-0.8-0.8-1.5-1.3-2.1c-0.6-0.6-1.2-1.1-2-1.4
		c-0.8-0.4-1.6-0.5-2.5-0.5c-1.2,0-2.3,0.3-3.2,0.9c-1,0.6-1.7,1.4-2.2,2.4C215.5,49,215.2,50.1,215.2,51.3z"/>
	<path d="M231.9,58.7V44h1.1v13.1l9.6-13.1h1.1v14.7h-1.1V45.6L233,58.7H231.9z M234.9,40.4l0.9-0.2c0.3,1,0.9,1.5,2,1.5
		c1,0,1.7-0.5,2-1.5l0.9,0.2c-0.1,0.7-0.5,1.3-1,1.7s-1.1,0.7-1.9,0.7s-1.3-0.2-1.9-0.7C235.4,41.7,235.1,41.1,234.9,40.4z"/>
	<path d="M253.2,58.7V44h1.1v9.7l9.4-9.7h1.5l-6.4,6.5l6.7,8.2H264l-6-7.4l-3.7,3.7v3.7H253.2z"/>
	<path d="M267.8,58.7V44h5.3c1.6,0,3,0.4,4,1.2c1,0.8,1.5,1.9,1.5,3.3c0,0.8-0.2,1.4-0.5,2c-0.3,0.6-0.7,1.1-1.3,1.5
		c-0.5,0.4-1.1,0.7-1.8,0.9s-1.4,0.3-2.2,0.3h-4v5.5H267.8z M268.9,52.2h4c1.4,0,2.5-0.3,3.3-1c0.8-0.7,1.3-1.5,1.3-2.7
		c0-1.1-0.4-2-1.2-2.6S274.4,45,273,45h-4.2V52.2z"/>
	<path d="M279.7,44h1.3l5.9,10.2l5-10.2h1.2l-5.8,11.7c-0.6,1.1-1.2,1.9-1.9,2.5c-0.7,0.5-1.5,0.8-2.3,0.8c-0.8,0-1.6-0.2-2.4-0.5
		l0.4-0.9c0.6,0.3,1.2,0.4,1.9,0.4c1.4,0,2.5-0.9,3.3-2.6L279.7,44z"/>
	<path d="M295.6,58.7V44h9.2v1h-8.1v13.7H295.6z"/>
</g>
<g>
	<g>
		<g>
			<path d="M57.6,465.3v-4.2h0.5v2.5l2.4-2.5h0.6l-1.8,1.8l1.9,2.4h-0.6l-1.6-2l-0.9,0.9v1.1H57.6z"/>
			<path d="M64.2,464.9c-0.3,0.3-0.7,0.5-1.2,0.5s-0.8-0.2-1.1-0.5c-0.3-0.3-0.5-0.7-0.5-1.1c0-0.4,0.2-0.8,0.5-1.1
				c0.3-0.3,0.7-0.5,1.2-0.5s0.8,0.2,1.2,0.5c0.3,0.3,0.5,0.7,0.5,1.1C64.7,464.2,64.5,464.6,64.2,464.9z M63.1,464.9
				c0.3,0,0.6-0.1,0.8-0.3c0.2-0.2,0.3-0.5,0.3-0.9c0-0.3-0.1-0.6-0.3-0.9c-0.2-0.2-0.5-0.4-0.8-0.4c-0.3,0-0.6,0.1-0.8,0.4
				c-0.2,0.2-0.3,0.5-0.3,0.9c0,0.3,0.1,0.6,0.3,0.9C62.5,464.8,62.7,464.9,63.1,464.9z"/>
			<path d="M65.4,465.3v-3.1h0.4l1.2,1.6l1.2-1.6h0.4v3.1h-0.5v-2.4l-1.1,1.6l-1.1-1.6v2.4H65.4z"/>
			<path d="M69.5,465.3v-3.1h2.7v3.1h-0.5v-2.7H70v2.7H69.5z"/>
			<path d="M72.9,465.3c-0.1,0-0.2,0-0.4,0l0.1-0.4c0.1,0,0.2,0,0.2,0c0.1,0,0.2,0,0.2,0c0.1,0,0.1-0.1,0.2-0.2
				c0.1-0.1,0.1-0.2,0.2-0.4c0-0.2,0.1-0.4,0.1-0.7c0-0.3,0-0.7,0-1.2v-0.3h2.2v3.1h-0.5v-2.7H74v0.1c0,0.5,0,0.9-0.1,1.2
				s-0.1,0.6-0.1,0.8c-0.1,0.2-0.1,0.3-0.2,0.4c-0.1,0.1-0.2,0.2-0.3,0.2C73.2,465.3,73.1,465.3,72.9,465.3z"/>
			<path d="M78,465.4c-0.4,0-0.8-0.2-1.1-0.5s-0.4-0.7-0.4-1.2c0-0.5,0.1-0.8,0.4-1.1c0.3-0.3,0.6-0.5,1.1-0.5
				c0.4,0,0.8,0.2,1.1,0.5c0.3,0.3,0.4,0.7,0.4,1.2c0,0.1,0,0.1,0,0.2h-2.5c0,0.3,0.2,0.6,0.4,0.8c0.2,0.2,0.5,0.3,0.7,0.3
				c0.4,0,0.7-0.1,1-0.4l0.3,0.3C78.9,465.2,78.5,465.4,78,465.4z M76.9,463.5h2c0-0.3-0.1-0.5-0.3-0.7c-0.2-0.2-0.4-0.3-0.7-0.3
				c-0.3,0-0.5,0.1-0.7,0.3C77,463,76.9,463.2,76.9,463.5z"/>
			<path d="M80.1,465.3v-3.1h0.4l1.2,1.6l1.2-1.6h0.4v3.1h-0.5v-2.4l-1.1,1.6l-1.1-1.6v2.4H80.1z"/>
			<path d="M85.5,465.4c-0.4,0-0.8-0.2-1.1-0.5s-0.4-0.7-0.4-1.2c0-0.5,0.1-0.8,0.4-1.1c0.3-0.3,0.6-0.5,1.1-0.5
				c0.4,0,0.8,0.2,1.1,0.5c0.3,0.3,0.4,0.7,0.4,1.2c0,0.1,0,0.1,0,0.2h-2.5c0,0.3,0.2,0.6,0.4,0.8c0.2,0.2,0.5,0.3,0.7,0.3
				c0.4,0,0.7-0.1,1-0.4l0.3,0.3C86.4,465.2,86,465.4,85.5,465.4z M84.4,463.5h2c0-0.3-0.1-0.5-0.3-0.7c-0.2-0.2-0.4-0.3-0.7-0.3
				c-0.3,0-0.5,0.1-0.7,0.3C84.6,463,84.5,463.2,84.4,463.5z"/>
			<path d="M87.6,465.3v-3.1H88v1.3h1.8v-1.3h0.5v3.1h-0.5v-1.4H88v1.4H87.6z"/>
			<path d="M92,465.3v-2.7h-1.1v-0.4h2.7v0.4h-1.1v2.7H92z"/>
			<path d="M94.9,465.3c-0.3,0-0.6-0.1-0.8-0.3c-0.2-0.2-0.3-0.4-0.3-0.7c0-0.3,0.1-0.6,0.4-0.8c0.2-0.2,0.6-0.3,1-0.3
				c0.3,0,0.6,0,0.9,0.1v-0.1c0-0.3-0.1-0.5-0.2-0.6c-0.2-0.1-0.4-0.2-0.7-0.2c-0.3,0-0.6,0.1-0.9,0.2l-0.1-0.4
				c0.4-0.2,0.8-0.3,1.1-0.3c0.4,0,0.8,0.1,1,0.3c0.2,0.2,0.3,0.5,0.3,0.9v1.9H96v-0.5C95.7,465.2,95.3,465.3,94.9,465.3z M95,465
				c0.3,0,0.5-0.1,0.7-0.2c0.2-0.2,0.3-0.4,0.3-0.6v-0.3c-0.3-0.1-0.6-0.1-0.9-0.1c-0.3,0-0.5,0.1-0.7,0.2c-0.2,0.1-0.2,0.3-0.2,0.5
				c0,0.2,0.1,0.3,0.2,0.5C94.6,464.9,94.7,465,95,465z"/>
			<path d="M97.3,466.2v-4.1h0.5v0.6c0.3-0.5,0.7-0.7,1.2-0.7c0.4,0,0.7,0.1,1,0.4c0.3,0.3,0.4,0.7,0.4,1.2c0,0.5-0.1,0.9-0.4,1.2
				c-0.3,0.3-0.6,0.4-1,0.4c-0.5,0-0.9-0.2-1.2-0.7v1.6H97.3z M98.9,464.9c0.3,0,0.6-0.1,0.8-0.3s0.3-0.5,0.3-0.9
				c0-0.4-0.1-0.6-0.3-0.9s-0.5-0.3-0.8-0.3c-0.3,0-0.6,0.1-0.8,0.3c-0.2,0.2-0.3,0.5-0.3,0.9c0,0.3,0.1,0.6,0.3,0.9
				C98.3,464.8,98.6,464.9,98.9,464.9z"/>
			<path d="M101.2,465.3v-3.1h0.5v1.3h1.8v-1.3h0.5v3.1h-0.5v-1.4h-1.8v1.4H101.2z"/>
			<path d="M105.7,465.3c-0.3,0-0.6-0.1-0.8-0.3c-0.2-0.2-0.3-0.4-0.3-0.7c0-0.3,0.1-0.6,0.4-0.8c0.2-0.2,0.6-0.3,1-0.3
				c0.3,0,0.6,0,0.9,0.1v-0.1c0-0.3-0.1-0.5-0.2-0.6c-0.2-0.1-0.4-0.2-0.7-0.2c-0.3,0-0.6,0.1-0.9,0.2l-0.1-0.4
				c0.4-0.2,0.8-0.3,1.1-0.3c0.4,0,0.8,0.1,1,0.3c0.2,0.2,0.3,0.5,0.3,0.9v1.9h-0.5v-0.5C106.5,465.2,106.2,465.3,105.7,465.3z
				 M105.8,465c0.3,0,0.5-0.1,0.7-0.2c0.2-0.2,0.3-0.4,0.3-0.6v-0.3c-0.3-0.1-0.6-0.1-0.9-0.1c-0.3,0-0.5,0.1-0.7,0.2
				c-0.2,0.1-0.2,0.3-0.2,0.5c0,0.2,0.1,0.3,0.2,0.5C105.4,464.9,105.6,465,105.8,465z"/>
			<path d="M107.9,465.3l0.9-1.2c-0.2-0.1-0.4-0.2-0.6-0.3c-0.2-0.2-0.2-0.4-0.2-0.6c0-0.3,0.1-0.5,0.3-0.7s0.5-0.3,0.9-0.3h1.5v3.1
				h-0.5v-1.1h-0.9c0,0-0.2,0.2-0.4,0.5c-0.2,0.3-0.4,0.5-0.5,0.6H107.9z M109.2,463.8h1v-1.2h-1c-0.2,0-0.4,0.1-0.5,0.2
				s-0.2,0.2-0.2,0.4c0,0.2,0.1,0.3,0.2,0.4C108.8,463.7,109,463.8,109.2,463.8z"/>
			<path d="M114.6,465.4c-0.4,0-0.8-0.2-1.1-0.5c-0.3-0.3-0.5-0.7-0.5-1.1s0.2-0.8,0.5-1.1c0.3-0.3,0.7-0.5,1.1-0.5
				c0.5,0,0.9,0.2,1.2,0.6l-0.3,0.3c-0.3-0.3-0.6-0.5-1-0.5c-0.3,0-0.6,0.1-0.8,0.4c-0.2,0.2-0.3,0.5-0.3,0.9c0,0.3,0.1,0.6,0.3,0.9
				c0.2,0.2,0.5,0.4,0.8,0.4c0.3,0,0.6-0.2,0.9-0.5l0.3,0.3C115.5,465.2,115.1,465.4,114.6,465.4z"/>
			<path d="M116.2,465.3l1.2-1.6l-1.2-1.5h0.5l0.9,1.2l0.9-1.2h0.5l-1.2,1.5l1.2,1.6h-0.5l-1-1.3l-1,1.3H116.2z"/>
			<path d="M121,465.4c-0.4,0-0.8-0.2-1.1-0.5s-0.4-0.7-0.4-1.2c0-0.5,0.1-0.8,0.4-1.1c0.3-0.3,0.6-0.5,1.1-0.5
				c0.4,0,0.8,0.2,1.1,0.5c0.3,0.3,0.4,0.7,0.4,1.2c0,0.1,0,0.1,0,0.2H120c0,0.3,0.2,0.6,0.4,0.8c0.2,0.2,0.5,0.3,0.7,0.3
				c0.4,0,0.7-0.1,1-0.4l0.3,0.3C122,465.2,121.5,465.4,121,465.4z M120,463.5h2c0-0.3-0.1-0.5-0.3-0.7c-0.2-0.2-0.4-0.3-0.7-0.3
				c-0.3,0-0.5,0.1-0.7,0.3C120.1,463,120,463.2,120,463.5z"/>
			<path d="M123.1,465.3v-3.1h0.4l1.2,1.6l1.2-1.6h0.4v3.1h-0.5v-2.4l-1.1,1.6l-1.1-1.6v2.4H123.1z"/>
			<path d="M128.1,465.3c-0.3,0-0.6-0.1-0.8-0.3c-0.2-0.2-0.3-0.4-0.3-0.7c0-0.3,0.1-0.6,0.4-0.8c0.2-0.2,0.6-0.3,1-0.3
				c0.3,0,0.6,0,0.9,0.1v-0.1c0-0.3-0.1-0.5-0.2-0.6c-0.2-0.1-0.4-0.2-0.7-0.2c-0.3,0-0.6,0.1-0.9,0.2l-0.1-0.4
				c0.4-0.2,0.8-0.3,1.1-0.3c0.4,0,0.8,0.1,1,0.3c0.2,0.2,0.3,0.5,0.3,0.9v1.9h-0.5v-0.5C129,465.2,128.6,465.3,128.1,465.3z
				 M128.2,465c0.3,0,0.5-0.1,0.7-0.2c0.2-0.2,0.3-0.4,0.3-0.6v-0.3c-0.3-0.1-0.6-0.1-0.9-0.1c-0.3,0-0.5,0.1-0.7,0.2
				c-0.2,0.1-0.2,0.3-0.2,0.5c0,0.2,0.1,0.3,0.2,0.5C127.8,464.9,128,465,128.2,465z"/>
		</g>
	</g>
	<g>
		<path class="st60" d="M97.9,417.1l1.5-5.5c-3.7-1-7.7-1.1-11.7,0l0.7,2.7l0.7,2.7l1.5,5.5l0.7,2.7l2.2,8.2l2.9-11l0,0L97.9,417.1
			L97.9,417.1z"/>
		<path class="st61" d="M107.6,419.5l2-2c-2.7-2.7-6.2-4.8-10.2-5.9l-0.7,2.7l0,0l-2.9,11l0,0l-2.2,8.2l6-6l0,0L107.6,419.5
			L107.6,419.5z"/>
		<path class="st61" d="M109.6,417.5l-8,8l-2,2l0,0l-6,6l8.2-2.2l2.7-0.7l8.2-2.2l2.7-0.7C114.4,423.9,112.5,420.4,109.6,417.5z"/>
		<path class="st61" d="M115.4,427.7l-2.7,0.7l-2.7,0.7l-5.5,1.5l-2.7,0.7l-8.2,2.2l10.9,2.9l0,0l5.5,1.5l0,0l5.5,1.5
			C116.4,435.7,116.5,431.7,115.4,427.7z"/>
		<path class="st61" d="M112.7,438.7L112.7,438.7l-11-2.9l0,0l-8.2-2.2l6,6l0,0l8,8l0,0l2,2c2.7-2.7,4.8-6.2,5.9-10.2L112.7,438.7z"
			/>
		<path class="st61" d="M101.6,441.5l-2-2l0,0l-6-6l2.2,8.2l0.7,2.7l2.2,8.2l0.7,2.7c3.7-1,7.2-3,10.2-5.9L101.6,441.5z"/>
		<path class="st62" d="M90.6,444.5L90.6,444.5l-1.5,5.5l0,0l-1.5,5.5c3.7,1,7.7,1.1,11.7,0l-0.7-2.7l-0.7-2.7l-1.5-5.5l-0.7-2.7
			l-2.2-8.2L90.6,444.5z"/>
		<path class="st61" d="M93.5,433.5l-6,6l0,0l-8,8l0,0l-2,2c2.7,2.7,6.2,4.8,10.2,5.9l0.7-2.7l0,0l2.9-11l0,0L93.5,433.5z"/>
		<path class="st61" d="M93.5,433.5l-8.2,2.2l-2.7,0.7l-8.2,2.2l-2.7,0.7c1,3.7,3,7.2,5.9,10.2l8-8l2-2l0,0L93.5,433.5z"/>
		<path class="st61" d="M82.6,430.6L82.6,430.6l-5.5-1.5l0,0l-5.5-1.5c-1,3.7-1.1,7.7,0,11.7l2.7-0.7l2.7-0.7l5.5-1.5l2.7-0.7
			l8.2-2.2L82.6,430.6z"/>
		<path class="st61" d="M93.5,433.5l-6-6l0,0l-8-8l0,0l-2-2c-2.7,2.7-4.8,6.2-5.9,10.2l2.7,0.7l0,0l11,2.9l0,0L93.5,433.5z"/>
		<path class="st61" d="M77.5,417.5l8,8l2,2l0,0l6,6l-2.2-8.2l-0.7-2.7l-2.2-8.2l-0.7-2.7C83.9,412.6,80.4,414.6,77.5,417.5z"/>
		<path class="st59" d="M99,432.1c0.8,3-1,6.1-4,6.9c-3,0.8-6.1-1-6.9-4c-0.8-3,1-6.1,4-6.9C95.1,427.2,98.2,429,99,432.1z"/>
	</g>
</g>
<g>
	<g>
		<g>
			<path d="M167.3,465.3v-3.8h-1.4v-0.4h3.3v0.4h-1.4v3.8H167.3z"/>
			<path d="M169.3,466.2v-4.1h0.5v0.6c0.3-0.5,0.7-0.7,1.2-0.7c0.4,0,0.7,0.1,1,0.4c0.3,0.3,0.4,0.7,0.4,1.2c0,0.5-0.1,0.9-0.4,1.2
				c-0.3,0.3-0.6,0.4-1,0.4c-0.5,0-0.9-0.2-1.2-0.7v1.6H169.3z M170.8,464.9c0.3,0,0.6-0.1,0.8-0.3s0.3-0.5,0.3-0.9
				c0-0.4-0.1-0.6-0.3-0.9s-0.5-0.3-0.8-0.3c-0.3,0-0.6,0.1-0.8,0.3c-0.2,0.2-0.3,0.5-0.3,0.9c0,0.3,0.1,0.6,0.3,0.9
				C170.3,464.8,170.5,464.9,170.8,464.9z"/>
			<path d="M173.1,465.3v-3.1h0.5v2.5l1.8-2.5h0.4v3.1h-0.5v-2.5l-1.8,2.5H173.1z"/>
			<path d="M177.7,465.3c-0.3,0-0.6-0.1-0.8-0.3c-0.2-0.2-0.3-0.4-0.3-0.7c0-0.3,0.1-0.6,0.4-0.8c0.2-0.2,0.6-0.3,1-0.3
				c0.3,0,0.6,0,0.9,0.1v-0.1c0-0.3-0.1-0.5-0.2-0.6c-0.2-0.1-0.4-0.2-0.7-0.2c-0.3,0-0.6,0.1-0.9,0.2l-0.1-0.4
				c0.4-0.2,0.8-0.3,1.1-0.3c0.4,0,0.8,0.1,1,0.3c0.2,0.2,0.3,0.5,0.3,0.9v1.9h-0.5v-0.5C178.5,465.2,178.2,465.3,177.7,465.3z
				 M177.8,465c0.3,0,0.5-0.1,0.7-0.2s0.3-0.4,0.3-0.6v-0.3c-0.3-0.1-0.6-0.1-0.9-0.1c-0.3,0-0.5,0.1-0.7,0.2
				c-0.2,0.1-0.2,0.3-0.2,0.5c0,0.2,0.1,0.3,0.2,0.5C177.4,464.9,177.6,465,177.8,465z"/>
			<path d="M179.7,466.1v-1.2h0.3c0.3-0.5,0.4-1.2,0.4-2.2v-0.5h2.2v2.7h0.5l-0.1,1.2h-0.4v-0.8h-2.5l-0.1,0.8H179.7z M180.5,464.9
				h1.7v-2.3h-1.3v0.4C180.9,463.8,180.7,464.4,180.5,464.9z"/>
			<path d="M183.6,465.3v-3.1h0.5v1.2h0.8c0.4,0,0.7,0.1,0.9,0.2c0.2,0.2,0.3,0.4,0.3,0.7c0,0.3-0.1,0.6-0.3,0.7
				c-0.2,0.2-0.5,0.3-0.9,0.3H183.6z M184.1,464.9h0.8c0.2,0,0.4,0,0.5-0.1c0.1-0.1,0.2-0.2,0.2-0.4c0-0.2-0.1-0.3-0.2-0.4
				c-0.1-0.1-0.3-0.1-0.6-0.1h-0.8V464.9z M186.7,465.3v-3.1h0.5v3.1H186.7z"/>
		</g>
	</g>
	<g>
		<path class="st60" d="M181.1,417.1l1.5-5.5c-3.7-1-7.7-1.1-11.7,0l0.7,2.7l0.7,2.7l1.5,5.5l0.7,2.7l2.2,8.2l2.9-10.9l0,0
			L181.1,417.1L181.1,417.1z"/>
		<path class="st61" d="M190.7,419.5l2-2c-2.7-2.7-6.2-4.8-10.2-5.9l-0.7,2.7l0,0l-2.9,11l0,0l-2.2,8.2l6-6l0,0L190.7,419.5
			L190.7,419.5z"/>
		<path class="st61" d="M192.7,417.5l-8,8l-2,2l0,0l-6,6l8.2-2.2l2.7-0.7l8.2-2.2l2.7-0.7C197.6,423.9,195.7,420.4,192.7,417.5z"/>
		<path class="st61" d="M198.6,427.7l-2.7,0.7l-2.7,0.7l-5.5,1.5l-2.7,0.7l-8.2,2.2l11,2.9l0,0l5.5,1.5l0,0l5.5,1.5
			C199.6,435.7,199.7,431.7,198.6,427.7z"/>
		<path class="st63" d="M195.9,438.7L195.9,438.7l-11-2.9l0,0l-8.2-2.2l6,6l0,0l8,8l0,0l2,2c2.7-2.7,4.8-6.2,5.9-10.2L195.9,438.7z"
			/>
		<path class="st61" d="M184.7,441.6l-2-2l0,0l-6-6l2.2,8.2l0.7,2.7l2.2,8.2l0.7,2.7c3.7-1,7.2-3,10.2-5.9L184.7,441.6z"/>
		<path class="st61" d="M173.8,444.5L173.8,444.5l-1.5,5.5l0,0l-1.5,5.5c3.7,1,7.7,1.1,11.7,0l-0.7-2.7l-0.7-2.7l-1.5-5.5l-0.7-2.7
			l-2.2-8.2L173.8,444.5z"/>
		<path class="st61" d="M176.7,433.5l-6,6l0,0l-8,8l0,0l-2,2c2.7,2.7,6.2,4.8,10.2,5.9l0.7-2.7l0,0l2.9-11l0,0L176.7,433.5z"/>
		<path class="st64" d="M176.7,433.5l-8.2,2.2l-2.7,0.7l-8.2,2.2l-2.7,0.7c1,3.7,3,7.2,5.9,10.2l8-8l2-2l0,0L176.7,433.5z"/>
		<path class="st61" d="M165.7,430.6L165.7,430.6l-5.5-1.5l0,0l-5.5-1.5c-1,3.7-1.1,7.7,0,11.7l2.7-0.7l2.7-0.7l5.5-1.5l2.7-0.7
			l8.2-2.2L165.7,430.6z"/>
		<path class="st61" d="M176.7,433.5l-6-6l0,0l-8-8l0,0l-2-2c-2.7,2.7-4.8,6.2-5.9,10.2l2.7,0.7l0,0l11,2.9l0,0L176.7,433.5z"/>
		<path class="st61" d="M160.7,417.5l8,8l2,2l0,0l6,6l-2.2-8.2l-0.7-2.7l-2.2-8.2l-0.7-2.7C167.1,412.6,163.6,414.6,160.7,417.5z"/>
		<path class="st59" d="M182.2,432.1c0.8,3-1,6.1-4,6.9c-3,0.8-6.1-1-6.9-4c-0.8-3,1-6.1,4-6.9C178.3,427.2,181.4,429,182.2,432.1z"
			/>
	</g>
</g>
<g>
	<g>
		<g>
			<path d="M233,465.3l1.9-4.2h0.4l1.9,4.2h-0.5l-0.5-1.1h-2.3l-0.5,1.1H233z M234.1,463.7h1.9l-1-2.1L234.1,463.7z"/>
			<path d="M237.9,465.3v-3.1h0.5v1.3h1.8v-1.3h0.5v3.1h-0.5v-1.4h-1.8v1.4H237.9z"/>
			<path d="M242.4,465.3c-0.3,0-0.6-0.1-0.8-0.3c-0.2-0.2-0.3-0.4-0.3-0.7c0-0.3,0.1-0.6,0.4-0.8c0.2-0.2,0.6-0.3,1-0.3
				c0.3,0,0.6,0,0.9,0.1v-0.1c0-0.3-0.1-0.5-0.2-0.6c-0.2-0.1-0.4-0.2-0.7-0.2c-0.3,0-0.6,0.1-0.9,0.2l-0.1-0.4
				c0.4-0.2,0.8-0.3,1.1-0.3c0.4,0,0.8,0.1,1,0.3c0.2,0.2,0.3,0.5,0.3,0.9v1.9h-0.5v-0.5C243.2,465.2,242.9,465.3,242.4,465.3z
				 M242.5,465c0.3,0,0.5-0.1,0.7-0.2s0.3-0.4,0.3-0.6v-0.3c-0.3-0.1-0.6-0.1-0.9-0.1c-0.3,0-0.5,0.1-0.7,0.2
				c-0.2,0.1-0.2,0.3-0.2,0.5c0,0.2,0.1,0.3,0.2,0.5C242.1,464.9,242.3,465,242.5,465z"/>
			<path d="M244.7,465.3c-0.1,0-0.2,0-0.4,0l0.1-0.4c0.1,0,0.2,0,0.2,0c0.1,0,0.2,0,0.2,0c0.1,0,0.1-0.1,0.2-0.2
				c0.1-0.1,0.1-0.2,0.2-0.4s0.1-0.4,0.1-0.7c0-0.3,0-0.7,0-1.2v-0.3h2.2v3.1H247v-2.7h-1.3v0.1c0,0.5,0,0.9-0.1,1.2
				s-0.1,0.6-0.1,0.8c-0.1,0.2-0.1,0.3-0.2,0.4c-0.1,0.1-0.2,0.2-0.3,0.2S244.8,465.3,244.7,465.3z"/>
			<path d="M250.9,464.9c-0.3,0.3-0.7,0.5-1.2,0.5s-0.8-0.2-1.1-0.5c-0.3-0.3-0.5-0.7-0.5-1.1c0-0.4,0.2-0.8,0.5-1.1
				c0.3-0.3,0.7-0.5,1.2-0.5s0.8,0.2,1.2,0.5c0.3,0.3,0.5,0.7,0.5,1.1C251.4,464.2,251.2,464.6,250.9,464.9z M249.8,464.9
				c0.3,0,0.6-0.1,0.8-0.3c0.2-0.2,0.3-0.5,0.3-0.9c0-0.3-0.1-0.6-0.3-0.9c-0.2-0.2-0.5-0.4-0.8-0.4c-0.3,0-0.6,0.1-0.8,0.4
				c-0.2,0.2-0.3,0.5-0.3,0.9c0,0.3,0.1,0.6,0.3,0.9C249.2,464.8,249.5,464.9,249.8,464.9z"/>
			<path d="M252.1,465.3v-3.1h2.1v0.4h-1.6v2.7H252.1z"/>
			<path d="M257.2,464.9c-0.3,0.3-0.7,0.5-1.2,0.5s-0.8-0.2-1.1-0.5c-0.3-0.3-0.5-0.7-0.5-1.1c0-0.4,0.2-0.8,0.5-1.1
				c0.3-0.3,0.7-0.5,1.2-0.5s0.8,0.2,1.2,0.5c0.3,0.3,0.5,0.7,0.5,1.1C257.6,464.2,257.5,464.6,257.2,464.9z M256,464.9
				c0.3,0,0.6-0.1,0.8-0.3c0.2-0.2,0.3-0.5,0.3-0.9c0-0.3-0.1-0.6-0.3-0.9c-0.2-0.2-0.5-0.4-0.8-0.4c-0.3,0-0.6,0.1-0.8,0.4
				c-0.2,0.2-0.3,0.5-0.3,0.9c0,0.3,0.1,0.6,0.3,0.9C255.4,464.8,255.7,464.9,256,464.9z"/>
			<path d="M258.3,465.3v-3.1h1.5c0.3,0,0.6,0.1,0.7,0.2c0.2,0.1,0.3,0.3,0.3,0.6c0,0.3-0.2,0.6-0.5,0.7c0.5,0.1,0.7,0.4,0.7,0.8
				c0,0.3-0.1,0.5-0.3,0.6c-0.2,0.2-0.5,0.2-0.8,0.2H258.3z M258.8,463.5h1c0.2,0,0.3,0,0.5-0.1c0.1-0.1,0.2-0.2,0.2-0.4
				c0-0.1-0.1-0.2-0.2-0.3c-0.1-0.1-0.3-0.1-0.5-0.1h-1V463.5z M258.8,464.9h1c0.2,0,0.4,0,0.5-0.1s0.2-0.2,0.2-0.4
				c0-0.2-0.1-0.3-0.2-0.4c-0.1-0.1-0.3-0.1-0.6-0.1h-1V464.9z"/>
			<path d="M262.6,465.3c-0.3,0-0.6-0.1-0.8-0.3c-0.2-0.2-0.3-0.4-0.3-0.7c0-0.3,0.1-0.6,0.4-0.8c0.2-0.2,0.6-0.3,1-0.3
				c0.3,0,0.6,0,0.9,0.1v-0.1c0-0.3-0.1-0.5-0.2-0.6c-0.2-0.1-0.4-0.2-0.7-0.2c-0.3,0-0.6,0.1-0.9,0.2l-0.1-0.4
				c0.4-0.2,0.8-0.3,1.1-0.3c0.4,0,0.8,0.1,1,0.3c0.2,0.2,0.3,0.5,0.3,0.9v1.9h-0.5v-0.5C263.5,465.2,263.1,465.3,262.6,465.3z
				 M262.7,465c0.3,0,0.5-0.1,0.7-0.2s0.3-0.4,0.3-0.6v-0.3c-0.3-0.1-0.6-0.1-0.9-0.1c-0.3,0-0.5,0.1-0.7,0.2
				c-0.2,0.1-0.2,0.3-0.2,0.5c0,0.2,0.1,0.3,0.2,0.5C262.3,464.9,262.5,465,262.7,465z"/>
			<path d="M264.8,465.3l0.9-1.2c-0.2-0.1-0.4-0.2-0.6-0.3s-0.2-0.4-0.2-0.6c0-0.3,0.1-0.5,0.3-0.7s0.5-0.3,0.9-0.3h1.5v3.1h-0.5
				v-1.1h-0.9c0,0-0.2,0.2-0.4,0.5c-0.2,0.3-0.4,0.5-0.5,0.6H264.8z M266.1,463.8h1v-1.2h-1c-0.2,0-0.4,0.1-0.5,0.2
				s-0.2,0.2-0.2,0.4c0,0.2,0.1,0.3,0.2,0.4C265.7,463.7,265.9,463.8,266.1,463.8z"/>
			<path d="M271.5,465.4c-0.4,0-0.8-0.2-1.1-0.5c-0.3-0.3-0.5-0.7-0.5-1.1s0.2-0.8,0.5-1.1c0.3-0.3,0.7-0.5,1.1-0.5
				c0.5,0,0.9,0.2,1.2,0.6l-0.3,0.3c-0.3-0.3-0.6-0.5-1-0.5c-0.3,0-0.6,0.1-0.8,0.4c-0.2,0.2-0.3,0.5-0.3,0.9c0,0.3,0.1,0.6,0.3,0.9
				c0.2,0.2,0.5,0.4,0.8,0.4c0.3,0,0.6-0.2,0.9-0.5l0.3,0.3C272.4,465.2,272,465.4,271.5,465.4z"/>
			<path d="M273.1,465.3l1.2-1.6l-1.2-1.5h0.5l0.9,1.2l0.9-1.2h0.5l-1.2,1.5l1.2,1.6h-0.5l-1-1.3l-1,1.3H273.1z"/>
			<path d="M278,465.4c-0.4,0-0.8-0.2-1.1-0.5c-0.3-0.3-0.4-0.7-0.4-1.2c0-0.5,0.1-0.8,0.4-1.1c0.3-0.3,0.6-0.5,1.1-0.5
				c0.4,0,0.8,0.2,1.1,0.5c0.3,0.3,0.4,0.7,0.4,1.2c0,0.1,0,0.1,0,0.2h-2.5c0,0.3,0.2,0.6,0.4,0.8c0.2,0.2,0.5,0.3,0.7,0.3
				c0.4,0,0.7-0.1,1-0.4l0.3,0.3C278.9,465.2,278.5,465.4,278,465.4z M276.9,463.5h2c0-0.3-0.1-0.5-0.3-0.7
				c-0.2-0.2-0.4-0.3-0.7-0.3c-0.3,0-0.5,0.1-0.7,0.3C277,463,276.9,463.2,276.9,463.5z"/>
			<path d="M280,465.3v-3.1h0.4l1.2,1.6l1.2-1.6h0.4v3.1h-0.5v-2.4l-1.1,1.6l-1.1-1.6v2.4H280z"/>
			<path d="M285.1,465.3c-0.3,0-0.6-0.1-0.8-0.3c-0.2-0.2-0.3-0.4-0.3-0.7c0-0.3,0.1-0.6,0.4-0.8c0.2-0.2,0.6-0.3,1-0.3
				c0.3,0,0.6,0,0.9,0.1v-0.1c0-0.3-0.1-0.5-0.2-0.6c-0.2-0.1-0.4-0.2-0.7-0.2c-0.3,0-0.6,0.1-0.9,0.2l-0.1-0.4
				c0.4-0.2,0.8-0.3,1.1-0.3c0.4,0,0.8,0.1,1,0.3c0.2,0.2,0.3,0.5,0.3,0.9v1.9h-0.5v-0.5C285.9,465.2,285.5,465.3,285.1,465.3z
				 M285.2,465c0.3,0,0.5-0.1,0.7-0.2s0.3-0.4,0.3-0.6v-0.3c-0.3-0.1-0.6-0.1-0.9-0.1c-0.3,0-0.5,0.1-0.7,0.2
				c-0.2,0.1-0.2,0.3-0.2,0.5c0,0.2,0.1,0.3,0.2,0.5C284.8,464.9,284.9,465,285.2,465z"/>
		</g>
	</g>
	<g>
		<path class="st61" d="M264.2,417.1l1.5-5.5c-3.7-1-7.7-1.1-11.7,0l0.7,2.7l0.7,2.7l1.5,5.5l0.7,2.7l2.2,8.2l2.9-10.9l0,0
			L264.2,417.1L264.2,417.1z"/>
		<path class="st61" d="M273.9,419.5l2-2c-2.7-2.7-6.2-4.8-10.2-5.9l-0.7,2.7l0,0l-2.9,11l0,0l-2.2,8.2l6-6l0,0L273.9,419.5
			L273.9,419.5z"/>
		<path class="st61" d="M275.9,417.5l-8,8l-2,2l0,0l-6,6l8.2-2.2l2.7-0.7l8.2-2.2l2.7-0.7C280.7,423.9,278.8,420.4,275.9,417.5z"/>
		<path class="st61" d="M281.7,427.7l-2.7,0.7l-2.7,0.7l-5.5,1.5l-2.7,0.7l-8.2,2.2l11,2.9l0,0l5.5,1.5l0,0l5.5,1.5
			C282.7,435.7,282.8,431.7,281.7,427.7z"/>
		<path class="st63" d="M279,438.7L279,438.7l-11-2.9l0,0l-8.2-2.2l6,6l0,0l8,8l0,0l2,2c2.7-2.7,4.8-6.2,5.9-10.2L279,438.7z"/>
		<path class="st65" d="M267.9,441.6l-2-2l0,0l-6-6l2.2,8.2l0.7,2.7l2.2,8.2l0.7,2.7c3.7-1,7.2-3,10.2-5.9L267.9,441.6z"/>
		<path class="st62" d="M256.9,444.5L256.9,444.5l-1.5,5.5l0,0l-1.5,5.5c3.7,1,7.7,1.1,11.7,0l-0.7-2.7l-0.7-2.7l-1.5-5.5l-0.7-2.7
			l-2.2-8.2L256.9,444.5z"/>
		<path class="st61" d="M259.8,433.5l-6,6l0,0l-8,8l0,0l-2,2c2.7,2.7,6.2,4.8,10.2,5.9l0.7-2.7l0,0l2.9-11l0,0L259.8,433.5z"/>
		<path class="st61" d="M259.8,433.5l-8.2,2.2l-2.7,0.7l-8.2,2.2l-2.7,0.7c1,3.7,3,7.2,5.9,10.2l8-8l2-2l0,0L259.8,433.5z"/>
		<path class="st61" d="M248.9,430.6L248.9,430.6l-5.5-1.5l0,0l-5.5-1.5c-1,3.7-1.1,7.7,0,11.7l2.7-0.7l2.7-0.7l5.5-1.5l2.7-0.7
			l8.2-2.2L248.9,430.6z"/>
		<path class="st61" d="M259.8,433.5l-6-6l0,0l-8-8l0,0l-2-2c-2.7,2.7-4.8,6.2-5.9,10.2l2.7,0.7l0,0l11,2.9l0,0L259.8,433.5z"/>
		<path class="st61" d="M243.8,417.5l8,8l2,2l0,0l6,6l-2.2-8.2l-0.7-2.7l-2.2-8.2l-0.7-2.7C250.2,412.6,246.7,414.6,243.8,417.5z"/>
		<path class="st59" d="M265.3,432.1c0.8,3-1,6.1-4,6.9c-3,0.8-6.1-1-6.9-4c-0.8-3,1-6.1,4-6.9C261.4,427.2,264.5,429,265.3,432.1z"
			/>
	</g>
</g>
<g>
	<g>
		<g>
			<path d="M77.4,531.3v-4.2H79c0.5,0,0.9,0.1,1.1,0.4s0.4,0.6,0.4,1c0,0.4-0.2,0.8-0.5,1s-0.7,0.4-1.2,0.4h-1v1.5H77.4z
				 M77.9,529.4h1c0.3,0,0.6-0.1,0.8-0.3s0.3-0.4,0.3-0.7c0-0.3-0.1-0.5-0.3-0.7c-0.2-0.2-0.5-0.2-0.8-0.2h-1.1V529.4z"/>
			<path d="M82.2,531.4c-0.3,0-0.6-0.1-0.8-0.3c-0.2-0.2-0.3-0.4-0.3-0.7c0-0.3,0.1-0.6,0.4-0.8c0.2-0.2,0.6-0.3,1-0.3
				c0.3,0,0.6,0,0.9,0.1v-0.1c0-0.3-0.1-0.5-0.2-0.6c-0.2-0.1-0.4-0.2-0.7-0.2c-0.3,0-0.6,0.1-0.9,0.2l-0.1-0.4
				c0.4-0.2,0.8-0.3,1.1-0.3c0.4,0,0.8,0.1,1,0.3c0.2,0.2,0.3,0.5,0.3,0.9v1.9h-0.5v-0.5C83,531.2,82.6,531.4,82.2,531.4z M82.3,531
				c0.3,0,0.5-0.1,0.7-0.2c0.2-0.2,0.3-0.4,0.3-0.6v-0.3c-0.3-0.1-0.6-0.1-0.9-0.1c-0.3,0-0.5,0.1-0.7,0.2c-0.2,0.1-0.2,0.3-0.2,0.5
				c0,0.2,0.1,0.3,0.2,0.5C81.8,531,82,531,82.3,531z"/>
			<path d="M85.6,531.4c-0.5,0-0.9-0.2-1.3-0.5l0.2-0.3c0.3,0.3,0.7,0.4,1,0.4c0.2,0,0.4,0,0.5-0.1c0.2-0.1,0.2-0.2,0.2-0.4
				c0-0.2-0.1-0.3-0.2-0.4c-0.1-0.1-0.3-0.1-0.6-0.1h-0.4v-0.4h0.4c0.2,0,0.4,0,0.5-0.1s0.2-0.2,0.2-0.4c0-0.1-0.1-0.3-0.2-0.3
				s-0.3-0.1-0.5-0.1c-0.4,0-0.7,0.1-0.9,0.3l-0.2-0.3c0.3-0.3,0.7-0.4,1.2-0.4c0.3,0,0.6,0.1,0.8,0.2c0.2,0.2,0.3,0.4,0.3,0.6
				c0,0.3-0.2,0.6-0.5,0.7c0.4,0.1,0.6,0.4,0.6,0.8c0,0.3-0.1,0.5-0.3,0.7C86.2,531.3,85.9,531.4,85.6,531.4z"/>
			<path d="M87.1,532.1v-1.2h0.3c0.3-0.5,0.4-1.2,0.4-2.2v-0.5H90v2.7h0.5l-0.1,1.2H90v-0.8h-2.5l-0.1,0.8H87.1z M87.9,530.9h1.7
				v-2.3h-1.3v0.4C88.3,529.8,88.1,530.4,87.9,530.9z"/>
			<path d="M92.4,531.4c-0.4,0-0.8-0.2-1.1-0.5s-0.4-0.7-0.4-1.2c0-0.5,0.1-0.8,0.4-1.1c0.3-0.3,0.6-0.5,1.1-0.5
				c0.4,0,0.8,0.2,1.1,0.5c0.3,0.3,0.4,0.7,0.4,1.2c0,0.1,0,0.1,0,0.2h-2.5c0,0.3,0.2,0.6,0.4,0.8c0.2,0.2,0.5,0.3,0.7,0.3
				c0.4,0,0.7-0.1,1-0.4l0.3,0.3C93.3,531.2,92.9,531.4,92.4,531.4z M91.3,529.6h2c0-0.3-0.1-0.5-0.3-0.7c-0.2-0.2-0.4-0.3-0.7-0.3
				c-0.3,0-0.5,0.1-0.7,0.3C91.4,529,91.3,529.3,91.3,529.6z"/>
			<path d="M94.3,531.4c-0.1,0-0.2,0-0.4,0l0.1-0.4c0.1,0,0.2,0,0.2,0c0.1,0,0.2,0,0.2,0c0.1,0,0.1-0.1,0.2-0.2
				c0.1-0.1,0.1-0.2,0.2-0.4c0-0.2,0.1-0.4,0.1-0.7c0-0.3,0-0.7,0-1.2v-0.3h2.2v3.1h-0.5v-2.7h-1.3v0.1c0,0.5,0,0.9-0.1,1.2
				s-0.1,0.6-0.1,0.8c-0.1,0.2-0.1,0.3-0.2,0.4c-0.1,0.1-0.2,0.2-0.3,0.2C94.5,531.3,94.4,531.4,94.3,531.4z"/>
			<path d="M98,531.3v-3.1h0.5v1.2h0.8c0.4,0,0.7,0.1,0.9,0.2s0.3,0.4,0.3,0.7c0,0.3-0.1,0.6-0.3,0.7c-0.2,0.2-0.5,0.3-0.9,0.3H98z
				 M98.4,530.9h0.8c0.2,0,0.4,0,0.5-0.1c0.1-0.1,0.2-0.2,0.2-0.4c0-0.2-0.1-0.3-0.2-0.4c-0.1-0.1-0.3-0.1-0.6-0.1h-0.8V530.9z"/>
			<path d="M101.1,531.3v-3.1h0.5v1.3h1.8v-1.3h0.5v3.1h-0.5V530h-1.8v1.4H101.1z"/>
			<path d="M107.3,530.9c-0.3,0.3-0.7,0.5-1.2,0.5s-0.8-0.2-1.1-0.5c-0.3-0.3-0.5-0.7-0.5-1.1c0-0.4,0.2-0.8,0.5-1.1
				c0.3-0.3,0.7-0.5,1.2-0.5s0.8,0.2,1.2,0.5c0.3,0.3,0.5,0.7,0.5,1.1C107.7,530.2,107.6,530.6,107.3,530.9z M106.1,531
				c0.3,0,0.6-0.1,0.8-0.3c0.2-0.2,0.3-0.5,0.3-0.9c0-0.3-0.1-0.6-0.3-0.9c-0.2-0.2-0.5-0.4-0.8-0.4c-0.3,0-0.6,0.1-0.8,0.4
				c-0.2,0.2-0.3,0.5-0.3,0.9c0,0.3,0.1,0.6,0.3,0.9C105.5,530.9,105.8,531,106.1,531z"/>
			<path d="M108.3,529.8v-0.5h1.7v0.5H108.3z"/>
			<path d="M58.1,538.5v-3.1h0.5v1.8l1.7-1.8h0.6l-1.3,1.3l1.3,1.8h-0.5l-1.1-1.4l-0.7,0.7v0.8H58.1z"/>
			<path d="M63.7,538.1c-0.3,0.3-0.7,0.5-1.2,0.5s-0.8-0.2-1.1-0.5c-0.3-0.3-0.5-0.7-0.5-1.1c0-0.4,0.2-0.8,0.5-1.1
				c0.3-0.3,0.7-0.5,1.2-0.5s0.8,0.2,1.2,0.5c0.3,0.3,0.5,0.7,0.5,1.1C64.2,537.4,64,537.8,63.7,538.1z M62.6,538.2
				c0.3,0,0.6-0.1,0.8-0.3c0.2-0.2,0.3-0.5,0.3-0.9c0-0.3-0.1-0.6-0.3-0.9c-0.2-0.2-0.5-0.4-0.8-0.4c-0.3,0-0.6,0.1-0.8,0.4
				c-0.2,0.2-0.3,0.5-0.3,0.9c0,0.3,0.1,0.6,0.3,0.9C62,538.1,62.3,538.2,62.6,538.2z"/>
			<path d="M64.9,538.5v-3.1h0.4l1.2,1.6l1.2-1.6h0.4v3.1h-0.5v-2.4l-1.1,1.6l-1.1-1.6v2.4H64.9z"/>
			<path d="M69,538.5v-3.1h2.7v3.1h-0.5v-2.7h-1.8v2.7H69z"/>
			<path d="M72.5,538.6c-0.1,0-0.2,0-0.4,0l0.1-0.4c0.1,0,0.2,0,0.2,0c0.1,0,0.2,0,0.2,0c0.1,0,0.1-0.1,0.2-0.2
				c0.1-0.1,0.1-0.2,0.2-0.4c0-0.2,0.1-0.4,0.1-0.7c0-0.3,0-0.7,0-1.2v-0.3h2.2v3.1h-0.5v-2.7h-1.3v0.1c0,0.5,0,0.9-0.1,1.2
				s-0.1,0.6-0.1,0.8c-0.1,0.2-0.1,0.3-0.2,0.4c-0.1,0.1-0.2,0.2-0.3,0.2C72.7,538.5,72.6,538.6,72.5,538.6z"/>
			<path d="M77.5,538.6c-0.4,0-0.8-0.2-1.1-0.5s-0.4-0.7-0.4-1.2c0-0.5,0.1-0.8,0.4-1.1c0.3-0.3,0.6-0.5,1.1-0.5
				c0.4,0,0.8,0.2,1.1,0.5c0.3,0.3,0.4,0.7,0.4,1.2c0,0.1,0,0.1,0,0.2h-2.5c0,0.3,0.2,0.6,0.4,0.8c0.2,0.2,0.5,0.3,0.7,0.3
				c0.4,0,0.7-0.1,1-0.4l0.3,0.3C78.4,538.4,78,538.6,77.5,538.6z M76.4,536.8h2c0-0.3-0.1-0.5-0.3-0.7c-0.2-0.2-0.4-0.3-0.7-0.3
				c-0.3,0-0.5,0.1-0.7,0.3C76.6,536.2,76.4,536.5,76.4,536.8z"/>
			<path d="M79.6,538.5v-3.1H80l1.2,1.6l1.2-1.6h0.4v3.1h-0.5v-2.4l-1.1,1.6l-1.1-1.6v2.4H79.6z"/>
			<path d="M85,538.6c-0.4,0-0.8-0.2-1.1-0.5s-0.4-0.7-0.4-1.2c0-0.5,0.1-0.8,0.4-1.1c0.3-0.3,0.6-0.5,1.1-0.5
				c0.4,0,0.8,0.2,1.1,0.5c0.3,0.3,0.4,0.7,0.4,1.2c0,0.1,0,0.1,0,0.2h-2.5c0,0.3,0.2,0.6,0.4,0.8c0.2,0.2,0.5,0.3,0.7,0.3
				c0.4,0,0.7-0.1,1-0.4l0.3,0.3C86,538.4,85.5,538.6,85,538.6z M83.9,536.8h2c0-0.3-0.1-0.5-0.3-0.7c-0.2-0.2-0.4-0.3-0.7-0.3
				c-0.3,0-0.5,0.1-0.7,0.3C84.1,536.2,84,536.5,83.9,536.8z"/>
			<path d="M87.1,538.5v-3.1h0.5v1.3h1.8v-1.3h0.5v3.1h-0.5v-1.4h-1.8v1.4H87.1z"/>
			<path d="M91.5,538.5v-2.7h-1.1v-0.4H93v0.4h-1.1v2.7H91.5z"/>
			<path d="M94.4,538.6c-0.3,0-0.6-0.1-0.8-0.3c-0.2-0.2-0.3-0.4-0.3-0.7c0-0.3,0.1-0.6,0.4-0.8c0.2-0.2,0.6-0.3,1-0.3
				c0.3,0,0.6,0,0.9,0.1v-0.1c0-0.3-0.1-0.5-0.2-0.6c-0.2-0.1-0.4-0.2-0.7-0.2c-0.3,0-0.6,0.1-0.9,0.2l-0.1-0.4
				c0.4-0.2,0.8-0.3,1.1-0.3c0.4,0,0.8,0.1,1,0.3c0.2,0.2,0.3,0.5,0.3,0.9v1.9h-0.5v-0.5C95.2,538.4,94.9,538.6,94.4,538.6z
				 M94.5,538.2c0.3,0,0.5-0.1,0.7-0.2c0.2-0.2,0.3-0.4,0.3-0.6v-0.3c-0.3-0.1-0.6-0.1-0.9-0.1c-0.3,0-0.5,0.1-0.7,0.2
				c-0.2,0.1-0.2,0.3-0.2,0.5c0,0.2,0.1,0.3,0.2,0.5C94.1,538.2,94.3,538.2,94.5,538.2z"/>
			<path d="M96.8,539.5v-4.1h0.5v0.6c0.3-0.5,0.7-0.7,1.2-0.7c0.4,0,0.7,0.1,1,0.4c0.3,0.3,0.4,0.7,0.4,1.2c0,0.5-0.1,0.9-0.4,1.2
				c-0.3,0.3-0.6,0.4-1,0.4c-0.5,0-0.9-0.2-1.2-0.7v1.6H96.8z M98.4,538.2c0.3,0,0.6-0.1,0.8-0.3s0.3-0.5,0.3-0.9
				c0-0.4-0.1-0.6-0.3-0.9s-0.5-0.3-0.8-0.3c-0.3,0-0.6,0.1-0.8,0.3c-0.2,0.2-0.3,0.5-0.3,0.9c0,0.3,0.1,0.6,0.3,0.9
				C97.8,538.1,98.1,538.2,98.4,538.2z"/>
			<path d="M100.7,538.5v-3.1h0.5v1.3h1.8v-1.3h0.5v3.1h-0.5v-1.4h-1.8v1.4H100.7z"/>
			<path d="M105.2,538.6c-0.3,0-0.6-0.1-0.8-0.3c-0.2-0.2-0.3-0.4-0.3-0.7c0-0.3,0.1-0.6,0.4-0.8c0.2-0.2,0.6-0.3,1-0.3
				c0.3,0,0.6,0,0.9,0.1v-0.1c0-0.3-0.1-0.5-0.2-0.6c-0.2-0.1-0.4-0.2-0.7-0.2c-0.3,0-0.6,0.1-0.9,0.2l-0.1-0.4
				c0.4-0.2,0.8-0.3,1.1-0.3c0.4,0,0.8,0.1,1,0.3c0.2,0.2,0.3,0.5,0.3,0.9v1.9h-0.5v-0.5C106.1,538.4,105.7,538.6,105.2,538.6z
				 M105.3,538.2c0.3,0,0.5-0.1,0.7-0.2c0.2-0.2,0.3-0.4,0.3-0.6v-0.3c-0.3-0.1-0.6-0.1-0.9-0.1c-0.3,0-0.5,0.1-0.7,0.2
				c-0.2,0.1-0.2,0.3-0.2,0.5c0,0.2,0.1,0.3,0.2,0.5C104.9,538.2,105.1,538.2,105.3,538.2z"/>
			<path d="M107.4,538.5l0.9-1.2c-0.2-0.1-0.4-0.2-0.6-0.3c-0.2-0.2-0.2-0.4-0.2-0.6c0-0.3,0.1-0.5,0.3-0.7s0.5-0.3,0.9-0.3h1.5v3.1
				h-0.5v-1.1h-0.9c0,0-0.2,0.2-0.4,0.5c-0.2,0.3-0.4,0.5-0.5,0.6H107.4z M108.7,537h1v-1.2h-1c-0.2,0-0.4,0.1-0.5,0.2
				s-0.2,0.2-0.2,0.4c0,0.2,0.1,0.3,0.2,0.4C108.3,536.9,108.5,537,108.7,537z"/>
			<path d="M114.1,538.6c-0.4,0-0.8-0.2-1.1-0.5c-0.3-0.3-0.5-0.7-0.5-1.1s0.2-0.8,0.5-1.1c0.3-0.3,0.7-0.5,1.1-0.5
				c0.5,0,0.9,0.2,1.2,0.6l-0.3,0.3c-0.3-0.3-0.6-0.5-1-0.5c-0.3,0-0.6,0.1-0.8,0.4c-0.2,0.2-0.3,0.5-0.3,0.9c0,0.3,0.1,0.6,0.3,0.9
				c0.2,0.2,0.5,0.4,0.8,0.4c0.3,0,0.6-0.2,0.9-0.5l0.3,0.3C115,538.4,114.6,538.6,114.1,538.6z"/>
			<path d="M115.7,538.5l1.2-1.6l-1.2-1.5h0.5l0.9,1.2l0.9-1.2h0.5l-1.2,1.5l1.2,1.6h-0.5l-1-1.3l-1,1.3H115.7z"/>
			<path d="M120.5,538.6c-0.4,0-0.8-0.2-1.1-0.5s-0.4-0.7-0.4-1.2c0-0.5,0.1-0.8,0.4-1.1c0.3-0.3,0.6-0.5,1.1-0.5
				c0.4,0,0.8,0.2,1.1,0.5c0.3,0.3,0.4,0.7,0.4,1.2c0,0.1,0,0.1,0,0.2h-2.5c0,0.3,0.2,0.6,0.4,0.8c0.2,0.2,0.5,0.3,0.7,0.3
				c0.4,0,0.7-0.1,1-0.4l0.3,0.3C121.5,538.4,121.1,538.6,120.5,538.6z M119.5,536.8h2c0-0.3-0.1-0.5-0.3-0.7
				c-0.2-0.2-0.4-0.3-0.7-0.3c-0.3,0-0.5,0.1-0.7,0.3C119.6,536.2,119.5,536.5,119.5,536.8z"/>
			<path d="M122.6,538.5v-3.1h0.4l1.2,1.6l1.2-1.6h0.4v3.1h-0.5v-2.4l-1.1,1.6l-1.1-1.6v2.4H122.6z"/>
			<path d="M127.6,538.6c-0.3,0-0.6-0.1-0.8-0.3c-0.2-0.2-0.3-0.4-0.3-0.7c0-0.3,0.1-0.6,0.4-0.8c0.2-0.2,0.6-0.3,1-0.3
				c0.3,0,0.6,0,0.9,0.1v-0.1c0-0.3-0.1-0.5-0.2-0.6c-0.2-0.1-0.4-0.2-0.7-0.2c-0.3,0-0.6,0.1-0.9,0.2l-0.1-0.4
				c0.4-0.2,0.8-0.3,1.1-0.3c0.4,0,0.8,0.1,1,0.3c0.2,0.2,0.3,0.5,0.3,0.9v1.9h-0.5v-0.5C128.5,538.4,128.1,538.6,127.6,538.6z
				 M127.7,538.2c0.3,0,0.5-0.1,0.7-0.2c0.2-0.2,0.3-0.4,0.3-0.6v-0.3c-0.3-0.1-0.6-0.1-0.9-0.1c-0.3,0-0.5,0.1-0.7,0.2
				c-0.2,0.1-0.2,0.3-0.2,0.5c0,0.2,0.1,0.3,0.2,0.5C127.3,538.2,127.5,538.2,127.7,538.2z"/>
		</g>
	</g>
	<g>
		<path class="st60" d="M97.9,483.1l1.5-5.5c-3.7-1-7.7-1.1-11.7,0l0.7,2.7l0.7,2.7l1.5,5.5l0.7,2.7l2.2,8.2l2.9-11l0,0L97.9,483.1
			L97.9,483.1z"/>
		<path class="st61" d="M107.6,485.5l2-2c-2.7-2.7-6.2-4.8-10.2-5.9l-0.7,2.7l0,0l-2.9,11l0,0l-2.2,8.2l6-6l0,0L107.6,485.5
			L107.6,485.5z"/>
		<path class="st61" d="M109.6,483.5l-8,8l-2,2l0,0l-6,6l8.2-2.2l2.7-0.7l8.2-2.2l2.7-0.7C114.4,490,112.5,486.5,109.6,483.5z"/>
		<path class="st61" d="M115.4,493.7l-2.7,0.7l-2.7,0.7l-5.5,1.5l-2.7,0.7l-8.2,2.2l10.9,2.9l0,0l5.5,1.5l0,0l5.5,1.5
			C116.4,501.7,116.5,497.7,115.4,493.7z"/>
		<path class="st61" d="M112.7,504.7L112.7,504.7l-11-2.9l0,0l-8.2-2.2l6,6l0,0l8,8l0,0l2,2c2.7-2.7,4.8-6.2,5.9-10.2L112.7,504.7z"
			/>
		<path class="st65" d="M101.6,507.6l-2-2l0,0l-6-6l2.2,8.2l0.7,2.7l2.2,8.2l0.7,2.7c3.7-1,7.2-3,10.2-5.9L101.6,507.6z"/>
		<path class="st61" d="M90.6,510.5L90.6,510.5l-1.5,5.5l0,0l-1.5,5.5c3.7,1,7.7,1.1,11.7,0l-0.7-2.7l-0.7-2.7l-1.5-5.5l-0.7-2.7
			l-2.2-8.2L90.6,510.5z"/>
		<path class="st66" d="M93.5,499.6l-6,6l0,0l-8,8l0,0l-2,2c2.7,2.7,6.2,4.8,10.2,5.9l0.7-2.7l0,0l2.9-11l0,0L93.5,499.6z"/>
		<path class="st61" d="M93.5,499.6l-8.2,2.2l-2.7,0.7l-8.2,2.2l-2.7,0.7c1,3.7,3,7.2,5.9,10.2l8-8l2-2l0,0L93.5,499.6z"/>
		<path class="st61" d="M82.6,496.6L82.6,496.6l-5.5-1.5l0,0l-5.5-1.5c-1,3.7-1.1,7.7,0,11.7l2.7-0.7l2.7-0.7l5.5-1.5l2.7-0.7
			l8.2-2.2L82.6,496.6z"/>
		<path class="st61" d="M93.5,499.6l-6-6l0,0l-8-8l0,0l-2-2c-2.7,2.7-4.8,6.2-5.9,10.2l2.7,0.7l0,0l11,2.9l0,0L93.5,499.6z"/>
		<path class="st61" d="M77.5,483.5l8,8l2,2l0,0l6,6l-2.2-8.2l-0.7-2.7l-2.2-8.2l-0.7-2.7C83.9,478.7,80.4,480.6,77.5,483.5z"/>
		<path class="st59" d="M99,498.1c0.8,3-1,6.1-4,6.9c-3,0.8-6.1-1-6.9-4c-0.8-3,1-6.1,4-6.9C95.1,493.3,98.2,495.1,99,498.1z"/>
	</g>
</g>
<g>
	<g>
		<g>
			<path d="M144.9,531.3v-4.2h3.3v4.2h-0.5v-3.8h-2.4v3.8H144.9z"/>
			<path d="M149.2,532.3v-4.1h0.5v0.6c0.3-0.5,0.7-0.7,1.2-0.7c0.4,0,0.7,0.1,1,0.4c0.3,0.3,0.4,0.7,0.4,1.2c0,0.5-0.1,0.9-0.4,1.2
				c-0.3,0.3-0.6,0.4-1,0.4c-0.5,0-0.9-0.2-1.2-0.7v1.6H149.2z M150.7,531c0.3,0,0.6-0.1,0.8-0.3s0.3-0.5,0.3-0.9
				c0-0.4-0.1-0.6-0.3-0.9s-0.5-0.3-0.8-0.3c-0.3,0-0.6,0.1-0.8,0.3c-0.2,0.2-0.3,0.5-0.3,0.9c0,0.3,0.1,0.6,0.3,0.9
				C150.2,530.9,150.4,531,150.7,531z"/>
			<path d="M152.7,531.3l0.9-1.2c-0.2-0.1-0.4-0.2-0.6-0.3c-0.2-0.2-0.2-0.4-0.2-0.6c0-0.3,0.1-0.5,0.3-0.7s0.5-0.3,0.9-0.3h1.5v3.1
				H155v-1.1h-0.9c0,0-0.2,0.2-0.4,0.5c-0.2,0.3-0.4,0.5-0.5,0.6H152.7z M154.1,529.8h1v-1.2h-1c-0.2,0-0.4,0.1-0.5,0.2
				s-0.2,0.2-0.2,0.4c0,0.2,0.1,0.3,0.2,0.4C153.7,529.7,153.9,529.8,154.1,529.8z"/>
			<path d="M156.4,531.3v-3.1h0.4l1.2,1.6l1.2-1.6h0.4v3.1h-0.5v-2.4l-1.1,1.6l-1.1-1.6v2.4H156.4z"/>
			<path d="M163,530.9c-0.3,0.3-0.7,0.5-1.2,0.5s-0.8-0.2-1.1-0.5c-0.3-0.3-0.5-0.7-0.5-1.1c0-0.4,0.2-0.8,0.5-1.1
				c0.3-0.3,0.7-0.5,1.2-0.5s0.8,0.2,1.2,0.5c0.3,0.3,0.5,0.7,0.5,1.1C163.4,530.2,163.3,530.6,163,530.9z M161.8,531
				c0.3,0,0.6-0.1,0.8-0.3c0.2-0.2,0.3-0.5,0.3-0.9c0-0.3-0.1-0.6-0.3-0.9c-0.2-0.2-0.5-0.4-0.8-0.4c-0.3,0-0.6,0.1-0.8,0.4
				c-0.2,0.2-0.3,0.5-0.3,0.9c0,0.3,0.1,0.6,0.3,0.9C161.2,530.9,161.5,531,161.8,531z"/>
			<path d="M164.5,532.3c-0.2,0-0.4-0.1-0.7-0.2l0.2-0.4c0.1,0.1,0.3,0.1,0.5,0.1c0.1,0,0.3,0,0.4-0.1c0.1-0.1,0.2-0.2,0.3-0.5
				l-1.4-3.1h0.5l1.1,2.6l1-2.6h0.5l-1.3,3.2c-0.1,0.3-0.3,0.5-0.4,0.7C164.9,532.2,164.7,532.3,164.5,532.3z"/>
			<path d="M167.4,531.3v-3.1h2.1v0.4h-1.6v2.7H167.4z"/>
			<path d="M172.5,530.9c-0.3,0.3-0.7,0.5-1.2,0.5s-0.8-0.2-1.1-0.5c-0.3-0.3-0.5-0.7-0.5-1.1c0-0.4,0.2-0.8,0.5-1.1
				c0.3-0.3,0.7-0.5,1.2-0.5s0.8,0.2,1.2,0.5c0.3,0.3,0.5,0.7,0.5,1.1C173,530.2,172.8,530.6,172.5,530.9z M171.3,531
				c0.3,0,0.6-0.1,0.8-0.3c0.2-0.2,0.3-0.5,0.3-0.9c0-0.3-0.1-0.6-0.3-0.9c-0.2-0.2-0.5-0.4-0.8-0.4c-0.3,0-0.6,0.1-0.8,0.4
				c-0.2,0.2-0.3,0.5-0.3,0.9c0,0.3,0.1,0.6,0.3,0.9C170.7,530.9,171,531,171.3,531z"/>
			<path d="M173.4,531.4c-0.1,0-0.2,0-0.4,0l0.1-0.4c0.1,0,0.2,0,0.2,0c0.1,0,0.2,0,0.2,0c0.1,0,0.1-0.1,0.2-0.2
				c0.1-0.1,0.1-0.2,0.2-0.4s0.1-0.4,0.1-0.7c0-0.3,0-0.7,0-1.2v-0.3h2.2v3.1h-0.5v-2.7h-1.3v0.1c0,0.5,0,0.9-0.1,1.2
				s-0.1,0.6-0.1,0.8c-0.1,0.2-0.1,0.3-0.2,0.4c-0.1,0.1-0.2,0.2-0.3,0.2S173.6,531.4,173.4,531.4z"/>
			<path d="M177.1,531.3v-3.1h0.5v1.2h0.8c0.4,0,0.7,0.1,0.9,0.2c0.2,0.2,0.3,0.4,0.3,0.7c0,0.3-0.1,0.6-0.3,0.7
				c-0.2,0.2-0.5,0.3-0.9,0.3H177.1z M177.6,530.9h0.8c0.2,0,0.4,0,0.5-0.1c0.1-0.1,0.2-0.2,0.2-0.4c0-0.2-0.1-0.3-0.2-0.4
				c-0.1-0.1-0.3-0.1-0.6-0.1h-0.8V530.9z"/>
			<path d="M180.2,531.3v-3.1h0.5v1.3h1.8v-1.3h0.5v3.1h-0.5V530h-1.8v1.4H180.2z"/>
			<path d="M184.8,531.4c-0.3,0-0.6-0.1-0.8-0.3c-0.2-0.2-0.3-0.4-0.3-0.7c0-0.3,0.1-0.6,0.4-0.8c0.2-0.2,0.6-0.3,1-0.3
				c0.3,0,0.6,0,0.9,0.1v-0.1c0-0.3-0.1-0.5-0.2-0.6c-0.2-0.1-0.4-0.2-0.7-0.2c-0.3,0-0.6,0.1-0.9,0.2l-0.1-0.4
				c0.4-0.2,0.8-0.3,1.1-0.3c0.4,0,0.8,0.1,1,0.3c0.2,0.2,0.3,0.5,0.3,0.9v1.9h-0.5v-0.5C185.6,531.2,185.3,531.4,184.8,531.4z
				 M184.9,531c0.3,0,0.5-0.1,0.7-0.2s0.3-0.4,0.3-0.6v-0.3c-0.3-0.1-0.6-0.1-0.9-0.1c-0.3,0-0.5,0.1-0.7,0.2
				c-0.2,0.1-0.2,0.3-0.2,0.5c0,0.2,0.1,0.3,0.2,0.5C184.5,531,184.7,531,184.9,531z"/>
			<path d="M186.9,531.3l0.9-1.2c-0.2-0.1-0.4-0.2-0.6-0.3s-0.2-0.4-0.2-0.6c0-0.3,0.1-0.5,0.3-0.7s0.5-0.3,0.9-0.3h1.5v3.1h-0.5
				v-1.1h-0.9c0,0-0.2,0.2-0.4,0.5c-0.2,0.3-0.4,0.5-0.5,0.6H186.9z M188.3,529.8h1v-1.2h-1c-0.2,0-0.4,0.1-0.5,0.2
				s-0.2,0.2-0.2,0.4c0,0.2,0.1,0.3,0.2,0.4C187.9,529.7,188,529.8,188.3,529.8z"/>
			<path d="M193.7,531.4c-0.4,0-0.8-0.2-1.1-0.5c-0.3-0.3-0.5-0.7-0.5-1.1s0.2-0.8,0.5-1.1c0.3-0.3,0.7-0.5,1.1-0.5
				c0.5,0,0.9,0.2,1.2,0.6l-0.3,0.3c-0.3-0.3-0.6-0.5-1-0.5c-0.3,0-0.6,0.1-0.8,0.4c-0.2,0.2-0.3,0.5-0.3,0.9c0,0.3,0.1,0.6,0.3,0.9
				c0.2,0.2,0.5,0.4,0.8,0.4c0.3,0,0.6-0.2,0.9-0.5l0.3,0.3C194.6,531.2,194.1,531.4,193.7,531.4z"/>
			<path d="M195.3,531.3l1.2-1.6l-1.2-1.5h0.5l0.9,1.2l0.9-1.2h0.5l-1.2,1.5l1.2,1.6h-0.5l-1-1.3l-1,1.3H195.3z"/>
			<path d="M200.1,531.4c-0.4,0-0.8-0.2-1.1-0.5c-0.3-0.3-0.4-0.7-0.4-1.2c0-0.5,0.1-0.8,0.4-1.1c0.3-0.3,0.6-0.5,1.1-0.5
				c0.4,0,0.8,0.2,1.1,0.5c0.3,0.3,0.4,0.7,0.4,1.2c0,0.1,0,0.1,0,0.2H199c0,0.3,0.2,0.6,0.4,0.8c0.2,0.2,0.5,0.3,0.7,0.3
				c0.4,0,0.7-0.1,1-0.4l0.3,0.3C201,531.2,200.6,531.4,200.1,531.4z M199,529.6h2c0-0.3-0.1-0.5-0.3-0.7c-0.2-0.2-0.4-0.3-0.7-0.3
				c-0.3,0-0.5,0.1-0.7,0.3C199.2,529,199.1,529.3,199,529.6z"/>
			<path d="M202.2,531.3v-3.1h0.4l1.2,1.6l1.2-1.6h0.4v3.1h-0.5v-2.4l-1.1,1.6l-1.1-1.6v2.4H202.2z"/>
			<path d="M207.2,531.4c-0.3,0-0.6-0.1-0.8-0.3c-0.2-0.2-0.3-0.4-0.3-0.7c0-0.3,0.1-0.6,0.4-0.8c0.2-0.2,0.6-0.3,1-0.3
				c0.3,0,0.6,0,0.9,0.1v-0.1c0-0.3-0.1-0.5-0.2-0.6c-0.2-0.1-0.4-0.2-0.7-0.2c-0.3,0-0.6,0.1-0.9,0.2l-0.1-0.4
				c0.4-0.2,0.8-0.3,1.1-0.3c0.4,0,0.8,0.1,1,0.3c0.2,0.2,0.3,0.5,0.3,0.9v1.9h-0.5v-0.5C208,531.2,207.7,531.4,207.2,531.4z
				 M207.3,531c0.3,0,0.5-0.1,0.7-0.2s0.3-0.4,0.3-0.6v-0.3c-0.3-0.1-0.6-0.1-0.9-0.1c-0.3,0-0.5,0.1-0.7,0.2
				c-0.2,0.1-0.2,0.3-0.2,0.5c0,0.2,0.1,0.3,0.2,0.5C206.9,531,207.1,531,207.3,531z"/>
		</g>
	</g>
	<g>
		<path class="st61" d="M181.2,483.1l1.5-5.5c-3.7-1-7.7-1.1-11.7,0l0.7,2.7l0.7,2.7l1.5,5.5l0.7,2.7l2.2,8.2l2.9-10.9l0,0
			L181.2,483.1L181.2,483.1z"/>
		<path class="st7" d="M190.8,485.5l2-2c-2.7-2.7-6.2-4.8-10.2-5.9l-0.7,2.7l0,0l-2.9,11l0,0l-2.2,8.2l6-6l0,0L190.8,485.5
			L190.8,485.5z"/>
		<path class="st61" d="M192.8,483.5l-8,8l-2,2l0,0l-6,6l8.2-2.2l2.7-0.7l8.2-2.2l2.7-0.7C197.7,490,195.7,486.5,192.8,483.5z"/>
		<path class="st61" d="M198.7,493.7l-2.7,0.7l-2.7,0.7l-5.5,1.5l-2.7,0.7l-8.2,2.2l11,2.9l0,0l5.5,1.5l0,0l5.5,1.5
			C199.7,501.7,199.8,497.7,198.7,493.7z"/>
		<path class="st61" d="M195.9,504.7L195.9,504.7l-11-2.9l0,0l-8.2-2.2l6,6l0,0l8,8l0,0l2,2c2.7-2.7,4.8-6.2,5.9-10.2L195.9,504.7z"
			/>
		<path class="st65" d="M184.8,507.6l-2-2l0,0l-6-6l2.2,8.2l0.7,2.7l2.2,8.2l0.7,2.7c3.7-1,7.2-3,10.2-5.9L184.8,507.6z"/>
		<path class="st61" d="M173.8,510.5L173.8,510.5l-1.5,5.5l0,0l-1.5,5.5c3.7,1,7.7,1.1,11.7,0l-0.7-2.7l-0.7-2.7l-1.5-5.5l-0.7-2.7
			l-2.2-8.2L173.8,510.5z"/>
		<path class="st66" d="M176.8,499.6l-6,6l0,0l-8,8l0,0l-2,2c2.7,2.7,6.2,4.8,10.2,5.9l0.7-2.7l0,0l2.9-11l0,0L176.8,499.6z"/>
		<path class="st61" d="M176.8,499.6l-8.2,2.2l-2.7,0.7l-8.2,2.2l-2.7,0.7c1,3.7,3,7.2,5.9,10.2l8-8l2-2l0,0L176.8,499.6z"/>
		<path class="st61" d="M165.8,496.6L165.8,496.6l-5.5-1.5l0,0l-5.5-1.5c-1,3.7-1.1,7.7,0,11.7l2.7-0.7l2.7-0.7l5.5-1.5l2.7-0.7
			l8.2-2.2L165.8,496.6z"/>
		<path class="st61" d="M176.8,499.6l-6-6l0,0l-8-8l0,0l-2-2c-2.7,2.7-4.8,6.2-5.9,10.2l2.7,0.7l0,0l11,2.9l0,0L176.8,499.6z"/>
		<path class="st67" d="M160.7,483.5l8,8l2,2l0,0l6,6l-2.2-8.2l-0.7-2.7l-2.2-8.2l-0.7-2.7C167.2,478.7,163.7,480.6,160.7,483.5z"/>
		<path class="st59" d="M182.3,498.1c0.8,3-1,6.1-4,6.9c-3,0.8-6.1-1-6.9-4c-0.8-3,1-6.1,4-6.9C178.3,493.3,181.4,495.1,182.3,498.1
			z"/>
	</g>
</g>
<g>
	<g>
		<g>
			<path d="M233.5,531.3v-4.2h0.5v2.5l2.4-2.5h0.6l-1.8,1.8l1.9,2.4h-0.6l-1.6-2l-0.9,0.9v1.1H233.5z"/>
			<path d="M237.6,531.3v-3.1h1.5c0.3,0,0.6,0.1,0.7,0.2c0.2,0.1,0.3,0.3,0.3,0.6c0,0.3-0.2,0.6-0.5,0.7c0.5,0.1,0.7,0.4,0.7,0.8
				c0,0.3-0.1,0.5-0.3,0.6c-0.2,0.2-0.5,0.2-0.8,0.2H237.6z M238.1,529.5h1c0.2,0,0.3,0,0.5-0.1c0.1-0.1,0.2-0.2,0.2-0.4
				c0-0.1-0.1-0.2-0.2-0.3c-0.1-0.1-0.3-0.1-0.5-0.1h-1V529.5z M238.1,530.9h1c0.2,0,0.4,0,0.5-0.1s0.2-0.2,0.2-0.4
				c0-0.2-0.1-0.3-0.2-0.4c-0.1-0.1-0.3-0.1-0.6-0.1h-1V530.9z"/>
			<path d="M241.9,531.4c-0.3,0-0.6-0.1-0.8-0.3c-0.2-0.2-0.3-0.4-0.3-0.7c0-0.3,0.1-0.6,0.4-0.8c0.2-0.2,0.6-0.3,1-0.3
				c0.3,0,0.6,0,0.9,0.1v-0.1c0-0.3-0.1-0.5-0.2-0.6c-0.2-0.1-0.4-0.2-0.7-0.2c-0.3,0-0.6,0.1-0.9,0.2l-0.1-0.4
				c0.4-0.2,0.8-0.3,1.1-0.3c0.4,0,0.8,0.1,1,0.3c0.2,0.2,0.3,0.5,0.3,0.9v1.9H243v-0.5C242.8,531.2,242.4,531.4,241.9,531.4z
				 M242,531c0.3,0,0.5-0.1,0.7-0.2s0.3-0.4,0.3-0.6v-0.3c-0.3-0.1-0.6-0.1-0.9-0.1c-0.3,0-0.5,0.1-0.7,0.2
				c-0.2,0.1-0.2,0.3-0.2,0.5c0,0.2,0.1,0.3,0.2,0.5C241.6,531,241.8,531,242,531z"/>
			<path d="M243.9,532.1v-1.2h0.3c0.3-0.5,0.4-1.2,0.4-2.2v-0.5h2.2v2.7h0.5l-0.1,1.2h-0.4v-0.8h-2.5l-0.1,0.8H243.9z M244.7,530.9
				h1.7v-2.3h-1.3v0.4C245.1,529.8,245,530.4,244.7,530.9z"/>
			<path d="M247.8,532.3v-4.1h0.5v0.6c0.3-0.5,0.7-0.7,1.2-0.7c0.4,0,0.7,0.1,1,0.4c0.3,0.3,0.4,0.7,0.4,1.2c0,0.5-0.1,0.9-0.4,1.2
				s-0.6,0.4-1,0.4c-0.5,0-0.9-0.2-1.2-0.7v1.6H247.8z M249.4,531c0.3,0,0.6-0.1,0.8-0.3s0.3-0.5,0.3-0.9c0-0.4-0.1-0.6-0.3-0.9
				c-0.2-0.2-0.5-0.3-0.8-0.3c-0.3,0-0.6,0.1-0.8,0.3c-0.2,0.2-0.3,0.5-0.3,0.9c0,0.3,0.1,0.6,0.3,0.9
				C248.8,530.9,249.1,531,249.4,531z"/>
			<path d="M252.6,531.4c-0.3,0-0.6-0.1-0.8-0.3c-0.2-0.2-0.3-0.4-0.3-0.7c0-0.3,0.1-0.6,0.4-0.8c0.2-0.2,0.6-0.3,1-0.3
				c0.3,0,0.6,0,0.9,0.1v-0.1c0-0.3-0.1-0.5-0.2-0.6c-0.2-0.1-0.4-0.2-0.7-0.2c-0.3,0-0.6,0.1-0.9,0.2l-0.1-0.4
				c0.4-0.2,0.8-0.3,1.1-0.3c0.4,0,0.8,0.1,1,0.3c0.2,0.2,0.3,0.5,0.3,0.9v1.9h-0.5v-0.5C253.5,531.2,253.1,531.4,252.6,531.4z
				 M252.7,531c0.3,0,0.5-0.1,0.7-0.2s0.3-0.4,0.3-0.6v-0.3c-0.3-0.1-0.6-0.1-0.9-0.1c-0.3,0-0.5,0.1-0.7,0.2
				c-0.2,0.1-0.2,0.3-0.2,0.5c0,0.2,0.1,0.3,0.2,0.5C252.3,531,252.5,531,252.7,531z"/>
			<path d="M255.8,531.3v-2.7h-1.1v-0.4h2.7v0.4h-1.1v2.7H255.8z"/>
			<path d="M257.9,531.3v-3.1h0.5v1.3h1.8v-1.3h0.5v3.1h-0.5V530h-1.8v1.4H257.9z"/>
			<path d="M262.5,531.4c-0.3,0-0.6-0.1-0.8-0.3c-0.2-0.2-0.3-0.4-0.3-0.7c0-0.3,0.1-0.6,0.4-0.8c0.2-0.2,0.6-0.3,1-0.3
				c0.3,0,0.6,0,0.9,0.1v-0.1c0-0.3-0.1-0.5-0.2-0.6c-0.2-0.1-0.4-0.2-0.7-0.2c-0.3,0-0.6,0.1-0.9,0.2l-0.1-0.4
				c0.4-0.2,0.8-0.3,1.1-0.3c0.4,0,0.8,0.1,1,0.3c0.2,0.2,0.3,0.5,0.3,0.9v1.9h-0.5v-0.5C263.3,531.2,262.9,531.4,262.5,531.4z
				 M262.5,531c0.3,0,0.5-0.1,0.7-0.2s0.3-0.4,0.3-0.6v-0.3c-0.3-0.1-0.6-0.1-0.9-0.1c-0.3,0-0.5,0.1-0.7,0.2
				c-0.2,0.1-0.2,0.3-0.2,0.5c0,0.2,0.1,0.3,0.2,0.5C262.1,531,262.3,531,262.5,531z"/>
			<path d="M264.6,531.3l0.9-1.2c-0.2-0.1-0.4-0.2-0.6-0.3s-0.2-0.4-0.2-0.6c0-0.3,0.1-0.5,0.3-0.7s0.5-0.3,0.9-0.3h1.5v3.1h-0.5
				v-1.1H266c0,0-0.2,0.2-0.4,0.5c-0.2,0.3-0.4,0.5-0.5,0.6H264.6z M265.9,529.8h1v-1.2h-1c-0.2,0-0.4,0.1-0.5,0.2s-0.2,0.2-0.2,0.4
				c0,0.2,0.1,0.3,0.2,0.4C265.5,529.7,265.7,529.8,265.9,529.8z"/>
			<path d="M271.3,531.4c-0.4,0-0.8-0.2-1.1-0.5c-0.3-0.3-0.5-0.7-0.5-1.1s0.2-0.8,0.5-1.1c0.3-0.3,0.7-0.5,1.1-0.5
				c0.5,0,0.9,0.2,1.2,0.6l-0.3,0.3c-0.3-0.3-0.6-0.5-1-0.5c-0.3,0-0.6,0.1-0.8,0.4c-0.2,0.2-0.3,0.5-0.3,0.9c0,0.3,0.1,0.6,0.3,0.9
				c0.2,0.2,0.5,0.4,0.8,0.4c0.3,0,0.6-0.2,0.9-0.5l0.3,0.3C272.2,531.2,271.8,531.4,271.3,531.4z"/>
			<path d="M272.9,531.3l1.2-1.6l-1.2-1.5h0.5l0.9,1.2l0.9-1.2h0.5l-1.2,1.5l1.2,1.6h-0.5l-1-1.3l-1,1.3H272.9z"/>
			<path d="M277.8,531.4c-0.4,0-0.8-0.2-1.1-0.5c-0.3-0.3-0.4-0.7-0.4-1.2c0-0.5,0.1-0.8,0.4-1.1c0.3-0.3,0.6-0.5,1.1-0.5
				c0.4,0,0.8,0.2,1.1,0.5c0.3,0.3,0.4,0.7,0.4,1.2c0,0.1,0,0.1,0,0.2h-2.5c0,0.3,0.2,0.6,0.4,0.8c0.2,0.2,0.5,0.3,0.7,0.3
				c0.4,0,0.7-0.1,1-0.4l0.3,0.3C278.7,531.2,278.3,531.4,277.8,531.4z M276.7,529.6h2c0-0.3-0.1-0.5-0.3-0.7
				c-0.2-0.2-0.4-0.3-0.7-0.3c-0.3,0-0.5,0.1-0.7,0.3C276.8,529,276.7,529.3,276.7,529.6z"/>
			<path d="M279.9,531.3v-3.1h0.4l1.2,1.6l1.2-1.6h0.4v3.1h-0.5v-2.4l-1.1,1.6l-1.1-1.6v2.4H279.9z"/>
			<path d="M284.9,531.4c-0.3,0-0.6-0.1-0.8-0.3c-0.2-0.2-0.3-0.4-0.3-0.7c0-0.3,0.1-0.6,0.4-0.8c0.2-0.2,0.6-0.3,1-0.3
				c0.3,0,0.6,0,0.9,0.1v-0.1c0-0.3-0.1-0.5-0.2-0.6c-0.2-0.1-0.4-0.2-0.7-0.2c-0.3,0-0.6,0.1-0.9,0.2l-0.1-0.4
				c0.4-0.2,0.8-0.3,1.1-0.3c0.4,0,0.8,0.1,1,0.3c0.2,0.2,0.3,0.5,0.3,0.9v1.9H286v-0.5C285.7,531.2,285.3,531.4,284.9,531.4z
				 M285,531c0.3,0,0.5-0.1,0.7-0.2s0.3-0.4,0.3-0.6v-0.3c-0.3-0.1-0.6-0.1-0.9-0.1c-0.3,0-0.5,0.1-0.7,0.2
				c-0.2,0.1-0.2,0.3-0.2,0.5c0,0.2,0.1,0.3,0.2,0.5C284.6,531,284.8,531,285,531z"/>
		</g>
	</g>
	<g>
		<path class="st61" d="M264.2,483.1l1.5-5.5c-3.7-1-7.7-1.1-11.7,0l0.7,2.7l0.7,2.7l1.5,5.5l0.7,2.7l2.2,8.2l2.9-10.9l0,0
			L264.2,483.1L264.2,483.1z"/>
		<path class="st61" d="M273.9,485.5l2-2c-2.7-2.7-6.2-4.8-10.2-5.9l-0.7,2.7l0,0l-2.9,11l0,0l-2.2,8.2l6-6l0,0L273.9,485.5
			L273.9,485.5z"/>
		<path class="st68" d="M275.9,483.5l-8,8l-2,2l0,0l-6,6l8.2-2.2l2.7-0.7l8.2-2.2l2.7-0.7C280.7,490,278.8,486.5,275.9,483.5z"/>
		<path class="st61" d="M281.7,493.7l-2.7,0.7l-2.7,0.7l-5.5,1.5l-2.7,0.7l-8.2,2.2l11,2.9l0,0l5.5,1.5l0,0l5.5,1.5
			C282.7,501.7,282.8,497.7,281.7,493.7z"/>
		<path class="st61" d="M279,504.7L279,504.7l-11-2.9l0,0l-8.2-2.2l6,6l0,0l8,8l0,0l2,2c2.7-2.7,4.8-6.2,5.9-10.2L279,504.7z"/>
		<path class="st65" d="M267.9,507.6l-2-2l0,0l-6-6l2.2,8.2l0.7,2.7l2.2,8.2l0.7,2.7c3.7-1,7.2-3,10.2-5.9L267.9,507.6z"/>
		<path class="st61" d="M256.9,510.5L256.9,510.5l-1.5,5.5l0,0l-1.5,5.5c3.7,1,7.7,1.1,11.7,0l-0.7-2.7l-0.7-2.7l-1.5-5.5l-0.7-2.7
			l-2.2-8.2L256.9,510.5z"/>
		<path class="st61" d="M259.8,499.6l-6,6l0,0l-8,8l0,0l-2,2c2.7,2.7,6.2,4.8,10.2,5.9l0.7-2.7l0,0l2.9-11l0,0L259.8,499.6z"/>
		<path class="st64" d="M259.8,499.6l-8.2,2.2l-2.7,0.7l-8.2,2.2l-2.7,0.7c1,3.7,3,7.2,5.9,10.2l8-8l2-2l0,0L259.8,499.6z"/>
		<path class="st61" d="M248.9,496.6L248.9,496.6l-5.5-1.5l0,0l-5.5-1.5c-1,3.7-1.1,7.7,0,11.7l2.7-0.7l2.7-0.7l5.5-1.5l2.7-0.7
			l8.2-2.2L248.9,496.6z"/>
		<path class="st61" d="M259.8,499.6l-6-6l0,0l-8-8l0,0l-2-2c-2.7,2.7-4.8,6.2-5.9,10.2l2.7,0.7l0,0l11,2.9l0,0L259.8,499.6z"/>
		<path class="st67" d="M243.8,483.5l8,8l2,2l0,0l6,6l-2.2-8.2l-0.7-2.7l-2.2-8.2l-0.7-2.7C250.2,478.7,246.7,480.6,243.8,483.5z"/>
		<path class="st59" d="M265.3,498.1c0.8,3-1,6.1-4,6.9c-3,0.8-6.1-1-6.9-4c-0.8-3,1-6.1,4-6.9C261.4,493.3,264.5,495.1,265.3,498.1
			z"/>
	</g>
</g>
<g>
	<g>
		<g>
			<path d="M318,465.3l1.9-4.2h0.4l1.9,4.2h-0.5l-0.5-1.1H319l-0.5,1.1H318z M319.2,463.7h1.9l-1-2.1L319.2,463.7z"/>
			<path d="M322.9,465.3v-3.1h0.5v1.8l1.7-1.8h0.6l-1.3,1.3l1.3,1.8h-0.5l-1.1-1.4l-0.7,0.7v0.8H322.9z"/>
			<path d="M328.9,466.1v-0.8h-2.7v-3.1h0.5v2.7h1.7v-2.7h0.5v2.7h0.5l-0.1,1.2H328.9z"/>
			<path d="M331.2,465.4c-0.4,0-0.8-0.2-1.1-0.5c-0.3-0.3-0.4-0.7-0.4-1.2c0-0.5,0.1-0.8,0.4-1.1c0.3-0.3,0.6-0.5,1.1-0.5
				c0.4,0,0.8,0.2,1.1,0.5c0.3,0.3,0.4,0.7,0.4,1.2c0,0.1,0,0.1,0,0.2h-2.5c0,0.3,0.2,0.6,0.4,0.8c0.2,0.2,0.5,0.3,0.7,0.3
				c0.4,0,0.7-0.1,1-0.4l0.3,0.3C332.1,465.2,331.7,465.4,331.2,465.4z M330.1,463.5h2c0-0.3-0.1-0.5-0.3-0.7
				c-0.2-0.2-0.4-0.3-0.7-0.3c-0.3,0-0.5,0.1-0.7,0.3C330.3,463,330.1,463.2,330.1,463.5z"/>
			<path d="M333.3,465.3v-3.1h0.5v1.3h1.8v-1.3h0.5v3.1h-0.5v-1.4h-1.8v1.4H333.3z"/>
			<path d="M337.6,465.3v-2.7h-1.1v-0.4h2.7v0.4h-1.1v2.7H337.6z"/>
			<path d="M342.4,465.3c-0.3,0-0.6-0.1-0.8-0.3c-0.2-0.2-0.3-0.4-0.3-0.7c0-0.3,0.1-0.6,0.4-0.8c0.2-0.2,0.6-0.3,1-0.3
				c0.3,0,0.6,0,0.9,0.1v-0.1c0-0.3-0.1-0.5-0.2-0.6c-0.2-0.1-0.4-0.2-0.7-0.2c-0.3,0-0.6,0.1-0.9,0.2l-0.1-0.4
				c0.4-0.2,0.8-0.3,1.1-0.3c0.4,0,0.8,0.1,1,0.3c0.2,0.2,0.3,0.5,0.3,0.9v1.9h-0.5v-0.5C343.2,465.2,342.8,465.3,342.4,465.3z
				 M342.4,465c0.3,0,0.5-0.1,0.7-0.2s0.3-0.4,0.3-0.6v-0.3c-0.3-0.1-0.6-0.1-0.9-0.1c-0.3,0-0.5,0.1-0.7,0.2
				c-0.2,0.1-0.2,0.3-0.2,0.5c0,0.2,0.1,0.3,0.2,0.5C342,464.9,342.2,465,342.4,465z"/>
			<path d="M344.8,465.3v-3.1h0.5v1.3h1.8v-1.3h0.5v3.1H347v-1.4h-1.8v1.4H344.8z"/>
			<path d="M349.3,465.3c-0.3,0-0.6-0.1-0.8-0.3c-0.2-0.2-0.3-0.4-0.3-0.7c0-0.3,0.1-0.6,0.4-0.8c0.2-0.2,0.6-0.3,1-0.3
				c0.3,0,0.6,0,0.9,0.1v-0.1c0-0.3-0.1-0.5-0.2-0.6c-0.2-0.1-0.4-0.2-0.7-0.2c-0.3,0-0.6,0.1-0.9,0.2l-0.1-0.4
				c0.4-0.2,0.8-0.3,1.1-0.3c0.4,0,0.8,0.1,1,0.3c0.2,0.2,0.3,0.5,0.3,0.9v1.9h-0.5v-0.5C350.2,465.2,349.8,465.3,349.3,465.3z
				 M349.4,465c0.3,0,0.5-0.1,0.7-0.2s0.3-0.4,0.3-0.6v-0.3c-0.3-0.1-0.6-0.1-0.9-0.1c-0.3,0-0.5,0.1-0.7,0.2
				c-0.2,0.1-0.2,0.3-0.2,0.5c0,0.2,0.1,0.3,0.2,0.5C349,464.9,349.2,465,349.4,465z"/>
			<path d="M351.6,465.3c-0.1,0-0.2,0-0.4,0l0.1-0.4c0.1,0,0.2,0,0.2,0c0.1,0,0.2,0,0.2,0c0.1,0,0.1-0.1,0.2-0.2
				c0.1-0.1,0.1-0.2,0.2-0.4s0.1-0.4,0.1-0.7c0-0.3,0-0.7,0-1.2v-0.3h2.2v3.1h-0.5v-2.7h-1.3v0.1c0,0.5,0,0.9-0.1,1.2
				s-0.1,0.6-0.1,0.8c-0.1,0.2-0.1,0.3-0.2,0.4c-0.1,0.1-0.2,0.2-0.3,0.2S351.7,465.3,351.6,465.3z"/>
			<path d="M357.9,464.9c-0.3,0.3-0.7,0.5-1.2,0.5s-0.8-0.2-1.1-0.5c-0.3-0.3-0.5-0.7-0.5-1.1c0-0.4,0.2-0.8,0.5-1.1
				c0.3-0.3,0.7-0.5,1.2-0.5s0.8,0.2,1.2,0.5c0.3,0.3,0.5,0.7,0.5,1.1C358.3,464.2,358.2,464.6,357.9,464.9z M356.7,464.9
				c0.3,0,0.6-0.1,0.8-0.3c0.2-0.2,0.3-0.5,0.3-0.9c0-0.3-0.1-0.6-0.3-0.9c-0.2-0.2-0.5-0.4-0.8-0.4c-0.3,0-0.6,0.1-0.8,0.4
				c-0.2,0.2-0.3,0.5-0.3,0.9c0,0.3,0.1,0.6,0.3,0.9C356.1,464.8,356.4,464.9,356.7,464.9z"/>
			<path d="M359,465.3v-3.1h2.1v0.4h-1.6v2.7H359z"/>
			<path d="M361.7,465.3v-3.1h0.5v2.5l1.8-2.5h0.4v3.1H364v-2.5l-1.8,2.5H361.7z"/>
			<path d="M365.1,465.3l0.9-1.2c-0.2-0.1-0.4-0.2-0.6-0.3s-0.2-0.4-0.2-0.6c0-0.3,0.1-0.5,0.3-0.7s0.5-0.3,0.9-0.3h1.5v3.1h-0.5
				v-1.1h-0.9c0,0-0.2,0.2-0.4,0.5c-0.2,0.3-0.4,0.5-0.5,0.6H365.1z M366.4,463.8h1v-1.2h-1c-0.2,0-0.4,0.1-0.5,0.2
				s-0.2,0.2-0.2,0.4c0,0.2,0.1,0.3,0.2,0.4C366,463.7,366.2,463.8,366.4,463.8z"/>
		</g>
	</g>
	<g>
		<path class="st61" d="M347.4,417.1l1.5-5.5c-3.7-1-7.7-1.1-11.7,0l0.7,2.7l0.7,2.7l1.5,5.5l0.7,2.7l2.2,8.2l2.9-10.9l0,0
			L347.4,417.1L347.4,417.1z"/>
		<path class="st61" d="M357,419.5l2-2c-2.7-2.7-6.2-4.8-10.2-5.9l-0.7,2.7l0,0l-2.9,11l0,0l-2.2,8.2l6-6l0,0L357,419.5L357,419.5z"
			/>
		<path class="st61" d="M359,417.5l-8,8l-2,2l0,0l-6,6l8.2-2.2l2.7-0.7l8.2-2.2l2.7-0.7C363.9,423.9,361.9,420.4,359,417.5z"/>
		<path class="st61" d="M364.9,427.7l-2.7,0.7l-2.7,0.7l-5.5,1.5l-2.7,0.7l-8.2,2.2l11,2.9l0,0l5.5,1.5l0,0l5.5,1.5
			C365.9,435.7,366,431.7,364.9,427.7z"/>
		<path class="st63" d="M362.2,438.7L362.2,438.7l-11-2.9l0,0l-8.2-2.2l6,6l0,0l8,8l0,0l2,2c2.7-2.7,4.8-6.2,5.9-10.2L362.2,438.7z"
			/>
		<path class="st61" d="M351,441.6l-2-2l0,0l-6-6l2.2,8.2l0.7,2.7l2.2,8.2l0.7,2.7c3.7-1,7.2-3,10.2-5.9L351,441.6z"/>
		<path class="st61" d="M340.1,444.5L340.1,444.5l-1.5,5.5l0,0l-1.5,5.5c3.7,1,7.7,1.1,11.7,0l-0.7-2.7l-0.7-2.7l-1.5-5.5l-0.7-2.7
			l-2.2-8.2L340.1,444.5z"/>
		<path class="st61" d="M343,433.5l-6,6l0,0l-8,8l0,0l-2,2c2.7,2.7,6.2,4.8,10.2,5.9l0.7-2.7l0,0l2.9-11l0,0L343,433.5z"/>
		<path class="st61" d="M343,433.5l-8.2,2.2l-2.7,0.7l-8.2,2.2l-2.7,0.7c1,3.7,3,7.2,5.9,10.2l8-8l2-2l0,0L343,433.5z"/>
		<path class="st69" d="M332,430.6L332,430.6l-5.5-1.5l0,0l-5.5-1.5c-1,3.7-1.1,7.7,0,11.7l2.7-0.7l2.7-0.7l5.5-1.5l2.7-0.7l8.2-2.2
			L332,430.6z"/>
		<path class="st51" d="M343,433.5l-6-6l0,0l-8-8l0,0l-2-2c-2.7,2.7-4.8,6.2-5.9,10.2l2.7,0.7l0,0l11,2.9l0,0L343,433.5z"/>
		<path class="st67" d="M327,417.5l8,8l2,2l0,0l6,6l-2.2-8.2l-0.7-2.7l-2.2-8.2l-0.7-2.7C333.4,412.6,329.9,414.6,327,417.5z"/>
		<path class="st59" d="M348.5,432.1c0.8,3-1,6.1-4,6.9c-3,0.8-6.1-1-6.9-4c-0.8-3,1-6.1,4-6.9C344.5,427.2,347.7,429,348.5,432.1z"
			/>
	</g>
</g>
<g>
	<g>
		<g>
			<path d="M310.9,531.3v-4.2h0.5v3.8h2v-3.8h0.5v3.8h2v-3.8h0.5v4.2H310.9z"/>
			<path d="M318.7,531.4c-0.4,0-0.8-0.2-1.1-0.5c-0.3-0.3-0.4-0.7-0.4-1.2c0-0.5,0.1-0.8,0.4-1.1c0.3-0.3,0.6-0.5,1.1-0.5
				c0.4,0,0.8,0.2,1.1,0.5c0.3,0.3,0.4,0.7,0.4,1.2c0,0.1,0,0.1,0,0.2h-2.5c0,0.3,0.2,0.6,0.4,0.8c0.2,0.2,0.5,0.3,0.7,0.3
				c0.4,0,0.7-0.1,1-0.4l0.3,0.3C319.6,531.2,319.2,531.4,318.7,531.4z M317.6,529.6h2c0-0.3-0.1-0.5-0.3-0.7
				c-0.2-0.2-0.4-0.3-0.7-0.3c-0.3,0-0.5,0.1-0.7,0.3C317.7,529,317.6,529.3,317.6,529.6z"/>
			<path d="M322.1,531.4c-0.4,0-0.8-0.2-1.1-0.5c-0.3-0.3-0.5-0.7-0.5-1.1s0.2-0.8,0.5-1.1c0.3-0.3,0.7-0.5,1.1-0.5
				c0.5,0,0.9,0.2,1.2,0.6l-0.3,0.3c-0.3-0.3-0.6-0.5-1-0.5c-0.3,0-0.6,0.1-0.8,0.4c-0.2,0.2-0.3,0.5-0.3,0.9c0,0.3,0.1,0.6,0.3,0.9
				c0.2,0.2,0.5,0.4,0.8,0.4c0.3,0,0.6-0.2,0.9-0.5l0.3,0.3C323.1,531.2,322.6,531.4,322.1,531.4z"/>
			<path d="M324.8,531.3v-2.7h-1.1v-0.4h2.7v0.4h-1.1v2.7H324.8z"/>
			<path d="M326.9,531.3v-3.1h0.5v2.5l1.8-2.5h0.4v3.1h-0.5v-2.5l-1.8,2.5H326.9z"/>
			<path d="M331.1,532.3c-0.2,0-0.4-0.1-0.7-0.2l0.2-0.4c0.1,0.1,0.3,0.1,0.5,0.1c0.1,0,0.3,0,0.4-0.1c0.1-0.1,0.2-0.2,0.3-0.5
				l-1.4-3.1h0.5l1.1,2.6l1-2.6h0.5l-1.3,3.2c-0.1,0.3-0.3,0.5-0.4,0.7C331.5,532.2,331.3,532.3,331.1,532.3z"/>
			<path d="M334,531.3v-3.1h2.1v0.4h-1.6v2.7H334z"/>
			<path d="M339,530.9c-0.3,0.3-0.7,0.5-1.2,0.5s-0.8-0.2-1.1-0.5c-0.3-0.3-0.5-0.7-0.5-1.1c0-0.4,0.2-0.8,0.5-1.1
				c0.3-0.3,0.7-0.5,1.2-0.5s0.8,0.2,1.2,0.5c0.3,0.3,0.5,0.7,0.5,1.1C339.5,530.2,339.4,530.6,339,530.9z M337.9,531
				c0.3,0,0.6-0.1,0.8-0.3c0.2-0.2,0.3-0.5,0.3-0.9c0-0.3-0.1-0.6-0.3-0.9c-0.2-0.2-0.5-0.4-0.8-0.4c-0.3,0-0.6,0.1-0.8,0.4
				c-0.2,0.2-0.3,0.5-0.3,0.9c0,0.3,0.1,0.6,0.3,0.9C337.3,530.9,337.6,531,337.9,531z"/>
			<path d="M340,531.4c-0.1,0-0.2,0-0.4,0l0.1-0.4c0.1,0,0.2,0,0.2,0c0.1,0,0.2,0,0.2,0c0.1,0,0.1-0.1,0.2-0.2
				c0.1-0.1,0.1-0.2,0.2-0.4s0.1-0.4,0.1-0.7c0-0.3,0-0.7,0-1.2v-0.3h2.2v3.1h-0.5v-2.7H341v0.1c0,0.5,0,0.9-0.1,1.2
				s-0.1,0.6-0.1,0.8c-0.1,0.2-0.1,0.3-0.2,0.4c-0.1,0.1-0.2,0.2-0.3,0.2S340.1,531.4,340,531.4z"/>
			<path d="M343.7,531.3v-3.1h0.5v1.2h0.8c0.4,0,0.7,0.1,0.9,0.2c0.2,0.2,0.3,0.4,0.3,0.7c0,0.3-0.1,0.6-0.3,0.7
				c-0.2,0.2-0.5,0.3-0.9,0.3H343.7z M344.2,530.9h0.8c0.2,0,0.4,0,0.5-0.1c0.1-0.1,0.2-0.2,0.2-0.4c0-0.2-0.1-0.3-0.2-0.4
				c-0.1-0.1-0.3-0.1-0.6-0.1h-0.8V530.9z"/>
			<path d="M346.8,531.3v-3.1h0.5v1.3h1.8v-1.3h0.5v3.1h-0.5V530h-1.8v1.4H346.8z"/>
			<path d="M351.3,531.4c-0.3,0-0.6-0.1-0.8-0.3c-0.2-0.2-0.3-0.4-0.3-0.7c0-0.3,0.1-0.6,0.4-0.8c0.2-0.2,0.6-0.3,1-0.3
				c0.3,0,0.6,0,0.9,0.1v-0.1c0-0.3-0.1-0.5-0.2-0.6c-0.2-0.1-0.4-0.2-0.7-0.2c-0.3,0-0.6,0.1-0.9,0.2l-0.1-0.4
				c0.4-0.2,0.8-0.3,1.1-0.3c0.4,0,0.8,0.1,1,0.3c0.2,0.2,0.3,0.5,0.3,0.9v1.9h-0.5v-0.5C352.2,531.2,351.8,531.4,351.3,531.4z
				 M351.4,531c0.3,0,0.5-0.1,0.7-0.2s0.3-0.4,0.3-0.6v-0.3c-0.3-0.1-0.6-0.1-0.9-0.1c-0.3,0-0.5,0.1-0.7,0.2
				c-0.2,0.1-0.2,0.3-0.2,0.5c0,0.2,0.1,0.3,0.2,0.5C351,531,351.2,531,351.4,531z"/>
			<path d="M353.5,531.3l0.9-1.2c-0.2-0.1-0.4-0.2-0.6-0.3s-0.2-0.4-0.2-0.6c0-0.3,0.1-0.5,0.3-0.7s0.5-0.3,0.9-0.3h1.5v3.1h-0.5
				v-1.1h-0.9c0,0-0.2,0.2-0.4,0.5c-0.2,0.3-0.4,0.5-0.5,0.6H353.5z M354.8,529.8h1v-1.2h-1c-0.2,0-0.4,0.1-0.5,0.2
				s-0.2,0.2-0.2,0.4c0,0.2,0.1,0.3,0.2,0.4C354.4,529.7,354.6,529.8,354.8,529.8z"/>
			<path d="M360.2,531.4c-0.4,0-0.8-0.2-1.1-0.5c-0.3-0.3-0.5-0.7-0.5-1.1s0.2-0.8,0.5-1.1c0.3-0.3,0.7-0.5,1.1-0.5
				c0.5,0,0.9,0.2,1.2,0.6l-0.3,0.3c-0.3-0.3-0.6-0.5-1-0.5c-0.3,0-0.6,0.1-0.8,0.4c-0.2,0.2-0.3,0.5-0.3,0.9c0,0.3,0.1,0.6,0.3,0.9
				c0.2,0.2,0.5,0.4,0.8,0.4c0.3,0,0.6-0.2,0.9-0.5l0.3,0.3C361.1,531.2,360.7,531.4,360.2,531.4z"/>
			<path d="M361.8,531.3l1.2-1.6l-1.2-1.5h0.5l0.9,1.2l0.9-1.2h0.5l-1.2,1.5l1.2,1.6h-0.5l-1-1.3l-1,1.3H361.8z"/>
			<path d="M366.7,531.4c-0.4,0-0.8-0.2-1.1-0.5c-0.3-0.3-0.4-0.7-0.4-1.2c0-0.5,0.1-0.8,0.4-1.1c0.3-0.3,0.6-0.5,1.1-0.5
				c0.4,0,0.8,0.2,1.1,0.5c0.3,0.3,0.4,0.7,0.4,1.2c0,0.1,0,0.1,0,0.2h-2.5c0,0.3,0.2,0.6,0.4,0.8c0.2,0.2,0.5,0.3,0.7,0.3
				c0.4,0,0.7-0.1,1-0.4l0.3,0.3C367.6,531.2,367.2,531.4,366.7,531.4z M365.6,529.6h2c0-0.3-0.1-0.5-0.3-0.7
				c-0.2-0.2-0.4-0.3-0.7-0.3c-0.3,0-0.5,0.1-0.7,0.3C365.7,529,365.6,529.3,365.6,529.6z"/>
			<path d="M368.7,531.3v-3.1h0.4l1.2,1.6l1.2-1.6h0.4v3.1h-0.5v-2.4l-1.1,1.6l-1.1-1.6v2.4H368.7z"/>
			<path d="M373.8,531.4c-0.3,0-0.6-0.1-0.8-0.3c-0.2-0.2-0.3-0.4-0.3-0.7c0-0.3,0.1-0.6,0.4-0.8c0.2-0.2,0.6-0.3,1-0.3
				c0.3,0,0.6,0,0.9,0.1v-0.1c0-0.3-0.1-0.5-0.2-0.6c-0.2-0.1-0.4-0.2-0.7-0.2c-0.3,0-0.6,0.1-0.9,0.2l-0.1-0.4
				c0.4-0.2,0.8-0.3,1.1-0.3c0.4,0,0.8,0.1,1,0.3c0.2,0.2,0.3,0.5,0.3,0.9v1.9h-0.5v-0.5C374.6,531.2,374.2,531.4,373.8,531.4z
				 M373.9,531c0.3,0,0.5-0.1,0.7-0.2s0.3-0.4,0.3-0.6v-0.3c-0.3-0.1-0.6-0.1-0.9-0.1c-0.3,0-0.5,0.1-0.7,0.2
				c-0.2,0.1-0.2,0.3-0.2,0.5c0,0.2,0.1,0.3,0.2,0.5C373.5,531,373.6,531,373.9,531z"/>
		</g>
	</g>
	<g>
		<path class="st60" d="M347.4,483.1l1.5-5.5c-3.7-1-7.7-1.1-11.7,0l0.7,2.7l0.7,2.7l1.5,5.5l0.7,2.7l2.2,8.2l2.9-10.9l0,0
			L347.4,483.1L347.4,483.1z"/>
		<path class="st61" d="M357,485.5l2-2c-2.7-2.7-6.2-4.8-10.2-5.9l-0.7,2.7l0,0l-2.9,11l0,0l-2.2,8.2l6-6l0,0L357,485.5L357,485.5z"
			/>
		<path class="st68" d="M359,483.5l-8,8l-2,2l0,0l-6,6l8.2-2.2l2.7-0.7l8.2-2.2l2.7-0.7C363.9,490,361.9,486.5,359,483.5z"/>
		<path class="st61" d="M364.9,493.7l-2.7,0.7l-2.7,0.7l-5.5,1.5l-2.7,0.7l-8.2,2.2l11,2.9l0,0l5.5,1.5l0,0l5.5,1.5
			C365.9,501.7,366,497.7,364.9,493.7z"/>
		<path class="st63" d="M362.2,504.7L362.2,504.7l-11-2.9l0,0l-8.2-2.2l6,6l0,0l8,8l0,0l2,2c2.7-2.7,4.8-6.2,5.9-10.2L362.2,504.7z"
			/>
		<path class="st61" d="M351,507.6l-2-2l0,0l-6-6l2.2,8.2l0.7,2.7l2.2,8.2l0.7,2.7c3.7-1,7.2-3,10.2-5.9L351,507.6z"/>
		<path class="st62" d="M340.1,510.5L340.1,510.5l-1.5,5.5l0,0l-1.5,5.5c3.7,1,7.7,1.1,11.7,0l-0.7-2.7l-0.7-2.7l-1.5-5.5l-0.7-2.7
			l-2.2-8.2L340.1,510.5z"/>
		<path class="st61" d="M343,499.6l-6,6l0,0l-8,8l0,0l-2,2c2.7,2.7,6.2,4.8,10.2,5.9l0.7-2.7l0,0l2.9-11l0,0L343,499.6z"/>
		<path class="st64" d="M343,499.6l-8.2,2.2l-2.7,0.7l-8.2,2.2l-2.7,0.7c1,3.7,3,7.2,5.9,10.2l8-8l2-2l0,0L343,499.6z"/>
		<path class="st61" d="M332,496.6L332,496.6l-5.5-1.5l0,0l-5.5-1.5c-1,3.7-1.1,7.7,0,11.7l2.7-0.7l2.7-0.7l5.5-1.5l2.7-0.7l8.2-2.2
			L332,496.6z"/>
		<path class="st70" d="M343,499.6l-6-6l0,0l-8-8l0,0l-2-2c-2.7,2.7-4.8,6.2-5.9,10.2l2.7,0.7l0,0l11,2.9l0,0L343,499.6z"/>
		<path class="st61" d="M327,483.5l8,8l2,2l0,0l6,6l-2.2-8.2l-0.7-2.7l-2.2-8.2l-0.7-2.7C333.4,478.7,329.9,480.6,327,483.5z"/>
		<path class="st59" d="M348.5,498.1c0.8,3-1,6.1-4,6.9c-3,0.8-6.1-1-6.9-4c-0.8-3,1-6.1,4-6.9C344.5,493.3,347.7,495.1,348.5,498.1
			z"/>
	</g>
</g>
<g>
	<path class="st71" d="M120.7,75.7v-8.4h5.2v0.6h-4.6v7.8H120.7z"/>
	<path class="st71" d="M125.4,73.9c0-0.6,0.2-1.1,0.7-1.5s1.1-0.5,1.9-0.5c0.7,0,1.4,0.1,2,0.3v-0.3c0-0.6-0.2-1.1-0.5-1.4
		s-0.8-0.5-1.5-0.5c-0.6,0-1.3,0.2-1.9,0.5l-0.2-0.5c0.8-0.4,1.5-0.5,2.2-0.5c0.8,0,1.5,0.2,1.9,0.7c0.4,0.4,0.6,1,0.6,1.7v3.8h-0.6
		v-1c-0.2,0.3-0.6,0.6-0.9,0.8s-0.9,0.3-1.4,0.3c-0.4,0-0.8-0.1-1.2-0.2s-0.6-0.4-0.9-0.7S125.4,74.3,125.4,73.9z M126,73.9
		c0,0.4,0.2,0.8,0.5,1s0.7,0.4,1.3,0.4c0.6,0,1.2-0.2,1.6-0.5s0.7-0.8,0.7-1.4v-0.7c-0.7-0.2-1.4-0.3-2.1-0.3
		c-0.6,0-1.1,0.1-1.5,0.4S126,73.4,126,73.9z"/>
	<path class="st71" d="M132.8,77.6v-8h0.6v1.4c0.7-1,1.5-1.5,2.5-1.5c0.4,0,0.7,0.1,1.1,0.2s0.7,0.4,1,0.6s0.5,0.6,0.7,1
		s0.3,0.9,0.3,1.3c0,0.5-0.1,0.9-0.3,1.3s-0.4,0.7-0.7,1s-0.6,0.5-1,0.6s-0.7,0.2-1.1,0.2c-1,0-1.9-0.5-2.5-1.5v3.2H132.8z
		 M133.3,72.7c0,0.5,0.1,1,0.4,1.4s0.5,0.7,0.9,0.9s0.8,0.3,1.2,0.3c0.7,0,1.3-0.2,1.7-0.7s0.7-1.1,0.7-1.9c0-0.4-0.1-0.8-0.2-1.1
		s-0.3-0.6-0.5-0.8s-0.5-0.4-0.8-0.5s-0.6-0.2-0.9-0.2c-0.3,0-0.6,0.1-0.9,0.2s-0.6,0.3-0.8,0.5s-0.4,0.5-0.6,0.8
		S133.3,72.3,133.3,72.7z"/>
	<path class="st71" d="M140.7,75.7v-6.1h0.5l2.5,3.5l2.5-3.5h0.5v6.1h-0.6v-5.1l-2.5,3.4l-2.4-3.4v5.1H140.7z"/>
	<path class="st71" d="M148.3,72.6c0-0.4,0.1-0.8,0.2-1.2s0.4-0.7,0.7-1s0.6-0.5,1-0.7s0.8-0.3,1.3-0.3c0.6,0,1.1,0.1,1.6,0.4
		s0.9,0.7,1.1,1.2s0.4,1,0.4,1.6c0,0.6-0.1,1.1-0.4,1.6s-0.6,0.9-1.1,1.2s-1,0.4-1.6,0.4c-0.4,0-0.9-0.1-1.2-0.3s-0.7-0.4-1-0.7
		s-0.5-0.6-0.6-1S148.3,73.1,148.3,72.6z M148.9,72.6c0,0.7,0.2,1.4,0.7,1.9s1.1,0.8,1.8,0.8c0.4,0,0.9-0.1,1.2-0.4s0.7-0.6,0.9-1
		s0.3-0.8,0.3-1.3c0-0.7-0.2-1.4-0.7-1.9s-1.1-0.8-1.8-0.8c-0.5,0-0.9,0.1-1.3,0.4s-0.7,0.6-0.9,1S148.9,72.2,148.9,72.6z"/>
	<path class="st71" d="M156.4,75.7v-6.1h0.6v2.7h4.1v-2.7h0.6v6.1h-0.6v-2.9H157v2.9H156.4z"/>
	<path class="st71" d="M163.9,75.7v-6.1h0.6v5.3l4.1-5.3h0.6v6.1h-0.6v-5.3l-4.1,5.3H163.9z"/>
	<path class="st71" d="M171.1,71.9v-2.3h0.6v2.3c0,0.4,0.1,0.7,0.4,0.9s0.6,0.3,1,0.3c0.4,0,0.8-0.1,1.2-0.2s0.8-0.3,1-0.5v-2.9h0.6
		v6.1h-0.6V73c-0.3,0.2-0.6,0.3-1,0.4s-0.8,0.2-1.2,0.2c-0.6,0-1.1-0.2-1.5-0.5S171.1,72.4,171.1,71.9z"/>
	<path class="st71" d="M178.1,75.7v-6.1h0.6v2.7h4.1v-2.7h0.6v6.1h-0.6v-2.9h-4.1v2.9H178.1z"/>
	<path class="st71" d="M185.6,75.7v-6.1h0.6v2.3h1.8c0.3,0,0.6,0,0.9,0.1s0.5,0.2,0.7,0.3s0.4,0.3,0.5,0.6s0.2,0.5,0.2,0.8
		c0,0.6-0.2,1.1-0.6,1.4s-0.9,0.5-1.6,0.5H185.6z M186.2,75.2h1.8c0.5,0,0.9-0.1,1.2-0.4s0.5-0.6,0.5-1c0-0.4-0.2-0.7-0.5-1
		s-0.7-0.3-1.3-0.3h-1.8V75.2z M191.6,75.7v-6.1h0.6v6.1H191.6z"/>
	<path class="st71" d="M194,72.6c0-0.4,0.1-0.9,0.2-1.2s0.3-0.7,0.6-1s0.6-0.5,0.9-0.7s0.7-0.3,1.2-0.3c0.6,0,1.1,0.1,1.5,0.4
		s0.8,0.7,1,1.2s0.3,1,0.3,1.6c0,0.1,0,0.2,0,0.2h-5.1c0.1,0.7,0.3,1.3,0.8,1.8s1,0.7,1.6,0.7c0.8,0,1.5-0.3,2.1-1l0.4,0.4
		c-0.3,0.4-0.7,0.7-1.1,0.9s-0.9,0.3-1.4,0.3c-0.4,0-0.8-0.1-1.1-0.2s-0.7-0.4-1-0.6s-0.5-0.6-0.7-1S194,73.1,194,72.6z M194.6,72.4
		h4.5c0-0.3-0.1-0.6-0.2-0.9s-0.2-0.5-0.4-0.8s-0.4-0.4-0.7-0.5s-0.6-0.2-0.9-0.2c-0.6,0-1.1,0.2-1.5,0.7S194.7,71.7,194.6,72.4z"/>
	<path class="st71" d="M204.6,72.6c0-0.6,0.1-1.1,0.4-1.6s0.6-0.9,1.1-1.2s1-0.4,1.6-0.4c1,0,1.8,0.4,2.4,1.1l-0.4,0.4
		c-0.3-0.3-0.6-0.6-0.9-0.7s-0.7-0.3-1.1-0.3c-0.4,0-0.9,0.1-1.2,0.4s-0.7,0.6-0.9,1s-0.3,0.9-0.3,1.3c0,0.7,0.2,1.4,0.7,1.9
		s1.1,0.8,1.8,0.8c0.7,0,1.4-0.3,2-1l0.4,0.4c-0.3,0.4-0.7,0.7-1.1,0.9s-0.9,0.3-1.4,0.3c-0.6,0-1.1-0.1-1.6-0.4s-0.9-0.7-1.1-1.2
		S204.6,73.2,204.6,72.6z"/>
	<path class="st71" d="M211.4,72.6c0-0.4,0.1-0.8,0.2-1.2s0.4-0.7,0.7-1s0.6-0.5,1-0.7s0.8-0.3,1.3-0.3c0.6,0,1.1,0.1,1.6,0.4
		s0.9,0.7,1.1,1.2s0.4,1,0.4,1.6c0,0.6-0.1,1.1-0.4,1.6s-0.6,0.9-1.1,1.2s-1,0.4-1.6,0.4c-0.4,0-0.9-0.1-1.2-0.3s-0.7-0.4-1-0.7
		s-0.5-0.6-0.6-1S211.4,73.1,211.4,72.6z M212.1,72.6c0,0.7,0.2,1.4,0.7,1.9s1.1,0.8,1.8,0.8c0.4,0,0.9-0.1,1.2-0.4s0.7-0.6,0.9-1
		s0.3-0.8,0.3-1.3c0-0.7-0.2-1.4-0.7-1.9s-1.1-0.8-1.8-0.8c-0.5,0-0.9,0.1-1.3,0.4s-0.7,0.6-0.9,1S212.1,72.2,212.1,72.6z"/>
	<path class="st71" d="M219.2,71.9v-2.3h0.6v2.3c0,0.4,0.1,0.7,0.4,0.9s0.6,0.3,1,0.3c0.4,0,0.8-0.1,1.2-0.2s0.8-0.3,1-0.5v-2.9h0.6
		v6.1h-0.6V73c-0.3,0.2-0.6,0.3-1,0.4s-0.8,0.2-1.2,0.2c-0.6,0-1.1-0.2-1.5-0.5S219.2,72.4,219.2,71.9z"/>
	<path class="st71" d="M225.8,72.6c0-0.4,0.1-0.9,0.2-1.2s0.3-0.7,0.6-1s0.6-0.5,0.9-0.7s0.7-0.3,1.2-0.3c0.6,0,1.1,0.1,1.5,0.4
		s0.8,0.7,1,1.2s0.3,1,0.3,1.6c0,0.1,0,0.2,0,0.2h-5.1c0.1,0.7,0.3,1.3,0.8,1.8s1,0.7,1.6,0.7c0.8,0,1.5-0.3,2.1-1l0.4,0.4
		c-0.3,0.4-0.7,0.7-1.1,0.9s-0.9,0.3-1.4,0.3c-0.4,0-0.8-0.1-1.1-0.2s-0.7-0.4-1-0.6s-0.5-0.6-0.7-1S225.8,73.1,225.8,72.6z
		 M226.5,72.4h4.5c0-0.3-0.1-0.6-0.2-0.9s-0.2-0.5-0.4-0.8s-0.4-0.4-0.7-0.5s-0.6-0.2-0.9-0.2c-0.6,0-1.1,0.2-1.5,0.7
		S226.5,71.7,226.5,72.4z"/>
	<path class="st71" d="M232.3,70.1v-0.5h5.2v0.5h-2.3v5.6h-0.6v-5.6H232.3z"/>
	<path class="st71" d="M238.2,73.9c0-0.6,0.2-1.1,0.7-1.5s1.1-0.5,1.9-0.5c0.7,0,1.4,0.1,2,0.3v-0.3c0-0.6-0.2-1.1-0.5-1.4
		s-0.8-0.5-1.5-0.5c-0.6,0-1.3,0.2-1.9,0.5l-0.2-0.5c0.8-0.4,1.5-0.5,2.2-0.5c0.8,0,1.5,0.2,1.9,0.7c0.4,0.4,0.6,1,0.6,1.7v3.8h-0.6
		v-1c-0.2,0.3-0.6,0.6-0.9,0.8s-0.9,0.3-1.4,0.3c-0.4,0-0.8-0.1-1.2-0.2s-0.6-0.4-0.9-0.7S238.2,74.3,238.2,73.9z M238.8,73.9
		c0,0.4,0.2,0.8,0.5,1s0.7,0.4,1.3,0.4c0.6,0,1.2-0.2,1.6-0.5s0.7-0.8,0.7-1.4v-0.7c-0.7-0.2-1.4-0.3-2.1-0.3
		c-0.6,0-1.1,0.1-1.5,0.4S238.8,73.4,238.8,73.9z"/>
	<path class="st71" d="M245.6,75.7v-6.1h0.6v2.7h4.1v-2.7h0.6v6.1h-0.6v-2.9h-4.1v2.9H245.6z"/>
	<path class="st71" d="M253,75.7v-6.1h0.6v5.3l4.1-5.3h0.6v6.1h-0.6v-5.3l-4.1,5.3H253z"/>
	<path class="st71" d="M260.1,75.7l1.9-2.4c-0.5-0.1-0.9-0.3-1.3-0.6c-0.3-0.3-0.5-0.7-0.5-1.2c0-0.5,0.2-1,0.6-1.3s0.9-0.5,1.6-0.5
		h2.7v6.1h-0.6v-2.3h-2l-1.8,2.3H260.1z M260.9,71.4c0,0.4,0.2,0.8,0.5,1s0.7,0.4,1.2,0.4h2v-2.7h-2.1c-0.5,0-0.9,0.1-1.2,0.4
		S260.9,71,260.9,71.4z"/>
	<path class="st71" d="M271.1,75.7v-6.1h0.6v5.6h3.9v-5.6h0.6v5.6h1l-0.1,2.3h-0.5v-1.7H271.1z"/>
	<path class="st71" d="M278.6,75.7v-6.1h2.8c0.6,0,1.1,0.1,1.4,0.4s0.5,0.6,0.5,1.1c0,0.6-0.3,1.1-1,1.4c0.4,0.1,0.7,0.3,1,0.5
		s0.4,0.6,0.4,1c0,0.5-0.2,0.9-0.6,1.2c-0.4,0.3-0.9,0.5-1.6,0.5H278.6z M279.2,72.3h2.1c0.4,0,0.8-0.1,1.1-0.3s0.4-0.5,0.4-0.9
		c0-0.3-0.1-0.6-0.4-0.7s-0.6-0.3-1.1-0.3h-2.2V72.3z M279.2,75.2h2.3c0.5,0,0.9-0.1,1.2-0.3s0.4-0.5,0.4-0.9c0-0.4-0.2-0.6-0.5-0.8
		s-0.8-0.3-1.3-0.3h-2.1V75.2z"/>
	<path class="st71" d="M285.1,72.6c0-0.4,0.1-0.9,0.2-1.2s0.3-0.7,0.6-1s0.6-0.5,0.9-0.7s0.7-0.3,1.2-0.3c0.6,0,1.1,0.1,1.5,0.4
		s0.8,0.7,1,1.2s0.3,1,0.3,1.6c0,0.1,0,0.2,0,0.2h-5.1c0.1,0.7,0.3,1.3,0.8,1.8s1,0.7,1.6,0.7c0.8,0,1.5-0.3,2.1-1l0.4,0.4
		c-0.3,0.4-0.7,0.7-1.1,0.9s-0.9,0.3-1.4,0.3c-0.4,0-0.8-0.1-1.1-0.2s-0.7-0.4-1-0.6s-0.5-0.6-0.7-1S285.1,73.1,285.1,72.6z
		 M285.8,72.4h4.5c0-0.3-0.1-0.6-0.2-0.9s-0.2-0.5-0.4-0.8s-0.4-0.4-0.7-0.5S288.4,70,288,70c-0.6,0-1.1,0.2-1.5,0.7
		S285.8,71.7,285.8,72.4z"/>
	<path class="st71" d="M291.6,70.1v-0.5h5.2v0.5h-2.3v5.6h-0.6v-5.6H291.6z"/>
	<path class="st71" d="M297.4,72.6c0-0.4,0.1-0.8,0.2-1.2s0.4-0.7,0.7-1s0.6-0.5,1-0.7s0.8-0.3,1.3-0.3c0.6,0,1.1,0.1,1.6,0.4
		s0.9,0.7,1.1,1.2s0.4,1,0.4,1.6c0,0.6-0.1,1.1-0.4,1.6s-0.6,0.9-1.1,1.2s-1,0.4-1.6,0.4c-0.4,0-0.9-0.1-1.2-0.3s-0.7-0.4-1-0.7
		s-0.5-0.6-0.6-1S297.4,73.1,297.4,72.6z M298.1,72.6c0,0.7,0.2,1.4,0.7,1.9s1.1,0.8,1.8,0.8c0.4,0,0.9-0.1,1.2-0.4s0.7-0.6,0.9-1
		s0.3-0.8,0.3-1.3c0-0.7-0.2-1.4-0.7-1.9s-1.1-0.8-1.8-0.8c-0.5,0-0.9,0.1-1.3,0.4s-0.7,0.6-0.9,1S298.1,72.2,298.1,72.6z"/>
	<path class="st71" d="M305.5,75.7v-6.1h2.8c0.6,0,1.1,0.1,1.4,0.4s0.5,0.6,0.5,1.1c0,0.6-0.3,1.1-1,1.4c0.4,0.1,0.7,0.3,1,0.5
		s0.4,0.6,0.4,1c0,0.5-0.2,0.9-0.6,1.2c-0.4,0.3-0.9,0.5-1.6,0.5H305.5z M306.1,72.3h2.1c0.4,0,0.8-0.1,1.1-0.3s0.4-0.5,0.4-0.9
		c0-0.3-0.1-0.6-0.4-0.7s-0.6-0.3-1.1-0.3h-2.2V72.3z M306.1,75.2h2.3c0.5,0,0.9-0.1,1.2-0.3s0.4-0.5,0.4-0.9c0-0.4-0.2-0.6-0.5-0.8
		s-0.8-0.3-1.3-0.3h-2.1V75.2z"/>
</g>
</svg>
