<?xml version="1.0" encoding="utf-8"?>
<!-- Generator: Adobe Illustrator 22.1.0, SVG Export Plug-In . SVG Version: 6.00 Build 0)  -->
<svg version="1.1" xmlns="http://www.w3.org/2000/svg" xmlns:xlink="http://www.w3.org/1999/xlink" x="0px" y="0px"
	 viewBox="0 0 420.9 595.3" style="enable-background:new 0 0 420.9 595.3;" xml:space="preserve">
<style type="text/css">
	.st0{font-family:'GothamPro-Light';}
	.st1{font-size:21px;}
	.st2{font-family:'GothamPro-Black';}
	.st3{font-size:7.3px;}
	.st4{font-family:'GothamPro';}
	.st5{fill:none;stroke:#000000;stroke-width:0.25;stroke-miterlimit:10;}
	.st6{fill:none;stroke:#000000;stroke-width:0.5;stroke-miterlimit:10;}
	.st7{font-size:6px;}
	.st8{fill:#6B6966;}
	.st9{font-size:12px;}
</style>
<g id="Слой_2">
	<text transform="matrix(1 0 0 1 109.2852 58.6929)" class="st0 st1">КАЛЕНДАРЬ 2020</text>
	<text transform="matrix(1 0 0 1 40.9604 521.5753)"><tspan x="0" y="0" class="st2 st3">1 </tspan><tspan x="4.8" y="0" class="st4 st3">- праздничный или нерабочий день</tspan></text>
	<g>
		<text transform="matrix(1 0 0 1 209.7643 521.576)"><tspan x="0" y="0" class="st4 st3">9 сентября - международный день красоты</tspan><tspan x="0" y="8.8" class="st4 st3">11 ноября - день шопинга</tspan><tspan x="0" y="17.5" class="st4 st3">23 ноября - день имидж-консультанта</tspan></text>
	</g>
	<g>
		<text transform="matrix(1 0 0 1 53.693 535.6636)" class="st4 st3"> -  профессиональные праздники</text>
		<rect x="41" y="528.2" class="st6" width="10.1" height="10.1"/>
	</g>
</g>
<g id="Слой_4">
	<text transform="matrix(1 0 0 1 50.1178 106.3781)" class="st4 st7">ПН</text>
	<text transform="matrix(1 0 0 1 64.3062 106.3782)" class="st4 st7">ВТ</text>
	<text transform="matrix(1 0 0 1 77.9665 106.378)" class="st4 st7">СР</text>
	<text transform="matrix(1 0 0 1 91.9237 106.3778)" class="st4 st7">ЧТ</text>
	<text transform="matrix(1 0 0 1 105.5274 106.3781)" class="st4 st7">ПТ</text>
	<text transform="matrix(1 0 0 1 119.1995 106.4477)" class="st2 st7">СБ</text>
	<text transform="matrix(1 0 0 1 132.9228 106.4477)" class="st2 st7">ВС</text>
	<g>
		<text transform="matrix(1 0 0 1 91.7926 163.8769)" class="st4 st7">30</text>
	</g>
	<g>
		<text transform="matrix(1 0 0 1 106.8085 163.9473)" class="st4 st7">31</text>
	</g>
	<g>
		<text transform="matrix(1 0 0 1 80.8548 117.8779)" class="st2 st7">1</text>
	</g>
	<g>
		<text transform="matrix(1 0 0 1 94.0923 117.8777)" class="st4 st7">2</text>
	</g>
	<g>
		<text transform="matrix(1 0 0 1 107.8191 117.878)" class="st4 st7">3</text>
	</g>
	<text transform="matrix(1 0 0 1 121.3593 117.9476)" class="st2 st7">4</text>
	<text transform="matrix(1 0 0 1 135.3043 117.9476)" class="st2 st7">5</text>
	<g>
		<text transform="matrix(1 0 0 1 52.6433 129.3778)" class="st4 st7">6</text>
	</g>
	<g>
		<text transform="matrix(1 0 0 1 66.5647 129.3779)" class="st4 st7">7</text>
	</g>
	<g>
		<text transform="matrix(1 0 0 1 80.2308 129.3777)" class="st4 st7">8</text>
	</g>
	<g>
		<text transform="matrix(1 0 0 1 93.9483 129.3775)" class="st4 st7">9</text>
	</g>
	<g>
		<text transform="matrix(1 0 0 1 106.5022 129.3778)" class="st4 st7">10</text>
	</g>
	<text transform="matrix(1 0 0 1 120.9575 129.4474)" class="st2 st7">11</text>
	<text transform="matrix(1 0 0 1 134.1193 129.4474)" class="st2 st7">12</text>
	<text transform="matrix(1 0 0 1 51.7342 140.8777)" class="st4 st7">13</text>
	<text transform="matrix(1 0 0 1 65.3289 140.8778)" class="st4 st7">14</text>
	<text transform="matrix(1 0 0 1 79.2738 140.8776)" class="st4 st7">15</text>
	<text transform="matrix(1 0 0 1 92.9371 140.8774)" class="st4 st7">16</text>
	<text transform="matrix(1 0 0 1 106.8591 140.8777)" class="st4 st7">17</text>
	<text transform="matrix(1 0 0 1 120.3334 140.9473)" class="st2 st7">18</text>
	<text transform="matrix(1 0 0 1 134.0055 140.9473)" class="st2 st7">19</text>
	<text transform="matrix(1 0 0 1 50.7054 152.3775)" class="st4 st7">20</text>
	<text transform="matrix(1 0 0 1 65.5447 152.3776)" class="st4 st7">21</text>
	<text transform="matrix(1 0 0 1 78.5902 152.3774)" class="st4 st7">22</text>
	<text transform="matrix(1 0 0 1 92.3165 152.3773)" class="st4 st7">23</text>
	<text transform="matrix(1 0 0 1 105.9109 152.3776)" class="st4 st7">24</text>
	<text transform="matrix(1 0 0 1 119.7275 152.4472)" class="st2 st7">25</text>
	<text transform="matrix(1 0 0 1 133.3995 152.4472)" class="st2 st7">26</text>
	<text transform="matrix(1 0 0 1 51.0623 163.8774)" class="st4 st7">27</text>
	<text transform="matrix(1 0 0 1 64.7288 163.8775)" class="st4 st7">28</text>
	<text transform="matrix(1 0 0 1 78.4461 163.8773)" class="st4 st7">29</text>
	<text transform="matrix(1 0 0 1 73.6932 94.5921)" class="st8 st0 st9">Январь</text>
	<text transform="matrix(1 0 0 1 179.0396 94.5922)" class="st8 st0 st9">Февраль</text>
	<text transform="matrix(1 0 0 1 299.4818 94.5924)" class="st8 st0 st9">Март</text>
	<text transform="matrix(1 0 0 1 193.0638 205.1596)" class="st8 st0 st9">Май</text>
	<text transform="matrix(1 0 0 1 73.1916 205.1592)" class="st8 st0 st9">Апрель</text>
	<text transform="matrix(1 0 0 1 298.6743 205.1592)" class="st8 st0 st9">Июнь</text>
	<text transform="matrix(1 0 0 1 79.2891 315.685)" class="st8 st0 st9">Июль</text>
	<text transform="matrix(1 0 0 1 184.4908 315.6848)" class="st8 st0 st9">Август</text>
	<text transform="matrix(1 0 0 1 285.9313 315.6845)" class="st8 st0 st9">Сентябрь</text>
	<text transform="matrix(1 0 0 1 70.0157 426.2462)" class="st8 st0 st9">Октябрь</text>
	<text transform="matrix(1 0 0 1 182.6039 426.246)" class="st8 st0 st9">Ноябрь</text>
	<text transform="matrix(1 0 0 1 289.1381 426.246)" class="st8 st0 st9">Декабрь</text>
	<text transform="matrix(1 0 0 1 159.7233 106.4486)" class="st4 st7">ПН</text>
	<text transform="matrix(1 0 0 1 173.9118 106.4487)" class="st4 st7">ВТ</text>
	<text transform="matrix(1 0 0 1 187.572 106.4485)" class="st4 st7">СР</text>
	<text transform="matrix(1 0 0 1 201.5293 106.4483)" class="st4 st7">ЧТ</text>
	<text transform="matrix(1 0 0 1 215.1329 106.4486)" class="st4 st7">ПТ</text>
	<text transform="matrix(1 0 0 1 228.805 106.5182)" class="st2 st7">СБ</text>
	<text transform="matrix(1 0 0 1 242.5284 106.5182)" class="st2 st7">ВС</text>
	<text transform="matrix(1 0 0 1 231.7657 118.0181)" class="st2 st7">1</text>
	<text transform="matrix(1 0 0 1 244.9279 118.0181)" class="st2 st7">2</text>
	<text transform="matrix(1 0 0 1 162.3509 129.4483)" class="st4 st7">3</text>
	<text transform="matrix(1 0 0 1 175.9451 129.4484)" class="st4 st7">4</text>
	<text transform="matrix(1 0 0 1 189.8905 129.4482)" class="st4 st7">5</text>
	<text transform="matrix(1 0 0 1 203.5538 129.4481)" class="st4 st7">6</text>
	<text transform="matrix(1 0 0 1 217.4754 129.4484)" class="st4 st7">7</text>
	<text transform="matrix(1 0 0 1 231.1416 129.5179)" class="st2 st7">8</text>
	<text transform="matrix(1 0 0 1 244.8142 129.5179)" class="st2 st7">9</text>
	<text transform="matrix(1 0 0 1 161.034 140.9482)" class="st4 st7">10</text>
	<text transform="matrix(1 0 0 1 175.8734 140.9483)" class="st4 st7">11</text>
	<g>
		<text transform="matrix(1 0 0 1 188.9184 140.9481)" class="st4 st7">12</text>
	</g>
	<text transform="matrix(1 0 0 1 202.6447 140.9479)" class="st4 st7">13</text>
	<text transform="matrix(1 0 0 1 216.2396 140.9482)" class="st4 st7">14</text>
	<text transform="matrix(1 0 0 1 229.939 141.0178)" class="st2 st7">15</text>
	<text transform="matrix(1 0 0 1 243.6111 141.0178)" class="st2 st7">16</text>
	<text transform="matrix(1 0 0 1 161.391 152.448)" class="st4 st7">17</text>
	<text transform="matrix(1 0 0 1 175.0574 152.4482)" class="st4 st7">18</text>
	<text transform="matrix(1 0 0 1 188.7743 152.448)" class="st4 st7">19</text>
	<text transform="matrix(1 0 0 1 201.6159 152.4478)" class="st4 st7">20</text>
	<text transform="matrix(1 0 0 1 216.4554 152.4481)" class="st4 st7">21</text>
	<text transform="matrix(1 0 0 1 229.3506 152.5177)" class="st2 st7">22</text>
	<text transform="matrix(1 0 0 1 243.1281 152.5177)" class="st2 st7">23</text>
	<g>
		<text transform="matrix(1 0 0 1 160.4427 163.9479)" class="st4 st7">24</text>
	</g>
	<text transform="matrix(1 0 0 1 174.3885 163.948)" class="st4 st7">25</text>
	<text transform="matrix(1 0 0 1 188.0517 163.9478)" class="st4 st7">26</text>
	<text transform="matrix(1 0 0 1 201.9728 163.9476)" class="st4 st7">27</text>
	<text transform="matrix(1 0 0 1 215.6395 163.9479)" class="st4 st7">28</text>
	<text transform="matrix(1 0 0 1 229.2368 164.0175)" class="st2 st7">29</text>
	<text transform="matrix(1 0 0 1 269.3302 106.3781)" class="st4 st7">ПН</text>
	<text transform="matrix(1 0 0 1 283.5186 106.3782)" class="st4 st7">ВТ</text>
	<text transform="matrix(1 0 0 1 297.1789 106.3781)" class="st4 st7">СР</text>
	<text transform="matrix(1 0 0 1 311.1361 106.3779)" class="st4 st7">ЧТ</text>
	<text transform="matrix(1 0 0 1 324.7398 106.3782)" class="st4 st7">ПТ</text>
	<text transform="matrix(1 0 0 1 338.4119 106.4478)" class="st2 st7">СБ</text>
	<text transform="matrix(1 0 0 1 352.1352 106.4478)" class="st2 st7">ВС</text>
	<text transform="matrix(1 0 0 1 355.1407 117.9476)" class="st2 st7">1</text>
	<text transform="matrix(1 0 0 1 271.9998 129.3778)" class="st4 st7">2</text>
	<text transform="matrix(1 0 0 1 285.7263 129.3779)" class="st4 st7">3</text>
	<text transform="matrix(1 0 0 1 299.3202 129.3777)" class="st4 st7">4</text>
	<text transform="matrix(1 0 0 1 313.2657 129.3776)" class="st4 st7">5</text>
	<text transform="matrix(1 0 0 1 326.9295 129.3779)" class="st4 st7">6</text>
	<text transform="matrix(1 0 0 1 340.7968 129.4474)" class="st2 st7">7</text>
	<text transform="matrix(1 0 0 1 354.5167 129.4474)" class="st2 st7">8</text>
	<g>
		<text transform="matrix(1 0 0 1 271.8558 140.8777)" class="st4 st7">9</text>
	</g>
	<text transform="matrix(1 0 0 1 284.4094 140.8778)" class="st4 st7">10</text>
	<text transform="matrix(1 0 0 1 299.2484 140.8776)" class="st4 st7">11</text>
	<text transform="matrix(1 0 0 1 312.2935 140.8774)" class="st4 st7">12</text>
	<text transform="matrix(1 0 0 1 326.0203 140.8777)" class="st4 st7">13</text>
	<text transform="matrix(1 0 0 1 339.3686 140.9473)" class="st2 st7">14</text>
	<text transform="matrix(1 0 0 1 353.3141 140.9473)" class="st2 st7">15</text>
	<text transform="matrix(1 0 0 1 270.8445 152.3776)" class="st4 st7">16</text>
	<text transform="matrix(1 0 0 1 284.7664 152.3777)" class="st4 st7">17</text>
	<text transform="matrix(1 0 0 1 298.4325 152.3775)" class="st4 st7">18</text>
	<text transform="matrix(1 0 0 1 312.1495 152.3773)" class="st4 st7">19</text>
	<text transform="matrix(1 0 0 1 324.9915 152.3776)" class="st4 st7">20</text>
	<text transform="matrix(1 0 0 1 339.5634 152.4472)" class="st2 st7">21</text>
	<text transform="matrix(1 0 0 1 352.7257 152.4472)" class="st2 st7">22</text>
	<text transform="matrix(1 0 0 1 270.2239 163.8774)" class="st4 st7">23</text>
	<text transform="matrix(1 0 0 1 283.8181 163.8775)" class="st4 st7">24</text>
	<text transform="matrix(1 0 0 1 297.7635 163.8773)" class="st4 st7">25</text>
	<text transform="matrix(1 0 0 1 311.4268 163.8772)" class="st4 st7">26</text>
	<text transform="matrix(1 0 0 1 325.3484 163.8775)" class="st4 st7">27</text>
	<text transform="matrix(1 0 0 1 338.9399 163.9471)" class="st2 st7">28</text>
	<text transform="matrix(1 0 0 1 352.6119 163.9471)" class="st2 st7">29</text>
	<text transform="matrix(1 0 0 1 269.8758 175.3773)" class="st4 st7">30</text>
	<text transform="matrix(1 0 0 1 284.7151 175.3774)" class="st4 st7">31</text>
	<text transform="matrix(1 0 0 1 50.1805 216.9454)" class="st4 st7">ПН</text>
	<text transform="matrix(1 0 0 1 64.3689 216.9455)" class="st4 st7">ВТ</text>
	<text transform="matrix(1 0 0 1 78.0292 216.9453)" class="st4 st7">СР</text>
	<text transform="matrix(1 0 0 1 91.9865 216.9451)" class="st4 st7">ЧТ</text>
	<text transform="matrix(1 0 0 1 105.5902 216.9455)" class="st4 st7">ПТ</text>
	<text transform="matrix(1 0 0 1 119.2622 217.015)" class="st2 st7">СБ</text>
	<text transform="matrix(1 0 0 1 132.9855 217.015)" class="st2 st7">ВС</text>
	<g>
		<text transform="matrix(1 0 0 1 91.8554 274.4442)" class="st4 st7">30</text>
	</g>
	<g>
		<text transform="matrix(1 0 0 1 81.11 228.4452)" class="st4 st7">1</text>
	</g>
	<g>
		<text transform="matrix(1 0 0 1 94.1551 228.445)" class="st4 st7">2</text>
	</g>
	<g>
		<text transform="matrix(1 0 0 1 107.8819 228.4453)" class="st4 st7">3</text>
	</g>
	<text transform="matrix(1 0 0 1 121.4221 228.5149)" class="st2 st7">4</text>
	<text transform="matrix(1 0 0 1 135.3671 228.5149)" class="st2 st7">5</text>
	<g>
		<text transform="matrix(1 0 0 1 52.7061 239.9451)" class="st4 st7">6</text>
	</g>
	<g>
		<text transform="matrix(1 0 0 1 66.6274 239.9453)" class="st4 st7">7</text>
	</g>
	<g>
		<text transform="matrix(1 0 0 1 80.2935 239.9451)" class="st4 st7">8</text>
	</g>
	<g>
		<text transform="matrix(1 0 0 1 94.011 239.9449)" class="st4 st7">9</text>
	</g>
	<g>
		<text transform="matrix(1 0 0 1 106.565 239.9452)" class="st4 st7">10</text>
	</g>
	<text transform="matrix(1 0 0 1 121.0202 240.0148)" class="st2 st7">11</text>
	<text transform="matrix(1 0 0 1 134.182 240.0148)" class="st2 st7">12</text>
	<text transform="matrix(1 0 0 1 51.7969 251.445)" class="st4 st7">13</text>
	<text transform="matrix(1 0 0 1 65.3916 251.4451)" class="st4 st7">14</text>
	<text transform="matrix(1 0 0 1 79.3365 251.4449)" class="st4 st7">15</text>
	<text transform="matrix(1 0 0 1 92.9998 251.4447)" class="st4 st7">16</text>
	<text transform="matrix(1 0 0 1 106.9219 251.4451)" class="st4 st7">17</text>
	<text transform="matrix(1 0 0 1 120.3962 251.5146)" class="st2 st7">18</text>
	<text transform="matrix(1 0 0 1 134.0682 251.5146)" class="st2 st7">19</text>
	<text transform="matrix(1 0 0 1 50.7681 262.9449)" class="st4 st7">20</text>
	<text transform="matrix(1 0 0 1 65.6074 262.945)" class="st4 st7">21</text>
	<text transform="matrix(1 0 0 1 78.6529 262.9448)" class="st4 st7">22</text>
	<text transform="matrix(1 0 0 1 92.3792 262.9446)" class="st4 st7">23</text>
	<text transform="matrix(1 0 0 1 105.9736 262.9449)" class="st4 st7">24</text>
	<text transform="matrix(1 0 0 1 119.7902 263.0145)" class="st2 st7">25</text>
	<text transform="matrix(1 0 0 1 133.4623 263.0145)" class="st2 st7">26</text>
	<text transform="matrix(1 0 0 1 51.125 274.4447)" class="st4 st7">27</text>
	<text transform="matrix(1 0 0 1 64.7915 274.4449)" class="st4 st7">28</text>
	<text transform="matrix(1 0 0 1 78.5089 274.4447)" class="st4 st7">29</text>
	<text transform="matrix(1 0 0 1 159.7864 216.9452)" class="st4 st7">ПН</text>
	<text transform="matrix(1 0 0 1 173.9748 216.9453)" class="st4 st7">ВТ</text>
	<text transform="matrix(1 0 0 1 187.6351 216.9451)" class="st4 st7">СР</text>
	<text transform="matrix(1 0 0 1 201.5923 216.9449)" class="st4 st7">ЧТ</text>
	<text transform="matrix(1 0 0 1 215.196 216.9452)" class="st4 st7">ПТ</text>
	<text transform="matrix(1 0 0 1 228.8681 217.0148)" class="st2 st7">СБ</text>
	<text transform="matrix(1 0 0 1 242.5914 217.0148)" class="st2 st7">ВС</text>
	<g>
		<text transform="matrix(1 0 0 1 218.0605 228.4451)" class="st2 st7">1</text>
	</g>
	<text transform="matrix(1 0 0 1 231.2228 228.5147)" class="st2 st7">2</text>
	<text transform="matrix(1 0 0 1 245.0003 228.5147)" class="st2 st7">3</text>
	<g>
		<text transform="matrix(1 0 0 1 162.2397 239.9449)" class="st4 st7">4</text>
	</g>
	<text transform="matrix(1 0 0 1 176.1855 239.945)" class="st4 st7">5</text>
	<text transform="matrix(1 0 0 1 189.8486 239.9448)" class="st4 st7">6</text>
	<text transform="matrix(1 0 0 1 203.7697 239.9447)" class="st4 st7">7</text>
	<text transform="matrix(1 0 0 1 217.4365 239.945)" class="st4 st7">8</text>
	<text transform="matrix(1 0 0 1 231.109 240.0145)" class="st2 st7">9</text>
	<text transform="matrix(1 0 0 1 243.47 240.0145)" class="st2 st7">10</text>
	<g>
		<text transform="matrix(1 0 0 1 162.1679 251.4447)" class="st4 st7">11</text>
	</g>
	<text transform="matrix(1 0 0 1 175.2133 251.4449)" class="st4 st7">12</text>
	<text transform="matrix(1 0 0 1 188.9395 251.4447)" class="st4 st7">13</text>
	<text transform="matrix(1 0 0 1 202.5339 251.4445)" class="st4 st7">14</text>
	<text transform="matrix(1 0 0 1 216.4794 251.4448)" class="st4 st7">15</text>
	<text transform="matrix(1 0 0 1 229.9059 251.5144)" class="st2 st7">16</text>
	<text transform="matrix(1 0 0 1 243.8182 251.5144)" class="st2 st7">17</text>
	<text transform="matrix(1 0 0 1 161.352 262.9446)" class="st4 st7">18</text>
	<text transform="matrix(1 0 0 1 175.0692 262.9447)" class="st4 st7">19</text>
	<text transform="matrix(1 0 0 1 187.9106 262.9445)" class="st4 st7">20</text>
	<text transform="matrix(1 0 0 1 202.7497 262.9444)" class="st4 st7">21</text>
	<text transform="matrix(1 0 0 1 215.7958 262.9447)" class="st4 st7">22</text>
	<text transform="matrix(1 0 0 1 229.423 263.0143)" class="st2 st7">23</text>
	<text transform="matrix(1 0 0 1 242.9871 263.0143)" class="st2 st7">24</text>
	<text transform="matrix(1 0 0 1 160.683 274.4445)" class="st4 st7">25</text>
	<text transform="matrix(1 0 0 1 174.3466 274.4446)" class="st4 st7">26</text>
	<text transform="matrix(1 0 0 1 188.2676 274.4444)" class="st4 st7">27</text>
	<text transform="matrix(1 0 0 1 201.9338 274.4442)" class="st4 st7">28</text>
	<text transform="matrix(1 0 0 1 215.6518 274.4445)" class="st4 st7">29</text>
	<text transform="matrix(1 0 0 1 229.1051 274.5141)" class="st2 st7">30</text>
	<text transform="matrix(1 0 0 1 243.7976 274.5141)" class="st2 st7">31</text>
	<text transform="matrix(1 0 0 1 269.3934 216.9453)" class="st4 st7">ПН</text>
	<text transform="matrix(1 0 0 1 283.5818 216.9454)" class="st4 st7">ВТ</text>
	<text transform="matrix(1 0 0 1 297.2421 216.9452)" class="st4 st7">СР</text>
	<text transform="matrix(1 0 0 1 311.1993 216.945)" class="st4 st7">ЧТ</text>
	<text transform="matrix(1 0 0 1 324.803 216.9453)" class="st4 st7">ПТ</text>
	<text transform="matrix(1 0 0 1 338.4751 217.0149)" class="st2 st7">СБ</text>
	<text transform="matrix(1 0 0 1 352.1984 217.0149)" class="st2 st7">ВС</text>
	<g>
		<text transform="matrix(1 0 0 1 272.7861 228.4451)" class="st4 st7">1</text>
	</g>
	<g>
		<text transform="matrix(1 0 0 1 285.8315 228.4453)" class="st4 st7">2</text>
	</g>
	<text transform="matrix(1 0 0 1 299.5577 228.4451)" class="st4 st7">3</text>
	<text transform="matrix(1 0 0 1 313.1517 228.4449)" class="st4 st7">4</text>
	<text transform="matrix(1 0 0 1 327.0977 228.4452)" class="st4 st7">5</text>
	<text transform="matrix(1 0 0 1 340.716 228.5148)" class="st2 st7">6</text>
	<text transform="matrix(1 0 0 1 354.6283 228.5148)" class="st2 st7">7</text>
	<g>
		<text transform="matrix(1 0 0 1 271.9697 239.945)" class="st4 st7">8</text>
	</g>
	<g>
		<text transform="matrix(1 0 0 1 285.6875 239.9451)" class="st4 st7">9</text>
	</g>
	<text transform="matrix(1 0 0 1 298.2408 239.9449)" class="st4 st7">10</text>
	<text transform="matrix(1 0 0 1 313.0799 239.9447)" class="st4 st7">11</text>
	<g>
		<text transform="matrix(1 0 0 1 325.8584 239.9451)" class="st2 st7">12</text>
	</g>
	<text transform="matrix(1 0 0 1 339.6359 240.0146)" class="st2 st7">13</text>
	<text transform="matrix(1 0 0 1 353.2001 240.0146)" class="st2 st7">14</text>
	<text transform="matrix(1 0 0 1 271.0127 251.4449)" class="st4 st7">15</text>
	<text transform="matrix(1 0 0 1 284.6763 251.445)" class="st4 st7">16</text>
	<text transform="matrix(1 0 0 1 298.5977 251.4448)" class="st4 st7">17</text>
	<text transform="matrix(1 0 0 1 312.264 251.4446)" class="st4 st7">18</text>
	<text transform="matrix(1 0 0 1 325.9814 251.4449)" class="st4 st7">19</text>
	<text transform="matrix(1 0 0 1 338.7028 251.5145)" class="st2 st7">20</text>
	<text transform="matrix(1 0 0 1 353.3949 251.5145)" class="st2 st7">21</text>
	<text transform="matrix(1 0 0 1 270.3291 262.9447)" class="st4 st7">22</text>
	<text transform="matrix(1 0 0 1 284.0557 262.9449)" class="st4 st7">23</text>
	<text transform="matrix(1 0 0 1 297.6495 262.9447)" class="st4 st7">24</text>
	<text transform="matrix(1 0 0 1 311.595 262.9445)" class="st4 st7">25</text>
	<text transform="matrix(1 0 0 1 325.2588 262.9448)" class="st4 st7">26</text>
	<text transform="matrix(1 0 0 1 339.051 263.0144)" class="st2 st7">27</text>
	<text transform="matrix(1 0 0 1 352.7714 263.0144)" class="st2 st7">28</text>
	<text transform="matrix(1 0 0 1 270.1851 274.4446)" class="st4 st7">29</text>
	<text transform="matrix(1 0 0 1 283.7075 274.4447)" class="st4 st7">30</text>
	<text transform="matrix(1 0 0 1 49.9295 327.4704)" class="st4 st7">ПН</text>
	<text transform="matrix(1 0 0 1 64.118 327.4706)" class="st4 st7">ВТ</text>
	<text transform="matrix(1 0 0 1 77.7782 327.4704)" class="st4 st7">СР</text>
	<text transform="matrix(1 0 0 1 91.7355 327.4702)" class="st4 st7">ЧТ</text>
	<text transform="matrix(1 0 0 1 105.3392 327.4705)" class="st4 st7">ПТ</text>
	<text transform="matrix(1 0 0 1 119.0112 327.5401)" class="st2 st7">СБ</text>
	<text transform="matrix(1 0 0 1 132.7345 327.5401)" class="st2 st7">ВС</text>
	<g>
		<text transform="matrix(1 0 0 1 91.6044 384.9693)" class="st4 st7">30</text>
	</g>
	<g>
		<text transform="matrix(1 0 0 1 106.6202 385.0397)" class="st4 st7">31</text>
	</g>
	<g>
		<text transform="matrix(1 0 0 1 80.859 338.9702)" class="st4 st7">1</text>
	</g>
	<g>
		<text transform="matrix(1 0 0 1 93.9041 338.9701)" class="st4 st7">2</text>
	</g>
	<g>
		<text transform="matrix(1 0 0 1 107.6309 338.9704)" class="st4 st7">3</text>
	</g>
	<text transform="matrix(1 0 0 1 121.1711 339.0399)" class="st2 st7">4</text>
	<text transform="matrix(1 0 0 1 135.1161 339.0399)" class="st2 st7">5</text>
	<g>
		<text transform="matrix(1 0 0 1 52.4551 350.4702)" class="st4 st7">6</text>
	</g>
	<g>
		<text transform="matrix(1 0 0 1 66.3764 350.4703)" class="st4 st7">7</text>
	</g>
	<g>
		<text transform="matrix(1 0 0 1 80.0426 350.4701)" class="st4 st7">8</text>
	</g>
	<g>
		<text transform="matrix(1 0 0 1 93.7601 350.4699)" class="st4 st7">9</text>
	</g>
	<g>
		<text transform="matrix(1 0 0 1 106.314 350.4702)" class="st4 st7">10</text>
	</g>
	<text transform="matrix(1 0 0 1 120.7692 350.5398)" class="st2 st7">11</text>
	<text transform="matrix(1 0 0 1 133.931 350.5398)" class="st2 st7">12</text>
	<text transform="matrix(1 0 0 1 51.5459 361.97)" class="st4 st7">13</text>
	<text transform="matrix(1 0 0 1 65.1406 361.9702)" class="st4 st7">14</text>
	<text transform="matrix(1 0 0 1 79.0855 361.97)" class="st4 st7">15</text>
	<text transform="matrix(1 0 0 1 92.7488 361.9698)" class="st4 st7">16</text>
	<text transform="matrix(1 0 0 1 106.6709 361.9701)" class="st4 st7">17</text>
	<text transform="matrix(1 0 0 1 120.1452 362.0397)" class="st2 st7">18</text>
	<text transform="matrix(1 0 0 1 133.8172 362.0397)" class="st2 st7">19</text>
	<text transform="matrix(1 0 0 1 50.5171 373.4699)" class="st4 st7">20</text>
	<text transform="matrix(1 0 0 1 65.3564 373.47)" class="st4 st7">21</text>
	<text transform="matrix(1 0 0 1 78.4019 373.4698)" class="st4 st7">22</text>
	<text transform="matrix(1 0 0 1 92.1282 373.4697)" class="st4 st7">23</text>
	<text transform="matrix(1 0 0 1 105.7227 373.47)" class="st4 st7">24</text>
	<text transform="matrix(1 0 0 1 119.5392 373.5396)" class="st2 st7">25</text>
	<text transform="matrix(1 0 0 1 133.2113 373.5396)" class="st2 st7">26</text>
	<text transform="matrix(1 0 0 1 50.874 384.9698)" class="st4 st7">27</text>
	<text transform="matrix(1 0 0 1 64.5405 384.9699)" class="st4 st7">28</text>
	<text transform="matrix(1 0 0 1 78.2579 384.9697)" class="st4 st7">29</text>
	<text transform="matrix(1 0 0 1 159.6615 327.4702)" class="st4 st7">ПН</text>
	<text transform="matrix(1 0 0 1 173.85 327.4703)" class="st4 st7">ВТ</text>
	<text transform="matrix(1 0 0 1 187.5102 327.4701)" class="st4 st7">СР</text>
	<text transform="matrix(1 0 0 1 201.4675 327.4699)" class="st4 st7">ЧТ</text>
	<text transform="matrix(1 0 0 1 215.0712 327.4702)" class="st4 st7">ПТ</text>
	<text transform="matrix(1 0 0 1 228.7432 327.5398)" class="st2 st7">СБ</text>
	<text transform="matrix(1 0 0 1 242.4666 327.5398)" class="st2 st7">ВС</text>
	<text transform="matrix(1 0 0 1 231.7039 339.0396)" class="st2 st7">1</text>
	<text transform="matrix(1 0 0 1 244.8662 339.0396)" class="st2 st7">2</text>
	<text transform="matrix(1 0 0 1 162.2892 350.4699)" class="st4 st7">3</text>
	<text transform="matrix(1 0 0 1 175.8834 350.47)" class="st4 st7">4</text>
	<g>
		<text transform="matrix(1 0 0 1 189.8288 350.4698)" class="st4 st7">5</text>
	</g>
	<g>
		<text transform="matrix(1 0 0 1 203.4921 350.4696)" class="st4 st7">6</text>
	</g>
	<text transform="matrix(1 0 0 1 217.4136 350.47)" class="st4 st7">7</text>
	<text transform="matrix(1 0 0 1 231.0798 350.5396)" class="st2 st7">8</text>
	<text transform="matrix(1 0 0 1 244.7524 350.5396)" class="st2 st7">9</text>
	<text transform="matrix(1 0 0 1 160.9723 361.9698)" class="st4 st7">10</text>
	<text transform="matrix(1 0 0 1 175.8116 361.9699)" class="st4 st7">11</text>
	<g>
		<text transform="matrix(1 0 0 1 188.8566 361.9697)" class="st4 st7">12</text>
	</g>
	<g>
		<text transform="matrix(1 0 0 1 202.5829 361.9695)" class="st4 st7">13</text>
	</g>
	<text transform="matrix(1 0 0 1 216.1778 361.9698)" class="st4 st7">14</text>
	<text transform="matrix(1 0 0 1 229.8772 362.0394)" class="st2 st7">15</text>
	<text transform="matrix(1 0 0 1 243.5493 362.0394)" class="st2 st7">16</text>
	<text transform="matrix(1 0 0 1 161.3292 373.4696)" class="st4 st7">17</text>
	<text transform="matrix(1 0 0 1 174.9957 373.4697)" class="st4 st7">18</text>
	<g>
		<text transform="matrix(1 0 0 1 188.7126 373.4695)" class="st4 st7">19</text>
	</g>
	<g>
		<text transform="matrix(1 0 0 1 201.5541 373.4694)" class="st4 st7">20</text>
	</g>
	<text transform="matrix(1 0 0 1 216.3936 373.4697)" class="st4 st7">21</text>
	<text transform="matrix(1 0 0 1 229.2888 373.5392)" class="st2 st7">22</text>
	<text transform="matrix(1 0 0 1 243.0664 373.5392)" class="st2 st7">23</text>
	<text transform="matrix(1 0 0 1 160.381 384.9695)" class="st4 st7">24</text>
	<text transform="matrix(1 0 0 1 174.3267 384.9696)" class="st4 st7">25</text>
	<text transform="matrix(1 0 0 1 187.9899 384.9694)" class="st4 st7">26</text>
	<text transform="matrix(1 0 0 1 201.911 384.9692)" class="st4 st7">27</text>
	<text transform="matrix(1 0 0 1 215.5777 384.9695)" class="st4 st7">28</text>
	<text transform="matrix(1 0 0 1 229.1751 385.0391)" class="st2 st7">29</text>
	<text transform="matrix(1 0 0 1 242.7485 385.0391)" class="st2 st7">30</text>
	<text transform="matrix(1 0 0 1 161.3395 396.4693)" class="st4 st7">31</text>
	<text transform="matrix(1 0 0 1 269.2676 327.4715)" class="st4 st7">ПН</text>
	<text transform="matrix(1 0 0 1 283.4561 327.4716)" class="st4 st7">ВТ</text>
	<text transform="matrix(1 0 0 1 297.1163 327.4714)" class="st4 st7">СР</text>
	<text transform="matrix(1 0 0 1 311.0736 327.4712)" class="st4 st7">ЧТ</text>
	<text transform="matrix(1 0 0 1 324.6773 327.4715)" class="st4 st7">ПТ</text>
	<text transform="matrix(1 0 0 1 338.3493 327.5411)" class="st2 st7">СБ</text>
	<text transform="matrix(1 0 0 1 352.0726 327.5411)" class="st2 st7">ВС</text>
	<g>
		<text transform="matrix(1 0 0 1 286.4289 338.9715)" class="st4 st7">1</text>
	</g>
	<g>
		<text transform="matrix(1 0 0 1 299.4739 338.9713)" class="st4 st7">2</text>
	</g>
	<g>
		<text transform="matrix(1 0 0 1 313.2002 338.9711)" class="st4 st7">3</text>
	</g>
	<g>
		<text transform="matrix(1 0 0 1 326.7947 338.9714)" class="st4 st7">4</text>
	</g>
	<text transform="matrix(1 0 0 1 340.6859 339.041)" class="st2 st7">5</text>
	<text transform="matrix(1 0 0 1 354.3585 339.041)" class="st2 st7">6</text>
	<g>
		<text transform="matrix(1 0 0 1 271.946 350.4712)" class="st4 st7">7</text>
	</g>
	<g>
		<text transform="matrix(1 0 0 1 285.6125 350.4713)" class="st4 st7">8</text>
	</g>
	<g>
		<text transform="matrix(1 0 0 1 299.3299 350.4711)" class="st4 st7">9</text>
	</g>
	<g>
		<text transform="matrix(1 0 0 1 311.8833 350.4709)" class="st4 st7">10</text>
	</g>
	<g>
		<text transform="matrix(1 0 0 1 326.7229 350.4713)" class="st4 st7">11</text>
	</g>
	<text transform="matrix(1 0 0 1 339.5009 350.5408)" class="st2 st7">12</text>
	<text transform="matrix(1 0 0 1 353.2784 350.5408)" class="st2 st7">13</text>
	<text transform="matrix(1 0 0 1 270.7102 361.9711)" class="st4 st7">14</text>
	<text transform="matrix(1 0 0 1 284.6555 361.9712)" class="st4 st7">15</text>
	<text transform="matrix(1 0 0 1 298.3187 361.971)" class="st4 st7">16</text>
	<text transform="matrix(1 0 0 1 312.2403 361.9708)" class="st4 st7">17</text>
	<text transform="matrix(1 0 0 1 325.907 361.9711)" class="st4 st7">18</text>
	<text transform="matrix(1 0 0 1 339.3871 362.0407)" class="st2 st7">19</text>
	<text transform="matrix(1 0 0 1 352.3453 362.0407)" class="st2 st7">20</text>
	<text transform="matrix(1 0 0 1 270.926 373.4709)" class="st4 st7">21</text>
	<text transform="matrix(1 0 0 1 283.9719 373.4711)" class="st4 st7">22</text>
	<text transform="matrix(1 0 0 1 297.6981 373.4709)" class="st4 st7">23</text>
	<text transform="matrix(1 0 0 1 311.292 373.4707)" class="st4 st7">24</text>
	<text transform="matrix(1 0 0 1 325.238 373.471)" class="st4 st7">25</text>
	<text transform="matrix(1 0 0 1 338.7811 373.5406)" class="st2 st7">26</text>
	<text transform="matrix(1 0 0 1 352.6934 373.5406)" class="st2 st7">27</text>
	<text transform="matrix(1 0 0 1 270.1101 384.9708)" class="st4 st7">28</text>
	<text transform="matrix(1 0 0 1 283.8278 384.9709)" class="st4 st7">29</text>
	<text transform="matrix(1 0 0 1 297.3499 384.9707)" class="st4 st7">30</text>
	<text transform="matrix(1 0 0 1 50.1181 438.0321)" class="st4 st7">ПН</text>
	<text transform="matrix(1 0 0 1 64.3065 438.0322)" class="st4 st7">ВТ</text>
	<text transform="matrix(1 0 0 1 77.9668 438.032)" class="st4 st7">СР</text>
	<text transform="matrix(1 0 0 1 91.924 438.0319)" class="st4 st7">ЧТ</text>
	<text transform="matrix(1 0 0 1 105.5277 438.0322)" class="st4 st7">ПТ</text>
	<text transform="matrix(1 0 0 1 119.1998 438.1017)" class="st2 st7">СБ</text>
	<text transform="matrix(1 0 0 1 132.9231 438.1017)" class="st2 st7">ВС</text>
	<text transform="matrix(1 0 0 1 94.8158 449.5317)" class="st4 st7">1</text>
	<text transform="matrix(1 0 0 1 107.8614 449.532)" class="st4 st7">2</text>
	<text transform="matrix(1 0 0 1 121.5637 449.6016)" class="st2 st7">3</text>
	<text transform="matrix(1 0 0 1 135.1279 449.6016)" class="st2 st7">4</text>
	<text transform="matrix(1 0 0 1 52.7486 461.0319)" class="st4 st7">5</text>
	<text transform="matrix(1 0 0 1 66.4122 461.032)" class="st4 st7">6</text>
	<text transform="matrix(1 0 0 1 80.3332 461.0317)" class="st4 st7">7</text>
	<text transform="matrix(1 0 0 1 93.9994 461.0316)" class="st4 st7">8</text>
	<text transform="matrix(1 0 0 1 107.7173 461.0319)" class="st4 st7">9</text>
	<text transform="matrix(1 0 0 1 120.0334 461.1015)" class="st2 st7">10</text>
	<text transform="matrix(1 0 0 1 134.726 461.1015)" class="st2 st7">11</text>
	<g>
		<text transform="matrix(1 0 0 1 51.7765 472.5317)" class="st4 st7">12</text>
	</g>
	<text transform="matrix(1 0 0 1 65.503 472.5318)" class="st4 st7">13</text>
	<text transform="matrix(1 0 0 1 79.0973 472.5316)" class="st4 st7">14</text>
	<text transform="matrix(1 0 0 1 93.0424 472.5314)" class="st4 st7">15</text>
	<text transform="matrix(1 0 0 1 106.7061 472.5317)" class="st4 st7">16</text>
	<text transform="matrix(1 0 0 1 120.3816 472.6013)" class="st2 st7">17</text>
	<text transform="matrix(1 0 0 1 134.102 472.6013)" class="st2 st7">18</text>
	<text transform="matrix(1 0 0 1 51.6324 484.0316)" class="st4 st7">19</text>
	<text transform="matrix(1 0 0 1 64.4742 484.0317)" class="st4 st7">20</text>
	<text transform="matrix(1 0 0 1 79.3131 484.0315)" class="st4 st7">21</text>
	<text transform="matrix(1 0 0 1 92.3588 484.0313)" class="st4 st7">22</text>
	<text transform="matrix(1 0 0 1 106.0855 484.0316)" class="st4 st7">23</text>
	<text transform="matrix(1 0 0 1 119.5505 484.1012)" class="st2 st7">24</text>
	<text transform="matrix(1 0 0 1 133.4961 484.1012)" class="st2 st7">25</text>
	<text transform="matrix(1 0 0 1 50.9098 495.5314)" class="st4 st7">26</text>
	<text transform="matrix(1 0 0 1 64.8311 495.5315)" class="st4 st7">27</text>
	<text transform="matrix(1 0 0 1 78.4972 495.5313)" class="st4 st7">28</text>
	<text transform="matrix(1 0 0 1 92.2147 495.5311)" class="st4 st7">29</text>
	<text transform="matrix(1 0 0 1 105.7374 495.5315)" class="st4 st7">30</text>
	<g>
		<text transform="matrix(1 0 0 1 120.3602 495.5313)" class="st2 st7">31</text>
	</g>
	<text transform="matrix(1 0 0 1 159.7245 438.0315)" class="st4 st7">ПН</text>
	<text transform="matrix(1 0 0 1 173.913 438.0316)" class="st4 st7">ВТ</text>
	<text transform="matrix(1 0 0 1 187.5732 438.0315)" class="st4 st7">СР</text>
	<text transform="matrix(1 0 0 1 201.5305 438.0313)" class="st4 st7">ЧТ</text>
	<text transform="matrix(1 0 0 1 215.1342 438.0316)" class="st4 st7">ПТ</text>
	<text transform="matrix(1 0 0 1 228.8062 438.1012)" class="st2 st7">СБ</text>
	<text transform="matrix(1 0 0 1 242.5296 438.1012)" class="st2 st7">ВС</text>
	<text transform="matrix(1 0 0 1 245.5351 449.601)" class="st2 st7">1</text>
	<text transform="matrix(1 0 0 1 162.3942 461.0312)" class="st4 st7">2</text>
	<text transform="matrix(1 0 0 1 176.1207 461.0313)" class="st4 st7">3</text>
	<g>
		<text transform="matrix(1 0 0 1 189.6609 461.0312)" class="st2 st7">4</text>
	</g>
	<text transform="matrix(1 0 0 1 203.6601 461.031)" class="st4 st7">5</text>
	<text transform="matrix(1 0 0 1 217.3239 461.0313)" class="st4 st7">6</text>
	<text transform="matrix(1 0 0 1 231.1912 461.1009)" class="st2 st7">7</text>
	<text transform="matrix(1 0 0 1 244.9111 461.1009)" class="st2 st7">8</text>
	<text transform="matrix(1 0 0 1 162.2502 472.5311)" class="st4 st7">9</text>
	<text transform="matrix(1 0 0 1 174.8038 472.5312)" class="st4 st7">10</text>
	<text transform="matrix(1 0 0 1 189.6428 472.531)" class="st4 st7">11</text>
	<text transform="matrix(1 0 0 1 202.6879 472.5309)" class="st4 st7">12</text>
	<text transform="matrix(1 0 0 1 216.4147 472.5312)" class="st4 st7">13</text>
	<text transform="matrix(1 0 0 1 229.763 472.6007)" class="st2 st7">14</text>
	<text transform="matrix(1 0 0 1 243.7085 472.6007)" class="st2 st7">15</text>
	<text transform="matrix(1 0 0 1 161.2389 484.031)" class="st4 st7">16</text>
	<text transform="matrix(1 0 0 1 175.1607 484.0311)" class="st4 st7">17</text>
	<text transform="matrix(1 0 0 1 188.8269 484.0309)" class="st4 st7">18</text>
	<text transform="matrix(1 0 0 1 202.5439 484.0307)" class="st4 st7">19</text>
	<text transform="matrix(1 0 0 1 215.3859 484.031)" class="st4 st7">20</text>
	<text transform="matrix(1 0 0 1 229.9578 484.1006)" class="st2 st7">21</text>
	<text transform="matrix(1 0 0 1 243.1201 484.1006)" class="st2 st7">22</text>
	<text transform="matrix(1 0 0 1 160.6183 495.5308)" class="st4 st7">23</text>
	<text transform="matrix(1 0 0 1 174.2125 495.5309)" class="st4 st7">24</text>
	<text transform="matrix(1 0 0 1 188.1579 495.5308)" class="st4 st7">25</text>
	<text transform="matrix(1 0 0 1 201.8212 495.5306)" class="st4 st7">26</text>
	<text transform="matrix(1 0 0 1 215.7428 495.5309)" class="st4 st7">27</text>
	<text transform="matrix(1 0 0 1 229.3343 495.6005)" class="st2 st7">28</text>
	<text transform="matrix(1 0 0 1 243.0063 495.6005)" class="st2 st7">29</text>
	<text transform="matrix(1 0 0 1 160.2702 507.0307)" class="st4 st7">30</text>
	<text transform="matrix(1 0 0 1 269.205 438.0314)" class="st4 st7">ПН</text>
	<text transform="matrix(1 0 0 1 283.3935 438.0315)" class="st4 st7">ВТ</text>
	<text transform="matrix(1 0 0 1 297.0537 438.0313)" class="st4 st7">СР</text>
	<text transform="matrix(1 0 0 1 311.011 438.0311)" class="st4 st7">ЧТ</text>
	<text transform="matrix(1 0 0 1 324.6147 438.0314)" class="st4 st7">ПТ</text>
	<text transform="matrix(1 0 0 1 338.2867 438.101)" class="st2 st7">СБ</text>
	<text transform="matrix(1 0 0 1 352.01 438.101)" class="st2 st7">ВС</text>
	<g>
		<text transform="matrix(1 0 0 1 286.3663 449.5313)" class="st4 st7">1</text>
	</g>
	<g>
		<text transform="matrix(1 0 0 1 299.4113 449.5311)" class="st4 st7">2</text>
	</g>
	<g>
		<text transform="matrix(1 0 0 1 313.1376 449.5309)" class="st4 st7">3</text>
	</g>
	<g>
		<text transform="matrix(1 0 0 1 326.7321 449.5312)" class="st4 st7">4</text>
	</g>
	<text transform="matrix(1 0 0 1 340.6233 449.6008)" class="st2 st7">5</text>
	<text transform="matrix(1 0 0 1 354.2959 449.6008)" class="st2 st7">6</text>
	<g>
		<text transform="matrix(1 0 0 1 271.8835 461.0311)" class="st4 st7">7</text>
	</g>
	<g>
		<text transform="matrix(1 0 0 1 285.5499 461.0312)" class="st4 st7">8</text>
	</g>
	<g>
		<text transform="matrix(1 0 0 1 299.2673 461.031)" class="st4 st7">9</text>
	</g>
	<g>
		<text transform="matrix(1 0 0 1 311.8207 461.0308)" class="st4 st7">10</text>
	</g>
	<g>
		<text transform="matrix(1 0 0 1 326.6603 461.0311)" class="st4 st7">11</text>
	</g>
	<text transform="matrix(1 0 0 1 339.4383 461.1007)" class="st2 st7">12</text>
	<text transform="matrix(1 0 0 1 353.2158 461.1007)" class="st2 st7">13</text>
	<text transform="matrix(1 0 0 1 270.6476 472.5309)" class="st4 st7">14</text>
	<text transform="matrix(1 0 0 1 284.5929 472.5311)" class="st4 st7">15</text>
	<text transform="matrix(1 0 0 1 298.256 472.5309)" class="st4 st7">16</text>
	<text transform="matrix(1 0 0 1 312.1777 472.5307)" class="st4 st7">17</text>
	<text transform="matrix(1 0 0 1 325.8444 472.531)" class="st4 st7">18</text>
	<text transform="matrix(1 0 0 1 339.3245 472.6006)" class="st2 st7">19</text>
	<text transform="matrix(1 0 0 1 352.2827 472.6006)" class="st2 st7">20</text>
	<text transform="matrix(1 0 0 1 270.8634 484.0308)" class="st4 st7">21</text>
	<text transform="matrix(1 0 0 1 283.9093 484.0309)" class="st4 st7">22</text>
	<text transform="matrix(1 0 0 1 297.6354 484.0308)" class="st4 st7">23</text>
	<text transform="matrix(1 0 0 1 311.2294 484.0306)" class="st4 st7">24</text>
	<text transform="matrix(1 0 0 1 325.1754 484.0309)" class="st4 st7">25</text>
	<text transform="matrix(1 0 0 1 338.7185 484.1005)" class="st2 st7">26</text>
	<text transform="matrix(1 0 0 1 352.6308 484.1005)" class="st2 st7">27</text>
	<text transform="matrix(1 0 0 1 270.0475 495.5307)" class="st4 st7">28</text>
	<text transform="matrix(1 0 0 1 283.7653 495.5308)" class="st4 st7">29</text>
	<text transform="matrix(1 0 0 1 297.2873 495.5306)" class="st4 st7">30</text>
	<text transform="matrix(1 0 0 1 312.1264 495.5305)" class="st4 st7">31</text>
</g>
<g id="Слой_3">
	<rect x="296.2" y="343.6" class="st6" width="10.1" height="10.1"/>
	<rect x="186.8" y="465.5" class="st6" width="10.1" height="10.1"/>
	<rect x="159.1" y="488.6" class="st6" width="10.1" height="10.1"/>
</g>
</svg>
