<?xml version="1.0" encoding="utf-8"?>
<!-- Generator: Adobe Illustrator 22.1.0, SVG Export Plug-In . SVG Version: 6.00 Build 0)  -->
<svg version="1.1" id="Layer_1" xmlns="http://www.w3.org/2000/svg" xmlns:xlink="http://www.w3.org/1999/xlink" x="0px" y="0px"
	 viewBox="0 0 420.9 595.3" style="enable-background:new 0 0 420.9 595.3;" xml:space="preserve">
<style type="text/css">
	.st0{font-family:'GothamPro-Light';}
	.st1{font-size:21px;}
	.st2{font-family:'GothamPro';}
	.st3{font-size:7.3px;}
	.st4{fill:none;stroke:#000000;stroke-miterlimit:10;}
	.st5{font-size:10px;}
	.st6{font-size:9px;}
	.st7{fill:none;stroke:#000000;stroke-linecap:round;stroke-miterlimit:10;}
	.st8{fill:none;stroke:#000000;stroke-width:0.5;stroke-miterlimit:10;}
	.st9{stroke:#000000;stroke-width:0.5;stroke-linejoin:bevel;stroke-miterlimit:10;}
	.st10{stroke:#000000;stroke-miterlimit:10;}
	.st11{fill:none;stroke:#000000;stroke-width:0.75;stroke-miterlimit:10;}
	.st12{stroke:#000000;stroke-width:0.5;stroke-miterlimit:10;}
</style>
<text transform="matrix(1 0 0 1 82.9873 58.6929)" class="st0 st1">ВАЖНЫЕ СОБЫТИЯ 2019</text>
<text transform="matrix(1 0 0 1 170.0791 226.5927)" class="st2 st3">London Men&apos;s Fashion Week - 5-7 января</text>
<text transform="matrix(1 0 0 1 170.0791 237.9313)" class="st2 st3">London Fashion Week Fall 2019 - 15-19 февраля</text>
<text transform="matrix(1 0 0 1 170.079 311.9905)" class="st2 st3">The Met Gala - 6 мая</text>
<text transform="matrix(1 0 0 1 170.0788 300.6513)" class="st2 st3">New York Fashion Week Fall 2019 - 7-13 февраля</text>
<text transform="matrix(1 0 0 1 170.0789 289.3133)" class="st2 st3">New York Men&apos;s Fashion Week - 4-6 февраля</text>
<g>
	<text transform="matrix(1 0 0 1 170.0786 351.4962)" class="st2 st3">Milan Men&apos;s Fashion Week - 11-14 января</text>
	<text transform="matrix(1 0 0 1 170.0785 385.5123)" class="st2 st3">Milan Fashion Week Spring 2020 - 17-23 сентября </text>
	<text transform="matrix(1 0 0 1 170.0785 374.1734)" class="st2 st3">Milan Men&apos;s Fashion Week - 14-17 июня</text>
	<text transform="matrix(1 0 0 1 170.0785 362.8349)" class="st2 st3">Milan Fashion Week Fall 2019 - 19-25 февраля</text>
</g>
<g>
	<text transform="matrix(1 0 0 1 170.079 515.9056)" class="st2 st3">Pitti Uomo - 8-11 января</text>
	<text transform="matrix(1 0 0 1 170.079 527.2446)" class="st2 st3">Pitti Uomo - 11-14 июля</text>
</g>
<text transform="matrix(1 0 0 1 170.079 96.378)" class="st2 st3">Paris Men&apos;s Fashion Week - 15-20 января</text>
<text transform="matrix(1 0 0 1 170.079 107.7164)" class="st2 st3">Paris Haute Couture Fashion Week - 21-24 января</text>
<text transform="matrix(1 0 0 1 170.0791 130.3936)" class="st2 st3">Paris Fashion Week Fall 2019 - 25 февраля - 5 марта </text>
<text transform="matrix(1 0 0 1 170.0791 141.7327)" class="st2 st3">Paris Men&apos;s Fashion Week - 18-23 июня</text>
<text transform="matrix(1 0 0 1 170.0794 164.4095)" class="st2 st3">Paris Fashion Week Spring 2020 - 23 сентября - 1 октября</text>
<text transform="matrix(1 0 0 1 170.0791 153.0713)" class="st2 st3">Paris Haute Couture Fashion Week - 30 июня - 4 июля</text>
<text transform="matrix(1 0 0 1 170.0789 119.0552)" class="st2 st3">Premiere Vision - 12-14 января</text>
<text transform="matrix(1 0 0 1 170.0785 470.552)" class="st2 st3">Collection Premiere Moscow (CPM) - 3-6 сентября</text>
<text transform="matrix(1 0 0 1 170.0788 459.2131)" class="st2 st3">Collection Premiere Moscow (CPM) - 25-28 февраля</text>
<g>
	<text transform="matrix(1 0 0 1 75.8499 323.329)" class="st2 st5">NEW YORK</text>
	<g>
		<g>
			<path d="M72.7,306.2c0,0,1.9-10.3,1.5-10.9c-0.4-0.6,0-1.6,0-2.1c0-0.3,0.1-0.9,0-1.1c-0.1-0.2-0.6-0.3-0.7-0.5
				c-0.2-0.7,0.8-2.1,0.7-2.9c0-0.5-0.7-1.3-0.7-1.8c0-0.3,0.3-0.8,0.2-1.1c-0.1-0.2-0.4-0.4-0.5-0.6c0-0.1,0.2-0.5,0-0.6
				c-0.2-0.1-0.9,0-0.6-1.7c0.2-1,0.2-0.5,0.7-1.5c0.3-0.5-0.2-0.9-0.2-1.5c-0.2-1.2,0.1-3.5-0.1-4.1c0-0.1-0.2-0.2-0.3-0.3
				c0-0.1,0.1-0.3,0.1-0.4c0-0.3-0.3-0.2-0.4-0.5c-0.1-0.3,0.2-0.6,0.2-0.9c0-0.1-0.2-0.8-0.2-0.9c-0.1-0.2-0.4-0.3-0.4-0.5
				c0-0.1,0.2-0.3,0.2-0.4c0-0.1,0-0.4,0-0.4s0.4,0,0.5-0.1c0.2-0.3-0.4-0.9-0.4-1.3c0-0.3,0.1-0.8,0.3-1.3c0.4-0.8,0.5-1.7,0.5-1.7
				s0.3,1,0.4,1.9c0.1,0.6-0.2,1.1,0.1,1.1c0.3,0,0.1-1.8,0.1-1.8s0.3,0.8,0.6,1.4c0.4,0.6-0.6,1.3-0.4,1.7c0.1,0.1,0.5,0.1,0.5,0.1
				s0,0.2,0,0.4c0,0.2,0.2,0.4,0.2,0.4c0,0.2-0.5,0.4-0.6,0.6c-0.1,0.1-0.2,0.6-0.2,0.7c0.1,0.3,0.3,0.2,0.5,0.8
				c0.2,0.6,0.2,1,0.1,1.1c-0.2,0.3-0.3,0.5-0.3,0.7c0.1,0.6,0.2,1.2,0.3,1.6c0.2,0.7,0.4,1.3,0.3,2.5c0,1.2,0.2,2.7,1,2.6
				c0.5,0,0.5-1.2,0.4-1.3c-0.1-0.6-1.4-0.3-1.4-0.3s1.1-0.2,1.3-0.4c0.1-0.1,0.1-0.3,0-0.3c-0.2-0.3-1.4-0.6-1.4-0.6
				s1.2,0.5,1.5,0.4c0.1,0,0.4-0.3,0.4-0.4c0-0.5-1.4-1.4-1.4-1.4s1.2,1.1,1.7,1.2c0.1,0,0.4,0.1,0.5,0c0.5-0.4,0.2-2.5,0.2-2.5
				s-0.2,2,0.2,2.5c0.1,0.1,0.5,0.2,0.7,0.2c0.7-0.2,1.9-1.6,1.9-1.6s-1.5,1.1-1.5,1.8c0,0.1,0.2,0.2,0.2,0.3
				c0.7,0.2,2.4-0.5,2.4-0.5s-1.9,0.2-2.3,0.8c0,0.1,0,0.3,0.1,0.3c0.5,0.4,2.2,0.3,2.2,0.3s-1.7-0.3-2.3,0.1
				c-0.1,0.1-0.2,0.3-0.2,0.4c0,0.1,0.1,0.2,0.1,0.3c0,0.1-0.2,0.3-0.2,0.4c0,0.1,0.1,0.3,0.1,0.4c0,0.1,0,0.3,0,0.4
				c0,0.1-0.1,0.4-0.1,0.6c0,0.1,0.1,0.3,0.2,0.4c0.1,0.2,0.1,0.5,0.2,0.7c0.2,0.2,0.7,0.5,0.8,0.7c0.1,0.1,0.2,0.5,0.3,0.6
				c0.1,0.3,0.2,0.8,0.2,1.1c0,0.2,0.2,0.5,0.2,0.7c0,0.2,0.1,0.8,0.1,0.8l1-1.5l2.3,1.1c0,0-0.6,0.8-0.6,1.1c0,0.1,0.3,0.2,0.3,0.3
				c0,0.3-0.4,0.8-0.7,1.1c-0.1,0.1-0.3,0.5-0.5,0.5c-0.3,0.1-0.4-0.1-0.6,0c-0.2,0.1-0.2,1.7-0.4,1.9c-0.1,0.1-0.4,0-0.4,0.1
				c-0.1,1.3,0.6,2.3,0.3,3.6c0,0.1,0.4,2.2,0.4,2.6c-0.2,0.7-0.3,1-0.3,1.6c0,0.7,0.4,1.1,0.4,1.8c0,0.8-0.1,3.1,0.8,3.1
				C84.4,306.1,72.7,306.2,72.7,306.2z"/>
			<path d="M84.2,306.3H71.2c0,0-0.7,0.6,0,0C73.5,304.5,81.9,304.5,84.2,306.3C84.9,306.9,84.2,306.3,84.2,306.3z"/>
			<rect x="69.3" y="306.1" width="16.7" height="4.2"/>
			<rect x="70.4" y="307.2" width="14.8" height="0.9"/>
		</g>
		<rect x="100" y="294.1" width="6.3" height="16.1"/>
		<rect x="106.2" y="302.1" width="6" height="8.1"/>
		<rect x="115.2" y="307.8" width="8.1" height="2.4"/>
		<rect x="122.5" y="287.4" width="6" height="22"/>
		<rect x="125.5" y="294.1" width="6.4" height="16.1"/>
		<path d="M113.9,260.8l-0.6,6.7l-0.3,0.3v0.7l-0.2,0.1l0,2.9l-0.3,0.2l0,1l-0.3,0.2l-0.1,0.8l-0.3,0.2l-0.1,0.7l-0.4,0l0,0.4h-0.3
			v0.2h-0.2l0,1.3l-0.8,0l0,1.3l-0.3,0l0,2.5h-0.6v5.2l-0.3,0v23h-0.7l0-1.9h-0.6c0,0,0,0.1,0,3.5h6.3h6.3c0-3.4,0-3.5,0-3.5h-0.6
			l0,1.9H119v-23l-0.3,0v-5.2h-0.6l0-2.5l-0.3,0l0-1.3l-0.8,0l0-1.3h-0.2V275h-0.3l0-0.4l-0.4,0l-0.1-0.7l-0.3-0.2l-0.1-0.8
			l-0.3-0.2l0-1l-0.3-0.2l0-2.9l-0.2-0.1v-0.7l-0.3-0.3L113.9,260.8z"/>
		<g>
			<ellipse cx="68.5" cy="278.8" rx="0.3" ry="0.1"/>
			<ellipse cx="68.5" cy="278" rx="0.2" ry="0.1"/>
			<ellipse cx="68.5" cy="282.2" rx="0.6" ry="0.3"/>
			<ellipse cx="68.5" cy="281.2" rx="0.5" ry="0.2"/>
			<ellipse cx="68.5" cy="280.4" rx="0.4" ry="0.2"/>
			<ellipse cx="68.5" cy="279.6" rx="0.4" ry="0.2"/>
			<path d="M68.5,277.3l0.3,5.1c0,0,0.7,0.1,0.9,0.2c0.4,0.2,0.5,0.3,0.6,0.5h0.5c0,0,0-5.3,2.3,27.1h-4.6h-4.6
				c2.3-32.4,2.3-27.1,2.3-27.1h0.5c0.1-0.1,0.2-0.3,0.6-0.5c0.2-0.1,0.9-0.2,0.9-0.2L68.5,277.3z"/>
		</g>
		<rect x="94.6" y="306.2" width="3.8" height="3"/>
		<g>
			<rect x="86" y="290.7" width="6.1" height="19.5"/>
			<rect x="87.7" y="288.9" width="4.4" height="4.8"/>
			<polygon points="93.1,310.2 92.1,310.2 92.1,286.7 93.1,286.7 			"/>
			<rect x="93.1" y="290.7" width="2.1" height="19.5"/>
			<rect x="86.5" y="290.6" width="1.3" height="3.2"/>
			<rect x="92.6" y="290.4" width="1.6" height="3.9"/>
			<rect x="87.7" y="287.2" width="5.3" height="1.7"/>
			<rect x="88.7" y="286" width="3.4" height="1.1"/>
			<rect x="89.3" y="285.1" width="2.1" height="1"/>
		</g>
		<rect x="131.9" y="278.4" width="7.1" height="31.8"/>
		<rect x="59" y="293.5" width="5.7" height="16.7"/>
		<rect x="53.2" y="298.1" width="5.7" height="12"/>
		<rect x="51" y="303.9" width="2.8" height="6.2"/>
		<polygon points="144.3,310.2 139,310.2 139,291.2 144.3,293.1 		"/>
		<polygon points="149.1,310.2 142.3,310.2 142.3,287.5 147.4,283.7 149.1,283.7 		"/>
		<rect x="147.6" y="298.7" width="5.5" height="11.5"/>
		<polygon points="57.1,304.5 54.2,304.5 54.2,295.9 55.8,295.9 		"/>
		<g>
			<rect x="151.4" y="292.8" width="7.4" height="17.4"/>
			<rect x="151.9" y="291.3" width="6.3" height="1.5"/>
			<rect x="152.9" y="290.3" width="4.3" height="1"/>
			<polygon points="156.9,289.9 156.9,290.4 153.3,290.4 153.3,289.9 155.1,288.4 			"/>
		</g>
		<polygon points="101.7,310.2 97.4,310.2 97.4,288 101.7,283.2 		"/>
		<rect x="51" y="306.1" width="107.7" height="5.7"/>
	</g>
</g>
<text transform="matrix(1 0 0 1 75.7007 538.5833)" class="st2 st5">FLORENCE </text>
<g>
	<polyline points="60.6,524.7 51.7,524.7 51.6,517.6 51,516.4 51,515.8 51.4,515.8 53.2,505.9 55.1,515.8 55.4,515.8 55.4,516.4 
		55,517.4 55.2,524.6 55.5,524.6 55.5,523.3 56.1,523 56.1,522.5 57.6,522.5 57.6,523 59.3,523.4 59.3,524.2 60.9,524.2 	"/>
	<path d="M108.3,524.2l-0.1-20.6l-0.5-0.3v-1.7l3.4-0.8v-0.4l0.3-0.1l0.1-4.5l0.2,4.5l0.3,0.1l0,0.4l3.6,0.8v1.7l-0.4,0.2l0.2,9.7
		l2.4,0.5v2.1l12.4,0.1l0.2-4.1c0,0,0.2-4.8,3.8-9c1.1-1.3,5.3-4,5.3-4v-1.2l0.7-0.6l0.3-2.9l1.3-2.7l0-0.3c0,0-0.4-0.1-0.4-0.4
		c0-0.5,0.4-0.5,0.4-0.5l0.2-1.1l0.2,1.1c0,0,0.4,0.1,0.4,0.6c0,0.3-0.4,0.4-0.4,0.4l0,0.3l1.5,2.7l0.3,2.8l0.7,0.5l0.1,1.2
		c3.3,1.2,6.1,4,7.5,6.3c2.3,3.8,2.4,7,2.4,7l0.2,6.1c0,0,3.1,1.1,3.6,3.5c0.1,0.6,0.2,3,0.2,3H108"/>
	<path d="M52.6,524.7c0-1.2,0-0.1,0-0.1l-0.7-1.2v-5.5h5v1.1h0.8v-9.5l-0.8-1.5l-0.1-4.5h1.2v-1.8l-0.3-0.3l0-3.8l1.5-0.1l0.8-1.8
		c0,0-0.6-0.6-0.6-0.9c0-0.1,0.3-0.5,0.5-0.8c0.2-0.4,0.2-0.8,0.2-0.8s0.2,0.5,0.1,0.9c0,0.2,0.1,0.6,0.1,0.8c0,0.3,0,0.7,0,0.7
		l0.8,2l1.6,0l0,3.8l-0.2,0.3l0,1L63,503v0.6l0.6,0.1v4.5l-0.7,1.5l0.1,8.7h7.1v-2.5l1.2-5.2l1.3,5v2.3h1.6l2.4-1.1h4.7l2.7,1.1h3.4
		v1.2l-0.2,0.4l0.2,4.2v1H52.6z"/>
	<path d="M91.9,496.1l0,0.9l0.5,0.2v1.3l4.6,4.2l0-1.3l0.2-1.1l0.2,0.8l0.2-1.3l0.3,1.4l0.2-0.9l0.2,1.1v1.2l0.7,0.2l-0.3,0.9
		l0.4,6.8l2-2.3l0.2-0.9l0.2,0.9l2.2,2.4l0-1.5l0.2-1.3l0.2,1l0.4-1.8l0.3,1.8l0.2-1l0.2,1.4v1.4l0.3,0.3l0.7,7.3l0.3,4.3
		c0,0,0.1,1,0.1,2.2H91.9H77.1c0-1.3,0.1-2.2,0.1-2.2l0.3-4.3l0.7-7.3l0.3-0.3v-1.4l0.2-1.4l0.2,1l0.3-1.8l0.4,1.8l0.2-1l0.2,1.3
		l0,1.5l2.2-2.4l0.2-0.9l0.2,0.9l2,2.3l0.4-6.8l-0.3-0.9l0.7-0.2v-1.2l0.2-1.1l0.2,0.9l0.3-1.4l0.2,1.3l0.2-0.8l0.2,1.1l0,1.3
		l4.6-4.2v-1.3l0.5-0.2L91.9,496.1z"/>
	<rect x="102.8" y="519.5" width="9.1" height="5.3"/>
	<rect x="51" y="521.8" width="107.7" height="5.4"/>
</g>
<text transform="matrix(1 0 0 1 80.3704 481.8905)" class="st2 st5">MOSCOW</text>
<rect x="141.6" y="435.8" width="3.3" height="1.4"/>
<polygon points="151.8,439.8 147.3,439.8 146.7,435 151.8,433.6 "/>
<polygon points="151.1,433.8 146.7,435 148,432.4 151.1,432.8 "/>
<g>
	<path d="M51.9,469.2L51.9,469.2l-0.4-0.6l0.4-0.3v-3.1l1.3-0.6l0-1.4l-0.3-0.4l0.8-0.8v-5.9l-0.6-0.8L53,455h0.5
		c0,0-0.1-1.1,0.3-1.7c0.2-0.3,0.7-0.5,0.7-0.5l0-0.7l0.8-0.3l0-2.9l-0.3-0.5L55,448l0-0.3l-0.4-0.5v-0.6l-0.3-0.5l0.4-0.4l-0.2-0.6
		l0.5-0.3l-0.1-0.5l0.4-0.2l0-0.3l0.2,0l0.1-0.3l0.3,0l0-0.2l0.3-0.1l0-0.3l0.2-0.1l0-0.2l0.2-0.1l0-0.2l0.2-0.1l0-0.2l0.2,0l0-0.2
		l0.2,0l-0.1-0.2l0.2-0.1l-0.1-0.2l0.2-0.1l-0.1-0.1l0.3-0.2l0-1c0,0-0.1-0.2-0.1-0.4c0-0.2,0.3-0.4,0.3-0.4l0.1-2.8l0.1-0.6
		l0.1,0.6l0.1,2.8c0,0,0.2,0.2,0.3,0.4c0,0.2-0.1,0.4-0.1,0.4l0,1l0.3,0.2l-0.1,0.2l0.1,0.1l-0.1,0.1l0.2,0.1l-0.1,0.2l0.2,0l0,0.2
		l0.2,0l0,0.2l0.2,0v0.2h0.2v0.2l0.2,0.1l0,0.3l0.2,0l0.1,0.3l0.2,0l0.1,0.4l0.2,0l0.1,0.4l0.5,0.1l0,0.5l0.4,0.2l0,0.5l0.3,0.3
		l-0.3,0.6l0.4,0.3l-0.4,0.7l0.1,0.4l-0.4,0.5l0.1,0.1l-0.1,0.6l-0.3,0.4l0,1.6c0,0,0.7-0.5,0.9-1c0.3-0.5,0.9-1.8,0.9-1.8l0.1-0.7
		l0-0.8l0.1-2.5l0.2,2.4l0,0.8l0.1,0.7l0.6,1.3c0,0.1,0.1,0.1,0.2,0l0.2-2.3l0.9-1l0.6-5.5l0.4-0.5v-1L65,438l1.3-0.8l2.5-9.2
		l-0.2-0.3v-1l0.3-0.3l0-1.5c0,0-0.7-0.5-0.9-1.3c0-0.2,0-0.8,0.1-1.1c0.3-0.8,1.4-1.5,1.4-1.7c0.1-0.3,0.1-0.7,0.2-0.9
		c0.1-0.8,0.3-3.4,0.3-3.4s0.2,2.6,0.3,3.4c0,0.3,0.1,0.8,0.2,1c0.1,0.2,1.2,0.9,1.4,1.8c0.1,0.2,0,0.8,0,1
		c-0.1,0.8-0.8,1.2-0.8,1.2l0,1.4l0.2,0.3l0,1.1l-0.2,0.3l2.7,9.3l1.2,0.6l-0.7,1.1l0.1,1l0.5,0l0.1,1.3l0.1,1.6l0.3,1.6l0.1,0.9
		c1.4,0.7,2,1.8,2,2.6c0,0.8,0,1.7-0.9,2.5l-0.4,1.5v2.1l0.4,1l0.6-0.1l0.1,1.7l0.3,0l0,0.3l-0.6,0.6l0.2,1.9l0.5-0.7l0.7-0.7
		c0,0,0.4-0.5,0.4-0.5s0.1-3,0.1-3l-0.4-0.4c-0.4-0.4-0.6-0.9-0.6-1.5c0.1-0.9,2.1-2,2.4-3l0.4-4.2l0.4,4.2c0.3,1.1,2.5,2.2,2.5,3.1
		c0,0.5-0.2,1-0.4,1.3l0.3,0.1l0.4-0.7l0.2-2.3l-0.4-0.5l-0.2-0.8l-0.5-0.5l0-0.5c-1.1-0.5-1.4-2.2-1.3-2.9c0.3-1.6,2.4-2.5,2.7-2.9
		c0.5-0.6,1.2-2.8,1.2-2.8l0.5-6.5l0.6,6.4c0,0,1,2.4,1.6,3c0.2,0.2,2.5,1.6,2.7,2.8c0.2,0.9-0.1,2.3-1.1,2.7l-0.2,0.6l-0.5,0.4
		l-0.1,1l-0.3,0.5l0.3,3l0.7,0.4l0.2,1.6l0.3,0.7l-0.3,0.7l0.1,4.7l0.9,0.8l-0.6,0.6l0,1.4l1.2-0.2l0.4-4.6l0.4-0.3l3-12.7l0-1.9
		c0,0-0.2-0.5-0.1-0.7c0-0.2,0.4-0.8,0.4-0.8l0.3-2.5l0.2,2.5c0,0,0.4,0.6,0.4,0.8c0,0.2-0.2,0.7-0.2,0.7l0,1.9l2.8,12.8l0.5,0.2
		l0.5,8.9H51.9z"/>
	<path d="M97.6,461.6c2.3,0,2.7-0.2,2.7-0.2V451v-0.7v-2.1v-1.5l1-5.4l0.9,4.8l0.6-1.1v-3.3l0.6-5.5V435v-2.4v-3.8v-3.1l0.7,1.2
		l0.6-1.8l0.6,0.5l2.3-14.8l2.4,14.9l0.7-0.7l0.3,2.1l0.7-1.3v8.2v0.9v1.2l0.5,5.6v3.1l0.6,1.1c0,0,0.6,1.2,0.6,1
		c0.1-0.2,1.1-5.9,1.1-5.9l0.7,5.2v0.7l0.2,1.2v2.6l0.3,12.1h11.4v6.5H97.6V461.6z"/>
	<rect x="121.7" y="456.5" width="2.7" height="12.8"/>
	<rect x="126.2" y="428.1" width="7.3" height="41.2"/>
	<rect x="132.4" y="439.1" width="5.6" height="30.3"/>
	<rect x="137" y="446.5" width="9.7" height="22.8"/>
	<polygon points="145.9,448 140.5,448 140.5,438.3 145.4,438.3 145.9,439.6 	"/>
	<rect x="146.7" y="434.5" width="4.8" height="34.8"/>
	<path d="M158.7,469.3H150c0,0-1.4-2.9-0.9-18.1c0-0.6,0.3-2.9,0.5-4.3c0.1-0.7,0.1-1.6,0.6-1.7c0.3-0.1,0.5,0.6,0.5,0.6h6
		c0,0,0.1-0.4,0.4-0.5c0.6,0,0.7,1.6,0.7,1.6l0,1l0.5,0.1l0.1,0.4l0.4,0.1V469.3z"/>
	<polygon points="155.3,446.9 152.4,446.9 152.4,445.1 153.1,443 153.9,442.4 155,442.4 155.3,443 	"/>
	<polygon points="51,466.1 158.7,464.7 158.7,470.6 51,470.6 	"/>
</g>
<g>
	<text transform="matrix(1 0 0 1 91.8242 175.7481)" class="st2 st6">PARIS</text>
	<g>
		<g>
			<path d="M147.4,143.1l1.7,0v-6.3l0.3-0.1l-0.2-0.2v-0.3l0.3-0.2l0-0.4h0.3l0-0.5l4.5,0l0-0.7l0.2-0.3l0.6,0.9v0.4h0.3l0.3,0.3
				l-0.2,0.4l0.4,0.3l-0.2,0.4l0.1,0.2l0,0.3l0.3,0l0.2,0.2l0.1,0.7l-0.3,0.2l0.6,4.9l0.5,0l0.1,0.6l-0.2,0.3l0.2,1l-0.1,0.3
				l0.2,3.6l0.2,0.3l0.1,1.6l0.2,0l0.3,0.4L158,152c0,0,0.9,11.4,0.9,11.4l-11.6,0.1h-0.1l-11.7-0.1c0,0,0-0.1,0-0.1
				c1-11.3,1-11.3,1-11.3l-0.2-0.6l0.3-0.4l0.2,0l0.1-1.6l0.2-0.3l0.2-3.6l-0.1-0.3l0.2-1l-0.2-0.3l0.1-0.6l0.5,0l0.6-4.9l-0.3-0.2
				l0.1-0.7l0.2-0.2l0.3,0l0-0.3l0.1-0.2l-0.2-0.4l0.4-0.3l-0.2-0.4l0.3-0.3h0.3V135l0.6-0.9l0.2,0.3l0,0.7l4.5,0l0,0.5h0.3l0,0.4
				l0.3,0.2v0.3l-0.2,0.2l0.3,0.1v6.3l1.7,0H147.4z"/>
		</g>
		<g id="XMLID_1_">
			<g>
				<path d="M111.7,163.5l-4.5,0c-0.4-1.6-1-3.1-2.4-4.7c-1.3-1.6-3.5-2.2-5.8-2.2c-2.8,0-4.2,0.9-5.6,2.1c-1.5,1.3-2,3.4-2.5,4.7
					l-4.5,0c4.8-8.1,5.3-9,5.3-9l-0.2-1.2l0.1-1.2l1.4,0c0,0,1.1-3.2,1.4-4.2c0.3-1,1.1-4.2,1.1-4.2l-0.3-0.2l-0.2-1l0-0.4l1,0
					c0,0,0.9-7.4,1.1-9.9c0.3-3.7,0.9-14.7,0.9-14.7s0.1-0.9-0.3-1.4c-0.4-0.4-0.2-1.7-0.2-1.7l0.3-0.2l-0.1-0.5l0.3-0.1v-0.3
					l-0.2,0l0-0.3l0.1,0c0,0,0.1-0.4,0.3-0.5c0.1-0.1,0.4-0.2,0.4-0.2l-0.1-0.5l0.2-0.1l0-1.6l0.1-0.1l0.1-2.4h0.1l0.1,2.4l0.1,0.1
					l0,1.6l0.2,0.1l-0.1,0.5c0,0,0.3,0.1,0.4,0.2c0.2,0.2,0.3,0.5,0.3,0.5l0.1,0l0,0.3l-0.2,0v0.3l0.3,0.1l-0.1,0.5l0.3,0.2
					c0,0,0.2,1.2-0.2,1.7c-0.4,0.4-0.3,1.4-0.3,1.4s0.6,11,0.9,14.7c0.2,2.5,1.2,9.9,1.2,9.9l1,0l0,0.4l-0.2,1l-0.3,0.2
					c0,0,0.8,3.1,1.1,4.2c0.3,1.1,1.4,4.2,1.4,4.2l1.4,0l0.1,1.2l-0.2,1.2C106.4,154.5,106.9,155.4,111.7,163.5z M102.2,152.2
					l-1.3-7.1h-3.5l-1.2,7.1L102.2,152.2z M100.6,142.1l-0.9-9.1h-1.1l-0.9,9.1H100.6z"/>
			</g>
		</g>
		<g>
			<path d="M78.1,163.4l12.6,0c-0.4-8.9-1.6-10.8-2.7-11.3l0-1.2l-0.4-1.3l-0.1-1l-0.1,1l-0.4,1.3l0,1.2c0,0-1,0.2-1.5,1.5
				c-0.2,0.7-0.7,1.8-0.7,1.8l-0.7-5.2l-0.7-0.5l-0.1-0.8l-0.5-0.2l-0.1-1.1l-0.9-0.7c0,0-0.4-1.5-0.9-2.4c-0.7-1.3-2.4-2.8-2.4-2.8
				l-0.1-2.5c0,0,0-1-0.1-1.2c0-0.3-0.3-0.9-0.3-0.9l-0.2-1.1l0,0l-0.2,1.1c0,0-0.3,0.6-0.3,0.9c0,0.2-0.1,1.2-0.1,1.2l-0.1,2.5
				c0,0-1.7,1.4-2.4,2.8c-0.5,0.9-0.9,2.4-0.9,2.4l-0.8,0.8l-0.1,1.1l-0.5,0.2l-0.1,0.8l-0.7,0.5l-0.7,5.2c0,0-0.4-1.2-0.7-1.8
				c-0.4-1.3-1.5-1.5-1.5-1.5l0-1.2l-0.4-1.3l-0.1-1l-0.1,1l-0.4,1.3l0,1.2c-1.1,0.5-2.3,2.4-2.7,11.3l12.6,0L78.1,163.4z"/>
		</g>
		<g>
			<rect x="57.6" y="135.4" width="6.4" height="28.1"/>
		</g>
		<g>
			<rect x="54.7" y="149" width="4.2" height="14.4"/>
		</g>
		<g>
			<rect x="51.1" y="155.5" width="5.1" height="8"/>
		</g>
		<g>
			<rect x="62" y="154.3" width="4.5" height="9.1"/>
		</g>
		<g>
			<rect x="109.6" y="133.1" width="5.1" height="30.3"/>
		</g>
		<g>
			<rect x="118" y="133.1" width="5.1" height="30.3"/>
		</g>
		<g>
			<rect x="111.3" y="142.7" width="8.4" height="20.7"/>
		</g>
		<g>
			<path d="M130.1,152.4c2.2,0,2.9,2,2.9,3.2l0,7.8l4.8,0l0.1-15.6l-15.3,0v15.6h4.8v-7.8C127.4,154.3,128.1,152.4,130.1,152.4z"/>
		</g>
		<rect x="51.1" y="158.7" width="39.9" height="5.7"/>
		<rect x="107.2" y="158.7" width="20.1" height="5.7"/>
		<rect x="133" y="158.7" width="25.8" height="5.7"/>
	</g>
</g>
<g>
	<text transform="matrix(1 0 0 1 88.8239 396.8507)" class="st2 st5">MILAN</text>
	<g>
		<path d="M113.2,349l2.4,3.1v-2.9l0.4-2.6l0.6,2.7v1.3l0.7,0.9l0-2l0.4-2.7l0.6,2.8v5l2.8,3.6v-1.4l0.6-5.1l0.6,5.4l-0.1,1.9
			l2.9,3.2l0.1-2.8l0.5-2.8l0.3,2.8v0.3l0.4,0.4l0-0.7l0.5-2.3l0.3,2.4l0,1.2l0.7,0.8c0,0,0,6.7,0,20.5h-15h0h-15
			c0-13.8,0-20.5,0-20.5l0.7-0.8l0-1.2l0.3-2.4l0.5,2.3l0,0.7l0.4-0.4v-0.3l0.3-2.8l0.5,2.8l0.1,2.8l2.9-3.2l-0.1-1.9l0.6-5.4
			l0.6,5.1v1.4l2.8-3.6v-5l0.6-2.8l0.4,2.7l0,2l0.7-0.9v-1.3l0.6-2.7l0.4,2.6v2.9L113.2,349L113.2,349z"/>
		<path d="M85,382v-27.6c0,0,3.6-0.8,4.8-1.2c1.3-0.5,1.8-0.7,1.8-0.7l0-7.3l0.4-0.4v-3.7l0.3-0.3l0.4-6.3l0.4,7.1l0.4,0.4v4.8
			l0.5,0.3v4.7l2.4-1V382H85z"/>
		<path d="M80.2,358.2c0,0,1.7,6.3,1.8,11.1c0.1,4.3-0.3,12.6-0.3,12.6H71.4v-19.9c0,0,2.1-0.5,3.4-1
			C78.2,359.9,80.2,358.2,80.2,358.2z"/>
		<rect x="61.2" y="342.6" width="4.1" height="39.4"/>
		<rect x="64.7" y="336.5" width="4.8" height="45.6"/>
		<path d="M62.7,382H51.1v-7.7c0,0,2.6-2,5.6-2.9c1.5-0.5,6-1.4,6-1.4V382z"/>
		<path d="M69,382.1l17,0v-7.6c0,0-3.9-2-8.2-2.9c-2.1-0.5-8.8-1.4-8.8-1.4V382.1z"/>
		<rect x="51.1" y="353" width="6.4" height="29"/>
		<rect x="130.9" y="363.2" width="15.4" height="8.4"/>
		<polygon points="145.4,371.6 131.7,371.6 131.7,372.6 132.9,376.2 144.5,376.2 145.4,372.3 		"/>
		<rect x="133.2" y="375" width="11.1" height="8.8"/>
		<path d="M131.7,363.2c0.4-0.4,2.8-1.9,2.8-1.9l0.2-1.1l3.9-0.5v3.5H131.7z"/>
		<path d="M145.4,363.2c-0.4-0.4-2.6-1.9-2.6-1.9l-0.2-1.1l-3.9-0.5v3.5H145.4z"/>
		<rect x="134.8" y="359.2" width="0.8" height="1.1"/>
		<rect x="141.7" y="359.2" width="0.9" height="0.9"/>
		<path d="M154,355.4l0.1,0.5c0,0,0.6,0.2,0.7,0.6c0.1,0.3,0.3,1.1,0.3,1.1l0.1,0.1l0,0.3l-0.1,0l0,2.3h0.3v0.3l-0.1,0.3v2l0.2,0.6
			h0.1l0,0.5l0.8,0.4l0.3,3.4l1.9,0.9l-0.1,4.5l-0.4,0.5l0,8.3H154h-5l-0.1-8.3l-0.4-0.5l-0.1-4.5l1.8-0.9l0.4-3.4l0.8-0.4l0-0.5
			h0.1l0.2-0.6v-2l-0.1-0.3v-0.3h0.3l0-2.3l-0.1,0l0-0.3l0.1-0.1c0,0,0.1-0.9,0.3-1.1c0.2-0.3,0.7-0.6,0.7-0.6l0.1-0.5l0.4-2
			L154,355.4L154,355.4L154,355.4L154,355.4L154,355.4L154,355.4L154,355.4z"/>
		<polygon points="51.1,379 158.9,379 158.9,385.5 51.1,385.5 		"/>
		<polygon points="139.6,364.5 138.2,364.5 137.9,359.8 138.7,359.7 139.6,359.8 		"/>
	</g>
</g>
<g>
	<text transform="matrix(1 0 0 1 82.2444 249.4491)" class="st2 st5">LONDON</text>
	<g>
		<line class="st4" x1="51.7" y1="227.5" x2="51.6" y2="234"/>
		<g>
			<path class="st7" d="M65.9,219.7c-4.7,4-3.9,4.8-14.1,8"/>
			<path class="st4" d="M65.9,223.7c-4.6,4-3.6,4.5-14.1,7.1"/>
			<line class="st4" x1="63.1" y1="222" x2="63.3" y2="234.6"/>
			<line class="st4" x1="59.8" y1="224.5" x2="59.8" y2="234.7"/>
			<line class="st4" x1="56.1" y1="226.2" x2="56.2" y2="234.3"/>
			<line class="st8" x1="56" y1="226.4" x2="51.8" y2="230.8"/>
			<line class="st8" x1="51.6" y1="227.8" x2="56.2" y2="229.6"/>
			<line class="st8" x1="59.8" y1="224.5" x2="56.3" y2="229.4"/>
			<line class="st8" x1="56" y1="226.3" x2="59.4" y2="227.9"/>
			<line class="st8" x1="59.6" y1="224.5" x2="63.4" y2="226.2"/>
			<line class="st8" x1="63.1" y1="222.3" x2="59.8" y2="228"/>
			<line class="st8" x1="65.4" y1="220.4" x2="63.5" y2="225.7"/>
			<line class="st8" x1="65.7" y1="224.2" x2="63.1" y2="222.3"/>
			<g>
				<rect x="51.1" y="236" width="32.3" height="2.2"/>
				<g>
					<path class="st9" d="M98.7,199.5l0-2.3c0,0-0.9-1.9-1.1-3c-0.2-0.9-0.6-2.9-0.6-2.9l-0.1-4.2l-0.1,4.2c0,0-0.4,2-0.7,2.9
						c-0.2,1-1.2,3-1.2,3l0,2.3"/>
					<path d="M94.9,198.4l-0.3,0l-1.1,2.3l0,2.7l-0.9,0.5l0,7.8l0.7,0.6c0,0,0,3.3,0,24.9l2.6,0l1.5,0l2.5,0
						c0.2-21.6,0.2-24.9,0.2-24.9l0.7-0.6l0.1-7.8l-0.9-0.5l0-2.7l-1.1-2.3l-0.3,0"/>
				</g>
				<path d="M86.9,227.6c-9.6-2.8-9.6-2.8-9.6-2.8v9.1v3.9l-11.8-0.1l-0.3-21.8l1.1-3.2l1.1,3.3L68,216l0.1-1.8l0.8-0.3l2.4-5.6
					l2.6,5.1l1.3-0.4l0.5,1.5l0.3-0.9l0.4-2.3l0.3,2.2l0.6,0.4v1l0.2,4.2l11.1,4.8l0.1-1.1l0.5-0.1l1.1-3l0.4,1.3l1.4,1.2L93,223
					l0.6-0.6l0.5,0.8l-0.2,13.1H87L86.9,227.6z"/>
				<polygon points="51.1,233.9 51.1,237.6 65.5,237.6 65.5,234.7 				"/>
				<rect x="75.5" y="234.4" width="4.6" height="3.1"/>
				<polygon points="80,234.4 87.8,236.1 87.8,236.9 79.8,236.3 				"/>
				<rect x="105.9" y="224.6" transform="matrix(-1 -8.486513e-11 8.486513e-11 -1 214.2908 461.7779)" width="2.5" height="12.6"/>
				<rect x="108.9" y="227.4" transform="matrix(-1 -4.507340e-11 4.507340e-11 -1 221.9923 464.9649)" width="4.2" height="10.2"/>
				<rect x="102.7" y="217.5" transform="matrix(-1 -1.078587e-10 1.078587e-10 -1 208.9826 454.6647)" width="3.6" height="19.7"/>
				
					<rect x="103.2" y="216.9" transform="matrix(-1 -8.858660e-11 8.858660e-11 -1 208.9826 435.9452)" class="st10" width="2.5" height="2.2"/>
				
					<rect x="105.2" y="223.9" transform="matrix(-1 -4.479318e-11 4.479318e-11 -1 213.0816 449.2287)" class="st10" width="2.8" height="1.5"/>
			</g>
			<g>
				<rect x="147.2" y="211.7" transform="matrix(-1 -4.360791e-11 4.360791e-11 -1 298.1419 424.5878)" width="3.8" height="1.2"/>
				<g>
					<rect x="143.6" y="209.9" transform="matrix(-1 -6.342894e-11 6.342894e-11 -1 291.6831 445.8801)" width="4.5" height="26"/>
					
						<rect x="148.1" y="212.5" transform="matrix(-1 -7.512714e-11 7.512714e-11 -1 300.7667 449.3894)" width="4.6" height="24.4"/>
					<rect x="154.9" y="228" transform="matrix(-1 -4.906043e-11 4.906043e-11 -1 313.7807 464.9263)" width="3.9" height="8.9"/>
					<rect x="141" y="227.1" transform="matrix(-1 -4.128576e-11 4.128576e-11 -1 285.8603 462.7489)" width="3.9" height="8.6"/>
					<rect x="87" y="232" transform="matrix(-1 -3.367985e-11 3.367985e-11 -1 245.826 470.0903)" width="71.9" height="6.1"/>
					<rect x="142.5" y="226.2" transform="matrix(-1 -4.140167e-11 4.140167e-11 -1 288.7277 453.6826)" width="3.7" height="1.3"/>
					<rect x="155.4" y="227.5" transform="matrix(-1 -5.238844e-11 5.238844e-11 -1 313.7807 456.7388)" width="3" height="1.8"/>
				</g>
				<rect x="144.1" y="209.1" transform="matrix(-1 -5.097934e-11 5.097934e-11 -1 291.6831 419.3646)" width="3.5" height="1.2"/>
			</g>
			<g>
				<ellipse class="st4" cx="126.2" cy="215.9" rx="14" ry="14.1"/>
				<line class="st8" x1="126.1" y1="202.1" x2="126.2" y2="230"/>
				<line class="st8" x1="112.2" y1="215.9" x2="140.1" y2="215.9"/>
				<line class="st8" x1="136.1" y1="225.9" x2="116.2" y2="205.9"/>
				<line class="st8" x1="136.1" y1="205.9" x2="116.4" y2="225.8"/>
				<line class="st11" x1="122.6" y1="229.3" x2="126.1" y2="215.9"/>
				<line class="st11" x1="129.6" y1="229.3" x2="126.1" y2="215.9"/>
				<ellipse class="st12" cx="126.2" cy="215.9" rx="0.6" ry="0.6"/>
			</g>
			<g>
				
					<ellipse transform="matrix(0.8614 -0.508 0.508 0.8614 -86.525 88.2613)" class="st10" cx="118.4" cy="202.7" rx="1.2" ry="1.2"/>
				
					<ellipse transform="matrix(0.5029 -0.8643 0.8643 0.5029 -123.8108 201.1035)" class="st10" cx="112.9" cy="208.2" rx="1.2" ry="1.2"/>
				<ellipse class="st10" cx="110.8" cy="216" rx="1.2" ry="1.2"/>
				
					<ellipse transform="matrix(0.8643 -0.5029 0.5029 0.8643 -97.2238 87.1544)" class="st10" cx="112.9" cy="223.8" rx="1.2" ry="1.2"/>
				
					<ellipse transform="matrix(0.508 -0.8614 0.8614 0.508 -139.2626 214.8495)" class="st10" cx="118.4" cy="229.3" rx="1.2" ry="1.2"/>
				<ellipse class="st10" cx="126.2" cy="231.4" rx="1.2" ry="1.2"/>
				
					<ellipse transform="matrix(0.8614 -0.508 0.508 0.8614 -97.9301 99.8285)" class="st10" cx="133.9" cy="229.3" rx="1.2" ry="1.2"/>
				
					<ellipse transform="matrix(0.5029 -0.8643 0.8643 0.5029 -124.1172 231.7595)" class="st10" cx="139.4" cy="223.8" rx="1.2" ry="1.2"/>
				<ellipse class="st10" cx="141.5" cy="216" rx="1.2" ry="1.2"/>
				
					<ellipse transform="matrix(0.8643 -0.5029 0.5029 0.8643 -85.7864 98.3654)" class="st10" cx="139.4" cy="208.2" rx="1.2" ry="1.2"/>
				
					<ellipse transform="matrix(0.508 -0.8614 0.8614 0.508 -108.6619 215.0653)" class="st10" cx="133.9" cy="202.7" rx="1.2" ry="1.2"/>
				
					<ellipse transform="matrix(0.508 -0.8614 0.8614 0.508 -110.8158 207.3784)" class="st10" cx="126.1" cy="200.7" rx="1.2" ry="1.2"/>
			</g>
		</g>
	</g>
</g>
</svg>
