<?xml version="1.0" encoding="utf-8"?>
<!-- Generator: Adobe Illustrator 22.1.0, SVG Export Plug-In . SVG Version: 6.00 Build 0)  -->
<svg version="1.1" id="Layer_1" xmlns="http://www.w3.org/2000/svg" xmlns:xlink="http://www.w3.org/1999/xlink" x="0px" y="0px"
	 viewBox="0 0 420.9 595.3" style="enable-background:new 0 0 420.9 595.3;" xml:space="preserve">
<style type="text/css">
	.st0{fill:none;stroke:#000000;stroke-width:0.25;stroke-miterlimit:10;}
	.st1{fill:none;stroke:#000000;stroke-width:0.25;stroke-linecap:square;stroke-miterlimit:10;}
</style>
<g>
	<path d="M44.8,76.5v-5.6h4.3v5.6h-0.4v-5.2h-3.5v5.2H44.8z"/>
	<path d="M50.7,76.5v-4.1h0.4v1.8h2.7v-1.8h0.4v4.1h-0.4v-1.9h-2.7v1.9H50.7z"/>
</g>
<g>
	<path d="M127,76.5v-5.6h2.3c0.5,0,1,0.1,1.3,0.4s0.5,0.6,0.5,1c0,0.2,0,0.3-0.1,0.5s-0.1,0.3-0.2,0.4s-0.2,0.2-0.3,0.3
		s-0.2,0.1-0.3,0.2c0.8,0.2,1.3,0.7,1.3,1.4c0,0.5-0.2,0.8-0.5,1.1s-0.9,0.4-1.5,0.4H127z M127.4,73.5h1.9c0.4,0,0.8-0.1,1-0.3
		s0.4-0.5,0.4-0.9c0-0.3-0.1-0.6-0.4-0.8s-0.6-0.3-1-0.3h-1.9V73.5z M127.4,76.2h2c0.5,0,0.9-0.1,1.1-0.3s0.4-0.5,0.4-0.8
		c0-0.3-0.1-0.6-0.4-0.8s-0.7-0.3-1.3-0.3h-1.9V76.2z"/>
	<path d="M132.2,72.8v-0.4h3.4v0.4h-1.5v3.7h-0.4v-3.7H132.2z"/>
</g>
<g>
	<path d="M209,73.7c0-0.5,0.1-1,0.4-1.4s0.6-0.8,1-1.1s0.9-0.4,1.4-0.4c0.2,0,0.5,0,0.7,0.1c0.2,0,0.4,0.1,0.6,0.2
		c0.2,0.1,0.3,0.2,0.5,0.3s0.3,0.2,0.4,0.4l-0.3,0.3c-0.3-0.3-0.6-0.5-0.9-0.6c-0.3-0.1-0.6-0.2-1-0.2c-0.3,0-0.6,0.1-0.9,0.2
		c-0.3,0.1-0.5,0.3-0.8,0.5s-0.4,0.5-0.5,0.8s-0.2,0.6-0.2,1c0,0.3,0.1,0.7,0.2,1s0.3,0.6,0.5,0.8s0.5,0.4,0.8,0.5s0.6,0.2,0.9,0.2
		c0.4,0,0.7-0.1,1-0.2c0.3-0.1,0.6-0.4,0.9-0.7l0.3,0.3c-0.3,0.3-0.7,0.6-1,0.7c-0.3,0.2-0.8,0.2-1.2,0.2c-0.5,0-1-0.1-1.4-0.4
		s-0.8-0.6-1-1S209,74.3,209,73.7z"/>
	<path d="M215,77.8v-5.4h0.4v0.9c0.4-0.7,1-1,1.7-1c0.2,0,0.5,0,0.7,0.1c0.2,0.1,0.4,0.2,0.6,0.4s0.3,0.4,0.5,0.7
		c0.1,0.3,0.2,0.6,0.2,0.9c0,0.3-0.1,0.6-0.2,0.9c-0.1,0.3-0.3,0.5-0.5,0.7s-0.4,0.3-0.6,0.4c-0.2,0.1-0.5,0.2-0.7,0.2
		c-0.7,0-1.3-0.3-1.7-1v2.2H215z M215.4,74.5c0,0.3,0.1,0.6,0.2,0.9s0.4,0.5,0.6,0.6c0.3,0.1,0.5,0.2,0.8,0.2c0.5,0,0.8-0.2,1.1-0.5
		c0.3-0.3,0.5-0.7,0.5-1.3c0-0.3,0-0.5-0.1-0.7s-0.2-0.4-0.3-0.6c-0.1-0.1-0.3-0.3-0.5-0.4c-0.2-0.1-0.4-0.1-0.6-0.1
		c-0.2,0-0.4,0-0.6,0.1c-0.2,0.1-0.4,0.2-0.5,0.4c-0.2,0.2-0.3,0.3-0.4,0.6S215.4,74.2,215.4,74.5z"/>
</g>
<g>
	<path d="M291.2,73v-2.1h0.4v2.1c0,0.4,0.1,0.7,0.4,0.9c0.2,0.2,0.6,0.3,1,0.3c0.3,0,0.6-0.1,0.9-0.2c0.3-0.1,0.6-0.3,0.9-0.4v-2.7
		h0.4v5.6h-0.4V74c-0.3,0.1-0.6,0.3-0.9,0.4s-0.7,0.2-0.9,0.2c-0.5,0-1-0.1-1.3-0.4S291.2,73.5,291.2,73z"/>
	<path d="M296.4,72.8v-0.4h3.4v0.4h-1.5v3.7h-0.4v-3.7H296.4z"/>
</g>
<line class="st0" x1="41.2" y1="62.4" x2="255" y2="62.4"/>
<rect x="41.2" y="79.4" class="st1" width="82.2" height="76.5"/>
<rect x="123.4" y="79.4" class="st1" width="82.2" height="76.5"/>
<rect x="205.6" y="79.4" class="st1" width="82.2" height="76.5"/>
<rect x="287.8" y="79.4" class="st1" width="82.2" height="76.5"/>
<rect x="41.2" y="155.9" class="st1" width="82.2" height="76.5"/>
<rect x="123.4" y="155.9" class="st1" width="82.2" height="76.5"/>
<rect x="205.6" y="155.9" class="st1" width="82.2" height="76.5"/>
<rect x="287.8" y="155.9" class="st1" width="82.2" height="76.5"/>
<rect x="41.2" y="232.4" class="st1" width="82.2" height="76.5"/>
<rect x="123.4" y="232.4" class="st1" width="82.2" height="76.5"/>
<rect x="205.6" y="232.4" class="st1" width="82.2" height="76.5"/>
<rect x="287.8" y="232.4" class="st1" width="82.2" height="76.5"/>
<rect x="41.2" y="309" class="st1" width="82.2" height="76.5"/>
<rect x="123.4" y="309" class="st1" width="82.2" height="76.5"/>
<rect x="205.6" y="309" class="st1" width="82.2" height="76.5"/>
<rect x="287.8" y="309" class="st1" width="82.2" height="76.5"/>
<rect x="41.2" y="385.5" class="st1" width="82.2" height="76.5"/>
<rect x="123.4" y="385.5" class="st1" width="82.2" height="76.5"/>
<rect x="205.6" y="385.5" class="st1" width="82.2" height="76.5"/>
<rect x="287.8" y="385.5" class="st1" width="82.2" height="76.5"/>
<rect x="41.2" y="462" class="st1" width="82.2" height="76.5"/>
<rect x="123.4" y="462" class="st1" width="82.2" height="76.5"/>
<rect x="205.6" y="462" class="st1" width="82.2" height="76.5"/>
<rect x="287.8" y="462" class="st1" width="82.2" height="76.5"/>
</svg>
