<?xml version="1.0" encoding="utf-8"?>
<!-- Generator: Adobe Illustrator 22.1.0, SVG Export Plug-In . SVG Version: 6.00 Build 0)  -->
<svg version="1.1" id="Layer_1" xmlns="http://www.w3.org/2000/svg" xmlns:xlink="http://www.w3.org/1999/xlink" x="0px" y="0px"
	 viewBox="0 0 420.9 595.3" style="enable-background:new 0 0 420.9 595.3;" xml:space="preserve">
<style type="text/css">
	.st0{fill:#979695;}
	.st1{fill:none;stroke:#000000;stroke-width:0.25;stroke-linecap:square;stroke-miterlimit:10;}
</style>
<g>
	<path d="M54.7,76.5v-5.6H59v5.6h-0.4v-5.2h-3.5v5.2H54.7z"/>
	<path d="M60.1,72.8v-0.4h3.4v0.4H62v3.7h-0.4v-3.7H60.1z"/>
</g>
<g>
	<path d="M136.6,73.7c0-0.5,0.1-1,0.4-1.4s0.6-0.8,1-1.1s0.9-0.4,1.4-0.4c0.2,0,0.5,0,0.7,0.1s0.4,0.1,0.6,0.2s0.3,0.2,0.5,0.3
		s0.3,0.2,0.4,0.4l-0.3,0.3c-0.3-0.3-0.6-0.5-0.9-0.6s-0.6-0.2-1-0.2c-0.3,0-0.6,0.1-0.9,0.2s-0.5,0.3-0.8,0.5s-0.4,0.5-0.5,0.8
		s-0.2,0.6-0.2,1c0,0.3,0.1,0.7,0.2,1s0.3,0.6,0.5,0.8s0.5,0.4,0.8,0.5s0.6,0.2,0.9,0.2c0.4,0,0.7-0.1,1-0.2s0.6-0.4,0.9-0.7
		l0.3,0.3c-0.3,0.3-0.7,0.6-1,0.7s-0.8,0.2-1.2,0.2c-0.5,0-1-0.1-1.4-0.4s-0.8-0.6-1-1S136.6,74.3,136.6,73.7z"/>
	<path d="M142.5,74.4c0-0.2,0-0.3,0-0.4s0-0.3,0-0.4s0-0.3,0-0.4s0-0.2,0.1-0.4s0.1-0.3,0.1-0.4s0.1-0.2,0.2-0.3s0.2-0.2,0.2-0.3
		s0.2-0.1,0.3-0.2s0.3-0.1,0.4-0.2l2.3-0.6l0.1,0.4l-2.2,0.6c-0.4,0.1-0.7,0.3-0.9,0.5s-0.3,0.6-0.3,1.1c0.4-0.6,1-1,1.8-1
		c0.4,0,0.7,0.1,1,0.3s0.5,0.4,0.7,0.8s0.3,0.7,0.3,1c0,0.4-0.1,0.7-0.3,1s-0.4,0.6-0.7,0.8s-0.7,0.3-1.1,0.3
		c-0.6,0-1.1-0.2-1.5-0.6S142.5,75.1,142.5,74.4z M143.4,73.3c-0.3,0.3-0.5,0.7-0.5,1.2s0.2,0.9,0.5,1.2s0.7,0.5,1.2,0.5
		c0.5,0,0.9-0.2,1.2-0.5s0.5-0.7,0.5-1.2s-0.2-0.9-0.5-1.2s-0.7-0.5-1.2-0.5C144.1,72.8,143.7,73,143.4,73.3z"/>
</g>
<g>
	<path d="M219.1,76.5v-5.6h2.3c0.5,0,1,0.1,1.3,0.4c0.3,0.3,0.5,0.6,0.5,1c0,0.2,0,0.3-0.1,0.5s-0.1,0.3-0.2,0.4
		c-0.1,0.1-0.2,0.2-0.3,0.3c-0.1,0.1-0.2,0.1-0.3,0.2c0.8,0.2,1.3,0.7,1.3,1.4c0,0.5-0.2,0.8-0.5,1.1c-0.4,0.3-0.9,0.4-1.5,0.4
		H219.1z M219.5,73.5h1.9c0.4,0,0.8-0.1,1-0.3c0.3-0.2,0.4-0.5,0.4-0.9c0-0.3-0.1-0.6-0.4-0.8s-0.6-0.3-1-0.3h-1.9V73.5z
		 M219.5,76.2h2c0.5,0,0.9-0.1,1.1-0.3s0.4-0.5,0.4-0.8c0-0.3-0.1-0.6-0.4-0.8s-0.7-0.3-1.3-0.3h-1.9V76.2z"/>
	<path d="M224.5,74.5c0-0.4,0.1-0.7,0.3-1.1c0.2-0.3,0.4-0.6,0.8-0.8c0.3-0.2,0.7-0.3,1.1-0.3c0.6,0,1.2,0.3,1.6,0.8l-0.3,0.3
		c-0.2-0.2-0.4-0.4-0.6-0.5c-0.2-0.1-0.5-0.2-0.7-0.2c-0.3,0-0.6,0.1-0.8,0.2c-0.3,0.2-0.5,0.4-0.6,0.6s-0.2,0.6-0.2,0.9
		c0,0.5,0.2,0.9,0.5,1.3c0.3,0.3,0.7,0.5,1.2,0.5c0.5,0,0.9-0.2,1.4-0.7l0.3,0.3c-0.2,0.3-0.5,0.5-0.7,0.6c-0.3,0.1-0.6,0.2-0.9,0.2
		c-0.4,0-0.7-0.1-1.1-0.3c-0.3-0.2-0.6-0.5-0.8-0.8C224.6,75.2,224.5,74.9,224.5,74.5z"/>
</g>
<g>
	<path class="st0" d="M318.1,76.2h0.6c0.3-0.4,0.5-1,0.7-1.7s0.2-1.5,0.2-2.4v-1.2h3.4v5.2h0.8l0,1.7h-0.4v-1.3h-4.8l-0.1,1.3h-0.4
		V76.2z M319.2,76.2h3.4v-4.8H320v1.1c0,0.8-0.1,1.5-0.2,2.2C319.6,75.3,319.4,75.8,319.2,76.2z"/>
	<path class="st0" d="M324,76.5l0.1-0.4c0.1,0,0.2,0.1,0.3,0.1c0.1,0,0.2,0,0.2,0c0.1,0,0.1,0,0.2-0.1s0.1-0.1,0.2-0.2
		s0.1-0.2,0.1-0.4c0-0.2,0.1-0.4,0.1-0.6s0.1-0.6,0.1-0.9c0-0.4,0-0.8,0-1.2v-0.2h2.8v4.1h-0.4v-3.7h-2v0.1c0,0.5,0,0.9,0,1.3
		c0,0.4-0.1,0.7-0.1,0.9c0,0.3-0.1,0.5-0.1,0.7s-0.1,0.3-0.2,0.4c-0.1,0.1-0.1,0.2-0.2,0.2s-0.2,0.1-0.3,0.1c-0.1,0-0.2,0-0.3,0
		C324.3,76.6,324.2,76.6,324,76.5z"/>
	<path class="st0" d="M329.3,76.5l1.3-1.6c-0.3-0.1-0.6-0.2-0.8-0.4c-0.2-0.2-0.3-0.5-0.3-0.8c0-0.4,0.1-0.7,0.4-0.9
		c0.3-0.2,0.6-0.3,1.1-0.3h1.8v4.1h-0.4V75H331l-1.2,1.6H329.3z M329.8,73.7c0,0.3,0.1,0.5,0.3,0.7s0.5,0.2,0.8,0.2h1.4v-1.8H331
		c-0.4,0-0.6,0.1-0.8,0.2S329.8,73.4,329.8,73.7z"/>
	<path class="st0" d="M336.2,76l0.2-0.3c0.4,0.4,0.9,0.6,1.4,0.6c0.3,0,0.5-0.1,0.8-0.2s0.3-0.4,0.3-0.6c0-0.2-0.1-0.4-0.3-0.6
		c-0.2-0.1-0.5-0.2-0.8-0.2h-0.6v-0.4h0.6c0.3,0,0.5-0.1,0.7-0.2c0.2-0.1,0.3-0.3,0.3-0.6c0-0.2-0.1-0.4-0.3-0.5
		c-0.2-0.1-0.4-0.2-0.7-0.2c-0.2,0-0.4,0-0.7,0.1c-0.2,0.1-0.4,0.2-0.6,0.3l-0.2-0.3c0.4-0.3,0.9-0.5,1.5-0.5c0.4,0,0.8,0.1,1,0.3
		c0.3,0.2,0.4,0.5,0.4,0.8c0,0.4-0.2,0.8-0.7,0.9c0.5,0.2,0.8,0.5,0.8,1c0,0.3-0.1,0.6-0.4,0.8s-0.6,0.4-1.1,0.4
		C337.3,76.6,336.7,76.4,336.2,76z"/>
	<path class="st0" d="M340.3,75.3c0-0.4,0.2-0.7,0.5-1c0.3-0.2,0.8-0.4,1.3-0.4c0.5,0,0.9,0.1,1.4,0.2V74c0-0.4-0.1-0.7-0.4-0.9
		c-0.2-0.2-0.6-0.3-1-0.3c-0.4,0-0.8,0.1-1.3,0.3l-0.1-0.3c0.5-0.2,1-0.4,1.4-0.4c0.6,0,1,0.1,1.3,0.4c0.3,0.3,0.4,0.7,0.4,1.2v2.5
		h-0.4v-0.7c-0.2,0.2-0.4,0.4-0.6,0.6c-0.3,0.1-0.6,0.2-0.9,0.2c-0.3,0-0.5,0-0.8-0.1s-0.4-0.2-0.6-0.4S340.3,75.6,340.3,75.3z
		 M340.7,75.3c0,0.3,0.1,0.5,0.3,0.7c0.2,0.2,0.5,0.2,0.9,0.2c0.4,0,0.8-0.1,1.1-0.4c0.3-0.2,0.5-0.5,0.5-0.9v-0.5
		c-0.5-0.1-0.9-0.2-1.4-0.2c-0.4,0-0.8,0.1-1,0.3C340.8,74.8,340.7,75,340.7,75.3z"/>
	<path class="st0" d="M345.2,76.5v-4.1h0.4l1.7,2.3l1.7-2.3h0.4v4.1h-0.4v-3.4l-1.6,2.3l-1.6-2.3v3.4H345.2z"/>
	<path class="st0" d="M350.5,74.5c0-0.3,0-0.6,0.1-0.8c0.1-0.3,0.2-0.5,0.4-0.7c0.2-0.2,0.4-0.3,0.6-0.5c0.2-0.1,0.5-0.2,0.8-0.2
		c0.4,0,0.7,0.1,1,0.3c0.3,0.2,0.5,0.4,0.7,0.8c0.2,0.3,0.2,0.7,0.2,1.1c0,0.1,0,0.1,0,0.2h-3.4c0,0.5,0.2,0.9,0.5,1.2
		s0.7,0.4,1.1,0.4c0.5,0,1-0.2,1.4-0.6l0.3,0.2c-0.2,0.2-0.5,0.4-0.7,0.6c-0.3,0.1-0.6,0.2-0.9,0.2c-0.3,0-0.5-0.1-0.8-0.2
		c-0.2-0.1-0.5-0.2-0.6-0.4c-0.2-0.2-0.3-0.4-0.4-0.7C350.5,75.1,350.5,74.8,350.5,74.5z M350.9,74.3h3c0-0.2-0.1-0.4-0.1-0.6
		c-0.1-0.2-0.2-0.4-0.3-0.5s-0.3-0.3-0.5-0.4s-0.4-0.1-0.6-0.1c-0.4,0-0.7,0.2-1,0.5C351.1,73.5,350.9,73.9,350.9,74.3z"/>
	<path class="st0" d="M354.7,72.8v-0.4h3.4v0.4h-1.5v3.7h-0.4v-3.7H354.7z"/>
	<path class="st0" d="M358.7,74.5c0-0.3,0.1-0.6,0.2-0.8c0.1-0.3,0.3-0.5,0.4-0.7c0.2-0.2,0.4-0.3,0.7-0.5c0.3-0.1,0.5-0.2,0.8-0.2
		c0.4,0,0.8,0.1,1.1,0.3c0.3,0.2,0.6,0.5,0.8,0.8c0.2,0.3,0.3,0.7,0.3,1.1c0,0.4-0.1,0.7-0.3,1.1s-0.4,0.6-0.8,0.8s-0.7,0.3-1.1,0.3
		c-0.3,0-0.6-0.1-0.8-0.2c-0.3-0.1-0.5-0.3-0.7-0.5c-0.2-0.2-0.3-0.4-0.4-0.7S358.7,74.8,358.7,74.5z M359.1,74.5
		c0,0.5,0.2,0.9,0.5,1.3s0.7,0.5,1.2,0.5c0.3,0,0.6-0.1,0.8-0.2c0.3-0.2,0.5-0.4,0.6-0.6c0.2-0.3,0.2-0.6,0.2-0.9
		c0-0.5-0.2-0.9-0.5-1.3s-0.7-0.5-1.2-0.5c-0.3,0-0.6,0.1-0.8,0.2c-0.3,0.2-0.5,0.4-0.6,0.6S359.1,74.2,359.1,74.5z"/>
	<path class="st0" d="M364,76.5v-4.1h0.4v2.6l2.5-2.6h0.5l-1.8,1.8l1.8,2.3H367l-1.6-2l-1,1v1H364z"/>
</g>
<rect x="51" y="79.4" class="st1" width="82.2" height="76.5"/>
<rect x="133.2" y="79.4" class="st1" width="82.2" height="76.5"/>
<rect x="215.4" y="79.4" class="st1" width="82.2" height="76.5"/>
<rect x="51" y="155.9" class="st1" width="82.2" height="76.5"/>
<rect x="133.2" y="155.9" class="st1" width="82.2" height="76.5"/>
<rect x="215.4" y="155.9" class="st1" width="82.2" height="76.5"/>
<rect x="51" y="232.4" class="st1" width="82.2" height="76.5"/>
<rect x="133.2" y="232.4" class="st1" width="82.2" height="76.5"/>
<rect x="215.4" y="232.4" class="st1" width="82.2" height="76.5"/>
<rect x="51" y="309" class="st1" width="82.2" height="76.5"/>
<rect x="133.2" y="309" class="st1" width="82.2" height="76.5"/>
<rect x="215.4" y="309" class="st1" width="82.2" height="76.5"/>
<rect x="51" y="385.5" class="st1" width="82.2" height="76.5"/>
<rect x="133.2" y="385.5" class="st1" width="82.2" height="76.5"/>
<rect x="215.4" y="385.5" class="st1" width="82.2" height="76.5"/>
<rect x="51" y="462" class="st1" width="82.2" height="76.5"/>
<rect x="133.2" y="462" class="st1" width="82.2" height="76.5"/>
<rect x="215.4" y="462" class="st1" width="82.2" height="76.5"/>
<path d="M311.8,98.9c0,0.2-0.1,0.3-0.3,0.3s-0.3-0.1-0.3-0.3c0-0.2,0.1-0.3,0.3-0.3S311.8,98.8,311.8,98.9z"/>
<path d="M317.5,98.9c0,0.2-0.1,0.3-0.3,0.3s-0.3-0.1-0.3-0.3c0-0.2,0.1-0.3,0.3-0.3S317.5,98.8,317.5,98.9z"/>
<path d="M323.1,98.9c0,0.2-0.1,0.3-0.3,0.3s-0.3-0.1-0.3-0.3c0-0.2,0.1-0.3,0.3-0.3S323.1,98.8,323.1,98.9z"/>
<path d="M328.8,98.9c0,0.2-0.1,0.3-0.3,0.3s-0.3-0.1-0.3-0.3c0-0.2,0.1-0.3,0.3-0.3S328.8,98.8,328.8,98.9z"/>
<path d="M334.5,98.9c0,0.2-0.1,0.3-0.3,0.3c-0.2,0-0.3-0.1-0.3-0.3c0-0.2,0.1-0.3,0.3-0.3C334.4,98.6,334.5,98.8,334.5,98.9z"/>
<path d="M340.2,98.9c0,0.2-0.1,0.3-0.3,0.3c-0.2,0-0.3-0.1-0.3-0.3c0-0.2,0.1-0.3,0.3-0.3C340,98.6,340.2,98.8,340.2,98.9z"/>
<path d="M345.8,98.9c0,0.2-0.1,0.3-0.3,0.3s-0.3-0.1-0.3-0.3c0-0.2,0.1-0.3,0.3-0.3S345.8,98.8,345.8,98.9z"/>
<path d="M351.5,98.9c0,0.2-0.1,0.3-0.3,0.3s-0.3-0.1-0.3-0.3c0-0.2,0.1-0.3,0.3-0.3S351.5,98.8,351.5,98.9z"/>
<path d="M357.2,98.9c0,0.2-0.1,0.3-0.3,0.3s-0.3-0.1-0.3-0.3c0-0.2,0.1-0.3,0.3-0.3S357.2,98.8,357.2,98.9z"/>
<path d="M362.8,98.9c0,0.2-0.1,0.3-0.3,0.3s-0.3-0.1-0.3-0.3c0-0.2,0.1-0.3,0.3-0.3S362.8,98.8,362.8,98.9z"/>
<path d="M368.5,98.9c0,0.2-0.1,0.3-0.3,0.3s-0.3-0.1-0.3-0.3c0-0.2,0.1-0.3,0.3-0.3S368.5,98.8,368.5,98.9z"/>
<path d="M374.2,98.9c0,0.2-0.1,0.3-0.3,0.3s-0.3-0.1-0.3-0.3c0-0.2,0.1-0.3,0.3-0.3S374.2,98.8,374.2,98.9z"/>
<path d="M311.8,110.3c0,0.2-0.1,0.3-0.3,0.3s-0.3-0.1-0.3-0.3c0-0.2,0.1-0.3,0.3-0.3S311.8,110.1,311.8,110.3z"/>
<path d="M317.5,110.3c0,0.2-0.1,0.3-0.3,0.3s-0.3-0.1-0.3-0.3c0-0.2,0.1-0.3,0.3-0.3S317.5,110.1,317.5,110.3z"/>
<path d="M323.1,110.3c0,0.2-0.1,0.3-0.3,0.3s-0.3-0.1-0.3-0.3c0-0.2,0.1-0.3,0.3-0.3S323.1,110.1,323.1,110.3z"/>
<path d="M328.8,110.3c0,0.2-0.1,0.3-0.3,0.3s-0.3-0.1-0.3-0.3c0-0.2,0.1-0.3,0.3-0.3S328.8,110.1,328.8,110.3z"/>
<path d="M334.5,110.3c0,0.2-0.1,0.3-0.3,0.3c-0.2,0-0.3-0.1-0.3-0.3c0-0.2,0.1-0.3,0.3-0.3C334.4,110,334.5,110.1,334.5,110.3z"/>
<path d="M340.2,110.3c0,0.2-0.1,0.3-0.3,0.3c-0.2,0-0.3-0.1-0.3-0.3c0-0.2,0.1-0.3,0.3-0.3C340,110,340.2,110.1,340.2,110.3z"/>
<path d="M345.8,110.3c0,0.2-0.1,0.3-0.3,0.3s-0.3-0.1-0.3-0.3c0-0.2,0.1-0.3,0.3-0.3S345.8,110.1,345.8,110.3z"/>
<path d="M351.5,110.3c0,0.2-0.1,0.3-0.3,0.3s-0.3-0.1-0.3-0.3c0-0.2,0.1-0.3,0.3-0.3S351.5,110.1,351.5,110.3z"/>
<path d="M357.2,110.3c0,0.2-0.1,0.3-0.3,0.3s-0.3-0.1-0.3-0.3c0-0.2,0.1-0.3,0.3-0.3S357.2,110.1,357.2,110.3z"/>
<path d="M362.8,110.3c0,0.2-0.1,0.3-0.3,0.3s-0.3-0.1-0.3-0.3c0-0.2,0.1-0.3,0.3-0.3S362.8,110.1,362.8,110.3z"/>
<path d="M368.5,110.3c0,0.2-0.1,0.3-0.3,0.3s-0.3-0.1-0.3-0.3c0-0.2,0.1-0.3,0.3-0.3S368.5,110.1,368.5,110.3z"/>
<path d="M374.2,110.3c0,0.2-0.1,0.3-0.3,0.3s-0.3-0.1-0.3-0.3c0-0.2,0.1-0.3,0.3-0.3S374.2,110.1,374.2,110.3z"/>
<path d="M311.8,121.6c0,0.2-0.1,0.3-0.3,0.3s-0.3-0.1-0.3-0.3c0-0.2,0.1-0.3,0.3-0.3S311.8,121.4,311.8,121.6z"/>
<path d="M317.5,121.6c0,0.2-0.1,0.3-0.3,0.3s-0.3-0.1-0.3-0.3c0-0.2,0.1-0.3,0.3-0.3S317.5,121.5,317.5,121.6z"/>
<path d="M323.1,121.6c0,0.2-0.1,0.3-0.3,0.3s-0.3-0.1-0.3-0.3c0-0.2,0.1-0.3,0.3-0.3S323.1,121.4,323.1,121.6z"/>
<path d="M328.8,121.6c0,0.2-0.1,0.3-0.3,0.3s-0.3-0.1-0.3-0.3c0-0.2,0.1-0.3,0.3-0.3S328.8,121.5,328.8,121.6z"/>
<path d="M334.5,121.6c0,0.2-0.1,0.3-0.3,0.3c-0.2,0-0.3-0.1-0.3-0.3c0-0.2,0.1-0.3,0.3-0.3C334.4,121.3,334.5,121.4,334.5,121.6z"/>
<path d="M340.2,121.6c0,0.2-0.1,0.3-0.3,0.3c-0.2,0-0.3-0.1-0.3-0.3c0-0.2,0.1-0.3,0.3-0.3C340,121.3,340.2,121.5,340.2,121.6z"/>
<path d="M345.8,121.6c0,0.2-0.1,0.3-0.3,0.3s-0.3-0.1-0.3-0.3c0-0.2,0.1-0.3,0.3-0.3S345.8,121.4,345.8,121.6z"/>
<path d="M351.5,121.6c0,0.2-0.1,0.3-0.3,0.3s-0.3-0.1-0.3-0.3c0-0.2,0.1-0.3,0.3-0.3S351.5,121.5,351.5,121.6z"/>
<path d="M357.2,121.6c0,0.2-0.1,0.3-0.3,0.3s-0.3-0.1-0.3-0.3c0-0.2,0.1-0.3,0.3-0.3S357.2,121.4,357.2,121.6z"/>
<path d="M362.8,121.6c0,0.2-0.1,0.3-0.3,0.3s-0.3-0.1-0.3-0.3c0-0.2,0.1-0.3,0.3-0.3S362.8,121.5,362.8,121.6z"/>
<path d="M368.5,121.6c0,0.2-0.1,0.3-0.3,0.3s-0.3-0.1-0.3-0.3c0-0.2,0.1-0.3,0.3-0.3S368.5,121.4,368.5,121.6z"/>
<path d="M374.2,121.6c0,0.2-0.1,0.3-0.3,0.3s-0.3-0.1-0.3-0.3c0-0.2,0.1-0.3,0.3-0.3S374.2,121.5,374.2,121.6z"/>
<path d="M311.8,132.9c0,0.2-0.1,0.3-0.3,0.3s-0.3-0.1-0.3-0.3s0.1-0.3,0.3-0.3S311.8,132.8,311.8,132.9z"/>
<path d="M317.5,132.9c0,0.2-0.1,0.3-0.3,0.3s-0.3-0.1-0.3-0.3s0.1-0.3,0.3-0.3S317.5,132.8,317.5,132.9z"/>
<path d="M323.1,132.9c0,0.2-0.1,0.3-0.3,0.3s-0.3-0.1-0.3-0.3s0.1-0.3,0.3-0.3S323.1,132.8,323.1,132.9z"/>
<path d="M328.8,132.9c0,0.2-0.1,0.3-0.3,0.3s-0.3-0.1-0.3-0.3s0.1-0.3,0.3-0.3S328.8,132.8,328.8,132.9z"/>
<path d="M334.5,132.9c0,0.2-0.1,0.3-0.3,0.3c-0.2,0-0.3-0.1-0.3-0.3s0.1-0.3,0.3-0.3C334.4,132.7,334.5,132.8,334.5,132.9z"/>
<path d="M340.2,132.9c0,0.2-0.1,0.3-0.3,0.3c-0.2,0-0.3-0.1-0.3-0.3s0.1-0.3,0.3-0.3C340,132.7,340.2,132.8,340.2,132.9z"/>
<path d="M345.8,132.9c0,0.2-0.1,0.3-0.3,0.3s-0.3-0.1-0.3-0.3s0.1-0.3,0.3-0.3S345.8,132.8,345.8,132.9z"/>
<path d="M351.5,132.9c0,0.2-0.1,0.3-0.3,0.3s-0.3-0.1-0.3-0.3s0.1-0.3,0.3-0.3S351.5,132.8,351.5,132.9z"/>
<path d="M357.2,132.9c0,0.2-0.1,0.3-0.3,0.3s-0.3-0.1-0.3-0.3s0.1-0.3,0.3-0.3S357.2,132.8,357.2,132.9z"/>
<path d="M362.8,132.9c0,0.2-0.1,0.3-0.3,0.3s-0.3-0.1-0.3-0.3s0.1-0.3,0.3-0.3S362.8,132.8,362.8,132.9z"/>
<path d="M368.5,132.9c0,0.2-0.1,0.3-0.3,0.3s-0.3-0.1-0.3-0.3s0.1-0.3,0.3-0.3S368.5,132.8,368.5,132.9z"/>
<path d="M374.2,132.9c0,0.2-0.1,0.3-0.3,0.3s-0.3-0.1-0.3-0.3s0.1-0.3,0.3-0.3S374.2,132.8,374.2,132.9z"/>
<path d="M311.8,144.3c0,0.2-0.1,0.3-0.3,0.3s-0.3-0.1-0.3-0.3c0-0.2,0.1-0.3,0.3-0.3S311.8,144.1,311.8,144.3z"/>
<path d="M317.5,144.3c0,0.2-0.1,0.3-0.3,0.3s-0.3-0.1-0.3-0.3c0-0.2,0.1-0.3,0.3-0.3S317.5,144.1,317.5,144.3z"/>
<path d="M323.1,144.3c0,0.2-0.1,0.3-0.3,0.3s-0.3-0.1-0.3-0.3c0-0.2,0.1-0.3,0.3-0.3S323.1,144.1,323.1,144.3z"/>
<path d="M328.8,144.3c0,0.2-0.1,0.3-0.3,0.3s-0.3-0.1-0.3-0.3c0-0.2,0.1-0.3,0.3-0.3S328.8,144.1,328.8,144.3z"/>
<path d="M334.5,144.3c0,0.2-0.1,0.3-0.3,0.3c-0.2,0-0.3-0.1-0.3-0.3c0-0.2,0.1-0.3,0.3-0.3C334.4,144,334.5,144.1,334.5,144.3z"/>
<path d="M340.2,144.3c0,0.2-0.1,0.3-0.3,0.3c-0.2,0-0.3-0.1-0.3-0.3c0-0.2,0.1-0.3,0.3-0.3C340,144,340.2,144.1,340.2,144.3z"/>
<path d="M345.8,144.3c0,0.2-0.1,0.3-0.3,0.3s-0.3-0.1-0.3-0.3c0-0.2,0.1-0.3,0.3-0.3S345.8,144.1,345.8,144.3z"/>
<path d="M351.5,144.3c0,0.2-0.1,0.3-0.3,0.3s-0.3-0.1-0.3-0.3c0-0.2,0.1-0.3,0.3-0.3S351.5,144.1,351.5,144.3z"/>
<path d="M357.2,144.3c0,0.2-0.1,0.3-0.3,0.3s-0.3-0.1-0.3-0.3c0-0.2,0.1-0.3,0.3-0.3S357.2,144.1,357.2,144.3z"/>
<path d="M362.8,144.3c0,0.2-0.1,0.3-0.3,0.3s-0.3-0.1-0.3-0.3c0-0.2,0.1-0.3,0.3-0.3S362.8,144.1,362.8,144.3z"/>
<path d="M368.5,144.3c0,0.2-0.1,0.3-0.3,0.3s-0.3-0.1-0.3-0.3c0-0.2,0.1-0.3,0.3-0.3S368.5,144.1,368.5,144.3z"/>
<path d="M374.2,144.3c0,0.2-0.1,0.3-0.3,0.3s-0.3-0.1-0.3-0.3c0-0.2,0.1-0.3,0.3-0.3S374.2,144.1,374.2,144.3z"/>
<path d="M311.8,155.6c0,0.2-0.1,0.3-0.3,0.3s-0.3-0.1-0.3-0.3s0.1-0.3,0.3-0.3S311.8,155.5,311.8,155.6z"/>
<path d="M317.5,155.6c0,0.2-0.1,0.3-0.3,0.3s-0.3-0.1-0.3-0.3s0.1-0.3,0.3-0.3S317.5,155.5,317.5,155.6z"/>
<path d="M323.1,155.6c0,0.2-0.1,0.3-0.3,0.3s-0.3-0.1-0.3-0.3s0.1-0.3,0.3-0.3S323.1,155.5,323.1,155.6z"/>
<path d="M328.8,155.6c0,0.2-0.1,0.3-0.3,0.3s-0.3-0.1-0.3-0.3s0.1-0.3,0.3-0.3S328.8,155.5,328.8,155.6z"/>
<path d="M334.5,155.6c0,0.2-0.1,0.3-0.3,0.3c-0.2,0-0.3-0.1-0.3-0.3s0.1-0.3,0.3-0.3C334.4,155.3,334.5,155.5,334.5,155.6z"/>
<path d="M340.2,155.6c0,0.2-0.1,0.3-0.3,0.3c-0.2,0-0.3-0.1-0.3-0.3s0.1-0.3,0.3-0.3C340,155.3,340.2,155.5,340.2,155.6z"/>
<path d="M345.8,155.6c0,0.2-0.1,0.3-0.3,0.3s-0.3-0.1-0.3-0.3s0.1-0.3,0.3-0.3S345.8,155.5,345.8,155.6z"/>
<path d="M351.5,155.6c0,0.2-0.1,0.3-0.3,0.3s-0.3-0.1-0.3-0.3s0.1-0.3,0.3-0.3S351.5,155.5,351.5,155.6z"/>
<path d="M357.2,155.6c0,0.2-0.1,0.3-0.3,0.3s-0.3-0.1-0.3-0.3s0.1-0.3,0.3-0.3S357.2,155.5,357.2,155.6z"/>
<path d="M362.8,155.6c0,0.2-0.1,0.3-0.3,0.3s-0.3-0.1-0.3-0.3s0.1-0.3,0.3-0.3S362.8,155.5,362.8,155.6z"/>
<path d="M368.5,155.6c0,0.2-0.1,0.3-0.3,0.3s-0.3-0.1-0.3-0.3s0.1-0.3,0.3-0.3S368.5,155.5,368.5,155.6z"/>
<path d="M374.2,155.6c0,0.2-0.1,0.3-0.3,0.3s-0.3-0.1-0.3-0.3s0.1-0.3,0.3-0.3S374.2,155.5,374.2,155.6z"/>
<path d="M311.8,175.5c0,0.2-0.1,0.3-0.3,0.3s-0.3-0.1-0.3-0.3c0-0.2,0.1-0.3,0.3-0.3S311.8,175.3,311.8,175.5z"/>
<path d="M317.5,175.5c0,0.2-0.1,0.3-0.3,0.3s-0.3-0.1-0.3-0.3c0-0.2,0.1-0.3,0.3-0.3S317.5,175.3,317.5,175.5z"/>
<path d="M323.1,175.5c0,0.2-0.1,0.3-0.3,0.3s-0.3-0.1-0.3-0.3c0-0.2,0.1-0.3,0.3-0.3S323.1,175.3,323.1,175.5z"/>
<path d="M328.8,175.5c0,0.2-0.1,0.3-0.3,0.3s-0.3-0.1-0.3-0.3c0-0.2,0.1-0.3,0.3-0.3S328.8,175.3,328.8,175.5z"/>
<path d="M334.5,175.5c0,0.2-0.1,0.3-0.3,0.3c-0.2,0-0.3-0.1-0.3-0.3c0-0.2,0.1-0.3,0.3-0.3C334.4,175.2,334.5,175.3,334.5,175.5z"/>
<path d="M340.2,175.5c0,0.2-0.1,0.3-0.3,0.3c-0.2,0-0.3-0.1-0.3-0.3c0-0.2,0.1-0.3,0.3-0.3C340,175.2,340.2,175.3,340.2,175.5z"/>
<path d="M345.8,175.5c0,0.2-0.1,0.3-0.3,0.3s-0.3-0.1-0.3-0.3c0-0.2,0.1-0.3,0.3-0.3S345.8,175.3,345.8,175.5z"/>
<path d="M351.5,175.5c0,0.2-0.1,0.3-0.3,0.3s-0.3-0.1-0.3-0.3c0-0.2,0.1-0.3,0.3-0.3S351.5,175.3,351.5,175.5z"/>
<path d="M357.2,175.5c0,0.2-0.1,0.3-0.3,0.3s-0.3-0.1-0.3-0.3c0-0.2,0.1-0.3,0.3-0.3S357.2,175.3,357.2,175.5z"/>
<path d="M362.8,175.5c0,0.2-0.1,0.3-0.3,0.3s-0.3-0.1-0.3-0.3c0-0.2,0.1-0.3,0.3-0.3S362.8,175.3,362.8,175.5z"/>
<path d="M368.5,175.5c0,0.2-0.1,0.3-0.3,0.3s-0.3-0.1-0.3-0.3c0-0.2,0.1-0.3,0.3-0.3S368.5,175.3,368.5,175.5z"/>
<path d="M374.2,175.5c0,0.2-0.1,0.3-0.3,0.3s-0.3-0.1-0.3-0.3c0-0.2,0.1-0.3,0.3-0.3S374.2,175.3,374.2,175.5z"/>
<path d="M311.8,186.8c0,0.2-0.1,0.3-0.3,0.3s-0.3-0.1-0.3-0.3s0.1-0.3,0.3-0.3S311.8,186.6,311.8,186.8z"/>
<path d="M317.5,186.8c0,0.2-0.1,0.3-0.3,0.3s-0.3-0.1-0.3-0.3s0.1-0.3,0.3-0.3S317.5,186.6,317.5,186.8z"/>
<path d="M323.1,186.8c0,0.2-0.1,0.3-0.3,0.3s-0.3-0.1-0.3-0.3s0.1-0.3,0.3-0.3S323.1,186.6,323.1,186.8z"/>
<path d="M328.8,186.8c0,0.2-0.1,0.3-0.3,0.3s-0.3-0.1-0.3-0.3s0.1-0.3,0.3-0.3S328.8,186.6,328.8,186.8z"/>
<path d="M334.5,186.8c0,0.2-0.1,0.3-0.3,0.3c-0.2,0-0.3-0.1-0.3-0.3s0.1-0.3,0.3-0.3C334.4,186.5,334.5,186.6,334.5,186.8z"/>
<path d="M340.2,186.8c0,0.2-0.1,0.3-0.3,0.3c-0.2,0-0.3-0.1-0.3-0.3s0.1-0.3,0.3-0.3C340,186.5,340.2,186.6,340.2,186.8z"/>
<path d="M345.8,186.8c0,0.2-0.1,0.3-0.3,0.3s-0.3-0.1-0.3-0.3s0.1-0.3,0.3-0.3S345.8,186.6,345.8,186.8z"/>
<path d="M351.5,186.8c0,0.2-0.1,0.3-0.3,0.3s-0.3-0.1-0.3-0.3s0.1-0.3,0.3-0.3S351.5,186.6,351.5,186.8z"/>
<path d="M357.2,186.8c0,0.2-0.1,0.3-0.3,0.3s-0.3-0.1-0.3-0.3s0.1-0.3,0.3-0.3S357.2,186.6,357.2,186.8z"/>
<path d="M362.8,186.8c0,0.2-0.1,0.3-0.3,0.3s-0.3-0.1-0.3-0.3s0.1-0.3,0.3-0.3S362.8,186.6,362.8,186.8z"/>
<path d="M368.5,186.8c0,0.2-0.1,0.3-0.3,0.3s-0.3-0.1-0.3-0.3s0.1-0.3,0.3-0.3S368.5,186.6,368.5,186.8z"/>
<path d="M374.2,186.8c0,0.2-0.1,0.3-0.3,0.3s-0.3-0.1-0.3-0.3s0.1-0.3,0.3-0.3S374.2,186.6,374.2,186.8z"/>
<path d="M311.8,198.1c0,0.2-0.1,0.3-0.3,0.3s-0.3-0.1-0.3-0.3c0-0.2,0.1-0.3,0.3-0.3S311.8,198,311.8,198.1z"/>
<path d="M317.5,198.1c0,0.2-0.1,0.3-0.3,0.3s-0.3-0.1-0.3-0.3c0-0.2,0.1-0.3,0.3-0.3S317.5,198,317.5,198.1z"/>
<path d="M323.1,198.1c0,0.2-0.1,0.3-0.3,0.3s-0.3-0.1-0.3-0.3c0-0.2,0.1-0.3,0.3-0.3S323.1,198,323.1,198.1z"/>
<path d="M328.8,198.1c0,0.2-0.1,0.3-0.3,0.3s-0.3-0.1-0.3-0.3c0-0.2,0.1-0.3,0.3-0.3S328.8,198,328.8,198.1z"/>
<path d="M334.5,198.1c0,0.2-0.1,0.3-0.3,0.3c-0.2,0-0.3-0.1-0.3-0.3c0-0.2,0.1-0.3,0.3-0.3C334.4,197.9,334.5,198,334.5,198.1z"/>
<path d="M340.2,198.1c0,0.2-0.1,0.3-0.3,0.3c-0.2,0-0.3-0.1-0.3-0.3c0-0.2,0.1-0.3,0.3-0.3C340,197.9,340.2,198,340.2,198.1z"/>
<path d="M345.8,198.1c0,0.2-0.1,0.3-0.3,0.3s-0.3-0.1-0.3-0.3c0-0.2,0.1-0.3,0.3-0.3S345.8,198,345.8,198.1z"/>
<path d="M351.5,198.1c0,0.2-0.1,0.3-0.3,0.3s-0.3-0.1-0.3-0.3c0-0.2,0.1-0.3,0.3-0.3S351.5,198,351.5,198.1z"/>
<path d="M357.2,198.1c0,0.2-0.1,0.3-0.3,0.3s-0.3-0.1-0.3-0.3c0-0.2,0.1-0.3,0.3-0.3S357.2,198,357.2,198.1z"/>
<path d="M362.8,198.1c0,0.2-0.1,0.3-0.3,0.3s-0.3-0.1-0.3-0.3c0-0.2,0.1-0.3,0.3-0.3S362.8,198,362.8,198.1z"/>
<path d="M368.5,198.1c0,0.2-0.1,0.3-0.3,0.3s-0.3-0.1-0.3-0.3c0-0.2,0.1-0.3,0.3-0.3S368.5,198,368.5,198.1z"/>
<path d="M374.2,198.1c0,0.2-0.1,0.3-0.3,0.3s-0.3-0.1-0.3-0.3c0-0.2,0.1-0.3,0.3-0.3S374.2,198,374.2,198.1z"/>
<path d="M311.8,209.5c0,0.2-0.1,0.3-0.3,0.3s-0.3-0.1-0.3-0.3s0.1-0.3,0.3-0.3S311.8,209.3,311.8,209.5z"/>
<path d="M317.5,209.5c0,0.2-0.1,0.3-0.3,0.3s-0.3-0.1-0.3-0.3s0.1-0.3,0.3-0.3S317.5,209.3,317.5,209.5z"/>
<path d="M323.1,209.5c0,0.2-0.1,0.3-0.3,0.3s-0.3-0.1-0.3-0.3s0.1-0.3,0.3-0.3S323.1,209.3,323.1,209.5z"/>
<path d="M328.8,209.5c0,0.2-0.1,0.3-0.3,0.3s-0.3-0.1-0.3-0.3s0.1-0.3,0.3-0.3S328.8,209.3,328.8,209.5z"/>
<path d="M334.5,209.5c0,0.2-0.1,0.3-0.3,0.3c-0.2,0-0.3-0.1-0.3-0.3s0.1-0.3,0.3-0.3C334.4,209.2,334.5,209.3,334.5,209.5z"/>
<path d="M340.2,209.5c0,0.2-0.1,0.3-0.3,0.3c-0.2,0-0.3-0.1-0.3-0.3s0.1-0.3,0.3-0.3C340,209.2,340.2,209.3,340.2,209.5z"/>
<path d="M345.8,209.5c0,0.2-0.1,0.3-0.3,0.3s-0.3-0.1-0.3-0.3s0.1-0.3,0.3-0.3S345.8,209.3,345.8,209.5z"/>
<path d="M351.5,209.5c0,0.2-0.1,0.3-0.3,0.3s-0.3-0.1-0.3-0.3s0.1-0.3,0.3-0.3S351.5,209.3,351.5,209.5z"/>
<path d="M357.2,209.5c0,0.2-0.1,0.3-0.3,0.3s-0.3-0.1-0.3-0.3s0.1-0.3,0.3-0.3S357.2,209.3,357.2,209.5z"/>
<path d="M362.8,209.5c0,0.2-0.1,0.3-0.3,0.3s-0.3-0.1-0.3-0.3s0.1-0.3,0.3-0.3S362.8,209.3,362.8,209.5z"/>
<path d="M368.5,209.5c0,0.2-0.1,0.3-0.3,0.3s-0.3-0.1-0.3-0.3s0.1-0.3,0.3-0.3S368.5,209.3,368.5,209.5z"/>
<path d="M374.2,209.5c0,0.2-0.1,0.3-0.3,0.3s-0.3-0.1-0.3-0.3s0.1-0.3,0.3-0.3S374.2,209.3,374.2,209.5z"/>
<path d="M311.8,220.8c0,0.2-0.1,0.3-0.3,0.3s-0.3-0.1-0.3-0.3c0-0.2,0.1-0.3,0.3-0.3S311.8,220.7,311.8,220.8z"/>
<path d="M317.5,220.8c0,0.2-0.1,0.3-0.3,0.3s-0.3-0.1-0.3-0.3c0-0.2,0.1-0.3,0.3-0.3S317.5,220.7,317.5,220.8z"/>
<path d="M323.1,220.8c0,0.2-0.1,0.3-0.3,0.3s-0.3-0.1-0.3-0.3c0-0.2,0.1-0.3,0.3-0.3S323.1,220.7,323.1,220.8z"/>
<path d="M328.8,220.8c0,0.2-0.1,0.3-0.3,0.3s-0.3-0.1-0.3-0.3c0-0.2,0.1-0.3,0.3-0.3S328.8,220.7,328.8,220.8z"/>
<path d="M334.5,220.8c0,0.2-0.1,0.3-0.3,0.3c-0.2,0-0.3-0.1-0.3-0.3c0-0.2,0.1-0.3,0.3-0.3C334.4,220.5,334.5,220.7,334.5,220.8z"/>
<path d="M340.2,220.8c0,0.2-0.1,0.3-0.3,0.3c-0.2,0-0.3-0.1-0.3-0.3c0-0.2,0.1-0.3,0.3-0.3C340,220.5,340.2,220.7,340.2,220.8z"/>
<path d="M345.8,220.8c0,0.2-0.1,0.3-0.3,0.3s-0.3-0.1-0.3-0.3c0-0.2,0.1-0.3,0.3-0.3S345.8,220.7,345.8,220.8z"/>
<path d="M351.5,220.8c0,0.2-0.1,0.3-0.3,0.3s-0.3-0.1-0.3-0.3c0-0.2,0.1-0.3,0.3-0.3S351.5,220.7,351.5,220.8z"/>
<path d="M357.2,220.8c0,0.2-0.1,0.3-0.3,0.3s-0.3-0.1-0.3-0.3c0-0.2,0.1-0.3,0.3-0.3S357.2,220.7,357.2,220.8z"/>
<path d="M362.8,220.8c0,0.2-0.1,0.3-0.3,0.3s-0.3-0.1-0.3-0.3c0-0.2,0.1-0.3,0.3-0.3S362.8,220.7,362.8,220.8z"/>
<path d="M368.5,220.8c0,0.2-0.1,0.3-0.3,0.3s-0.3-0.1-0.3-0.3c0-0.2,0.1-0.3,0.3-0.3S368.5,220.7,368.5,220.8z"/>
<path d="M374.2,220.8c0,0.2-0.1,0.3-0.3,0.3s-0.3-0.1-0.3-0.3c0-0.2,0.1-0.3,0.3-0.3S374.2,220.7,374.2,220.8z"/>
<path d="M311.8,232.2c0,0.2-0.1,0.3-0.3,0.3s-0.3-0.1-0.3-0.3s0.1-0.3,0.3-0.3S311.8,232,311.8,232.2z"/>
<path d="M317.5,232.2c0,0.2-0.1,0.3-0.3,0.3s-0.3-0.1-0.3-0.3s0.1-0.3,0.3-0.3S317.5,232,317.5,232.2z"/>
<path d="M323.1,232.2c0,0.2-0.1,0.3-0.3,0.3s-0.3-0.1-0.3-0.3s0.1-0.3,0.3-0.3S323.1,232,323.1,232.2z"/>
<path d="M328.8,232.2c0,0.2-0.1,0.3-0.3,0.3s-0.3-0.1-0.3-0.3s0.1-0.3,0.3-0.3S328.8,232,328.8,232.2z"/>
<path d="M334.5,232.2c0,0.2-0.1,0.3-0.3,0.3c-0.2,0-0.3-0.1-0.3-0.3s0.1-0.3,0.3-0.3C334.4,231.9,334.5,232,334.5,232.2z"/>
<path d="M340.2,232.2c0,0.2-0.1,0.3-0.3,0.3c-0.2,0-0.3-0.1-0.3-0.3s0.1-0.3,0.3-0.3C340,231.9,340.2,232,340.2,232.2z"/>
<path d="M345.8,232.2c0,0.2-0.1,0.3-0.3,0.3s-0.3-0.1-0.3-0.3s0.1-0.3,0.3-0.3S345.8,232,345.8,232.2z"/>
<path d="M351.5,232.2c0,0.2-0.1,0.3-0.3,0.3s-0.3-0.1-0.3-0.3s0.1-0.3,0.3-0.3S351.5,232,351.5,232.2z"/>
<path d="M357.2,232.2c0,0.2-0.1,0.3-0.3,0.3s-0.3-0.1-0.3-0.3s0.1-0.3,0.3-0.3S357.2,232,357.2,232.2z"/>
<path d="M362.8,232.2c0,0.2-0.1,0.3-0.3,0.3s-0.3-0.1-0.3-0.3s0.1-0.3,0.3-0.3S362.8,232,362.8,232.2z"/>
<path d="M368.5,232.2c0,0.2-0.1,0.3-0.3,0.3s-0.3-0.1-0.3-0.3s0.1-0.3,0.3-0.3S368.5,232,368.5,232.2z"/>
<path d="M374.2,232.2c0,0.2-0.1,0.3-0.3,0.3s-0.3-0.1-0.3-0.3s0.1-0.3,0.3-0.3S374.2,232,374.2,232.2z"/>
<path d="M311.8,252c0,0.2-0.1,0.3-0.3,0.3s-0.3-0.1-0.3-0.3c0-0.2,0.1-0.3,0.3-0.3S311.8,251.8,311.8,252z"/>
<path d="M317.5,252c0,0.2-0.1,0.3-0.3,0.3s-0.3-0.1-0.3-0.3c0-0.2,0.1-0.3,0.3-0.3S317.5,251.8,317.5,252z"/>
<path d="M323.1,252c0,0.2-0.1,0.3-0.3,0.3s-0.3-0.1-0.3-0.3c0-0.2,0.1-0.3,0.3-0.3S323.1,251.8,323.1,252z"/>
<path d="M328.8,252c0,0.2-0.1,0.3-0.3,0.3s-0.3-0.1-0.3-0.3c0-0.2,0.1-0.3,0.3-0.3S328.8,251.8,328.8,252z"/>
<path d="M334.5,252c0,0.2-0.1,0.3-0.3,0.3c-0.2,0-0.3-0.1-0.3-0.3c0-0.2,0.1-0.3,0.3-0.3C334.4,251.7,334.5,251.8,334.5,252z"/>
<path d="M340.2,252c0,0.2-0.1,0.3-0.3,0.3c-0.2,0-0.3-0.1-0.3-0.3c0-0.2,0.1-0.3,0.3-0.3C340,251.7,340.2,251.8,340.2,252z"/>
<path d="M345.8,252c0,0.2-0.1,0.3-0.3,0.3s-0.3-0.1-0.3-0.3c0-0.2,0.1-0.3,0.3-0.3S345.8,251.8,345.8,252z"/>
<path d="M351.5,252c0,0.2-0.1,0.3-0.3,0.3s-0.3-0.1-0.3-0.3c0-0.2,0.1-0.3,0.3-0.3S351.5,251.8,351.5,252z"/>
<path d="M357.2,252c0,0.2-0.1,0.3-0.3,0.3s-0.3-0.1-0.3-0.3c0-0.2,0.1-0.3,0.3-0.3S357.2,251.8,357.2,252z"/>
<path d="M362.8,252c0,0.2-0.1,0.3-0.3,0.3s-0.3-0.1-0.3-0.3c0-0.2,0.1-0.3,0.3-0.3S362.8,251.8,362.8,252z"/>
<path d="M368.5,252c0,0.2-0.1,0.3-0.3,0.3s-0.3-0.1-0.3-0.3c0-0.2,0.1-0.3,0.3-0.3S368.5,251.8,368.5,252z"/>
<path d="M374.2,252c0,0.2-0.1,0.3-0.3,0.3s-0.3-0.1-0.3-0.3c0-0.2,0.1-0.3,0.3-0.3S374.2,251.8,374.2,252z"/>
<path d="M311.8,263.3c0,0.2-0.1,0.3-0.3,0.3s-0.3-0.1-0.3-0.3c0-0.2,0.1-0.3,0.3-0.3S311.8,263.2,311.8,263.3z"/>
<path d="M317.5,263.3c0,0.2-0.1,0.3-0.3,0.3s-0.3-0.1-0.3-0.3s0.1-0.3,0.3-0.3S317.5,263.2,317.5,263.3z"/>
<path d="M323.1,263.3c0,0.2-0.1,0.3-0.3,0.3s-0.3-0.1-0.3-0.3c0-0.2,0.1-0.3,0.3-0.3S323.1,263.2,323.1,263.3z"/>
<path d="M328.8,263.3c0,0.2-0.1,0.3-0.3,0.3s-0.3-0.1-0.3-0.3s0.1-0.3,0.3-0.3S328.8,263.2,328.8,263.3z"/>
<path d="M334.5,263.3c0,0.2-0.1,0.3-0.3,0.3c-0.2,0-0.3-0.1-0.3-0.3c0-0.2,0.1-0.3,0.3-0.3C334.4,263.1,334.5,263.2,334.5,263.3z"/>
<path d="M340.2,263.3c0,0.2-0.1,0.3-0.3,0.3c-0.2,0-0.3-0.1-0.3-0.3s0.1-0.3,0.3-0.3C340,263.1,340.2,263.2,340.2,263.3z"/>
<path d="M345.8,263.3c0,0.2-0.1,0.3-0.3,0.3s-0.3-0.1-0.3-0.3c0-0.2,0.1-0.3,0.3-0.3S345.8,263.2,345.8,263.3z"/>
<path d="M351.5,263.3c0,0.2-0.1,0.3-0.3,0.3s-0.3-0.1-0.3-0.3s0.1-0.3,0.3-0.3S351.5,263.2,351.5,263.3z"/>
<path d="M357.2,263.3c0,0.2-0.1,0.3-0.3,0.3s-0.3-0.1-0.3-0.3c0-0.2,0.1-0.3,0.3-0.3S357.2,263.2,357.2,263.3z"/>
<path d="M362.8,263.3c0,0.2-0.1,0.3-0.3,0.3s-0.3-0.1-0.3-0.3s0.1-0.3,0.3-0.3S362.8,263.2,362.8,263.3z"/>
<path d="M368.5,263.3c0,0.2-0.1,0.3-0.3,0.3s-0.3-0.1-0.3-0.3c0-0.2,0.1-0.3,0.3-0.3S368.5,263.2,368.5,263.3z"/>
<path d="M374.2,263.3c0,0.2-0.1,0.3-0.3,0.3s-0.3-0.1-0.3-0.3s0.1-0.3,0.3-0.3S374.2,263.2,374.2,263.3z"/>
<path d="M311.8,274.7c0,0.2-0.1,0.3-0.3,0.3s-0.3-0.1-0.3-0.3s0.1-0.3,0.3-0.3S311.8,274.5,311.8,274.7z"/>
<path d="M317.5,274.7c0,0.2-0.1,0.3-0.3,0.3s-0.3-0.1-0.3-0.3s0.1-0.3,0.3-0.3S317.5,274.5,317.5,274.7z"/>
<path d="M323.1,274.7c0,0.2-0.1,0.3-0.3,0.3s-0.3-0.1-0.3-0.3s0.1-0.3,0.3-0.3S323.1,274.5,323.1,274.7z"/>
<path d="M328.8,274.7c0,0.2-0.1,0.3-0.3,0.3s-0.3-0.1-0.3-0.3s0.1-0.3,0.3-0.3S328.8,274.5,328.8,274.7z"/>
<path d="M334.5,274.7c0,0.2-0.1,0.3-0.3,0.3c-0.2,0-0.3-0.1-0.3-0.3s0.1-0.3,0.3-0.3C334.4,274.4,334.5,274.5,334.5,274.7z"/>
<path d="M340.2,274.7c0,0.2-0.1,0.3-0.3,0.3c-0.2,0-0.3-0.1-0.3-0.3s0.1-0.3,0.3-0.3C340,274.4,340.2,274.5,340.2,274.7z"/>
<path d="M345.8,274.7c0,0.2-0.1,0.3-0.3,0.3s-0.3-0.1-0.3-0.3s0.1-0.3,0.3-0.3S345.8,274.5,345.8,274.7z"/>
<path d="M351.5,274.7c0,0.2-0.1,0.3-0.3,0.3s-0.3-0.1-0.3-0.3s0.1-0.3,0.3-0.3S351.5,274.5,351.5,274.7z"/>
<path d="M357.2,274.7c0,0.2-0.1,0.3-0.3,0.3s-0.3-0.1-0.3-0.3s0.1-0.3,0.3-0.3S357.2,274.5,357.2,274.7z"/>
<path d="M362.8,274.7c0,0.2-0.1,0.3-0.3,0.3s-0.3-0.1-0.3-0.3s0.1-0.3,0.3-0.3S362.8,274.5,362.8,274.7z"/>
<path d="M368.5,274.7c0,0.2-0.1,0.3-0.3,0.3s-0.3-0.1-0.3-0.3s0.1-0.3,0.3-0.3S368.5,274.5,368.5,274.7z"/>
<path d="M374.2,274.7c0,0.2-0.1,0.3-0.3,0.3s-0.3-0.1-0.3-0.3s0.1-0.3,0.3-0.3S374.2,274.5,374.2,274.7z"/>
<path d="M311.8,286c0,0.2-0.1,0.3-0.3,0.3s-0.3-0.1-0.3-0.3s0.1-0.3,0.3-0.3S311.8,285.9,311.8,286z"/>
<path d="M317.5,286c0,0.2-0.1,0.3-0.3,0.3s-0.3-0.1-0.3-0.3c0-0.2,0.1-0.3,0.3-0.3S317.5,285.9,317.5,286z"/>
<path d="M323.1,286c0,0.2-0.1,0.3-0.3,0.3s-0.3-0.1-0.3-0.3s0.1-0.3,0.3-0.3S323.1,285.9,323.1,286z"/>
<path d="M328.8,286c0,0.2-0.1,0.3-0.3,0.3s-0.3-0.1-0.3-0.3c0-0.2,0.1-0.3,0.3-0.3S328.8,285.9,328.8,286z"/>
<path d="M334.5,286c0,0.2-0.1,0.3-0.3,0.3c-0.2,0-0.3-0.1-0.3-0.3s0.1-0.3,0.3-0.3C334.4,285.7,334.5,285.9,334.5,286z"/>
<path d="M340.2,286c0,0.2-0.1,0.3-0.3,0.3c-0.2,0-0.3-0.1-0.3-0.3c0-0.2,0.1-0.3,0.3-0.3C340,285.7,340.2,285.9,340.2,286z"/>
<path d="M345.8,286c0,0.2-0.1,0.3-0.3,0.3s-0.3-0.1-0.3-0.3s0.1-0.3,0.3-0.3S345.8,285.9,345.8,286z"/>
<path d="M351.5,286c0,0.2-0.1,0.3-0.3,0.3s-0.3-0.1-0.3-0.3c0-0.2,0.1-0.3,0.3-0.3S351.5,285.9,351.5,286z"/>
<path d="M357.2,286c0,0.2-0.1,0.3-0.3,0.3s-0.3-0.1-0.3-0.3s0.1-0.3,0.3-0.3S357.2,285.9,357.2,286z"/>
<path d="M362.8,286c0,0.2-0.1,0.3-0.3,0.3s-0.3-0.1-0.3-0.3c0-0.2,0.1-0.3,0.3-0.3S362.8,285.9,362.8,286z"/>
<path d="M368.5,286c0,0.2-0.1,0.3-0.3,0.3s-0.3-0.1-0.3-0.3s0.1-0.3,0.3-0.3S368.5,285.9,368.5,286z"/>
<path d="M374.2,286c0,0.2-0.1,0.3-0.3,0.3s-0.3-0.1-0.3-0.3c0-0.2,0.1-0.3,0.3-0.3S374.2,285.9,374.2,286z"/>
<path d="M311.8,297.4c0,0.2-0.1,0.3-0.3,0.3s-0.3-0.1-0.3-0.3s0.1-0.3,0.3-0.3S311.8,297.2,311.8,297.4z"/>
<path d="M317.5,297.4c0,0.2-0.1,0.3-0.3,0.3s-0.3-0.1-0.3-0.3s0.1-0.3,0.3-0.3S317.5,297.2,317.5,297.4z"/>
<path d="M323.1,297.4c0,0.2-0.1,0.3-0.3,0.3s-0.3-0.1-0.3-0.3s0.1-0.3,0.3-0.3S323.1,297.2,323.1,297.4z"/>
<path d="M328.8,297.4c0,0.2-0.1,0.3-0.3,0.3s-0.3-0.1-0.3-0.3s0.1-0.3,0.3-0.3S328.8,297.2,328.8,297.4z"/>
<path d="M334.5,297.4c0,0.2-0.1,0.3-0.3,0.3c-0.2,0-0.3-0.1-0.3-0.3s0.1-0.3,0.3-0.3C334.4,297.1,334.5,297.2,334.5,297.4z"/>
<path d="M340.2,297.4c0,0.2-0.1,0.3-0.3,0.3c-0.2,0-0.3-0.1-0.3-0.3s0.1-0.3,0.3-0.3C340,297.1,340.2,297.2,340.2,297.4z"/>
<path d="M345.8,297.4c0,0.2-0.1,0.3-0.3,0.3s-0.3-0.1-0.3-0.3s0.1-0.3,0.3-0.3S345.8,297.2,345.8,297.4z"/>
<path d="M351.5,297.4c0,0.2-0.1,0.3-0.3,0.3s-0.3-0.1-0.3-0.3s0.1-0.3,0.3-0.3S351.5,297.2,351.5,297.4z"/>
<path d="M357.2,297.4c0,0.2-0.1,0.3-0.3,0.3s-0.3-0.1-0.3-0.3s0.1-0.3,0.3-0.3S357.2,297.2,357.2,297.4z"/>
<path d="M362.8,297.4c0,0.2-0.1,0.3-0.3,0.3s-0.3-0.1-0.3-0.3s0.1-0.3,0.3-0.3S362.8,297.2,362.8,297.4z"/>
<path d="M368.5,297.4c0,0.2-0.1,0.3-0.3,0.3s-0.3-0.1-0.3-0.3s0.1-0.3,0.3-0.3S368.5,297.2,368.5,297.4z"/>
<path d="M374.2,297.4c0,0.2-0.1,0.3-0.3,0.3s-0.3-0.1-0.3-0.3s0.1-0.3,0.3-0.3S374.2,297.2,374.2,297.4z"/>
<path d="M311.8,308.7c0,0.2-0.1,0.3-0.3,0.3s-0.3-0.1-0.3-0.3c0-0.2,0.1-0.3,0.3-0.3S311.8,308.5,311.8,308.7z"/>
<path d="M317.5,308.7c0,0.2-0.1,0.3-0.3,0.3s-0.3-0.1-0.3-0.3s0.1-0.3,0.3-0.3S317.5,308.5,317.5,308.7z"/>
<path d="M323.1,308.7c0,0.2-0.1,0.3-0.3,0.3s-0.3-0.1-0.3-0.3c0-0.2,0.1-0.3,0.3-0.3S323.1,308.5,323.1,308.7z"/>
<path d="M328.8,308.7c0,0.2-0.1,0.3-0.3,0.3s-0.3-0.1-0.3-0.3s0.1-0.3,0.3-0.3S328.8,308.5,328.8,308.7z"/>
<path d="M334.5,308.7c0,0.2-0.1,0.3-0.3,0.3c-0.2,0-0.3-0.1-0.3-0.3c0-0.2,0.1-0.3,0.3-0.3C334.4,308.4,334.5,308.5,334.5,308.7z"/>
<path d="M340.2,308.7c0,0.2-0.1,0.3-0.3,0.3c-0.2,0-0.3-0.1-0.3-0.3s0.1-0.3,0.3-0.3C340,308.4,340.2,308.5,340.2,308.7z"/>
<path d="M345.8,308.7c0,0.2-0.1,0.3-0.3,0.3s-0.3-0.1-0.3-0.3c0-0.2,0.1-0.3,0.3-0.3S345.8,308.5,345.8,308.7z"/>
<path d="M351.5,308.7c0,0.2-0.1,0.3-0.3,0.3s-0.3-0.1-0.3-0.3s0.1-0.3,0.3-0.3S351.5,308.5,351.5,308.7z"/>
<path d="M357.2,308.7c0,0.2-0.1,0.3-0.3,0.3s-0.3-0.1-0.3-0.3c0-0.2,0.1-0.3,0.3-0.3S357.2,308.5,357.2,308.7z"/>
<path d="M362.8,308.7c0,0.2-0.1,0.3-0.3,0.3s-0.3-0.1-0.3-0.3s0.1-0.3,0.3-0.3S362.8,308.5,362.8,308.7z"/>
<path d="M368.5,308.7c0,0.2-0.1,0.3-0.3,0.3s-0.3-0.1-0.3-0.3c0-0.2,0.1-0.3,0.3-0.3S368.5,308.5,368.5,308.7z"/>
<path d="M374.2,308.7c0,0.2-0.1,0.3-0.3,0.3s-0.3-0.1-0.3-0.3s0.1-0.3,0.3-0.3S374.2,308.5,374.2,308.7z"/>
<path d="M311.8,328.5c0,0.2-0.1,0.3-0.3,0.3s-0.3-0.1-0.3-0.3s0.1-0.3,0.3-0.3S311.8,328.4,311.8,328.5z"/>
<path d="M317.5,328.5c0,0.2-0.1,0.3-0.3,0.3s-0.3-0.1-0.3-0.3s0.1-0.3,0.3-0.3S317.5,328.4,317.5,328.5z"/>
<path d="M323.1,328.5c0,0.2-0.1,0.3-0.3,0.3s-0.3-0.1-0.3-0.3s0.1-0.3,0.3-0.3S323.1,328.4,323.1,328.5z"/>
<path d="M328.8,328.5c0,0.2-0.1,0.3-0.3,0.3s-0.3-0.1-0.3-0.3s0.1-0.3,0.3-0.3S328.8,328.4,328.8,328.5z"/>
<path d="M334.5,328.5c0,0.2-0.1,0.3-0.3,0.3c-0.2,0-0.3-0.1-0.3-0.3s0.1-0.3,0.3-0.3C334.4,328.3,334.5,328.4,334.5,328.5z"/>
<path d="M340.2,328.5c0,0.2-0.1,0.3-0.3,0.3c-0.2,0-0.3-0.1-0.3-0.3s0.1-0.3,0.3-0.3C340,328.3,340.2,328.4,340.2,328.5z"/>
<path d="M345.8,328.5c0,0.2-0.1,0.3-0.3,0.3s-0.3-0.1-0.3-0.3s0.1-0.3,0.3-0.3S345.8,328.4,345.8,328.5z"/>
<path d="M351.5,328.5c0,0.2-0.1,0.3-0.3,0.3s-0.3-0.1-0.3-0.3s0.1-0.3,0.3-0.3S351.5,328.4,351.5,328.5z"/>
<path d="M357.2,328.5c0,0.2-0.1,0.3-0.3,0.3s-0.3-0.1-0.3-0.3s0.1-0.3,0.3-0.3S357.2,328.4,357.2,328.5z"/>
<path d="M362.8,328.5c0,0.2-0.1,0.3-0.3,0.3s-0.3-0.1-0.3-0.3s0.1-0.3,0.3-0.3S362.8,328.4,362.8,328.5z"/>
<path d="M368.5,328.5c0,0.2-0.1,0.3-0.3,0.3s-0.3-0.1-0.3-0.3s0.1-0.3,0.3-0.3S368.5,328.4,368.5,328.5z"/>
<path d="M374.2,328.5c0,0.2-0.1,0.3-0.3,0.3s-0.3-0.1-0.3-0.3s0.1-0.3,0.3-0.3S374.2,328.4,374.2,328.5z"/>
<path d="M311.8,339.9c0,0.2-0.1,0.3-0.3,0.3s-0.3-0.1-0.3-0.3c0-0.2,0.1-0.3,0.3-0.3S311.8,339.7,311.8,339.9z"/>
<path d="M317.5,339.9c0,0.2-0.1,0.3-0.3,0.3s-0.3-0.1-0.3-0.3s0.1-0.3,0.3-0.3S317.5,339.7,317.5,339.9z"/>
<path d="M323.1,339.9c0,0.2-0.1,0.3-0.3,0.3s-0.3-0.1-0.3-0.3c0-0.2,0.1-0.3,0.3-0.3S323.1,339.7,323.1,339.9z"/>
<path d="M328.8,339.9c0,0.2-0.1,0.3-0.3,0.3s-0.3-0.1-0.3-0.3s0.1-0.3,0.3-0.3S328.8,339.7,328.8,339.9z"/>
<path d="M334.5,339.9c0,0.2-0.1,0.3-0.3,0.3c-0.2,0-0.3-0.1-0.3-0.3c0-0.2,0.1-0.3,0.3-0.3C334.4,339.6,334.5,339.7,334.5,339.9z"/>
<path d="M340.2,339.9c0,0.2-0.1,0.3-0.3,0.3c-0.2,0-0.3-0.1-0.3-0.3s0.1-0.3,0.3-0.3C340,339.6,340.2,339.7,340.2,339.9z"/>
<path d="M345.8,339.9c0,0.2-0.1,0.3-0.3,0.3s-0.3-0.1-0.3-0.3c0-0.2,0.1-0.3,0.3-0.3S345.8,339.7,345.8,339.9z"/>
<path d="M351.5,339.9c0,0.2-0.1,0.3-0.3,0.3s-0.3-0.1-0.3-0.3s0.1-0.3,0.3-0.3S351.5,339.7,351.5,339.9z"/>
<path d="M357.2,339.9c0,0.2-0.1,0.3-0.3,0.3s-0.3-0.1-0.3-0.3c0-0.2,0.1-0.3,0.3-0.3S357.2,339.7,357.2,339.9z"/>
<path d="M362.8,339.9c0,0.2-0.1,0.3-0.3,0.3s-0.3-0.1-0.3-0.3s0.1-0.3,0.3-0.3S362.8,339.7,362.8,339.9z"/>
<path d="M368.5,339.9c0,0.2-0.1,0.3-0.3,0.3s-0.3-0.1-0.3-0.3c0-0.2,0.1-0.3,0.3-0.3S368.5,339.7,368.5,339.9z"/>
<path d="M374.2,339.9c0,0.2-0.1,0.3-0.3,0.3s-0.3-0.1-0.3-0.3s0.1-0.3,0.3-0.3S374.2,339.7,374.2,339.9z"/>
<path d="M311.8,351.2c0,0.2-0.1,0.3-0.3,0.3s-0.3-0.1-0.3-0.3s0.1-0.3,0.3-0.3S311.8,351.1,311.8,351.2z"/>
<path d="M317.5,351.2c0,0.2-0.1,0.3-0.3,0.3s-0.3-0.1-0.3-0.3s0.1-0.3,0.3-0.3S317.5,351.1,317.5,351.2z"/>
<path d="M323.1,351.2c0,0.2-0.1,0.3-0.3,0.3s-0.3-0.1-0.3-0.3s0.1-0.3,0.3-0.3S323.1,351.1,323.1,351.2z"/>
<path d="M328.8,351.2c0,0.2-0.1,0.3-0.3,0.3s-0.3-0.1-0.3-0.3s0.1-0.3,0.3-0.3S328.8,351.1,328.8,351.2z"/>
<path d="M334.5,351.2c0,0.2-0.1,0.3-0.3,0.3c-0.2,0-0.3-0.1-0.3-0.3s0.1-0.3,0.3-0.3C334.4,350.9,334.5,351.1,334.5,351.2z"/>
<path d="M340.2,351.2c0,0.2-0.1,0.3-0.3,0.3c-0.2,0-0.3-0.1-0.3-0.3s0.1-0.3,0.3-0.3C340,350.9,340.2,351.1,340.2,351.2z"/>
<path d="M345.8,351.2c0,0.2-0.1,0.3-0.3,0.3s-0.3-0.1-0.3-0.3s0.1-0.3,0.3-0.3S345.8,351.1,345.8,351.2z"/>
<path d="M351.5,351.2c0,0.2-0.1,0.3-0.3,0.3s-0.3-0.1-0.3-0.3s0.1-0.3,0.3-0.3S351.5,351.1,351.5,351.2z"/>
<path d="M357.2,351.2c0,0.2-0.1,0.3-0.3,0.3s-0.3-0.1-0.3-0.3s0.1-0.3,0.3-0.3S357.2,351.1,357.2,351.2z"/>
<path d="M362.8,351.2c0,0.2-0.1,0.3-0.3,0.3s-0.3-0.1-0.3-0.3s0.1-0.3,0.3-0.3S362.8,351.1,362.8,351.2z"/>
<path d="M368.5,351.2c0,0.2-0.1,0.3-0.3,0.3s-0.3-0.1-0.3-0.3s0.1-0.3,0.3-0.3S368.5,351.1,368.5,351.2z"/>
<path d="M374.2,351.2c0,0.2-0.1,0.3-0.3,0.3s-0.3-0.1-0.3-0.3s0.1-0.3,0.3-0.3S374.2,351.1,374.2,351.2z"/>
<path d="M311.8,362.6c0,0.2-0.1,0.3-0.3,0.3s-0.3-0.1-0.3-0.3s0.1-0.3,0.3-0.3S311.8,362.4,311.8,362.6z"/>
<path d="M317.5,362.6c0,0.2-0.1,0.3-0.3,0.3s-0.3-0.1-0.3-0.3c0-0.2,0.1-0.3,0.3-0.3S317.5,362.4,317.5,362.6z"/>
<path d="M323.1,362.6c0,0.2-0.1,0.3-0.3,0.3s-0.3-0.1-0.3-0.3s0.1-0.3,0.3-0.3S323.1,362.4,323.1,362.6z"/>
<path d="M328.8,362.6c0,0.2-0.1,0.3-0.3,0.3s-0.3-0.1-0.3-0.3c0-0.2,0.1-0.3,0.3-0.3S328.8,362.4,328.8,362.6z"/>
<path d="M334.5,362.6c0,0.2-0.1,0.3-0.3,0.3c-0.2,0-0.3-0.1-0.3-0.3s0.1-0.3,0.3-0.3C334.4,362.3,334.5,362.4,334.5,362.6z"/>
<path d="M340.2,362.6c0,0.2-0.1,0.3-0.3,0.3c-0.2,0-0.3-0.1-0.3-0.3c0-0.2,0.1-0.3,0.3-0.3C340,362.3,340.2,362.4,340.2,362.6z"/>
<path d="M345.8,362.6c0,0.2-0.1,0.3-0.3,0.3s-0.3-0.1-0.3-0.3s0.1-0.3,0.3-0.3S345.8,362.4,345.8,362.6z"/>
<path d="M351.5,362.6c0,0.2-0.1,0.3-0.3,0.3s-0.3-0.1-0.3-0.3c0-0.2,0.1-0.3,0.3-0.3S351.5,362.4,351.5,362.6z"/>
<path d="M357.2,362.6c0,0.2-0.1,0.3-0.3,0.3s-0.3-0.1-0.3-0.3s0.1-0.3,0.3-0.3S357.2,362.4,357.2,362.6z"/>
<path d="M362.8,362.6c0,0.2-0.1,0.3-0.3,0.3s-0.3-0.1-0.3-0.3c0-0.2,0.1-0.3,0.3-0.3S362.8,362.4,362.8,362.6z"/>
<path d="M368.5,362.6c0,0.2-0.1,0.3-0.3,0.3s-0.3-0.1-0.3-0.3s0.1-0.3,0.3-0.3S368.5,362.4,368.5,362.6z"/>
<path d="M374.2,362.6c0,0.2-0.1,0.3-0.3,0.3s-0.3-0.1-0.3-0.3c0-0.2,0.1-0.3,0.3-0.3S374.2,362.4,374.2,362.6z"/>
<path d="M311.8,373.9c0,0.2-0.1,0.3-0.3,0.3s-0.3-0.1-0.3-0.3s0.1-0.3,0.3-0.3S311.8,373.7,311.8,373.9z"/>
<path d="M317.5,373.9c0,0.2-0.1,0.3-0.3,0.3s-0.3-0.1-0.3-0.3c0-0.2,0.1-0.3,0.3-0.3S317.5,373.7,317.5,373.9z"/>
<path d="M323.1,373.9c0,0.2-0.1,0.3-0.3,0.3s-0.3-0.1-0.3-0.3s0.1-0.3,0.3-0.3S323.1,373.7,323.1,373.9z"/>
<path d="M328.8,373.9c0,0.2-0.1,0.3-0.3,0.3s-0.3-0.1-0.3-0.3c0-0.2,0.1-0.3,0.3-0.3S328.8,373.7,328.8,373.9z"/>
<path d="M334.5,373.9c0,0.2-0.1,0.3-0.3,0.3c-0.2,0-0.3-0.1-0.3-0.3s0.1-0.3,0.3-0.3C334.4,373.6,334.5,373.7,334.5,373.9z"/>
<path d="M340.2,373.9c0,0.2-0.1,0.3-0.3,0.3c-0.2,0-0.3-0.1-0.3-0.3c0-0.2,0.1-0.3,0.3-0.3C340,373.6,340.2,373.7,340.2,373.9z"/>
<path d="M345.8,373.9c0,0.2-0.1,0.3-0.3,0.3s-0.3-0.1-0.3-0.3s0.1-0.3,0.3-0.3S345.8,373.7,345.8,373.9z"/>
<path d="M351.5,373.9c0,0.2-0.1,0.3-0.3,0.3s-0.3-0.1-0.3-0.3c0-0.2,0.1-0.3,0.3-0.3S351.5,373.7,351.5,373.9z"/>
<path d="M357.2,373.9c0,0.2-0.1,0.3-0.3,0.3s-0.3-0.1-0.3-0.3s0.1-0.3,0.3-0.3S357.2,373.7,357.2,373.9z"/>
<path d="M362.8,373.9c0,0.2-0.1,0.3-0.3,0.3s-0.3-0.1-0.3-0.3c0-0.2,0.1-0.3,0.3-0.3S362.8,373.7,362.8,373.9z"/>
<path d="M368.5,373.9c0,0.2-0.1,0.3-0.3,0.3s-0.3-0.1-0.3-0.3s0.1-0.3,0.3-0.3S368.5,373.7,368.5,373.9z"/>
<path d="M374.2,373.9c0,0.2-0.1,0.3-0.3,0.3s-0.3-0.1-0.3-0.3c0-0.2,0.1-0.3,0.3-0.3S374.2,373.7,374.2,373.9z"/>
<path d="M311.8,385.2c0,0.2-0.1,0.3-0.3,0.3s-0.3-0.1-0.3-0.3c0-0.2,0.1-0.3,0.3-0.3S311.8,385.1,311.8,385.2z"/>
<path d="M317.5,385.2c0,0.2-0.1,0.3-0.3,0.3s-0.3-0.1-0.3-0.3s0.1-0.3,0.3-0.3S317.5,385.1,317.5,385.2z"/>
<path d="M323.1,385.2c0,0.2-0.1,0.3-0.3,0.3s-0.3-0.1-0.3-0.3c0-0.2,0.1-0.3,0.3-0.3S323.1,385.1,323.1,385.2z"/>
<path d="M328.8,385.2c0,0.2-0.1,0.3-0.3,0.3s-0.3-0.1-0.3-0.3s0.1-0.3,0.3-0.3S328.8,385.1,328.8,385.2z"/>
<path d="M334.5,385.2c0,0.2-0.1,0.3-0.3,0.3c-0.2,0-0.3-0.1-0.3-0.3c0-0.2,0.1-0.3,0.3-0.3C334.4,384.9,334.5,385.1,334.5,385.2z"/>
<path d="M340.2,385.2c0,0.2-0.1,0.3-0.3,0.3c-0.2,0-0.3-0.1-0.3-0.3s0.1-0.3,0.3-0.3C340,384.9,340.2,385.1,340.2,385.2z"/>
<path d="M345.8,385.2c0,0.2-0.1,0.3-0.3,0.3s-0.3-0.1-0.3-0.3c0-0.2,0.1-0.3,0.3-0.3S345.8,385.1,345.8,385.2z"/>
<path d="M351.5,385.2c0,0.2-0.1,0.3-0.3,0.3s-0.3-0.1-0.3-0.3s0.1-0.3,0.3-0.3S351.5,385.1,351.5,385.2z"/>
<path d="M357.2,385.2c0,0.2-0.1,0.3-0.3,0.3s-0.3-0.1-0.3-0.3c0-0.2,0.1-0.3,0.3-0.3S357.2,385.1,357.2,385.2z"/>
<path d="M362.8,385.2c0,0.2-0.1,0.3-0.3,0.3s-0.3-0.1-0.3-0.3s0.1-0.3,0.3-0.3S362.8,385.1,362.8,385.2z"/>
<path d="M368.5,385.2c0,0.2-0.1,0.3-0.3,0.3s-0.3-0.1-0.3-0.3c0-0.2,0.1-0.3,0.3-0.3S368.5,385.1,368.5,385.2z"/>
<path d="M374.2,385.2c0,0.2-0.1,0.3-0.3,0.3s-0.3-0.1-0.3-0.3s0.1-0.3,0.3-0.3S374.2,385.1,374.2,385.2z"/>
<path d="M311.8,405.1c0,0.2-0.1,0.3-0.3,0.3s-0.3-0.1-0.3-0.3s0.1-0.3,0.3-0.3S311.8,404.9,311.8,405.1z"/>
<path d="M317.5,405.1c0,0.2-0.1,0.3-0.3,0.3s-0.3-0.1-0.3-0.3c0-0.2,0.1-0.3,0.3-0.3S317.5,404.9,317.5,405.1z"/>
<path d="M323.1,405.1c0,0.2-0.1,0.3-0.3,0.3s-0.3-0.1-0.3-0.3s0.1-0.3,0.3-0.3S323.1,404.9,323.1,405.1z"/>
<path d="M328.8,405.1c0,0.2-0.1,0.3-0.3,0.3s-0.3-0.1-0.3-0.3c0-0.2,0.1-0.3,0.3-0.3S328.8,404.9,328.8,405.1z"/>
<path d="M334.5,405.1c0,0.2-0.1,0.3-0.3,0.3c-0.2,0-0.3-0.1-0.3-0.3s0.1-0.3,0.3-0.3C334.4,404.8,334.5,404.9,334.5,405.1z"/>
<path d="M340.2,405.1c0,0.2-0.1,0.3-0.3,0.3c-0.2,0-0.3-0.1-0.3-0.3c0-0.2,0.1-0.3,0.3-0.3C340,404.8,340.2,404.9,340.2,405.1z"/>
<path d="M345.8,405.1c0,0.2-0.1,0.3-0.3,0.3s-0.3-0.1-0.3-0.3s0.1-0.3,0.3-0.3S345.8,404.9,345.8,405.1z"/>
<path d="M351.5,405.1c0,0.2-0.1,0.3-0.3,0.3s-0.3-0.1-0.3-0.3c0-0.2,0.1-0.3,0.3-0.3S351.5,404.9,351.5,405.1z"/>
<path d="M357.2,405.1c0,0.2-0.1,0.3-0.3,0.3s-0.3-0.1-0.3-0.3s0.1-0.3,0.3-0.3S357.2,404.9,357.2,405.1z"/>
<path d="M362.8,405.1c0,0.2-0.1,0.3-0.3,0.3s-0.3-0.1-0.3-0.3c0-0.2,0.1-0.3,0.3-0.3S362.8,404.9,362.8,405.1z"/>
<path d="M368.5,405.1c0,0.2-0.1,0.3-0.3,0.3s-0.3-0.1-0.3-0.3s0.1-0.3,0.3-0.3S368.5,404.9,368.5,405.1z"/>
<path d="M374.2,405.1c0,0.2-0.1,0.3-0.3,0.3s-0.3-0.1-0.3-0.3c0-0.2,0.1-0.3,0.3-0.3S374.2,404.9,374.2,405.1z"/>
<path d="M311.8,416.4c0,0.2-0.1,0.3-0.3,0.3s-0.3-0.1-0.3-0.3s0.1-0.3,0.3-0.3S311.8,416.3,311.8,416.4z"/>
<path d="M317.5,416.4c0,0.2-0.1,0.3-0.3,0.3s-0.3-0.1-0.3-0.3s0.1-0.3,0.3-0.3S317.5,416.3,317.5,416.4z"/>
<path d="M323.1,416.4c0,0.2-0.1,0.3-0.3,0.3s-0.3-0.1-0.3-0.3s0.1-0.3,0.3-0.3S323.1,416.3,323.1,416.4z"/>
<path d="M328.8,416.4c0,0.2-0.1,0.3-0.3,0.3s-0.3-0.1-0.3-0.3s0.1-0.3,0.3-0.3S328.8,416.3,328.8,416.4z"/>
<path d="M334.5,416.4c0,0.2-0.1,0.3-0.3,0.3c-0.2,0-0.3-0.1-0.3-0.3s0.1-0.3,0.3-0.3C334.4,416.1,334.5,416.3,334.5,416.4z"/>
<path d="M340.2,416.4c0,0.2-0.1,0.3-0.3,0.3c-0.2,0-0.3-0.1-0.3-0.3s0.1-0.3,0.3-0.3C340,416.1,340.2,416.3,340.2,416.4z"/>
<path d="M345.8,416.4c0,0.2-0.1,0.3-0.3,0.3s-0.3-0.1-0.3-0.3s0.1-0.3,0.3-0.3S345.8,416.3,345.8,416.4z"/>
<path d="M351.5,416.4c0,0.2-0.1,0.3-0.3,0.3s-0.3-0.1-0.3-0.3s0.1-0.3,0.3-0.3S351.5,416.3,351.5,416.4z"/>
<path d="M357.2,416.4c0,0.2-0.1,0.3-0.3,0.3s-0.3-0.1-0.3-0.3s0.1-0.3,0.3-0.3S357.2,416.3,357.2,416.4z"/>
<path d="M362.8,416.4c0,0.2-0.1,0.3-0.3,0.3s-0.3-0.1-0.3-0.3s0.1-0.3,0.3-0.3S362.8,416.3,362.8,416.4z"/>
<path d="M368.5,416.4c0,0.2-0.1,0.3-0.3,0.3s-0.3-0.1-0.3-0.3s0.1-0.3,0.3-0.3S368.5,416.3,368.5,416.4z"/>
<path d="M374.2,416.4c0,0.2-0.1,0.3-0.3,0.3s-0.3-0.1-0.3-0.3s0.1-0.3,0.3-0.3S374.2,416.3,374.2,416.4z"/>
<path d="M311.8,427.7c0,0.2-0.1,0.3-0.3,0.3s-0.3-0.1-0.3-0.3c0-0.2,0.1-0.3,0.3-0.3S311.8,427.6,311.8,427.7z"/>
<path d="M317.5,427.7c0,0.2-0.1,0.3-0.3,0.3s-0.3-0.1-0.3-0.3s0.1-0.3,0.3-0.3S317.5,427.6,317.5,427.7z"/>
<path d="M323.1,427.7c0,0.2-0.1,0.3-0.3,0.3s-0.3-0.1-0.3-0.3c0-0.2,0.1-0.3,0.3-0.3S323.1,427.6,323.1,427.7z"/>
<path d="M328.8,427.7c0,0.2-0.1,0.3-0.3,0.3s-0.3-0.1-0.3-0.3s0.1-0.3,0.3-0.3S328.8,427.6,328.8,427.7z"/>
<path d="M334.5,427.7c0,0.2-0.1,0.3-0.3,0.3c-0.2,0-0.3-0.1-0.3-0.3c0-0.2,0.1-0.3,0.3-0.3C334.4,427.5,334.5,427.6,334.5,427.7z"/>
<path d="M340.2,427.7c0,0.2-0.1,0.3-0.3,0.3c-0.2,0-0.3-0.1-0.3-0.3s0.1-0.3,0.3-0.3C340,427.5,340.2,427.6,340.2,427.7z"/>
<path d="M345.8,427.7c0,0.2-0.1,0.3-0.3,0.3s-0.3-0.1-0.3-0.3c0-0.2,0.1-0.3,0.3-0.3S345.8,427.6,345.8,427.7z"/>
<path d="M351.5,427.7c0,0.2-0.1,0.3-0.3,0.3s-0.3-0.1-0.3-0.3s0.1-0.3,0.3-0.3S351.5,427.6,351.5,427.7z"/>
<path d="M357.2,427.7c0,0.2-0.1,0.3-0.3,0.3s-0.3-0.1-0.3-0.3c0-0.2,0.1-0.3,0.3-0.3S357.2,427.6,357.2,427.7z"/>
<path d="M362.8,427.7c0,0.2-0.1,0.3-0.3,0.3s-0.3-0.1-0.3-0.3s0.1-0.3,0.3-0.3S362.8,427.6,362.8,427.7z"/>
<path d="M368.5,427.7c0,0.2-0.1,0.3-0.3,0.3s-0.3-0.1-0.3-0.3c0-0.2,0.1-0.3,0.3-0.3S368.5,427.6,368.5,427.7z"/>
<path d="M374.2,427.7c0,0.2-0.1,0.3-0.3,0.3s-0.3-0.1-0.3-0.3s0.1-0.3,0.3-0.3S374.2,427.6,374.2,427.7z"/>
<path d="M311.8,439.1c0,0.2-0.1,0.3-0.3,0.3s-0.3-0.1-0.3-0.3s0.1-0.3,0.3-0.3S311.8,438.9,311.8,439.1z"/>
<path d="M317.5,439.1c0,0.2-0.1,0.3-0.3,0.3s-0.3-0.1-0.3-0.3s0.1-0.3,0.3-0.3S317.5,438.9,317.5,439.1z"/>
<path d="M323.1,439.1c0,0.2-0.1,0.3-0.3,0.3s-0.3-0.1-0.3-0.3s0.1-0.3,0.3-0.3S323.1,438.9,323.1,439.1z"/>
<path d="M328.8,439.1c0,0.2-0.1,0.3-0.3,0.3s-0.3-0.1-0.3-0.3s0.1-0.3,0.3-0.3S328.8,438.9,328.8,439.1z"/>
<path d="M334.5,439.1c0,0.2-0.1,0.3-0.3,0.3c-0.2,0-0.3-0.1-0.3-0.3s0.1-0.3,0.3-0.3C334.4,438.8,334.5,438.9,334.5,439.1z"/>
<path d="M340.2,439.1c0,0.2-0.1,0.3-0.3,0.3c-0.2,0-0.3-0.1-0.3-0.3s0.1-0.3,0.3-0.3C340,438.8,340.2,438.9,340.2,439.1z"/>
<path d="M345.8,439.1c0,0.2-0.1,0.3-0.3,0.3s-0.3-0.1-0.3-0.3s0.1-0.3,0.3-0.3S345.8,438.9,345.8,439.1z"/>
<path d="M351.5,439.1c0,0.2-0.1,0.3-0.3,0.3s-0.3-0.1-0.3-0.3s0.1-0.3,0.3-0.3S351.5,438.9,351.5,439.1z"/>
<path d="M357.2,439.1c0,0.2-0.1,0.3-0.3,0.3s-0.3-0.1-0.3-0.3s0.1-0.3,0.3-0.3S357.2,438.9,357.2,439.1z"/>
<path d="M362.8,439.1c0,0.2-0.1,0.3-0.3,0.3s-0.3-0.1-0.3-0.3s0.1-0.3,0.3-0.3S362.8,438.9,362.8,439.1z"/>
<path d="M368.5,439.1c0,0.2-0.1,0.3-0.3,0.3s-0.3-0.1-0.3-0.3s0.1-0.3,0.3-0.3S368.5,438.9,368.5,439.1z"/>
<path d="M374.2,439.1c0,0.2-0.1,0.3-0.3,0.3s-0.3-0.1-0.3-0.3s0.1-0.3,0.3-0.3S374.2,438.9,374.2,439.1z"/>
<path d="M311.8,450.4c0,0.2-0.1,0.3-0.3,0.3s-0.3-0.1-0.3-0.3s0.1-0.3,0.3-0.3S311.8,450.3,311.8,450.4z"/>
<path d="M317.5,450.4c0,0.2-0.1,0.3-0.3,0.3s-0.3-0.1-0.3-0.3c0-0.2,0.1-0.3,0.3-0.3S317.5,450.3,317.5,450.4z"/>
<path d="M323.1,450.4c0,0.2-0.1,0.3-0.3,0.3s-0.3-0.1-0.3-0.3s0.1-0.3,0.3-0.3S323.1,450.3,323.1,450.4z"/>
<path d="M328.8,450.4c0,0.2-0.1,0.3-0.3,0.3s-0.3-0.1-0.3-0.3c0-0.2,0.1-0.3,0.3-0.3S328.8,450.3,328.8,450.4z"/>
<path d="M334.5,450.4c0,0.2-0.1,0.3-0.3,0.3c-0.2,0-0.3-0.1-0.3-0.3s0.1-0.3,0.3-0.3C334.4,450.1,334.5,450.3,334.5,450.4z"/>
<path d="M340.2,450.4c0,0.2-0.1,0.3-0.3,0.3c-0.2,0-0.3-0.1-0.3-0.3c0-0.2,0.1-0.3,0.3-0.3C340,450.1,340.2,450.3,340.2,450.4z"/>
<path d="M345.8,450.4c0,0.2-0.1,0.3-0.3,0.3s-0.3-0.1-0.3-0.3s0.1-0.3,0.3-0.3S345.8,450.3,345.8,450.4z"/>
<path d="M351.5,450.4c0,0.2-0.1,0.3-0.3,0.3s-0.3-0.1-0.3-0.3c0-0.2,0.1-0.3,0.3-0.3S351.5,450.3,351.5,450.4z"/>
<path d="M357.2,450.4c0,0.2-0.1,0.3-0.3,0.3s-0.3-0.1-0.3-0.3s0.1-0.3,0.3-0.3S357.2,450.3,357.2,450.4z"/>
<path d="M362.8,450.4c0,0.2-0.1,0.3-0.3,0.3s-0.3-0.1-0.3-0.3c0-0.2,0.1-0.3,0.3-0.3S362.8,450.3,362.8,450.4z"/>
<path d="M368.5,450.4c0,0.2-0.1,0.3-0.3,0.3s-0.3-0.1-0.3-0.3s0.1-0.3,0.3-0.3S368.5,450.3,368.5,450.4z"/>
<path d="M374.2,450.4c0,0.2-0.1,0.3-0.3,0.3s-0.3-0.1-0.3-0.3c0-0.2,0.1-0.3,0.3-0.3S374.2,450.3,374.2,450.4z"/>
<path d="M311.8,461.8c0,0.2-0.1,0.3-0.3,0.3s-0.3-0.1-0.3-0.3s0.1-0.3,0.3-0.3S311.8,461.6,311.8,461.8z"/>
<path d="M317.5,461.8c0,0.2-0.1,0.3-0.3,0.3s-0.3-0.1-0.3-0.3s0.1-0.3,0.3-0.3S317.5,461.6,317.5,461.8z"/>
<path d="M323.1,461.8c0,0.2-0.1,0.3-0.3,0.3s-0.3-0.1-0.3-0.3s0.1-0.3,0.3-0.3S323.1,461.6,323.1,461.8z"/>
<path d="M328.8,461.8c0,0.2-0.1,0.3-0.3,0.3s-0.3-0.1-0.3-0.3s0.1-0.3,0.3-0.3S328.8,461.6,328.8,461.8z"/>
<path d="M334.5,461.8c0,0.2-0.1,0.3-0.3,0.3c-0.2,0-0.3-0.1-0.3-0.3s0.1-0.3,0.3-0.3C334.4,461.5,334.5,461.6,334.5,461.8z"/>
<path d="M340.2,461.8c0,0.2-0.1,0.3-0.3,0.3c-0.2,0-0.3-0.1-0.3-0.3s0.1-0.3,0.3-0.3C340,461.5,340.2,461.6,340.2,461.8z"/>
<path d="M345.8,461.8c0,0.2-0.1,0.3-0.3,0.3s-0.3-0.1-0.3-0.3s0.1-0.3,0.3-0.3S345.8,461.6,345.8,461.8z"/>
<path d="M351.5,461.8c0,0.2-0.1,0.3-0.3,0.3s-0.3-0.1-0.3-0.3s0.1-0.3,0.3-0.3S351.5,461.6,351.5,461.8z"/>
<path d="M357.2,461.8c0,0.2-0.1,0.3-0.3,0.3s-0.3-0.1-0.3-0.3s0.1-0.3,0.3-0.3S357.2,461.6,357.2,461.8z"/>
<path d="M362.8,461.8c0,0.2-0.1,0.3-0.3,0.3s-0.3-0.1-0.3-0.3s0.1-0.3,0.3-0.3S362.8,461.6,362.8,461.8z"/>
<path d="M368.5,461.8c0,0.2-0.1,0.3-0.3,0.3s-0.3-0.1-0.3-0.3s0.1-0.3,0.3-0.3S368.5,461.6,368.5,461.8z"/>
<path d="M374.2,461.8c0,0.2-0.1,0.3-0.3,0.3s-0.3-0.1-0.3-0.3s0.1-0.3,0.3-0.3S374.2,461.6,374.2,461.8z"/>
<path d="M311.8,481.6c0,0.2-0.1,0.3-0.3,0.3s-0.3-0.1-0.3-0.3s0.1-0.3,0.3-0.3S311.8,481.5,311.8,481.6z"/>
<path d="M317.5,481.6c0,0.2-0.1,0.3-0.3,0.3s-0.3-0.1-0.3-0.3c0-0.2,0.1-0.3,0.3-0.3S317.5,481.5,317.5,481.6z"/>
<path d="M323.1,481.6c0,0.2-0.1,0.3-0.3,0.3s-0.3-0.1-0.3-0.3s0.1-0.3,0.3-0.3S323.1,481.5,323.1,481.6z"/>
<path d="M328.8,481.6c0,0.2-0.1,0.3-0.3,0.3s-0.3-0.1-0.3-0.3c0-0.2,0.1-0.3,0.3-0.3S328.8,481.5,328.8,481.6z"/>
<path d="M334.5,481.6c0,0.2-0.1,0.3-0.3,0.3c-0.2,0-0.3-0.1-0.3-0.3s0.1-0.3,0.3-0.3C334.4,481.3,334.5,481.5,334.5,481.6z"/>
<path d="M340.2,481.6c0,0.2-0.1,0.3-0.3,0.3c-0.2,0-0.3-0.1-0.3-0.3c0-0.2,0.1-0.3,0.3-0.3C340,481.3,340.2,481.5,340.2,481.6z"/>
<path d="M345.8,481.6c0,0.2-0.1,0.3-0.3,0.3s-0.3-0.1-0.3-0.3s0.1-0.3,0.3-0.3S345.8,481.5,345.8,481.6z"/>
<path d="M351.5,481.6c0,0.2-0.1,0.3-0.3,0.3s-0.3-0.1-0.3-0.3c0-0.2,0.1-0.3,0.3-0.3S351.5,481.5,351.5,481.6z"/>
<path d="M357.2,481.6c0,0.2-0.1,0.3-0.3,0.3s-0.3-0.1-0.3-0.3s0.1-0.3,0.3-0.3S357.2,481.5,357.2,481.6z"/>
<path d="M362.8,481.6c0,0.2-0.1,0.3-0.3,0.3s-0.3-0.1-0.3-0.3c0-0.2,0.1-0.3,0.3-0.3S362.8,481.5,362.8,481.6z"/>
<path d="M368.5,481.6c0,0.2-0.1,0.3-0.3,0.3s-0.3-0.1-0.3-0.3s0.1-0.3,0.3-0.3S368.5,481.5,368.5,481.6z"/>
<path d="M374.2,481.6c0,0.2-0.1,0.3-0.3,0.3s-0.3-0.1-0.3-0.3c0-0.2,0.1-0.3,0.3-0.3S374.2,481.5,374.2,481.6z"/>
<path d="M311.8,492.9c0,0.2-0.1,0.3-0.3,0.3s-0.3-0.1-0.3-0.3s0.1-0.3,0.3-0.3S311.8,492.8,311.8,492.9z"/>
<path d="M317.5,492.9c0,0.2-0.1,0.3-0.3,0.3s-0.3-0.1-0.3-0.3s0.1-0.3,0.3-0.3S317.5,492.8,317.5,492.9z"/>
<path d="M323.1,492.9c0,0.2-0.1,0.3-0.3,0.3s-0.3-0.1-0.3-0.3s0.1-0.3,0.3-0.3S323.1,492.8,323.1,492.9z"/>
<path d="M328.8,492.9c0,0.2-0.1,0.3-0.3,0.3s-0.3-0.1-0.3-0.3s0.1-0.3,0.3-0.3S328.8,492.8,328.8,492.9z"/>
<path d="M334.5,492.9c0,0.2-0.1,0.3-0.3,0.3c-0.2,0-0.3-0.1-0.3-0.3s0.1-0.3,0.3-0.3C334.4,492.7,334.5,492.8,334.5,492.9z"/>
<path d="M340.2,492.9c0,0.2-0.1,0.3-0.3,0.3c-0.2,0-0.3-0.1-0.3-0.3s0.1-0.3,0.3-0.3C340,492.7,340.2,492.8,340.2,492.9z"/>
<path d="M345.8,492.9c0,0.2-0.1,0.3-0.3,0.3s-0.3-0.1-0.3-0.3s0.1-0.3,0.3-0.3S345.8,492.8,345.8,492.9z"/>
<path d="M351.5,492.9c0,0.2-0.1,0.3-0.3,0.3s-0.3-0.1-0.3-0.3s0.1-0.3,0.3-0.3S351.5,492.8,351.5,492.9z"/>
<path d="M357.2,492.9c0,0.2-0.1,0.3-0.3,0.3s-0.3-0.1-0.3-0.3s0.1-0.3,0.3-0.3S357.2,492.8,357.2,492.9z"/>
<path d="M362.8,492.9c0,0.2-0.1,0.3-0.3,0.3s-0.3-0.1-0.3-0.3s0.1-0.3,0.3-0.3S362.8,492.8,362.8,492.9z"/>
<path d="M368.5,492.9c0,0.2-0.1,0.3-0.3,0.3s-0.3-0.1-0.3-0.3s0.1-0.3,0.3-0.3S368.5,492.8,368.5,492.9z"/>
<path d="M374.2,492.9c0,0.2-0.1,0.3-0.3,0.3s-0.3-0.1-0.3-0.3s0.1-0.3,0.3-0.3S374.2,492.8,374.2,492.9z"/>
<path d="M311.8,504.3c0,0.2-0.1,0.3-0.3,0.3s-0.3-0.1-0.3-0.3c0-0.2,0.1-0.3,0.3-0.3S311.8,504.1,311.8,504.3z"/>
<path d="M317.5,504.3c0,0.2-0.1,0.3-0.3,0.3s-0.3-0.1-0.3-0.3s0.1-0.3,0.3-0.3S317.5,504.1,317.5,504.3z"/>
<path d="M323.1,504.3c0,0.2-0.1,0.3-0.3,0.3s-0.3-0.1-0.3-0.3c0-0.2,0.1-0.3,0.3-0.3S323.1,504.1,323.1,504.3z"/>
<path d="M328.8,504.3c0,0.2-0.1,0.3-0.3,0.3s-0.3-0.1-0.3-0.3s0.1-0.3,0.3-0.3S328.8,504.1,328.8,504.3z"/>
<path d="M334.5,504.3c0,0.2-0.1,0.3-0.3,0.3c-0.2,0-0.3-0.1-0.3-0.3c0-0.2,0.1-0.3,0.3-0.3C334.4,504,334.5,504.1,334.5,504.3z"/>
<path d="M340.2,504.3c0,0.2-0.1,0.3-0.3,0.3c-0.2,0-0.3-0.1-0.3-0.3s0.1-0.3,0.3-0.3C340,504,340.2,504.1,340.2,504.3z"/>
<path d="M345.8,504.3c0,0.2-0.1,0.3-0.3,0.3s-0.3-0.1-0.3-0.3c0-0.2,0.1-0.3,0.3-0.3S345.8,504.1,345.8,504.3z"/>
<path d="M351.5,504.3c0,0.2-0.1,0.3-0.3,0.3s-0.3-0.1-0.3-0.3s0.1-0.3,0.3-0.3S351.5,504.1,351.5,504.3z"/>
<path d="M357.2,504.3c0,0.2-0.1,0.3-0.3,0.3s-0.3-0.1-0.3-0.3c0-0.2,0.1-0.3,0.3-0.3S357.2,504.1,357.2,504.3z"/>
<path d="M362.8,504.3c0,0.2-0.1,0.3-0.3,0.3s-0.3-0.1-0.3-0.3s0.1-0.3,0.3-0.3S362.8,504.1,362.8,504.3z"/>
<path d="M368.5,504.3c0,0.2-0.1,0.3-0.3,0.3s-0.3-0.1-0.3-0.3c0-0.2,0.1-0.3,0.3-0.3S368.5,504.1,368.5,504.3z"/>
<path d="M374.2,504.3c0,0.2-0.1,0.3-0.3,0.3s-0.3-0.1-0.3-0.3s0.1-0.3,0.3-0.3S374.2,504.1,374.2,504.3z"/>
<path d="M311.8,515.6c0,0.2-0.1,0.3-0.3,0.3s-0.3-0.1-0.3-0.3s0.1-0.3,0.3-0.3S311.8,515.5,311.8,515.6z"/>
<path d="M317.5,515.6c0,0.2-0.1,0.3-0.3,0.3s-0.3-0.1-0.3-0.3s0.1-0.3,0.3-0.3S317.5,515.5,317.5,515.6z"/>
<path d="M323.1,515.6c0,0.2-0.1,0.3-0.3,0.3s-0.3-0.1-0.3-0.3s0.1-0.3,0.3-0.3S323.1,515.5,323.1,515.6z"/>
<path d="M328.8,515.6c0,0.2-0.1,0.3-0.3,0.3s-0.3-0.1-0.3-0.3s0.1-0.3,0.3-0.3S328.8,515.5,328.8,515.6z"/>
<path d="M334.5,515.6c0,0.2-0.1,0.3-0.3,0.3c-0.2,0-0.3-0.1-0.3-0.3s0.1-0.3,0.3-0.3C334.4,515.3,334.5,515.5,334.5,515.6z"/>
<path d="M340.2,515.6c0,0.2-0.1,0.3-0.3,0.3c-0.2,0-0.3-0.1-0.3-0.3s0.1-0.3,0.3-0.3C340,515.3,340.2,515.5,340.2,515.6z"/>
<path d="M345.8,515.6c0,0.2-0.1,0.3-0.3,0.3s-0.3-0.1-0.3-0.3s0.1-0.3,0.3-0.3S345.8,515.5,345.8,515.6z"/>
<path d="M351.5,515.6c0,0.2-0.1,0.3-0.3,0.3s-0.3-0.1-0.3-0.3s0.1-0.3,0.3-0.3S351.5,515.5,351.5,515.6z"/>
<path d="M357.2,515.6c0,0.2-0.1,0.3-0.3,0.3s-0.3-0.1-0.3-0.3s0.1-0.3,0.3-0.3S357.2,515.5,357.2,515.6z"/>
<path d="M362.8,515.6c0,0.2-0.1,0.3-0.3,0.3s-0.3-0.1-0.3-0.3s0.1-0.3,0.3-0.3S362.8,515.5,362.8,515.6z"/>
<path d="M368.5,515.6c0,0.2-0.1,0.3-0.3,0.3s-0.3-0.1-0.3-0.3s0.1-0.3,0.3-0.3S368.5,515.5,368.5,515.6z"/>
<path d="M374.2,515.6c0,0.2-0.1,0.3-0.3,0.3s-0.3-0.1-0.3-0.3s0.1-0.3,0.3-0.3S374.2,515.5,374.2,515.6z"/>
<path d="M311.8,527c0,0.2-0.1,0.3-0.3,0.3s-0.3-0.1-0.3-0.3s0.1-0.3,0.3-0.3S311.8,526.8,311.8,527z"/>
<path d="M317.5,527c0,0.2-0.1,0.3-0.3,0.3s-0.3-0.1-0.3-0.3s0.1-0.3,0.3-0.3S317.5,526.8,317.5,527z"/>
<path d="M323.1,527c0,0.2-0.1,0.3-0.3,0.3s-0.3-0.1-0.3-0.3s0.1-0.3,0.3-0.3S323.1,526.8,323.1,527z"/>
<path d="M328.8,527c0,0.2-0.1,0.3-0.3,0.3s-0.3-0.1-0.3-0.3s0.1-0.3,0.3-0.3S328.8,526.8,328.8,527z"/>
<path d="M334.5,527c0,0.2-0.1,0.3-0.3,0.3c-0.2,0-0.3-0.1-0.3-0.3s0.1-0.3,0.3-0.3C334.4,526.7,334.5,526.8,334.5,527z"/>
<path d="M340.2,527c0,0.2-0.1,0.3-0.3,0.3c-0.2,0-0.3-0.1-0.3-0.3s0.1-0.3,0.3-0.3C340,526.7,340.2,526.8,340.2,527z"/>
<path d="M345.8,527c0,0.2-0.1,0.3-0.3,0.3s-0.3-0.1-0.3-0.3s0.1-0.3,0.3-0.3S345.8,526.8,345.8,527z"/>
<path d="M351.5,527c0,0.2-0.1,0.3-0.3,0.3s-0.3-0.1-0.3-0.3s0.1-0.3,0.3-0.3S351.5,526.8,351.5,527z"/>
<path d="M357.2,527c0,0.2-0.1,0.3-0.3,0.3s-0.3-0.1-0.3-0.3s0.1-0.3,0.3-0.3S357.2,526.8,357.2,527z"/>
<path d="M362.8,527c0,0.2-0.1,0.3-0.3,0.3s-0.3-0.1-0.3-0.3s0.1-0.3,0.3-0.3S362.8,526.8,362.8,527z"/>
<path d="M368.5,527c0,0.2-0.1,0.3-0.3,0.3s-0.3-0.1-0.3-0.3s0.1-0.3,0.3-0.3S368.5,526.8,368.5,527z"/>
<path d="M374.2,527c0,0.2-0.1,0.3-0.3,0.3s-0.3-0.1-0.3-0.3s0.1-0.3,0.3-0.3S374.2,526.8,374.2,527z"/>
<path d="M311.8,538.3c0,0.2-0.1,0.3-0.3,0.3s-0.3-0.1-0.3-0.3s0.1-0.3,0.3-0.3S311.8,538.1,311.8,538.3z"/>
<path d="M306.1,98.9c0,0.2-0.1,0.3-0.3,0.3s-0.3-0.1-0.3-0.3c0-0.2,0.1-0.3,0.3-0.3S306.1,98.8,306.1,98.9z"/>
<path d="M306.1,110.3c0,0.2-0.1,0.3-0.3,0.3s-0.3-0.1-0.3-0.3c0-0.2,0.1-0.3,0.3-0.3S306.1,110.1,306.1,110.3z"/>
<path d="M306.1,121.6c0,0.2-0.1,0.3-0.3,0.3s-0.3-0.1-0.3-0.3c0-0.2,0.1-0.3,0.3-0.3S306.1,121.4,306.1,121.6z"/>
<path d="M306.1,132.9c0,0.2-0.1,0.3-0.3,0.3s-0.3-0.1-0.3-0.3s0.1-0.3,0.3-0.3S306.1,132.8,306.1,132.9z"/>
<path d="M306.1,144.3c0,0.2-0.1,0.3-0.3,0.3s-0.3-0.1-0.3-0.3c0-0.2,0.1-0.3,0.3-0.3S306.1,144.1,306.1,144.3z"/>
<path d="M306.1,155.6c0,0.2-0.1,0.3-0.3,0.3s-0.3-0.1-0.3-0.3s0.1-0.3,0.3-0.3S306.1,155.5,306.1,155.6z"/>
<path d="M306.1,175.5c0,0.2-0.1,0.3-0.3,0.3s-0.3-0.1-0.3-0.3c0-0.2,0.1-0.3,0.3-0.3S306.1,175.3,306.1,175.5z"/>
<path d="M306.1,186.8c0,0.2-0.1,0.3-0.3,0.3s-0.3-0.1-0.3-0.3s0.1-0.3,0.3-0.3S306.1,186.6,306.1,186.8z"/>
<path d="M306.1,198.1c0,0.2-0.1,0.3-0.3,0.3s-0.3-0.1-0.3-0.3c0-0.2,0.1-0.3,0.3-0.3S306.1,198,306.1,198.1z"/>
<path d="M306.1,209.5c0,0.2-0.1,0.3-0.3,0.3s-0.3-0.1-0.3-0.3s0.1-0.3,0.3-0.3S306.1,209.3,306.1,209.5z"/>
<path d="M306.1,220.8c0,0.2-0.1,0.3-0.3,0.3s-0.3-0.1-0.3-0.3c0-0.2,0.1-0.3,0.3-0.3S306.1,220.7,306.1,220.8z"/>
<path d="M306.1,232.2c0,0.2-0.1,0.3-0.3,0.3s-0.3-0.1-0.3-0.3s0.1-0.3,0.3-0.3S306.1,232,306.1,232.2z"/>
<path d="M306.1,252c0,0.2-0.1,0.3-0.3,0.3s-0.3-0.1-0.3-0.3c0-0.2,0.1-0.3,0.3-0.3S306.1,251.8,306.1,252z"/>
<path d="M306.1,263.3c0,0.2-0.1,0.3-0.3,0.3s-0.3-0.1-0.3-0.3c0-0.2,0.1-0.3,0.3-0.3S306.1,263.2,306.1,263.3z"/>
<path d="M306.1,274.7c0,0.2-0.1,0.3-0.3,0.3s-0.3-0.1-0.3-0.3s0.1-0.3,0.3-0.3S306.1,274.5,306.1,274.7z"/>
<path d="M306.1,286c0,0.2-0.1,0.3-0.3,0.3s-0.3-0.1-0.3-0.3s0.1-0.3,0.3-0.3S306.1,285.9,306.1,286z"/>
<path d="M306.1,297.4c0,0.2-0.1,0.3-0.3,0.3s-0.3-0.1-0.3-0.3s0.1-0.3,0.3-0.3S306.1,297.2,306.1,297.4z"/>
<path d="M306.1,308.7c0,0.2-0.1,0.3-0.3,0.3s-0.3-0.1-0.3-0.3c0-0.2,0.1-0.3,0.3-0.3S306.1,308.5,306.1,308.7z"/>
<path d="M306.1,328.5c0,0.2-0.1,0.3-0.3,0.3s-0.3-0.1-0.3-0.3s0.1-0.3,0.3-0.3S306.1,328.4,306.1,328.5z"/>
<path d="M306.1,339.9c0,0.2-0.1,0.3-0.3,0.3s-0.3-0.1-0.3-0.3c0-0.2,0.1-0.3,0.3-0.3S306.1,339.7,306.1,339.9z"/>
<path d="M306.1,351.2c0,0.2-0.1,0.3-0.3,0.3s-0.3-0.1-0.3-0.3s0.1-0.3,0.3-0.3S306.1,351.1,306.1,351.2z"/>
<path d="M306.1,362.6c0,0.2-0.1,0.3-0.3,0.3s-0.3-0.1-0.3-0.3s0.1-0.3,0.3-0.3S306.1,362.4,306.1,362.6z"/>
<path d="M306.1,373.9c0,0.2-0.1,0.3-0.3,0.3s-0.3-0.1-0.3-0.3s0.1-0.3,0.3-0.3S306.1,373.7,306.1,373.9z"/>
<path d="M306.1,385.2c0,0.2-0.1,0.3-0.3,0.3s-0.3-0.1-0.3-0.3c0-0.2,0.1-0.3,0.3-0.3S306.1,385.1,306.1,385.2z"/>
<path d="M306.1,405.1c0,0.2-0.1,0.3-0.3,0.3s-0.3-0.1-0.3-0.3s0.1-0.3,0.3-0.3S306.1,404.9,306.1,405.1z"/>
<path d="M306.1,416.4c0,0.2-0.1,0.3-0.3,0.3s-0.3-0.1-0.3-0.3s0.1-0.3,0.3-0.3S306.1,416.3,306.1,416.4z"/>
<path d="M306.1,427.7c0,0.2-0.1,0.3-0.3,0.3s-0.3-0.1-0.3-0.3c0-0.2,0.1-0.3,0.3-0.3S306.1,427.6,306.1,427.7z"/>
<path d="M306.1,439.1c0,0.2-0.1,0.3-0.3,0.3s-0.3-0.1-0.3-0.3s0.1-0.3,0.3-0.3S306.1,438.9,306.1,439.1z"/>
<path d="M306.1,450.4c0,0.2-0.1,0.3-0.3,0.3s-0.3-0.1-0.3-0.3s0.1-0.3,0.3-0.3S306.1,450.3,306.1,450.4z"/>
<path d="M306.1,461.8c0,0.2-0.1,0.3-0.3,0.3s-0.3-0.1-0.3-0.3s0.1-0.3,0.3-0.3S306.1,461.6,306.1,461.8z"/>
<path d="M306.1,481.6c0,0.2-0.1,0.3-0.3,0.3s-0.3-0.1-0.3-0.3s0.1-0.3,0.3-0.3S306.1,481.5,306.1,481.6z"/>
<path d="M306.1,492.9c0,0.2-0.1,0.3-0.3,0.3s-0.3-0.1-0.3-0.3s0.1-0.3,0.3-0.3S306.1,492.8,306.1,492.9z"/>
<path d="M306.1,504.3c0,0.2-0.1,0.3-0.3,0.3s-0.3-0.1-0.3-0.3c0-0.2,0.1-0.3,0.3-0.3S306.1,504.1,306.1,504.3z"/>
<path d="M306.1,515.6c0,0.2-0.1,0.3-0.3,0.3s-0.3-0.1-0.3-0.3s0.1-0.3,0.3-0.3S306.1,515.5,306.1,515.6z"/>
<path d="M306.1,527c0,0.2-0.1,0.3-0.3,0.3s-0.3-0.1-0.3-0.3s0.1-0.3,0.3-0.3S306.1,526.8,306.1,527z"/>
<path d="M306.1,538.3c0,0.2-0.1,0.3-0.3,0.3s-0.3-0.1-0.3-0.3s0.1-0.3,0.3-0.3S306.1,538.1,306.1,538.3z"/>
<path d="M317.5,538.3c0,0.2-0.1,0.3-0.3,0.3s-0.3-0.1-0.3-0.3s0.1-0.3,0.3-0.3S317.5,538.1,317.5,538.3z"/>
<path d="M323.1,538.3c0,0.2-0.1,0.3-0.3,0.3s-0.3-0.1-0.3-0.3s0.1-0.3,0.3-0.3S323.1,538.1,323.1,538.3z"/>
<path d="M328.8,538.3c0,0.2-0.1,0.3-0.3,0.3s-0.3-0.1-0.3-0.3s0.1-0.3,0.3-0.3S328.8,538.1,328.8,538.3z"/>
<path d="M334.5,538.3c0,0.2-0.1,0.3-0.3,0.3c-0.2,0-0.3-0.1-0.3-0.3s0.1-0.3,0.3-0.3C334.4,538,334.5,538.1,334.5,538.3z"/>
<path d="M340.2,538.3c0,0.2-0.1,0.3-0.3,0.3c-0.2,0-0.3-0.1-0.3-0.3s0.1-0.3,0.3-0.3C340,538,340.2,538.1,340.2,538.3z"/>
<path d="M345.8,538.3c0,0.2-0.1,0.3-0.3,0.3s-0.3-0.1-0.3-0.3s0.1-0.3,0.3-0.3S345.8,538.1,345.8,538.3z"/>
<path d="M351.5,538.3c0,0.2-0.1,0.3-0.3,0.3s-0.3-0.1-0.3-0.3s0.1-0.3,0.3-0.3S351.5,538.1,351.5,538.3z"/>
<path d="M357.2,538.3c0,0.2-0.1,0.3-0.3,0.3s-0.3-0.1-0.3-0.3s0.1-0.3,0.3-0.3S357.2,538.1,357.2,538.3z"/>
<path d="M362.8,538.3c0,0.2-0.1,0.3-0.3,0.3s-0.3-0.1-0.3-0.3s0.1-0.3,0.3-0.3S362.8,538.1,362.8,538.3z"/>
<path d="M368.5,538.3c0,0.2-0.1,0.3-0.3,0.3s-0.3-0.1-0.3-0.3s0.1-0.3,0.3-0.3S368.5,538.1,368.5,538.3z"/>
<path d="M374.2,538.3c0,0.2-0.1,0.3-0.3,0.3s-0.3-0.1-0.3-0.3s0.1-0.3,0.3-0.3S374.2,538.1,374.2,538.3z"/>
<path d="M379.8,98.9c0,0.2-0.1,0.3-0.3,0.3s-0.3-0.1-0.3-0.3c0-0.2,0.1-0.3,0.3-0.3S379.8,98.8,379.8,98.9z"/>
<path d="M379.8,110.3c0,0.2-0.1,0.3-0.3,0.3s-0.3-0.1-0.3-0.3c0-0.2,0.1-0.3,0.3-0.3S379.8,110.1,379.8,110.3z"/>
<path d="M379.8,121.6c0,0.2-0.1,0.3-0.3,0.3s-0.3-0.1-0.3-0.3c0-0.2,0.1-0.3,0.3-0.3S379.8,121.5,379.8,121.6z"/>
<path d="M379.8,132.9c0,0.2-0.1,0.3-0.3,0.3s-0.3-0.1-0.3-0.3s0.1-0.3,0.3-0.3S379.8,132.8,379.8,132.9z"/>
<path d="M379.8,144.3c0,0.2-0.1,0.3-0.3,0.3s-0.3-0.1-0.3-0.3c0-0.2,0.1-0.3,0.3-0.3S379.8,144.1,379.8,144.3z"/>
<path d="M379.8,155.6c0,0.2-0.1,0.3-0.3,0.3s-0.3-0.1-0.3-0.3s0.1-0.3,0.3-0.3S379.8,155.5,379.8,155.6z"/>
<path d="M379.8,175.5c0,0.2-0.1,0.3-0.3,0.3s-0.3-0.1-0.3-0.3c0-0.2,0.1-0.3,0.3-0.3S379.8,175.3,379.8,175.5z"/>
<path d="M379.8,186.8c0,0.2-0.1,0.3-0.3,0.3s-0.3-0.1-0.3-0.3s0.1-0.3,0.3-0.3S379.8,186.6,379.8,186.8z"/>
<path d="M379.8,198.1c0,0.2-0.1,0.3-0.3,0.3s-0.3-0.1-0.3-0.3c0-0.2,0.1-0.3,0.3-0.3S379.8,198,379.8,198.1z"/>
<path d="M379.8,209.5c0,0.2-0.1,0.3-0.3,0.3s-0.3-0.1-0.3-0.3s0.1-0.3,0.3-0.3S379.8,209.3,379.8,209.5z"/>
<path d="M379.8,220.8c0,0.2-0.1,0.3-0.3,0.3s-0.3-0.1-0.3-0.3c0-0.2,0.1-0.3,0.3-0.3S379.8,220.7,379.8,220.8z"/>
<path d="M379.8,232.2c0,0.2-0.1,0.3-0.3,0.3s-0.3-0.1-0.3-0.3s0.1-0.3,0.3-0.3S379.8,232,379.8,232.2z"/>
<path d="M379.8,252c0,0.2-0.1,0.3-0.3,0.3s-0.3-0.1-0.3-0.3c0-0.2,0.1-0.3,0.3-0.3S379.8,251.8,379.8,252z"/>
<path d="M379.8,263.3c0,0.2-0.1,0.3-0.3,0.3s-0.3-0.1-0.3-0.3s0.1-0.3,0.3-0.3S379.8,263.2,379.8,263.3z"/>
<path d="M379.8,274.7c0,0.2-0.1,0.3-0.3,0.3s-0.3-0.1-0.3-0.3s0.1-0.3,0.3-0.3S379.8,274.5,379.8,274.7z"/>
<path d="M379.8,286c0,0.2-0.1,0.3-0.3,0.3s-0.3-0.1-0.3-0.3c0-0.2,0.1-0.3,0.3-0.3S379.8,285.9,379.8,286z"/>
<path d="M379.8,297.4c0,0.2-0.1,0.3-0.3,0.3s-0.3-0.1-0.3-0.3s0.1-0.3,0.3-0.3S379.8,297.2,379.8,297.4z"/>
<path d="M379.8,308.7c0,0.2-0.1,0.3-0.3,0.3s-0.3-0.1-0.3-0.3s0.1-0.3,0.3-0.3S379.8,308.5,379.8,308.7z"/>
<path d="M379.8,328.5c0,0.2-0.1,0.3-0.3,0.3s-0.3-0.1-0.3-0.3s0.1-0.3,0.3-0.3S379.8,328.4,379.8,328.5z"/>
<path d="M379.8,339.9c0,0.2-0.1,0.3-0.3,0.3s-0.3-0.1-0.3-0.3s0.1-0.3,0.3-0.3S379.8,339.7,379.8,339.9z"/>
<path d="M379.8,351.2c0,0.2-0.1,0.3-0.3,0.3s-0.3-0.1-0.3-0.3s0.1-0.3,0.3-0.3S379.8,351.1,379.8,351.2z"/>
<path d="M379.8,362.6c0,0.2-0.1,0.3-0.3,0.3s-0.3-0.1-0.3-0.3c0-0.2,0.1-0.3,0.3-0.3S379.8,362.4,379.8,362.6z"/>
<path d="M379.8,373.9c0,0.2-0.1,0.3-0.3,0.3s-0.3-0.1-0.3-0.3c0-0.2,0.1-0.3,0.3-0.3S379.8,373.7,379.8,373.9z"/>
<path d="M379.8,385.2c0,0.2-0.1,0.3-0.3,0.3s-0.3-0.1-0.3-0.3s0.1-0.3,0.3-0.3S379.8,385.1,379.8,385.2z"/>
<path d="M379.8,405.1c0,0.2-0.1,0.3-0.3,0.3s-0.3-0.1-0.3-0.3c0-0.2,0.1-0.3,0.3-0.3S379.8,404.9,379.8,405.1z"/>
<path d="M379.8,416.4c0,0.2-0.1,0.3-0.3,0.3s-0.3-0.1-0.3-0.3s0.1-0.3,0.3-0.3S379.8,416.3,379.8,416.4z"/>
<path d="M379.8,427.7c0,0.2-0.1,0.3-0.3,0.3s-0.3-0.1-0.3-0.3s0.1-0.3,0.3-0.3S379.8,427.6,379.8,427.7z"/>
<path d="M379.8,439.1c0,0.2-0.1,0.3-0.3,0.3s-0.3-0.1-0.3-0.3s0.1-0.3,0.3-0.3S379.8,438.9,379.8,439.1z"/>
<path d="M379.8,450.4c0,0.2-0.1,0.3-0.3,0.3s-0.3-0.1-0.3-0.3c0-0.2,0.1-0.3,0.3-0.3S379.8,450.3,379.8,450.4z"/>
<path d="M379.8,461.8c0,0.2-0.1,0.3-0.3,0.3s-0.3-0.1-0.3-0.3s0.1-0.3,0.3-0.3S379.8,461.6,379.8,461.8z"/>
<path d="M379.8,481.6c0,0.2-0.1,0.3-0.3,0.3s-0.3-0.1-0.3-0.3c0-0.2,0.1-0.3,0.3-0.3S379.8,481.5,379.8,481.6z"/>
<path d="M379.8,492.9c0,0.2-0.1,0.3-0.3,0.3s-0.3-0.1-0.3-0.3s0.1-0.3,0.3-0.3S379.8,492.8,379.8,492.9z"/>
<path d="M379.8,504.3c0,0.2-0.1,0.3-0.3,0.3s-0.3-0.1-0.3-0.3s0.1-0.3,0.3-0.3S379.8,504.1,379.8,504.3z"/>
<path d="M379.8,515.6c0,0.2-0.1,0.3-0.3,0.3s-0.3-0.1-0.3-0.3s0.1-0.3,0.3-0.3S379.8,515.5,379.8,515.6z"/>
<path d="M379.8,527c0,0.2-0.1,0.3-0.3,0.3s-0.3-0.1-0.3-0.3s0.1-0.3,0.3-0.3S379.8,526.8,379.8,527z"/>
<path d="M379.8,538.3c0,0.2-0.1,0.3-0.3,0.3s-0.3-0.1-0.3-0.3s0.1-0.3,0.3-0.3S379.8,538.1,379.8,538.3z"/>
</svg>
