<?xml version="1.0" encoding="utf-8"?>
<!-- Generator: Adobe Illustrator 22.1.0, SVG Export Plug-In . SVG Version: 6.00 Build 0)  -->
<svg version="1.1" xmlns="http://www.w3.org/2000/svg" xmlns:xlink="http://www.w3.org/1999/xlink" x="0px" y="0px"
	 viewBox="0 0 420.9 595.3" style="enable-background:new 0 0 420.9 595.3;" xml:space="preserve">
<style type="text/css">
	.st0{fill:#6B6966;}
	.st1{font-family:'GothamPro-Light';}
	.st2{font-size:21px;}
	.st3{font-size:12px;}
</style>
<g id="Layer_1">
	<g>
		<g>
			<path d="M367.1,127.6c0,0.2,0.1,0.3,0.3,0.3c0.2,0,0.3-0.1,0.3-0.3c0-0.2-0.1-0.3-0.3-0.3C367.3,127.3,367.1,127.4,367.1,127.6z"
				/>
			<path d="M353,127.6c0,0.2,0.1,0.3,0.3,0.3s0.3-0.1,0.3-0.3c0-0.2-0.1-0.3-0.3-0.3S353,127.4,353,127.6z"/>
		</g>
		<g>
			<path d="M338.8,127.6c0,0.2,0.1,0.3,0.3,0.3s0.3-0.1,0.3-0.3c0-0.2-0.1-0.3-0.3-0.3S338.8,127.4,338.8,127.6z"/>
			<path d="M324.6,127.6c0,0.2,0.1,0.3,0.3,0.3c0.2,0,0.3-0.1,0.3-0.3c0-0.2-0.1-0.3-0.3-0.3C324.7,127.3,324.6,127.4,324.6,127.6z"
				/>
		</g>
		<g>
			<path d="M310.4,127.6c0,0.2,0.1,0.3,0.3,0.3c0.2,0,0.3-0.1,0.3-0.3c0-0.2-0.1-0.3-0.3-0.3C310.6,127.3,310.4,127.4,310.4,127.6z"
				/>
			<path d="M296.3,127.6c0,0.2,0.1,0.3,0.3,0.3s0.3-0.1,0.3-0.3c0-0.2-0.1-0.3-0.3-0.3S296.3,127.4,296.3,127.6z"/>
		</g>
		<g>
			<path d="M282.1,127.6c0,0.2,0.1,0.3,0.3,0.3s0.3-0.1,0.3-0.3c0-0.2-0.1-0.3-0.3-0.3S282.1,127.4,282.1,127.6z"/>
			<path d="M267.9,127.6c0,0.2,0.1,0.3,0.3,0.3s0.3-0.1,0.3-0.3c0-0.2-0.1-0.3-0.3-0.3S267.9,127.4,267.9,127.6z"/>
		</g>
		<g>
			<path d="M253.8,127.6c0,0.2,0.1,0.3,0.3,0.3s0.3-0.1,0.3-0.3c0-0.2-0.1-0.3-0.3-0.3S253.8,127.4,253.8,127.6z"/>
			<path d="M239.6,127.6c0,0.2,0.1,0.3,0.3,0.3s0.3-0.1,0.3-0.3c0-0.2-0.1-0.3-0.3-0.3S239.6,127.4,239.6,127.6z"/>
		</g>
		<g>
			<path d="M225.4,127.6c0,0.2,0.1,0.3,0.3,0.3s0.3-0.1,0.3-0.3c0-0.2-0.1-0.3-0.3-0.3S225.4,127.4,225.4,127.6z"/>
			<path d="M211.2,127.6c0,0.2,0.1,0.3,0.3,0.3s0.3-0.1,0.3-0.3c0-0.2-0.1-0.3-0.3-0.3S211.2,127.4,211.2,127.6z"/>
		</g>
		<g>
			<path d="M197.1,127.6c0,0.2,0.1,0.3,0.3,0.3c0.2,0,0.3-0.1,0.3-0.3c0-0.2-0.1-0.3-0.3-0.3C197.2,127.3,197.1,127.4,197.1,127.6z"
				/>
			<path d="M182.9,127.6c0,0.2,0.1,0.3,0.3,0.3c0.2,0,0.3-0.1,0.3-0.3c0-0.2-0.1-0.3-0.3-0.3C183,127.3,182.9,127.4,182.9,127.6z"/>
		</g>
		<g>
			<path d="M168.7,127.6c0,0.2,0.1,0.3,0.3,0.3c0.2,0,0.3-0.1,0.3-0.3c0-0.2-0.1-0.3-0.3-0.3C168.8,127.3,168.7,127.4,168.7,127.6z"
				/>
			<path d="M154.5,127.6c0,0.2,0.1,0.3,0.3,0.3s0.3-0.1,0.3-0.3c0-0.2-0.1-0.3-0.3-0.3S154.5,127.4,154.5,127.6z"/>
		</g>
		<g>
			<path d="M140.4,127.6c0,0.2,0.1,0.3,0.3,0.3s0.3-0.1,0.3-0.3c0-0.2-0.1-0.3-0.3-0.3S140.4,127.4,140.4,127.6z"/>
			<path d="M126.2,127.6c0,0.2,0.1,0.3,0.3,0.3c0.2,0,0.3-0.1,0.3-0.3c0-0.2-0.1-0.3-0.3-0.3C126.3,127.3,126.2,127.4,126.2,127.6z"
				/>
		</g>
		<g>
			<path d="M112,127.6c0,0.2,0.1,0.3,0.3,0.3c0.2,0,0.3-0.1,0.3-0.3c0-0.2-0.1-0.3-0.3-0.3C112.2,127.3,112,127.4,112,127.6z"/>
			<path d="M97.9,127.6c0,0.2,0.1,0.3,0.3,0.3s0.3-0.1,0.3-0.3c0-0.2-0.1-0.3-0.3-0.3S97.9,127.4,97.9,127.6z"/>
		</g>
		<g>
			<path d="M83.7,127.6c0,0.2,0.1,0.3,0.3,0.3s0.3-0.1,0.3-0.3c0-0.2-0.1-0.3-0.3-0.3S83.7,127.4,83.7,127.6z"/>
			<path d="M69.5,127.6c0,0.2,0.1,0.3,0.3,0.3s0.3-0.1,0.3-0.3c0-0.2-0.1-0.3-0.3-0.3S69.5,127.4,69.5,127.6z"/>
		</g>
		<g>
			<path d="M55.3,127.6c0,0.2,0.1,0.3,0.3,0.3s0.3-0.1,0.3-0.3c0-0.2-0.1-0.3-0.3-0.3S55.3,127.4,55.3,127.6z"/>
			<path d="M41.2,127.6c0,0.2,0.1,0.3,0.3,0.3s0.3-0.1,0.3-0.3c0-0.2-0.1-0.3-0.3-0.3S41.2,127.4,41.2,127.6z"/>
		</g>
	</g>
	<g>
		<g>
			<circle cx="367.4" cy="141.7" r="0.3"/>
			<circle cx="353.3" cy="141.7" r="0.3"/>
		</g>
		<g>
			<path d="M338.8,141.7c0,0.2,0.1,0.3,0.3,0.3s0.3-0.1,0.3-0.3s-0.1-0.3-0.3-0.3S338.8,141.6,338.8,141.7z"/>
			<circle cx="324.9" cy="141.7" r="0.3"/>
		</g>
		<g>
			<circle cx="310.7" cy="141.7" r="0.3"/>
			<circle cx="296.6" cy="141.7" r="0.3"/>
		</g>
		<g>
			<circle cx="282.4" cy="141.7" r="0.3"/>
			<circle cx="268.2" cy="141.7" r="0.3"/>
		</g>
		<g>
			<circle cx="254" cy="141.7" r="0.3"/>
			<circle cx="239.9" cy="141.7" r="0.3"/>
		</g>
		<g>
			<circle cx="225.7" cy="141.7" r="0.3"/>
			<circle cx="211.5" cy="141.7" r="0.3"/>
		</g>
		<g>
			<circle cx="197.3" cy="141.7" r="0.3"/>
			<circle cx="183.2" cy="141.7" r="0.3"/>
		</g>
		<g>
			<circle cx="169" cy="141.7" r="0.3"/>
			<path d="M154.5,141.7c0,0.2,0.1,0.3,0.3,0.3s0.3-0.1,0.3-0.3s-0.1-0.3-0.3-0.3S154.5,141.6,154.5,141.7z"/>
		</g>
		<g>
			<path d="M140.4,141.7c0,0.2,0.1,0.3,0.3,0.3s0.3-0.1,0.3-0.3s-0.1-0.3-0.3-0.3S140.4,141.6,140.4,141.7z"/>
			<path d="M126.2,141.7c0,0.2,0.1,0.3,0.3,0.3s0.3-0.1,0.3-0.3s-0.1-0.3-0.3-0.3S126.2,141.6,126.2,141.7z"/>
		</g>
		<g>
			<path d="M112,141.7c0,0.2,0.1,0.3,0.3,0.3s0.3-0.1,0.3-0.3s-0.1-0.3-0.3-0.3S112,141.6,112,141.7z"/>
			<path d="M97.9,141.7c0,0.2,0.1,0.3,0.3,0.3s0.3-0.1,0.3-0.3s-0.1-0.3-0.3-0.3S97.9,141.6,97.9,141.7z"/>
		</g>
		<g>
			<path d="M83.7,141.7c0,0.2,0.1,0.3,0.3,0.3s0.3-0.1,0.3-0.3s-0.1-0.3-0.3-0.3S83.7,141.6,83.7,141.7z"/>
			<path d="M69.5,141.7c0,0.2,0.1,0.3,0.3,0.3c0.2,0,0.3-0.1,0.3-0.3s-0.1-0.3-0.3-0.3C69.6,141.4,69.5,141.6,69.5,141.7z"/>
		</g>
		<g>
			<path d="M55.3,141.7c0,0.2,0.1,0.3,0.3,0.3c0.2,0,0.3-0.1,0.3-0.3s-0.1-0.3-0.3-0.3C55.5,141.4,55.3,141.6,55.3,141.7z"/>
			<path d="M41.2,141.7c0,0.2,0.1,0.3,0.3,0.3s0.3-0.1,0.3-0.3s-0.1-0.3-0.3-0.3S41.2,141.6,41.2,141.7z"/>
		</g>
	</g>
	<g>
		<g>
			<path d="M367.1,155.9c0,0.2,0.1,0.3,0.3,0.3s0.3-0.1,0.3-0.3c0-0.2-0.1-0.3-0.3-0.3S367.1,155.7,367.1,155.9z"/>
			<path d="M353,155.9c0,0.2,0.1,0.3,0.3,0.3s0.3-0.1,0.3-0.3c0-0.2-0.1-0.3-0.3-0.3S353,155.7,353,155.9z"/>
		</g>
		<g>
			<path d="M338.8,155.9c0,0.2,0.1,0.3,0.3,0.3s0.3-0.1,0.3-0.3c0-0.2-0.1-0.3-0.3-0.3S338.8,155.7,338.8,155.9z"/>
			<path d="M324.6,155.9c0,0.2,0.1,0.3,0.3,0.3s0.3-0.1,0.3-0.3c0-0.2-0.1-0.3-0.3-0.3S324.6,155.7,324.6,155.9z"/>
		</g>
		<g>
			<path d="M310.4,155.9c0,0.2,0.1,0.3,0.3,0.3s0.3-0.1,0.3-0.3c0-0.2-0.1-0.3-0.3-0.3S310.4,155.7,310.4,155.9z"/>
			<path d="M296.3,155.9c0,0.2,0.1,0.3,0.3,0.3s0.3-0.1,0.3-0.3c0-0.2-0.1-0.3-0.3-0.3S296.3,155.7,296.3,155.9z"/>
		</g>
		<g>
			<path d="M282.1,155.9c0,0.2,0.1,0.3,0.3,0.3c0.2,0,0.3-0.1,0.3-0.3c0-0.2-0.1-0.3-0.3-0.3C282.2,155.6,282.1,155.7,282.1,155.9z"
				/>
			<path d="M267.9,155.9c0,0.2,0.1,0.3,0.3,0.3c0.2,0,0.3-0.1,0.3-0.3c0-0.2-0.1-0.3-0.3-0.3C268.1,155.6,267.9,155.7,267.9,155.9z"
				/>
		</g>
		<g>
			<path d="M253.8,155.9c0,0.2,0.1,0.3,0.3,0.3s0.3-0.1,0.3-0.3c0-0.2-0.1-0.3-0.3-0.3S253.8,155.7,253.8,155.9z"/>
			<path d="M239.6,155.9c0,0.2,0.1,0.3,0.3,0.3s0.3-0.1,0.3-0.3c0-0.2-0.1-0.3-0.3-0.3S239.6,155.7,239.6,155.9z"/>
		</g>
		<g>
			<path d="M225.4,155.9c0,0.2,0.1,0.3,0.3,0.3s0.3-0.1,0.3-0.3c0-0.2-0.1-0.3-0.3-0.3S225.4,155.7,225.4,155.9z"/>
			<path d="M211.2,155.9c0,0.2,0.1,0.3,0.3,0.3s0.3-0.1,0.3-0.3c0-0.2-0.1-0.3-0.3-0.3S211.2,155.7,211.2,155.9z"/>
		</g>
		<g>
			<path d="M197.1,155.9c0,0.2,0.1,0.3,0.3,0.3s0.3-0.1,0.3-0.3c0-0.2-0.1-0.3-0.3-0.3S197.1,155.7,197.1,155.9z"/>
			<path d="M182.9,155.9c0,0.2,0.1,0.3,0.3,0.3s0.3-0.1,0.3-0.3c0-0.2-0.1-0.3-0.3-0.3S182.9,155.7,182.9,155.9z"/>
		</g>
		<g>
			<path d="M168.7,155.9c0,0.2,0.1,0.3,0.3,0.3s0.3-0.1,0.3-0.3c0-0.2-0.1-0.3-0.3-0.3S168.7,155.7,168.7,155.9z"/>
			<path d="M154.5,155.9c0,0.2,0.1,0.3,0.3,0.3s0.3-0.1,0.3-0.3c0-0.2-0.1-0.3-0.3-0.3S154.5,155.7,154.5,155.9z"/>
		</g>
		<g>
			<path d="M140.4,155.9c0,0.2,0.1,0.3,0.3,0.3s0.3-0.1,0.3-0.3c0-0.2-0.1-0.3-0.3-0.3S140.4,155.7,140.4,155.9z"/>
			<path d="M126.2,155.9c0,0.2,0.1,0.3,0.3,0.3s0.3-0.1,0.3-0.3c0-0.2-0.1-0.3-0.3-0.3S126.2,155.7,126.2,155.9z"/>
		</g>
		<g>
			<path d="M112,155.9c0,0.2,0.1,0.3,0.3,0.3s0.3-0.1,0.3-0.3c0-0.2-0.1-0.3-0.3-0.3S112,155.7,112,155.9z"/>
			<path d="M97.9,155.9c0,0.2,0.1,0.3,0.3,0.3s0.3-0.1,0.3-0.3c0-0.2-0.1-0.3-0.3-0.3S97.9,155.7,97.9,155.9z"/>
		</g>
		<g>
			<path d="M83.7,155.9c0,0.2,0.1,0.3,0.3,0.3s0.3-0.1,0.3-0.3c0-0.2-0.1-0.3-0.3-0.3S83.7,155.7,83.7,155.9z"/>
			<path d="M69.5,155.9c0,0.2,0.1,0.3,0.3,0.3s0.3-0.1,0.3-0.3c0-0.2-0.1-0.3-0.3-0.3S69.5,155.7,69.5,155.9z"/>
		</g>
		<g>
			<path d="M55.3,155.9c0,0.2,0.1,0.3,0.3,0.3s0.3-0.1,0.3-0.3c0-0.2-0.1-0.3-0.3-0.3S55.3,155.7,55.3,155.9z"/>
			<path d="M41.2,155.9c0,0.2,0.1,0.3,0.3,0.3s0.3-0.1,0.3-0.3c0-0.2-0.1-0.3-0.3-0.3S41.2,155.7,41.2,155.9z"/>
		</g>
	</g>
	<g>
		<g>
			<path d="M367.1,170.1c0,0.2,0.1,0.3,0.3,0.3c0.2,0,0.3-0.1,0.3-0.3c0-0.2-0.1-0.3-0.3-0.3C367.3,169.8,367.1,169.9,367.1,170.1z"
				/>
			<path d="M353,170.1c0,0.2,0.1,0.3,0.3,0.3c0.2,0,0.3-0.1,0.3-0.3c0-0.2-0.1-0.3-0.3-0.3C353.1,169.8,353,169.9,353,170.1z"/>
		</g>
		<g>
			<path d="M338.8,170.1c0,0.2,0.1,0.3,0.3,0.3s0.3-0.1,0.3-0.3c0-0.2-0.1-0.3-0.3-0.3S338.8,169.9,338.8,170.1z"/>
			<path d="M324.6,170.1c0,0.2,0.1,0.3,0.3,0.3s0.3-0.1,0.3-0.3c0-0.2-0.1-0.3-0.3-0.3S324.6,169.9,324.6,170.1z"/>
		</g>
		<g>
			<path d="M310.4,170.1c0,0.2,0.1,0.3,0.3,0.3s0.3-0.1,0.3-0.3c0-0.2-0.1-0.3-0.3-0.3S310.4,169.9,310.4,170.1z"/>
			<path d="M296.3,170.1c0,0.2,0.1,0.3,0.3,0.3s0.3-0.1,0.3-0.3c0-0.2-0.1-0.3-0.3-0.3S296.3,169.9,296.3,170.1z"/>
		</g>
		<g>
			<path d="M282.1,170.1c0,0.2,0.1,0.3,0.3,0.3c0.2,0,0.3-0.1,0.3-0.3c0-0.2-0.1-0.3-0.3-0.3C282.2,169.8,282.1,169.9,282.1,170.1z"
				/>
			<path d="M267.9,170.1c0,0.2,0.1,0.3,0.3,0.3c0.2,0,0.3-0.1,0.3-0.3c0-0.2-0.1-0.3-0.3-0.3C268.1,169.8,267.9,169.9,267.9,170.1z"
				/>
		</g>
		<g>
			<path d="M253.8,170.1c0,0.2,0.1,0.3,0.3,0.3c0.2,0,0.3-0.1,0.3-0.3c0-0.2-0.1-0.3-0.3-0.3C253.9,169.8,253.8,169.9,253.8,170.1z"
				/>
			<path d="M239.6,170.1c0,0.2,0.1,0.3,0.3,0.3c0.2,0,0.3-0.1,0.3-0.3c0-0.2-0.1-0.3-0.3-0.3C239.7,169.8,239.6,169.9,239.6,170.1z"
				/>
		</g>
		<g>
			<path d="M225.4,170.1c0,0.2,0.1,0.3,0.3,0.3c0.2,0,0.3-0.1,0.3-0.3c0-0.2-0.1-0.3-0.3-0.3C225.5,169.8,225.4,169.9,225.4,170.1z"
				/>
			<path d="M211.2,170.1c0,0.2,0.1,0.3,0.3,0.3c0.2,0,0.3-0.1,0.3-0.3c0-0.2-0.1-0.3-0.3-0.3C211.4,169.8,211.2,169.9,211.2,170.1z"
				/>
		</g>
		<g>
			<path d="M197.1,170.1c0,0.2,0.1,0.3,0.3,0.3s0.3-0.1,0.3-0.3c0-0.2-0.1-0.3-0.3-0.3S197.1,169.9,197.1,170.1z"/>
			<path d="M182.9,170.1c0,0.2,0.1,0.3,0.3,0.3s0.3-0.1,0.3-0.3c0-0.2-0.1-0.3-0.3-0.3S182.9,169.9,182.9,170.1z"/>
		</g>
		<g>
			<path d="M168.7,170.1c0,0.2,0.1,0.3,0.3,0.3s0.3-0.1,0.3-0.3c0-0.2-0.1-0.3-0.3-0.3S168.7,169.9,168.7,170.1z"/>
			<path d="M154.5,170.1c0,0.2,0.1,0.3,0.3,0.3s0.3-0.1,0.3-0.3c0-0.2-0.1-0.3-0.3-0.3S154.5,169.9,154.5,170.1z"/>
		</g>
		<g>
			<path d="M140.4,170.1c0,0.2,0.1,0.3,0.3,0.3c0.2,0,0.3-0.1,0.3-0.3c0-0.2-0.1-0.3-0.3-0.3C140.5,169.8,140.4,169.9,140.4,170.1z"
				/>
			<path d="M126.2,170.1c0,0.2,0.1,0.3,0.3,0.3c0.2,0,0.3-0.1,0.3-0.3c0-0.2-0.1-0.3-0.3-0.3C126.3,169.8,126.2,169.9,126.2,170.1z"
				/>
		</g>
		<g>
			<path d="M112,170.1c0,0.2,0.1,0.3,0.3,0.3s0.3-0.1,0.3-0.3c0-0.2-0.1-0.3-0.3-0.3S112,169.9,112,170.1z"/>
			<path d="M97.9,170.1c0,0.2,0.1,0.3,0.3,0.3s0.3-0.1,0.3-0.3c0-0.2-0.1-0.3-0.3-0.3S97.9,169.9,97.9,170.1z"/>
		</g>
		<g>
			<path d="M83.7,170.1c0,0.2,0.1,0.3,0.3,0.3s0.3-0.1,0.3-0.3c0-0.2-0.1-0.3-0.3-0.3S83.7,169.9,83.7,170.1z"/>
			<path d="M69.5,170.1c0,0.2,0.1,0.3,0.3,0.3s0.3-0.1,0.3-0.3c0-0.2-0.1-0.3-0.3-0.3S69.5,169.9,69.5,170.1z"/>
		</g>
		<g>
			<path d="M55.3,170.1c0,0.2,0.1,0.3,0.3,0.3s0.3-0.1,0.3-0.3c0-0.2-0.1-0.3-0.3-0.3S55.3,169.9,55.3,170.1z"/>
			<path d="M41.2,170.1c0,0.2,0.1,0.3,0.3,0.3s0.3-0.1,0.3-0.3c0-0.2-0.1-0.3-0.3-0.3S41.2,169.9,41.2,170.1z"/>
		</g>
	</g>
	<g>
		<g>
			<circle cx="367.4" cy="184.3" r="0.3"/>
			<path d="M353,184.3c0,0.2,0.1,0.3,0.3,0.3s0.3-0.1,0.3-0.3s-0.1-0.3-0.3-0.3S353,184.1,353,184.3z"/>
		</g>
		<g>
			<circle cx="339.1" cy="184.3" r="0.3"/>
			<circle cx="324.9" cy="184.3" r="0.3"/>
		</g>
		<g>
			<circle cx="310.7" cy="184.3" r="0.3"/>
			<circle cx="296.6" cy="184.3" r="0.3"/>
		</g>
		<g>
			<circle cx="282.4" cy="184.3" r="0.3"/>
			<circle cx="268.2" cy="184.3" r="0.3"/>
		</g>
		<g>
			<circle cx="254" cy="184.3" r="0.3"/>
			<circle cx="239.9" cy="184.3" r="0.3"/>
		</g>
		<g>
			<circle cx="225.7" cy="184.3" r="0.3"/>
			<circle cx="211.5" cy="184.3" r="0.3"/>
		</g>
		<g>
			<circle cx="197.3" cy="184.3" r="0.3"/>
			<circle cx="183.2" cy="184.3" r="0.3"/>
		</g>
		<g>
			<circle cx="169" cy="184.3" r="0.3"/>
			<path d="M154.5,184.3c0,0.2,0.1,0.3,0.3,0.3s0.3-0.1,0.3-0.3s-0.1-0.3-0.3-0.3S154.5,184.1,154.5,184.3z"/>
		</g>
		<g>
			<path d="M140.4,184.3c0,0.2,0.1,0.3,0.3,0.3s0.3-0.1,0.3-0.3s-0.1-0.3-0.3-0.3S140.4,184.1,140.4,184.3z"/>
			<path d="M126.2,184.3c0,0.2,0.1,0.3,0.3,0.3s0.3-0.1,0.3-0.3s-0.1-0.3-0.3-0.3S126.2,184.1,126.2,184.3z"/>
		</g>
		<g>
			<path d="M112,184.3c0,0.2,0.1,0.3,0.3,0.3s0.3-0.1,0.3-0.3s-0.1-0.3-0.3-0.3S112,184.1,112,184.3z"/>
			<path d="M97.9,184.3c0,0.2,0.1,0.3,0.3,0.3s0.3-0.1,0.3-0.3s-0.1-0.3-0.3-0.3S97.9,184.1,97.9,184.3z"/>
		</g>
		<g>
			<path d="M83.7,184.3c0,0.2,0.1,0.3,0.3,0.3s0.3-0.1,0.3-0.3S84.1,184,84,184S83.7,184.1,83.7,184.3z"/>
			<path d="M69.5,184.3c0,0.2,0.1,0.3,0.3,0.3s0.3-0.1,0.3-0.3s-0.1-0.3-0.3-0.3S69.5,184.1,69.5,184.3z"/>
		</g>
		<g>
			<path d="M55.3,184.3c0,0.2,0.1,0.3,0.3,0.3s0.3-0.1,0.3-0.3s-0.1-0.3-0.3-0.3S55.3,184.1,55.3,184.3z"/>
			<path d="M41.2,184.3c0,0.2,0.1,0.3,0.3,0.3s0.3-0.1,0.3-0.3s-0.1-0.3-0.3-0.3S41.2,184.1,41.2,184.3z"/>
		</g>
	</g>
	<g>
		<g>
			<circle cx="367.4" cy="198.4" r="0.3"/>
			<path d="M353,198.4c0,0.2,0.1,0.3,0.3,0.3s0.3-0.1,0.3-0.3s-0.1-0.3-0.3-0.3S353,198.3,353,198.4z"/>
		</g>
		<g>
			<circle cx="339.1" cy="198.4" r="0.3"/>
			<circle cx="324.9" cy="198.4" r="0.3"/>
		</g>
		<g>
			<circle cx="310.7" cy="198.4" r="0.3"/>
			<circle cx="296.6" cy="198.4" r="0.3"/>
		</g>
		<g>
			<circle cx="282.4" cy="198.4" r="0.3"/>
			<circle cx="268.2" cy="198.4" r="0.3"/>
		</g>
		<g>
			<circle cx="254" cy="198.4" r="0.3"/>
			<circle cx="239.9" cy="198.4" r="0.3"/>
		</g>
		<g>
			<circle cx="225.7" cy="198.4" r="0.3"/>
			<circle cx="211.5" cy="198.4" r="0.3"/>
		</g>
		<g>
			<circle cx="197.3" cy="198.4" r="0.3"/>
			<circle cx="183.2" cy="198.4" r="0.3"/>
		</g>
		<g>
			<circle cx="169" cy="198.4" r="0.3"/>
			<path d="M154.5,198.4c0,0.2,0.1,0.3,0.3,0.3s0.3-0.1,0.3-0.3s-0.1-0.3-0.3-0.3S154.5,198.3,154.5,198.4z"/>
		</g>
		<g>
			<path d="M140.4,198.4c0,0.2,0.1,0.3,0.3,0.3s0.3-0.1,0.3-0.3s-0.1-0.3-0.3-0.3S140.4,198.3,140.4,198.4z"/>
			<path d="M126.2,198.4c0,0.2,0.1,0.3,0.3,0.3s0.3-0.1,0.3-0.3s-0.1-0.3-0.3-0.3S126.2,198.3,126.2,198.4z"/>
		</g>
		<g>
			<path d="M112,198.4c0,0.2,0.1,0.3,0.3,0.3s0.3-0.1,0.3-0.3s-0.1-0.3-0.3-0.3S112,198.3,112,198.4z"/>
			<path d="M97.9,198.4c0,0.2,0.1,0.3,0.3,0.3s0.3-0.1,0.3-0.3s-0.1-0.3-0.3-0.3S97.9,198.3,97.9,198.4z"/>
		</g>
		<g>
			<path d="M83.7,198.4c0,0.2,0.1,0.3,0.3,0.3s0.3-0.1,0.3-0.3s-0.1-0.3-0.3-0.3S83.7,198.3,83.7,198.4z"/>
			<path d="M69.5,198.4c0,0.2,0.1,0.3,0.3,0.3s0.3-0.1,0.3-0.3s-0.1-0.3-0.3-0.3S69.5,198.3,69.5,198.4z"/>
		</g>
		<g>
			<path d="M55.3,198.4c0,0.2,0.1,0.3,0.3,0.3s0.3-0.1,0.3-0.3s-0.1-0.3-0.3-0.3S55.3,198.3,55.3,198.4z"/>
			<path d="M41.2,198.4c0,0.2,0.1,0.3,0.3,0.3s0.3-0.1,0.3-0.3s-0.1-0.3-0.3-0.3S41.2,198.3,41.2,198.4z"/>
		</g>
	</g>
	<g>
		<g>
			<circle cx="367.4" cy="212.6" r="0.3"/>
			<path d="M353,212.6c0,0.2,0.1,0.3,0.3,0.3s0.3-0.1,0.3-0.3s-0.1-0.3-0.3-0.3S353,212.4,353,212.6z"/>
		</g>
		<g>
			<circle cx="339.1" cy="212.6" r="0.3"/>
			<circle cx="324.9" cy="212.6" r="0.3"/>
		</g>
		<g>
			<circle cx="310.7" cy="212.6" r="0.3"/>
			<circle cx="296.6" cy="212.6" r="0.3"/>
		</g>
		<g>
			<circle cx="282.4" cy="212.6" r="0.3"/>
			<circle cx="268.2" cy="212.6" r="0.3"/>
		</g>
		<g>
			<circle cx="254" cy="212.6" r="0.3"/>
			<circle cx="239.9" cy="212.6" r="0.3"/>
		</g>
		<g>
			<circle cx="225.7" cy="212.6" r="0.3"/>
			<circle cx="211.5" cy="212.6" r="0.3"/>
		</g>
		<g>
			<circle cx="197.3" cy="212.6" r="0.3"/>
			<circle cx="183.2" cy="212.6" r="0.3"/>
		</g>
		<g>
			<circle cx="169" cy="212.6" r="0.3"/>
			<path d="M154.5,212.6c0,0.2,0.1,0.3,0.3,0.3s0.3-0.1,0.3-0.3s-0.1-0.3-0.3-0.3S154.5,212.4,154.5,212.6z"/>
		</g>
		<g>
			<path d="M140.4,212.6c0,0.2,0.1,0.3,0.3,0.3s0.3-0.1,0.3-0.3s-0.1-0.3-0.3-0.3S140.4,212.4,140.4,212.6z"/>
			<path d="M126.2,212.6c0,0.2,0.1,0.3,0.3,0.3s0.3-0.1,0.3-0.3s-0.1-0.3-0.3-0.3S126.2,212.4,126.2,212.6z"/>
		</g>
		<g>
			<path d="M112,212.6c0,0.2,0.1,0.3,0.3,0.3s0.3-0.1,0.3-0.3s-0.1-0.3-0.3-0.3S112,212.4,112,212.6z"/>
			<path d="M97.9,212.6c0,0.2,0.1,0.3,0.3,0.3s0.3-0.1,0.3-0.3s-0.1-0.3-0.3-0.3S97.9,212.4,97.9,212.6z"/>
		</g>
		<g>
			<path d="M83.7,212.6c0,0.2,0.1,0.3,0.3,0.3s0.3-0.1,0.3-0.3s-0.1-0.3-0.3-0.3S83.7,212.4,83.7,212.6z"/>
			<path d="M69.5,212.6c0,0.2,0.1,0.3,0.3,0.3s0.3-0.1,0.3-0.3s-0.1-0.3-0.3-0.3S69.5,212.4,69.5,212.6z"/>
		</g>
		<g>
			<path d="M55.3,212.6c0,0.2,0.1,0.3,0.3,0.3s0.3-0.1,0.3-0.3s-0.1-0.3-0.3-0.3S55.3,212.4,55.3,212.6z"/>
			<path d="M41.2,212.6c0,0.2,0.1,0.3,0.3,0.3s0.3-0.1,0.3-0.3s-0.1-0.3-0.3-0.3S41.2,212.4,41.2,212.6z"/>
		</g>
	</g>
	<g>
		<g>
			<circle cx="367.4" cy="226.8" r="0.3"/>
			<circle cx="353.3" cy="226.8" r="0.3"/>
		</g>
		<g>
			<circle cx="339.1" cy="226.8" r="0.3"/>
			<circle cx="324.9" cy="226.8" r="0.3"/>
		</g>
		<g>
			<path d="M310.4,226.8c0,0.2,0.1,0.3,0.3,0.3s0.3-0.1,0.3-0.3s-0.1-0.3-0.3-0.3S310.4,226.6,310.4,226.8z"/>
			<path d="M296.3,226.8c0,0.2,0.1,0.3,0.3,0.3s0.3-0.1,0.3-0.3s-0.1-0.3-0.3-0.3S296.3,226.6,296.3,226.8z"/>
		</g>
		<g>
			<circle cx="282.4" cy="226.8" r="0.3"/>
			<circle cx="268.2" cy="226.8" r="0.3"/>
		</g>
		<g>
			<path d="M253.8,226.8c0,0.2,0.1,0.3,0.3,0.3c0.2,0,0.3-0.1,0.3-0.3s-0.1-0.3-0.3-0.3C253.9,226.5,253.8,226.6,253.8,226.8z"/>
			<path d="M239.6,226.8c0,0.2,0.1,0.3,0.3,0.3c0.2,0,0.3-0.1,0.3-0.3s-0.1-0.3-0.3-0.3C239.7,226.5,239.6,226.6,239.6,226.8z"/>
		</g>
		<g>
			<circle cx="225.7" cy="226.8" r="0.3"/>
			<circle cx="211.5" cy="226.8" r="0.3"/>
		</g>
		<g>
			<circle cx="197.3" cy="226.8" r="0.3"/>
			<circle cx="183.2" cy="226.8" r="0.3"/>
		</g>
		<g>
			<circle cx="169" cy="226.8" r="0.3"/>
			<path d="M154.5,226.8c0,0.2,0.1,0.3,0.3,0.3s0.3-0.1,0.3-0.3s-0.1-0.3-0.3-0.3S154.5,226.6,154.5,226.8z"/>
		</g>
		<g>
			<path d="M140.4,226.8c0,0.2,0.1,0.3,0.3,0.3c0.2,0,0.3-0.1,0.3-0.3s-0.1-0.3-0.3-0.3C140.5,226.5,140.4,226.6,140.4,226.8z"/>
			<path d="M126.2,226.8c0,0.2,0.1,0.3,0.3,0.3c0.2,0,0.3-0.1,0.3-0.3s-0.1-0.3-0.3-0.3C126.3,226.5,126.2,226.6,126.2,226.8z"/>
		</g>
		<g>
			<path d="M112,226.8c0,0.2,0.1,0.3,0.3,0.3s0.3-0.1,0.3-0.3s-0.1-0.3-0.3-0.3S112,226.6,112,226.8z"/>
			<path d="M97.9,226.8c0,0.2,0.1,0.3,0.3,0.3s0.3-0.1,0.3-0.3s-0.1-0.3-0.3-0.3S97.9,226.6,97.9,226.8z"/>
		</g>
		<g>
			<path d="M83.7,226.8c0,0.2,0.1,0.3,0.3,0.3s0.3-0.1,0.3-0.3s-0.1-0.3-0.3-0.3S83.7,226.6,83.7,226.8z"/>
			<path d="M69.5,226.8c0,0.2,0.1,0.3,0.3,0.3s0.3-0.1,0.3-0.3s-0.1-0.3-0.3-0.3S69.5,226.6,69.5,226.8z"/>
		</g>
		<g>
			<path d="M55.3,226.8c0,0.2,0.1,0.3,0.3,0.3s0.3-0.1,0.3-0.3s-0.1-0.3-0.3-0.3S55.3,226.6,55.3,226.8z"/>
			<path d="M41.2,226.8c0,0.2,0.1,0.3,0.3,0.3s0.3-0.1,0.3-0.3s-0.1-0.3-0.3-0.3S41.2,226.6,41.2,226.8z"/>
		</g>
	</g>
	<g>
		<g>
			<circle cx="367.4" cy="240.9" r="0.3"/>
			<path d="M353,240.9c0,0.2,0.1,0.3,0.3,0.3s0.3-0.1,0.3-0.3s-0.1-0.3-0.3-0.3S353,240.8,353,240.9z"/>
		</g>
		<g>
			<circle cx="339.1" cy="240.9" r="0.3"/>
			<circle cx="324.9" cy="240.9" r="0.3"/>
		</g>
		<g>
			<circle cx="310.7" cy="240.9" r="0.3"/>
			<circle cx="296.6" cy="240.9" r="0.3"/>
		</g>
		<g>
			<circle cx="282.4" cy="240.9" r="0.3"/>
			<circle cx="268.2" cy="240.9" r="0.3"/>
		</g>
		<g>
			<circle cx="254" cy="240.9" r="0.3"/>
			<circle cx="239.9" cy="240.9" r="0.3"/>
		</g>
		<g>
			<circle cx="225.7" cy="240.9" r="0.3"/>
			<circle cx="211.5" cy="240.9" r="0.3"/>
		</g>
		<g>
			<circle cx="197.3" cy="240.9" r="0.3"/>
			<circle cx="183.2" cy="240.9" r="0.3"/>
		</g>
		<g>
			<circle cx="169" cy="240.9" r="0.3"/>
			<path d="M154.5,240.9c0,0.2,0.1,0.3,0.3,0.3s0.3-0.1,0.3-0.3s-0.1-0.3-0.3-0.3S154.5,240.8,154.5,240.9z"/>
		</g>
		<g>
			<path d="M140.4,240.9c0,0.2,0.1,0.3,0.3,0.3s0.3-0.1,0.3-0.3s-0.1-0.3-0.3-0.3S140.4,240.8,140.4,240.9z"/>
			<path d="M126.2,240.9c0,0.2,0.1,0.3,0.3,0.3s0.3-0.1,0.3-0.3s-0.1-0.3-0.3-0.3S126.2,240.8,126.2,240.9z"/>
		</g>
		<g>
			<path d="M112,240.9c0,0.2,0.1,0.3,0.3,0.3s0.3-0.1,0.3-0.3s-0.1-0.3-0.3-0.3S112,240.8,112,240.9z"/>
			<path d="M97.9,240.9c0,0.2,0.1,0.3,0.3,0.3s0.3-0.1,0.3-0.3s-0.1-0.3-0.3-0.3S97.9,240.8,97.9,240.9z"/>
		</g>
		<g>
			<path d="M83.7,240.9c0,0.2,0.1,0.3,0.3,0.3s0.3-0.1,0.3-0.3s-0.1-0.3-0.3-0.3S83.7,240.8,83.7,240.9z"/>
			<path d="M69.5,240.9c0,0.2,0.1,0.3,0.3,0.3s0.3-0.1,0.3-0.3s-0.1-0.3-0.3-0.3S69.5,240.8,69.5,240.9z"/>
		</g>
		<g>
			<path d="M55.3,240.9c0,0.2,0.1,0.3,0.3,0.3s0.3-0.1,0.3-0.3s-0.1-0.3-0.3-0.3S55.3,240.8,55.3,240.9z"/>
			<path d="M41.2,240.9c0,0.2,0.1,0.3,0.3,0.3s0.3-0.1,0.3-0.3s-0.1-0.3-0.3-0.3S41.2,240.8,41.2,240.9z"/>
		</g>
	</g>
	<g>
		<g>
			<circle cx="367.4" cy="255.1" r="0.3"/>
			<path d="M353,255.1c0,0.2,0.1,0.3,0.3,0.3s0.3-0.1,0.3-0.3s-0.1-0.3-0.3-0.3S353,255,353,255.1z"/>
		</g>
		<g>
			<circle cx="339.1" cy="255.1" r="0.3"/>
			<circle cx="324.9" cy="255.1" r="0.3"/>
		</g>
		<g>
			<circle cx="310.7" cy="255.1" r="0.3"/>
			<circle cx="296.6" cy="255.1" r="0.3"/>
		</g>
		<g>
			<circle cx="282.4" cy="255.1" r="0.3"/>
			<circle cx="268.2" cy="255.1" r="0.3"/>
		</g>
		<g>
			<circle cx="254" cy="255.1" r="0.3"/>
			<circle cx="239.9" cy="255.1" r="0.3"/>
		</g>
		<g>
			<circle cx="225.7" cy="255.1" r="0.3"/>
			<circle cx="211.5" cy="255.1" r="0.3"/>
		</g>
		<g>
			<circle cx="197.3" cy="255.1" r="0.3"/>
			<circle cx="183.2" cy="255.1" r="0.3"/>
		</g>
		<g>
			<circle cx="169" cy="255.1" r="0.3"/>
			<path d="M154.5,255.1c0,0.2,0.1,0.3,0.3,0.3s0.3-0.1,0.3-0.3s-0.1-0.3-0.3-0.3S154.5,255,154.5,255.1z"/>
		</g>
		<g>
			<path d="M140.4,255.1c0,0.2,0.1,0.3,0.3,0.3s0.3-0.1,0.3-0.3s-0.1-0.3-0.3-0.3S140.4,255,140.4,255.1z"/>
			<path d="M126.2,255.1c0,0.2,0.1,0.3,0.3,0.3s0.3-0.1,0.3-0.3s-0.1-0.3-0.3-0.3S126.2,255,126.2,255.1z"/>
		</g>
		<g>
			<path d="M112,255.1c0,0.2,0.1,0.3,0.3,0.3s0.3-0.1,0.3-0.3s-0.1-0.3-0.3-0.3S112,255,112,255.1z"/>
			<path d="M97.9,255.1c0,0.2,0.1,0.3,0.3,0.3s0.3-0.1,0.3-0.3s-0.1-0.3-0.3-0.3S97.9,255,97.9,255.1z"/>
		</g>
		<g>
			<path d="M83.7,255.1c0,0.2,0.1,0.3,0.3,0.3s0.3-0.1,0.3-0.3s-0.1-0.3-0.3-0.3S83.7,255,83.7,255.1z"/>
			<path d="M69.5,255.1c0,0.2,0.1,0.3,0.3,0.3s0.3-0.1,0.3-0.3s-0.1-0.3-0.3-0.3S69.5,255,69.5,255.1z"/>
		</g>
		<g>
			<path d="M55.3,255.1c0,0.2,0.1,0.3,0.3,0.3s0.3-0.1,0.3-0.3s-0.1-0.3-0.3-0.3S55.3,255,55.3,255.1z"/>
			<path d="M41.2,255.1c0,0.2,0.1,0.3,0.3,0.3s0.3-0.1,0.3-0.3s-0.1-0.3-0.3-0.3S41.2,255,41.2,255.1z"/>
		</g>
	</g>
	<g>
		<g>
			<path d="M367.1,269.3c0,0.2,0.1,0.3,0.3,0.3c0.2,0,0.3-0.1,0.3-0.3s-0.1-0.3-0.3-0.3C367.3,269,367.1,269.1,367.1,269.3z"/>
			<path d="M353,269.3c0,0.2,0.1,0.3,0.3,0.3s0.3-0.1,0.3-0.3s-0.1-0.3-0.3-0.3S353,269.1,353,269.3z"/>
		</g>
		<g>
			<path d="M338.8,269.3c0,0.2,0.1,0.3,0.3,0.3s0.3-0.1,0.3-0.3s-0.1-0.3-0.3-0.3S338.8,269.1,338.8,269.3z"/>
			<path d="M324.6,269.3c0,0.2,0.1,0.3,0.3,0.3s0.3-0.1,0.3-0.3s-0.1-0.3-0.3-0.3S324.6,269.1,324.6,269.3z"/>
		</g>
		<g>
			<path d="M310.4,269.3c0,0.2,0.1,0.3,0.3,0.3s0.3-0.1,0.3-0.3s-0.1-0.3-0.3-0.3S310.4,269.1,310.4,269.3z"/>
			<path d="M296.3,269.3c0,0.2,0.1,0.3,0.3,0.3s0.3-0.1,0.3-0.3s-0.1-0.3-0.3-0.3S296.3,269.1,296.3,269.3z"/>
		</g>
		<g>
			<path d="M282.1,269.3c0,0.2,0.1,0.3,0.3,0.3s0.3-0.1,0.3-0.3s-0.1-0.3-0.3-0.3S282.1,269.1,282.1,269.3z"/>
			<path d="M267.9,269.3c0,0.2,0.1,0.3,0.3,0.3s0.3-0.1,0.3-0.3s-0.1-0.3-0.3-0.3S267.9,269.1,267.9,269.3z"/>
		</g>
		<g>
			<path d="M253.8,269.3c0,0.2,0.1,0.3,0.3,0.3s0.3-0.1,0.3-0.3s-0.1-0.3-0.3-0.3S253.8,269.1,253.8,269.3z"/>
			<path d="M239.6,269.3c0,0.2,0.1,0.3,0.3,0.3c0.2,0,0.3-0.1,0.3-0.3s-0.1-0.3-0.3-0.3C239.7,269,239.6,269.1,239.6,269.3z"/>
		</g>
		<g>
			<path d="M225.4,269.3c0,0.2,0.1,0.3,0.3,0.3s0.3-0.1,0.3-0.3s-0.1-0.3-0.3-0.3S225.4,269.1,225.4,269.3z"/>
			<path d="M211.2,269.3c0,0.2,0.1,0.3,0.3,0.3c0.2,0,0.3-0.1,0.3-0.3s-0.1-0.3-0.3-0.3C211.4,269,211.2,269.1,211.2,269.3z"/>
		</g>
		<g>
			<path d="M197.1,269.3c0,0.2,0.1,0.3,0.3,0.3c0.2,0,0.3-0.1,0.3-0.3s-0.1-0.3-0.3-0.3C197.2,269,197.1,269.1,197.1,269.3z"/>
			<path d="M182.9,269.3c0,0.2,0.1,0.3,0.3,0.3s0.3-0.1,0.3-0.3s-0.1-0.3-0.3-0.3S182.9,269.1,182.9,269.3z"/>
		</g>
		<g>
			<path d="M168.7,269.3c0,0.2,0.1,0.3,0.3,0.3c0.2,0,0.3-0.1,0.3-0.3s-0.1-0.3-0.3-0.3C168.8,269,168.7,269.1,168.7,269.3z"/>
			<path d="M154.5,269.3c0,0.2,0.1,0.3,0.3,0.3s0.3-0.1,0.3-0.3s-0.1-0.3-0.3-0.3S154.5,269.1,154.5,269.3z"/>
		</g>
		<g>
			<path d="M140.4,269.3c0,0.2,0.1,0.3,0.3,0.3s0.3-0.1,0.3-0.3s-0.1-0.3-0.3-0.3S140.4,269.1,140.4,269.3z"/>
			<path d="M126.2,269.3c0,0.2,0.1,0.3,0.3,0.3s0.3-0.1,0.3-0.3s-0.1-0.3-0.3-0.3S126.2,269.1,126.2,269.3z"/>
		</g>
		<g>
			<path d="M112,269.3c0,0.2,0.1,0.3,0.3,0.3s0.3-0.1,0.3-0.3s-0.1-0.3-0.3-0.3S112,269.1,112,269.3z"/>
			<path d="M97.9,269.3c0,0.2,0.1,0.3,0.3,0.3s0.3-0.1,0.3-0.3s-0.1-0.3-0.3-0.3S97.9,269.1,97.9,269.3z"/>
		</g>
		<g>
			<path d="M83.7,269.3c0,0.2,0.1,0.3,0.3,0.3s0.3-0.1,0.3-0.3S84.1,269,84,269S83.7,269.1,83.7,269.3z"/>
			<path d="M69.5,269.3c0,0.2,0.1,0.3,0.3,0.3s0.3-0.1,0.3-0.3s-0.1-0.3-0.3-0.3S69.5,269.1,69.5,269.3z"/>
		</g>
		<g>
			<path d="M55.3,269.3c0,0.2,0.1,0.3,0.3,0.3s0.3-0.1,0.3-0.3s-0.1-0.3-0.3-0.3S55.3,269.1,55.3,269.3z"/>
			<path d="M41.2,269.3c0,0.2,0.1,0.3,0.3,0.3c0.2,0,0.3-0.1,0.3-0.3s-0.1-0.3-0.3-0.3C41.3,269,41.2,269.1,41.2,269.3z"/>
		</g>
	</g>
	<g>
		<g>
			<path d="M367.1,283.5c0,0.2,0.1,0.3,0.3,0.3s0.3-0.1,0.3-0.3s-0.1-0.3-0.3-0.3S367.1,283.3,367.1,283.5z"/>
			<path d="M353,283.5c0,0.2,0.1,0.3,0.3,0.3s0.3-0.1,0.3-0.3s-0.1-0.3-0.3-0.3S353,283.3,353,283.5z"/>
		</g>
		<g>
			<path d="M338.8,283.5c0,0.2,0.1,0.3,0.3,0.3s0.3-0.1,0.3-0.3s-0.1-0.3-0.3-0.3S338.8,283.3,338.8,283.5z"/>
			<path d="M324.6,283.5c0,0.2,0.1,0.3,0.3,0.3s0.3-0.1,0.3-0.3s-0.1-0.3-0.3-0.3S324.6,283.3,324.6,283.5z"/>
		</g>
		<g>
			<path d="M310.4,283.5c0,0.2,0.1,0.3,0.3,0.3s0.3-0.1,0.3-0.3s-0.1-0.3-0.3-0.3S310.4,283.3,310.4,283.5z"/>
			<path d="M296.3,283.5c0,0.2,0.1,0.3,0.3,0.3s0.3-0.1,0.3-0.3s-0.1-0.3-0.3-0.3S296.3,283.3,296.3,283.5z"/>
		</g>
		<g>
			<path d="M282.1,283.5c0,0.2,0.1,0.3,0.3,0.3s0.3-0.1,0.3-0.3s-0.1-0.3-0.3-0.3S282.1,283.3,282.1,283.5z"/>
			<path d="M267.9,283.5c0,0.2,0.1,0.3,0.3,0.3c0.2,0,0.3-0.1,0.3-0.3s-0.1-0.3-0.3-0.3C268.1,283.2,267.9,283.3,267.9,283.5z"/>
		</g>
		<g>
			<path d="M253.8,283.5c0,0.2,0.1,0.3,0.3,0.3c0.2,0,0.3-0.1,0.3-0.3s-0.1-0.3-0.3-0.3C253.9,283.2,253.8,283.3,253.8,283.5z"/>
			<path d="M239.6,283.5c0,0.2,0.1,0.3,0.3,0.3s0.3-0.1,0.3-0.3s-0.1-0.3-0.3-0.3S239.6,283.3,239.6,283.5z"/>
		</g>
		<g>
			<path d="M225.4,283.5c0,0.2,0.1,0.3,0.3,0.3c0.2,0,0.3-0.1,0.3-0.3s-0.1-0.3-0.3-0.3C225.5,283.2,225.4,283.3,225.4,283.5z"/>
			<path d="M211.2,283.5c0,0.2,0.1,0.3,0.3,0.3s0.3-0.1,0.3-0.3s-0.1-0.3-0.3-0.3S211.2,283.3,211.2,283.5z"/>
		</g>
		<g>
			<path d="M197.1,283.5c0,0.2,0.1,0.3,0.3,0.3s0.3-0.1,0.3-0.3s-0.1-0.3-0.3-0.3S197.1,283.3,197.1,283.5z"/>
			<path d="M182.9,283.5c0,0.2,0.1,0.3,0.3,0.3s0.3-0.1,0.3-0.3s-0.1-0.3-0.3-0.3S182.9,283.3,182.9,283.5z"/>
		</g>
		<g>
			<path d="M168.7,283.5c0,0.2,0.1,0.3,0.3,0.3s0.3-0.1,0.3-0.3s-0.1-0.3-0.3-0.3S168.7,283.3,168.7,283.5z"/>
			<path d="M154.5,283.5c0,0.2,0.1,0.3,0.3,0.3s0.3-0.1,0.3-0.3s-0.1-0.3-0.3-0.3S154.5,283.3,154.5,283.5z"/>
		</g>
		<g>
			<path d="M140.4,283.5c0,0.2,0.1,0.3,0.3,0.3s0.3-0.1,0.3-0.3s-0.1-0.3-0.3-0.3S140.4,283.3,140.4,283.5z"/>
			<path d="M126.2,283.5c0,0.2,0.1,0.3,0.3,0.3s0.3-0.1,0.3-0.3s-0.1-0.3-0.3-0.3S126.2,283.3,126.2,283.5z"/>
		</g>
		<g>
			<path d="M112,283.5c0,0.2,0.1,0.3,0.3,0.3s0.3-0.1,0.3-0.3s-0.1-0.3-0.3-0.3S112,283.3,112,283.5z"/>
			<path d="M97.8,283.5c0,0.2,0.1,0.3,0.3,0.3c0.2,0,0.3-0.1,0.3-0.3s-0.1-0.3-0.3-0.3C98,283.2,97.8,283.3,97.8,283.5z"/>
		</g>
		<g>
			<path d="M83.7,283.5c0,0.2,0.1,0.3,0.3,0.3s0.3-0.1,0.3-0.3s-0.1-0.3-0.3-0.3S83.7,283.3,83.7,283.5z"/>
			<path d="M69.5,283.5c0,0.2,0.1,0.3,0.3,0.3c0.2,0,0.3-0.1,0.3-0.3s-0.1-0.3-0.3-0.3C69.6,283.2,69.5,283.3,69.5,283.5z"/>
		</g>
		<g>
			<path d="M55.3,283.5c0,0.2,0.1,0.3,0.3,0.3c0.2,0,0.3-0.1,0.3-0.3s-0.1-0.3-0.3-0.3C55.5,283.2,55.3,283.3,55.3,283.5z"/>
			<path d="M41.2,283.5c0,0.2,0.1,0.3,0.3,0.3s0.3-0.1,0.3-0.3s-0.1-0.3-0.3-0.3S41.2,283.3,41.2,283.5z"/>
		</g>
	</g>
	<g>
		<g>
			<path d="M367.1,297.6c0,0.2,0.1,0.3,0.3,0.3c0.2,0,0.3-0.1,0.3-0.3s-0.1-0.3-0.3-0.3C367.3,297.4,367.1,297.5,367.1,297.6z"/>
			<path d="M353,297.6c0,0.2,0.1,0.3,0.3,0.3s0.3-0.1,0.3-0.3s-0.1-0.3-0.3-0.3S353,297.5,353,297.6z"/>
		</g>
		<g>
			<path d="M338.8,297.6c0,0.2,0.1,0.3,0.3,0.3s0.3-0.1,0.3-0.3s-0.1-0.3-0.3-0.3S338.8,297.5,338.8,297.6z"/>
			<path d="M324.6,297.6c0,0.2,0.1,0.3,0.3,0.3s0.3-0.1,0.3-0.3s-0.1-0.3-0.3-0.3S324.6,297.5,324.6,297.6z"/>
		</g>
		<g>
			<path d="M310.4,297.6c0,0.2,0.1,0.3,0.3,0.3s0.3-0.1,0.3-0.3s-0.1-0.3-0.3-0.3S310.4,297.5,310.4,297.6z"/>
			<path d="M296.3,297.6c0,0.2,0.1,0.3,0.3,0.3s0.3-0.1,0.3-0.3s-0.1-0.3-0.3-0.3S296.3,297.5,296.3,297.6z"/>
		</g>
		<g>
			<path d="M282.1,297.6c0,0.2,0.1,0.3,0.3,0.3s0.3-0.1,0.3-0.3s-0.1-0.3-0.3-0.3S282.1,297.5,282.1,297.6z"/>
			<path d="M267.9,297.6c0,0.2,0.1,0.3,0.3,0.3s0.3-0.1,0.3-0.3s-0.1-0.3-0.3-0.3S267.9,297.5,267.9,297.6z"/>
		</g>
		<g>
			<path d="M253.8,297.6c0,0.2,0.1,0.3,0.3,0.3s0.3-0.1,0.3-0.3s-0.1-0.3-0.3-0.3S253.8,297.5,253.8,297.6z"/>
			<path d="M239.6,297.6c0,0.2,0.1,0.3,0.3,0.3c0.2,0,0.3-0.1,0.3-0.3s-0.1-0.3-0.3-0.3C239.7,297.4,239.6,297.5,239.6,297.6z"/>
		</g>
		<g>
			<path d="M225.4,297.6c0,0.2,0.1,0.3,0.3,0.3s0.3-0.1,0.3-0.3s-0.1-0.3-0.3-0.3S225.4,297.5,225.4,297.6z"/>
			<path d="M211.2,297.6c0,0.2,0.1,0.3,0.3,0.3c0.2,0,0.3-0.1,0.3-0.3s-0.1-0.3-0.3-0.3C211.4,297.4,211.2,297.5,211.2,297.6z"/>
		</g>
		<g>
			<path d="M197.1,297.6c0,0.2,0.1,0.3,0.3,0.3c0.2,0,0.3-0.1,0.3-0.3s-0.1-0.3-0.3-0.3C197.2,297.4,197.1,297.5,197.1,297.6z"/>
			<path d="M182.9,297.6c0,0.2,0.1,0.3,0.3,0.3s0.3-0.1,0.3-0.3s-0.1-0.3-0.3-0.3S182.9,297.5,182.9,297.6z"/>
		</g>
		<g>
			<path d="M168.7,297.6c0,0.2,0.1,0.3,0.3,0.3c0.2,0,0.3-0.1,0.3-0.3s-0.1-0.3-0.3-0.3C168.8,297.4,168.7,297.5,168.7,297.6z"/>
			<path d="M154.5,297.6c0,0.2,0.1,0.3,0.3,0.3s0.3-0.1,0.3-0.3s-0.1-0.3-0.3-0.3S154.5,297.5,154.5,297.6z"/>
		</g>
		<g>
			<path d="M140.4,297.6c0,0.2,0.1,0.3,0.3,0.3s0.3-0.1,0.3-0.3s-0.1-0.3-0.3-0.3S140.4,297.5,140.4,297.6z"/>
			<path d="M126.2,297.6c0,0.2,0.1,0.3,0.3,0.3s0.3-0.1,0.3-0.3s-0.1-0.3-0.3-0.3S126.2,297.5,126.2,297.6z"/>
		</g>
		<g>
			<path d="M112,297.6c0,0.2,0.1,0.3,0.3,0.3s0.3-0.1,0.3-0.3s-0.1-0.3-0.3-0.3S112,297.5,112,297.6z"/>
			<path d="M97.9,297.6c0,0.2,0.1,0.3,0.3,0.3s0.3-0.1,0.3-0.3s-0.1-0.3-0.3-0.3S97.9,297.5,97.9,297.6z"/>
		</g>
		<g>
			<path d="M83.7,297.6c0,0.2,0.1,0.3,0.3,0.3s0.3-0.1,0.3-0.3s-0.1-0.3-0.3-0.3S83.7,297.5,83.7,297.6z"/>
			<path d="M69.5,297.6c0,0.2,0.1,0.3,0.3,0.3s0.3-0.1,0.3-0.3s-0.1-0.3-0.3-0.3S69.5,297.5,69.5,297.6z"/>
		</g>
		<g>
			<path d="M55.3,297.6c0,0.2,0.1,0.3,0.3,0.3s0.3-0.1,0.3-0.3s-0.1-0.3-0.3-0.3S55.3,297.5,55.3,297.6z"/>
			<path d="M41.2,297.6c0,0.2,0.1,0.3,0.3,0.3c0.2,0,0.3-0.1,0.3-0.3s-0.1-0.3-0.3-0.3C41.3,297.4,41.2,297.5,41.2,297.6z"/>
		</g>
	</g>
	<g>
		<g>
			<path d="M367.1,311.8c0,0.2,0.1,0.3,0.3,0.3c0.2,0,0.3-0.1,0.3-0.3s-0.1-0.3-0.3-0.3C367.3,311.5,367.1,311.7,367.1,311.8z"/>
			<path d="M353,311.8c0,0.2,0.1,0.3,0.3,0.3s0.3-0.1,0.3-0.3s-0.1-0.3-0.3-0.3S353,311.7,353,311.8z"/>
		</g>
		<g>
			<path d="M338.8,311.8c0,0.2,0.1,0.3,0.3,0.3s0.3-0.1,0.3-0.3s-0.1-0.3-0.3-0.3S338.8,311.7,338.8,311.8z"/>
			<path d="M324.6,311.8c0,0.2,0.1,0.3,0.3,0.3s0.3-0.1,0.3-0.3s-0.1-0.3-0.3-0.3S324.6,311.7,324.6,311.8z"/>
		</g>
		<g>
			<path d="M310.4,311.8c0,0.2,0.1,0.3,0.3,0.3s0.3-0.1,0.3-0.3s-0.1-0.3-0.3-0.3S310.4,311.7,310.4,311.8z"/>
			<path d="M296.3,311.8c0,0.2,0.1,0.3,0.3,0.3s0.3-0.1,0.3-0.3s-0.1-0.3-0.3-0.3S296.3,311.7,296.3,311.8z"/>
		</g>
		<g>
			<path d="M282.1,311.8c0,0.2,0.1,0.3,0.3,0.3s0.3-0.1,0.3-0.3s-0.1-0.3-0.3-0.3S282.1,311.7,282.1,311.8z"/>
			<path d="M267.9,311.8c0,0.2,0.1,0.3,0.3,0.3s0.3-0.1,0.3-0.3s-0.1-0.3-0.3-0.3S267.9,311.7,267.9,311.8z"/>
		</g>
		<g>
			<path d="M253.8,311.8c0,0.2,0.1,0.3,0.3,0.3s0.3-0.1,0.3-0.3s-0.1-0.3-0.3-0.3S253.8,311.7,253.8,311.8z"/>
			<path d="M239.6,311.8c0,0.2,0.1,0.3,0.3,0.3c0.2,0,0.3-0.1,0.3-0.3s-0.1-0.3-0.3-0.3C239.7,311.5,239.6,311.7,239.6,311.8z"/>
		</g>
		<g>
			<path d="M225.4,311.8c0,0.2,0.1,0.3,0.3,0.3s0.3-0.1,0.3-0.3s-0.1-0.3-0.3-0.3S225.4,311.7,225.4,311.8z"/>
			<path d="M211.2,311.8c0,0.2,0.1,0.3,0.3,0.3c0.2,0,0.3-0.1,0.3-0.3s-0.1-0.3-0.3-0.3C211.4,311.5,211.2,311.7,211.2,311.8z"/>
		</g>
		<g>
			<path d="M197.1,311.8c0,0.2,0.1,0.3,0.3,0.3c0.2,0,0.3-0.1,0.3-0.3s-0.1-0.3-0.3-0.3C197.2,311.5,197.1,311.7,197.1,311.8z"/>
			<path d="M182.9,311.8c0,0.2,0.1,0.3,0.3,0.3s0.3-0.1,0.3-0.3s-0.1-0.3-0.3-0.3S182.9,311.7,182.9,311.8z"/>
		</g>
		<g>
			<path d="M168.7,311.8c0,0.2,0.1,0.3,0.3,0.3c0.2,0,0.3-0.1,0.3-0.3s-0.1-0.3-0.3-0.3C168.8,311.5,168.7,311.7,168.7,311.8z"/>
			<path d="M154.5,311.8c0,0.2,0.1,0.3,0.3,0.3s0.3-0.1,0.3-0.3s-0.1-0.3-0.3-0.3S154.5,311.7,154.5,311.8z"/>
		</g>
		<g>
			<path d="M140.4,311.8c0,0.2,0.1,0.3,0.3,0.3s0.3-0.1,0.3-0.3s-0.1-0.3-0.3-0.3S140.4,311.7,140.4,311.8z"/>
			<path d="M126.2,311.8c0,0.2,0.1,0.3,0.3,0.3s0.3-0.1,0.3-0.3s-0.1-0.3-0.3-0.3S126.2,311.7,126.2,311.8z"/>
		</g>
		<g>
			<path d="M112,311.8c0,0.2,0.1,0.3,0.3,0.3s0.3-0.1,0.3-0.3s-0.1-0.3-0.3-0.3S112,311.7,112,311.8z"/>
			<path d="M97.9,311.8c0,0.2,0.1,0.3,0.3,0.3s0.3-0.1,0.3-0.3s-0.1-0.3-0.3-0.3S97.9,311.7,97.9,311.8z"/>
		</g>
		<g>
			<path d="M83.7,311.8c0,0.2,0.1,0.3,0.3,0.3s0.3-0.1,0.3-0.3s-0.1-0.3-0.3-0.3S83.7,311.7,83.7,311.8z"/>
			<path d="M69.5,311.8c0,0.2,0.1,0.3,0.3,0.3s0.3-0.1,0.3-0.3s-0.1-0.3-0.3-0.3S69.5,311.7,69.5,311.8z"/>
		</g>
		<g>
			<path d="M55.3,311.8c0,0.2,0.1,0.3,0.3,0.3s0.3-0.1,0.3-0.3s-0.1-0.3-0.3-0.3S55.3,311.7,55.3,311.8z"/>
			<path d="M41.2,311.8c0,0.2,0.1,0.3,0.3,0.3c0.2,0,0.3-0.1,0.3-0.3s-0.1-0.3-0.3-0.3C41.3,311.5,41.2,311.7,41.2,311.8z"/>
		</g>
	</g>
	<g>
		<g>
			<path d="M367.1,326c0,0.2,0.1,0.3,0.3,0.3c0.2,0,0.3-0.1,0.3-0.3c0-0.2-0.1-0.3-0.3-0.3C367.3,325.7,367.1,325.8,367.1,326z"/>
			<path d="M353,326c0,0.2,0.1,0.3,0.3,0.3s0.3-0.1,0.3-0.3c0-0.2-0.1-0.3-0.3-0.3S353,325.8,353,326z"/>
		</g>
		<g>
			<path d="M338.8,326c0,0.2,0.1,0.3,0.3,0.3s0.3-0.1,0.3-0.3c0-0.2-0.1-0.3-0.3-0.3S338.8,325.8,338.8,326z"/>
			<path d="M324.6,326c0,0.2,0.1,0.3,0.3,0.3s0.3-0.1,0.3-0.3c0-0.2-0.1-0.3-0.3-0.3S324.6,325.8,324.6,326z"/>
		</g>
		<g>
			<path d="M310.4,326c0,0.2,0.1,0.3,0.3,0.3s0.3-0.1,0.3-0.3c0-0.2-0.1-0.3-0.3-0.3S310.4,325.8,310.4,326z"/>
			<path d="M296.3,326c0,0.2,0.1,0.3,0.3,0.3s0.3-0.1,0.3-0.3c0-0.2-0.1-0.3-0.3-0.3S296.3,325.8,296.3,326z"/>
		</g>
		<g>
			<path d="M282.1,326c0,0.2,0.1,0.3,0.3,0.3s0.3-0.1,0.3-0.3c0-0.2-0.1-0.3-0.3-0.3S282.1,325.8,282.1,326z"/>
			<path d="M267.9,326c0,0.2,0.1,0.3,0.3,0.3s0.3-0.1,0.3-0.3c0-0.2-0.1-0.3-0.3-0.3S267.9,325.8,267.9,326z"/>
		</g>
		<g>
			<path d="M253.8,326c0,0.2,0.1,0.3,0.3,0.3s0.3-0.1,0.3-0.3c0-0.2-0.1-0.3-0.3-0.3S253.8,325.8,253.8,326z"/>
			<path d="M239.6,326c0,0.2,0.1,0.3,0.3,0.3c0.2,0,0.3-0.1,0.3-0.3c0-0.2-0.1-0.3-0.3-0.3C239.7,325.7,239.6,325.8,239.6,326z"/>
		</g>
		<g>
			<path d="M225.4,326c0,0.2,0.1,0.3,0.3,0.3s0.3-0.1,0.3-0.3c0-0.2-0.1-0.3-0.3-0.3S225.4,325.8,225.4,326z"/>
			<path d="M211.2,326c0,0.2,0.1,0.3,0.3,0.3c0.2,0,0.3-0.1,0.3-0.3c0-0.2-0.1-0.3-0.3-0.3C211.4,325.7,211.2,325.8,211.2,326z"/>
		</g>
		<g>
			<path d="M197.1,326c0,0.2,0.1,0.3,0.3,0.3c0.2,0,0.3-0.1,0.3-0.3c0-0.2-0.1-0.3-0.3-0.3C197.2,325.7,197.1,325.8,197.1,326z"/>
			<path d="M182.9,326c0,0.2,0.1,0.3,0.3,0.3s0.3-0.1,0.3-0.3c0-0.2-0.1-0.3-0.3-0.3S182.9,325.8,182.9,326z"/>
		</g>
		<g>
			<path d="M168.7,326c0,0.2,0.1,0.3,0.3,0.3c0.2,0,0.3-0.1,0.3-0.3c0-0.2-0.1-0.3-0.3-0.3C168.8,325.7,168.7,325.8,168.7,326z"/>
			<path d="M154.5,326c0,0.2,0.1,0.3,0.3,0.3s0.3-0.1,0.3-0.3c0-0.2-0.1-0.3-0.3-0.3S154.5,325.8,154.5,326z"/>
		</g>
		<g>
			<path d="M140.4,326c0,0.2,0.1,0.3,0.3,0.3s0.3-0.1,0.3-0.3c0-0.2-0.1-0.3-0.3-0.3S140.4,325.8,140.4,326z"/>
			<path d="M126.2,326c0,0.2,0.1,0.3,0.3,0.3s0.3-0.1,0.3-0.3c0-0.2-0.1-0.3-0.3-0.3S126.2,325.8,126.2,326z"/>
		</g>
		<g>
			<path d="M112,326c0,0.2,0.1,0.3,0.3,0.3s0.3-0.1,0.3-0.3c0-0.2-0.1-0.3-0.3-0.3S112,325.8,112,326z"/>
			<path d="M97.9,326c0,0.2,0.1,0.3,0.3,0.3s0.3-0.1,0.3-0.3c0-0.2-0.1-0.3-0.3-0.3S97.9,325.8,97.9,326z"/>
		</g>
		<g>
			<path d="M83.7,326c0,0.2,0.1,0.3,0.3,0.3s0.3-0.1,0.3-0.3c0-0.2-0.1-0.3-0.3-0.3S83.7,325.8,83.7,326z"/>
			<path d="M69.5,326c0,0.2,0.1,0.3,0.3,0.3s0.3-0.1,0.3-0.3c0-0.2-0.1-0.3-0.3-0.3S69.5,325.8,69.5,326z"/>
		</g>
		<g>
			<path d="M55.3,326c0,0.2,0.1,0.3,0.3,0.3s0.3-0.1,0.3-0.3c0-0.2-0.1-0.3-0.3-0.3S55.3,325.8,55.3,326z"/>
			<path d="M41.2,326c0,0.2,0.1,0.3,0.3,0.3c0.2,0,0.3-0.1,0.3-0.3c0-0.2-0.1-0.3-0.3-0.3C41.3,325.7,41.2,325.8,41.2,326z"/>
		</g>
	</g>
	<g>
		<g>
			<path d="M367.1,340.2c0,0.2,0.1,0.3,0.3,0.3s0.3-0.1,0.3-0.3s-0.1-0.3-0.3-0.3S367.1,340,367.1,340.2z"/>
			<path d="M353,340.2c0,0.2,0.1,0.3,0.3,0.3s0.3-0.1,0.3-0.3s-0.1-0.3-0.3-0.3S353,340,353,340.2z"/>
		</g>
		<g>
			<path d="M338.8,340.2c0,0.2,0.1,0.3,0.3,0.3s0.3-0.1,0.3-0.3s-0.1-0.3-0.3-0.3S338.8,340,338.8,340.2z"/>
			<path d="M324.6,340.2c0,0.2,0.1,0.3,0.3,0.3s0.3-0.1,0.3-0.3s-0.1-0.3-0.3-0.3S324.6,340,324.6,340.2z"/>
		</g>
		<g>
			<path d="M310.4,340.2c0,0.2,0.1,0.3,0.3,0.3s0.3-0.1,0.3-0.3s-0.1-0.3-0.3-0.3S310.4,340,310.4,340.2z"/>
			<path d="M296.3,340.2c0,0.2,0.1,0.3,0.3,0.3s0.3-0.1,0.3-0.3s-0.1-0.3-0.3-0.3S296.3,340,296.3,340.2z"/>
		</g>
		<g>
			<path d="M282.1,340.2c0,0.2,0.1,0.3,0.3,0.3s0.3-0.1,0.3-0.3s-0.1-0.3-0.3-0.3S282.1,340,282.1,340.2z"/>
			<path d="M267.9,340.2c0,0.2,0.1,0.3,0.3,0.3c0.2,0,0.3-0.1,0.3-0.3s-0.1-0.3-0.3-0.3C268.1,339.9,267.9,340,267.9,340.2z"/>
		</g>
		<g>
			<path d="M253.8,340.2c0,0.2,0.1,0.3,0.3,0.3c0.2,0,0.3-0.1,0.3-0.3s-0.1-0.3-0.3-0.3C253.9,339.9,253.8,340,253.8,340.2z"/>
			<path d="M239.6,340.2c0,0.2,0.1,0.3,0.3,0.3c0.2,0,0.3-0.1,0.3-0.3s-0.1-0.3-0.3-0.3C239.7,339.9,239.6,340,239.6,340.2z"/>
		</g>
		<g>
			<path d="M225.4,340.2c0,0.2,0.1,0.3,0.3,0.3c0.2,0,0.3-0.1,0.3-0.3s-0.1-0.3-0.3-0.3C225.5,339.9,225.4,340,225.4,340.2z"/>
			<path d="M211.2,340.2c0,0.2,0.1,0.3,0.3,0.3s0.3-0.1,0.3-0.3s-0.1-0.3-0.3-0.3S211.2,340,211.2,340.2z"/>
		</g>
		<g>
			<path d="M197.1,340.2c0,0.2,0.1,0.3,0.3,0.3s0.3-0.1,0.3-0.3s-0.1-0.3-0.3-0.3S197.1,340,197.1,340.2z"/>
			<path d="M182.9,340.2c0,0.2,0.1,0.3,0.3,0.3s0.3-0.1,0.3-0.3s-0.1-0.3-0.3-0.3S182.9,340,182.9,340.2z"/>
		</g>
		<g>
			<path d="M168.7,340.2c0,0.2,0.1,0.3,0.3,0.3s0.3-0.1,0.3-0.3s-0.1-0.3-0.3-0.3S168.7,340,168.7,340.2z"/>
			<path d="M154.5,340.2c0,0.2,0.1,0.3,0.3,0.3s0.3-0.1,0.3-0.3s-0.1-0.3-0.3-0.3S154.5,340,154.5,340.2z"/>
		</g>
		<g>
			<path d="M140.4,340.2c0,0.2,0.1,0.3,0.3,0.3s0.3-0.1,0.3-0.3s-0.1-0.3-0.3-0.3S140.4,340,140.4,340.2z"/>
			<path d="M126.2,340.2c0,0.2,0.1,0.3,0.3,0.3s0.3-0.1,0.3-0.3s-0.1-0.3-0.3-0.3S126.2,340,126.2,340.2z"/>
		</g>
		<g>
			<path d="M112,340.2c0,0.2,0.1,0.3,0.3,0.3s0.3-0.1,0.3-0.3s-0.1-0.3-0.3-0.3S112,340,112,340.2z"/>
			<path d="M97.9,340.2c0,0.2,0.1,0.3,0.3,0.3s0.3-0.1,0.3-0.3s-0.1-0.3-0.3-0.3S97.9,340,97.9,340.2z"/>
		</g>
		<g>
			<path d="M83.7,340.2c0,0.2,0.1,0.3,0.3,0.3s0.3-0.1,0.3-0.3s-0.1-0.3-0.3-0.3S83.7,340,83.7,340.2z"/>
			<path d="M69.5,340.2c0,0.2,0.1,0.3,0.3,0.3c0.2,0,0.3-0.1,0.3-0.3s-0.1-0.3-0.3-0.3C69.6,339.9,69.5,340,69.5,340.2z"/>
		</g>
		<g>
			<path d="M55.3,340.2c0,0.2,0.1,0.3,0.3,0.3c0.2,0,0.3-0.1,0.3-0.3s-0.1-0.3-0.3-0.3C55.5,339.9,55.3,340,55.3,340.2z"/>
			<path d="M41.2,340.2c0,0.2,0.1,0.3,0.3,0.3s0.3-0.1,0.3-0.3s-0.1-0.3-0.3-0.3S41.2,340,41.2,340.2z"/>
		</g>
	</g>
	<g>
		<g>
			<path d="M367.1,354.3c0,0.2,0.1,0.3,0.3,0.3s0.3-0.1,0.3-0.3c0-0.2-0.1-0.3-0.3-0.3S367.1,354.2,367.1,354.3z"/>
			<path d="M353,354.3c0,0.2,0.1,0.3,0.3,0.3s0.3-0.1,0.3-0.3c0-0.2-0.1-0.3-0.3-0.3S353,354.2,353,354.3z"/>
		</g>
		<g>
			<path d="M338.8,354.3c0,0.2,0.1,0.3,0.3,0.3s0.3-0.1,0.3-0.3c0-0.2-0.1-0.3-0.3-0.3S338.8,354.2,338.8,354.3z"/>
			<path d="M324.6,354.3c0,0.2,0.1,0.3,0.3,0.3s0.3-0.1,0.3-0.3c0-0.2-0.1-0.3-0.3-0.3S324.6,354.2,324.6,354.3z"/>
		</g>
		<g>
			<path d="M310.4,354.3c0,0.2,0.1,0.3,0.3,0.3s0.3-0.1,0.3-0.3c0-0.2-0.1-0.3-0.3-0.3S310.4,354.2,310.4,354.3z"/>
			<path d="M296.3,354.3c0,0.2,0.1,0.3,0.3,0.3s0.3-0.1,0.3-0.3c0-0.2-0.1-0.3-0.3-0.3S296.3,354.2,296.3,354.3z"/>
		</g>
		<g>
			<path d="M282.1,354.3c0,0.2,0.1,0.3,0.3,0.3s0.3-0.1,0.3-0.3c0-0.2-0.1-0.3-0.3-0.3S282.1,354.2,282.1,354.3z"/>
			<path d="M267.9,354.3c0,0.2,0.1,0.3,0.3,0.3c0.2,0,0.3-0.1,0.3-0.3c0-0.2-0.1-0.3-0.3-0.3C268.1,354,267.9,354.2,267.9,354.3z"/>
		</g>
		<g>
			<path d="M253.8,354.3c0,0.2,0.1,0.3,0.3,0.3c0.2,0,0.3-0.1,0.3-0.3c0-0.2-0.1-0.3-0.3-0.3C253.9,354,253.8,354.2,253.8,354.3z"/>
			<path d="M239.6,354.3c0,0.2,0.1,0.3,0.3,0.3c0.2,0,0.3-0.1,0.3-0.3c0-0.2-0.1-0.3-0.3-0.3C239.7,354,239.6,354.2,239.6,354.3z"/>
		</g>
		<g>
			<path d="M225.4,354.3c0,0.2,0.1,0.3,0.3,0.3c0.2,0,0.3-0.1,0.3-0.3c0-0.2-0.1-0.3-0.3-0.3C225.5,354,225.4,354.2,225.4,354.3z"/>
			<path d="M211.2,354.3c0,0.2,0.1,0.3,0.3,0.3s0.3-0.1,0.3-0.3c0-0.2-0.1-0.3-0.3-0.3S211.2,354.2,211.2,354.3z"/>
		</g>
		<g>
			<path d="M197.1,354.3c0,0.2,0.1,0.3,0.3,0.3s0.3-0.1,0.3-0.3c0-0.2-0.1-0.3-0.3-0.3S197.1,354.2,197.1,354.3z"/>
			<path d="M182.9,354.3c0,0.2,0.1,0.3,0.3,0.3s0.3-0.1,0.3-0.3c0-0.2-0.1-0.3-0.3-0.3S182.9,354.2,182.9,354.3z"/>
		</g>
		<g>
			<path d="M168.7,354.3c0,0.2,0.1,0.3,0.3,0.3s0.3-0.1,0.3-0.3c0-0.2-0.1-0.3-0.3-0.3S168.7,354.2,168.7,354.3z"/>
			<path d="M154.5,354.3c0,0.2,0.1,0.3,0.3,0.3s0.3-0.1,0.3-0.3c0-0.2-0.1-0.3-0.3-0.3S154.5,354.2,154.5,354.3z"/>
		</g>
		<g>
			<path d="M140.4,354.3c0,0.2,0.1,0.3,0.3,0.3s0.3-0.1,0.3-0.3c0-0.2-0.1-0.3-0.3-0.3S140.4,354.2,140.4,354.3z"/>
			<path d="M126.2,354.3c0,0.2,0.1,0.3,0.3,0.3s0.3-0.1,0.3-0.3c0-0.2-0.1-0.3-0.3-0.3S126.2,354.2,126.2,354.3z"/>
		</g>
		<g>
			<path d="M112,354.3c0,0.2,0.1,0.3,0.3,0.3s0.3-0.1,0.3-0.3c0-0.2-0.1-0.3-0.3-0.3S112,354.2,112,354.3z"/>
			<path d="M97.9,354.3c0,0.2,0.1,0.3,0.3,0.3s0.3-0.1,0.3-0.3c0-0.2-0.1-0.3-0.3-0.3S97.9,354.2,97.9,354.3z"/>
		</g>
		<g>
			<path d="M83.7,354.3c0,0.2,0.1,0.3,0.3,0.3s0.3-0.1,0.3-0.3c0-0.2-0.1-0.3-0.3-0.3S83.7,354.2,83.7,354.3z"/>
			<path d="M69.5,354.3c0,0.2,0.1,0.3,0.3,0.3c0.2,0,0.3-0.1,0.3-0.3c0-0.2-0.1-0.3-0.3-0.3C69.6,354,69.5,354.2,69.5,354.3z"/>
		</g>
		<g>
			<path d="M55.3,354.3c0,0.2,0.1,0.3,0.3,0.3c0.2,0,0.3-0.1,0.3-0.3c0-0.2-0.1-0.3-0.3-0.3C55.5,354,55.3,354.2,55.3,354.3z"/>
			<path d="M41.2,354.3c0,0.2,0.1,0.3,0.3,0.3s0.3-0.1,0.3-0.3c0-0.2-0.1-0.3-0.3-0.3S41.2,354.2,41.2,354.3z"/>
		</g>
	</g>
	<g>
		<g>
			<path d="M367.1,368.5c0,0.2,0.1,0.3,0.3,0.3c0.2,0,0.3-0.1,0.3-0.3s-0.1-0.3-0.3-0.3C367.3,368.2,367.1,368.3,367.1,368.5z"/>
			<path d="M353,368.5c0,0.2,0.1,0.3,0.3,0.3s0.3-0.1,0.3-0.3s-0.1-0.3-0.3-0.3S353,368.3,353,368.5z"/>
		</g>
		<g>
			<path d="M338.8,368.5c0,0.2,0.1,0.3,0.3,0.3s0.3-0.1,0.3-0.3s-0.1-0.3-0.3-0.3S338.8,368.3,338.8,368.5z"/>
			<path d="M324.6,368.5c0,0.2,0.1,0.3,0.3,0.3c0.2,0,0.3-0.1,0.3-0.3s-0.1-0.3-0.3-0.3C324.7,368.2,324.6,368.3,324.6,368.5z"/>
		</g>
		<g>
			<path d="M310.4,368.5c0,0.2,0.1,0.3,0.3,0.3c0.2,0,0.3-0.1,0.3-0.3s-0.1-0.3-0.3-0.3C310.6,368.2,310.4,368.3,310.4,368.5z"/>
			<path d="M296.3,368.5c0,0.2,0.1,0.3,0.3,0.3s0.3-0.1,0.3-0.3s-0.1-0.3-0.3-0.3S296.3,368.3,296.3,368.5z"/>
		</g>
		<g>
			<path d="M282.1,368.5c0,0.2,0.1,0.3,0.3,0.3s0.3-0.1,0.3-0.3s-0.1-0.3-0.3-0.3S282.1,368.3,282.1,368.5z"/>
			<path d="M267.9,368.5c0,0.2,0.1,0.3,0.3,0.3s0.3-0.1,0.3-0.3s-0.1-0.3-0.3-0.3S267.9,368.3,267.9,368.5z"/>
		</g>
		<g>
			<path d="M253.8,368.5c0,0.2,0.1,0.3,0.3,0.3s0.3-0.1,0.3-0.3s-0.1-0.3-0.3-0.3S253.8,368.3,253.8,368.5z"/>
			<path d="M239.6,368.5c0,0.2,0.1,0.3,0.3,0.3s0.3-0.1,0.3-0.3s-0.1-0.3-0.3-0.3S239.6,368.3,239.6,368.5z"/>
		</g>
		<g>
			<path d="M225.4,368.5c0,0.2,0.1,0.3,0.3,0.3s0.3-0.1,0.3-0.3s-0.1-0.3-0.3-0.3S225.4,368.3,225.4,368.5z"/>
			<path d="M211.2,368.5c0,0.2,0.1,0.3,0.3,0.3s0.3-0.1,0.3-0.3s-0.1-0.3-0.3-0.3S211.2,368.3,211.2,368.5z"/>
		</g>
		<g>
			<path d="M197.1,368.5c0,0.2,0.1,0.3,0.3,0.3c0.2,0,0.3-0.1,0.3-0.3s-0.1-0.3-0.3-0.3C197.2,368.2,197.1,368.3,197.1,368.5z"/>
			<path d="M182.9,368.5c0,0.2,0.1,0.3,0.3,0.3c0.2,0,0.3-0.1,0.3-0.3s-0.1-0.3-0.3-0.3C183,368.2,182.9,368.3,182.9,368.5z"/>
		</g>
		<g>
			<path d="M168.7,368.5c0,0.2,0.1,0.3,0.3,0.3c0.2,0,0.3-0.1,0.3-0.3s-0.1-0.3-0.3-0.3C168.8,368.2,168.7,368.3,168.7,368.5z"/>
			<path d="M154.5,368.5c0,0.2,0.1,0.3,0.3,0.3s0.3-0.1,0.3-0.3s-0.1-0.3-0.3-0.3S154.5,368.3,154.5,368.5z"/>
		</g>
		<g>
			<path d="M140.4,368.5c0,0.2,0.1,0.3,0.3,0.3s0.3-0.1,0.3-0.3s-0.1-0.3-0.3-0.3S140.4,368.3,140.4,368.5z"/>
			<path d="M126.2,368.5c0,0.2,0.1,0.3,0.3,0.3c0.2,0,0.3-0.1,0.3-0.3s-0.1-0.3-0.3-0.3C126.3,368.2,126.2,368.3,126.2,368.5z"/>
		</g>
		<g>
			<path d="M112,368.5c0,0.2,0.1,0.3,0.3,0.3c0.2,0,0.3-0.1,0.3-0.3s-0.1-0.3-0.3-0.3C112.2,368.2,112,368.3,112,368.5z"/>
			<path d="M97.9,368.5c0,0.2,0.1,0.3,0.3,0.3s0.3-0.1,0.3-0.3s-0.1-0.3-0.3-0.3S97.9,368.3,97.9,368.5z"/>
		</g>
		<g>
			<path d="M83.7,368.5c0,0.2,0.1,0.3,0.3,0.3s0.3-0.1,0.3-0.3s-0.1-0.3-0.3-0.3S83.7,368.3,83.7,368.5z"/>
			<path d="M69.5,368.5c0,0.2,0.1,0.3,0.3,0.3s0.3-0.1,0.3-0.3s-0.1-0.3-0.3-0.3S69.5,368.3,69.5,368.5z"/>
		</g>
		<g>
			<path d="M55.3,368.5c0,0.2,0.1,0.3,0.3,0.3s0.3-0.1,0.3-0.3s-0.1-0.3-0.3-0.3S55.3,368.3,55.3,368.5z"/>
			<path d="M41.2,368.5c0,0.2,0.1,0.3,0.3,0.3s0.3-0.1,0.3-0.3s-0.1-0.3-0.3-0.3S41.2,368.3,41.2,368.5z"/>
		</g>
	</g>
	<g>
		<g>
			<path d="M367.1,382.7c0,0.2,0.1,0.3,0.3,0.3s0.3-0.1,0.3-0.3s-0.1-0.3-0.3-0.3S367.1,382.5,367.1,382.7z"/>
			<path d="M353,382.7c0,0.2,0.1,0.3,0.3,0.3s0.3-0.1,0.3-0.3s-0.1-0.3-0.3-0.3S353,382.5,353,382.7z"/>
		</g>
		<g>
			<path d="M338.8,382.7c0,0.2,0.1,0.3,0.3,0.3s0.3-0.1,0.3-0.3s-0.1-0.3-0.3-0.3S338.8,382.5,338.8,382.7z"/>
			<path d="M324.6,382.7c0,0.2,0.1,0.3,0.3,0.3s0.3-0.1,0.3-0.3s-0.1-0.3-0.3-0.3S324.6,382.5,324.6,382.7z"/>
		</g>
		<g>
			<path d="M310.4,382.7c0,0.2,0.1,0.3,0.3,0.3s0.3-0.1,0.3-0.3s-0.1-0.3-0.3-0.3S310.4,382.5,310.4,382.7z"/>
			<path d="M296.3,382.7c0,0.2,0.1,0.3,0.3,0.3s0.3-0.1,0.3-0.3s-0.1-0.3-0.3-0.3S296.3,382.5,296.3,382.7z"/>
		</g>
		<g>
			<path d="M282.1,382.7c0,0.2,0.1,0.3,0.3,0.3s0.3-0.1,0.3-0.3s-0.1-0.3-0.3-0.3S282.1,382.5,282.1,382.7z"/>
			<path d="M267.9,382.7c0,0.2,0.1,0.3,0.3,0.3c0.2,0,0.3-0.1,0.3-0.3s-0.1-0.3-0.3-0.3C268.1,382.4,267.9,382.5,267.9,382.7z"/>
		</g>
		<g>
			<path d="M253.8,382.7c0,0.2,0.1,0.3,0.3,0.3c0.2,0,0.3-0.1,0.3-0.3s-0.1-0.3-0.3-0.3C253.9,382.4,253.8,382.5,253.8,382.7z"/>
			<path d="M239.6,382.7c0,0.2,0.1,0.3,0.3,0.3c0.2,0,0.3-0.1,0.3-0.3s-0.1-0.3-0.3-0.3C239.7,382.4,239.6,382.5,239.6,382.7z"/>
		</g>
		<g>
			<path d="M225.4,382.7c0,0.2,0.1,0.3,0.3,0.3c0.2,0,0.3-0.1,0.3-0.3s-0.1-0.3-0.3-0.3C225.5,382.4,225.4,382.5,225.4,382.7z"/>
			<path d="M211.2,382.7c0,0.2,0.1,0.3,0.3,0.3s0.3-0.1,0.3-0.3s-0.1-0.3-0.3-0.3S211.2,382.5,211.2,382.7z"/>
		</g>
		<g>
			<path d="M197.1,382.7c0,0.2,0.1,0.3,0.3,0.3s0.3-0.1,0.3-0.3s-0.1-0.3-0.3-0.3S197.1,382.5,197.1,382.7z"/>
			<path d="M182.9,382.7c0,0.2,0.1,0.3,0.3,0.3s0.3-0.1,0.3-0.3s-0.1-0.3-0.3-0.3S182.9,382.5,182.9,382.7z"/>
		</g>
		<g>
			<path d="M168.7,382.7c0,0.2,0.1,0.3,0.3,0.3s0.3-0.1,0.3-0.3s-0.1-0.3-0.3-0.3S168.7,382.5,168.7,382.7z"/>
			<path d="M154.5,382.7c0,0.2,0.1,0.3,0.3,0.3s0.3-0.1,0.3-0.3s-0.1-0.3-0.3-0.3S154.5,382.5,154.5,382.7z"/>
		</g>
		<g>
			<path d="M140.4,382.7c0,0.2,0.1,0.3,0.3,0.3s0.3-0.1,0.3-0.3s-0.1-0.3-0.3-0.3S140.4,382.5,140.4,382.7z"/>
			<path d="M126.2,382.7c0,0.2,0.1,0.3,0.3,0.3s0.3-0.1,0.3-0.3s-0.1-0.3-0.3-0.3S126.2,382.5,126.2,382.7z"/>
		</g>
		<g>
			<path d="M112,382.7c0,0.2,0.1,0.3,0.3,0.3s0.3-0.1,0.3-0.3s-0.1-0.3-0.3-0.3S112,382.5,112,382.7z"/>
			<path d="M97.9,382.7c0,0.2,0.1,0.3,0.3,0.3s0.3-0.1,0.3-0.3s-0.1-0.3-0.3-0.3S97.9,382.5,97.9,382.7z"/>
		</g>
		<g>
			<path d="M83.7,382.7c0,0.2,0.1,0.3,0.3,0.3s0.3-0.1,0.3-0.3s-0.1-0.3-0.3-0.3S83.7,382.5,83.7,382.7z"/>
			<path d="M69.5,382.7c0,0.2,0.1,0.3,0.3,0.3c0.2,0,0.3-0.1,0.3-0.3s-0.1-0.3-0.3-0.3C69.6,382.4,69.5,382.5,69.5,382.7z"/>
		</g>
		<g>
			<path d="M55.3,382.7c0,0.2,0.1,0.3,0.3,0.3c0.2,0,0.3-0.1,0.3-0.3s-0.1-0.3-0.3-0.3C55.5,382.4,55.3,382.5,55.3,382.7z"/>
			<path d="M41.2,382.7c0,0.2,0.1,0.3,0.3,0.3s0.3-0.1,0.3-0.3s-0.1-0.3-0.3-0.3S41.2,382.5,41.2,382.7z"/>
		</g>
	</g>
	<g>
		<g>
			<path d="M367.1,396.9c0,0.2,0.1,0.3,0.3,0.3s0.3-0.1,0.3-0.3s-0.1-0.3-0.3-0.3S367.1,396.7,367.1,396.9z"/>
			<path d="M353,396.9c0,0.2,0.1,0.3,0.3,0.3s0.3-0.1,0.3-0.3s-0.1-0.3-0.3-0.3S353,396.7,353,396.9z"/>
		</g>
		<g>
			<path d="M338.8,396.9c0,0.2,0.1,0.3,0.3,0.3s0.3-0.1,0.3-0.3s-0.1-0.3-0.3-0.3S338.8,396.7,338.8,396.9z"/>
			<path d="M324.6,396.9c0,0.2,0.1,0.3,0.3,0.3s0.3-0.1,0.3-0.3s-0.1-0.3-0.3-0.3S324.6,396.7,324.6,396.9z"/>
		</g>
		<g>
			<path d="M310.4,396.9c0,0.2,0.1,0.3,0.3,0.3s0.3-0.1,0.3-0.3s-0.1-0.3-0.3-0.3S310.4,396.7,310.4,396.9z"/>
			<path d="M296.3,396.9c0,0.2,0.1,0.3,0.3,0.3s0.3-0.1,0.3-0.3s-0.1-0.3-0.3-0.3S296.3,396.7,296.3,396.9z"/>
		</g>
		<g>
			<path d="M282.1,396.9c0,0.2,0.1,0.3,0.3,0.3c0.2,0,0.3-0.1,0.3-0.3s-0.1-0.3-0.3-0.3C282.2,396.6,282.1,396.7,282.1,396.9z"/>
			<path d="M267.9,396.9c0,0.2,0.1,0.3,0.3,0.3c0.2,0,0.3-0.1,0.3-0.3s-0.1-0.3-0.3-0.3C268.1,396.6,267.9,396.7,267.9,396.9z"/>
		</g>
		<g>
			<path d="M253.8,396.9c0,0.2,0.1,0.3,0.3,0.3s0.3-0.1,0.3-0.3s-0.1-0.3-0.3-0.3S253.8,396.7,253.8,396.9z"/>
			<path d="M239.6,396.9c0,0.2,0.1,0.3,0.3,0.3s0.3-0.1,0.3-0.3s-0.1-0.3-0.3-0.3S239.6,396.7,239.6,396.9z"/>
		</g>
		<g>
			<path d="M225.4,396.9c0,0.2,0.1,0.3,0.3,0.3s0.3-0.1,0.3-0.3s-0.1-0.3-0.3-0.3S225.4,396.7,225.4,396.9z"/>
			<path d="M211.2,396.9c0,0.2,0.1,0.3,0.3,0.3s0.3-0.1,0.3-0.3s-0.1-0.3-0.3-0.3S211.2,396.7,211.2,396.9z"/>
		</g>
		<g>
			<path d="M197.1,396.9c0,0.2,0.1,0.3,0.3,0.3s0.3-0.1,0.3-0.3s-0.1-0.3-0.3-0.3S197.1,396.7,197.1,396.9z"/>
			<path d="M182.9,396.9c0,0.2,0.1,0.3,0.3,0.3s0.3-0.1,0.3-0.3s-0.1-0.3-0.3-0.3S182.9,396.7,182.9,396.9z"/>
		</g>
		<g>
			<path d="M168.7,396.9c0,0.2,0.1,0.3,0.3,0.3s0.3-0.1,0.3-0.3s-0.1-0.3-0.3-0.3S168.7,396.7,168.7,396.9z"/>
			<path d="M154.5,396.9c0,0.2,0.1,0.3,0.3,0.3s0.3-0.1,0.3-0.3s-0.1-0.3-0.3-0.3S154.5,396.7,154.5,396.9z"/>
		</g>
		<g>
			<path d="M140.4,396.9c0,0.2,0.1,0.3,0.3,0.3s0.3-0.1,0.3-0.3s-0.1-0.3-0.3-0.3S140.4,396.7,140.4,396.9z"/>
			<path d="M126.2,396.9c0,0.2,0.1,0.3,0.3,0.3s0.3-0.1,0.3-0.3s-0.1-0.3-0.3-0.3S126.2,396.7,126.2,396.9z"/>
		</g>
		<g>
			<path d="M112,396.9c0,0.2,0.1,0.3,0.3,0.3s0.3-0.1,0.3-0.3s-0.1-0.3-0.3-0.3S112,396.7,112,396.9z"/>
			<path d="M97.9,396.9c0,0.2,0.1,0.3,0.3,0.3s0.3-0.1,0.3-0.3s-0.1-0.3-0.3-0.3S97.9,396.7,97.9,396.9z"/>
		</g>
		<g>
			<path d="M83.7,396.9c0,0.2,0.1,0.3,0.3,0.3s0.3-0.1,0.3-0.3s-0.1-0.3-0.3-0.3S83.7,396.7,83.7,396.9z"/>
			<path d="M69.5,396.9c0,0.2,0.1,0.3,0.3,0.3s0.3-0.1,0.3-0.3s-0.1-0.3-0.3-0.3S69.5,396.7,69.5,396.9z"/>
		</g>
		<g>
			<path d="M55.3,396.9c0,0.2,0.1,0.3,0.3,0.3s0.3-0.1,0.3-0.3s-0.1-0.3-0.3-0.3S55.3,396.7,55.3,396.9z"/>
			<path d="M41.2,396.9c0,0.2,0.1,0.3,0.3,0.3s0.3-0.1,0.3-0.3s-0.1-0.3-0.3-0.3S41.2,396.7,41.2,396.9z"/>
		</g>
	</g>
	<g>
		<g>
			<path d="M367.1,411c0,0.2,0.1,0.3,0.3,0.3s0.3-0.1,0.3-0.3s-0.1-0.3-0.3-0.3S367.1,410.9,367.1,411z"/>
			<path d="M353,411c0,0.2,0.1,0.3,0.3,0.3s0.3-0.1,0.3-0.3s-0.1-0.3-0.3-0.3S353,410.9,353,411z"/>
		</g>
		<g>
			<path d="M338.8,411c0,0.2,0.1,0.3,0.3,0.3s0.3-0.1,0.3-0.3s-0.1-0.3-0.3-0.3S338.8,410.9,338.8,411z"/>
			<path d="M324.6,411c0,0.2,0.1,0.3,0.3,0.3s0.3-0.1,0.3-0.3s-0.1-0.3-0.3-0.3S324.6,410.9,324.6,411z"/>
		</g>
		<g>
			<path d="M310.4,411c0,0.2,0.1,0.3,0.3,0.3s0.3-0.1,0.3-0.3s-0.1-0.3-0.3-0.3S310.4,410.9,310.4,411z"/>
			<path d="M296.3,411c0,0.2,0.1,0.3,0.3,0.3s0.3-0.1,0.3-0.3s-0.1-0.3-0.3-0.3S296.3,410.9,296.3,411z"/>
		</g>
		<g>
			<path d="M282.1,411c0,0.2,0.1,0.3,0.3,0.3c0.2,0,0.3-0.1,0.3-0.3s-0.1-0.3-0.3-0.3C282.2,410.7,282.1,410.9,282.1,411z"/>
			<path d="M267.9,411c0,0.2,0.1,0.3,0.3,0.3c0.2,0,0.3-0.1,0.3-0.3s-0.1-0.3-0.3-0.3C268.1,410.7,267.9,410.9,267.9,411z"/>
		</g>
		<g>
			<path d="M253.8,411c0,0.2,0.1,0.3,0.3,0.3s0.3-0.1,0.3-0.3s-0.1-0.3-0.3-0.3S253.8,410.9,253.8,411z"/>
			<path d="M239.6,411c0,0.2,0.1,0.3,0.3,0.3s0.3-0.1,0.3-0.3s-0.1-0.3-0.3-0.3S239.6,410.9,239.6,411z"/>
		</g>
		<g>
			<path d="M225.4,411c0,0.2,0.1,0.3,0.3,0.3s0.3-0.1,0.3-0.3s-0.1-0.3-0.3-0.3S225.4,410.9,225.4,411z"/>
			<path d="M211.2,411c0,0.2,0.1,0.3,0.3,0.3s0.3-0.1,0.3-0.3s-0.1-0.3-0.3-0.3S211.2,410.9,211.2,411z"/>
		</g>
		<g>
			<path d="M197.1,411c0,0.2,0.1,0.3,0.3,0.3s0.3-0.1,0.3-0.3s-0.1-0.3-0.3-0.3S197.1,410.9,197.1,411z"/>
			<path d="M182.9,411c0,0.2,0.1,0.3,0.3,0.3s0.3-0.1,0.3-0.3s-0.1-0.3-0.3-0.3S182.9,410.9,182.9,411z"/>
		</g>
		<g>
			<path d="M168.7,411c0,0.2,0.1,0.3,0.3,0.3s0.3-0.1,0.3-0.3s-0.1-0.3-0.3-0.3S168.7,410.9,168.7,411z"/>
			<path d="M154.5,411c0,0.2,0.1,0.3,0.3,0.3s0.3-0.1,0.3-0.3s-0.1-0.3-0.3-0.3S154.5,410.9,154.5,411z"/>
		</g>
		<g>
			<path d="M140.4,411c0,0.2,0.1,0.3,0.3,0.3s0.3-0.1,0.3-0.3s-0.1-0.3-0.3-0.3S140.4,410.9,140.4,411z"/>
			<path d="M126.2,411c0,0.2,0.1,0.3,0.3,0.3s0.3-0.1,0.3-0.3s-0.1-0.3-0.3-0.3S126.2,410.9,126.2,411z"/>
		</g>
		<g>
			<path d="M112,411c0,0.2,0.1,0.3,0.3,0.3s0.3-0.1,0.3-0.3s-0.1-0.3-0.3-0.3S112,410.9,112,411z"/>
			<path d="M97.9,411c0,0.2,0.1,0.3,0.3,0.3s0.3-0.1,0.3-0.3s-0.1-0.3-0.3-0.3S97.9,410.9,97.9,411z"/>
		</g>
		<g>
			<path d="M83.7,411c0,0.2,0.1,0.3,0.3,0.3s0.3-0.1,0.3-0.3s-0.1-0.3-0.3-0.3S83.7,410.9,83.7,411z"/>
			<path d="M69.5,411c0,0.2,0.1,0.3,0.3,0.3s0.3-0.1,0.3-0.3s-0.1-0.3-0.3-0.3S69.5,410.9,69.5,411z"/>
		</g>
		<g>
			<path d="M55.3,411c0,0.2,0.1,0.3,0.3,0.3s0.3-0.1,0.3-0.3s-0.1-0.3-0.3-0.3S55.3,410.9,55.3,411z"/>
			<path d="M41.2,411c0,0.2,0.1,0.3,0.3,0.3s0.3-0.1,0.3-0.3s-0.1-0.3-0.3-0.3S41.2,410.9,41.2,411z"/>
		</g>
	</g>
	<g>
		<g>
			<path d="M367.1,425.2c0,0.2,0.1,0.3,0.3,0.3s0.3-0.1,0.3-0.3s-0.1-0.3-0.3-0.3S367.1,425,367.1,425.2z"/>
			<path d="M353,425.2c0,0.2,0.1,0.3,0.3,0.3s0.3-0.1,0.3-0.3s-0.1-0.3-0.3-0.3S353,425,353,425.2z"/>
		</g>
		<g>
			<path d="M338.8,425.2c0,0.2,0.1,0.3,0.3,0.3s0.3-0.1,0.3-0.3s-0.1-0.3-0.3-0.3S338.8,425,338.8,425.2z"/>
			<path d="M324.6,425.2c0,0.2,0.1,0.3,0.3,0.3s0.3-0.1,0.3-0.3s-0.1-0.3-0.3-0.3S324.6,425,324.6,425.2z"/>
		</g>
		<g>
			<path d="M310.4,425.2c0,0.2,0.1,0.3,0.3,0.3s0.3-0.1,0.3-0.3s-0.1-0.3-0.3-0.3S310.4,425,310.4,425.2z"/>
			<path d="M296.3,425.2c0,0.2,0.1,0.3,0.3,0.3s0.3-0.1,0.3-0.3s-0.1-0.3-0.3-0.3S296.3,425,296.3,425.2z"/>
		</g>
		<g>
			<path d="M282.1,425.2c0,0.2,0.1,0.3,0.3,0.3c0.2,0,0.3-0.1,0.3-0.3s-0.1-0.3-0.3-0.3C282.2,424.9,282.1,425,282.1,425.2z"/>
			<path d="M267.9,425.2c0,0.2,0.1,0.3,0.3,0.3c0.2,0,0.3-0.1,0.3-0.3s-0.1-0.3-0.3-0.3C268.1,424.9,267.9,425,267.9,425.2z"/>
		</g>
		<g>
			<path d="M253.8,425.2c0,0.2,0.1,0.3,0.3,0.3s0.3-0.1,0.3-0.3s-0.1-0.3-0.3-0.3S253.8,425,253.8,425.2z"/>
			<path d="M239.6,425.2c0,0.2,0.1,0.3,0.3,0.3s0.3-0.1,0.3-0.3s-0.1-0.3-0.3-0.3S239.6,425,239.6,425.2z"/>
		</g>
		<g>
			<path d="M225.4,425.2c0,0.2,0.1,0.3,0.3,0.3s0.3-0.1,0.3-0.3s-0.1-0.3-0.3-0.3S225.4,425,225.4,425.2z"/>
			<path d="M211.2,425.2c0,0.2,0.1,0.3,0.3,0.3s0.3-0.1,0.3-0.3s-0.1-0.3-0.3-0.3S211.2,425,211.2,425.2z"/>
		</g>
		<g>
			<path d="M197.1,425.2c0,0.2,0.1,0.3,0.3,0.3s0.3-0.1,0.3-0.3s-0.1-0.3-0.3-0.3S197.1,425,197.1,425.2z"/>
			<path d="M182.9,425.2c0,0.2,0.1,0.3,0.3,0.3s0.3-0.1,0.3-0.3s-0.1-0.3-0.3-0.3S182.9,425,182.9,425.2z"/>
		</g>
		<g>
			<path d="M168.7,425.2c0,0.2,0.1,0.3,0.3,0.3s0.3-0.1,0.3-0.3s-0.1-0.3-0.3-0.3S168.7,425,168.7,425.2z"/>
			<path d="M154.5,425.2c0,0.2,0.1,0.3,0.3,0.3s0.3-0.1,0.3-0.3s-0.1-0.3-0.3-0.3S154.5,425,154.5,425.2z"/>
		</g>
		<g>
			<path d="M140.4,425.2c0,0.2,0.1,0.3,0.3,0.3s0.3-0.1,0.3-0.3s-0.1-0.3-0.3-0.3S140.4,425,140.4,425.2z"/>
			<path d="M126.2,425.2c0,0.2,0.1,0.3,0.3,0.3s0.3-0.1,0.3-0.3s-0.1-0.3-0.3-0.3S126.2,425,126.2,425.2z"/>
		</g>
		<g>
			<path d="M112,425.2c0,0.2,0.1,0.3,0.3,0.3s0.3-0.1,0.3-0.3s-0.1-0.3-0.3-0.3S112,425,112,425.2z"/>
			<path d="M97.9,425.2c0,0.2,0.1,0.3,0.3,0.3s0.3-0.1,0.3-0.3s-0.1-0.3-0.3-0.3S97.9,425,97.9,425.2z"/>
		</g>
		<g>
			<path d="M83.7,425.2c0,0.2,0.1,0.3,0.3,0.3s0.3-0.1,0.3-0.3s-0.1-0.3-0.3-0.3S83.7,425,83.7,425.2z"/>
			<path d="M69.5,425.2c0,0.2,0.1,0.3,0.3,0.3s0.3-0.1,0.3-0.3s-0.1-0.3-0.3-0.3S69.5,425,69.5,425.2z"/>
		</g>
		<g>
			<path d="M55.3,425.2c0,0.2,0.1,0.3,0.3,0.3s0.3-0.1,0.3-0.3s-0.1-0.3-0.3-0.3S55.3,425,55.3,425.2z"/>
			<path d="M41.2,425.2c0,0.2,0.1,0.3,0.3,0.3s0.3-0.1,0.3-0.3s-0.1-0.3-0.3-0.3S41.2,425,41.2,425.2z"/>
		</g>
	</g>
	<g>
		<g>
			<circle cx="367.4" cy="439.4" r="0.3"/>
			<circle cx="353.3" cy="439.4" r="0.3"/>
		</g>
		<g>
			<circle cx="339.1" cy="439.4" r="0.3"/>
			<circle cx="324.9" cy="439.4" r="0.3"/>
		</g>
		<g>
			<path d="M310.4,439.4c0,0.2,0.1,0.3,0.3,0.3s0.3-0.1,0.3-0.3s-0.1-0.3-0.3-0.3S310.4,439.2,310.4,439.4z"/>
			<path d="M296.3,439.4c0,0.2,0.1,0.3,0.3,0.3s0.3-0.1,0.3-0.3s-0.1-0.3-0.3-0.3S296.3,439.2,296.3,439.4z"/>
		</g>
		<g>
			<circle cx="282.4" cy="439.4" r="0.3"/>
			<circle cx="268.2" cy="439.4" r="0.3"/>
		</g>
		<g>
			<path d="M253.8,439.4c0,0.2,0.1,0.3,0.3,0.3c0.2,0,0.3-0.1,0.3-0.3s-0.1-0.3-0.3-0.3C253.9,439.1,253.8,439.2,253.8,439.4z"/>
			<path d="M239.6,439.4c0,0.2,0.1,0.3,0.3,0.3c0.2,0,0.3-0.1,0.3-0.3s-0.1-0.3-0.3-0.3C239.7,439.1,239.6,439.2,239.6,439.4z"/>
		</g>
		<g>
			<circle cx="225.7" cy="439.4" r="0.3"/>
			<circle cx="211.5" cy="439.4" r="0.3"/>
		</g>
		<g>
			<circle cx="197.3" cy="439.4" r="0.3"/>
			<circle cx="183.2" cy="439.4" r="0.3"/>
		</g>
		<g>
			<circle cx="169" cy="439.4" r="0.3"/>
			<path d="M154.5,439.4c0,0.2,0.1,0.3,0.3,0.3s0.3-0.1,0.3-0.3s-0.1-0.3-0.3-0.3S154.5,439.2,154.5,439.4z"/>
		</g>
		<g>
			<path d="M140.4,439.4c0,0.2,0.1,0.3,0.3,0.3c0.2,0,0.3-0.1,0.3-0.3s-0.1-0.3-0.3-0.3C140.5,439.1,140.4,439.2,140.4,439.4z"/>
			<path d="M126.2,439.4c0,0.2,0.1,0.3,0.3,0.3c0.2,0,0.3-0.1,0.3-0.3s-0.1-0.3-0.3-0.3C126.3,439.1,126.2,439.2,126.2,439.4z"/>
		</g>
		<g>
			<path d="M112,439.4c0,0.2,0.1,0.3,0.3,0.3s0.3-0.1,0.3-0.3s-0.1-0.3-0.3-0.3S112,439.2,112,439.4z"/>
			<path d="M97.9,439.4c0,0.2,0.1,0.3,0.3,0.3s0.3-0.1,0.3-0.3s-0.1-0.3-0.3-0.3S97.9,439.2,97.9,439.4z"/>
		</g>
		<g>
			<path d="M83.7,439.4c0,0.2,0.1,0.3,0.3,0.3s0.3-0.1,0.3-0.3s-0.1-0.3-0.3-0.3S83.7,439.2,83.7,439.4z"/>
			<path d="M69.5,439.4c0,0.2,0.1,0.3,0.3,0.3s0.3-0.1,0.3-0.3s-0.1-0.3-0.3-0.3S69.5,439.2,69.5,439.4z"/>
		</g>
		<g>
			<path d="M55.3,439.4c0,0.2,0.1,0.3,0.3,0.3s0.3-0.1,0.3-0.3s-0.1-0.3-0.3-0.3S55.3,439.2,55.3,439.4z"/>
			<path d="M41.2,439.4c0,0.2,0.1,0.3,0.3,0.3s0.3-0.1,0.3-0.3s-0.1-0.3-0.3-0.3S41.2,439.2,41.2,439.4z"/>
		</g>
	</g>
	<g>
		<g>
			<circle cx="367.4" cy="453.5" r="0.3"/>
			<path d="M353,453.5c0,0.2,0.1,0.3,0.3,0.3s0.3-0.1,0.3-0.3s-0.1-0.3-0.3-0.3S353,453.4,353,453.5z"/>
		</g>
		<g>
			<circle cx="339.1" cy="453.5" r="0.3"/>
			<circle cx="324.9" cy="453.5" r="0.3"/>
		</g>
		<g>
			<circle cx="310.7" cy="453.5" r="0.3"/>
			<circle cx="296.6" cy="453.5" r="0.3"/>
		</g>
		<g>
			<circle cx="282.4" cy="453.5" r="0.3"/>
			<circle cx="268.2" cy="453.5" r="0.3"/>
		</g>
		<g>
			<circle cx="254" cy="453.5" r="0.3"/>
			<circle cx="239.9" cy="453.5" r="0.3"/>
		</g>
		<g>
			<circle cx="225.7" cy="453.5" r="0.3"/>
			<circle cx="211.5" cy="453.5" r="0.3"/>
		</g>
		<g>
			<circle cx="197.3" cy="453.5" r="0.3"/>
			<circle cx="183.2" cy="453.5" r="0.3"/>
		</g>
		<g>
			<circle cx="169" cy="453.5" r="0.3"/>
			<path d="M154.5,453.5c0,0.2,0.1,0.3,0.3,0.3s0.3-0.1,0.3-0.3s-0.1-0.3-0.3-0.3S154.5,453.4,154.5,453.5z"/>
		</g>
		<g>
			<path d="M140.4,453.5c0,0.2,0.1,0.3,0.3,0.3s0.3-0.1,0.3-0.3s-0.1-0.3-0.3-0.3S140.4,453.4,140.4,453.5z"/>
			<path d="M126.2,453.5c0,0.2,0.1,0.3,0.3,0.3s0.3-0.1,0.3-0.3s-0.1-0.3-0.3-0.3S126.2,453.4,126.2,453.5z"/>
		</g>
		<g>
			<path d="M112,453.5c0,0.2,0.1,0.3,0.3,0.3s0.3-0.1,0.3-0.3s-0.1-0.3-0.3-0.3S112,453.4,112,453.5z"/>
			<path d="M97.9,453.5c0,0.2,0.1,0.3,0.3,0.3s0.3-0.1,0.3-0.3s-0.1-0.3-0.3-0.3S97.9,453.4,97.9,453.5z"/>
		</g>
		<g>
			<path d="M83.7,453.5c0,0.2,0.1,0.3,0.3,0.3s0.3-0.1,0.3-0.3s-0.1-0.3-0.3-0.3S83.7,453.4,83.7,453.5z"/>
			<path d="M69.5,453.5c0,0.2,0.1,0.3,0.3,0.3s0.3-0.1,0.3-0.3s-0.1-0.3-0.3-0.3S69.5,453.4,69.5,453.5z"/>
		</g>
		<g>
			<path d="M55.3,453.5c0,0.2,0.1,0.3,0.3,0.3s0.3-0.1,0.3-0.3s-0.1-0.3-0.3-0.3S55.3,453.4,55.3,453.5z"/>
			<path d="M41.2,453.5c0,0.2,0.1,0.3,0.3,0.3s0.3-0.1,0.3-0.3s-0.1-0.3-0.3-0.3S41.2,453.4,41.2,453.5z"/>
		</g>
	</g>
	<g>
		<g>
			<circle cx="367.4" cy="467.7" r="0.3"/>
			<path d="M353,467.7c0,0.2,0.1,0.3,0.3,0.3s0.3-0.1,0.3-0.3s-0.1-0.3-0.3-0.3S353,467.6,353,467.7z"/>
		</g>
		<g>
			<circle cx="339.1" cy="467.7" r="0.3"/>
			<circle cx="324.9" cy="467.7" r="0.3"/>
		</g>
		<g>
			<circle cx="310.7" cy="467.7" r="0.3"/>
			<circle cx="296.6" cy="467.7" r="0.3"/>
		</g>
		<g>
			<circle cx="282.4" cy="467.7" r="0.3"/>
			<circle cx="268.2" cy="467.7" r="0.3"/>
		</g>
		<g>
			<circle cx="254" cy="467.7" r="0.3"/>
			<circle cx="239.9" cy="467.7" r="0.3"/>
		</g>
		<g>
			<circle cx="225.7" cy="467.7" r="0.3"/>
			<circle cx="211.5" cy="467.7" r="0.3"/>
		</g>
		<g>
			<circle cx="197.3" cy="467.7" r="0.3"/>
			<circle cx="183.2" cy="467.7" r="0.3"/>
		</g>
		<g>
			<circle cx="169" cy="467.7" r="0.3"/>
			<path d="M154.5,467.7c0,0.2,0.1,0.3,0.3,0.3s0.3-0.1,0.3-0.3s-0.1-0.3-0.3-0.3S154.5,467.6,154.5,467.7z"/>
		</g>
		<g>
			<path d="M140.4,467.7c0,0.2,0.1,0.3,0.3,0.3s0.3-0.1,0.3-0.3s-0.1-0.3-0.3-0.3S140.4,467.6,140.4,467.7z"/>
			<path d="M126.2,467.7c0,0.2,0.1,0.3,0.3,0.3s0.3-0.1,0.3-0.3s-0.1-0.3-0.3-0.3S126.2,467.6,126.2,467.7z"/>
		</g>
		<g>
			<path d="M112,467.7c0,0.2,0.1,0.3,0.3,0.3s0.3-0.1,0.3-0.3s-0.1-0.3-0.3-0.3S112,467.6,112,467.7z"/>
			<path d="M97.9,467.7c0,0.2,0.1,0.3,0.3,0.3s0.3-0.1,0.3-0.3s-0.1-0.3-0.3-0.3S97.9,467.6,97.9,467.7z"/>
		</g>
		<g>
			<path d="M83.7,467.7c0,0.2,0.1,0.3,0.3,0.3s0.3-0.1,0.3-0.3s-0.1-0.3-0.3-0.3S83.7,467.6,83.7,467.7z"/>
			<path d="M69.5,467.7c0,0.2,0.1,0.3,0.3,0.3s0.3-0.1,0.3-0.3s-0.1-0.3-0.3-0.3S69.5,467.6,69.5,467.7z"/>
		</g>
		<g>
			<path d="M55.3,467.7c0,0.2,0.1,0.3,0.3,0.3s0.3-0.1,0.3-0.3s-0.1-0.3-0.3-0.3S55.3,467.6,55.3,467.7z"/>
			<path d="M41.2,467.7c0,0.2,0.1,0.3,0.3,0.3s0.3-0.1,0.3-0.3s-0.1-0.3-0.3-0.3S41.2,467.6,41.2,467.7z"/>
		</g>
	</g>
	<g>
		<g>
			<path d="M367.1,481.9c0,0.2,0.1,0.3,0.3,0.3s0.3-0.1,0.3-0.3s-0.1-0.3-0.3-0.3S367.1,481.7,367.1,481.9z"/>
			<path d="M353,481.9c0,0.2,0.1,0.3,0.3,0.3s0.3-0.1,0.3-0.3s-0.1-0.3-0.3-0.3S353,481.7,353,481.9z"/>
		</g>
		<g>
			<path d="M338.8,481.9c0,0.2,0.1,0.3,0.3,0.3s0.3-0.1,0.3-0.3s-0.1-0.3-0.3-0.3S338.8,481.7,338.8,481.9z"/>
			<path d="M324.6,481.9c0,0.2,0.1,0.3,0.3,0.3s0.3-0.1,0.3-0.3s-0.1-0.3-0.3-0.3S324.6,481.7,324.6,481.9z"/>
		</g>
		<g>
			<path d="M310.4,481.9c0,0.2,0.1,0.3,0.3,0.3c0.2,0,0.3-0.1,0.3-0.3s-0.1-0.3-0.3-0.3C310.6,481.6,310.4,481.7,310.4,481.9z"/>
			<path d="M296.3,481.9c0,0.2,0.1,0.3,0.3,0.3c0.2,0,0.3-0.1,0.3-0.3s-0.1-0.3-0.3-0.3C296.4,481.6,296.3,481.7,296.3,481.9z"/>
		</g>
		<g>
			<path d="M282.1,481.9c0,0.2,0.1,0.3,0.3,0.3s0.3-0.1,0.3-0.3s-0.1-0.3-0.3-0.3S282.1,481.7,282.1,481.9z"/>
			<path d="M267.9,481.9c0,0.2,0.1,0.3,0.3,0.3s0.3-0.1,0.3-0.3s-0.1-0.3-0.3-0.3S267.9,481.7,267.9,481.9z"/>
		</g>
		<g>
			<path d="M253.8,481.9c0,0.2,0.1,0.3,0.3,0.3s0.3-0.1,0.3-0.3s-0.1-0.3-0.3-0.3S253.8,481.7,253.8,481.9z"/>
			<path d="M239.6,481.9c0,0.2,0.1,0.3,0.3,0.3s0.3-0.1,0.3-0.3s-0.1-0.3-0.3-0.3S239.6,481.7,239.6,481.9z"/>
		</g>
		<g>
			<path d="M225.4,481.9c0,0.2,0.1,0.3,0.3,0.3s0.3-0.1,0.3-0.3s-0.1-0.3-0.3-0.3S225.4,481.7,225.4,481.9z"/>
			<path d="M211.2,481.9c0,0.2,0.1,0.3,0.3,0.3s0.3-0.1,0.3-0.3s-0.1-0.3-0.3-0.3S211.2,481.7,211.2,481.9z"/>
		</g>
		<g>
			<path d="M197.1,481.9c0,0.2,0.1,0.3,0.3,0.3s0.3-0.1,0.3-0.3s-0.1-0.3-0.3-0.3S197.1,481.7,197.1,481.9z"/>
			<path d="M182.9,481.9c0,0.2,0.1,0.3,0.3,0.3s0.3-0.1,0.3-0.3s-0.1-0.3-0.3-0.3S182.9,481.7,182.9,481.9z"/>
		</g>
		<g>
			<path d="M168.7,481.9c0,0.2,0.1,0.3,0.3,0.3c0.2,0,0.3-0.1,0.3-0.3s-0.1-0.3-0.3-0.3C168.8,481.6,168.7,481.7,168.7,481.9z"/>
			<path d="M154.5,481.9c0,0.2,0.1,0.3,0.3,0.3s0.3-0.1,0.3-0.3s-0.1-0.3-0.3-0.3S154.5,481.7,154.5,481.9z"/>
		</g>
		<g>
			<path d="M140.4,481.9c0,0.2,0.1,0.3,0.3,0.3s0.3-0.1,0.3-0.3s-0.1-0.3-0.3-0.3S140.4,481.7,140.4,481.9z"/>
			<path d="M126.2,481.9c0,0.2,0.1,0.3,0.3,0.3s0.3-0.1,0.3-0.3s-0.1-0.3-0.3-0.3S126.2,481.7,126.2,481.9z"/>
		</g>
		<g>
			<path d="M112,481.9c0,0.2,0.1,0.3,0.3,0.3s0.3-0.1,0.3-0.3s-0.1-0.3-0.3-0.3S112,481.7,112,481.9z"/>
			<path d="M97.8,481.9c0,0.2,0.1,0.3,0.3,0.3s0.3-0.1,0.3-0.3s-0.1-0.3-0.3-0.3S97.8,481.7,97.8,481.9z"/>
		</g>
		<g>
			<path d="M83.7,481.9c0,0.2,0.1,0.3,0.3,0.3s0.3-0.1,0.3-0.3s-0.1-0.3-0.3-0.3S83.7,481.7,83.7,481.9z"/>
			<path d="M69.5,481.9c0,0.2,0.1,0.3,0.3,0.3s0.3-0.1,0.3-0.3s-0.1-0.3-0.3-0.3S69.5,481.7,69.5,481.9z"/>
		</g>
		<g>
			<path d="M55.3,481.9c0,0.2,0.1,0.3,0.3,0.3s0.3-0.1,0.3-0.3s-0.1-0.3-0.3-0.3S55.3,481.7,55.3,481.9z"/>
			<path d="M41.2,481.9c0,0.2,0.1,0.3,0.3,0.3s0.3-0.1,0.3-0.3s-0.1-0.3-0.3-0.3S41.2,481.7,41.2,481.9z"/>
		</g>
	</g>
	<g>
		<g>
			<path d="M367.1,496.1c0,0.2,0.1,0.3,0.3,0.3s0.3-0.1,0.3-0.3s-0.1-0.3-0.3-0.3S367.1,495.9,367.1,496.1z"/>
			<path d="M353,496.1c0,0.2,0.1,0.3,0.3,0.3s0.3-0.1,0.3-0.3s-0.1-0.3-0.3-0.3S353,495.9,353,496.1z"/>
		</g>
		<g>
			<path d="M338.8,496.1c0,0.2,0.1,0.3,0.3,0.3s0.3-0.1,0.3-0.3s-0.1-0.3-0.3-0.3S338.8,495.9,338.8,496.1z"/>
			<path d="M324.6,496.1c0,0.2,0.1,0.3,0.3,0.3s0.3-0.1,0.3-0.3s-0.1-0.3-0.3-0.3S324.6,495.9,324.6,496.1z"/>
		</g>
		<g>
			<path d="M310.4,496.1c0,0.2,0.1,0.3,0.3,0.3s0.3-0.1,0.3-0.3s-0.1-0.3-0.3-0.3S310.4,495.9,310.4,496.1z"/>
			<path d="M296.3,496.1c0,0.2,0.1,0.3,0.3,0.3s0.3-0.1,0.3-0.3s-0.1-0.3-0.3-0.3S296.3,495.9,296.3,496.1z"/>
		</g>
		<g>
			<path d="M282.1,496.1c0,0.2,0.1,0.3,0.3,0.3c0.2,0,0.3-0.1,0.3-0.3s-0.1-0.3-0.3-0.3C282.2,495.8,282.1,495.9,282.1,496.1z"/>
			<path d="M267.9,496.1c0,0.2,0.1,0.3,0.3,0.3c0.2,0,0.3-0.1,0.3-0.3s-0.1-0.3-0.3-0.3C268.1,495.8,267.9,495.9,267.9,496.1z"/>
		</g>
		<g>
			<path d="M253.8,496.1c0,0.2,0.1,0.3,0.3,0.3s0.3-0.1,0.3-0.3s-0.1-0.3-0.3-0.3S253.8,495.9,253.8,496.1z"/>
			<path d="M239.6,496.1c0,0.2,0.1,0.3,0.3,0.3s0.3-0.1,0.3-0.3s-0.1-0.3-0.3-0.3S239.6,495.9,239.6,496.1z"/>
		</g>
		<g>
			<path d="M225.4,496.1c0,0.2,0.1,0.3,0.3,0.3s0.3-0.1,0.3-0.3s-0.1-0.3-0.3-0.3S225.4,495.9,225.4,496.1z"/>
			<path d="M211.2,496.1c0,0.2,0.1,0.3,0.3,0.3s0.3-0.1,0.3-0.3s-0.1-0.3-0.3-0.3S211.2,495.9,211.2,496.1z"/>
		</g>
		<g>
			<path d="M197.1,496.1c0,0.2,0.1,0.3,0.3,0.3s0.3-0.1,0.3-0.3s-0.1-0.3-0.3-0.3S197.1,495.9,197.1,496.1z"/>
			<path d="M182.9,496.1c0,0.2,0.1,0.3,0.3,0.3s0.3-0.1,0.3-0.3s-0.1-0.3-0.3-0.3S182.9,495.9,182.9,496.1z"/>
		</g>
		<g>
			<path d="M168.7,496.1c0,0.2,0.1,0.3,0.3,0.3s0.3-0.1,0.3-0.3s-0.1-0.3-0.3-0.3S168.7,495.9,168.7,496.1z"/>
			<path d="M154.5,496.1c0,0.2,0.1,0.3,0.3,0.3s0.3-0.1,0.3-0.3s-0.1-0.3-0.3-0.3S154.5,495.9,154.5,496.1z"/>
		</g>
		<g>
			<path d="M140.4,496.1c0,0.2,0.1,0.3,0.3,0.3s0.3-0.1,0.3-0.3s-0.1-0.3-0.3-0.3S140.4,495.9,140.4,496.1z"/>
			<path d="M126.2,496.1c0,0.2,0.1,0.3,0.3,0.3s0.3-0.1,0.3-0.3s-0.1-0.3-0.3-0.3S126.2,495.9,126.2,496.1z"/>
		</g>
		<g>
			<path d="M112,496.1c0,0.2,0.1,0.3,0.3,0.3s0.3-0.1,0.3-0.3s-0.1-0.3-0.3-0.3S112,495.9,112,496.1z"/>
			<path d="M97.9,496.1c0,0.2,0.1,0.3,0.3,0.3s0.3-0.1,0.3-0.3s-0.1-0.3-0.3-0.3S97.9,495.9,97.9,496.1z"/>
		</g>
		<g>
			<path d="M83.7,496.1c0,0.2,0.1,0.3,0.3,0.3s0.3-0.1,0.3-0.3s-0.1-0.3-0.3-0.3S83.7,495.9,83.7,496.1z"/>
			<path d="M69.5,496.1c0,0.2,0.1,0.3,0.3,0.3s0.3-0.1,0.3-0.3s-0.1-0.3-0.3-0.3S69.5,495.9,69.5,496.1z"/>
		</g>
		<g>
			<path d="M55.3,496.1c0,0.2,0.1,0.3,0.3,0.3s0.3-0.1,0.3-0.3s-0.1-0.3-0.3-0.3S55.3,495.9,55.3,496.1z"/>
			<path d="M41.2,496.1c0,0.2,0.1,0.3,0.3,0.3s0.3-0.1,0.3-0.3s-0.1-0.3-0.3-0.3S41.2,495.9,41.2,496.1z"/>
		</g>
	</g>
	<g>
		<g>
			<path d="M367.1,510.2c0,0.2,0.1,0.3,0.3,0.3c0.2,0,0.3-0.1,0.3-0.3s-0.1-0.3-0.3-0.3C367.3,510,367.1,510.1,367.1,510.2z"/>
			<path d="M353,510.2c0,0.2,0.1,0.3,0.3,0.3s0.3-0.1,0.3-0.3s-0.1-0.3-0.3-0.3S353,510.1,353,510.2z"/>
		</g>
		<g>
			<path d="M338.8,510.2c0,0.2,0.1,0.3,0.3,0.3s0.3-0.1,0.3-0.3s-0.1-0.3-0.3-0.3S338.8,510.1,338.8,510.2z"/>
			<path d="M324.6,510.2c0,0.2,0.1,0.3,0.3,0.3s0.3-0.1,0.3-0.3s-0.1-0.3-0.3-0.3S324.6,510.1,324.6,510.2z"/>
		</g>
		<g>
			<path d="M310.4,510.2c0,0.2,0.1,0.3,0.3,0.3s0.3-0.1,0.3-0.3s-0.1-0.3-0.3-0.3S310.4,510.1,310.4,510.2z"/>
			<path d="M296.3,510.2c0,0.2,0.1,0.3,0.3,0.3s0.3-0.1,0.3-0.3s-0.1-0.3-0.3-0.3S296.3,510.1,296.3,510.2z"/>
		</g>
		<g>
			<path d="M282.1,510.2c0,0.2,0.1,0.3,0.3,0.3s0.3-0.1,0.3-0.3s-0.1-0.3-0.3-0.3S282.1,510.1,282.1,510.2z"/>
			<path d="M267.9,510.2c0,0.2,0.1,0.3,0.3,0.3s0.3-0.1,0.3-0.3s-0.1-0.3-0.3-0.3S267.9,510.1,267.9,510.2z"/>
		</g>
		<g>
			<path d="M253.8,510.2c0,0.2,0.1,0.3,0.3,0.3s0.3-0.1,0.3-0.3s-0.1-0.3-0.3-0.3S253.8,510.1,253.8,510.2z"/>
			<path d="M239.6,510.2c0,0.2,0.1,0.3,0.3,0.3c0.2,0,0.3-0.1,0.3-0.3s-0.1-0.3-0.3-0.3C239.7,510,239.6,510.1,239.6,510.2z"/>
		</g>
		<g>
			<path d="M225.4,510.2c0,0.2,0.1,0.3,0.3,0.3s0.3-0.1,0.3-0.3s-0.1-0.3-0.3-0.3S225.4,510.1,225.4,510.2z"/>
			<path d="M211.2,510.2c0,0.2,0.1,0.3,0.3,0.3c0.2,0,0.3-0.1,0.3-0.3s-0.1-0.3-0.3-0.3C211.4,510,211.2,510.1,211.2,510.2z"/>
		</g>
		<g>
			<path d="M197.1,510.2c0,0.2,0.1,0.3,0.3,0.3c0.2,0,0.3-0.1,0.3-0.3s-0.1-0.3-0.3-0.3C197.2,510,197.1,510.1,197.1,510.2z"/>
			<path d="M182.9,510.2c0,0.2,0.1,0.3,0.3,0.3s0.3-0.1,0.3-0.3s-0.1-0.3-0.3-0.3S182.9,510.1,182.9,510.2z"/>
		</g>
		<g>
			<path d="M168.7,510.2c0,0.2,0.1,0.3,0.3,0.3c0.2,0,0.3-0.1,0.3-0.3s-0.1-0.3-0.3-0.3C168.8,510,168.7,510.1,168.7,510.2z"/>
			<path d="M154.5,510.2c0,0.2,0.1,0.3,0.3,0.3s0.3-0.1,0.3-0.3s-0.1-0.3-0.3-0.3S154.5,510.1,154.5,510.2z"/>
		</g>
		<g>
			<path d="M140.4,510.2c0,0.2,0.1,0.3,0.3,0.3s0.3-0.1,0.3-0.3s-0.1-0.3-0.3-0.3S140.4,510.1,140.4,510.2z"/>
			<path d="M126.2,510.2c0,0.2,0.1,0.3,0.3,0.3s0.3-0.1,0.3-0.3s-0.1-0.3-0.3-0.3S126.2,510.1,126.2,510.2z"/>
		</g>
		<g>
			<path d="M112,510.2c0,0.2,0.1,0.3,0.3,0.3s0.3-0.1,0.3-0.3s-0.1-0.3-0.3-0.3S112,510.1,112,510.2z"/>
			<path d="M97.9,510.2c0,0.2,0.1,0.3,0.3,0.3s0.3-0.1,0.3-0.3s-0.1-0.3-0.3-0.3S97.9,510.1,97.9,510.2z"/>
		</g>
		<g>
			<path d="M83.7,510.2c0,0.2,0.1,0.3,0.3,0.3s0.3-0.1,0.3-0.3S84.1,510,84,510S83.7,510.1,83.7,510.2z"/>
			<path d="M69.5,510.2c0,0.2,0.1,0.3,0.3,0.3s0.3-0.1,0.3-0.3s-0.1-0.3-0.3-0.3S69.5,510.1,69.5,510.2z"/>
		</g>
		<g>
			<path d="M55.3,510.2c0,0.2,0.1,0.3,0.3,0.3s0.3-0.1,0.3-0.3s-0.1-0.3-0.3-0.3S55.3,510.1,55.3,510.2z"/>
			<path d="M41.2,510.2c0,0.2,0.1,0.3,0.3,0.3c0.2,0,0.3-0.1,0.3-0.3s-0.1-0.3-0.3-0.3C41.3,510,41.2,510.1,41.2,510.2z"/>
		</g>
	</g>
	<g>
		<g>
			<path d="M367.1,524.4c0,0.2,0.1,0.3,0.3,0.3c0.2,0,0.3-0.1,0.3-0.3s-0.1-0.3-0.3-0.3C367.3,524.1,367.1,524.3,367.1,524.4z"/>
			<path d="M353,524.4c0,0.2,0.1,0.3,0.3,0.3s0.3-0.1,0.3-0.3s-0.1-0.3-0.3-0.3S353,524.3,353,524.4z"/>
		</g>
		<g>
			<path d="M338.8,524.4c0,0.2,0.1,0.3,0.3,0.3s0.3-0.1,0.3-0.3s-0.1-0.3-0.3-0.3S338.8,524.3,338.8,524.4z"/>
			<path d="M324.6,524.4c0,0.2,0.1,0.3,0.3,0.3s0.3-0.1,0.3-0.3s-0.1-0.3-0.3-0.3S324.6,524.3,324.6,524.4z"/>
		</g>
		<g>
			<path d="M310.4,524.4c0,0.2,0.1,0.3,0.3,0.3s0.3-0.1,0.3-0.3s-0.1-0.3-0.3-0.3S310.4,524.3,310.4,524.4z"/>
			<path d="M296.3,524.4c0,0.2,0.1,0.3,0.3,0.3s0.3-0.1,0.3-0.3s-0.1-0.3-0.3-0.3S296.3,524.3,296.3,524.4z"/>
		</g>
		<g>
			<path d="M282.1,524.4c0,0.2,0.1,0.3,0.3,0.3s0.3-0.1,0.3-0.3s-0.1-0.3-0.3-0.3S282.1,524.3,282.1,524.4z"/>
			<path d="M267.9,524.4c0,0.2,0.1,0.3,0.3,0.3s0.3-0.1,0.3-0.3s-0.1-0.3-0.3-0.3S267.9,524.3,267.9,524.4z"/>
		</g>
		<g>
			<path d="M253.8,524.4c0,0.2,0.1,0.3,0.3,0.3s0.3-0.1,0.3-0.3s-0.1-0.3-0.3-0.3S253.8,524.3,253.8,524.4z"/>
			<path d="M239.6,524.4c0,0.2,0.1,0.3,0.3,0.3c0.2,0,0.3-0.1,0.3-0.3s-0.1-0.3-0.3-0.3C239.7,524.1,239.6,524.3,239.6,524.4z"/>
		</g>
		<g>
			<path d="M225.4,524.4c0,0.2,0.1,0.3,0.3,0.3s0.3-0.1,0.3-0.3s-0.1-0.3-0.3-0.3S225.4,524.3,225.4,524.4z"/>
			<path d="M211.2,524.4c0,0.2,0.1,0.3,0.3,0.3c0.2,0,0.3-0.1,0.3-0.3s-0.1-0.3-0.3-0.3C211.4,524.1,211.2,524.3,211.2,524.4z"/>
		</g>
		<g>
			<path d="M197.1,524.4c0,0.2,0.1,0.3,0.3,0.3c0.2,0,0.3-0.1,0.3-0.3s-0.1-0.3-0.3-0.3C197.2,524.1,197.1,524.3,197.1,524.4z"/>
			<path d="M182.9,524.4c0,0.2,0.1,0.3,0.3,0.3s0.3-0.1,0.3-0.3s-0.1-0.3-0.3-0.3S182.9,524.3,182.9,524.4z"/>
		</g>
		<g>
			<path d="M168.7,524.4c0,0.2,0.1,0.3,0.3,0.3c0.2,0,0.3-0.1,0.3-0.3s-0.1-0.3-0.3-0.3C168.8,524.1,168.7,524.3,168.7,524.4z"/>
			<path d="M154.5,524.4c0,0.2,0.1,0.3,0.3,0.3s0.3-0.1,0.3-0.3s-0.1-0.3-0.3-0.3S154.5,524.3,154.5,524.4z"/>
		</g>
		<g>
			<path d="M140.4,524.4c0,0.2,0.1,0.3,0.3,0.3s0.3-0.1,0.3-0.3s-0.1-0.3-0.3-0.3S140.4,524.3,140.4,524.4z"/>
			<path d="M126.2,524.4c0,0.2,0.1,0.3,0.3,0.3s0.3-0.1,0.3-0.3s-0.1-0.3-0.3-0.3S126.2,524.3,126.2,524.4z"/>
		</g>
		<g>
			<path d="M112,524.4c0,0.2,0.1,0.3,0.3,0.3s0.3-0.1,0.3-0.3s-0.1-0.3-0.3-0.3S112,524.3,112,524.4z"/>
			<path d="M97.9,524.4c0,0.2,0.1,0.3,0.3,0.3s0.3-0.1,0.3-0.3s-0.1-0.3-0.3-0.3S97.9,524.3,97.9,524.4z"/>
		</g>
		<g>
			<path d="M83.7,524.4c0,0.2,0.1,0.3,0.3,0.3s0.3-0.1,0.3-0.3s-0.1-0.3-0.3-0.3S83.7,524.3,83.7,524.4z"/>
			<path d="M69.5,524.4c0,0.2,0.1,0.3,0.3,0.3s0.3-0.1,0.3-0.3s-0.1-0.3-0.3-0.3S69.5,524.3,69.5,524.4z"/>
		</g>
		<g>
			<path d="M55.3,524.4c0,0.2,0.1,0.3,0.3,0.3s0.3-0.1,0.3-0.3s-0.1-0.3-0.3-0.3S55.3,524.3,55.3,524.4z"/>
			<path d="M41.2,524.4c0,0.2,0.1,0.3,0.3,0.3c0.2,0,0.3-0.1,0.3-0.3s-0.1-0.3-0.3-0.3C41.3,524.1,41.2,524.3,41.2,524.4z"/>
		</g>
	</g>
	<g>
		<g>
			<circle cx="367.4" cy="538.6" r="0.3"/>
			<circle cx="353.3" cy="538.6" r="0.3"/>
		</g>
		<g>
			<path d="M338.8,538.6c0,0.2,0.1,0.3,0.3,0.3s0.3-0.1,0.3-0.3s-0.1-0.3-0.3-0.3S338.8,538.4,338.8,538.6z"/>
			<circle cx="324.9" cy="538.6" r="0.3"/>
		</g>
		<g>
			<circle cx="310.7" cy="538.6" r="0.3"/>
			<circle cx="296.6" cy="538.6" r="0.3"/>
		</g>
		<g>
			<circle cx="282.4" cy="538.6" r="0.3"/>
			<circle cx="268.2" cy="538.6" r="0.3"/>
		</g>
		<g>
			<circle cx="254" cy="538.6" r="0.3"/>
			<circle cx="239.9" cy="538.6" r="0.3"/>
		</g>
		<g>
			<circle cx="225.7" cy="538.6" r="0.3"/>
			<circle cx="211.5" cy="538.6" r="0.3"/>
		</g>
		<g>
			<circle cx="197.3" cy="538.6" r="0.3"/>
			<circle cx="183.2" cy="538.6" r="0.3"/>
		</g>
		<g>
			<circle cx="169" cy="538.6" r="0.3"/>
			<path d="M154.5,538.6c0,0.2,0.1,0.3,0.3,0.3s0.3-0.1,0.3-0.3s-0.1-0.3-0.3-0.3S154.5,538.4,154.5,538.6z"/>
		</g>
		<g>
			<path d="M140.4,538.6c0,0.2,0.1,0.3,0.3,0.3s0.3-0.1,0.3-0.3s-0.1-0.3-0.3-0.3S140.4,538.4,140.4,538.6z"/>
			<path d="M126.2,538.6c0,0.2,0.1,0.3,0.3,0.3s0.3-0.1,0.3-0.3s-0.1-0.3-0.3-0.3S126.2,538.4,126.2,538.6z"/>
		</g>
		<g>
			<path d="M112,538.6c0,0.2,0.1,0.3,0.3,0.3s0.3-0.1,0.3-0.3s-0.1-0.3-0.3-0.3S112,538.4,112,538.6z"/>
			<path d="M97.9,538.6c0,0.2,0.1,0.3,0.3,0.3s0.3-0.1,0.3-0.3s-0.1-0.3-0.3-0.3S97.9,538.4,97.9,538.6z"/>
		</g>
		<g>
			<path d="M83.7,538.6c0,0.2,0.1,0.3,0.3,0.3s0.3-0.1,0.3-0.3s-0.1-0.3-0.3-0.3S83.7,538.4,83.7,538.6z"/>
			<path d="M69.5,538.6c0,0.2,0.1,0.3,0.3,0.3s0.3-0.1,0.3-0.3s-0.1-0.3-0.3-0.3S69.5,538.4,69.5,538.6z"/>
		</g>
		<g>
			<path d="M55.3,538.6c0,0.2,0.1,0.3,0.3,0.3s0.3-0.1,0.3-0.3s-0.1-0.3-0.3-0.3S55.3,538.4,55.3,538.6z"/>
			<path d="M41.2,538.6c0,0.2,0.1,0.3,0.3,0.3c0.2,0,0.3-0.1,0.3-0.3s-0.1-0.3-0.3-0.3C41.3,538.3,41.2,538.4,41.2,538.6z"/>
		</g>
	</g>
</g>
<g id="_2">
	<text transform="matrix(1 0 0 1 135.6357 58.6929)" class="st1 st2"> </text>
</g>
<g id="_4">
	<g>
		<text transform="matrix(1 0 0 1 41.157 99.4962)" class="st0 st1 st3"> </text>
	</g>
	<g>
		<g>
			<path d="M367.1,99.2c0,0.2,0.1,0.3,0.3,0.3s0.3-0.1,0.3-0.3c0-0.2-0.1-0.3-0.3-0.3S367.1,99.1,367.1,99.2z"/>
			<path d="M353,99.2c0,0.2,0.1,0.3,0.3,0.3s0.3-0.1,0.3-0.3c0-0.2-0.1-0.3-0.3-0.3S353,99.1,353,99.2z"/>
		</g>
		<g>
			<path d="M338.8,99.2c0,0.2,0.1,0.3,0.3,0.3s0.3-0.1,0.3-0.3c0-0.2-0.1-0.3-0.3-0.3S338.8,99.1,338.8,99.2z"/>
			<path d="M324.6,99.2c0,0.2,0.1,0.3,0.3,0.3s0.3-0.1,0.3-0.3c0-0.2-0.1-0.3-0.3-0.3S324.6,99.1,324.6,99.2z"/>
		</g>
		<g>
			<path d="M310.4,99.2c0,0.2,0.1,0.3,0.3,0.3s0.3-0.1,0.3-0.3c0-0.2-0.1-0.3-0.3-0.3S310.4,99.1,310.4,99.2z"/>
			<path d="M296.3,99.2c0,0.2,0.1,0.3,0.3,0.3s0.3-0.1,0.3-0.3c0-0.2-0.1-0.3-0.3-0.3S296.3,99.1,296.3,99.2z"/>
		</g>
		<g>
			<path d="M282.1,99.2c0,0.2,0.1,0.3,0.3,0.3s0.3-0.1,0.3-0.3c0-0.2-0.1-0.3-0.3-0.3S282.1,99.1,282.1,99.2z"/>
			<path d="M267.9,99.2c0,0.2,0.1,0.3,0.3,0.3c0.2,0,0.3-0.1,0.3-0.3c0-0.2-0.1-0.3-0.3-0.3C268.1,98.9,267.9,99.1,267.9,99.2z"/>
		</g>
		<g>
			<path d="M253.8,99.2c0,0.2,0.1,0.3,0.3,0.3c0.2,0,0.3-0.1,0.3-0.3c0-0.2-0.1-0.3-0.3-0.3C253.9,98.9,253.8,99.1,253.8,99.2z"/>
			<path d="M239.6,99.2c0,0.2,0.1,0.3,0.3,0.3c0.2,0,0.3-0.1,0.3-0.3c0-0.2-0.1-0.3-0.3-0.3C239.7,98.9,239.6,99.1,239.6,99.2z"/>
		</g>
		<g>
			<path d="M225.4,99.2c0,0.2,0.1,0.3,0.3,0.3c0.2,0,0.3-0.1,0.3-0.3c0-0.2-0.1-0.3-0.3-0.3C225.5,98.9,225.4,99.1,225.4,99.2z"/>
			<path d="M211.2,99.2c0,0.2,0.1,0.3,0.3,0.3s0.3-0.1,0.3-0.3c0-0.2-0.1-0.3-0.3-0.3S211.2,99.1,211.2,99.2z"/>
		</g>
		<g>
			<path d="M197.1,99.2c0,0.2,0.1,0.3,0.3,0.3s0.3-0.1,0.3-0.3c0-0.2-0.1-0.3-0.3-0.3S197.1,99.1,197.1,99.2z"/>
			<path d="M182.9,99.2c0,0.2,0.1,0.3,0.3,0.3s0.3-0.1,0.3-0.3c0-0.2-0.1-0.3-0.3-0.3S182.9,99.1,182.9,99.2z"/>
		</g>
		<g>
			<path d="M168.7,99.2c0,0.2,0.1,0.3,0.3,0.3s0.3-0.1,0.3-0.3c0-0.2-0.1-0.3-0.3-0.3S168.7,99.1,168.7,99.2z"/>
			<path d="M154.5,99.2c0,0.2,0.1,0.3,0.3,0.3s0.3-0.1,0.3-0.3c0-0.2-0.1-0.3-0.3-0.3S154.5,99.1,154.5,99.2z"/>
		</g>
		<g>
			<path d="M140.4,99.2c0,0.2,0.1,0.3,0.3,0.3s0.3-0.1,0.3-0.3c0-0.2-0.1-0.3-0.3-0.3S140.4,99.1,140.4,99.2z"/>
		</g>
	</g>
</g>
<g id="_3">
</g>
</svg>
