<?xml version="1.0" encoding="utf-8"?>
<!-- Generator: Adobe Illustrator 22.1.0, SVG Export Plug-In . SVG Version: 6.00 Build 0)  -->
<svg version="1.1" id="Layer_1" xmlns="http://www.w3.org/2000/svg" xmlns:xlink="http://www.w3.org/1999/xlink" x="0px" y="0px"
	 viewBox="0 0 420.9 595.3" style="enable-background:new 0 0 420.9 595.3;" xml:space="preserve">
<g>
	<g>
		<path d="M53.9,99.2c0,0.2-0.1,0.3-0.3,0.3s-0.3-0.1-0.3-0.3c0-0.2,0.1-0.3,0.3-0.3S53.9,99.1,53.9,99.2z"/>
		<path d="M68,99.2c0,0.2-0.1,0.3-0.3,0.3c-0.2,0-0.3-0.1-0.3-0.3c0-0.2,0.1-0.3,0.3-0.3C67.9,98.9,68,99.1,68,99.2z"/>
	</g>
	<g>
		<path d="M82.2,99.2c0,0.2-0.1,0.3-0.3,0.3c-0.2,0-0.3-0.1-0.3-0.3c0-0.2,0.1-0.3,0.3-0.3C82.1,98.9,82.2,99.1,82.2,99.2z"/>
		<path d="M96.4,99.2c0,0.2-0.1,0.3-0.3,0.3c-0.2,0-0.3-0.1-0.3-0.3c0-0.2,0.1-0.3,0.3-0.3C96.3,98.9,96.4,99.1,96.4,99.2z"/>
	</g>
	<g>
		<path d="M110.6,99.2c0,0.2-0.1,0.3-0.3,0.3s-0.3-0.1-0.3-0.3c0-0.2,0.1-0.3,0.3-0.3S110.6,99.1,110.6,99.2z"/>
		<path d="M124.7,99.2c0,0.2-0.1,0.3-0.3,0.3c-0.2,0-0.3-0.1-0.3-0.3c0-0.2,0.1-0.3,0.3-0.3C124.6,98.9,124.7,99.1,124.7,99.2z"/>
	</g>
	<g>
		<path d="M138.9,99.2c0,0.2-0.1,0.3-0.3,0.3s-0.3-0.1-0.3-0.3c0-0.2,0.1-0.3,0.3-0.3S138.9,99.1,138.9,99.2z"/>
		<path d="M153.1,99.2c0,0.2-0.1,0.3-0.3,0.3c-0.2,0-0.3-0.1-0.3-0.3c0-0.2,0.1-0.3,0.3-0.3C152.9,98.9,153.1,99.1,153.1,99.2z"/>
	</g>
	<g>
		<path d="M167.2,99.2c0,0.2-0.1,0.3-0.3,0.3c-0.2,0-0.3-0.1-0.3-0.3c0-0.2,0.1-0.3,0.3-0.3C167.1,98.9,167.2,99.1,167.2,99.2z"/>
		<path d="M181.4,99.2c0,0.2-0.1,0.3-0.3,0.3c-0.2,0-0.3-0.1-0.3-0.3c0-0.2,0.1-0.3,0.3-0.3C181.3,98.9,181.4,99.1,181.4,99.2z"/>
	</g>
	<g>
		<path d="M195.6,99.2c0,0.2-0.1,0.3-0.3,0.3c-0.2,0-0.3-0.1-0.3-0.3c0-0.2,0.1-0.3,0.3-0.3C195.5,98.9,195.6,99.1,195.6,99.2z"/>
		<path d="M209.8,99.2c0,0.2-0.1,0.3-0.3,0.3s-0.3-0.1-0.3-0.3c0-0.2,0.1-0.3,0.3-0.3S209.8,99.1,209.8,99.2z"/>
	</g>
	<g>
		<path d="M223.9,99.2c0,0.2-0.1,0.3-0.3,0.3s-0.3-0.1-0.3-0.3c0-0.2,0.1-0.3,0.3-0.3S223.9,99.1,223.9,99.2z"/>
		<path d="M238.1,99.2c0,0.2-0.1,0.3-0.3,0.3s-0.3-0.1-0.3-0.3c0-0.2,0.1-0.3,0.3-0.3S238.1,99.1,238.1,99.2z"/>
	</g>
	<g>
		<path d="M252.3,99.2c0,0.2-0.1,0.3-0.3,0.3s-0.3-0.1-0.3-0.3c0-0.2,0.1-0.3,0.3-0.3S252.3,99.1,252.3,99.2z"/>
		<path d="M266.5,99.2c0,0.2-0.1,0.3-0.3,0.3s-0.3-0.1-0.3-0.3c0-0.2,0.1-0.3,0.3-0.3S266.5,99.1,266.5,99.2z"/>
	</g>
	<g>
		<path d="M280.6,99.2c0,0.2-0.1,0.3-0.3,0.3s-0.3-0.1-0.3-0.3c0-0.2,0.1-0.3,0.3-0.3S280.6,99.1,280.6,99.2z"/>
		<path d="M294.8,99.2c0,0.2-0.1,0.3-0.3,0.3s-0.3-0.1-0.3-0.3c0-0.2,0.1-0.3,0.3-0.3S294.8,99.1,294.8,99.2z"/>
	</g>
	<g>
		<path d="M309,99.2c0,0.2-0.1,0.3-0.3,0.3s-0.3-0.1-0.3-0.3c0-0.2,0.1-0.3,0.3-0.3S309,99.1,309,99.2z"/>
		<path d="M323.1,99.2c0,0.2-0.1,0.3-0.3,0.3s-0.3-0.1-0.3-0.3c0-0.2,0.1-0.3,0.3-0.3S323.1,99.1,323.1,99.2z"/>
	</g>
	<g>
		<path d="M337.3,99.2c0,0.2-0.1,0.3-0.3,0.3s-0.3-0.1-0.3-0.3c0-0.2,0.1-0.3,0.3-0.3S337.3,99.1,337.3,99.2z"/>
		<path d="M351.5,99.2c0,0.2-0.1,0.3-0.3,0.3c-0.2,0-0.3-0.1-0.3-0.3c0-0.2,0.1-0.3,0.3-0.3C351.4,98.9,351.5,99.1,351.5,99.2z"/>
	</g>
	<g>
		<path d="M365.7,99.2c0,0.2-0.1,0.3-0.3,0.3c-0.2,0-0.3-0.1-0.3-0.3c0-0.2,0.1-0.3,0.3-0.3C365.5,98.9,365.7,99.1,365.7,99.2z"/>
		<path d="M379.8,99.2c0,0.2-0.1,0.3-0.3,0.3s-0.3-0.1-0.3-0.3c0-0.2,0.1-0.3,0.3-0.3S379.8,99.1,379.8,99.2z"/>
	</g>
</g>
<g>
	<g>
		<path d="M53.9,85c0,0.2-0.1,0.3-0.3,0.3c-0.2,0-0.3-0.1-0.3-0.3c0-0.2,0.1-0.3,0.3-0.3C53.7,84.8,53.9,84.9,53.9,85z"/>
		<path d="M68,85c0,0.2-0.1,0.3-0.3,0.3c-0.2,0-0.3-0.1-0.3-0.3c0-0.2,0.1-0.3,0.3-0.3C67.9,84.8,68,84.9,68,85z"/>
	</g>
	<g>
		<path d="M82.2,85c0,0.2-0.1,0.3-0.3,0.3s-0.3-0.1-0.3-0.3c0-0.2,0.1-0.3,0.3-0.3S82.2,84.9,82.2,85z"/>
		<path d="M96.4,85c0,0.2-0.1,0.3-0.3,0.3c-0.2,0-0.3-0.1-0.3-0.3c0-0.2,0.1-0.3,0.3-0.3C96.3,84.8,96.4,84.9,96.4,85z"/>
	</g>
	<g>
		<path d="M110.6,85c0,0.2-0.1,0.3-0.3,0.3S110,85.2,110,85c0-0.2,0.1-0.3,0.3-0.3S110.6,84.9,110.6,85z"/>
		<path d="M124.7,85c0,0.2-0.1,0.3-0.3,0.3c-0.2,0-0.3-0.1-0.3-0.3c0-0.2,0.1-0.3,0.3-0.3C124.6,84.8,124.7,84.9,124.7,85z"/>
	</g>
	<g>
		<path d="M138.9,85c0,0.2-0.1,0.3-0.3,0.3s-0.3-0.1-0.3-0.3c0-0.2,0.1-0.3,0.3-0.3S138.9,84.9,138.9,85z"/>
		<path d="M153.1,85c0,0.2-0.1,0.3-0.3,0.3s-0.3-0.1-0.3-0.3c0-0.2,0.1-0.3,0.3-0.3S153.1,84.9,153.1,85z"/>
	</g>
	<g>
		<path d="M167.2,85c0,0.2-0.1,0.3-0.3,0.3s-0.3-0.1-0.3-0.3c0-0.2,0.1-0.3,0.3-0.3S167.2,84.9,167.2,85z"/>
		<path d="M181.4,85c0,0.2-0.1,0.3-0.3,0.3c-0.2,0-0.3-0.1-0.3-0.3c0-0.2,0.1-0.3,0.3-0.3C181.3,84.8,181.4,84.9,181.4,85z"/>
	</g>
	<g>
		<path d="M195.6,85c0,0.2-0.1,0.3-0.3,0.3S195,85.2,195,85c0-0.2,0.1-0.3,0.3-0.3S195.6,84.9,195.6,85z"/>
		<path d="M209.8,85c0,0.2-0.1,0.3-0.3,0.3s-0.3-0.1-0.3-0.3c0-0.2,0.1-0.3,0.3-0.3S209.8,84.9,209.8,85z"/>
	</g>
	<g>
		<path d="M223.9,85c0,0.2-0.1,0.3-0.3,0.3s-0.3-0.1-0.3-0.3c0-0.2,0.1-0.3,0.3-0.3S223.9,84.9,223.9,85z"/>
		<path d="M238.1,85c0,0.2-0.1,0.3-0.3,0.3s-0.3-0.1-0.3-0.3c0-0.2,0.1-0.3,0.3-0.3S238.1,84.9,238.1,85z"/>
	</g>
	<g>
		<path d="M252.3,85c0,0.2-0.1,0.3-0.3,0.3c-0.2,0-0.3-0.1-0.3-0.3c0-0.2,0.1-0.3,0.3-0.3C252.2,84.8,252.3,84.9,252.3,85z"/>
		<path d="M266.5,85c0,0.2-0.1,0.3-0.3,0.3s-0.3-0.1-0.3-0.3c0-0.2,0.1-0.3,0.3-0.3S266.5,84.9,266.5,85z"/>
	</g>
	<g>
		<path d="M280.6,85c0,0.2-0.1,0.3-0.3,0.3s-0.3-0.1-0.3-0.3c0-0.2,0.1-0.3,0.3-0.3S280.6,84.9,280.6,85z"/>
		<path d="M294.8,85c0,0.2-0.1,0.3-0.3,0.3s-0.3-0.1-0.3-0.3c0-0.2,0.1-0.3,0.3-0.3S294.8,84.9,294.8,85z"/>
	</g>
	<g>
		<path d="M309,85c0,0.2-0.1,0.3-0.3,0.3s-0.3-0.1-0.3-0.3c0-0.2,0.1-0.3,0.3-0.3S309,84.9,309,85z"/>
		<path d="M323.1,85c0,0.2-0.1,0.3-0.3,0.3s-0.3-0.1-0.3-0.3c0-0.2,0.1-0.3,0.3-0.3S323.1,84.9,323.1,85z"/>
	</g>
</g>
<g>
	<g>
		<path d="M53.9,70.9c0,0.2-0.1,0.3-0.3,0.3c-0.2,0-0.3-0.1-0.3-0.3c0-0.2,0.1-0.3,0.3-0.3C53.7,70.6,53.9,70.7,53.9,70.9z"/>
		<path d="M68,70.9c0,0.2-0.1,0.3-0.3,0.3c-0.2,0-0.3-0.1-0.3-0.3c0-0.2,0.1-0.3,0.3-0.3C67.9,70.6,68,70.7,68,70.9z"/>
	</g>
	<g>
		<path d="M82.2,70.9c0,0.2-0.1,0.3-0.3,0.3s-0.3-0.1-0.3-0.3c0-0.2,0.1-0.3,0.3-0.3S82.2,70.7,82.2,70.9z"/>
		<path d="M96.4,70.9c0,0.2-0.1,0.3-0.3,0.3c-0.2,0-0.3-0.1-0.3-0.3c0-0.2,0.1-0.3,0.3-0.3C96.3,70.6,96.4,70.7,96.4,70.9z"/>
	</g>
	<g>
		<path d="M110.6,70.9c0,0.2-0.1,0.3-0.3,0.3S110,71,110,70.9c0-0.2,0.1-0.3,0.3-0.3S110.6,70.7,110.6,70.9z"/>
		<path d="M124.7,70.9c0,0.2-0.1,0.3-0.3,0.3c-0.2,0-0.3-0.1-0.3-0.3c0-0.2,0.1-0.3,0.3-0.3C124.6,70.6,124.7,70.7,124.7,70.9z"/>
	</g>
	<g>
		<path d="M138.9,70.9c0,0.2-0.1,0.3-0.3,0.3s-0.3-0.1-0.3-0.3c0-0.2,0.1-0.3,0.3-0.3S138.9,70.7,138.9,70.9z"/>
		<path d="M153.1,70.9c0,0.2-0.1,0.3-0.3,0.3s-0.3-0.1-0.3-0.3c0-0.2,0.1-0.3,0.3-0.3S153.1,70.7,153.1,70.9z"/>
	</g>
	<g>
		<path d="M167.2,70.9c0,0.2-0.1,0.3-0.3,0.3s-0.3-0.1-0.3-0.3c0-0.2,0.1-0.3,0.3-0.3S167.2,70.7,167.2,70.9z"/>
		<path d="M181.4,70.9c0,0.2-0.1,0.3-0.3,0.3c-0.2,0-0.3-0.1-0.3-0.3c0-0.2,0.1-0.3,0.3-0.3C181.3,70.6,181.4,70.7,181.4,70.9z"/>
	</g>
	<g>
		<path d="M195.6,70.9c0,0.2-0.1,0.3-0.3,0.3S195,71,195,70.9c0-0.2,0.1-0.3,0.3-0.3S195.6,70.7,195.6,70.9z"/>
		<path d="M209.8,70.9c0,0.2-0.1,0.3-0.3,0.3s-0.3-0.1-0.3-0.3c0-0.2,0.1-0.3,0.3-0.3S209.8,70.7,209.8,70.9z"/>
	</g>
	<g>
		<path d="M223.9,70.9c0,0.2-0.1,0.3-0.3,0.3s-0.3-0.1-0.3-0.3c0-0.2,0.1-0.3,0.3-0.3S223.9,70.7,223.9,70.9z"/>
		<path d="M238.1,70.9c0,0.2-0.1,0.3-0.3,0.3s-0.3-0.1-0.3-0.3c0-0.2,0.1-0.3,0.3-0.3S238.1,70.7,238.1,70.9z"/>
	</g>
	<g>
		<path d="M252.3,70.9c0,0.2-0.1,0.3-0.3,0.3c-0.2,0-0.3-0.1-0.3-0.3c0-0.2,0.1-0.3,0.3-0.3C252.2,70.6,252.3,70.7,252.3,70.9z"/>
		<path d="M266.5,70.9c0,0.2-0.1,0.3-0.3,0.3s-0.3-0.1-0.3-0.3c0-0.2,0.1-0.3,0.3-0.3S266.5,70.7,266.5,70.9z"/>
	</g>
	<g>
		<path d="M280.6,70.9c0,0.2-0.1,0.3-0.3,0.3s-0.3-0.1-0.3-0.3c0-0.2,0.1-0.3,0.3-0.3S280.6,70.7,280.6,70.9z"/>
		<path d="M294.8,70.9c0,0.2-0.1,0.3-0.3,0.3s-0.3-0.1-0.3-0.3c0-0.2,0.1-0.3,0.3-0.3S294.8,70.7,294.8,70.9z"/>
	</g>
	<g>
		<path d="M309,70.9c0,0.2-0.1,0.3-0.3,0.3s-0.3-0.1-0.3-0.3c0-0.2,0.1-0.3,0.3-0.3S309,70.7,309,70.9z"/>
		<path d="M323.1,70.9c0,0.2-0.1,0.3-0.3,0.3s-0.3-0.1-0.3-0.3c0-0.2,0.1-0.3,0.3-0.3S323.1,70.7,323.1,70.9z"/>
	</g>
</g>
<g>
	<g>
		<circle cx="53.6" cy="56.7" r="0.3"/>
		<path d="M68,56.7c0,0.2-0.1,0.3-0.3,0.3c-0.2,0-0.3-0.1-0.3-0.3s0.1-0.3,0.3-0.3C67.9,56.4,68,56.5,68,56.7z"/>
	</g>
	<g>
		<circle cx="81.9" cy="56.7" r="0.3"/>
		<circle cx="96.1" cy="56.7" r="0.3"/>
	</g>
	<g>
		<path d="M110.6,56.7c0,0.2-0.1,0.3-0.3,0.3c-0.2,0-0.3-0.1-0.3-0.3s0.1-0.3,0.3-0.3C110.4,56.4,110.6,56.5,110.6,56.7z"/>
		<circle cx="124.4" cy="56.7" r="0.3"/>
	</g>
	<g>
		<circle cx="138.6" cy="56.7" r="0.3"/>
		<path d="M153.1,56.7c0,0.2-0.1,0.3-0.3,0.3c-0.2,0-0.3-0.1-0.3-0.3s0.1-0.3,0.3-0.3C152.9,56.4,153.1,56.5,153.1,56.7z"/>
	</g>
	<g>
		<path d="M167.2,56.7c0,0.2-0.1,0.3-0.3,0.3c-0.2,0-0.3-0.1-0.3-0.3s0.1-0.3,0.3-0.3C167.1,56.4,167.2,56.5,167.2,56.7z"/>
		<circle cx="181.1" cy="56.7" r="0.3"/>
	</g>
	<g>
		<circle cx="195.3" cy="56.7" r="0.3"/>
		<circle cx="209.5" cy="56.7" r="0.3"/>
	</g>
	<g>
		<path d="M223.9,56.7c0,0.2-0.1,0.3-0.3,0.3c-0.2,0-0.3-0.1-0.3-0.3s0.1-0.3,0.3-0.3C223.8,56.4,223.9,56.5,223.9,56.7z"/>
		<path d="M238.1,56.7c0,0.2-0.1,0.3-0.3,0.3c-0.2,0-0.3-0.1-0.3-0.3s0.1-0.3,0.3-0.3C238,56.4,238.1,56.5,238.1,56.7z"/>
	</g>
	<g>
		<circle cx="252" cy="56.7" r="0.3"/>
		<circle cx="266.2" cy="56.7" r="0.3"/>
	</g>
	<g>
		<path d="M280.6,56.7c0,0.2-0.1,0.3-0.3,0.3s-0.3-0.1-0.3-0.3s0.1-0.3,0.3-0.3S280.6,56.5,280.6,56.7z"/>
		<path d="M294.8,56.7c0,0.2-0.1,0.3-0.3,0.3s-0.3-0.1-0.3-0.3s0.1-0.3,0.3-0.3S294.8,56.5,294.8,56.7z"/>
	</g>
	<g>
		<path d="M309,56.7c0,0.2-0.1,0.3-0.3,0.3s-0.3-0.1-0.3-0.3s0.1-0.3,0.3-0.3S309,56.5,309,56.7z"/>
		<path d="M323.1,56.7c0,0.2-0.1,0.3-0.3,0.3s-0.3-0.1-0.3-0.3s0.1-0.3,0.3-0.3S323.1,56.5,323.1,56.7z"/>
	</g>
</g>
<g>
	<g>
		<circle cx="53.6" cy="42.5" r="0.3"/>
		<path d="M68,42.5c0,0.2-0.1,0.3-0.3,0.3c-0.2,0-0.3-0.1-0.3-0.3c0-0.2,0.1-0.3,0.3-0.3C67.9,42.2,68,42.4,68,42.5z"/>
	</g>
	<g>
		<circle cx="81.9" cy="42.5" r="0.3"/>
		<path d="M96.4,42.5c0,0.2-0.1,0.3-0.3,0.3c-0.2,0-0.3-0.1-0.3-0.3c0-0.2,0.1-0.3,0.3-0.3C96.3,42.2,96.4,42.4,96.4,42.5z"/>
	</g>
	<g>
		<circle cx="110.3" cy="42.5" r="0.3"/>
		<path d="M124.7,42.5c0,0.2-0.1,0.3-0.3,0.3c-0.2,0-0.3-0.1-0.3-0.3c0-0.2,0.1-0.3,0.3-0.3C124.6,42.2,124.7,42.4,124.7,42.5z"/>
	</g>
	<g>
		<circle cx="138.6" cy="42.5" r="0.3"/>
		<circle cx="152.8" cy="42.5" r="0.3"/>
	</g>
	<g>
		<circle cx="167" cy="42.5" r="0.3"/>
		<path d="M181.4,42.5c0,0.2-0.1,0.3-0.3,0.3c-0.2,0-0.3-0.1-0.3-0.3c0-0.2,0.1-0.3,0.3-0.3C181.3,42.2,181.4,42.4,181.4,42.5z"/>
	</g>
	<g>
		<circle cx="195.3" cy="42.5" r="0.3"/>
		<circle cx="209.5" cy="42.5" r="0.3"/>
	</g>
	<g>
		<circle cx="223.7" cy="42.5" r="0.3"/>
		<circle cx="237.8" cy="42.5" r="0.3"/>
	</g>
	<g>
		<path d="M252.3,42.5c0,0.2-0.1,0.3-0.3,0.3c-0.2,0-0.3-0.1-0.3-0.3c0-0.2,0.1-0.3,0.3-0.3C252.2,42.2,252.3,42.4,252.3,42.5z"/>
		<path d="M266.5,42.5c0,0.2-0.1,0.3-0.3,0.3s-0.3-0.1-0.3-0.3c0-0.2,0.1-0.3,0.3-0.3S266.5,42.4,266.5,42.5z"/>
	</g>
	<g>
		<path d="M280.6,42.5c0,0.2-0.1,0.3-0.3,0.3s-0.3-0.1-0.3-0.3c0-0.2,0.1-0.3,0.3-0.3S280.6,42.4,280.6,42.5z"/>
		<ellipse transform="matrix(0.9993 -3.837734e-02 3.837734e-02 0.9993 -1.4148 11.3342)" cx="294.5" cy="42.5" rx="0.3" ry="0.3"/>
	</g>
	<g>
		<path d="M309,42.5c0,0.2-0.1,0.3-0.3,0.3s-0.3-0.1-0.3-0.3c0-0.2,0.1-0.3,0.3-0.3S309,42.4,309,42.5z"/>
		<path d="M323.1,42.5c0,0.2-0.1,0.3-0.3,0.3s-0.3-0.1-0.3-0.3c0-0.2,0.1-0.3,0.3-0.3S323.1,42.4,323.1,42.5z"/>
	</g>
</g>
<g>
	<g>
		<circle cx="53.6" cy="113.4" r="0.3"/>
		<circle cx="67.7" cy="113.4" r="0.3"/>
	</g>
	<g>
		<path d="M82.2,113.4c0,0.2-0.1,0.3-0.3,0.3c-0.2,0-0.3-0.1-0.3-0.3s0.1-0.3,0.3-0.3C82.1,113.1,82.2,113.2,82.2,113.4z"/>
		<circle cx="96.1" cy="113.4" r="0.3"/>
	</g>
	<g>
		<circle cx="110.3" cy="113.4" r="0.3"/>
		<circle cx="124.4" cy="113.4" r="0.3"/>
	</g>
	<g>
		<circle cx="138.6" cy="113.4" r="0.3"/>
		<circle cx="152.8" cy="113.4" r="0.3"/>
	</g>
	<g>
		<circle cx="167" cy="113.4" r="0.3"/>
		<circle cx="181.1" cy="113.4" r="0.3"/>
	</g>
	<g>
		<circle cx="195.3" cy="113.4" r="0.3"/>
		<circle cx="209.5" cy="113.4" r="0.3"/>
	</g>
	<g>
		<circle cx="223.7" cy="113.4" r="0.3"/>
		<circle cx="237.8" cy="113.4" r="0.3"/>
	</g>
	<g>
		<circle cx="252" cy="113.4" r="0.3"/>
		<path d="M266.5,113.4c0,0.2-0.1,0.3-0.3,0.3s-0.3-0.1-0.3-0.3s0.1-0.3,0.3-0.3S266.5,113.2,266.5,113.4z"/>
	</g>
	<g>
		<path d="M280.6,113.4c0,0.2-0.1,0.3-0.3,0.3s-0.3-0.1-0.3-0.3s0.1-0.3,0.3-0.3S280.6,113.2,280.6,113.4z"/>
		<path d="M294.8,113.4c0,0.2-0.1,0.3-0.3,0.3s-0.3-0.1-0.3-0.3s0.1-0.3,0.3-0.3S294.8,113.2,294.8,113.4z"/>
	</g>
	<g>
		<path d="M309,113.4c0,0.2-0.1,0.3-0.3,0.3s-0.3-0.1-0.3-0.3s0.1-0.3,0.3-0.3S309,113.2,309,113.4z"/>
		<path d="M323.1,113.4c0,0.2-0.1,0.3-0.3,0.3s-0.3-0.1-0.3-0.3s0.1-0.3,0.3-0.3S323.1,113.2,323.1,113.4z"/>
	</g>
	<g>
		<path d="M337.3,113.4c0,0.2-0.1,0.3-0.3,0.3s-0.3-0.1-0.3-0.3s0.1-0.3,0.3-0.3S337.3,113.2,337.3,113.4z"/>
		<path d="M351.5,113.4c0,0.2-0.1,0.3-0.3,0.3c-0.2,0-0.3-0.1-0.3-0.3s0.1-0.3,0.3-0.3C351.4,113.1,351.5,113.2,351.5,113.4z"/>
	</g>
	<g>
		<path d="M365.7,113.4c0,0.2-0.1,0.3-0.3,0.3c-0.2,0-0.3-0.1-0.3-0.3s0.1-0.3,0.3-0.3C365.5,113.1,365.7,113.2,365.7,113.4z"/>
		<path d="M379.8,113.4c0,0.2-0.1,0.3-0.3,0.3s-0.3-0.1-0.3-0.3s0.1-0.3,0.3-0.3S379.8,113.2,379.8,113.4z"/>
	</g>
</g>
<g>
	<g>
		<path d="M53.9,127.6c0,0.2-0.1,0.3-0.3,0.3s-0.3-0.1-0.3-0.3c0-0.2,0.1-0.3,0.3-0.3S53.9,127.4,53.9,127.6z"/>
		<path d="M68,127.6c0,0.2-0.1,0.3-0.3,0.3c-0.2,0-0.3-0.1-0.3-0.3c0-0.2,0.1-0.3,0.3-0.3C67.9,127.3,68,127.4,68,127.6z"/>
	</g>
	<g>
		<path d="M82.2,127.6c0,0.2-0.1,0.3-0.3,0.3c-0.2,0-0.3-0.1-0.3-0.3c0-0.2,0.1-0.3,0.3-0.3C82.1,127.3,82.2,127.4,82.2,127.6z"/>
		<path d="M96.4,127.6c0,0.2-0.1,0.3-0.3,0.3c-0.2,0-0.3-0.1-0.3-0.3c0-0.2,0.1-0.3,0.3-0.3C96.3,127.3,96.4,127.4,96.4,127.6z"/>
	</g>
	<g>
		<path d="M110.6,127.6c0,0.2-0.1,0.3-0.3,0.3c-0.2,0-0.3-0.1-0.3-0.3c0-0.2,0.1-0.3,0.3-0.3C110.4,127.3,110.6,127.4,110.6,127.6z"
			/>
		<path d="M124.7,127.6c0,0.2-0.1,0.3-0.3,0.3c-0.2,0-0.3-0.1-0.3-0.3c0-0.2,0.1-0.3,0.3-0.3C124.6,127.3,124.7,127.4,124.7,127.6z"
			/>
	</g>
	<g>
		<path d="M138.9,127.6c0,0.2-0.1,0.3-0.3,0.3c-0.2,0-0.3-0.1-0.3-0.3c0-0.2,0.1-0.3,0.3-0.3C138.8,127.3,138.9,127.4,138.9,127.6z"
			/>
		<path d="M153.1,127.6c0,0.2-0.1,0.3-0.3,0.3s-0.3-0.1-0.3-0.3c0-0.2,0.1-0.3,0.3-0.3S153.1,127.4,153.1,127.6z"/>
	</g>
	<g>
		<path d="M167.2,127.6c0,0.2-0.1,0.3-0.3,0.3s-0.3-0.1-0.3-0.3c0-0.2,0.1-0.3,0.3-0.3S167.2,127.4,167.2,127.6z"/>
		<path d="M181.4,127.6c0,0.2-0.1,0.3-0.3,0.3s-0.3-0.1-0.3-0.3c0-0.2,0.1-0.3,0.3-0.3S181.4,127.4,181.4,127.6z"/>
	</g>
	<g>
		<path d="M195.6,127.6c0,0.2-0.1,0.3-0.3,0.3s-0.3-0.1-0.3-0.3c0-0.2,0.1-0.3,0.3-0.3S195.6,127.4,195.6,127.6z"/>
		<path d="M209.8,127.6c0,0.2-0.1,0.3-0.3,0.3s-0.3-0.1-0.3-0.3c0-0.2,0.1-0.3,0.3-0.3S209.8,127.4,209.8,127.6z"/>
	</g>
	<g>
		<path d="M223.9,127.6c0,0.2-0.1,0.3-0.3,0.3c-0.2,0-0.3-0.1-0.3-0.3c0-0.2,0.1-0.3,0.3-0.3C223.8,127.3,223.9,127.4,223.9,127.6z"
			/>
		<path d="M238.1,127.6c0,0.2-0.1,0.3-0.3,0.3c-0.2,0-0.3-0.1-0.3-0.3c0-0.2,0.1-0.3,0.3-0.3C238,127.3,238.1,127.4,238.1,127.6z"/>
	</g>
	<g>
		<path d="M252.3,127.6c0,0.2-0.1,0.3-0.3,0.3c-0.2,0-0.3-0.1-0.3-0.3c0-0.2,0.1-0.3,0.3-0.3C252.2,127.3,252.3,127.4,252.3,127.6z"
			/>
		<path d="M266.5,127.6c0,0.2-0.1,0.3-0.3,0.3s-0.3-0.1-0.3-0.3c0-0.2,0.1-0.3,0.3-0.3S266.5,127.4,266.5,127.6z"/>
	</g>
	<g>
		<path d="M280.6,127.6c0,0.2-0.1,0.3-0.3,0.3s-0.3-0.1-0.3-0.3c0-0.2,0.1-0.3,0.3-0.3S280.6,127.4,280.6,127.6z"/>
		<path d="M294.8,127.6c0,0.2-0.1,0.3-0.3,0.3c-0.2,0-0.3-0.1-0.3-0.3c0-0.2,0.1-0.3,0.3-0.3C294.7,127.3,294.8,127.4,294.8,127.6z"
			/>
	</g>
	<g>
		<path d="M309,127.6c0,0.2-0.1,0.3-0.3,0.3c-0.2,0-0.3-0.1-0.3-0.3c0-0.2,0.1-0.3,0.3-0.3C308.8,127.3,309,127.4,309,127.6z"/>
		<path d="M323.1,127.6c0,0.2-0.1,0.3-0.3,0.3s-0.3-0.1-0.3-0.3c0-0.2,0.1-0.3,0.3-0.3S323.1,127.4,323.1,127.6z"/>
	</g>
	<g>
		<path d="M337.3,127.6c0,0.2-0.1,0.3-0.3,0.3s-0.3-0.1-0.3-0.3c0-0.2,0.1-0.3,0.3-0.3S337.3,127.4,337.3,127.6z"/>
		<path d="M351.5,127.6c0,0.2-0.1,0.3-0.3,0.3s-0.3-0.1-0.3-0.3c0-0.2,0.1-0.3,0.3-0.3S351.5,127.4,351.5,127.6z"/>
	</g>
	<g>
		<path d="M365.7,127.6c0,0.2-0.1,0.3-0.3,0.3s-0.3-0.1-0.3-0.3c0-0.2,0.1-0.3,0.3-0.3S365.7,127.4,365.7,127.6z"/>
		<path d="M379.8,127.6c0,0.2-0.1,0.3-0.3,0.3s-0.3-0.1-0.3-0.3c0-0.2,0.1-0.3,0.3-0.3S379.8,127.4,379.8,127.6z"/>
	</g>
</g>
<g>
	<g>
		<circle cx="53.6" cy="141.7" r="0.3"/>
		<circle cx="67.7" cy="141.7" r="0.3"/>
	</g>
	<g>
		<path d="M82.2,141.7c0,0.2-0.1,0.3-0.3,0.3c-0.2,0-0.3-0.1-0.3-0.3s0.1-0.3,0.3-0.3C82.1,141.4,82.2,141.6,82.2,141.7z"/>
		<circle cx="96.1" cy="141.7" r="0.3"/>
	</g>
	<g>
		<circle cx="110.3" cy="141.7" r="0.3"/>
		<circle cx="124.4" cy="141.7" r="0.3"/>
	</g>
	<g>
		<circle cx="138.6" cy="141.7" r="0.3"/>
		<circle cx="152.8" cy="141.7" r="0.3"/>
	</g>
	<g>
		<circle cx="167" cy="141.7" r="0.3"/>
		<circle cx="181.1" cy="141.7" r="0.3"/>
	</g>
	<g>
		<circle cx="195.3" cy="141.7" r="0.3"/>
		<circle cx="209.5" cy="141.7" r="0.3"/>
	</g>
	<g>
		<circle cx="223.7" cy="141.7" r="0.3"/>
		<circle cx="237.8" cy="141.7" r="0.3"/>
	</g>
	<g>
		<circle cx="252" cy="141.7" r="0.3"/>
		<path d="M266.5,141.7c0,0.2-0.1,0.3-0.3,0.3s-0.3-0.1-0.3-0.3s0.1-0.3,0.3-0.3S266.5,141.6,266.5,141.7z"/>
	</g>
	<g>
		<path d="M280.6,141.7c0,0.2-0.1,0.3-0.3,0.3s-0.3-0.1-0.3-0.3s0.1-0.3,0.3-0.3S280.6,141.6,280.6,141.7z"/>
		<path d="M294.8,141.7c0,0.2-0.1,0.3-0.3,0.3s-0.3-0.1-0.3-0.3s0.1-0.3,0.3-0.3S294.8,141.6,294.8,141.7z"/>
	</g>
	<g>
		<path d="M309,141.7c0,0.2-0.1,0.3-0.3,0.3s-0.3-0.1-0.3-0.3s0.1-0.3,0.3-0.3S309,141.6,309,141.7z"/>
		<path d="M323.1,141.7c0,0.2-0.1,0.3-0.3,0.3s-0.3-0.1-0.3-0.3s0.1-0.3,0.3-0.3S323.1,141.6,323.1,141.7z"/>
	</g>
	<g>
		<path d="M337.3,141.7c0,0.2-0.1,0.3-0.3,0.3s-0.3-0.1-0.3-0.3s0.1-0.3,0.3-0.3S337.3,141.6,337.3,141.7z"/>
		<path d="M351.5,141.7c0,0.2-0.1,0.3-0.3,0.3c-0.2,0-0.3-0.1-0.3-0.3s0.1-0.3,0.3-0.3C351.4,141.4,351.5,141.6,351.5,141.7z"/>
	</g>
	<g>
		<path d="M365.7,141.7c0,0.2-0.1,0.3-0.3,0.3c-0.2,0-0.3-0.1-0.3-0.3s0.1-0.3,0.3-0.3C365.5,141.4,365.7,141.6,365.7,141.7z"/>
		<path d="M379.8,141.7c0,0.2-0.1,0.3-0.3,0.3s-0.3-0.1-0.3-0.3s0.1-0.3,0.3-0.3S379.8,141.6,379.8,141.7z"/>
	</g>
</g>
<g>
	<g>
		<path d="M53.9,155.9c0,0.2-0.1,0.3-0.3,0.3s-0.3-0.1-0.3-0.3c0-0.2,0.1-0.3,0.3-0.3S53.9,155.7,53.9,155.9z"/>
		<path d="M68,155.9c0,0.2-0.1,0.3-0.3,0.3c-0.2,0-0.3-0.1-0.3-0.3c0-0.2,0.1-0.3,0.3-0.3C67.9,155.6,68,155.7,68,155.9z"/>
	</g>
	<g>
		<path d="M82.2,155.9c0,0.2-0.1,0.3-0.3,0.3c-0.2,0-0.3-0.1-0.3-0.3c0-0.2,0.1-0.3,0.3-0.3C82.1,155.6,82.2,155.7,82.2,155.9z"/>
		<path d="M96.4,155.9c0,0.2-0.1,0.3-0.3,0.3c-0.2,0-0.3-0.1-0.3-0.3c0-0.2,0.1-0.3,0.3-0.3C96.3,155.6,96.4,155.7,96.4,155.9z"/>
	</g>
	<g>
		<path d="M110.6,155.9c0,0.2-0.1,0.3-0.3,0.3s-0.3-0.1-0.3-0.3c0-0.2,0.1-0.3,0.3-0.3S110.6,155.7,110.6,155.9z"/>
		<path d="M124.7,155.9c0,0.2-0.1,0.3-0.3,0.3s-0.3-0.1-0.3-0.3c0-0.2,0.1-0.3,0.3-0.3S124.7,155.7,124.7,155.9z"/>
	</g>
	<g>
		<path d="M138.9,155.9c0,0.2-0.1,0.3-0.3,0.3c-0.2,0-0.3-0.1-0.3-0.3c0-0.2,0.1-0.3,0.3-0.3C138.8,155.6,138.9,155.7,138.9,155.9z"
			/>
		<path d="M153.1,155.9c0,0.2-0.1,0.3-0.3,0.3c-0.2,0-0.3-0.1-0.3-0.3c0-0.2,0.1-0.3,0.3-0.3C152.9,155.6,153.1,155.7,153.1,155.9z"
			/>
	</g>
	<g>
		<path d="M167.2,155.9c0,0.2-0.1,0.3-0.3,0.3s-0.3-0.1-0.3-0.3c0-0.2,0.1-0.3,0.3-0.3S167.2,155.7,167.2,155.9z"/>
		<path d="M181.4,155.9c0,0.2-0.1,0.3-0.3,0.3s-0.3-0.1-0.3-0.3c0-0.2,0.1-0.3,0.3-0.3S181.4,155.7,181.4,155.9z"/>
	</g>
	<g>
		<path d="M195.6,155.9c0,0.2-0.1,0.3-0.3,0.3s-0.3-0.1-0.3-0.3c0-0.2,0.1-0.3,0.3-0.3S195.6,155.7,195.6,155.9z"/>
		<path d="M209.8,155.9c0,0.2-0.1,0.3-0.3,0.3s-0.3-0.1-0.3-0.3c0-0.2,0.1-0.3,0.3-0.3S209.8,155.7,209.8,155.9z"/>
	</g>
	<g>
		<path d="M223.9,155.9c0,0.2-0.1,0.3-0.3,0.3s-0.3-0.1-0.3-0.3c0-0.2,0.1-0.3,0.3-0.3S223.9,155.7,223.9,155.9z"/>
		<path d="M238.1,155.9c0,0.2-0.1,0.3-0.3,0.3s-0.3-0.1-0.3-0.3c0-0.2,0.1-0.3,0.3-0.3S238.1,155.7,238.1,155.9z"/>
	</g>
	<g>
		<path d="M252.3,155.9c0,0.2-0.1,0.3-0.3,0.3s-0.3-0.1-0.3-0.3c0-0.2,0.1-0.3,0.3-0.3S252.3,155.7,252.3,155.9z"/>
		<path d="M266.5,155.9c0,0.2-0.1,0.3-0.3,0.3s-0.3-0.1-0.3-0.3c0-0.2,0.1-0.3,0.3-0.3S266.5,155.7,266.5,155.9z"/>
	</g>
	<g>
		<path d="M280.6,155.9c0,0.2-0.1,0.3-0.3,0.3s-0.3-0.1-0.3-0.3c0-0.2,0.1-0.3,0.3-0.3S280.6,155.7,280.6,155.9z"/>
		<path d="M294.8,155.9c0,0.2-0.1,0.3-0.3,0.3s-0.3-0.1-0.3-0.3c0-0.2,0.1-0.3,0.3-0.3S294.8,155.7,294.8,155.9z"/>
	</g>
	<g>
		<path d="M309,155.9c0,0.2-0.1,0.3-0.3,0.3s-0.3-0.1-0.3-0.3c0-0.2,0.1-0.3,0.3-0.3S309,155.7,309,155.9z"/>
		<path d="M323.1,155.9c0,0.2-0.1,0.3-0.3,0.3s-0.3-0.1-0.3-0.3c0-0.2,0.1-0.3,0.3-0.3S323.1,155.7,323.1,155.9z"/>
	</g>
	<g>
		<path d="M337.3,155.9c0,0.2-0.1,0.3-0.3,0.3s-0.3-0.1-0.3-0.3c0-0.2,0.1-0.3,0.3-0.3S337.3,155.7,337.3,155.9z"/>
		<path d="M351.5,155.9c0,0.2-0.1,0.3-0.3,0.3s-0.3-0.1-0.3-0.3c0-0.2,0.1-0.3,0.3-0.3S351.5,155.7,351.5,155.9z"/>
	</g>
	<g>
		<path d="M365.7,155.9c0,0.2-0.1,0.3-0.3,0.3s-0.3-0.1-0.3-0.3c0-0.2,0.1-0.3,0.3-0.3S365.7,155.7,365.7,155.9z"/>
		<path d="M379.8,155.9c0,0.2-0.1,0.3-0.3,0.3s-0.3-0.1-0.3-0.3c0-0.2,0.1-0.3,0.3-0.3S379.8,155.7,379.8,155.9z"/>
	</g>
</g>
<g>
	<g>
		<path d="M53.9,170.1c0,0.2-0.1,0.3-0.3,0.3s-0.3-0.1-0.3-0.3c0-0.2,0.1-0.3,0.3-0.3S53.9,169.9,53.9,170.1z"/>
		<path d="M68,170.1c0,0.2-0.1,0.3-0.3,0.3c-0.2,0-0.3-0.1-0.3-0.3c0-0.2,0.1-0.3,0.3-0.3C67.9,169.8,68,169.9,68,170.1z"/>
	</g>
	<g>
		<path d="M82.2,170.1c0,0.2-0.1,0.3-0.3,0.3c-0.2,0-0.3-0.1-0.3-0.3c0-0.2,0.1-0.3,0.3-0.3C82.1,169.8,82.2,169.9,82.2,170.1z"/>
		<path d="M96.4,170.1c0,0.2-0.1,0.3-0.3,0.3c-0.2,0-0.3-0.1-0.3-0.3c0-0.2,0.1-0.3,0.3-0.3C96.3,169.8,96.4,169.9,96.4,170.1z"/>
	</g>
	<g>
		<path d="M110.6,170.1c0,0.2-0.1,0.3-0.3,0.3c-0.2,0-0.3-0.1-0.3-0.3c0-0.2,0.1-0.3,0.3-0.3C110.4,169.8,110.6,169.9,110.6,170.1z"
			/>
		<path d="M124.7,170.1c0,0.2-0.1,0.3-0.3,0.3c-0.2,0-0.3-0.1-0.3-0.3c0-0.2,0.1-0.3,0.3-0.3C124.6,169.8,124.7,169.9,124.7,170.1z"
			/>
	</g>
	<g>
		<path d="M138.9,170.1c0,0.2-0.1,0.3-0.3,0.3c-0.2,0-0.3-0.1-0.3-0.3c0-0.2,0.1-0.3,0.3-0.3C138.8,169.8,138.9,169.9,138.9,170.1z"
			/>
		<path d="M153.1,170.1c0,0.2-0.1,0.3-0.3,0.3c-0.2,0-0.3-0.1-0.3-0.3c0-0.2,0.1-0.3,0.3-0.3C152.9,169.8,153.1,169.9,153.1,170.1z"
			/>
	</g>
	<g>
		<path d="M167.2,170.1c0,0.2-0.1,0.3-0.3,0.3c-0.2,0-0.3-0.1-0.3-0.3c0-0.2,0.1-0.3,0.3-0.3C167.1,169.8,167.2,169.9,167.2,170.1z"
			/>
		<path d="M181.4,170.1c0,0.2-0.1,0.3-0.3,0.3c-0.2,0-0.3-0.1-0.3-0.3c0-0.2,0.1-0.3,0.3-0.3C181.3,169.8,181.4,169.9,181.4,170.1z"
			/>
	</g>
	<g>
		<path d="M195.6,170.1c0,0.2-0.1,0.3-0.3,0.3c-0.2,0-0.3-0.1-0.3-0.3c0-0.2,0.1-0.3,0.3-0.3C195.5,169.8,195.6,169.9,195.6,170.1z"
			/>
		<path d="M209.8,170.1c0,0.2-0.1,0.3-0.3,0.3c-0.2,0-0.3-0.1-0.3-0.3c0-0.2,0.1-0.3,0.3-0.3C209.6,169.8,209.8,169.9,209.8,170.1z"
			/>
	</g>
	<g>
		<path d="M223.9,170.1c0,0.2-0.1,0.3-0.3,0.3s-0.3-0.1-0.3-0.3c0-0.2,0.1-0.3,0.3-0.3S223.9,169.9,223.9,170.1z"/>
		<path d="M238.1,170.1c0,0.2-0.1,0.3-0.3,0.3s-0.3-0.1-0.3-0.3c0-0.2,0.1-0.3,0.3-0.3S238.1,169.9,238.1,170.1z"/>
	</g>
	<g>
		<path d="M252.3,170.1c0,0.2-0.1,0.3-0.3,0.3s-0.3-0.1-0.3-0.3c0-0.2,0.1-0.3,0.3-0.3S252.3,169.9,252.3,170.1z"/>
		<path d="M266.5,170.1c0,0.2-0.1,0.3-0.3,0.3s-0.3-0.1-0.3-0.3c0-0.2,0.1-0.3,0.3-0.3S266.5,169.9,266.5,170.1z"/>
	</g>
	<g>
		<path d="M280.6,170.1c0,0.2-0.1,0.3-0.3,0.3c-0.2,0-0.3-0.1-0.3-0.3c0-0.2,0.1-0.3,0.3-0.3C280.5,169.8,280.6,169.9,280.6,170.1z"
			/>
		<path d="M294.8,170.1c0,0.2-0.1,0.3-0.3,0.3c-0.2,0-0.3-0.1-0.3-0.3c0-0.2,0.1-0.3,0.3-0.3C294.7,169.8,294.8,169.9,294.8,170.1z"
			/>
	</g>
	<g>
		<path d="M309,170.1c0,0.2-0.1,0.3-0.3,0.3s-0.3-0.1-0.3-0.3c0-0.2,0.1-0.3,0.3-0.3S309,169.9,309,170.1z"/>
		<path d="M323.1,170.1c0,0.2-0.1,0.3-0.3,0.3s-0.3-0.1-0.3-0.3c0-0.2,0.1-0.3,0.3-0.3S323.1,169.9,323.1,170.1z"/>
	</g>
	<g>
		<path d="M337.3,170.1c0,0.2-0.1,0.3-0.3,0.3s-0.3-0.1-0.3-0.3c0-0.2,0.1-0.3,0.3-0.3S337.3,169.9,337.3,170.1z"/>
		<path d="M351.5,170.1c0,0.2-0.1,0.3-0.3,0.3s-0.3-0.1-0.3-0.3c0-0.2,0.1-0.3,0.3-0.3S351.5,169.9,351.5,170.1z"/>
	</g>
	<g>
		<path d="M365.7,170.1c0,0.2-0.1,0.3-0.3,0.3s-0.3-0.1-0.3-0.3c0-0.2,0.1-0.3,0.3-0.3S365.7,169.9,365.7,170.1z"/>
		<path d="M379.8,170.1c0,0.2-0.1,0.3-0.3,0.3s-0.3-0.1-0.3-0.3c0-0.2,0.1-0.3,0.3-0.3S379.8,169.9,379.8,170.1z"/>
	</g>
</g>
<g>
	<g>
		<circle cx="53.6" cy="184.3" r="0.3"/>
		<path d="M68,184.3c0,0.2-0.1,0.3-0.3,0.3c-0.2,0-0.3-0.1-0.3-0.3s0.1-0.3,0.3-0.3C67.9,184,68,184.1,68,184.3z"/>
	</g>
	<g>
		<circle cx="81.9" cy="184.3" r="0.3"/>
		<circle cx="96.1" cy="184.3" r="0.3"/>
	</g>
	<g>
		<circle cx="110.3" cy="184.3" r="0.3"/>
		<circle cx="124.4" cy="184.3" r="0.3"/>
	</g>
	<g>
		<circle cx="138.6" cy="184.3" r="0.3"/>
		<circle cx="152.8" cy="184.3" r="0.3"/>
	</g>
	<g>
		<circle cx="167" cy="184.3" r="0.3"/>
		<circle cx="181.1" cy="184.3" r="0.3"/>
	</g>
	<g>
		<circle cx="195.3" cy="184.3" r="0.3"/>
		<circle cx="209.5" cy="184.3" r="0.3"/>
	</g>
	<g>
		<circle cx="223.7" cy="184.3" r="0.3"/>
		<circle cx="237.8" cy="184.3" r="0.3"/>
	</g>
	<g>
		<circle cx="252" cy="184.3" r="0.3"/>
		<path d="M266.5,184.3c0,0.2-0.1,0.3-0.3,0.3s-0.3-0.1-0.3-0.3s0.1-0.3,0.3-0.3S266.5,184.1,266.5,184.3z"/>
	</g>
	<g>
		<path d="M280.6,184.3c0,0.2-0.1,0.3-0.3,0.3s-0.3-0.1-0.3-0.3s0.1-0.3,0.3-0.3S280.6,184.1,280.6,184.3z"/>
		<path d="M294.8,184.3c0,0.2-0.1,0.3-0.3,0.3s-0.3-0.1-0.3-0.3s0.1-0.3,0.3-0.3S294.8,184.1,294.8,184.3z"/>
	</g>
	<g>
		<path d="M309,184.3c0,0.2-0.1,0.3-0.3,0.3s-0.3-0.1-0.3-0.3s0.1-0.3,0.3-0.3S309,184.1,309,184.3z"/>
		<path d="M323.1,184.3c0,0.2-0.1,0.3-0.3,0.3s-0.3-0.1-0.3-0.3s0.1-0.3,0.3-0.3S323.1,184.1,323.1,184.3z"/>
	</g>
	<g>
		<path d="M337.3,184.3c0,0.2-0.1,0.3-0.3,0.3s-0.3-0.1-0.3-0.3s0.1-0.3,0.3-0.3S337.3,184.1,337.3,184.3z"/>
		<path d="M351.5,184.3c0,0.2-0.1,0.3-0.3,0.3s-0.3-0.1-0.3-0.3s0.1-0.3,0.3-0.3S351.5,184.1,351.5,184.3z"/>
	</g>
	<g>
		<path d="M365.7,184.3c0,0.2-0.1,0.3-0.3,0.3s-0.3-0.1-0.3-0.3s0.1-0.3,0.3-0.3S365.7,184.1,365.7,184.3z"/>
		<path d="M379.8,184.3c0,0.2-0.1,0.3-0.3,0.3s-0.3-0.1-0.3-0.3s0.1-0.3,0.3-0.3S379.8,184.1,379.8,184.3z"/>
	</g>
</g>
<g>
	<g>
		<circle cx="53.6" cy="198.4" r="0.3"/>
		<path d="M68,198.4c0,0.2-0.1,0.3-0.3,0.3c-0.2,0-0.3-0.1-0.3-0.3s0.1-0.3,0.3-0.3C67.9,198.1,68,198.3,68,198.4z"/>
	</g>
	<g>
		<circle cx="81.9" cy="198.4" r="0.3"/>
		<circle cx="96.1" cy="198.4" r="0.3"/>
	</g>
	<g>
		<circle cx="110.3" cy="198.4" r="0.3"/>
		<circle cx="124.4" cy="198.4" r="0.3"/>
	</g>
	<g>
		<circle cx="138.6" cy="198.4" r="0.3"/>
		<circle cx="152.8" cy="198.4" r="0.3"/>
	</g>
	<g>
		<circle cx="167" cy="198.4" r="0.3"/>
		<circle cx="181.1" cy="198.4" r="0.3"/>
	</g>
	<g>
		<circle cx="195.3" cy="198.4" r="0.3"/>
		<circle cx="209.5" cy="198.4" r="0.3"/>
	</g>
	<g>
		<circle cx="223.7" cy="198.4" r="0.3"/>
		<circle cx="237.8" cy="198.4" r="0.3"/>
	</g>
	<g>
		<circle cx="252" cy="198.4" r="0.3"/>
		<path d="M266.5,198.4c0,0.2-0.1,0.3-0.3,0.3s-0.3-0.1-0.3-0.3s0.1-0.3,0.3-0.3S266.5,198.3,266.5,198.4z"/>
	</g>
	<g>
		<path d="M280.6,198.4c0,0.2-0.1,0.3-0.3,0.3s-0.3-0.1-0.3-0.3s0.1-0.3,0.3-0.3S280.6,198.3,280.6,198.4z"/>
		<path d="M294.8,198.4c0,0.2-0.1,0.3-0.3,0.3s-0.3-0.1-0.3-0.3s0.1-0.3,0.3-0.3S294.8,198.3,294.8,198.4z"/>
	</g>
	<g>
		<path d="M309,198.4c0,0.2-0.1,0.3-0.3,0.3s-0.3-0.1-0.3-0.3s0.1-0.3,0.3-0.3S309,198.3,309,198.4z"/>
		<path d="M323.1,198.4c0,0.2-0.1,0.3-0.3,0.3s-0.3-0.1-0.3-0.3s0.1-0.3,0.3-0.3S323.1,198.3,323.1,198.4z"/>
	</g>
	<g>
		<path d="M337.3,198.4c0,0.2-0.1,0.3-0.3,0.3s-0.3-0.1-0.3-0.3s0.1-0.3,0.3-0.3S337.3,198.3,337.3,198.4z"/>
		<path d="M351.5,198.4c0,0.2-0.1,0.3-0.3,0.3s-0.3-0.1-0.3-0.3s0.1-0.3,0.3-0.3S351.5,198.3,351.5,198.4z"/>
	</g>
	<g>
		<path d="M365.7,198.4c0,0.2-0.1,0.3-0.3,0.3s-0.3-0.1-0.3-0.3s0.1-0.3,0.3-0.3S365.7,198.3,365.7,198.4z"/>
		<path d="M379.8,198.4c0,0.2-0.1,0.3-0.3,0.3s-0.3-0.1-0.3-0.3s0.1-0.3,0.3-0.3S379.8,198.3,379.8,198.4z"/>
	</g>
</g>
<g>
	<g>
		<circle cx="53.6" cy="212.6" r="0.3"/>
		<path d="M68,212.6c0,0.2-0.1,0.3-0.3,0.3c-0.2,0-0.3-0.1-0.3-0.3s0.1-0.3,0.3-0.3C67.9,212.3,68,212.4,68,212.6z"/>
	</g>
	<g>
		<circle cx="81.9" cy="212.6" r="0.3"/>
		<circle cx="96.1" cy="212.6" r="0.3"/>
	</g>
	<g>
		<circle cx="110.3" cy="212.6" r="0.3"/>
		<circle cx="124.4" cy="212.6" r="0.3"/>
	</g>
	<g>
		<circle cx="138.6" cy="212.6" r="0.3"/>
		<circle cx="152.8" cy="212.6" r="0.3"/>
	</g>
	<g>
		<circle cx="167" cy="212.6" r="0.3"/>
		<circle cx="181.1" cy="212.6" r="0.3"/>
	</g>
	<g>
		<circle cx="195.3" cy="212.6" r="0.3"/>
		<circle cx="209.5" cy="212.6" r="0.3"/>
	</g>
	<g>
		<circle cx="223.7" cy="212.6" r="0.3"/>
		<circle cx="237.8" cy="212.6" r="0.3"/>
	</g>
	<g>
		<circle cx="252" cy="212.6" r="0.3"/>
		<path d="M266.5,212.6c0,0.2-0.1,0.3-0.3,0.3s-0.3-0.1-0.3-0.3s0.1-0.3,0.3-0.3S266.5,212.4,266.5,212.6z"/>
	</g>
	<g>
		<path d="M280.6,212.6c0,0.2-0.1,0.3-0.3,0.3s-0.3-0.1-0.3-0.3s0.1-0.3,0.3-0.3S280.6,212.4,280.6,212.6z"/>
		<path d="M294.8,212.6c0,0.2-0.1,0.3-0.3,0.3s-0.3-0.1-0.3-0.3s0.1-0.3,0.3-0.3S294.8,212.4,294.8,212.6z"/>
	</g>
	<g>
		<path d="M309,212.6c0,0.2-0.1,0.3-0.3,0.3s-0.3-0.1-0.3-0.3s0.1-0.3,0.3-0.3S309,212.4,309,212.6z"/>
		<path d="M323.1,212.6c0,0.2-0.1,0.3-0.3,0.3s-0.3-0.1-0.3-0.3s0.1-0.3,0.3-0.3S323.1,212.4,323.1,212.6z"/>
	</g>
	<g>
		<path d="M337.3,212.6c0,0.2-0.1,0.3-0.3,0.3s-0.3-0.1-0.3-0.3s0.1-0.3,0.3-0.3S337.3,212.4,337.3,212.6z"/>
		<path d="M351.5,212.6c0,0.2-0.1,0.3-0.3,0.3s-0.3-0.1-0.3-0.3s0.1-0.3,0.3-0.3S351.5,212.4,351.5,212.6z"/>
	</g>
	<g>
		<path d="M365.7,212.6c0,0.2-0.1,0.3-0.3,0.3s-0.3-0.1-0.3-0.3s0.1-0.3,0.3-0.3S365.7,212.4,365.7,212.6z"/>
		<path d="M379.8,212.6c0,0.2-0.1,0.3-0.3,0.3s-0.3-0.1-0.3-0.3s0.1-0.3,0.3-0.3S379.8,212.4,379.8,212.6z"/>
	</g>
</g>
<g>
	<g>
		<circle cx="53.6" cy="226.8" r="0.3"/>
		<circle cx="67.7" cy="226.8" r="0.3"/>
	</g>
	<g>
		<circle cx="81.9" cy="226.8" r="0.3"/>
		<circle cx="96.1" cy="226.8" r="0.3"/>
	</g>
	<g>
		<path d="M110.6,226.8c0,0.2-0.1,0.3-0.3,0.3c-0.2,0-0.3-0.1-0.3-0.3s0.1-0.3,0.3-0.3C110.4,226.5,110.6,226.6,110.6,226.8z"/>
		<path d="M124.7,226.8c0,0.2-0.1,0.3-0.3,0.3c-0.2,0-0.3-0.1-0.3-0.3s0.1-0.3,0.3-0.3C124.6,226.5,124.7,226.6,124.7,226.8z"/>
	</g>
	<g>
		<circle cx="138.6" cy="226.8" r="0.3"/>
		<circle cx="152.8" cy="226.8" r="0.3"/>
	</g>
	<g>
		<path d="M167.2,226.8c0,0.2-0.1,0.3-0.3,0.3c-0.2,0-0.3-0.1-0.3-0.3s0.1-0.3,0.3-0.3C167.1,226.5,167.2,226.6,167.2,226.8z"/>
		<path d="M181.4,226.8c0,0.2-0.1,0.3-0.3,0.3c-0.2,0-0.3-0.1-0.3-0.3s0.1-0.3,0.3-0.3C181.3,226.5,181.4,226.6,181.4,226.8z"/>
	</g>
	<g>
		<circle cx="195.3" cy="226.8" r="0.3"/>
		<circle cx="209.5" cy="226.8" r="0.3"/>
	</g>
	<g>
		<circle cx="223.7" cy="226.8" r="0.3"/>
		<circle cx="237.8" cy="226.8" r="0.3"/>
	</g>
	<g>
		<circle cx="252" cy="226.8" r="0.3"/>
		<path d="M266.5,226.8c0,0.2-0.1,0.3-0.3,0.3s-0.3-0.1-0.3-0.3s0.1-0.3,0.3-0.3S266.5,226.6,266.5,226.8z"/>
	</g>
	<g>
		<path d="M280.6,226.8c0,0.2-0.1,0.3-0.3,0.3c-0.2,0-0.3-0.1-0.3-0.3s0.1-0.3,0.3-0.3C280.5,226.5,280.6,226.6,280.6,226.8z"/>
		<path d="M294.8,226.8c0,0.2-0.1,0.3-0.3,0.3c-0.2,0-0.3-0.1-0.3-0.3s0.1-0.3,0.3-0.3C294.7,226.5,294.8,226.6,294.8,226.8z"/>
	</g>
	<g>
		<path d="M309,226.8c0,0.2-0.1,0.3-0.3,0.3s-0.3-0.1-0.3-0.3s0.1-0.3,0.3-0.3S309,226.6,309,226.8z"/>
		<path d="M323.1,226.8c0,0.2-0.1,0.3-0.3,0.3s-0.3-0.1-0.3-0.3s0.1-0.3,0.3-0.3S323.1,226.6,323.1,226.8z"/>
	</g>
	<g>
		<path d="M337.3,226.8c0,0.2-0.1,0.3-0.3,0.3s-0.3-0.1-0.3-0.3s0.1-0.3,0.3-0.3S337.3,226.6,337.3,226.8z"/>
		<path d="M351.5,226.8c0,0.2-0.1,0.3-0.3,0.3s-0.3-0.1-0.3-0.3s0.1-0.3,0.3-0.3S351.5,226.6,351.5,226.8z"/>
	</g>
	<g>
		<path d="M365.7,226.8c0,0.2-0.1,0.3-0.3,0.3s-0.3-0.1-0.3-0.3s0.1-0.3,0.3-0.3S365.7,226.6,365.7,226.8z"/>
		<path d="M379.8,226.8c0,0.2-0.1,0.3-0.3,0.3s-0.3-0.1-0.3-0.3s0.1-0.3,0.3-0.3S379.8,226.6,379.8,226.8z"/>
	</g>
</g>
<g>
	<g>
		<circle cx="53.6" cy="240.9" r="0.3"/>
		<path d="M68,240.9c0,0.2-0.1,0.3-0.3,0.3c-0.2,0-0.3-0.1-0.3-0.3s0.1-0.3,0.3-0.3C67.9,240.7,68,240.8,68,240.9z"/>
	</g>
	<g>
		<circle cx="81.9" cy="240.9" r="0.3"/>
		<circle cx="96.1" cy="240.9" r="0.3"/>
	</g>
	<g>
		<circle cx="110.3" cy="240.9" r="0.3"/>
		<circle cx="124.4" cy="240.9" r="0.3"/>
	</g>
	<g>
		<circle cx="138.6" cy="240.9" r="0.3"/>
		<circle cx="152.8" cy="240.9" r="0.3"/>
	</g>
	<g>
		<circle cx="167" cy="240.9" r="0.3"/>
		<circle cx="181.1" cy="240.9" r="0.3"/>
	</g>
	<g>
		<circle cx="195.3" cy="240.9" r="0.3"/>
		<circle cx="209.5" cy="240.9" r="0.3"/>
	</g>
	<g>
		<circle cx="223.7" cy="240.9" r="0.3"/>
		<circle cx="237.8" cy="240.9" r="0.3"/>
	</g>
	<g>
		<circle cx="252" cy="240.9" r="0.3"/>
		<path d="M266.5,240.9c0,0.2-0.1,0.3-0.3,0.3s-0.3-0.1-0.3-0.3s0.1-0.3,0.3-0.3S266.5,240.8,266.5,240.9z"/>
	</g>
	<g>
		<path d="M280.6,240.9c0,0.2-0.1,0.3-0.3,0.3s-0.3-0.1-0.3-0.3s0.1-0.3,0.3-0.3S280.6,240.8,280.6,240.9z"/>
		<path d="M294.8,240.9c0,0.2-0.1,0.3-0.3,0.3s-0.3-0.1-0.3-0.3s0.1-0.3,0.3-0.3S294.8,240.8,294.8,240.9z"/>
	</g>
	<g>
		<path d="M309,240.9c0,0.2-0.1,0.3-0.3,0.3s-0.3-0.1-0.3-0.3s0.1-0.3,0.3-0.3S309,240.8,309,240.9z"/>
		<path d="M323.1,240.9c0,0.2-0.1,0.3-0.3,0.3s-0.3-0.1-0.3-0.3s0.1-0.3,0.3-0.3S323.1,240.8,323.1,240.9z"/>
	</g>
	<g>
		<path d="M337.3,240.9c0,0.2-0.1,0.3-0.3,0.3s-0.3-0.1-0.3-0.3s0.1-0.3,0.3-0.3S337.3,240.8,337.3,240.9z"/>
		<path d="M351.5,240.9c0,0.2-0.1,0.3-0.3,0.3s-0.3-0.1-0.3-0.3s0.1-0.3,0.3-0.3S351.5,240.8,351.5,240.9z"/>
	</g>
	<g>
		<path d="M365.7,240.9c0,0.2-0.1,0.3-0.3,0.3s-0.3-0.1-0.3-0.3s0.1-0.3,0.3-0.3S365.7,240.8,365.7,240.9z"/>
		<path d="M379.8,240.9c0,0.2-0.1,0.3-0.3,0.3s-0.3-0.1-0.3-0.3s0.1-0.3,0.3-0.3S379.8,240.8,379.8,240.9z"/>
	</g>
</g>
<g>
	<g>
		<circle cx="53.6" cy="255.1" r="0.3"/>
		<path d="M68,255.1c0,0.2-0.1,0.3-0.3,0.3c-0.2,0-0.3-0.1-0.3-0.3s0.1-0.3,0.3-0.3C67.9,254.8,68,255,68,255.1z"/>
	</g>
	<g>
		<circle cx="81.9" cy="255.1" r="0.3"/>
		<circle cx="96.1" cy="255.1" r="0.3"/>
	</g>
	<g>
		<circle cx="110.3" cy="255.1" r="0.3"/>
		<circle cx="124.4" cy="255.1" r="0.3"/>
	</g>
	<g>
		<circle cx="138.6" cy="255.1" r="0.3"/>
		<circle cx="152.8" cy="255.1" r="0.3"/>
	</g>
	<g>
		<circle cx="167" cy="255.1" r="0.3"/>
		<circle cx="181.1" cy="255.1" r="0.3"/>
	</g>
	<g>
		<circle cx="195.3" cy="255.1" r="0.3"/>
		<circle cx="209.5" cy="255.1" r="0.3"/>
	</g>
	<g>
		<circle cx="223.7" cy="255.1" r="0.3"/>
		<circle cx="237.8" cy="255.1" r="0.3"/>
	</g>
	<g>
		<circle cx="252" cy="255.1" r="0.3"/>
		<path d="M266.5,255.1c0,0.2-0.1,0.3-0.3,0.3s-0.3-0.1-0.3-0.3s0.1-0.3,0.3-0.3S266.5,255,266.5,255.1z"/>
	</g>
	<g>
		<path d="M280.6,255.1c0,0.2-0.1,0.3-0.3,0.3s-0.3-0.1-0.3-0.3s0.1-0.3,0.3-0.3S280.6,255,280.6,255.1z"/>
		<path d="M294.8,255.1c0,0.2-0.1,0.3-0.3,0.3s-0.3-0.1-0.3-0.3s0.1-0.3,0.3-0.3S294.8,255,294.8,255.1z"/>
	</g>
	<g>
		<path d="M309,255.1c0,0.2-0.1,0.3-0.3,0.3s-0.3-0.1-0.3-0.3s0.1-0.3,0.3-0.3S309,255,309,255.1z"/>
		<path d="M323.1,255.1c0,0.2-0.1,0.3-0.3,0.3s-0.3-0.1-0.3-0.3s0.1-0.3,0.3-0.3S323.1,255,323.1,255.1z"/>
	</g>
	<g>
		<path d="M337.3,255.1c0,0.2-0.1,0.3-0.3,0.3s-0.3-0.1-0.3-0.3s0.1-0.3,0.3-0.3S337.3,255,337.3,255.1z"/>
		<path d="M351.5,255.1c0,0.2-0.1,0.3-0.3,0.3s-0.3-0.1-0.3-0.3s0.1-0.3,0.3-0.3S351.5,255,351.5,255.1z"/>
	</g>
	<g>
		<path d="M365.7,255.1c0,0.2-0.1,0.3-0.3,0.3s-0.3-0.1-0.3-0.3s0.1-0.3,0.3-0.3S365.7,255,365.7,255.1z"/>
		<path d="M379.8,255.1c0,0.2-0.1,0.3-0.3,0.3s-0.3-0.1-0.3-0.3s0.1-0.3,0.3-0.3S379.8,255,379.8,255.1z"/>
	</g>
</g>
<g>
	<g>
		<path d="M53.9,269.3c0,0.2-0.1,0.3-0.3,0.3s-0.3-0.1-0.3-0.3s0.1-0.3,0.3-0.3S53.9,269.1,53.9,269.3z"/>
		<path d="M68,269.3c0,0.2-0.1,0.3-0.3,0.3c-0.2,0-0.3-0.1-0.3-0.3s0.1-0.3,0.3-0.3C67.9,269,68,269.1,68,269.3z"/>
	</g>
	<g>
		<path d="M82.2,269.3c0,0.2-0.1,0.3-0.3,0.3c-0.2,0-0.3-0.1-0.3-0.3s0.1-0.3,0.3-0.3C82.1,269,82.2,269.1,82.2,269.3z"/>
		<path d="M96.4,269.3c0,0.2-0.1,0.3-0.3,0.3c-0.2,0-0.3-0.1-0.3-0.3s0.1-0.3,0.3-0.3C96.3,269,96.4,269.1,96.4,269.3z"/>
	</g>
	<g>
		<path d="M110.6,269.3c0,0.2-0.1,0.3-0.3,0.3s-0.3-0.1-0.3-0.3s0.1-0.3,0.3-0.3S110.6,269.1,110.6,269.3z"/>
		<path d="M124.7,269.3c0,0.2-0.1,0.3-0.3,0.3s-0.3-0.1-0.3-0.3s0.1-0.3,0.3-0.3S124.7,269.1,124.7,269.3z"/>
	</g>
	<g>
		<path d="M138.9,269.3c0,0.2-0.1,0.3-0.3,0.3c-0.2,0-0.3-0.1-0.3-0.3s0.1-0.3,0.3-0.3C138.8,269,138.9,269.1,138.9,269.3z"/>
		<path d="M153.1,269.3c0,0.2-0.1,0.3-0.3,0.3s-0.3-0.1-0.3-0.3s0.1-0.3,0.3-0.3S153.1,269.1,153.1,269.3z"/>
	</g>
	<g>
		<path d="M167.2,269.3c0,0.2-0.1,0.3-0.3,0.3s-0.3-0.1-0.3-0.3s0.1-0.3,0.3-0.3S167.2,269.1,167.2,269.3z"/>
		<path d="M181.4,269.3c0,0.2-0.1,0.3-0.3,0.3c-0.2,0-0.3-0.1-0.3-0.3s0.1-0.3,0.3-0.3C181.3,269,181.4,269.1,181.4,269.3z"/>
	</g>
	<g>
		<path d="M195.6,269.3c0,0.2-0.1,0.3-0.3,0.3s-0.3-0.1-0.3-0.3s0.1-0.3,0.3-0.3S195.6,269.1,195.6,269.3z"/>
		<path d="M209.8,269.3c0,0.2-0.1,0.3-0.3,0.3c-0.2,0-0.3-0.1-0.3-0.3s0.1-0.3,0.3-0.3C209.6,269,209.8,269.1,209.8,269.3z"/>
	</g>
	<g>
		<path d="M223.9,269.3c0,0.2-0.1,0.3-0.3,0.3c-0.2,0-0.3-0.1-0.3-0.3s0.1-0.3,0.3-0.3C223.8,269,223.9,269.1,223.9,269.3z"/>
		<path d="M238.1,269.3c0,0.2-0.1,0.3-0.3,0.3s-0.3-0.1-0.3-0.3s0.1-0.3,0.3-0.3S238.1,269.1,238.1,269.3z"/>
	</g>
	<g>
		<path d="M252.3,269.3c0,0.2-0.1,0.3-0.3,0.3c-0.2,0-0.3-0.1-0.3-0.3s0.1-0.3,0.3-0.3C252.2,269,252.3,269.1,252.3,269.3z"/>
		<path d="M266.5,269.3c0,0.2-0.1,0.3-0.3,0.3s-0.3-0.1-0.3-0.3s0.1-0.3,0.3-0.3S266.5,269.1,266.5,269.3z"/>
	</g>
	<g>
		<path d="M280.6,269.3c0,0.2-0.1,0.3-0.3,0.3s-0.3-0.1-0.3-0.3s0.1-0.3,0.3-0.3S280.6,269.1,280.6,269.3z"/>
		<path d="M294.8,269.3c0,0.2-0.1,0.3-0.3,0.3s-0.3-0.1-0.3-0.3s0.1-0.3,0.3-0.3S294.8,269.1,294.8,269.3z"/>
	</g>
	<g>
		<path d="M309,269.3c0,0.2-0.1,0.3-0.3,0.3s-0.3-0.1-0.3-0.3s0.1-0.3,0.3-0.3S309,269.1,309,269.3z"/>
		<path d="M323.1,269.3c0,0.2-0.1,0.3-0.3,0.3s-0.3-0.1-0.3-0.3s0.1-0.3,0.3-0.3S323.1,269.1,323.1,269.3z"/>
	</g>
	<g>
		<path d="M337.3,269.3c0,0.2-0.1,0.3-0.3,0.3s-0.3-0.1-0.3-0.3s0.1-0.3,0.3-0.3S337.3,269.1,337.3,269.3z"/>
		<path d="M351.5,269.3c0,0.2-0.1,0.3-0.3,0.3s-0.3-0.1-0.3-0.3s0.1-0.3,0.3-0.3S351.5,269.1,351.5,269.3z"/>
	</g>
	<g>
		<path d="M365.7,269.3c0,0.2-0.1,0.3-0.3,0.3s-0.3-0.1-0.3-0.3s0.1-0.3,0.3-0.3S365.7,269.1,365.7,269.3z"/>
		<path d="M379.8,269.3c0,0.2-0.1,0.3-0.3,0.3c-0.2,0-0.3-0.1-0.3-0.3s0.1-0.3,0.3-0.3C379.7,269,379.8,269.1,379.8,269.3z"/>
	</g>
</g>
<g>
	<g>
		<path d="M53.9,283.5c0,0.2-0.1,0.3-0.3,0.3s-0.3-0.1-0.3-0.3s0.1-0.3,0.3-0.3S53.9,283.3,53.9,283.5z"/>
		<path d="M68,283.5c0,0.2-0.1,0.3-0.3,0.3c-0.2,0-0.3-0.1-0.3-0.3s0.1-0.3,0.3-0.3C67.9,283.2,68,283.3,68,283.5z"/>
	</g>
	<g>
		<path d="M82.2,283.5c0,0.2-0.1,0.3-0.3,0.3c-0.2,0-0.3-0.1-0.3-0.3s0.1-0.3,0.3-0.3C82.1,283.2,82.2,283.3,82.2,283.5z"/>
		<path d="M96.4,283.5c0,0.2-0.1,0.3-0.3,0.3c-0.2,0-0.3-0.1-0.3-0.3s0.1-0.3,0.3-0.3C96.3,283.2,96.4,283.3,96.4,283.5z"/>
	</g>
	<g>
		<path d="M110.6,283.5c0,0.2-0.1,0.3-0.3,0.3c-0.2,0-0.3-0.1-0.3-0.3s0.1-0.3,0.3-0.3C110.4,283.2,110.6,283.3,110.6,283.5z"/>
		<path d="M124.7,283.5c0,0.2-0.1,0.3-0.3,0.3c-0.2,0-0.3-0.1-0.3-0.3s0.1-0.3,0.3-0.3C124.6,283.2,124.7,283.3,124.7,283.5z"/>
	</g>
	<g>
		<path d="M138.9,283.5c0,0.2-0.1,0.3-0.3,0.3s-0.3-0.1-0.3-0.3s0.1-0.3,0.3-0.3S138.9,283.3,138.9,283.5z"/>
		<path d="M153.1,283.5c0,0.2-0.1,0.3-0.3,0.3c-0.2,0-0.3-0.1-0.3-0.3s0.1-0.3,0.3-0.3C152.9,283.2,153.1,283.3,153.1,283.5z"/>
	</g>
	<g>
		<path d="M167.2,283.5c0,0.2-0.1,0.3-0.3,0.3c-0.2,0-0.3-0.1-0.3-0.3s0.1-0.3,0.3-0.3C167.1,283.2,167.2,283.3,167.2,283.5z"/>
		<path d="M181.4,283.5c0,0.2-0.1,0.3-0.3,0.3s-0.3-0.1-0.3-0.3s0.1-0.3,0.3-0.3S181.4,283.3,181.4,283.5z"/>
	</g>
	<g>
		<path d="M195.6,283.5c0,0.2-0.1,0.3-0.3,0.3c-0.2,0-0.3-0.1-0.3-0.3s0.1-0.3,0.3-0.3C195.5,283.2,195.6,283.3,195.6,283.5z"/>
		<path d="M209.8,283.5c0,0.2-0.1,0.3-0.3,0.3s-0.3-0.1-0.3-0.3s0.1-0.3,0.3-0.3S209.8,283.3,209.8,283.5z"/>
	</g>
	<g>
		<path d="M223.9,283.5c0,0.2-0.1,0.3-0.3,0.3s-0.3-0.1-0.3-0.3s0.1-0.3,0.3-0.3S223.9,283.3,223.9,283.5z"/>
		<path d="M238.1,283.5c0,0.2-0.1,0.3-0.3,0.3s-0.3-0.1-0.3-0.3s0.1-0.3,0.3-0.3S238.1,283.3,238.1,283.5z"/>
	</g>
	<g>
		<path d="M252.3,283.5c0,0.2-0.1,0.3-0.3,0.3s-0.3-0.1-0.3-0.3s0.1-0.3,0.3-0.3S252.3,283.3,252.3,283.5z"/>
		<path d="M266.5,283.5c0,0.2-0.1,0.3-0.3,0.3s-0.3-0.1-0.3-0.3s0.1-0.3,0.3-0.3S266.5,283.3,266.5,283.5z"/>
	</g>
	<g>
		<path d="M280.6,283.5c0,0.2-0.1,0.3-0.3,0.3s-0.3-0.1-0.3-0.3s0.1-0.3,0.3-0.3S280.6,283.3,280.6,283.5z"/>
		<path d="M294.8,283.5c0,0.2-0.1,0.3-0.3,0.3s-0.3-0.1-0.3-0.3s0.1-0.3,0.3-0.3S294.8,283.3,294.8,283.5z"/>
	</g>
	<g>
		<path d="M309,283.5c0,0.2-0.1,0.3-0.3,0.3s-0.3-0.1-0.3-0.3s0.1-0.3,0.3-0.3S309,283.3,309,283.5z"/>
		<path d="M323.2,283.5c0,0.2-0.1,0.3-0.3,0.3c-0.2,0-0.3-0.1-0.3-0.3s0.1-0.3,0.3-0.3C323,283.2,323.2,283.3,323.2,283.5z"/>
	</g>
	<g>
		<path d="M337.3,283.5c0,0.2-0.1,0.3-0.3,0.3s-0.3-0.1-0.3-0.3s0.1-0.3,0.3-0.3S337.3,283.3,337.3,283.5z"/>
		<path d="M351.5,283.5c0,0.2-0.1,0.3-0.3,0.3c-0.2,0-0.3-0.1-0.3-0.3s0.1-0.3,0.3-0.3C351.4,283.2,351.5,283.3,351.5,283.5z"/>
	</g>
	<g>
		<path d="M365.7,283.5c0,0.2-0.1,0.3-0.3,0.3c-0.2,0-0.3-0.1-0.3-0.3s0.1-0.3,0.3-0.3C365.5,283.2,365.7,283.3,365.7,283.5z"/>
		<path d="M379.8,283.5c0,0.2-0.1,0.3-0.3,0.3s-0.3-0.1-0.3-0.3s0.1-0.3,0.3-0.3S379.8,283.3,379.8,283.5z"/>
	</g>
</g>
<g>
	<g>
		<path d="M53.9,297.6c0,0.2-0.1,0.3-0.3,0.3s-0.3-0.1-0.3-0.3s0.1-0.3,0.3-0.3S53.9,297.5,53.9,297.6z"/>
		<path d="M68,297.6c0,0.2-0.1,0.3-0.3,0.3c-0.2,0-0.3-0.1-0.3-0.3s0.1-0.3,0.3-0.3C67.9,297.4,68,297.5,68,297.6z"/>
	</g>
	<g>
		<path d="M82.2,297.6c0,0.2-0.1,0.3-0.3,0.3c-0.2,0-0.3-0.1-0.3-0.3s0.1-0.3,0.3-0.3C82.1,297.4,82.2,297.5,82.2,297.6z"/>
		<path d="M96.4,297.6c0,0.2-0.1,0.3-0.3,0.3c-0.2,0-0.3-0.1-0.3-0.3s0.1-0.3,0.3-0.3C96.3,297.4,96.4,297.5,96.4,297.6z"/>
	</g>
	<g>
		<path d="M110.6,297.6c0,0.2-0.1,0.3-0.3,0.3s-0.3-0.1-0.3-0.3s0.1-0.3,0.3-0.3S110.6,297.5,110.6,297.6z"/>
		<path d="M124.7,297.6c0,0.2-0.1,0.3-0.3,0.3s-0.3-0.1-0.3-0.3s0.1-0.3,0.3-0.3S124.7,297.5,124.7,297.6z"/>
	</g>
	<g>
		<path d="M138.9,297.6c0,0.2-0.1,0.3-0.3,0.3c-0.2,0-0.3-0.1-0.3-0.3s0.1-0.3,0.3-0.3C138.8,297.4,138.9,297.5,138.9,297.6z"/>
		<path d="M153.1,297.6c0,0.2-0.1,0.3-0.3,0.3s-0.3-0.1-0.3-0.3s0.1-0.3,0.3-0.3S153.1,297.5,153.1,297.6z"/>
	</g>
	<g>
		<path d="M167.2,297.6c0,0.2-0.1,0.3-0.3,0.3s-0.3-0.1-0.3-0.3s0.1-0.3,0.3-0.3S167.2,297.5,167.2,297.6z"/>
		<path d="M181.4,297.6c0,0.2-0.1,0.3-0.3,0.3c-0.2,0-0.3-0.1-0.3-0.3s0.1-0.3,0.3-0.3C181.3,297.4,181.4,297.5,181.4,297.6z"/>
	</g>
	<g>
		<path d="M195.6,297.6c0,0.2-0.1,0.3-0.3,0.3s-0.3-0.1-0.3-0.3s0.1-0.3,0.3-0.3S195.6,297.5,195.6,297.6z"/>
		<path d="M209.8,297.6c0,0.2-0.1,0.3-0.3,0.3c-0.2,0-0.3-0.1-0.3-0.3s0.1-0.3,0.3-0.3C209.6,297.4,209.8,297.5,209.8,297.6z"/>
	</g>
	<g>
		<path d="M223.9,297.6c0,0.2-0.1,0.3-0.3,0.3c-0.2,0-0.3-0.1-0.3-0.3s0.1-0.3,0.3-0.3C223.8,297.4,223.9,297.5,223.9,297.6z"/>
		<path d="M238.1,297.6c0,0.2-0.1,0.3-0.3,0.3s-0.3-0.1-0.3-0.3s0.1-0.3,0.3-0.3S238.1,297.5,238.1,297.6z"/>
	</g>
	<g>
		<path d="M252.3,297.6c0,0.2-0.1,0.3-0.3,0.3c-0.2,0-0.3-0.1-0.3-0.3s0.1-0.3,0.3-0.3C252.2,297.4,252.3,297.5,252.3,297.6z"/>
		<path d="M266.5,297.6c0,0.2-0.1,0.3-0.3,0.3s-0.3-0.1-0.3-0.3s0.1-0.3,0.3-0.3S266.5,297.5,266.5,297.6z"/>
	</g>
	<g>
		<path d="M280.6,297.6c0,0.2-0.1,0.3-0.3,0.3s-0.3-0.1-0.3-0.3s0.1-0.3,0.3-0.3S280.6,297.5,280.6,297.6z"/>
		<path d="M294.8,297.6c0,0.2-0.1,0.3-0.3,0.3s-0.3-0.1-0.3-0.3s0.1-0.3,0.3-0.3S294.8,297.5,294.8,297.6z"/>
	</g>
	<g>
		<path d="M309,297.6c0,0.2-0.1,0.3-0.3,0.3s-0.3-0.1-0.3-0.3s0.1-0.3,0.3-0.3S309,297.5,309,297.6z"/>
		<path d="M323.1,297.6c0,0.2-0.1,0.3-0.3,0.3s-0.3-0.1-0.3-0.3s0.1-0.3,0.3-0.3S323.1,297.5,323.1,297.6z"/>
	</g>
	<g>
		<path d="M337.3,297.6c0,0.2-0.1,0.3-0.3,0.3s-0.3-0.1-0.3-0.3s0.1-0.3,0.3-0.3S337.3,297.5,337.3,297.6z"/>
		<path d="M351.5,297.6c0,0.2-0.1,0.3-0.3,0.3s-0.3-0.1-0.3-0.3s0.1-0.3,0.3-0.3S351.5,297.5,351.5,297.6z"/>
	</g>
	<g>
		<path d="M365.7,297.6c0,0.2-0.1,0.3-0.3,0.3s-0.3-0.1-0.3-0.3s0.1-0.3,0.3-0.3S365.7,297.5,365.7,297.6z"/>
		<path d="M379.8,297.6c0,0.2-0.1,0.3-0.3,0.3c-0.2,0-0.3-0.1-0.3-0.3s0.1-0.3,0.3-0.3C379.7,297.4,379.8,297.5,379.8,297.6z"/>
	</g>
</g>
<g>
	<g>
		<path d="M53.9,311.8c0,0.2-0.1,0.3-0.3,0.3s-0.3-0.1-0.3-0.3s0.1-0.3,0.3-0.3S53.9,311.7,53.9,311.8z"/>
		<path d="M68,311.8c0,0.2-0.1,0.3-0.3,0.3c-0.2,0-0.3-0.1-0.3-0.3s0.1-0.3,0.3-0.3C67.9,311.5,68,311.7,68,311.8z"/>
	</g>
	<g>
		<path d="M82.2,311.8c0,0.2-0.1,0.3-0.3,0.3c-0.2,0-0.3-0.1-0.3-0.3s0.1-0.3,0.3-0.3C82.1,311.5,82.2,311.7,82.2,311.8z"/>
		<path d="M96.4,311.8c0,0.2-0.1,0.3-0.3,0.3c-0.2,0-0.3-0.1-0.3-0.3s0.1-0.3,0.3-0.3C96.3,311.5,96.4,311.7,96.4,311.8z"/>
	</g>
	<g>
		<path d="M110.6,311.8c0,0.2-0.1,0.3-0.3,0.3s-0.3-0.1-0.3-0.3s0.1-0.3,0.3-0.3S110.6,311.7,110.6,311.8z"/>
		<path d="M124.7,311.8c0,0.2-0.1,0.3-0.3,0.3s-0.3-0.1-0.3-0.3s0.1-0.3,0.3-0.3S124.7,311.7,124.7,311.8z"/>
	</g>
	<g>
		<path d="M138.9,311.8c0,0.2-0.1,0.3-0.3,0.3c-0.2,0-0.3-0.1-0.3-0.3s0.1-0.3,0.3-0.3C138.8,311.5,138.9,311.7,138.9,311.8z"/>
		<path d="M153.1,311.8c0,0.2-0.1,0.3-0.3,0.3s-0.3-0.1-0.3-0.3s0.1-0.3,0.3-0.3S153.1,311.7,153.1,311.8z"/>
	</g>
	<g>
		<path d="M167.2,311.8c0,0.2-0.1,0.3-0.3,0.3s-0.3-0.1-0.3-0.3s0.1-0.3,0.3-0.3S167.2,311.7,167.2,311.8z"/>
		<path d="M181.4,311.8c0,0.2-0.1,0.3-0.3,0.3c-0.2,0-0.3-0.1-0.3-0.3s0.1-0.3,0.3-0.3C181.3,311.5,181.4,311.7,181.4,311.8z"/>
	</g>
	<g>
		<path d="M195.6,311.8c0,0.2-0.1,0.3-0.3,0.3s-0.3-0.1-0.3-0.3s0.1-0.3,0.3-0.3S195.6,311.7,195.6,311.8z"/>
		<path d="M209.8,311.8c0,0.2-0.1,0.3-0.3,0.3c-0.2,0-0.3-0.1-0.3-0.3s0.1-0.3,0.3-0.3C209.6,311.5,209.8,311.7,209.8,311.8z"/>
	</g>
	<g>
		<path d="M223.9,311.8c0,0.2-0.1,0.3-0.3,0.3c-0.2,0-0.3-0.1-0.3-0.3s0.1-0.3,0.3-0.3C223.8,311.5,223.9,311.7,223.9,311.8z"/>
		<path d="M238.1,311.8c0,0.2-0.1,0.3-0.3,0.3s-0.3-0.1-0.3-0.3s0.1-0.3,0.3-0.3S238.1,311.7,238.1,311.8z"/>
	</g>
	<g>
		<path d="M252.3,311.8c0,0.2-0.1,0.3-0.3,0.3c-0.2,0-0.3-0.1-0.3-0.3s0.1-0.3,0.3-0.3C252.2,311.5,252.3,311.7,252.3,311.8z"/>
		<path d="M266.5,311.8c0,0.2-0.1,0.3-0.3,0.3s-0.3-0.1-0.3-0.3s0.1-0.3,0.3-0.3S266.5,311.7,266.5,311.8z"/>
	</g>
	<g>
		<path d="M280.6,311.8c0,0.2-0.1,0.3-0.3,0.3s-0.3-0.1-0.3-0.3s0.1-0.3,0.3-0.3S280.6,311.7,280.6,311.8z"/>
		<path d="M294.8,311.8c0,0.2-0.1,0.3-0.3,0.3s-0.3-0.1-0.3-0.3s0.1-0.3,0.3-0.3S294.8,311.7,294.8,311.8z"/>
	</g>
	<g>
		<path d="M309,311.8c0,0.2-0.1,0.3-0.3,0.3s-0.3-0.1-0.3-0.3s0.1-0.3,0.3-0.3S309,311.7,309,311.8z"/>
		<path d="M323.1,311.8c0,0.2-0.1,0.3-0.3,0.3s-0.3-0.1-0.3-0.3s0.1-0.3,0.3-0.3S323.1,311.7,323.1,311.8z"/>
	</g>
	<g>
		<path d="M337.3,311.8c0,0.2-0.1,0.3-0.3,0.3s-0.3-0.1-0.3-0.3s0.1-0.3,0.3-0.3S337.3,311.7,337.3,311.8z"/>
		<path d="M351.5,311.8c0,0.2-0.1,0.3-0.3,0.3s-0.3-0.1-0.3-0.3s0.1-0.3,0.3-0.3S351.5,311.7,351.5,311.8z"/>
	</g>
	<g>
		<path d="M365.7,311.8c0,0.2-0.1,0.3-0.3,0.3s-0.3-0.1-0.3-0.3s0.1-0.3,0.3-0.3S365.7,311.7,365.7,311.8z"/>
		<path d="M379.8,311.8c0,0.2-0.1,0.3-0.3,0.3c-0.2,0-0.3-0.1-0.3-0.3s0.1-0.3,0.3-0.3C379.7,311.5,379.8,311.7,379.8,311.8z"/>
	</g>
</g>
<g>
	<g>
		<path d="M53.9,326c0,0.2-0.1,0.3-0.3,0.3s-0.3-0.1-0.3-0.3c0-0.2,0.1-0.3,0.3-0.3S53.9,325.8,53.9,326z"/>
		<path d="M68,326c0,0.2-0.1,0.3-0.3,0.3c-0.2,0-0.3-0.1-0.3-0.3c0-0.2,0.1-0.3,0.3-0.3C67.9,325.7,68,325.8,68,326z"/>
	</g>
	<g>
		<path d="M82.2,326c0,0.2-0.1,0.3-0.3,0.3c-0.2,0-0.3-0.1-0.3-0.3c0-0.2,0.1-0.3,0.3-0.3C82.1,325.7,82.2,325.8,82.2,326z"/>
		<path d="M96.4,326c0,0.2-0.1,0.3-0.3,0.3c-0.2,0-0.3-0.1-0.3-0.3c0-0.2,0.1-0.3,0.3-0.3C96.3,325.7,96.4,325.8,96.4,326z"/>
	</g>
	<g>
		<path d="M110.6,326c0,0.2-0.1,0.3-0.3,0.3c-0.2,0-0.3-0.1-0.3-0.3c0-0.2,0.1-0.3,0.3-0.3C110.4,325.7,110.6,325.8,110.6,326z"/>
		<path d="M124.7,326c0,0.2-0.1,0.3-0.3,0.3s-0.3-0.1-0.3-0.3c0-0.2,0.1-0.3,0.3-0.3S124.7,325.8,124.7,326z"/>
	</g>
	<g>
		<path d="M138.9,326c0,0.2-0.1,0.3-0.3,0.3c-0.2,0-0.3-0.1-0.3-0.3c0-0.2,0.1-0.3,0.3-0.3C138.8,325.7,138.9,325.8,138.9,326z"/>
		<path d="M153.1,326c0,0.2-0.1,0.3-0.3,0.3s-0.3-0.1-0.3-0.3c0-0.2,0.1-0.3,0.3-0.3S153.1,325.8,153.1,326z"/>
	</g>
	<g>
		<path d="M167.2,326c0,0.2-0.1,0.3-0.3,0.3s-0.3-0.1-0.3-0.3c0-0.2,0.1-0.3,0.3-0.3S167.2,325.8,167.2,326z"/>
		<path d="M181.4,326c0,0.2-0.1,0.3-0.3,0.3c-0.2,0-0.3-0.1-0.3-0.3c0-0.2,0.1-0.3,0.3-0.3C181.3,325.7,181.4,325.8,181.4,326z"/>
	</g>
	<g>
		<path d="M195.6,326c0,0.2-0.1,0.3-0.3,0.3s-0.3-0.1-0.3-0.3c0-0.2,0.1-0.3,0.3-0.3S195.6,325.8,195.6,326z"/>
		<path d="M209.8,326c0,0.2-0.1,0.3-0.3,0.3c-0.2,0-0.3-0.1-0.3-0.3c0-0.2,0.1-0.3,0.3-0.3C209.6,325.7,209.8,325.8,209.8,326z"/>
	</g>
	<g>
		<path d="M223.9,326c0,0.2-0.1,0.3-0.3,0.3c-0.2,0-0.3-0.1-0.3-0.3c0-0.2,0.1-0.3,0.3-0.3C223.8,325.7,223.9,325.8,223.9,326z"/>
		<path d="M238.1,326c0,0.2-0.1,0.3-0.3,0.3s-0.3-0.1-0.3-0.3c0-0.2,0.1-0.3,0.3-0.3S238.1,325.8,238.1,326z"/>
	</g>
	<g>
		<path d="M252.3,326c0,0.2-0.1,0.3-0.3,0.3c-0.2,0-0.3-0.1-0.3-0.3c0-0.2,0.1-0.3,0.3-0.3C252.2,325.7,252.3,325.8,252.3,326z"/>
		<path d="M266.5,326c0,0.2-0.1,0.3-0.3,0.3s-0.3-0.1-0.3-0.3c0-0.2,0.1-0.3,0.3-0.3S266.5,325.8,266.5,326z"/>
	</g>
	<g>
		<path d="M280.6,326c0,0.2-0.1,0.3-0.3,0.3s-0.3-0.1-0.3-0.3c0-0.2,0.1-0.3,0.3-0.3S280.6,325.8,280.6,326z"/>
		<path d="M294.8,326c0,0.2-0.1,0.3-0.3,0.3s-0.3-0.1-0.3-0.3c0-0.2,0.1-0.3,0.3-0.3S294.8,325.8,294.8,326z"/>
	</g>
	<g>
		<path d="M309,326c0,0.2-0.1,0.3-0.3,0.3s-0.3-0.1-0.3-0.3c0-0.2,0.1-0.3,0.3-0.3S309,325.8,309,326z"/>
		<path d="M323.1,326c0,0.2-0.1,0.3-0.3,0.3s-0.3-0.1-0.3-0.3c0-0.2,0.1-0.3,0.3-0.3S323.1,325.8,323.1,326z"/>
	</g>
	<g>
		<path d="M337.3,326c0,0.2-0.1,0.3-0.3,0.3s-0.3-0.1-0.3-0.3c0-0.2,0.1-0.3,0.3-0.3S337.3,325.8,337.3,326z"/>
		<path d="M351.5,326c0,0.2-0.1,0.3-0.3,0.3s-0.3-0.1-0.3-0.3c0-0.2,0.1-0.3,0.3-0.3S351.5,325.8,351.5,326z"/>
	</g>
	<g>
		<path d="M365.7,326c0,0.2-0.1,0.3-0.3,0.3s-0.3-0.1-0.3-0.3c0-0.2,0.1-0.3,0.3-0.3S365.7,325.8,365.7,326z"/>
		<path d="M379.8,326c0,0.2-0.1,0.3-0.3,0.3c-0.2,0-0.3-0.1-0.3-0.3c0-0.2,0.1-0.3,0.3-0.3C379.7,325.7,379.8,325.8,379.8,326z"/>
	</g>
</g>
<g>
	<g>
		<path d="M53.9,340.2c0,0.2-0.1,0.3-0.3,0.3s-0.3-0.1-0.3-0.3s0.1-0.3,0.3-0.3S53.9,340,53.9,340.2z"/>
		<path d="M68,340.2c0,0.2-0.1,0.3-0.3,0.3c-0.2,0-0.3-0.1-0.3-0.3s0.1-0.3,0.3-0.3C67.9,339.9,68,340,68,340.2z"/>
	</g>
	<g>
		<path d="M82.2,340.2c0,0.2-0.1,0.3-0.3,0.3c-0.2,0-0.3-0.1-0.3-0.3s0.1-0.3,0.3-0.3C82.1,339.9,82.2,340,82.2,340.2z"/>
		<path d="M96.4,340.2c0,0.2-0.1,0.3-0.3,0.3c-0.2,0-0.3-0.1-0.3-0.3s0.1-0.3,0.3-0.3C96.3,339.9,96.4,340,96.4,340.2z"/>
	</g>
	<g>
		<path d="M110.6,340.2c0,0.2-0.1,0.3-0.3,0.3s-0.3-0.1-0.3-0.3s0.1-0.3,0.3-0.3S110.6,340,110.6,340.2z"/>
		<path d="M124.7,340.2c0,0.2-0.1,0.3-0.3,0.3c-0.2,0-0.3-0.1-0.3-0.3s0.1-0.3,0.3-0.3C124.6,339.9,124.7,340,124.7,340.2z"/>
	</g>
	<g>
		<path d="M138.9,340.2c0,0.2-0.1,0.3-0.3,0.3s-0.3-0.1-0.3-0.3s0.1-0.3,0.3-0.3S138.9,340,138.9,340.2z"/>
		<path d="M153.1,340.2c0,0.2-0.1,0.3-0.3,0.3c-0.2,0-0.3-0.1-0.3-0.3s0.1-0.3,0.3-0.3C152.9,339.9,153.1,340,153.1,340.2z"/>
	</g>
	<g>
		<path d="M167.2,340.2c0,0.2-0.1,0.3-0.3,0.3c-0.2,0-0.3-0.1-0.3-0.3s0.1-0.3,0.3-0.3C167.1,339.9,167.2,340,167.2,340.2z"/>
		<path d="M181.4,340.2c0,0.2-0.1,0.3-0.3,0.3c-0.2,0-0.3-0.1-0.3-0.3s0.1-0.3,0.3-0.3C181.3,339.9,181.4,340,181.4,340.2z"/>
	</g>
	<g>
		<path d="M195.6,340.2c0,0.2-0.1,0.3-0.3,0.3c-0.2,0-0.3-0.1-0.3-0.3s0.1-0.3,0.3-0.3C195.5,339.9,195.6,340,195.6,340.2z"/>
		<path d="M209.8,340.2c0,0.2-0.1,0.3-0.3,0.3s-0.3-0.1-0.3-0.3s0.1-0.3,0.3-0.3S209.8,340,209.8,340.2z"/>
	</g>
	<g>
		<path d="M223.9,340.2c0,0.2-0.1,0.3-0.3,0.3s-0.3-0.1-0.3-0.3s0.1-0.3,0.3-0.3S223.9,340,223.9,340.2z"/>
		<path d="M238.1,340.2c0,0.2-0.1,0.3-0.3,0.3s-0.3-0.1-0.3-0.3s0.1-0.3,0.3-0.3S238.1,340,238.1,340.2z"/>
	</g>
	<g>
		<path d="M252.3,340.2c0,0.2-0.1,0.3-0.3,0.3s-0.3-0.1-0.3-0.3s0.1-0.3,0.3-0.3S252.3,340,252.3,340.2z"/>
		<path d="M266.5,340.2c0,0.2-0.1,0.3-0.3,0.3s-0.3-0.1-0.3-0.3s0.1-0.3,0.3-0.3S266.5,340,266.5,340.2z"/>
	</g>
	<g>
		<path d="M280.6,340.2c0,0.2-0.1,0.3-0.3,0.3s-0.3-0.1-0.3-0.3s0.1-0.3,0.3-0.3S280.6,340,280.6,340.2z"/>
		<path d="M294.8,340.2c0,0.2-0.1,0.3-0.3,0.3s-0.3-0.1-0.3-0.3s0.1-0.3,0.3-0.3S294.8,340,294.8,340.2z"/>
	</g>
	<g>
		<path d="M309,340.2c0,0.2-0.1,0.3-0.3,0.3s-0.3-0.1-0.3-0.3s0.1-0.3,0.3-0.3S309,340,309,340.2z"/>
		<path d="M323.1,340.2c0,0.2-0.1,0.3-0.3,0.3s-0.3-0.1-0.3-0.3s0.1-0.3,0.3-0.3S323.1,340,323.1,340.2z"/>
	</g>
	<g>
		<path d="M337.3,340.2c0,0.2-0.1,0.3-0.3,0.3s-0.3-0.1-0.3-0.3s0.1-0.3,0.3-0.3S337.3,340,337.3,340.2z"/>
		<path d="M351.5,340.2c0,0.2-0.1,0.3-0.3,0.3c-0.2,0-0.3-0.1-0.3-0.3s0.1-0.3,0.3-0.3C351.4,339.9,351.5,340,351.5,340.2z"/>
	</g>
	<g>
		<path d="M365.7,340.2c0,0.2-0.1,0.3-0.3,0.3c-0.2,0-0.3-0.1-0.3-0.3s0.1-0.3,0.3-0.3C365.5,339.9,365.7,340,365.7,340.2z"/>
		<path d="M379.8,340.2c0,0.2-0.1,0.3-0.3,0.3s-0.3-0.1-0.3-0.3s0.1-0.3,0.3-0.3S379.8,340,379.8,340.2z"/>
	</g>
</g>
<g>
	<g>
		<path d="M53.9,354.3c0,0.2-0.1,0.3-0.3,0.3s-0.3-0.1-0.3-0.3c0-0.2,0.1-0.3,0.3-0.3S53.9,354.2,53.9,354.3z"/>
		<path d="M68,354.3c0,0.2-0.1,0.3-0.3,0.3c-0.2,0-0.3-0.1-0.3-0.3c0-0.2,0.1-0.3,0.3-0.3C67.9,354,68,354.2,68,354.3z"/>
	</g>
	<g>
		<path d="M82.2,354.3c0,0.2-0.1,0.3-0.3,0.3c-0.2,0-0.3-0.1-0.3-0.3c0-0.2,0.1-0.3,0.3-0.3C82.1,354,82.2,354.2,82.2,354.3z"/>
		<path d="M96.4,354.3c0,0.2-0.1,0.3-0.3,0.3c-0.2,0-0.3-0.1-0.3-0.3c0-0.2,0.1-0.3,0.3-0.3C96.3,354,96.4,354.2,96.4,354.3z"/>
	</g>
	<g>
		<path d="M110.6,354.3c0,0.2-0.1,0.3-0.3,0.3s-0.3-0.1-0.3-0.3c0-0.2,0.1-0.3,0.3-0.3S110.6,354.2,110.6,354.3z"/>
		<path d="M124.7,354.3c0,0.2-0.1,0.3-0.3,0.3c-0.2,0-0.3-0.1-0.3-0.3c0-0.2,0.1-0.3,0.3-0.3C124.6,354,124.7,354.2,124.7,354.3z"/>
	</g>
	<g>
		<path d="M138.9,354.3c0,0.2-0.1,0.3-0.3,0.3s-0.3-0.1-0.3-0.3c0-0.2,0.1-0.3,0.3-0.3S138.9,354.2,138.9,354.3z"/>
		<path d="M153.1,354.3c0,0.2-0.1,0.3-0.3,0.3c-0.2,0-0.3-0.1-0.3-0.3c0-0.2,0.1-0.3,0.3-0.3C152.9,354,153.1,354.2,153.1,354.3z"/>
	</g>
	<g>
		<path d="M167.2,354.3c0,0.2-0.1,0.3-0.3,0.3c-0.2,0-0.3-0.1-0.3-0.3c0-0.2,0.1-0.3,0.3-0.3C167.1,354,167.2,354.2,167.2,354.3z"/>
		<path d="M181.4,354.3c0,0.2-0.1,0.3-0.3,0.3c-0.2,0-0.3-0.1-0.3-0.3c0-0.2,0.1-0.3,0.3-0.3C181.3,354,181.4,354.2,181.4,354.3z"/>
	</g>
	<g>
		<path d="M195.6,354.3c0,0.2-0.1,0.3-0.3,0.3c-0.2,0-0.3-0.1-0.3-0.3c0-0.2,0.1-0.3,0.3-0.3C195.5,354,195.6,354.2,195.6,354.3z"/>
		<path d="M209.8,354.3c0,0.2-0.1,0.3-0.3,0.3s-0.3-0.1-0.3-0.3c0-0.2,0.1-0.3,0.3-0.3S209.8,354.2,209.8,354.3z"/>
	</g>
	<g>
		<path d="M223.9,354.3c0,0.2-0.1,0.3-0.3,0.3s-0.3-0.1-0.3-0.3c0-0.2,0.1-0.3,0.3-0.3S223.9,354.2,223.9,354.3z"/>
		<path d="M238.1,354.3c0,0.2-0.1,0.3-0.3,0.3s-0.3-0.1-0.3-0.3c0-0.2,0.1-0.3,0.3-0.3S238.1,354.2,238.1,354.3z"/>
	</g>
	<g>
		<path d="M252.3,354.3c0,0.2-0.1,0.3-0.3,0.3s-0.3-0.1-0.3-0.3c0-0.2,0.1-0.3,0.3-0.3S252.3,354.2,252.3,354.3z"/>
		<path d="M266.5,354.3c0,0.2-0.1,0.3-0.3,0.3s-0.3-0.1-0.3-0.3c0-0.2,0.1-0.3,0.3-0.3S266.5,354.2,266.5,354.3z"/>
	</g>
	<g>
		<path d="M280.6,354.3c0,0.2-0.1,0.3-0.3,0.3s-0.3-0.1-0.3-0.3c0-0.2,0.1-0.3,0.3-0.3S280.6,354.2,280.6,354.3z"/>
		<path d="M294.8,354.3c0,0.2-0.1,0.3-0.3,0.3s-0.3-0.1-0.3-0.3c0-0.2,0.1-0.3,0.3-0.3S294.8,354.2,294.8,354.3z"/>
	</g>
	<g>
		<path d="M309,354.3c0,0.2-0.1,0.3-0.3,0.3s-0.3-0.1-0.3-0.3c0-0.2,0.1-0.3,0.3-0.3S309,354.2,309,354.3z"/>
		<path d="M323.1,354.3c0,0.2-0.1,0.3-0.3,0.3s-0.3-0.1-0.3-0.3c0-0.2,0.1-0.3,0.3-0.3S323.1,354.2,323.1,354.3z"/>
	</g>
	<g>
		<path d="M337.3,354.3c0,0.2-0.1,0.3-0.3,0.3s-0.3-0.1-0.3-0.3c0-0.2,0.1-0.3,0.3-0.3S337.3,354.2,337.3,354.3z"/>
		<path d="M351.5,354.3c0,0.2-0.1,0.3-0.3,0.3c-0.2,0-0.3-0.1-0.3-0.3c0-0.2,0.1-0.3,0.3-0.3C351.4,354,351.5,354.2,351.5,354.3z"/>
	</g>
	<g>
		<path d="M365.7,354.3c0,0.2-0.1,0.3-0.3,0.3c-0.2,0-0.3-0.1-0.3-0.3c0-0.2,0.1-0.3,0.3-0.3C365.5,354,365.7,354.2,365.7,354.3z"/>
		<path d="M379.8,354.3c0,0.2-0.1,0.3-0.3,0.3s-0.3-0.1-0.3-0.3c0-0.2,0.1-0.3,0.3-0.3S379.8,354.2,379.8,354.3z"/>
	</g>
</g>
<g>
	<g>
		<path d="M53.9,368.5c0,0.2-0.1,0.3-0.3,0.3s-0.3-0.1-0.3-0.3s0.1-0.3,0.3-0.3S53.9,368.3,53.9,368.5z"/>
		<path d="M68,368.5c0,0.2-0.1,0.3-0.3,0.3c-0.2,0-0.3-0.1-0.3-0.3s0.1-0.3,0.3-0.3C67.9,368.2,68,368.3,68,368.5z"/>
	</g>
	<g>
		<path d="M82.2,368.5c0,0.2-0.1,0.3-0.3,0.3c-0.2,0-0.3-0.1-0.3-0.3s0.1-0.3,0.3-0.3C82.1,368.2,82.2,368.3,82.2,368.5z"/>
		<path d="M96.4,368.5c0,0.2-0.1,0.3-0.3,0.3c-0.2,0-0.3-0.1-0.3-0.3s0.1-0.3,0.3-0.3C96.3,368.2,96.4,368.3,96.4,368.5z"/>
	</g>
	<g>
		<path d="M110.6,368.5c0,0.2-0.1,0.3-0.3,0.3c-0.2,0-0.3-0.1-0.3-0.3s0.1-0.3,0.3-0.3C110.4,368.2,110.6,368.3,110.6,368.5z"/>
		<path d="M124.7,368.5c0,0.2-0.1,0.3-0.3,0.3c-0.2,0-0.3-0.1-0.3-0.3s0.1-0.3,0.3-0.3C124.6,368.2,124.7,368.3,124.7,368.5z"/>
	</g>
	<g>
		<path d="M138.9,368.5c0,0.2-0.1,0.3-0.3,0.3c-0.2,0-0.3-0.1-0.3-0.3s0.1-0.3,0.3-0.3C138.8,368.2,138.9,368.3,138.9,368.5z"/>
		<path d="M153.1,368.5c0,0.2-0.1,0.3-0.3,0.3s-0.3-0.1-0.3-0.3s0.1-0.3,0.3-0.3S153.1,368.3,153.1,368.5z"/>
	</g>
	<g>
		<path d="M167.2,368.5c0,0.2-0.1,0.3-0.3,0.3s-0.3-0.1-0.3-0.3s0.1-0.3,0.3-0.3S167.2,368.3,167.2,368.5z"/>
		<path d="M181.4,368.5c0,0.2-0.1,0.3-0.3,0.3s-0.3-0.1-0.3-0.3s0.1-0.3,0.3-0.3S181.4,368.3,181.4,368.5z"/>
	</g>
	<g>
		<path d="M195.6,368.5c0,0.2-0.1,0.3-0.3,0.3s-0.3-0.1-0.3-0.3s0.1-0.3,0.3-0.3S195.6,368.3,195.6,368.5z"/>
		<path d="M209.8,368.5c0,0.2-0.1,0.3-0.3,0.3s-0.3-0.1-0.3-0.3s0.1-0.3,0.3-0.3S209.8,368.3,209.8,368.5z"/>
	</g>
	<g>
		<path d="M223.9,368.5c0,0.2-0.1,0.3-0.3,0.3c-0.2,0-0.3-0.1-0.3-0.3s0.1-0.3,0.3-0.3C223.8,368.2,223.9,368.3,223.9,368.5z"/>
		<path d="M238.1,368.5c0,0.2-0.1,0.3-0.3,0.3c-0.2,0-0.3-0.1-0.3-0.3s0.1-0.3,0.3-0.3C238,368.2,238.1,368.3,238.1,368.5z"/>
	</g>
	<g>
		<path d="M252.3,368.5c0,0.2-0.1,0.3-0.3,0.3c-0.2,0-0.3-0.1-0.3-0.3s0.1-0.3,0.3-0.3C252.2,368.2,252.3,368.3,252.3,368.5z"/>
		<path d="M266.5,368.5c0,0.2-0.1,0.3-0.3,0.3s-0.3-0.1-0.3-0.3s0.1-0.3,0.3-0.3S266.5,368.3,266.5,368.5z"/>
	</g>
	<g>
		<path d="M280.6,368.5c0,0.2-0.1,0.3-0.3,0.3s-0.3-0.1-0.3-0.3s0.1-0.3,0.3-0.3S280.6,368.3,280.6,368.5z"/>
		<path d="M294.8,368.5c0,0.2-0.1,0.3-0.3,0.3c-0.2,0-0.3-0.1-0.3-0.3s0.1-0.3,0.3-0.3C294.7,368.2,294.8,368.3,294.8,368.5z"/>
	</g>
	<g>
		<path d="M309,368.5c0,0.2-0.1,0.3-0.3,0.3c-0.2,0-0.3-0.1-0.3-0.3s0.1-0.3,0.3-0.3C308.8,368.2,309,368.3,309,368.5z"/>
		<path d="M323.1,368.5c0,0.2-0.1,0.3-0.3,0.3s-0.3-0.1-0.3-0.3s0.1-0.3,0.3-0.3S323.1,368.3,323.1,368.5z"/>
	</g>
	<g>
		<path d="M337.3,368.5c0,0.2-0.1,0.3-0.3,0.3s-0.3-0.1-0.3-0.3s0.1-0.3,0.3-0.3S337.3,368.3,337.3,368.5z"/>
		<path d="M351.5,368.5c0,0.2-0.1,0.3-0.3,0.3s-0.3-0.1-0.3-0.3s0.1-0.3,0.3-0.3S351.5,368.3,351.5,368.5z"/>
	</g>
	<g>
		<path d="M365.7,368.5c0,0.2-0.1,0.3-0.3,0.3s-0.3-0.1-0.3-0.3s0.1-0.3,0.3-0.3S365.7,368.3,365.7,368.5z"/>
		<path d="M379.8,368.5c0,0.2-0.1,0.3-0.3,0.3s-0.3-0.1-0.3-0.3s0.1-0.3,0.3-0.3S379.8,368.3,379.8,368.5z"/>
	</g>
</g>
<g>
	<g>
		<path d="M53.9,382.7c0,0.2-0.1,0.3-0.3,0.3s-0.3-0.1-0.3-0.3s0.1-0.3,0.3-0.3S53.9,382.5,53.9,382.7z"/>
		<path d="M68,382.7c0,0.2-0.1,0.3-0.3,0.3c-0.2,0-0.3-0.1-0.3-0.3s0.1-0.3,0.3-0.3C67.9,382.4,68,382.5,68,382.7z"/>
	</g>
	<g>
		<path d="M82.2,382.7c0,0.2-0.1,0.3-0.3,0.3c-0.2,0-0.3-0.1-0.3-0.3s0.1-0.3,0.3-0.3C82.1,382.4,82.2,382.5,82.2,382.7z"/>
		<path d="M96.4,382.7c0,0.2-0.1,0.3-0.3,0.3c-0.2,0-0.3-0.1-0.3-0.3s0.1-0.3,0.3-0.3C96.3,382.4,96.4,382.5,96.4,382.7z"/>
	</g>
	<g>
		<path d="M110.6,382.7c0,0.2-0.1,0.3-0.3,0.3s-0.3-0.1-0.3-0.3s0.1-0.3,0.3-0.3S110.6,382.5,110.6,382.7z"/>
		<path d="M124.7,382.7c0,0.2-0.1,0.3-0.3,0.3c-0.2,0-0.3-0.1-0.3-0.3s0.1-0.3,0.3-0.3C124.6,382.4,124.7,382.5,124.7,382.7z"/>
	</g>
	<g>
		<path d="M138.9,382.7c0,0.2-0.1,0.3-0.3,0.3s-0.3-0.1-0.3-0.3s0.1-0.3,0.3-0.3S138.9,382.5,138.9,382.7z"/>
		<path d="M153.1,382.7c0,0.2-0.1,0.3-0.3,0.3c-0.2,0-0.3-0.1-0.3-0.3s0.1-0.3,0.3-0.3C152.9,382.4,153.1,382.5,153.1,382.7z"/>
	</g>
	<g>
		<path d="M167.2,382.7c0,0.2-0.1,0.3-0.3,0.3c-0.2,0-0.3-0.1-0.3-0.3s0.1-0.3,0.3-0.3C167.1,382.4,167.2,382.5,167.2,382.7z"/>
		<path d="M181.4,382.7c0,0.2-0.1,0.3-0.3,0.3c-0.2,0-0.3-0.1-0.3-0.3s0.1-0.3,0.3-0.3C181.3,382.4,181.4,382.5,181.4,382.7z"/>
	</g>
	<g>
		<path d="M195.6,382.7c0,0.2-0.1,0.3-0.3,0.3c-0.2,0-0.3-0.1-0.3-0.3s0.1-0.3,0.3-0.3C195.5,382.4,195.6,382.5,195.6,382.7z"/>
		<path d="M209.8,382.7c0,0.2-0.1,0.3-0.3,0.3s-0.3-0.1-0.3-0.3s0.1-0.3,0.3-0.3S209.8,382.5,209.8,382.7z"/>
	</g>
	<g>
		<path d="M223.9,382.7c0,0.2-0.1,0.3-0.3,0.3s-0.3-0.1-0.3-0.3s0.1-0.3,0.3-0.3S223.9,382.5,223.9,382.7z"/>
		<path d="M238.1,382.7c0,0.2-0.1,0.3-0.3,0.3s-0.3-0.1-0.3-0.3s0.1-0.3,0.3-0.3S238.1,382.5,238.1,382.7z"/>
	</g>
	<g>
		<path d="M252.3,382.7c0,0.2-0.1,0.3-0.3,0.3s-0.3-0.1-0.3-0.3s0.1-0.3,0.3-0.3S252.3,382.5,252.3,382.7z"/>
		<path d="M266.5,382.7c0,0.2-0.1,0.3-0.3,0.3s-0.3-0.1-0.3-0.3s0.1-0.3,0.3-0.3S266.5,382.5,266.5,382.7z"/>
	</g>
	<g>
		<path d="M280.6,382.7c0,0.2-0.1,0.3-0.3,0.3s-0.3-0.1-0.3-0.3s0.1-0.3,0.3-0.3S280.6,382.5,280.6,382.7z"/>
		<path d="M294.8,382.7c0,0.2-0.1,0.3-0.3,0.3s-0.3-0.1-0.3-0.3s0.1-0.3,0.3-0.3S294.8,382.5,294.8,382.7z"/>
	</g>
	<g>
		<path d="M309,382.7c0,0.2-0.1,0.3-0.3,0.3s-0.3-0.1-0.3-0.3s0.1-0.3,0.3-0.3S309,382.5,309,382.7z"/>
		<path d="M323.1,382.7c0,0.2-0.1,0.3-0.3,0.3s-0.3-0.1-0.3-0.3s0.1-0.3,0.3-0.3S323.1,382.5,323.1,382.7z"/>
	</g>
	<g>
		<path d="M337.3,382.7c0,0.2-0.1,0.3-0.3,0.3s-0.3-0.1-0.3-0.3s0.1-0.3,0.3-0.3S337.3,382.5,337.3,382.7z"/>
		<path d="M351.5,382.7c0,0.2-0.1,0.3-0.3,0.3c-0.2,0-0.3-0.1-0.3-0.3s0.1-0.3,0.3-0.3C351.4,382.4,351.5,382.5,351.5,382.7z"/>
	</g>
	<g>
		<path d="M365.7,382.7c0,0.2-0.1,0.3-0.3,0.3c-0.2,0-0.3-0.1-0.3-0.3s0.1-0.3,0.3-0.3C365.5,382.4,365.7,382.5,365.7,382.7z"/>
		<path d="M379.8,382.7c0,0.2-0.1,0.3-0.3,0.3s-0.3-0.1-0.3-0.3s0.1-0.3,0.3-0.3S379.8,382.5,379.8,382.7z"/>
	</g>
</g>
<g>
	<g>
		<path d="M53.9,396.9c0,0.2-0.1,0.3-0.3,0.3s-0.3-0.1-0.3-0.3s0.1-0.3,0.3-0.3S53.9,396.7,53.9,396.9z"/>
		<path d="M68,396.9c0,0.2-0.1,0.3-0.3,0.3c-0.2,0-0.3-0.1-0.3-0.3s0.1-0.3,0.3-0.3C67.9,396.6,68,396.7,68,396.9z"/>
	</g>
	<g>
		<path d="M82.2,396.9c0,0.2-0.1,0.3-0.3,0.3c-0.2,0-0.3-0.1-0.3-0.3s0.1-0.3,0.3-0.3C82.1,396.6,82.2,396.7,82.2,396.9z"/>
		<path d="M96.4,396.9c0,0.2-0.1,0.3-0.3,0.3c-0.2,0-0.3-0.1-0.3-0.3s0.1-0.3,0.3-0.3C96.3,396.6,96.4,396.7,96.4,396.9z"/>
	</g>
	<g>
		<path d="M110.6,396.9c0,0.2-0.1,0.3-0.3,0.3s-0.3-0.1-0.3-0.3s0.1-0.3,0.3-0.3S110.6,396.7,110.6,396.9z"/>
		<path d="M124.7,396.9c0,0.2-0.1,0.3-0.3,0.3s-0.3-0.1-0.3-0.3s0.1-0.3,0.3-0.3S124.7,396.7,124.7,396.9z"/>
	</g>
	<g>
		<path d="M138.9,396.9c0,0.2-0.1,0.3-0.3,0.3c-0.2,0-0.3-0.1-0.3-0.3s0.1-0.3,0.3-0.3C138.8,396.6,138.9,396.7,138.9,396.9z"/>
		<path d="M153.1,396.9c0,0.2-0.1,0.3-0.3,0.3c-0.2,0-0.3-0.1-0.3-0.3s0.1-0.3,0.3-0.3C152.9,396.6,153.1,396.7,153.1,396.9z"/>
	</g>
	<g>
		<path d="M167.2,396.9c0,0.2-0.1,0.3-0.3,0.3s-0.3-0.1-0.3-0.3s0.1-0.3,0.3-0.3S167.2,396.7,167.2,396.9z"/>
		<path d="M181.4,396.9c0,0.2-0.1,0.3-0.3,0.3s-0.3-0.1-0.3-0.3s0.1-0.3,0.3-0.3S181.4,396.7,181.4,396.9z"/>
	</g>
	<g>
		<path d="M195.6,396.9c0,0.2-0.1,0.3-0.3,0.3s-0.3-0.1-0.3-0.3s0.1-0.3,0.3-0.3S195.6,396.7,195.6,396.9z"/>
		<path d="M209.8,396.9c0,0.2-0.1,0.3-0.3,0.3s-0.3-0.1-0.3-0.3s0.1-0.3,0.3-0.3S209.8,396.7,209.8,396.9z"/>
	</g>
	<g>
		<path d="M223.9,396.9c0,0.2-0.1,0.3-0.3,0.3s-0.3-0.1-0.3-0.3s0.1-0.3,0.3-0.3S223.9,396.7,223.9,396.9z"/>
		<path d="M238.1,396.9c0,0.2-0.1,0.3-0.3,0.3s-0.3-0.1-0.3-0.3s0.1-0.3,0.3-0.3S238.1,396.7,238.1,396.9z"/>
	</g>
	<g>
		<path d="M252.3,396.9c0,0.2-0.1,0.3-0.3,0.3s-0.3-0.1-0.3-0.3s0.1-0.3,0.3-0.3S252.3,396.7,252.3,396.9z"/>
		<path d="M266.5,396.9c0,0.2-0.1,0.3-0.3,0.3s-0.3-0.1-0.3-0.3s0.1-0.3,0.3-0.3S266.5,396.7,266.5,396.9z"/>
	</g>
	<g>
		<path d="M280.6,396.9c0,0.2-0.1,0.3-0.3,0.3s-0.3-0.1-0.3-0.3s0.1-0.3,0.3-0.3S280.6,396.7,280.6,396.9z"/>
		<path d="M294.8,396.9c0,0.2-0.1,0.3-0.3,0.3s-0.3-0.1-0.3-0.3s0.1-0.3,0.3-0.3S294.8,396.7,294.8,396.9z"/>
	</g>
	<g>
		<path d="M309,396.9c0,0.2-0.1,0.3-0.3,0.3s-0.3-0.1-0.3-0.3s0.1-0.3,0.3-0.3S309,396.7,309,396.9z"/>
		<path d="M323.1,396.9c0,0.2-0.1,0.3-0.3,0.3s-0.3-0.1-0.3-0.3s0.1-0.3,0.3-0.3S323.1,396.7,323.1,396.9z"/>
	</g>
	<g>
		<path d="M337.3,396.9c0,0.2-0.1,0.3-0.3,0.3s-0.3-0.1-0.3-0.3s0.1-0.3,0.3-0.3S337.3,396.7,337.3,396.9z"/>
		<path d="M351.5,396.9c0,0.2-0.1,0.3-0.3,0.3s-0.3-0.1-0.3-0.3s0.1-0.3,0.3-0.3S351.5,396.7,351.5,396.9z"/>
	</g>
	<g>
		<path d="M365.7,396.9c0,0.2-0.1,0.3-0.3,0.3s-0.3-0.1-0.3-0.3s0.1-0.3,0.3-0.3S365.7,396.7,365.7,396.9z"/>
		<path d="M379.8,396.9c0,0.2-0.1,0.3-0.3,0.3s-0.3-0.1-0.3-0.3s0.1-0.3,0.3-0.3S379.8,396.7,379.8,396.9z"/>
	</g>
</g>
<g>
	<g>
		<path d="M53.9,411c0,0.2-0.1,0.3-0.3,0.3s-0.3-0.1-0.3-0.3s0.1-0.3,0.3-0.3S53.9,410.9,53.9,411z"/>
		<path d="M68,411c0,0.2-0.1,0.3-0.3,0.3c-0.2,0-0.3-0.1-0.3-0.3s0.1-0.3,0.3-0.3C67.9,410.7,68,410.9,68,411z"/>
	</g>
	<g>
		<path d="M82.2,411c0,0.2-0.1,0.3-0.3,0.3c-0.2,0-0.3-0.1-0.3-0.3s0.1-0.3,0.3-0.3C82.1,410.7,82.2,410.9,82.2,411z"/>
		<path d="M96.4,411c0,0.2-0.1,0.3-0.3,0.3c-0.2,0-0.3-0.1-0.3-0.3s0.1-0.3,0.3-0.3C96.3,410.7,96.4,410.9,96.4,411z"/>
	</g>
	<g>
		<path d="M110.6,411c0,0.2-0.1,0.3-0.3,0.3s-0.3-0.1-0.3-0.3s0.1-0.3,0.3-0.3S110.6,410.9,110.6,411z"/>
		<path d="M124.7,411c0,0.2-0.1,0.3-0.3,0.3s-0.3-0.1-0.3-0.3s0.1-0.3,0.3-0.3S124.7,410.9,124.7,411z"/>
	</g>
	<g>
		<path d="M138.9,411c0,0.2-0.1,0.3-0.3,0.3c-0.2,0-0.3-0.1-0.3-0.3s0.1-0.3,0.3-0.3C138.8,410.7,138.9,410.9,138.9,411z"/>
		<path d="M153.1,411c0,0.2-0.1,0.3-0.3,0.3c-0.2,0-0.3-0.1-0.3-0.3s0.1-0.3,0.3-0.3C152.9,410.7,153.1,410.9,153.1,411z"/>
	</g>
	<g>
		<path d="M167.2,411c0,0.2-0.1,0.3-0.3,0.3s-0.3-0.1-0.3-0.3s0.1-0.3,0.3-0.3S167.2,410.9,167.2,411z"/>
		<path d="M181.4,411c0,0.2-0.1,0.3-0.3,0.3s-0.3-0.1-0.3-0.3s0.1-0.3,0.3-0.3S181.4,410.9,181.4,411z"/>
	</g>
	<g>
		<path d="M195.6,411c0,0.2-0.1,0.3-0.3,0.3s-0.3-0.1-0.3-0.3s0.1-0.3,0.3-0.3S195.6,410.9,195.6,411z"/>
		<path d="M209.8,411c0,0.2-0.1,0.3-0.3,0.3s-0.3-0.1-0.3-0.3s0.1-0.3,0.3-0.3S209.8,410.9,209.8,411z"/>
	</g>
	<g>
		<path d="M223.9,411c0,0.2-0.1,0.3-0.3,0.3s-0.3-0.1-0.3-0.3s0.1-0.3,0.3-0.3S223.9,410.9,223.9,411z"/>
		<path d="M238.1,411c0,0.2-0.1,0.3-0.3,0.3s-0.3-0.1-0.3-0.3s0.1-0.3,0.3-0.3S238.1,410.9,238.1,411z"/>
	</g>
	<g>
		<path d="M252.3,411c0,0.2-0.1,0.3-0.3,0.3s-0.3-0.1-0.3-0.3s0.1-0.3,0.3-0.3S252.3,410.9,252.3,411z"/>
		<path d="M266.5,411c0,0.2-0.1,0.3-0.3,0.3s-0.3-0.1-0.3-0.3s0.1-0.3,0.3-0.3S266.5,410.9,266.5,411z"/>
	</g>
	<g>
		<path d="M280.6,411c0,0.2-0.1,0.3-0.3,0.3s-0.3-0.1-0.3-0.3s0.1-0.3,0.3-0.3S280.6,410.9,280.6,411z"/>
		<path d="M294.8,411c0,0.2-0.1,0.3-0.3,0.3s-0.3-0.1-0.3-0.3s0.1-0.3,0.3-0.3S294.8,410.9,294.8,411z"/>
	</g>
	<g>
		<path d="M309,411c0,0.2-0.1,0.3-0.3,0.3s-0.3-0.1-0.3-0.3s0.1-0.3,0.3-0.3S309,410.9,309,411z"/>
		<path d="M323.1,411c0,0.2-0.1,0.3-0.3,0.3s-0.3-0.1-0.3-0.3s0.1-0.3,0.3-0.3S323.1,410.9,323.1,411z"/>
	</g>
	<g>
		<path d="M337.3,411c0,0.2-0.1,0.3-0.3,0.3s-0.3-0.1-0.3-0.3s0.1-0.3,0.3-0.3S337.3,410.9,337.3,411z"/>
		<path d="M351.5,411c0,0.2-0.1,0.3-0.3,0.3s-0.3-0.1-0.3-0.3s0.1-0.3,0.3-0.3S351.5,410.9,351.5,411z"/>
	</g>
	<g>
		<path d="M365.7,411c0,0.2-0.1,0.3-0.3,0.3s-0.3-0.1-0.3-0.3s0.1-0.3,0.3-0.3S365.7,410.9,365.7,411z"/>
		<path d="M379.8,411c0,0.2-0.1,0.3-0.3,0.3s-0.3-0.1-0.3-0.3s0.1-0.3,0.3-0.3S379.8,410.9,379.8,411z"/>
	</g>
</g>
<g>
	<g>
		<path d="M53.9,425.2c0,0.2-0.1,0.3-0.3,0.3s-0.3-0.1-0.3-0.3s0.1-0.3,0.3-0.3S53.9,425,53.9,425.2z"/>
		<path d="M68,425.2c0,0.2-0.1,0.3-0.3,0.3c-0.2,0-0.3-0.1-0.3-0.3s0.1-0.3,0.3-0.3C67.9,424.9,68,425,68,425.2z"/>
	</g>
	<g>
		<path d="M82.2,425.2c0,0.2-0.1,0.3-0.3,0.3c-0.2,0-0.3-0.1-0.3-0.3s0.1-0.3,0.3-0.3C82.1,424.9,82.2,425,82.2,425.2z"/>
		<path d="M96.4,425.2c0,0.2-0.1,0.3-0.3,0.3c-0.2,0-0.3-0.1-0.3-0.3s0.1-0.3,0.3-0.3C96.3,424.9,96.4,425,96.4,425.2z"/>
	</g>
	<g>
		<path d="M110.6,425.2c0,0.2-0.1,0.3-0.3,0.3s-0.3-0.1-0.3-0.3s0.1-0.3,0.3-0.3S110.6,425,110.6,425.2z"/>
		<path d="M124.7,425.2c0,0.2-0.1,0.3-0.3,0.3s-0.3-0.1-0.3-0.3s0.1-0.3,0.3-0.3S124.7,425,124.7,425.2z"/>
	</g>
	<g>
		<path d="M138.9,425.2c0,0.2-0.1,0.3-0.3,0.3c-0.2,0-0.3-0.1-0.3-0.3s0.1-0.3,0.3-0.3C138.8,424.9,138.9,425,138.9,425.2z"/>
		<path d="M153.1,425.2c0,0.2-0.1,0.3-0.3,0.3c-0.2,0-0.3-0.1-0.3-0.3s0.1-0.3,0.3-0.3C152.9,424.9,153.1,425,153.1,425.2z"/>
	</g>
	<g>
		<path d="M167.2,425.2c0,0.2-0.1,0.3-0.3,0.3s-0.3-0.1-0.3-0.3s0.1-0.3,0.3-0.3S167.2,425,167.2,425.2z"/>
		<path d="M181.4,425.2c0,0.2-0.1,0.3-0.3,0.3s-0.3-0.1-0.3-0.3s0.1-0.3,0.3-0.3S181.4,425,181.4,425.2z"/>
	</g>
	<g>
		<path d="M195.6,425.2c0,0.2-0.1,0.3-0.3,0.3s-0.3-0.1-0.3-0.3s0.1-0.3,0.3-0.3S195.6,425,195.6,425.2z"/>
		<path d="M209.8,425.2c0,0.2-0.1,0.3-0.3,0.3s-0.3-0.1-0.3-0.3s0.1-0.3,0.3-0.3S209.8,425,209.8,425.2z"/>
	</g>
	<g>
		<path d="M223.9,425.2c0,0.2-0.1,0.3-0.3,0.3s-0.3-0.1-0.3-0.3s0.1-0.3,0.3-0.3S223.9,425,223.9,425.2z"/>
		<path d="M238.1,425.2c0,0.2-0.1,0.3-0.3,0.3s-0.3-0.1-0.3-0.3s0.1-0.3,0.3-0.3S238.1,425,238.1,425.2z"/>
	</g>
	<g>
		<path d="M252.3,425.2c0,0.2-0.1,0.3-0.3,0.3s-0.3-0.1-0.3-0.3s0.1-0.3,0.3-0.3S252.3,425,252.3,425.2z"/>
		<path d="M266.5,425.2c0,0.2-0.1,0.3-0.3,0.3s-0.3-0.1-0.3-0.3s0.1-0.3,0.3-0.3S266.5,425,266.5,425.2z"/>
	</g>
	<g>
		<path d="M280.6,425.2c0,0.2-0.1,0.3-0.3,0.3s-0.3-0.1-0.3-0.3s0.1-0.3,0.3-0.3S280.6,425,280.6,425.2z"/>
		<path d="M294.8,425.2c0,0.2-0.1,0.3-0.3,0.3s-0.3-0.1-0.3-0.3s0.1-0.3,0.3-0.3S294.8,425,294.8,425.2z"/>
	</g>
	<g>
		<path d="M309,425.2c0,0.2-0.1,0.3-0.3,0.3s-0.3-0.1-0.3-0.3s0.1-0.3,0.3-0.3S309,425,309,425.2z"/>
		<path d="M323.1,425.2c0,0.2-0.1,0.3-0.3,0.3s-0.3-0.1-0.3-0.3s0.1-0.3,0.3-0.3S323.1,425,323.1,425.2z"/>
	</g>
	<g>
		<path d="M337.3,425.2c0,0.2-0.1,0.3-0.3,0.3s-0.3-0.1-0.3-0.3s0.1-0.3,0.3-0.3S337.3,425,337.3,425.2z"/>
		<path d="M351.5,425.2c0,0.2-0.1,0.3-0.3,0.3s-0.3-0.1-0.3-0.3s0.1-0.3,0.3-0.3S351.5,425,351.5,425.2z"/>
	</g>
	<g>
		<path d="M365.7,425.2c0,0.2-0.1,0.3-0.3,0.3s-0.3-0.1-0.3-0.3s0.1-0.3,0.3-0.3S365.7,425,365.7,425.2z"/>
		<path d="M379.8,425.2c0,0.2-0.1,0.3-0.3,0.3s-0.3-0.1-0.3-0.3s0.1-0.3,0.3-0.3S379.8,425,379.8,425.2z"/>
	</g>
</g>
<g>
	<g>
		<circle cx="53.6" cy="439.4" r="0.3"/>
		<circle cx="67.7" cy="439.4" r="0.3"/>
	</g>
	<g>
		<circle cx="81.9" cy="439.4" r="0.3"/>
		<circle cx="96.1" cy="439.4" r="0.3"/>
	</g>
	<g>
		<path d="M110.6,439.4c0,0.2-0.1,0.3-0.3,0.3c-0.2,0-0.3-0.1-0.3-0.3s0.1-0.3,0.3-0.3C110.4,439.1,110.6,439.2,110.6,439.4z"/>
		<path d="M124.7,439.4c0,0.2-0.1,0.3-0.3,0.3c-0.2,0-0.3-0.1-0.3-0.3s0.1-0.3,0.3-0.3C124.6,439.1,124.7,439.2,124.7,439.4z"/>
	</g>
	<g>
		<circle cx="138.6" cy="439.4" r="0.3"/>
		<circle cx="152.8" cy="439.4" r="0.3"/>
	</g>
	<g>
		<path d="M167.2,439.4c0,0.2-0.1,0.3-0.3,0.3c-0.2,0-0.3-0.1-0.3-0.3s0.1-0.3,0.3-0.3C167.1,439.1,167.2,439.2,167.2,439.4z"/>
		<path d="M181.4,439.4c0,0.2-0.1,0.3-0.3,0.3c-0.2,0-0.3-0.1-0.3-0.3s0.1-0.3,0.3-0.3C181.3,439.1,181.4,439.2,181.4,439.4z"/>
	</g>
	<g>
		<circle cx="195.3" cy="439.4" r="0.3"/>
		<circle cx="209.5" cy="439.4" r="0.3"/>
	</g>
	<g>
		<circle cx="223.7" cy="439.4" r="0.3"/>
		<circle cx="237.8" cy="439.4" r="0.3"/>
	</g>
	<g>
		<circle cx="252" cy="439.4" r="0.3"/>
		<path d="M266.5,439.4c0,0.2-0.1,0.3-0.3,0.3s-0.3-0.1-0.3-0.3s0.1-0.3,0.3-0.3S266.5,439.2,266.5,439.4z"/>
	</g>
	<g>
		<path d="M280.6,439.4c0,0.2-0.1,0.3-0.3,0.3c-0.2,0-0.3-0.1-0.3-0.3s0.1-0.3,0.3-0.3C280.5,439.1,280.6,439.2,280.6,439.4z"/>
		<path d="M294.8,439.4c0,0.2-0.1,0.3-0.3,0.3c-0.2,0-0.3-0.1-0.3-0.3s0.1-0.3,0.3-0.3C294.7,439.1,294.8,439.2,294.8,439.4z"/>
	</g>
	<g>
		<path d="M309,439.4c0,0.2-0.1,0.3-0.3,0.3s-0.3-0.1-0.3-0.3s0.1-0.3,0.3-0.3S309,439.2,309,439.4z"/>
		<path d="M323.1,439.4c0,0.2-0.1,0.3-0.3,0.3s-0.3-0.1-0.3-0.3s0.1-0.3,0.3-0.3S323.1,439.2,323.1,439.4z"/>
	</g>
	<g>
		<path d="M337.3,439.4c0,0.2-0.1,0.3-0.3,0.3s-0.3-0.1-0.3-0.3s0.1-0.3,0.3-0.3S337.3,439.2,337.3,439.4z"/>
		<path d="M351.5,439.4c0,0.2-0.1,0.3-0.3,0.3s-0.3-0.1-0.3-0.3s0.1-0.3,0.3-0.3S351.5,439.2,351.5,439.4z"/>
	</g>
	<g>
		<path d="M365.7,439.4c0,0.2-0.1,0.3-0.3,0.3s-0.3-0.1-0.3-0.3s0.1-0.3,0.3-0.3S365.7,439.2,365.7,439.4z"/>
		<path d="M379.8,439.4c0,0.2-0.1,0.3-0.3,0.3s-0.3-0.1-0.3-0.3s0.1-0.3,0.3-0.3S379.8,439.2,379.8,439.4z"/>
	</g>
</g>
<g>
	<g>
		<circle cx="53.6" cy="453.5" r="0.3"/>
		<path d="M68,453.5c0,0.2-0.1,0.3-0.3,0.3c-0.2,0-0.3-0.1-0.3-0.3s0.1-0.3,0.3-0.3C67.9,453.3,68,453.4,68,453.5z"/>
	</g>
	<g>
		<circle cx="81.9" cy="453.5" r="0.3"/>
		<circle cx="96.1" cy="453.5" r="0.3"/>
	</g>
	<g>
		<circle cx="110.3" cy="453.5" r="0.3"/>
		<circle cx="124.4" cy="453.5" r="0.3"/>
	</g>
	<g>
		<circle cx="138.6" cy="453.5" r="0.3"/>
		<circle cx="152.8" cy="453.5" r="0.3"/>
	</g>
	<g>
		<circle cx="167" cy="453.5" r="0.3"/>
		<circle cx="181.1" cy="453.5" r="0.3"/>
	</g>
	<g>
		<circle cx="195.3" cy="453.5" r="0.3"/>
		<circle cx="209.5" cy="453.5" r="0.3"/>
	</g>
	<g>
		<circle cx="223.7" cy="453.5" r="0.3"/>
		<circle cx="237.8" cy="453.5" r="0.3"/>
	</g>
	<g>
		<circle cx="252" cy="453.5" r="0.3"/>
		<path d="M266.5,453.5c0,0.2-0.1,0.3-0.3,0.3s-0.3-0.1-0.3-0.3s0.1-0.3,0.3-0.3S266.5,453.4,266.5,453.5z"/>
	</g>
	<g>
		<path d="M280.6,453.5c0,0.2-0.1,0.3-0.3,0.3s-0.3-0.1-0.3-0.3s0.1-0.3,0.3-0.3S280.6,453.4,280.6,453.5z"/>
		<path d="M294.8,453.5c0,0.2-0.1,0.3-0.3,0.3s-0.3-0.1-0.3-0.3s0.1-0.3,0.3-0.3S294.8,453.4,294.8,453.5z"/>
	</g>
	<g>
		<path d="M309,453.5c0,0.2-0.1,0.3-0.3,0.3s-0.3-0.1-0.3-0.3s0.1-0.3,0.3-0.3S309,453.4,309,453.5z"/>
		<path d="M323.1,453.5c0,0.2-0.1,0.3-0.3,0.3s-0.3-0.1-0.3-0.3s0.1-0.3,0.3-0.3S323.1,453.4,323.1,453.5z"/>
	</g>
	<g>
		<path d="M337.3,453.5c0,0.2-0.1,0.3-0.3,0.3s-0.3-0.1-0.3-0.3s0.1-0.3,0.3-0.3S337.3,453.4,337.3,453.5z"/>
		<path d="M351.5,453.5c0,0.2-0.1,0.3-0.3,0.3s-0.3-0.1-0.3-0.3s0.1-0.3,0.3-0.3S351.5,453.4,351.5,453.5z"/>
	</g>
	<g>
		<path d="M365.7,453.5c0,0.2-0.1,0.3-0.3,0.3s-0.3-0.1-0.3-0.3s0.1-0.3,0.3-0.3S365.7,453.4,365.7,453.5z"/>
		<path d="M379.8,453.5c0,0.2-0.1,0.3-0.3,0.3s-0.3-0.1-0.3-0.3s0.1-0.3,0.3-0.3S379.8,453.4,379.8,453.5z"/>
	</g>
</g>
<g>
	<g>
		<circle cx="53.6" cy="467.7" r="0.3"/>
		<path d="M68,467.7c0,0.2-0.1,0.3-0.3,0.3c-0.2,0-0.3-0.1-0.3-0.3s0.1-0.3,0.3-0.3C67.9,467.4,68,467.6,68,467.7z"/>
	</g>
	<g>
		<circle cx="81.9" cy="467.7" r="0.3"/>
		<circle cx="96.1" cy="467.7" r="0.3"/>
	</g>
	<g>
		<circle cx="110.3" cy="467.7" r="0.3"/>
		<circle cx="124.4" cy="467.7" r="0.3"/>
	</g>
	<g>
		<circle cx="138.6" cy="467.7" r="0.3"/>
		<circle cx="152.8" cy="467.7" r="0.3"/>
	</g>
	<g>
		<circle cx="167" cy="467.7" r="0.3"/>
		<circle cx="181.1" cy="467.7" r="0.3"/>
	</g>
	<g>
		<circle cx="195.3" cy="467.7" r="0.3"/>
		<circle cx="209.5" cy="467.7" r="0.3"/>
	</g>
	<g>
		<circle cx="223.7" cy="467.7" r="0.3"/>
		<circle cx="237.8" cy="467.7" r="0.3"/>
	</g>
	<g>
		<circle cx="252" cy="467.7" r="0.3"/>
		<path d="M266.5,467.7c0,0.2-0.1,0.3-0.3,0.3s-0.3-0.1-0.3-0.3s0.1-0.3,0.3-0.3S266.5,467.6,266.5,467.7z"/>
	</g>
	<g>
		<path d="M280.6,467.7c0,0.2-0.1,0.3-0.3,0.3s-0.3-0.1-0.3-0.3s0.1-0.3,0.3-0.3S280.6,467.6,280.6,467.7z"/>
		<path d="M294.8,467.7c0,0.2-0.1,0.3-0.3,0.3s-0.3-0.1-0.3-0.3s0.1-0.3,0.3-0.3S294.8,467.6,294.8,467.7z"/>
	</g>
	<g>
		<path d="M309,467.7c0,0.2-0.1,0.3-0.3,0.3s-0.3-0.1-0.3-0.3s0.1-0.3,0.3-0.3S309,467.6,309,467.7z"/>
		<path d="M323.1,467.7c0,0.2-0.1,0.3-0.3,0.3s-0.3-0.1-0.3-0.3s0.1-0.3,0.3-0.3S323.1,467.6,323.1,467.7z"/>
	</g>
	<g>
		<path d="M337.3,467.7c0,0.2-0.1,0.3-0.3,0.3s-0.3-0.1-0.3-0.3s0.1-0.3,0.3-0.3S337.3,467.6,337.3,467.7z"/>
		<path d="M351.5,467.7c0,0.2-0.1,0.3-0.3,0.3s-0.3-0.1-0.3-0.3s0.1-0.3,0.3-0.3S351.5,467.6,351.5,467.7z"/>
	</g>
	<g>
		<path d="M365.7,467.7c0,0.2-0.1,0.3-0.3,0.3s-0.3-0.1-0.3-0.3s0.1-0.3,0.3-0.3S365.7,467.6,365.7,467.7z"/>
		<path d="M379.8,467.7c0,0.2-0.1,0.3-0.3,0.3s-0.3-0.1-0.3-0.3s0.1-0.3,0.3-0.3S379.8,467.6,379.8,467.7z"/>
	</g>
</g>
<g>
	<g>
		<path d="M53.9,481.9c0,0.2-0.1,0.3-0.3,0.3s-0.3-0.1-0.3-0.3s0.1-0.3,0.3-0.3S53.9,481.7,53.9,481.9z"/>
		<path d="M68,481.9c0,0.2-0.1,0.3-0.3,0.3c-0.2,0-0.3-0.1-0.3-0.3s0.1-0.3,0.3-0.3C67.9,481.6,68,481.7,68,481.9z"/>
	</g>
	<g>
		<path d="M82.2,481.9c0,0.2-0.1,0.3-0.3,0.3c-0.2,0-0.3-0.1-0.3-0.3s0.1-0.3,0.3-0.3C82.1,481.6,82.2,481.7,82.2,481.9z"/>
		<path d="M96.4,481.9c0,0.2-0.1,0.3-0.3,0.3c-0.2,0-0.3-0.1-0.3-0.3s0.1-0.3,0.3-0.3C96.3,481.6,96.4,481.7,96.4,481.9z"/>
	</g>
	<g>
		<path d="M110.6,481.9c0,0.2-0.1,0.3-0.3,0.3c-0.2,0-0.3-0.1-0.3-0.3s0.1-0.3,0.3-0.3C110.4,481.6,110.6,481.7,110.6,481.9z"/>
		<path d="M124.7,481.9c0,0.2-0.1,0.3-0.3,0.3c-0.2,0-0.3-0.1-0.3-0.3s0.1-0.3,0.3-0.3C124.6,481.6,124.7,481.7,124.7,481.9z"/>
	</g>
	<g>
		<path d="M138.9,481.9c0,0.2-0.1,0.3-0.3,0.3s-0.3-0.1-0.3-0.3s0.1-0.3,0.3-0.3S138.9,481.7,138.9,481.9z"/>
		<path d="M153.1,481.9c0,0.2-0.1,0.3-0.3,0.3s-0.3-0.1-0.3-0.3s0.1-0.3,0.3-0.3S153.1,481.7,153.1,481.9z"/>
	</g>
	<g>
		<path d="M167.2,481.9c0,0.2-0.1,0.3-0.3,0.3s-0.3-0.1-0.3-0.3s0.1-0.3,0.3-0.3S167.2,481.7,167.2,481.9z"/>
		<path d="M181.4,481.9c0,0.2-0.1,0.3-0.3,0.3s-0.3-0.1-0.3-0.3s0.1-0.3,0.3-0.3S181.4,481.7,181.4,481.9z"/>
	</g>
	<g>
		<path d="M195.6,481.9c0,0.2-0.1,0.3-0.3,0.3s-0.3-0.1-0.3-0.3s0.1-0.3,0.3-0.3S195.6,481.7,195.6,481.9z"/>
		<path d="M209.8,481.9c0,0.2-0.1,0.3-0.3,0.3s-0.3-0.1-0.3-0.3s0.1-0.3,0.3-0.3S209.8,481.7,209.8,481.9z"/>
	</g>
	<g>
		<path d="M223.9,481.9c0,0.2-0.1,0.3-0.3,0.3s-0.3-0.1-0.3-0.3s0.1-0.3,0.3-0.3S223.9,481.7,223.9,481.9z"/>
		<path d="M238.1,481.9c0,0.2-0.1,0.3-0.3,0.3s-0.3-0.1-0.3-0.3s0.1-0.3,0.3-0.3S238.1,481.7,238.1,481.9z"/>
	</g>
	<g>
		<path d="M252.3,481.9c0,0.2-0.1,0.3-0.3,0.3c-0.2,0-0.3-0.1-0.3-0.3s0.1-0.3,0.3-0.3C252.2,481.6,252.3,481.7,252.3,481.9z"/>
		<path d="M266.5,481.9c0,0.2-0.1,0.3-0.3,0.3s-0.3-0.1-0.3-0.3s0.1-0.3,0.3-0.3S266.5,481.7,266.5,481.9z"/>
	</g>
	<g>
		<path d="M280.6,481.9c0,0.2-0.1,0.3-0.3,0.3s-0.3-0.1-0.3-0.3s0.1-0.3,0.3-0.3S280.6,481.7,280.6,481.9z"/>
		<path d="M294.8,481.9c0,0.2-0.1,0.3-0.3,0.3s-0.3-0.1-0.3-0.3s0.1-0.3,0.3-0.3S294.8,481.7,294.8,481.9z"/>
	</g>
	<g>
		<path d="M309,481.9c0,0.2-0.1,0.3-0.3,0.3s-0.3-0.1-0.3-0.3s0.1-0.3,0.3-0.3S309,481.7,309,481.9z"/>
		<path d="M323.2,481.9c0,0.2-0.1,0.3-0.3,0.3s-0.3-0.1-0.3-0.3s0.1-0.3,0.3-0.3S323.2,481.7,323.2,481.9z"/>
	</g>
	<g>
		<path d="M337.3,481.9c0,0.2-0.1,0.3-0.3,0.3s-0.3-0.1-0.3-0.3s0.1-0.3,0.3-0.3S337.3,481.7,337.3,481.9z"/>
		<path d="M351.5,481.9c0,0.2-0.1,0.3-0.3,0.3s-0.3-0.1-0.3-0.3s0.1-0.3,0.3-0.3S351.5,481.7,351.5,481.9z"/>
	</g>
	<g>
		<path d="M365.7,481.9c0,0.2-0.1,0.3-0.3,0.3s-0.3-0.1-0.3-0.3s0.1-0.3,0.3-0.3S365.7,481.7,365.7,481.9z"/>
		<path d="M379.8,481.9c0,0.2-0.1,0.3-0.3,0.3s-0.3-0.1-0.3-0.3s0.1-0.3,0.3-0.3S379.8,481.7,379.8,481.9z"/>
	</g>
</g>
<g>
	<g>
		<path d="M53.9,496.1c0,0.2-0.1,0.3-0.3,0.3s-0.3-0.1-0.3-0.3s0.1-0.3,0.3-0.3S53.9,495.9,53.9,496.1z"/>
		<path d="M68,496.1c0,0.2-0.1,0.3-0.3,0.3c-0.2,0-0.3-0.1-0.3-0.3s0.1-0.3,0.3-0.3C67.9,495.8,68,495.9,68,496.1z"/>
	</g>
	<g>
		<path d="M82.2,496.1c0,0.2-0.1,0.3-0.3,0.3c-0.2,0-0.3-0.1-0.3-0.3s0.1-0.3,0.3-0.3C82.1,495.8,82.2,495.9,82.2,496.1z"/>
		<path d="M96.4,496.1c0,0.2-0.1,0.3-0.3,0.3c-0.2,0-0.3-0.1-0.3-0.3s0.1-0.3,0.3-0.3C96.3,495.8,96.4,495.9,96.4,496.1z"/>
	</g>
	<g>
		<path d="M110.6,496.1c0,0.2-0.1,0.3-0.3,0.3s-0.3-0.1-0.3-0.3s0.1-0.3,0.3-0.3S110.6,495.9,110.6,496.1z"/>
		<path d="M124.7,496.1c0,0.2-0.1,0.3-0.3,0.3s-0.3-0.1-0.3-0.3s0.1-0.3,0.3-0.3S124.7,495.9,124.7,496.1z"/>
	</g>
	<g>
		<path d="M138.9,496.1c0,0.2-0.1,0.3-0.3,0.3c-0.2,0-0.3-0.1-0.3-0.3s0.1-0.3,0.3-0.3C138.8,495.8,138.9,495.9,138.9,496.1z"/>
		<path d="M153.1,496.1c0,0.2-0.1,0.3-0.3,0.3c-0.2,0-0.3-0.1-0.3-0.3s0.1-0.3,0.3-0.3C152.9,495.8,153.1,495.9,153.1,496.1z"/>
	</g>
	<g>
		<path d="M167.2,496.1c0,0.2-0.1,0.3-0.3,0.3s-0.3-0.1-0.3-0.3s0.1-0.3,0.3-0.3S167.2,495.9,167.2,496.1z"/>
		<path d="M181.4,496.1c0,0.2-0.1,0.3-0.3,0.3s-0.3-0.1-0.3-0.3s0.1-0.3,0.3-0.3S181.4,495.9,181.4,496.1z"/>
	</g>
	<g>
		<path d="M195.6,496.1c0,0.2-0.1,0.3-0.3,0.3s-0.3-0.1-0.3-0.3s0.1-0.3,0.3-0.3S195.6,495.9,195.6,496.1z"/>
		<path d="M209.8,496.1c0,0.2-0.1,0.3-0.3,0.3s-0.3-0.1-0.3-0.3s0.1-0.3,0.3-0.3S209.8,495.9,209.8,496.1z"/>
	</g>
	<g>
		<path d="M223.9,496.1c0,0.2-0.1,0.3-0.3,0.3s-0.3-0.1-0.3-0.3s0.1-0.3,0.3-0.3S223.9,495.9,223.9,496.1z"/>
		<path d="M238.1,496.1c0,0.2-0.1,0.3-0.3,0.3s-0.3-0.1-0.3-0.3s0.1-0.3,0.3-0.3S238.1,495.9,238.1,496.1z"/>
	</g>
	<g>
		<path d="M252.3,496.1c0,0.2-0.1,0.3-0.3,0.3s-0.3-0.1-0.3-0.3s0.1-0.3,0.3-0.3S252.3,495.9,252.3,496.1z"/>
		<path d="M266.5,496.1c0,0.2-0.1,0.3-0.3,0.3s-0.3-0.1-0.3-0.3s0.1-0.3,0.3-0.3S266.5,495.9,266.5,496.1z"/>
	</g>
	<g>
		<path d="M280.6,496.1c0,0.2-0.1,0.3-0.3,0.3s-0.3-0.1-0.3-0.3s0.1-0.3,0.3-0.3S280.6,495.9,280.6,496.1z"/>
		<path d="M294.8,496.1c0,0.2-0.1,0.3-0.3,0.3s-0.3-0.1-0.3-0.3s0.1-0.3,0.3-0.3S294.8,495.9,294.8,496.1z"/>
	</g>
	<g>
		<path d="M309,496.1c0,0.2-0.1,0.3-0.3,0.3s-0.3-0.1-0.3-0.3s0.1-0.3,0.3-0.3S309,495.9,309,496.1z"/>
		<path d="M323.1,496.1c0,0.2-0.1,0.3-0.3,0.3s-0.3-0.1-0.3-0.3s0.1-0.3,0.3-0.3S323.1,495.9,323.1,496.1z"/>
	</g>
	<g>
		<path d="M337.3,496.1c0,0.2-0.1,0.3-0.3,0.3s-0.3-0.1-0.3-0.3s0.1-0.3,0.3-0.3S337.3,495.9,337.3,496.1z"/>
		<path d="M351.5,496.1c0,0.2-0.1,0.3-0.3,0.3s-0.3-0.1-0.3-0.3s0.1-0.3,0.3-0.3S351.5,495.9,351.5,496.1z"/>
	</g>
	<g>
		<path d="M365.7,496.1c0,0.2-0.1,0.3-0.3,0.3s-0.3-0.1-0.3-0.3s0.1-0.3,0.3-0.3S365.7,495.9,365.7,496.1z"/>
		<path d="M379.8,496.1c0,0.2-0.1,0.3-0.3,0.3s-0.3-0.1-0.3-0.3s0.1-0.3,0.3-0.3S379.8,495.9,379.8,496.1z"/>
	</g>
</g>
<g>
	<g>
		<path d="M53.9,510.2c0,0.2-0.1,0.3-0.3,0.3s-0.3-0.1-0.3-0.3s0.1-0.3,0.3-0.3S53.9,510.1,53.9,510.2z"/>
		<path d="M68,510.2c0,0.2-0.1,0.3-0.3,0.3c-0.2,0-0.3-0.1-0.3-0.3s0.1-0.3,0.3-0.3C67.9,510,68,510.1,68,510.2z"/>
	</g>
	<g>
		<path d="M82.2,510.2c0,0.2-0.1,0.3-0.3,0.3c-0.2,0-0.3-0.1-0.3-0.3s0.1-0.3,0.3-0.3C82.1,510,82.2,510.1,82.2,510.2z"/>
		<path d="M96.4,510.2c0,0.2-0.1,0.3-0.3,0.3c-0.2,0-0.3-0.1-0.3-0.3s0.1-0.3,0.3-0.3C96.3,510,96.4,510.1,96.4,510.2z"/>
	</g>
	<g>
		<path d="M110.6,510.2c0,0.2-0.1,0.3-0.3,0.3s-0.3-0.1-0.3-0.3s0.1-0.3,0.3-0.3S110.6,510.1,110.6,510.2z"/>
		<path d="M124.7,510.2c0,0.2-0.1,0.3-0.3,0.3s-0.3-0.1-0.3-0.3s0.1-0.3,0.3-0.3S124.7,510.1,124.7,510.2z"/>
	</g>
	<g>
		<path d="M138.9,510.2c0,0.2-0.1,0.3-0.3,0.3c-0.2,0-0.3-0.1-0.3-0.3s0.1-0.3,0.3-0.3C138.8,510,138.9,510.1,138.9,510.2z"/>
		<path d="M153.1,510.2c0,0.2-0.1,0.3-0.3,0.3s-0.3-0.1-0.3-0.3s0.1-0.3,0.3-0.3S153.1,510.1,153.1,510.2z"/>
	</g>
	<g>
		<path d="M167.2,510.2c0,0.2-0.1,0.3-0.3,0.3s-0.3-0.1-0.3-0.3s0.1-0.3,0.3-0.3S167.2,510.1,167.2,510.2z"/>
		<path d="M181.4,510.2c0,0.2-0.1,0.3-0.3,0.3c-0.2,0-0.3-0.1-0.3-0.3s0.1-0.3,0.3-0.3C181.3,510,181.4,510.1,181.4,510.2z"/>
	</g>
	<g>
		<path d="M195.6,510.2c0,0.2-0.1,0.3-0.3,0.3s-0.3-0.1-0.3-0.3s0.1-0.3,0.3-0.3S195.6,510.1,195.6,510.2z"/>
		<path d="M209.8,510.2c0,0.2-0.1,0.3-0.3,0.3c-0.2,0-0.3-0.1-0.3-0.3s0.1-0.3,0.3-0.3C209.6,510,209.8,510.1,209.8,510.2z"/>
	</g>
	<g>
		<path d="M223.9,510.2c0,0.2-0.1,0.3-0.3,0.3c-0.2,0-0.3-0.1-0.3-0.3s0.1-0.3,0.3-0.3C223.8,510,223.9,510.1,223.9,510.2z"/>
		<path d="M238.1,510.2c0,0.2-0.1,0.3-0.3,0.3s-0.3-0.1-0.3-0.3s0.1-0.3,0.3-0.3S238.1,510.1,238.1,510.2z"/>
	</g>
	<g>
		<path d="M252.3,510.2c0,0.2-0.1,0.3-0.3,0.3c-0.2,0-0.3-0.1-0.3-0.3s0.1-0.3,0.3-0.3C252.2,510,252.3,510.1,252.3,510.2z"/>
		<path d="M266.5,510.2c0,0.2-0.1,0.3-0.3,0.3s-0.3-0.1-0.3-0.3s0.1-0.3,0.3-0.3S266.5,510.1,266.5,510.2z"/>
	</g>
	<g>
		<path d="M280.6,510.2c0,0.2-0.1,0.3-0.3,0.3s-0.3-0.1-0.3-0.3s0.1-0.3,0.3-0.3S280.6,510.1,280.6,510.2z"/>
		<path d="M294.8,510.2c0,0.2-0.1,0.3-0.3,0.3s-0.3-0.1-0.3-0.3s0.1-0.3,0.3-0.3S294.8,510.1,294.8,510.2z"/>
	</g>
	<g>
		<path d="M309,510.2c0,0.2-0.1,0.3-0.3,0.3s-0.3-0.1-0.3-0.3s0.1-0.3,0.3-0.3S309,510.1,309,510.2z"/>
		<path d="M323.1,510.2c0,0.2-0.1,0.3-0.3,0.3s-0.3-0.1-0.3-0.3s0.1-0.3,0.3-0.3S323.1,510.1,323.1,510.2z"/>
	</g>
	<g>
		<path d="M337.3,510.2c0,0.2-0.1,0.3-0.3,0.3s-0.3-0.1-0.3-0.3s0.1-0.3,0.3-0.3S337.3,510.1,337.3,510.2z"/>
		<path d="M351.5,510.2c0,0.2-0.1,0.3-0.3,0.3s-0.3-0.1-0.3-0.3s0.1-0.3,0.3-0.3S351.5,510.1,351.5,510.2z"/>
	</g>
	<g>
		<path d="M365.7,510.2c0,0.2-0.1,0.3-0.3,0.3s-0.3-0.1-0.3-0.3s0.1-0.3,0.3-0.3S365.7,510.1,365.7,510.2z"/>
		<path d="M379.8,510.2c0,0.2-0.1,0.3-0.3,0.3c-0.2,0-0.3-0.1-0.3-0.3s0.1-0.3,0.3-0.3C379.7,510,379.8,510.1,379.8,510.2z"/>
	</g>
</g>
<g>
	<g>
		<path d="M53.9,524.4c0,0.2-0.1,0.3-0.3,0.3s-0.3-0.1-0.3-0.3s0.1-0.3,0.3-0.3S53.9,524.3,53.9,524.4z"/>
		<path d="M68,524.4c0,0.2-0.1,0.3-0.3,0.3c-0.2,0-0.3-0.1-0.3-0.3s0.1-0.3,0.3-0.3C67.9,524.1,68,524.3,68,524.4z"/>
	</g>
	<g>
		<path d="M82.2,524.4c0,0.2-0.1,0.3-0.3,0.3c-0.2,0-0.3-0.1-0.3-0.3s0.1-0.3,0.3-0.3C82.1,524.1,82.2,524.3,82.2,524.4z"/>
		<path d="M96.4,524.4c0,0.2-0.1,0.3-0.3,0.3c-0.2,0-0.3-0.1-0.3-0.3s0.1-0.3,0.3-0.3C96.3,524.1,96.4,524.3,96.4,524.4z"/>
	</g>
	<g>
		<path d="M110.6,524.4c0,0.2-0.1,0.3-0.3,0.3c-0.2,0-0.3-0.1-0.3-0.3s0.1-0.3,0.3-0.3C110.4,524.1,110.6,524.3,110.6,524.4z"/>
		<path d="M124.7,524.4c0,0.2-0.1,0.3-0.3,0.3s-0.3-0.1-0.3-0.3s0.1-0.3,0.3-0.3S124.7,524.3,124.7,524.4z"/>
	</g>
	<g>
		<path d="M138.9,524.4c0,0.2-0.1,0.3-0.3,0.3c-0.2,0-0.3-0.1-0.3-0.3s0.1-0.3,0.3-0.3C138.8,524.1,138.9,524.3,138.9,524.4z"/>
		<path d="M153.1,524.4c0,0.2-0.1,0.3-0.3,0.3s-0.3-0.1-0.3-0.3s0.1-0.3,0.3-0.3S153.1,524.3,153.1,524.4z"/>
	</g>
	<g>
		<path d="M167.2,524.4c0,0.2-0.1,0.3-0.3,0.3s-0.3-0.1-0.3-0.3s0.1-0.3,0.3-0.3S167.2,524.3,167.2,524.4z"/>
		<path d="M181.4,524.4c0,0.2-0.1,0.3-0.3,0.3c-0.2,0-0.3-0.1-0.3-0.3s0.1-0.3,0.3-0.3C181.3,524.1,181.4,524.3,181.4,524.4z"/>
	</g>
	<g>
		<path d="M195.6,524.4c0,0.2-0.1,0.3-0.3,0.3s-0.3-0.1-0.3-0.3s0.1-0.3,0.3-0.3S195.6,524.3,195.6,524.4z"/>
		<path d="M209.8,524.4c0,0.2-0.1,0.3-0.3,0.3c-0.2,0-0.3-0.1-0.3-0.3s0.1-0.3,0.3-0.3C209.6,524.1,209.8,524.3,209.8,524.4z"/>
	</g>
	<g>
		<path d="M223.9,524.4c0,0.2-0.1,0.3-0.3,0.3c-0.2,0-0.3-0.1-0.3-0.3s0.1-0.3,0.3-0.3C223.8,524.1,223.9,524.3,223.9,524.4z"/>
		<path d="M238.1,524.4c0,0.2-0.1,0.3-0.3,0.3s-0.3-0.1-0.3-0.3s0.1-0.3,0.3-0.3S238.1,524.3,238.1,524.4z"/>
	</g>
	<g>
		<path d="M252.3,524.4c0,0.2-0.1,0.3-0.3,0.3c-0.2,0-0.3-0.1-0.3-0.3s0.1-0.3,0.3-0.3C252.2,524.1,252.3,524.3,252.3,524.4z"/>
		<path d="M266.5,524.4c0,0.2-0.1,0.3-0.3,0.3s-0.3-0.1-0.3-0.3s0.1-0.3,0.3-0.3S266.5,524.3,266.5,524.4z"/>
	</g>
	<g>
		<path d="M280.6,524.4c0,0.2-0.1,0.3-0.3,0.3s-0.3-0.1-0.3-0.3s0.1-0.3,0.3-0.3S280.6,524.3,280.6,524.4z"/>
		<path d="M294.8,524.4c0,0.2-0.1,0.3-0.3,0.3s-0.3-0.1-0.3-0.3s0.1-0.3,0.3-0.3S294.8,524.3,294.8,524.4z"/>
	</g>
	<g>
		<path d="M309,524.4c0,0.2-0.1,0.3-0.3,0.3s-0.3-0.1-0.3-0.3s0.1-0.3,0.3-0.3S309,524.3,309,524.4z"/>
		<path d="M323.1,524.4c0,0.2-0.1,0.3-0.3,0.3s-0.3-0.1-0.3-0.3s0.1-0.3,0.3-0.3S323.1,524.3,323.1,524.4z"/>
	</g>
	<g>
		<path d="M337.3,524.4c0,0.2-0.1,0.3-0.3,0.3s-0.3-0.1-0.3-0.3s0.1-0.3,0.3-0.3S337.3,524.3,337.3,524.4z"/>
		<path d="M351.5,524.4c0,0.2-0.1,0.3-0.3,0.3s-0.3-0.1-0.3-0.3s0.1-0.3,0.3-0.3S351.5,524.3,351.5,524.4z"/>
	</g>
	<g>
		<path d="M365.7,524.4c0,0.2-0.1,0.3-0.3,0.3s-0.3-0.1-0.3-0.3s0.1-0.3,0.3-0.3S365.7,524.3,365.7,524.4z"/>
		<path d="M379.8,524.4c0,0.2-0.1,0.3-0.3,0.3c-0.2,0-0.3-0.1-0.3-0.3s0.1-0.3,0.3-0.3C379.7,524.1,379.8,524.3,379.8,524.4z"/>
	</g>
</g>
<g>
	<g>
		<circle cx="53.6" cy="538.6" r="0.3"/>
		<circle cx="67.7" cy="538.6" r="0.3"/>
	</g>
	<g>
		<path d="M82.2,538.6c0,0.2-0.1,0.3-0.3,0.3c-0.2,0-0.3-0.1-0.3-0.3s0.1-0.3,0.3-0.3C82.1,538.3,82.2,538.4,82.2,538.6z"/>
		<circle cx="96.1" cy="538.6" r="0.3"/>
	</g>
	<g>
		<circle cx="110.3" cy="538.6" r="0.3"/>
		<circle cx="124.4" cy="538.6" r="0.3"/>
	</g>
	<g>
		<circle cx="138.6" cy="538.6" r="0.3"/>
		<circle cx="152.8" cy="538.6" r="0.3"/>
	</g>
	<g>
		<circle cx="167" cy="538.6" r="0.3"/>
		<circle cx="181.1" cy="538.6" r="0.3"/>
	</g>
	<g>
		<circle cx="195.3" cy="538.6" r="0.3"/>
		<circle cx="209.5" cy="538.6" r="0.3"/>
	</g>
	<g>
		<circle cx="223.7" cy="538.6" r="0.3"/>
		<circle cx="237.8" cy="538.6" r="0.3"/>
	</g>
	<g>
		<circle cx="252" cy="538.6" r="0.3"/>
		<path d="M266.5,538.6c0,0.2-0.1,0.3-0.3,0.3s-0.3-0.1-0.3-0.3s0.1-0.3,0.3-0.3S266.5,538.4,266.5,538.6z"/>
	</g>
	<g>
		<path d="M280.6,538.6c0,0.2-0.1,0.3-0.3,0.3s-0.3-0.1-0.3-0.3s0.1-0.3,0.3-0.3S280.6,538.4,280.6,538.6z"/>
		<path d="M294.8,538.6c0,0.2-0.1,0.3-0.3,0.3s-0.3-0.1-0.3-0.3s0.1-0.3,0.3-0.3S294.8,538.4,294.8,538.6z"/>
	</g>
	<g>
		<path d="M309,538.6c0,0.2-0.1,0.3-0.3,0.3s-0.3-0.1-0.3-0.3s0.1-0.3,0.3-0.3S309,538.4,309,538.6z"/>
		<path d="M323.1,538.6c0,0.2-0.1,0.3-0.3,0.3s-0.3-0.1-0.3-0.3s0.1-0.3,0.3-0.3S323.1,538.4,323.1,538.6z"/>
	</g>
	<g>
		<path d="M337.3,538.6c0,0.2-0.1,0.3-0.3,0.3s-0.3-0.1-0.3-0.3s0.1-0.3,0.3-0.3S337.3,538.4,337.3,538.6z"/>
		<path d="M351.5,538.6c0,0.2-0.1,0.3-0.3,0.3s-0.3-0.1-0.3-0.3s0.1-0.3,0.3-0.3S351.5,538.4,351.5,538.6z"/>
	</g>
	<g>
		<path d="M365.7,538.6c0,0.2-0.1,0.3-0.3,0.3s-0.3-0.1-0.3-0.3s0.1-0.3,0.3-0.3S365.7,538.4,365.7,538.6z"/>
		<path d="M379.8,538.6c0,0.2-0.1,0.3-0.3,0.3c-0.2,0-0.3-0.1-0.3-0.3s0.1-0.3,0.3-0.3C379.7,538.3,379.8,538.4,379.8,538.6z"/>
	</g>
</g>
<g>
	<path d="M379.4,70.6c0.2,0,0.3,0.1,0.3,0.3c0,0.2-0.1,0.3-0.3,0.3s-0.3-0.1-0.3-0.3C379.1,70.7,379.3,70.6,379.4,70.6z"/>
</g>
<g>
	<circle cx="379.4" cy="56.7" r="0.3"/>
</g>
<g>
	<path d="M365,42.5c0-0.2,0.1-0.3,0.3-0.3s0.3,0.1,0.3,0.3c0,0.2-0.1,0.3-0.3,0.3S365,42.7,365,42.5z"/>
</g>
<g>
	<path d="M350.8,42.5c0-0.2,0.1-0.3,0.3-0.3s0.3,0.1,0.3,0.3c0,0.2-0.1,0.3-0.3,0.3S350.8,42.7,350.8,42.5z"/>
</g>
<g>
	<circle cx="336.9" cy="56.7" r="0.3"/>
</g>
<g>
	<path d="M336.9,71.1c-0.2,0-0.3-0.1-0.3-0.3c0-0.2,0.1-0.3,0.3-0.3s0.3,0.1,0.3,0.3C337.2,71,337.1,71.1,336.9,71.1z"/>
</g>
<g>
	<path d="M351.4,85c0,0.2-0.1,0.3-0.3,0.3s-0.3-0.1-0.3-0.3s0.1-0.3,0.3-0.3S351.4,84.9,351.4,85z"/>
</g>
<g>
	<path d="M365.5,85c0,0.2-0.1,0.3-0.3,0.3S365,85.2,365,85s0.1-0.3,0.3-0.3S365.5,84.9,365.5,85z"/>
</g>
<g>
	<polygon points="379.1,42.5 379.1,42.5 379.2,42.6 379.2,42.6 379.2,42.6 379.2,42.7 379.2,42.7 379.2,42.7 379.2,42.7 379.3,42.7 
		379.3,42.8 379.3,42.8 379.3,42.8 379.3,42.8 379.4,42.8 379.4,42.8 379.4,42.8 379.5,42.8 379.5,42.8 379.5,42.8 379.5,42.8 
		379.6,42.8 379.6,42.8 379.6,42.7 379.6,42.7 379.6,42.7 379.7,42.7 379.7,42.7 379.7,42.6 379.7,42.6 379.7,42.6 379.7,42.5 
		379.7,42.5 379.7,42.5 379.7,42.5 379.7,42.4 379.7,42.4 379.7,42.4 379.7,42.4 379.6,42.3 379.6,42.3 379.6,42.3 379.6,42.3 
		379.6,42.3 379.5,42.3 379.5,42.2 379.5,42.2 379.5,42.2 379.4,42.2 379.4,42.2 379.4,42.2 379.3,42.2 379.3,42.3 379.3,42.3 
		379.3,42.3 379.3,42.3 379.2,42.3 379.2,42.3 379.2,42.4 379.2,42.4 379.2,42.4 379.2,42.4 379.2,42.5 379.1,42.5 	"/>
</g>
<g>
	<polygon points="336.9,42.8 336.9,42.8 337,42.8 337,42.8 337,42.8 337,42.8 337.1,42.8 337.1,42.7 337.1,42.7 337.1,42.7 
		337.1,42.7 337.2,42.7 337.2,42.6 337.2,42.6 337.2,42.6 337.2,42.5 337.2,42.5 337.2,42.5 337.2,42.5 337.2,42.4 337.2,42.4 
		337.2,42.4 337.1,42.4 337.1,42.3 337.1,42.3 337.1,42.3 337.1,42.3 337,42.3 337,42.3 337,42.2 337,42.2 336.9,42.2 336.9,42.2 
		336.9,42.2 336.9,42.2 336.8,42.2 336.8,42.3 336.8,42.3 336.8,42.3 336.7,42.3 336.7,42.3 336.7,42.3 336.7,42.4 336.7,42.4 
		336.6,42.4 336.6,42.4 336.6,42.5 336.6,42.5 336.6,42.5 336.6,42.5 336.6,42.6 336.6,42.6 336.6,42.6 336.7,42.7 336.7,42.7 
		336.7,42.7 336.7,42.7 336.7,42.7 336.8,42.8 336.8,42.8 336.8,42.8 336.8,42.8 336.9,42.8 336.9,42.8 	"/>
</g>
<g>
	<polygon points="337.2,85 337.2,85 337.2,85 337.2,85 337.2,84.9 337.2,84.9 337.1,84.9 337.1,84.9 337.1,84.8 337.1,84.8 
		337.1,84.8 337,84.8 337,84.8 337,84.8 337,84.8 336.9,84.8 336.9,84.8 336.9,84.8 336.9,84.8 336.8,84.8 336.8,84.8 336.8,84.8 
		336.8,84.8 336.7,84.8 336.7,84.8 336.7,84.9 336.7,84.9 336.7,84.9 336.6,84.9 336.6,85 336.6,85 336.6,85 336.6,85 336.6,85.1 
		336.6,85.1 336.6,85.1 336.6,85.1 336.7,85.2 336.7,85.2 336.7,85.2 336.7,85.2 336.7,85.3 336.8,85.3 336.8,85.3 336.8,85.3 
		336.8,85.3 336.9,85.3 336.9,85.3 336.9,85.3 336.9,85.3 337,85.3 337,85.3 337,85.3 337,85.3 337.1,85.3 337.1,85.3 337.1,85.2 
		337.1,85.2 337.1,85.2 337.2,85.2 337.2,85.1 337.2,85.1 337.2,85.1 337.2,85.1 	"/>
</g>
<g>
	<polygon points="379.4,84.8 379.4,84.8 379.4,84.8 379.3,84.8 379.3,84.8 379.3,84.8 379.3,84.8 379.3,84.8 379.2,84.8 379.2,84.9 
		379.2,84.9 379.2,84.9 379.2,84.9 379.2,85 379.2,85 379.1,85 379.1,85 379.1,85.1 379.2,85.1 379.2,85.1 379.2,85.1 379.2,85.2 
		379.2,85.2 379.2,85.2 379.2,85.2 379.3,85.3 379.3,85.3 379.3,85.3 379.3,85.3 379.3,85.3 379.4,85.3 379.4,85.3 379.4,85.3 
		379.5,85.3 379.5,85.3 379.5,85.3 379.5,85.3 379.6,85.3 379.6,85.3 379.6,85.3 379.6,85.2 379.6,85.2 379.7,85.2 379.7,85.2 
		379.7,85.1 379.7,85.1 379.7,85.1 379.7,85.1 379.7,85 379.7,85 379.7,85 379.7,85 379.7,84.9 379.7,84.9 379.7,84.9 379.6,84.9 
		379.6,84.8 379.6,84.8 379.6,84.8 379.6,84.8 379.5,84.8 379.5,84.8 379.5,84.8 379.5,84.8 	"/>
</g>
<path d="M379.4,63.5c0.2,0,0.3,0.1,0.3,0.3c0,0.2-0.1,0.3-0.3,0.3s-0.3-0.1-0.3-0.3C379.1,63.6,379.3,63.5,379.4,63.5z"/>
<circle cx="379.4" cy="49.6" r="0.3"/>
<path d="M372.1,42.5c0-0.2,0.1-0.3,0.3-0.3s0.3,0.1,0.3,0.3c0,0.2-0.1,0.3-0.3,0.3S372.1,42.7,372.1,42.5z"/>
<path d="M357.9,42.5c0-0.2,0.1-0.3,0.3-0.3s0.3,0.1,0.3,0.3c0,0.2-0.1,0.3-0.3,0.3S357.9,42.7,357.9,42.5z"/>
<circle cx="336.9" cy="49.6" r="0.3"/>
<path d="M336.9,64.1c-0.2,0-0.3-0.1-0.3-0.3c0-0.2,0.1-0.3,0.3-0.3s0.3,0.1,0.3,0.3C337.2,63.9,337.1,64.1,336.9,64.1z"/>
<path d="M344.3,85c0,0.2-0.1,0.3-0.3,0.3s-0.3-0.1-0.3-0.3s0.1-0.3,0.3-0.3S344.3,84.9,344.3,85z"/>
<path d="M358.5,85c0,0.2-0.1,0.3-0.3,0.3s-0.3-0.1-0.3-0.3s0.1-0.3,0.3-0.3S358.5,84.9,358.5,85z"/>
<polygon points="372.1,85 372.1,85.1 372.1,85.1 372.1,85.1 372.1,85.1 372.1,85.2 372.1,85.2 372.1,85.2 372.1,85.2 372.2,85.3 
	372.2,85.3 372.2,85.3 372.2,85.3 372.3,85.3 372.3,85.3 372.3,85.3 372.3,85.3 372.4,85.3 372.4,85.3 372.4,85.3 372.5,85.3 
	372.5,85.3 372.5,85.3 372.5,85.3 372.5,85.2 372.6,85.2 372.6,85.2 372.6,85.2 372.6,85.1 372.6,85.1 372.6,85.1 372.6,85.1 
	372.6,85 372.6,85 372.6,85 372.6,85 372.6,84.9 372.6,84.9 372.6,84.9 372.6,84.9 372.5,84.8 372.5,84.8 372.5,84.8 372.5,84.8 
	372.5,84.8 372.4,84.8 372.4,84.8 372.4,84.8 372.3,84.8 372.3,84.8 372.3,84.8 372.3,84.8 372.2,84.8 372.2,84.8 372.2,84.8 
	372.2,84.8 372.1,84.8 372.1,84.9 372.1,84.9 372.1,84.9 372.1,84.9 372.1,85 372.1,85 372.1,85 "/>
<polygon points="344,42.8 344,42.8 344.1,42.8 344.1,42.8 344.1,42.8 344.1,42.8 344.2,42.8 344.2,42.7 344.2,42.7 344.2,42.7 
	344.2,42.7 344.2,42.7 344.3,42.6 344.3,42.6 344.3,42.6 344.3,42.5 344.3,42.5 344.3,42.5 344.3,42.5 344.3,42.4 344.3,42.4 
	344.2,42.4 344.2,42.4 344.2,42.3 344.2,42.3 344.2,42.3 344.2,42.3 344.1,42.3 344.1,42.3 344.1,42.2 344.1,42.2 344,42.2 
	344,42.2 344,42.2 343.9,42.2 343.9,42.2 343.9,42.3 343.9,42.3 343.8,42.3 343.8,42.3 343.8,42.3 343.8,42.3 343.8,42.4 
	343.7,42.4 343.7,42.4 343.7,42.4 343.7,42.5 343.7,42.5 343.7,42.5 343.7,42.5 343.7,42.6 343.7,42.6 343.7,42.6 343.7,42.7 
	343.8,42.7 343.8,42.7 343.8,42.7 343.8,42.7 343.8,42.8 343.9,42.8 343.9,42.8 343.9,42.8 343.9,42.8 344,42.8 "/>
<polygon points="337.2,78 337.2,77.9 337.2,77.9 337.2,77.9 337.2,77.8 337.2,77.8 337.1,77.8 337.1,77.8 337.1,77.8 337.1,77.7 
	337.1,77.7 337,77.7 337,77.7 337,77.7 337,77.7 336.9,77.7 336.9,77.7 336.9,77.7 336.9,77.7 336.8,77.7 336.8,77.7 336.8,77.7 
	336.8,77.7 336.7,77.7 336.7,77.8 336.7,77.8 336.7,77.8 336.7,77.8 336.6,77.8 336.6,77.9 336.6,77.9 336.6,77.9 336.6,78 
	336.6,78 336.6,78 336.6,78 336.6,78.1 336.7,78.1 336.7,78.1 336.7,78.1 336.7,78.2 336.7,78.2 336.8,78.2 336.8,78.2 336.8,78.2 
	336.8,78.2 336.9,78.2 336.9,78.2 336.9,78.2 336.9,78.2 337,78.2 337,78.2 337,78.2 337,78.2 337.1,78.2 337.1,78.2 337.1,78.2 
	337.1,78.1 337.1,78.1 337.2,78.1 337.2,78.1 337.2,78 337.2,78 337.2,78 "/>
<polygon points="379.4,77.7 379.4,77.7 379.4,77.7 379.3,77.7 379.3,77.7 379.3,77.7 379.3,77.7 379.3,77.7 379.2,77.8 379.2,77.8 
	379.2,77.8 379.2,77.8 379.2,77.8 379.2,77.9 379.2,77.9 379.1,77.9 379.1,78 379.1,78 379.2,78 379.2,78 379.2,78.1 379.2,78.1 
	379.2,78.1 379.2,78.1 379.2,78.2 379.3,78.2 379.3,78.2 379.3,78.2 379.3,78.2 379.3,78.2 379.4,78.2 379.4,78.2 379.4,78.2 
	379.5,78.2 379.5,78.2 379.5,78.2 379.5,78.2 379.6,78.2 379.6,78.2 379.6,78.2 379.6,78.2 379.6,78.1 379.7,78.1 379.7,78.1 
	379.7,78.1 379.7,78 379.7,78 379.7,78 379.7,78 379.7,77.9 379.7,77.9 379.7,77.9 379.7,77.8 379.7,77.8 379.7,77.8 379.6,77.8 
	379.6,77.8 379.6,77.7 379.6,77.7 379.6,77.7 379.5,77.7 379.5,77.7 379.5,77.7 379.5,77.7 "/>
</svg>
