<?xml version="1.0" encoding="utf-8"?>
<!-- Generator: Adobe Illustrator 22.1.0, SVG Export Plug-In . SVG Version: 6.00 Build 0)  -->
<svg version="1.1" id="Layer_1" xmlns="http://www.w3.org/2000/svg" xmlns:xlink="http://www.w3.org/1999/xlink" x="0px" y="0px"
	 viewBox="0 0 420.9 595.3" style="enable-background:new 0 0 420.9 595.3;" xml:space="preserve">
<style type="text/css">
	.st0{fill:#181817;}
	.st1{fill:#242321;}
	.st2{fill:#33312E;}
	.st3{fill:#4D4944;}
	.st4{fill:#595651;}
	.st5{fill:#676462;}
	.st6{fill:#767573;}
	.st7{fill:#868584;}
	.st8{fill:#999898;}
	.st9{fill:#AAAAA9;}
	.st10{fill:#BFBEBE;}
	.st11{fill:#D5D5D5;}
	.st12{fill:#EDEDED;}
	.st13{fill:#FFFFFF;}
	.st14{fill:#B39471;}
	.st15{fill:#BB9E7B;}
	.st16{fill:#C0A483;}
	.st17{fill:#C5AB8B;}
	.st18{fill:#C9B092;}
	.st19{fill:#CEB89B;}
	.st20{fill:#D3BEA4;}
	.st21{fill:#D5C1A8;}
	.st22{fill:#DCCBB5;}
	.st23{fill:#E1D3C1;}
	.st24{fill:#E6DBCC;}
	.st25{fill:#ECE4D8;}
	.st26{fill:#F1EBE3;}
	.st27{fill:#F6F1EC;}
	.st28{fill:#F7F4F0;}
	.st29{fill:#B7DFFA;}
	.st30{fill:#332E30;}
	.st31{fill:#6B6966;}
	.st32{fill:#D9ABCE;}
	.st33{fill:#DE9AA3;}
	.st34{fill:#D4E4AD;}
	.st35{fill:#A5C961;}
	.st36{fill:#E5A965;}
	.st37{fill:#736600;}
	.st38{fill:#F6E446;}
	.st39{fill:#434154;}
	.st40{fill:#B85048;}
</style>
<g>
	<path d="M178.9,58.7V44h1.1v13.7h9.2V44h1.1v13.7h2l-0.1,4.4h-1v-3.4H178.9z"/>
	<path d="M194.7,58.7V44h6.1c1.4,0,2.6,0.3,3.5,1c0.9,0.7,1.3,1.6,1.3,2.7c0,0.5-0.1,0.9-0.2,1.3c-0.1,0.4-0.3,0.7-0.6,1
		c-0.3,0.3-0.5,0.5-0.8,0.7s-0.6,0.3-0.9,0.5c2.2,0.6,3.3,1.8,3.3,3.5c0,1.2-0.5,2.2-1.4,2.9c-1,0.7-2.2,1.1-3.8,1.1H194.7z
		 M195.7,50.8h4.9c1.1,0,2-0.3,2.7-0.8s1-1.3,1-2.3c0-0.8-0.3-1.5-1-2c-0.6-0.5-1.5-0.7-2.7-0.7h-5V50.8z M195.7,57.7h5.3
		c1.3,0,2.3-0.3,3-0.8c0.7-0.5,1.1-1.3,1.1-2.2c0-0.9-0.4-1.6-1.2-2.1c-0.8-0.5-1.9-0.7-3.3-0.7h-5V57.7z"/>
	<path d="M209.2,58.7V44h10.5v1h-9.4v5.8h8.4v1h-8.4v5.9h9.5v1H209.2z"/>
	<path d="M221.9,45v-1h11.3v1h-5.1v13.7H227V45H221.9z"/>
</g>
<rect x="41.2" y="102" width="21.9" height="45"/>
<rect x="63.1" y="102" class="st0" width="21.9" height="45"/>
<rect x="85" y="102" class="st1" width="21.9" height="45"/>
<rect x="106.9" y="102" class="st2" width="21.9" height="45"/>
<rect x="128.8" y="102" class="st3" width="21.9" height="45"/>
<rect x="150.8" y="102" class="st4" width="21.9" height="45"/>
<rect x="172.7" y="102" class="st5" width="21.9" height="45"/>
<rect x="194.6" y="102" class="st6" width="21.9" height="45"/>
<rect x="216.5" y="102" class="st7" width="21.9" height="45"/>
<rect x="238.4" y="102" class="st8" width="21.9" height="45"/>
<rect x="260.4" y="102" class="st9" width="21.9" height="45"/>
<rect x="282.3" y="102" class="st10" width="21.9" height="45"/>
<rect x="304.2" y="102" class="st11" width="21.9" height="45"/>
<rect x="326.1" y="102" class="st12" width="21.8" height="45"/>
<rect x="347.9" y="102" class="st13" width="22.1" height="45"/>
<rect x="41.2" y="180" class="st14" width="21.9" height="45"/>
<rect x="63.1" y="180" class="st15" width="21.9" height="45"/>
<rect x="85" y="180" class="st16" width="21.9" height="45"/>
<rect x="106.9" y="180" class="st17" width="21.9" height="45"/>
<rect x="128.8" y="180" class="st18" width="21.9" height="45"/>
<rect x="150.8" y="180" class="st19" width="21.9" height="45"/>
<rect x="172.7" y="180" class="st20" width="21.9" height="45"/>
<rect x="194.6" y="180" class="st21" width="21.9" height="45"/>
<rect x="216.5" y="180" class="st22" width="21.9" height="45"/>
<rect x="238.4" y="180" class="st23" width="21.9" height="45"/>
<rect x="260.4" y="180" class="st24" width="21.9" height="45"/>
<rect x="282.3" y="180" class="st25" width="21.9" height="45"/>
<rect x="304.2" y="180" class="st26" width="21.9" height="45"/>
<rect x="326.1" y="180" class="st27" width="21.8" height="45"/>
<rect x="347.9" y="180" class="st28" width="22.1" height="45"/>
<g>
	<path d="M41.8,163v-4.2h0.5l1.5,2.3l1.5-2.3h0.5v4.2h-0.5v-3.4l-1.5,2.2h0l-1.5-2.2v3.4H41.8z"/>
	<path d="M50.3,162.4c-0.4,0.4-0.9,0.6-1.5,0.6s-1.1-0.2-1.5-0.6c-0.4-0.4-0.6-0.9-0.6-1.5c0-0.6,0.2-1.1,0.6-1.5
		c0.4-0.4,0.9-0.6,1.5-0.6s1.1,0.2,1.5,0.6c0.4,0.4,0.6,0.9,0.6,1.5C50.9,161.5,50.7,162,50.3,162.4z M47.6,162.1
		c0.3,0.3,0.7,0.5,1.2,0.5c0.5,0,0.9-0.2,1.2-0.5c0.3-0.3,0.5-0.7,0.5-1.2c0-0.5-0.2-0.9-0.5-1.2c-0.3-0.3-0.7-0.5-1.2-0.5
		s-0.9,0.2-1.2,0.5c-0.3,0.3-0.5,0.7-0.5,1.2C47.1,161.4,47.3,161.8,47.6,162.1z"/>
	<path d="M51.8,163v-4.2h0.5v1.9h2.4v-1.9h0.5v4.2h-0.5v-1.9h-2.4v1.9H51.8z"/>
	<path d="M59.7,162.4c-0.4,0.4-0.9,0.6-1.5,0.6s-1.1-0.2-1.5-0.6c-0.4-0.4-0.6-0.9-0.6-1.5c0-0.6,0.2-1.1,0.6-1.5
		c0.4-0.4,0.9-0.6,1.5-0.6s1.1,0.2,1.5,0.6c0.4,0.4,0.6,0.9,0.6,1.5C60.3,161.5,60.1,162,59.7,162.4z M57,162.1
		c0.3,0.3,0.7,0.5,1.2,0.5c0.5,0,0.9-0.2,1.2-0.5c0.3-0.3,0.5-0.7,0.5-1.2c0-0.5-0.2-0.9-0.5-1.2c-0.3-0.3-0.7-0.5-1.2-0.5
		s-0.9,0.2-1.2,0.5c-0.3,0.3-0.5,0.7-0.5,1.2C56.5,161.4,56.7,161.8,57,162.1z"/>
	<path d="M60.7,163l1.6-2.1l-1.6-2.1h0.6l1.3,1.7l1.3-1.7h0.6l-1.6,2.1l1.6,2.1h-0.6l-1.3-1.8l-1.3,1.8H60.7z"/>
	<path d="M65.2,163v-4.2h1.6c0.5,0,0.9,0.1,1.1,0.4c0.3,0.2,0.4,0.6,0.4,1c0,0.4-0.2,0.8-0.5,1c-0.3,0.2-0.7,0.4-1.2,0.4h-1v1.5
		H65.2z M65.7,161.1h1c0.3,0,0.6-0.1,0.8-0.3s0.3-0.4,0.3-0.7c0-0.3-0.1-0.5-0.3-0.7c-0.2-0.2-0.5-0.2-0.8-0.2h-1.1V161.1z"/>
	<path d="M72.6,162.4c-0.4,0.4-0.9,0.6-1.5,0.6s-1.1-0.2-1.5-0.6c-0.4-0.4-0.6-0.9-0.6-1.5c0-0.6,0.2-1.1,0.6-1.5
		c0.4-0.4,0.9-0.6,1.5-0.6s1.1,0.2,1.5,0.6c0.4,0.4,0.6,0.9,0.6,1.5C73.2,161.5,73,162,72.6,162.4z M69.9,162.1
		c0.3,0.3,0.7,0.5,1.2,0.5c0.5,0,0.9-0.2,1.2-0.5c0.3-0.3,0.5-0.7,0.5-1.2c0-0.5-0.2-0.9-0.5-1.2c-0.3-0.3-0.7-0.5-1.2-0.5
		s-0.9,0.2-1.2,0.5c-0.3,0.3-0.5,0.7-0.5,1.2C69.4,161.4,69.5,161.8,69.9,162.1z"/>
	<path d="M74.1,163v-4.2h0.5l1.5,2.3l1.5-2.3h0.5v4.2h-0.5v-3.4l-1.5,2.2h0l-1.5-2.2v3.4H74.1z"/>
	<path d="M79.1,163v-4.2h0.5v1.9H82v-1.9h0.5v4.2H82v-1.9h-2.4v1.9H79.1z"/>
	<path d="M83.6,163v-4.2H84v1.6h1.1c0.5,0,0.9,0.1,1.2,0.3c0.3,0.2,0.5,0.5,0.5,0.9c0,0.4-0.1,0.7-0.4,1c-0.3,0.2-0.7,0.4-1.1,0.4
		H83.6z M84,162.6h1.1c0.3,0,0.6-0.1,0.8-0.2c0.2-0.2,0.3-0.4,0.3-0.7c0-0.3-0.1-0.5-0.3-0.6c-0.2-0.1-0.5-0.2-0.8-0.2H84V162.6z
		 M87.3,163v-4.2h0.5v4.2H87.3z"/>
	<path d="M88.8,163v-4.2h0.5v3.5l2.5-3.5h0.5v4.2h-0.5v-3.5l-2.5,3.5H88.8z M91.1,158.2c-0.2,0.1-0.3,0.2-0.6,0.2
		c-0.2,0-0.4-0.1-0.6-0.2c-0.2-0.1-0.3-0.3-0.3-0.5l0.3-0.1c0.1,0.3,0.3,0.4,0.5,0.4c0.3,0,0.5-0.1,0.5-0.4l0.3,0.1
		C91.4,157.9,91.3,158.1,91.1,158.2z"/>
	<path d="M95,163v-4.2h1.6c0.5,0,0.9,0.1,1.1,0.4c0.3,0.2,0.4,0.6,0.4,1c0,0.4-0.2,0.8-0.5,1c-0.3,0.2-0.7,0.4-1.2,0.4h-1v1.5H95z
		 M95.5,161.1h1c0.3,0,0.6-0.1,0.8-0.3s0.3-0.4,0.3-0.7c0-0.3-0.1-0.5-0.3-0.7c-0.2-0.2-0.5-0.2-0.8-0.2h-1.1V161.1z"/>
	<path d="M98.5,163l1.3-1.7c-0.3-0.1-0.6-0.2-0.8-0.4c-0.2-0.2-0.3-0.5-0.3-0.8c0-0.4,0.1-0.6,0.3-0.8c0.3-0.3,0.7-0.4,1.2-0.4h1.8
		v4.2h-0.5v-1.6h-1.2l-1.2,1.6H98.5z M100.3,161h1.3v-1.8h-1.3c-0.3,0-0.6,0.1-0.8,0.2c-0.2,0.2-0.3,0.4-0.3,0.6
		c0,0.3,0.1,0.5,0.3,0.6S99.9,161,100.3,161z"/>
	<path d="M102.6,163.9v-1.4h0.4c0.4-0.7,0.6-1.7,0.6-3v-0.7h2.7v3.8h0.5l-0.1,1.4h-0.4V163H103l-0.1,0.9H102.6z M103.5,162.6h2.4
		v-3.3h-1.8v0.5c0,0.6,0,1.1-0.2,1.6C103.8,161.9,103.7,162.3,103.5,162.6z"/>
</g>
<g>
	<path d="M41.8,241v-4.2h0.5v1.9h2.4v-1.9h0.5v4.2h-0.5v-1.9h-2.4v1.9H41.8z"/>
	<path d="M49.5,241.1c-0.6,0-1-0.2-1.4-0.6c-0.4-0.4-0.6-0.8-0.6-1.4h-0.9v1.9h-0.5v-4.2h0.5v1.9h0.9c0-0.6,0.3-1,0.6-1.4
		s0.8-0.6,1.4-0.6c0.6,0,1.1,0.2,1.4,0.6s0.6,0.9,0.6,1.5c0,0.6-0.2,1.1-0.6,1.6S50.1,241.1,49.5,241.1z M48.4,240.1
		c0.3,0.3,0.6,0.5,1.1,0.5c0.4,0,0.8-0.2,1.1-0.5c0.3-0.3,0.4-0.7,0.4-1.2c0-0.5-0.1-0.9-0.4-1.2c-0.3-0.3-0.6-0.5-1.1-0.5
		c-0.4,0-0.8,0.2-1.1,0.5c-0.3,0.3-0.4,0.7-0.4,1.2C48,239.4,48.1,239.8,48.4,240.1z"/>
	<path d="M51.7,241.9v-1.4h0.4c0.4-0.7,0.6-1.7,0.6-3v-0.7h2.7v3.8h0.5l-0.1,1.4h-0.4V241h-3.4l-0.1,0.9H51.7z M52.7,240.6H55v-3.3
		h-1.8v0.5c0,0.6,0,1.1-0.2,1.6C53,239.9,52.8,240.3,52.7,240.6z"/>
	<path d="M60.1,240.4c-0.4,0.4-0.9,0.6-1.5,0.6s-1.1-0.2-1.5-0.6c-0.4-0.4-0.6-0.9-0.6-1.5c0-0.6,0.2-1.1,0.6-1.5
		c0.4-0.4,0.9-0.6,1.5-0.6s1.1,0.2,1.5,0.6c0.4,0.4,0.6,0.9,0.6,1.5C60.7,239.5,60.5,240,60.1,240.4z M57.4,240.1
		c0.3,0.3,0.7,0.5,1.2,0.5c0.5,0,0.9-0.2,1.2-0.5c0.3-0.3,0.5-0.7,0.5-1.2c0-0.5-0.2-0.9-0.5-1.2c-0.3-0.3-0.7-0.5-1.2-0.5
		s-0.9,0.2-1.2,0.5c-0.3,0.3-0.5,0.7-0.5,1.2C56.9,239.4,57.1,239.8,57.4,240.1z"/>
	<path d="M61.6,241v-4.2h1.8c0.5,0,0.9,0.1,1.1,0.4c0.2,0.2,0.3,0.4,0.3,0.7c0,0.5-0.2,0.8-0.7,1c0.6,0.2,0.9,0.5,0.9,1
		c0,0.4-0.1,0.6-0.4,0.8c-0.3,0.2-0.6,0.3-1.1,0.3H61.6z M62.1,238.7h1.2c0.3,0,0.5-0.1,0.7-0.2c0.2-0.1,0.3-0.3,0.3-0.6
		c0-0.2-0.1-0.4-0.2-0.5s-0.4-0.2-0.7-0.2h-1.3V238.7z M62.1,240.6h1.4c0.3,0,0.6-0.1,0.8-0.2c0.2-0.1,0.3-0.3,0.3-0.6
		c0-0.2-0.1-0.4-0.3-0.5c-0.2-0.1-0.5-0.2-0.8-0.2h-1.3V240.6z"/>
	<path d="M65.8,241v-4.2h0.5v1.6h1.1c0.5,0,0.9,0.1,1.2,0.3c0.3,0.2,0.5,0.5,0.5,0.9c0,0.4-0.1,0.7-0.4,1c-0.3,0.2-0.7,0.4-1.1,0.4
		H65.8z M66.3,240.6h1.1c0.3,0,0.6-0.1,0.8-0.2c0.2-0.2,0.3-0.4,0.3-0.7c0-0.3-0.1-0.5-0.3-0.6c-0.2-0.1-0.5-0.2-0.8-0.2h-1.1V240.6
		z M69.5,241v-4.2H70v4.2H69.5z"/>
	<path d="M71.1,241v-4.2h0.5v3.5l2.5-3.5h0.5v4.2H74v-3.5l-2.5,3.5H71.1z M73.4,236.2c-0.2,0.1-0.3,0.2-0.6,0.2
		c-0.2,0-0.4-0.1-0.6-0.2c-0.2-0.1-0.3-0.3-0.3-0.5l0.3-0.1c0.1,0.3,0.3,0.4,0.5,0.4c0.3,0,0.5-0.1,0.5-0.4l0.3,0.1
		C73.6,235.9,73.5,236.1,73.4,236.2z"/>
	<path d="M77.2,241v-4.2h1.6c0.5,0,0.9,0.1,1.1,0.4c0.3,0.2,0.4,0.6,0.4,1c0,0.4-0.2,0.8-0.5,1c-0.3,0.2-0.7,0.4-1.2,0.4h-1v1.5
		H77.2z M77.7,239.1h1c0.3,0,0.6-0.1,0.8-0.3s0.3-0.4,0.3-0.7c0-0.3-0.1-0.5-0.3-0.7c-0.2-0.2-0.5-0.2-0.8-0.2h-1.1V239.1z"/>
	<path d="M80.8,241l1.3-1.7c-0.3-0.1-0.6-0.2-0.8-0.4c-0.2-0.2-0.3-0.5-0.3-0.8c0-0.4,0.1-0.6,0.3-0.8c0.3-0.3,0.7-0.4,1.2-0.4h1.8
		v4.2h-0.5v-1.6h-1.2l-1.2,1.6H80.8z M82.5,239h1.3v-1.8h-1.3c-0.3,0-0.6,0.1-0.8,0.2c-0.2,0.2-0.3,0.4-0.3,0.6
		c0,0.3,0.1,0.5,0.3,0.6S82.2,239,82.5,239z"/>
	<path d="M84.8,241.9v-1.4h0.4c0.4-0.7,0.6-1.7,0.6-3v-0.7h2.7v3.8h0.5l-0.1,1.4h-0.4V241h-3.4l-0.1,0.9H84.8z M85.8,240.6h2.4v-3.3
		h-1.8v0.5c0,0.6,0,1.1-0.2,1.6C86.1,239.9,85.9,240.3,85.8,240.6z"/>
</g>
<g>
	<rect x="235" y="387" class="st29" width="67.5" height="45"/>
	<rect x="302.5" y="387" class="st30" width="67.5" height="45"/>
</g>
<g>
	<path d="M235.5,450c-0.2,0-0.4,0-0.5-0.1l0.1-0.4c0.1,0,0.2,0.1,0.4,0.1c0.1,0,0.2,0,0.2,0c0.1,0,0.1-0.1,0.2-0.2s0.2-0.3,0.2-0.5
		s0.1-0.5,0.1-0.9c0-0.4,0.1-0.9,0.1-1.4v-0.8h2.7v4.2h-0.5v-3.8h-1.8v0.5c0,0.6,0,1.1-0.1,1.5s-0.1,0.7-0.2,1
		c-0.1,0.2-0.2,0.4-0.3,0.6c-0.1,0.1-0.2,0.2-0.3,0.3C235.8,450,235.7,450,235.5,450z"/>
	<path d="M240.1,450v-4.2h3v0.4h-2.6v1.4h2.3v0.4h-2.3v1.5h2.6v0.4H240.1z"/>
	<path d="M244,450v-4.2h2.7v0.4h-2.2v3.8H244z"/>
	<path d="M247.4,450v-4.2h0.5v2.5l2.4-2.5h0.6l-1.8,1.8l1.9,2.4h-0.6l-1.6-2l-0.9,0.9v1.1H247.4z"/>
	<path d="M251.6,450v-4.2h0.5v3.5l2.5-3.5h0.5v4.2h-0.5v-3.5L252,450H251.6z"/>
	<path d="M256.1,450v-4.2h0.5v3.5l2.5-3.5h0.5v4.2H259v-3.5l-2.5,3.5H256.1z M258.4,445.2c-0.2,0.1-0.3,0.2-0.6,0.2
		c-0.2,0-0.4-0.1-0.6-0.2c-0.2-0.1-0.3-0.3-0.3-0.5l0.3-0.1c0.1,0.3,0.3,0.4,0.5,0.4c0.3,0,0.5-0.1,0.5-0.4l0.3,0.1
		C258.6,444.9,258.5,445.1,258.4,445.2z"/>
	<path d="M259.8,450.8l2.8-5.6h0.4l-2.8,5.6H259.8z"/>
	<path d="M264.6,450v-3.8h-1.4v-0.4h3.3v0.4h-1.4v3.8H264.6z"/>
	<path d="M266.9,450l1.3-1.7c-0.3-0.1-0.6-0.2-0.8-0.4c-0.2-0.2-0.3-0.5-0.3-0.8c0-0.4,0.1-0.6,0.3-0.8c0.3-0.3,0.7-0.4,1.2-0.4h1.8
		v4.2h-0.5v-1.6h-1.2l-1.2,1.6H266.9z M268.6,448h1.3v-1.8h-1.3c-0.3,0-0.6,0.1-0.8,0.2c-0.2,0.2-0.3,0.4-0.3,0.6
		c0,0.3,0.1,0.5,0.3,0.6S268.3,448,268.6,448z"/>
	<path d="M271,450l1.7-2.4l-1.6-1.8h0.6l2.2,2.5v-2.5h0.5v2.5l2.2-2.5h0.6l-1.6,1.8l1.7,2.4h-0.6l-1.5-2l-0.8,0.9v1.1h-0.5v-1.1
		l-0.8-0.9l-1.5,2H271z"/>
	<path d="M277.9,450v-4.2h3v0.4h-2.6v1.4h2.3v0.4h-2.3v1.5h2.6v0.4H277.9z"/>
	<path d="M281.7,450c-0.2,0-0.4,0-0.5-0.1l0.1-0.4c0.1,0,0.2,0.1,0.4,0.1c0.1,0,0.2,0,0.2,0c0.1,0,0.1-0.1,0.2-0.2s0.2-0.3,0.2-0.5
		c0.1-0.2,0.1-0.5,0.1-0.9c0-0.4,0.1-0.9,0.1-1.4v-0.8h2.7v4.2h-0.5v-3.8h-1.8v0.5c0,0.6,0,1.1-0.1,1.5s-0.1,0.7-0.2,1
		c-0.1,0.2-0.2,0.4-0.3,0.6c-0.1,0.1-0.2,0.2-0.3,0.3C282,450,281.8,450,281.7,450z"/>
	<path d="M286.3,450v-4.2h0.5v1.6h1.1c0.5,0,0.9,0.1,1.2,0.3c0.3,0.2,0.5,0.5,0.5,0.9c0,0.4-0.1,0.7-0.4,1c-0.3,0.2-0.7,0.4-1.1,0.4
		H286.3z M286.7,449.6h1.1c0.3,0,0.6-0.1,0.8-0.2c0.2-0.2,0.3-0.4,0.3-0.7c0-0.3-0.1-0.5-0.3-0.6c-0.2-0.1-0.5-0.2-0.8-0.2h-1.1
		V449.6z M290,450v-4.2h0.5v4.2H290z"/>
	<path d="M291.5,450v-4.2h0.5v3.5l2.5-3.5h0.5v4.2h-0.5v-3.5L292,450H291.5z M293.8,445.2c-0.2,0.1-0.3,0.2-0.6,0.2
		c-0.2,0-0.4-0.1-0.6-0.2c-0.2-0.1-0.3-0.3-0.3-0.5l0.3-0.1c0.1,0.3,0.3,0.4,0.5,0.4c0.3,0,0.5-0.1,0.5-0.4l0.3,0.1
		C294.1,444.9,294,445.1,293.8,445.2z"/>
</g>
<g>
	<path class="st31" d="M42.4,286.6v-8.4h0.6v7.5l5.5-7.5h0.6v8.4h-0.6v-7.5l-5.4,7.5H42.4z"/>
	<path class="st31" d="M51.5,286.6v-6.1h4v0.5h-3.5v5.6H51.5z"/>
	<path class="st31" d="M57,288.5v-8h0.6v1.4c0.7-1,1.5-1.5,2.5-1.5c0.4,0,0.7,0.1,1.1,0.2s0.7,0.4,1,0.6s0.5,0.6,0.7,1
		s0.3,0.9,0.3,1.3c0,0.5-0.1,0.9-0.3,1.3s-0.4,0.7-0.7,1s-0.6,0.5-1,0.6s-0.7,0.2-1.1,0.2c-1,0-1.9-0.5-2.5-1.5v3.2H57z M57.6,283.5
		c0,0.5,0.1,1,0.4,1.4s0.5,0.7,0.9,0.9s0.8,0.3,1.2,0.3c0.7,0,1.3-0.2,1.7-0.7s0.7-1.1,0.7-1.9c0-0.4-0.1-0.8-0.2-1.1
		s-0.3-0.6-0.5-0.8s-0.5-0.4-0.8-0.5s-0.6-0.2-0.9-0.2c-0.3,0-0.6,0.1-0.9,0.2s-0.6,0.3-0.8,0.5s-0.4,0.5-0.6,0.8
		S57.6,283.2,57.6,283.5z"/>
	<path class="st31" d="M64.4,284.8c0-0.6,0.2-1.1,0.7-1.5s1.1-0.5,1.9-0.5c0.7,0,1.4,0.1,2,0.3v-0.3c0-0.6-0.2-1.1-0.5-1.4
		s-0.8-0.5-1.5-0.5c-0.6,0-1.3,0.2-1.9,0.5l-0.2-0.5c0.8-0.4,1.5-0.5,2.2-0.5c0.8,0,1.5,0.2,1.9,0.7c0.4,0.4,0.6,1,0.6,1.7v3.8h-0.6
		v-1c-0.2,0.3-0.6,0.6-0.9,0.8s-0.9,0.3-1.4,0.3c-0.4,0-0.8-0.1-1.2-0.2s-0.6-0.4-0.9-0.7S64.4,285.2,64.4,284.8z M65.1,284.8
		c0,0.4,0.2,0.8,0.5,1s0.7,0.4,1.3,0.4c0.6,0,1.2-0.2,1.6-0.5s0.7-0.8,0.7-1.4v-0.7c-0.7-0.2-1.4-0.3-2.1-0.3
		c-0.6,0-1.1,0.1-1.5,0.4S65.1,284.3,65.1,284.8z"/>
	<path class="st31" d="M75.4,286.6v-6.1H76v5.6h3.9v-5.6h0.6v5.6h1l-0.1,2.3h-0.5v-1.7H75.4z"/>
	<path class="st31" d="M83,286.6v-6.1h2.8c0.6,0,1.1,0.1,1.4,0.4s0.5,0.6,0.5,1.1c0,0.6-0.3,1.1-1,1.4c0.4,0.1,0.7,0.3,1,0.5
		s0.4,0.6,0.4,1c0,0.5-0.2,0.9-0.6,1.2c-0.4,0.3-0.9,0.5-1.6,0.5H83z M83.5,283.2h2.1c0.4,0,0.8-0.1,1.1-0.3s0.4-0.5,0.4-0.9
		c0-0.3-0.1-0.6-0.4-0.7s-0.6-0.3-1.1-0.3h-2.2V283.2z M83.5,286.1h2.3c0.5,0,0.9-0.1,1.2-0.3s0.4-0.5,0.4-0.9
		c0-0.4-0.2-0.6-0.5-0.8s-0.8-0.3-1.3-0.3h-2.1V286.1z"/>
	<path class="st31" d="M89.5,283.5c0-0.4,0.1-0.9,0.2-1.2s0.3-0.7,0.6-1s0.6-0.5,0.9-0.7s0.7-0.3,1.2-0.3c0.6,0,1.1,0.1,1.5,0.4
		s0.8,0.7,1,1.2s0.3,1,0.3,1.6c0,0.1,0,0.2,0,0.2h-5.1c0.1,0.7,0.3,1.3,0.8,1.8s1,0.7,1.6,0.7c0.8,0,1.5-0.3,2.1-1l0.4,0.4
		c-0.3,0.4-0.7,0.7-1.1,0.9s-0.9,0.3-1.4,0.3c-0.4,0-0.8-0.1-1.1-0.2s-0.7-0.4-1-0.6s-0.5-0.6-0.7-1S89.5,284,89.5,283.5z
		 M90.1,283.2h4.5c0-0.3-0.1-0.6-0.2-0.9s-0.2-0.5-0.4-0.8s-0.4-0.4-0.7-0.5s-0.6-0.2-0.9-0.2c-0.6,0-1.1,0.2-1.5,0.7
		S90.2,282.6,90.1,283.2z"/>
	<path class="st31" d="M95.9,281v-0.5h5.2v0.5h-2.3v5.6h-0.6V281H95.9z"/>
	<path class="st31" d="M101.8,284.8c0-0.6,0.2-1.1,0.7-1.5s1.1-0.5,1.9-0.5c0.7,0,1.4,0.1,2,0.3v-0.3c0-0.6-0.2-1.1-0.5-1.4
		s-0.8-0.5-1.5-0.5c-0.6,0-1.3,0.2-1.9,0.5l-0.2-0.5c0.8-0.4,1.5-0.5,2.2-0.5c0.8,0,1.5,0.2,1.9,0.7c0.4,0.4,0.6,1,0.6,1.7v3.8h-0.6
		v-1c-0.2,0.3-0.6,0.6-0.9,0.8s-0.9,0.3-1.4,0.3c-0.4,0-0.8-0.1-1.2-0.2s-0.6-0.4-0.9-0.7S101.8,285.2,101.8,284.8z M102.5,284.8
		c0,0.4,0.2,0.8,0.5,1s0.7,0.4,1.3,0.4c0.6,0,1.2-0.2,1.6-0.5s0.7-0.8,0.7-1.4v-0.7c-0.7-0.2-1.4-0.3-2.1-0.3
		c-0.6,0-1.1,0.1-1.5,0.4S102.5,284.3,102.5,284.8z"/>
</g>
<g>
	<path class="st31" d="M41.8,85.2v-0.6h6.5v0.6h-2.9V93h-0.6v-7.8H41.8z"/>
	<path class="st31" d="M48.4,89.9c0-0.4,0.1-0.8,0.2-1.2s0.4-0.7,0.7-1s0.6-0.5,1-0.7s0.8-0.3,1.3-0.3c0.6,0,1.1,0.1,1.6,0.4
		s0.9,0.7,1.1,1.2s0.4,1,0.4,1.6c0,0.6-0.1,1.1-0.4,1.6s-0.6,0.9-1.1,1.2s-1,0.4-1.6,0.4c-0.4,0-0.9-0.1-1.2-0.3s-0.7-0.4-1-0.7
		s-0.5-0.6-0.6-1S48.4,90.4,48.4,89.9z M49.1,89.9c0,0.7,0.2,1.4,0.7,1.9s1.1,0.8,1.8,0.8c0.4,0,0.9-0.1,1.2-0.4s0.7-0.6,0.9-1
		s0.3-0.8,0.3-1.3c0-0.7-0.2-1.4-0.7-1.9s-1.1-0.8-1.8-0.8c-0.5,0-0.9,0.1-1.3,0.4s-0.7,0.6-0.9,1S49.1,89.5,49.1,89.9z"/>
	<path class="st31" d="M56.5,93v-6.1h0.6v2.7h4.1v-2.7h0.6V93h-0.6v-2.9h-4.1V93H56.5z"/>
	<path class="st31" d="M63.5,91.2c0-0.6,0.2-1.1,0.7-1.5s1.1-0.5,1.9-0.5c0.7,0,1.4,0.1,2,0.3v-0.3c0-0.6-0.2-1.1-0.5-1.4
		s-0.8-0.5-1.5-0.5c-0.6,0-1.3,0.2-1.9,0.5L64,87.3c0.8-0.4,1.5-0.5,2.2-0.5c0.8,0,1.5,0.2,1.9,0.7c0.4,0.4,0.6,1,0.6,1.7V93h-0.6
		v-1c-0.2,0.3-0.6,0.6-0.9,0.8s-0.9,0.3-1.4,0.3c-0.4,0-0.8-0.1-1.2-0.2s-0.6-0.4-0.9-0.7S63.5,91.6,63.5,91.2z M64.1,91.2
		c0,0.4,0.2,0.8,0.5,1s0.7,0.4,1.3,0.4c0.6,0,1.2-0.2,1.6-0.5s0.7-0.8,0.7-1.4V90c-0.7-0.2-1.4-0.3-2.1-0.3c-0.6,0-1.1,0.1-1.5,0.4
		S64.1,90.7,64.1,91.2z"/>
	<path class="st31" d="M69.8,93l0.1-0.5c0.2,0.1,0.3,0.1,0.5,0.1c0.1,0,0.2,0,0.3,0s0.2-0.1,0.3-0.2s0.2-0.2,0.3-0.3
		s0.1-0.4,0.2-0.6s0.1-0.6,0.2-1s0.1-0.8,0.1-1.4s0-1.2,0-1.9v-0.3H76V93h-0.6v-5.6h-3v0.2c0,0.7,0,1.3-0.1,1.9s-0.1,1-0.1,1.4
		c-0.1,0.4-0.1,0.7-0.2,1c-0.1,0.3-0.2,0.5-0.3,0.6c-0.1,0.2-0.2,0.3-0.4,0.4s-0.3,0.1-0.4,0.2s-0.3,0-0.5,0
		C70.3,93.1,70,93.1,69.8,93z"/>
	<path class="st31" d="M78.2,93v-6.1h0.6v2.3h1.8c0.3,0,0.6,0,0.9,0.1s0.5,0.2,0.7,0.3s0.4,0.3,0.5,0.6s0.2,0.5,0.2,0.8
		c0,0.6-0.2,1.1-0.6,1.4S81.4,93,80.7,93H78.2z M78.8,92.5h1.8c0.5,0,0.9-0.1,1.2-0.4s0.5-0.6,0.5-1c0-0.4-0.2-0.7-0.5-1
		s-0.7-0.3-1.3-0.3h-1.8V92.5z"/>
	<path class="st31" d="M84.5,93v-6.1h0.6v2.7h4.1v-2.7h0.6V93h-0.6v-2.9h-4.1V93H84.5z"/>
	<path class="st31" d="M91.5,91.2c0-0.6,0.2-1.1,0.7-1.5s1.1-0.5,1.9-0.5c0.7,0,1.4,0.1,2,0.3v-0.3c0-0.6-0.2-1.1-0.5-1.4
		s-0.8-0.5-1.5-0.5c-0.6,0-1.3,0.2-1.9,0.5l-0.2-0.5c0.8-0.4,1.5-0.5,2.2-0.5c0.8,0,1.5,0.2,1.9,0.7c0.4,0.4,0.6,1,0.6,1.7V93h-0.6
		v-1c-0.2,0.3-0.6,0.6-0.9,0.8s-0.9,0.3-1.4,0.3c-0.4,0-0.8-0.1-1.2-0.2s-0.6-0.4-0.9-0.7S91.5,91.6,91.5,91.2z M92.1,91.2
		c0,0.4,0.2,0.8,0.5,1s0.7,0.4,1.3,0.4c0.6,0,1.2-0.2,1.6-0.5s0.7-0.8,0.7-1.4V90c-0.7-0.2-1.4-0.3-2.1-0.3c-0.6,0-1.1,0.1-1.5,0.4
		S92.1,90.7,92.1,91.2z"/>
	<path class="st31" d="M98.4,93l1.9-2.4c-0.5-0.1-0.9-0.3-1.3-0.6c-0.3-0.3-0.5-0.7-0.5-1.2c0-0.5,0.2-1,0.6-1.3s0.9-0.5,1.6-0.5
		h2.7V93H103v-2.3h-2L99.1,93H98.4z M99.2,88.7c0,0.4,0.2,0.8,0.5,1s0.7,0.4,1.2,0.4h2v-2.7h-2.1c-0.5,0-0.9,0.1-1.2,0.4
		S99.2,88.3,99.2,88.7z"/>
	<path class="st31" d="M109.4,94.9v-8h0.6v1.4c0.7-1,1.5-1.5,2.5-1.5c0.4,0,0.7,0.1,1.1,0.2s0.7,0.4,1,0.6s0.5,0.6,0.7,1
		s0.3,0.9,0.3,1.3c0,0.5-0.1,0.9-0.3,1.3s-0.4,0.7-0.7,1s-0.6,0.5-1,0.6s-0.7,0.2-1.1,0.2c-1,0-1.9-0.5-2.5-1.5v3.2H109.4z
		 M109.9,90c0,0.5,0.1,1,0.4,1.4s0.5,0.7,0.9,0.9s0.8,0.3,1.2,0.3c0.7,0,1.3-0.2,1.7-0.7s0.7-1.1,0.7-1.9c0-0.4-0.1-0.8-0.2-1.1
		s-0.3-0.6-0.5-0.8s-0.5-0.4-0.8-0.5s-0.6-0.2-0.9-0.2c-0.3,0-0.6,0.1-0.9,0.2s-0.6,0.3-0.8,0.5s-0.4,0.5-0.6,0.8
		S109.9,89.6,109.9,90z"/>
	<path class="st31" d="M116.8,91.2c0-0.6,0.2-1.1,0.7-1.5s1.1-0.5,1.9-0.5c0.7,0,1.4,0.1,2,0.3v-0.3c0-0.6-0.2-1.1-0.5-1.4
		s-0.8-0.5-1.5-0.5c-0.6,0-1.3,0.2-1.9,0.5l-0.2-0.5c0.8-0.4,1.5-0.5,2.2-0.5c0.8,0,1.5,0.2,1.9,0.7c0.4,0.4,0.6,1,0.6,1.7V93h-0.6
		v-1c-0.2,0.3-0.6,0.6-0.9,0.8s-0.9,0.3-1.4,0.3c-0.4,0-0.8-0.1-1.2-0.2s-0.6-0.4-0.9-0.7S116.8,91.6,116.8,91.2z M117.4,91.2
		c0,0.4,0.2,0.8,0.5,1s0.7,0.4,1.3,0.4c0.6,0,1.2-0.2,1.6-0.5s0.7-0.8,0.7-1.4V90c-0.7-0.2-1.4-0.3-2.1-0.3c-0.6,0-1.1,0.1-1.5,0.4
		S117.4,90.7,117.4,91.2z"/>
	<path class="st31" d="M123.8,89.9c0-0.6,0.1-1.1,0.4-1.6s0.6-0.9,1.1-1.2s1-0.4,1.6-0.4c1,0,1.8,0.4,2.4,1.1l-0.4,0.4
		c-0.3-0.3-0.6-0.6-0.9-0.7s-0.7-0.3-1.1-0.3c-0.4,0-0.9,0.1-1.2,0.4s-0.7,0.6-0.9,1s-0.3,0.9-0.3,1.3c0,0.7,0.2,1.4,0.7,1.9
		s1.1,0.8,1.8,0.8c0.7,0,1.4-0.3,2-1l0.4,0.4c-0.3,0.4-0.7,0.7-1.1,0.9s-0.9,0.3-1.4,0.3c-0.6,0-1.1-0.1-1.6-0.4s-0.9-0.7-1.1-1.2
		S123.8,90.5,123.8,89.9z"/>
	<path class="st31" d="M130.3,87.4v-0.5h5.2v0.5h-2.3V93h-0.6v-5.6H130.3z"/>
	<path class="st31" d="M136.4,93l1.9-2.4c-0.5-0.1-0.9-0.3-1.3-0.6c-0.3-0.3-0.5-0.7-0.5-1.2c0-0.5,0.2-1,0.6-1.3s0.9-0.5,1.6-0.5
		h2.7V93H141v-2.3h-2l-1.8,2.3H136.4z M137.2,88.7c0,0.4,0.2,0.8,0.5,1s0.7,0.4,1.2,0.4h2v-2.7h-2.1c-0.5,0-0.9,0.1-1.2,0.4
		S137.2,88.3,137.2,88.7z"/>
	<path class="st31" d="M143,93l2.6-3.5l-2.4-2.6h0.7l3.5,3.9v-3.9h0.6v3.9l3.5-3.9h0.7l-2.4,2.6l2.6,3.5h-0.7l-2.3-3l-1.4,1.5V93
		h-0.6v-1.5l-1.4-1.6l-2.3,3.1H143z"/>
	<path class="st31" d="M153.8,93v-6.1h0.6v3.9l3.8-3.9h0.8l-2.7,2.7l2.8,3.4h-0.7l-2.4-3l-1.5,1.5V93H153.8z"/>
	<path class="st31" d="M159.7,91.2c0-0.6,0.2-1.1,0.7-1.5s1.1-0.5,1.9-0.5c0.7,0,1.4,0.1,2,0.3v-0.3c0-0.6-0.2-1.1-0.5-1.4
		s-0.8-0.5-1.5-0.5c-0.6,0-1.3,0.2-1.9,0.5l-0.2-0.5c0.8-0.4,1.5-0.5,2.2-0.5c0.8,0,1.5,0.2,1.9,0.7c0.4,0.4,0.6,1,0.6,1.7V93h-0.6
		v-1c-0.2,0.3-0.6,0.6-0.9,0.8s-0.9,0.3-1.4,0.3c-0.4,0-0.8-0.1-1.2-0.2s-0.6-0.4-0.9-0.7S159.7,91.6,159.7,91.2z M160.4,91.2
		c0,0.4,0.2,0.8,0.5,1s0.7,0.4,1.3,0.4c0.6,0,1.2-0.2,1.6-0.5s0.7-0.8,0.7-1.4V90c-0.7-0.2-1.4-0.3-2.1-0.3c-0.6,0-1.1,0.1-1.5,0.4
		S160.4,90.7,160.4,91.2z"/>
</g>
<g>
	<path d="M42.9,361.6v-3.8h-1.4v-0.4h3.3v0.4h-1.4v3.8H42.9z"/>
	<path d="M45.5,361.6v-4.2h3v0.4H46v1.4h2.3v0.4H46v1.5h2.6v0.4H45.5z M46.3,357v-0.6h0.5v0.6H46.3z M47.3,357v-0.6h0.5v0.6H47.3z"
		/>
	<path d="M49.4,361.6v-4.2h3.3v4.2h-0.5v-3.8h-2.4v3.8H49.4z"/>
	<path d="M53.7,361.6c-0.2,0-0.4,0-0.5-0.1l0.1-0.4c0.1,0,0.2,0.1,0.4,0.1c0.1,0,0.2,0,0.2,0c0.1,0,0.1-0.1,0.2-0.2s0.2-0.3,0.2-0.5
		c0.1-0.2,0.1-0.5,0.1-0.9c0-0.4,0.1-0.9,0.1-1.4v-0.8h2.7v4.2h-0.5v-3.8H55v0.5c0,0.6,0,1.1-0.1,1.5s-0.1,0.7-0.2,1
		c-0.1,0.2-0.2,0.4-0.3,0.6c-0.1,0.1-0.2,0.2-0.3,0.3C54,361.6,53.9,361.6,53.7,361.6z"/>
	<path d="M58.3,361.6v-4.2h0.5v1.6h1.1c0.5,0,0.9,0.1,1.2,0.3c0.3,0.2,0.5,0.5,0.5,0.9c0,0.4-0.1,0.7-0.4,1
		c-0.3,0.2-0.7,0.4-1.1,0.4H58.3z M58.8,361.2h1.1c0.3,0,0.6-0.1,0.8-0.2c0.2-0.2,0.3-0.4,0.3-0.7c0-0.3-0.1-0.5-0.3-0.6
		c-0.2-0.1-0.5-0.2-0.8-0.2h-1.1V361.2z M62,361.6v-4.2h0.5v4.2H62z"/>
	<path d="M63.5,361.6v-4.2H64v3.5l2.5-3.5H67v4.2h-0.5v-3.5l-2.5,3.5H63.5z M65.9,356.8c-0.2,0.1-0.3,0.2-0.6,0.2
		c-0.2,0-0.4-0.1-0.6-0.2c-0.2-0.1-0.3-0.3-0.3-0.5l0.3-0.1c0.1,0.3,0.3,0.4,0.5,0.4c0.3,0,0.5-0.1,0.5-0.4l0.3,0.1
		C66.1,356.5,66,356.7,65.9,356.8z"/>
	<path d="M67.3,362.4l2.8-5.6h0.4l-2.8,5.6H67.3z"/>
	<path d="M70.6,361.6l1.6-2.1l-1.6-2.1h0.6l1.3,1.7l1.3-1.7h0.6l-1.6,2.1l1.6,2.1h-0.6l-1.3-1.8l-1.3,1.8H70.6z"/>
	<path d="M78.4,361c-0.4,0.4-0.9,0.6-1.5,0.6s-1.1-0.2-1.5-0.6c-0.4-0.4-0.6-0.9-0.6-1.5c0-0.6,0.2-1.1,0.6-1.5
		c0.4-0.4,0.9-0.6,1.5-0.6s1.1,0.2,1.5,0.6c0.4,0.4,0.6,0.9,0.6,1.5C79,360.1,78.8,360.6,78.4,361z M75.7,360.7
		c0.3,0.3,0.7,0.5,1.2,0.5c0.5,0,0.9-0.2,1.2-0.5c0.3-0.3,0.5-0.7,0.5-1.2c0-0.5-0.2-0.9-0.5-1.2c-0.3-0.3-0.7-0.5-1.2-0.5
		s-0.9,0.2-1.2,0.5c-0.3,0.3-0.5,0.7-0.5,1.2C75.2,360,75.4,360.4,75.7,360.7z"/>
	<path d="M79.5,361.6c-0.2,0-0.4,0-0.5-0.1l0.1-0.4c0.1,0,0.2,0.1,0.4,0.1c0.1,0,0.2,0,0.2,0c0.1,0,0.1-0.1,0.2-0.2s0.2-0.3,0.2-0.5
		c0.1-0.2,0.1-0.5,0.1-0.9c0-0.4,0.1-0.9,0.1-1.4v-0.8h2.7v4.2h-0.5v-3.8h-1.8v0.5c0,0.6,0,1.1-0.1,1.5s-0.1,0.7-0.2,1
		c-0.1,0.2-0.2,0.4-0.3,0.6c-0.1,0.1-0.2,0.2-0.3,0.3C79.8,361.6,79.7,361.6,79.5,361.6z"/>
	<path d="M87.6,361c-0.4,0.4-0.9,0.6-1.5,0.6s-1.1-0.2-1.5-0.6c-0.4-0.4-0.6-0.9-0.6-1.5c0-0.6,0.2-1.1,0.6-1.5
		c0.4-0.4,0.9-0.6,1.5-0.6s1.1,0.2,1.5,0.6c0.4,0.4,0.6,0.9,0.6,1.5C88.2,360.1,88,360.6,87.6,361z M84.9,360.7
		c0.3,0.3,0.7,0.5,1.2,0.5c0.5,0,0.9-0.2,1.2-0.5c0.3-0.3,0.5-0.7,0.5-1.2c0-0.5-0.2-0.9-0.5-1.2c-0.3-0.3-0.7-0.5-1.2-0.5
		s-0.9,0.2-1.2,0.5c-0.3,0.3-0.5,0.7-0.5,1.2C84.4,360,84.6,360.4,84.9,360.7z"/>
	<path d="M88.4,362.5v-1.4h0.4c0.4-0.7,0.6-1.7,0.6-3v-0.7h2.7v3.8h0.5l-0.1,1.4h-0.4v-0.9h-3.4l-0.1,0.9H88.4z M89.4,361.2h2.4
		v-3.3H90v0.5c0,0.6,0,1.1-0.2,1.6C89.7,360.5,89.6,360.9,89.4,361.2z"/>
	<path d="M93.4,361.6v-4.2h0.5v1.9h2.4v-1.9h0.5v4.2h-0.5v-1.9h-2.4v1.9H93.4z"/>
	<path d="M97.8,361.6v-4.2h0.5v1.6h1.1c0.5,0,0.9,0.1,1.2,0.3c0.3,0.2,0.5,0.5,0.5,0.9c0,0.4-0.1,0.7-0.4,1
		c-0.3,0.2-0.7,0.4-1.1,0.4H97.8z M98.3,361.2h1.1c0.3,0,0.6-0.1,0.8-0.2c0.2-0.2,0.3-0.4,0.3-0.7c0-0.3-0.1-0.5-0.3-0.6
		c-0.2-0.1-0.5-0.2-0.8-0.2h-1.1V361.2z M101.5,361.6v-4.2h0.5v4.2H101.5z"/>
	<path d="M103,361.6v-4.2h0.5v3.5l2.5-3.5h0.5v4.2H106v-3.5l-2.5,3.5H103z M105.4,356.8c-0.2,0.1-0.3,0.2-0.6,0.2
		c-0.2,0-0.4-0.1-0.6-0.2c-0.2-0.1-0.3-0.3-0.3-0.5l0.3-0.1c0.1,0.3,0.3,0.4,0.5,0.4c0.3,0,0.5-0.1,0.5-0.4l0.3,0.1
		C105.6,356.5,105.5,356.7,105.4,356.8z"/>
</g>
<g>
	<rect x="108.7" y="298.6" class="st32" width="67.5" height="45"/>
	<rect x="41.2" y="298.6" class="st33" width="67.5" height="45"/>
</g>
<g>
	<path d="M44.3,450v-1.8c-0.2,0.1-0.4,0.2-0.7,0.3s-0.5,0.1-0.7,0.1c-0.4,0-0.7-0.1-1-0.3c-0.2-0.2-0.4-0.5-0.4-0.9v-1.6h0.5v1.5
		c0,0.3,0.1,0.5,0.2,0.6c0.2,0.2,0.4,0.2,0.7,0.2c0.4,0,0.8-0.1,1.3-0.4v-2h0.5v4.2H44.3z"/>
	<path d="M45.8,450v-4.2h0.5v3.5l2.5-3.5h0.5v4.2h-0.5v-3.5l-2.5,3.5H45.8z"/>
	<path d="M52.2,450.1c-0.6,0-1.1-0.2-1.5-0.6c-0.4-0.4-0.6-0.9-0.6-1.5c0-0.6,0.2-1.1,0.6-1.5c0.4-0.4,0.9-0.6,1.5-0.6
		c0.4,0,0.7,0.1,0.9,0.2c0.2,0.1,0.5,0.3,0.7,0.5l-0.3,0.3c-0.4-0.4-0.8-0.6-1.3-0.6c-0.5,0-0.9,0.2-1.2,0.5
		c-0.3,0.3-0.5,0.7-0.5,1.2c0,0.5,0.2,0.9,0.5,1.2c0.3,0.3,0.7,0.5,1.2,0.5c0.3,0,0.5,0,0.7-0.1c0.2-0.1,0.4-0.3,0.6-0.5l0.3,0.3
		c-0.2,0.2-0.5,0.4-0.7,0.5C52.9,450,52.6,450.1,52.2,450.1z"/>
	<path d="M55.7,450v-3.8h-1.4v-0.4h3.3v0.4h-1.4v3.8H55.7z"/>
	<path d="M58.4,450v-4.2h0.5v1.6h1.1c0.5,0,0.9,0.1,1.2,0.3c0.3,0.2,0.5,0.5,0.5,0.9c0,0.4-0.1,0.7-0.4,1c-0.3,0.2-0.7,0.4-1.1,0.4
		H58.4z M58.9,449.6H60c0.3,0,0.6-0.1,0.8-0.2c0.2-0.2,0.3-0.4,0.3-0.7c0-0.3-0.1-0.5-0.3-0.6c-0.2-0.1-0.5-0.2-0.8-0.2h-1.1V449.6z
		 M62.1,450v-4.2h0.5v4.2H62.1z"/>
	<path d="M63.6,450v-4.2h0.5v3.5l2.5-3.5h0.5v4.2h-0.5v-3.5l-2.5,3.5H63.6z M65.9,445.2c-0.2,0.1-0.3,0.2-0.6,0.2
		c-0.2,0-0.4-0.1-0.6-0.2c-0.2-0.1-0.3-0.3-0.3-0.5l0.3-0.1c0.1,0.3,0.3,0.4,0.5,0.4c0.3,0,0.5-0.1,0.5-0.4l0.3,0.1
		C66.2,444.9,66.1,445.1,65.9,445.2z"/>
	<path d="M67.4,450.8l2.8-5.6h0.4l-2.8,5.6H67.4z"/>
	<path d="M71,450v-4.2h1.6c0.5,0,0.9,0.1,1.1,0.4c0.3,0.2,0.4,0.6,0.4,1c0,0.4-0.2,0.8-0.5,1c-0.3,0.2-0.7,0.4-1.2,0.4h-1v1.5H71z
		 M71.5,448.1h1c0.3,0,0.6-0.1,0.8-0.3s0.3-0.4,0.3-0.7c0-0.3-0.1-0.5-0.3-0.7c-0.2-0.2-0.5-0.2-0.8-0.2h-1.1V448.1z"/>
	<path d="M74.1,450l1.9-4.2h0.4l1.9,4.2h-0.5l-0.5-1.1h-2.3l-0.5,1.1H74.1z M75.3,448.5h1.9l-1-2.1L75.3,448.5z"/>
	<path d="M80.4,450.1c-0.7,0-1.3-0.2-1.8-0.7l0.3-0.3c0.4,0.4,0.9,0.6,1.5,0.6c0.3,0,0.5-0.1,0.7-0.2c0.2-0.2,0.3-0.3,0.3-0.6
		c0-0.3-0.1-0.5-0.3-0.6c-0.2-0.1-0.5-0.2-0.8-0.2h-0.5v-0.4h0.5c0.3,0,0.6-0.1,0.7-0.2c0.2-0.1,0.3-0.3,0.3-0.6
		c0-0.2-0.1-0.4-0.3-0.5c-0.2-0.1-0.4-0.2-0.7-0.2c-0.5,0-0.9,0.2-1.2,0.5l-0.3-0.3c0.2-0.2,0.4-0.3,0.7-0.4s0.5-0.1,0.8-0.1
		c0.4,0,0.8,0.1,1,0.3c0.3,0.2,0.4,0.5,0.4,0.8c0,0.5-0.3,0.8-0.8,1c0.3,0.1,0.5,0.2,0.6,0.4c0.2,0.2,0.2,0.4,0.2,0.7
		c0,0.3-0.1,0.6-0.4,0.9C81.2,450,80.8,450.1,80.4,450.1z"/>
	<path d="M82.7,450v-4.2h3v0.4h-2.5v1.3h1.2c0.5,0,0.9,0.1,1.2,0.3s0.4,0.5,0.4,0.9s-0.1,0.7-0.4,0.9c-0.3,0.2-0.7,0.3-1.1,0.3H82.7
		z M83.2,449.6h1.3c0.7,0,1.1-0.3,1.1-0.8c0-0.3-0.1-0.5-0.3-0.6s-0.5-0.2-0.8-0.2h-1.2V449.6z"/>
	<path d="M86.8,450v-4.2h3v0.4h-2.6v1.4h2.3v0.4h-2.3v1.5h2.6v0.4H86.8z"/>
	<path d="M90.6,450c-0.2,0-0.4,0-0.5-0.1l0.1-0.4c0.1,0,0.2,0.1,0.4,0.1c0.1,0,0.2,0,0.2,0c0.1,0,0.1-0.1,0.2-0.2s0.2-0.3,0.2-0.5
		c0.1-0.2,0.1-0.5,0.1-0.9c0-0.4,0.1-0.9,0.1-1.4v-0.8h2.7v4.2h-0.5v-3.8h-1.8v0.5c0,0.6,0,1.1-0.1,1.5s-0.1,0.7-0.2,1
		c-0.1,0.2-0.2,0.4-0.3,0.6c-0.1,0.1-0.2,0.2-0.3,0.3C90.9,450,90.8,450,90.6,450z"/>
	<path d="M95.2,450v-4.2h3v0.4h-2.6v1.4H98v0.4h-2.3v1.5h2.6v0.4H95.2z"/>
	<path d="M99.1,450v-4.2h0.5v1.9h2.4v-1.9h0.5v4.2H102v-1.9h-2.4v1.9H99.1z"/>
	<path d="M103.5,450v-4.2h0.5v1.9h2.4v-1.9h0.5v4.2h-0.5v-1.9H104v1.9H103.5z"/>
	<path d="M108,450v-4.2h0.5v1.6h1.1c0.5,0,0.9,0.1,1.2,0.3c0.3,0.2,0.5,0.5,0.5,0.9c0,0.4-0.1,0.7-0.4,1c-0.3,0.2-0.7,0.4-1.1,0.4
		H108z M108.4,449.6h1.1c0.3,0,0.6-0.1,0.8-0.2c0.2-0.2,0.3-0.4,0.3-0.7c0-0.3-0.1-0.5-0.3-0.6c-0.2-0.1-0.5-0.2-0.8-0.2h-1.1V449.6
		z M111.7,450v-4.2h0.5v4.2H111.7z"/>
	<path d="M113.2,450v-4.2h0.5v3.5l2.5-3.5h0.5v4.2h-0.5v-3.5l-2.5,3.5H113.2z M115.5,445.2c-0.2,0.1-0.3,0.2-0.6,0.2
		c-0.2,0-0.4-0.1-0.6-0.2c-0.2-0.1-0.3-0.3-0.3-0.5l0.3-0.1c0.1,0.3,0.3,0.4,0.5,0.4c0.3,0,0.5-0.1,0.5-0.4l0.3,0.1
		C115.8,444.9,115.7,445.1,115.5,445.2z"/>
</g>
<g>
	<rect x="108.7" y="387.3" class="st34" width="67.5" height="44.7"/>
	<rect x="41.2" y="387.3" class="st35" width="67.5" height="44.7"/>
</g>
<g>
	<path d="M235.4,538.6l1.6-2.1l-1.6-2.1h0.6l1.3,1.7l1.3-1.7h0.6l-1.6,2.1l1.6,2.1h-0.6l-1.3-1.8l-1.3,1.8H235.4z"/>
	<path d="M240,538.6v-4.2h1.6c0.5,0,0.9,0.1,1.1,0.4c0.3,0.2,0.4,0.6,0.4,1c0,0.4-0.2,0.8-0.5,1c-0.3,0.2-0.7,0.4-1.2,0.4h-1v1.5
		H240z M240.4,536.7h1c0.3,0,0.6-0.1,0.8-0.3s0.3-0.4,0.3-0.7c0-0.3-0.1-0.5-0.3-0.7c-0.2-0.2-0.5-0.2-0.8-0.2h-1.1V536.7z"/>
	<path d="M247.3,538c-0.4,0.4-0.9,0.6-1.5,0.6s-1.1-0.2-1.5-0.6c-0.4-0.4-0.6-0.9-0.6-1.5c0-0.6,0.2-1.1,0.6-1.5
		c0.4-0.4,0.9-0.6,1.5-0.6s1.1,0.2,1.5,0.6c0.4,0.4,0.6,0.9,0.6,1.5C247.9,537.1,247.7,537.6,247.3,538z M244.6,537.7
		c0.3,0.3,0.7,0.5,1.2,0.5c0.5,0,0.9-0.2,1.2-0.5c0.3-0.3,0.5-0.7,0.5-1.2c0-0.5-0.2-0.9-0.5-1.2c-0.3-0.3-0.7-0.5-1.2-0.5
		s-0.9,0.2-1.2,0.5c-0.3,0.3-0.5,0.7-0.5,1.2C244.2,537,244.3,537.4,244.6,537.7z"/>
	<path d="M248.8,538.6v-4.2h0.5l1.5,2.3l1.5-2.3h0.5v4.2h-0.5v-3.4l-1.5,2.2h0l-1.5-2.2v3.4H248.8z"/>
	<path d="M253.5,538.6l1.9-4.2h0.4l1.9,4.2h-0.5l-0.5-1.1h-2.3l-0.5,1.1H253.5z M254.7,537h1.9l-1-2.1L254.7,537z"/>
	<path d="M259.1,538.6v-3.8h-1.4v-0.4h3.3v0.4h-1.4v3.8H259.1z"/>
	<path d="M261.7,538.6v-4.2h0.5v3.5l2.5-3.5h0.5v4.2h-0.5v-3.5l-2.5,3.5H261.7z"/>
	<path d="M268.7,538.6v-1.8c-0.2,0.1-0.4,0.2-0.7,0.3s-0.5,0.1-0.7,0.1c-0.4,0-0.7-0.1-1-0.3s-0.4-0.5-0.4-0.9v-1.6h0.5v1.5
		c0,0.3,0.1,0.5,0.2,0.6c0.2,0.2,0.4,0.2,0.7,0.2c0.4,0,0.8-0.1,1.3-0.4v-2h0.5v4.2H268.7z"/>
	<path d="M270.3,538.6v-4.2h3v0.4h-2.6v1.4h2.3v0.4h-2.3v1.5h2.6v0.4H270.3z"/>
	<path d="M276.1,538.7c-0.6,0-1.1-0.2-1.5-0.6c-0.4-0.4-0.6-0.9-0.6-1.5c0-0.6,0.2-1.1,0.6-1.5c0.4-0.4,0.9-0.6,1.5-0.6
		c0.4,0,0.7,0.1,0.9,0.2c0.2,0.1,0.5,0.3,0.7,0.5l-0.3,0.3c-0.4-0.4-0.8-0.6-1.3-0.6c-0.5,0-0.9,0.2-1.2,0.5
		c-0.3,0.3-0.5,0.7-0.5,1.2c0,0.5,0.2,0.9,0.5,1.2c0.3,0.3,0.7,0.5,1.2,0.5c0.3,0,0.5,0,0.7-0.1c0.2-0.1,0.4-0.3,0.6-0.5l0.3,0.3
		c-0.2,0.2-0.5,0.4-0.7,0.5C276.8,538.6,276.5,538.7,276.1,538.7z"/>
	<path d="M278.5,538.6v-4.2h0.5v2.5l2.4-2.5h0.6l-1.8,1.8l1.9,2.4h-0.6l-1.6-2l-0.9,0.9v1.1H278.5z"/>
	<path d="M282.7,538.6v-4.2h0.5v3.5l2.5-3.5h0.5v4.2h-0.5v-3.5l-2.5,3.5H282.7z"/>
	<path d="M287.2,538.6v-4.2h0.5v3.5l2.5-3.5h0.5v4.2h-0.5v-3.5l-2.5,3.5H287.2z M289.5,533.8c-0.2,0.1-0.3,0.2-0.6,0.2
		c-0.2,0-0.4-0.1-0.6-0.2c-0.2-0.1-0.3-0.3-0.3-0.5l0.3-0.1c0.1,0.3,0.3,0.4,0.5,0.4c0.3,0,0.5-0.1,0.5-0.4l0.3,0.1
		C289.7,533.5,289.6,533.7,289.5,533.8z"/>
	<path d="M290.9,539.4l2.8-5.6h0.4l-2.8,5.6H290.9z"/>
	<path d="M294.2,538.6l1.9-4.2h0.4l1.9,4.2H298l-0.5-1.1h-2.3l-0.5,1.1H294.2z M295.4,537h1.9l-1-2.1L295.4,537z"/>
	<path d="M298.9,538.6l1.6-2.1l-1.6-2.1h0.6l1.3,1.7l1.3-1.7h0.6l-1.6,2.1l1.6,2.1h-0.6l-1.3-1.8l-1.3,1.8H298.9z"/>
	<path d="M303.4,538.6v-4.2h1.6c0.5,0,0.9,0.1,1.1,0.4c0.3,0.2,0.4,0.6,0.4,1c0,0.4-0.2,0.8-0.5,1c-0.3,0.2-0.7,0.4-1.2,0.4h-1v1.5
		H303.4z M303.9,536.7h1c0.3,0,0.6-0.1,0.8-0.3s0.3-0.4,0.3-0.7c0-0.3-0.1-0.5-0.3-0.7c-0.2-0.2-0.5-0.2-0.8-0.2h-1.1V536.7z"/>
	<path d="M310.8,538c-0.4,0.4-0.9,0.6-1.5,0.6s-1.1-0.2-1.5-0.6c-0.4-0.4-0.6-0.9-0.6-1.5c0-0.6,0.2-1.1,0.6-1.5
		c0.4-0.4,0.9-0.6,1.5-0.6s1.1,0.2,1.5,0.6c0.4,0.4,0.6,0.9,0.6,1.5C311.4,537.1,311.2,537.6,310.8,538z M308.1,537.7
		c0.3,0.3,0.7,0.5,1.2,0.5c0.5,0,0.9-0.2,1.2-0.5c0.3-0.3,0.5-0.7,0.5-1.2c0-0.5-0.2-0.9-0.5-1.2c-0.3-0.3-0.7-0.5-1.2-0.5
		s-0.9,0.2-1.2,0.5c-0.3,0.3-0.5,0.7-0.5,1.2C307.6,537,307.8,537.4,308.1,537.7z"/>
	<path d="M312.3,538.6v-4.2h0.5l1.5,2.3l1.5-2.3h0.5v4.2h-0.5v-3.4l-1.5,2.2h0l-1.5-2.2v3.4H312.3z"/>
	<path d="M317,538.6l1.9-4.2h0.4l1.9,4.2h-0.5l-0.5-1.1H318l-0.5,1.1H317z M318.2,537h1.9l-1-2.1L318.2,537z"/>
	<path d="M322.5,538.6v-3.8h-1.4v-0.4h3.3v0.4H323v3.8H322.5z"/>
	<path d="M325.2,538.6v-4.2h0.5v3.5l2.5-3.5h0.5v4.2h-0.5v-3.5l-2.5,3.5H325.2z"/>
	<path d="M332.2,538.6v-1.8c-0.2,0.1-0.4,0.2-0.7,0.3s-0.5,0.1-0.7,0.1c-0.4,0-0.7-0.1-1-0.3s-0.4-0.5-0.4-0.9v-1.6h0.5v1.5
		c0,0.3,0.1,0.5,0.2,0.6c0.2,0.2,0.4,0.2,0.7,0.2c0.4,0,0.8-0.1,1.3-0.4v-2h0.5v4.2H332.2z"/>
	<path d="M333.7,538.6v-4.2h3v0.4h-2.6v1.4h2.3v0.4h-2.3v1.5h2.6v0.4H333.7z"/>
	<path d="M339.5,538.7c-0.6,0-1.1-0.2-1.5-0.6c-0.4-0.4-0.6-0.9-0.6-1.5c0-0.6,0.2-1.1,0.6-1.5c0.4-0.4,0.9-0.6,1.5-0.6
		c0.4,0,0.7,0.1,0.9,0.2c0.2,0.1,0.5,0.3,0.7,0.5l-0.3,0.3c-0.4-0.4-0.8-0.6-1.3-0.6c-0.5,0-0.9,0.2-1.2,0.5
		c-0.3,0.3-0.5,0.7-0.5,1.2c0,0.5,0.2,0.9,0.5,1.2c0.3,0.3,0.7,0.5,1.2,0.5c0.3,0,0.5,0,0.7-0.1c0.2-0.1,0.4-0.3,0.6-0.5l0.3,0.3
		c-0.2,0.2-0.5,0.4-0.7,0.5C340.2,538.6,339.9,538.7,339.5,538.7z"/>
	<path d="M341.9,538.6v-4.2h0.5v2.5l2.4-2.5h0.6l-1.8,1.8l1.9,2.4h-0.6l-1.6-2l-0.9,0.9v1.1H341.9z"/>
	<path d="M346.1,538.6v-4.2h0.5v3.5l2.5-3.5h0.5v4.2h-0.5v-3.5l-2.5,3.5H346.1z"/>
	<path d="M350.6,538.6v-4.2h0.5v3.5l2.5-3.5h0.5v4.2h-0.5v-3.5l-2.5,3.5H350.6z M352.9,533.8c-0.2,0.1-0.3,0.2-0.6,0.2
		c-0.2,0-0.4-0.1-0.6-0.2c-0.2-0.1-0.3-0.3-0.3-0.5l0.3-0.1c0.1,0.3,0.3,0.4,0.5,0.4c0.3,0,0.5-0.1,0.5-0.4l0.3,0.1
		C353.2,533.5,353.1,533.7,352.9,533.8z"/>
</g>
<g>
	<rect x="302.5" y="475.9" class="st6" width="67.5" height="44.7"/>
	<rect x="235" y="475.9" class="st36" width="67.5" height="44.7"/>
</g>
<g>
	<path d="M41.7,538.6v-4.2h0.5v1.9h2.4v-1.9h0.5v4.2h-0.5v-1.9h-2.4v1.9H41.7z"/>
	<path d="M45.8,538.6l1.9-4.2h0.4l1.9,4.2h-0.5l-0.5-1.1h-2.3l-0.5,1.1H45.8z M47,537h1.9l-1-2.1L47,537z"/>
	<path d="M52.4,538.7c-0.6,0-1.1-0.2-1.5-0.6c-0.4-0.4-0.6-0.9-0.6-1.5c0-0.6,0.2-1.1,0.6-1.5c0.4-0.4,0.9-0.6,1.5-0.6
		c0.4,0,0.7,0.1,0.9,0.2c0.2,0.1,0.5,0.3,0.7,0.5l-0.3,0.3c-0.4-0.4-0.8-0.6-1.3-0.6c-0.5,0-0.9,0.2-1.2,0.5
		c-0.3,0.3-0.5,0.7-0.5,1.2c0,0.5,0.2,0.9,0.5,1.2c0.3,0.3,0.7,0.5,1.2,0.5c0.3,0,0.5,0,0.7-0.1c0.2-0.1,0.4-0.3,0.6-0.5l0.3,0.3
		c-0.2,0.2-0.5,0.4-0.7,0.5C53.1,538.6,52.8,538.7,52.4,538.7z"/>
	<path d="M54.8,538.6v-4.2h0.5v1.6h1.1c0.5,0,0.9,0.1,1.2,0.3c0.3,0.2,0.5,0.5,0.5,0.9c0,0.4-0.1,0.7-0.4,1
		c-0.3,0.2-0.7,0.4-1.1,0.4H54.8z M55.3,538.2h1.1c0.3,0,0.6-0.1,0.8-0.2c0.2-0.2,0.3-0.4,0.3-0.7c0-0.3-0.1-0.5-0.3-0.6
		c-0.2-0.1-0.5-0.2-0.8-0.2h-1.1V538.2z M58.5,538.6v-4.2H59v4.2H58.5z"/>
	<path d="M65.6,539.5v-0.9h-5.5v-4.2h0.5v3.8h2v-3.8H63v3.8h2v-3.8h0.5v3.8H66l-0.1,1.4H65.6z"/>
	<path d="M66.6,538.6v-4.2h3v0.4h-2.6v1.4h2.3v0.4h-2.3v1.5h2.6v0.4H66.6z"/>
	<path d="M70.5,538.6v-4.2H71v1.9h2.4v-1.9h0.5v4.2h-0.5v-1.9H71v1.9H70.5z"/>
	<path d="M74.9,538.6v-4.2h0.5v1.9h2.4v-1.9h0.5v4.2h-0.5v-1.9h-2.4v1.9H74.9z"/>
	<path d="M79.4,538.6v-4.2h0.5v1.6h1.1c0.5,0,0.9,0.1,1.2,0.3c0.3,0.2,0.5,0.5,0.5,0.9c0,0.4-0.1,0.7-0.4,1
		c-0.3,0.2-0.7,0.4-1.1,0.4H79.4z M79.9,538.2H81c0.3,0,0.6-0.1,0.8-0.2c0.2-0.2,0.3-0.4,0.3-0.7c0-0.3-0.1-0.5-0.3-0.6
		c-0.2-0.1-0.5-0.2-0.8-0.2h-1.1V538.2z M83.1,538.6v-4.2h0.5v4.2H83.1z"/>
	<path d="M84.6,538.6v-4.2h0.5v3.5l2.5-3.5h0.5v4.2h-0.5v-3.5l-2.5,3.5H84.6z M86.9,533.8c-0.2,0.1-0.3,0.2-0.6,0.2
		c-0.2,0-0.4-0.1-0.6-0.2c-0.2-0.1-0.3-0.3-0.3-0.5l0.3-0.1c0.1,0.3,0.3,0.4,0.5,0.4c0.3,0,0.5-0.1,0.5-0.4l0.3,0.1
		C87.2,533.5,87.1,533.7,86.9,533.8z"/>
	<path d="M88.4,539.4l2.8-5.6h0.4l-2.8,5.6H88.4z"/>
	<path d="M92,538.6v-4.2h0.5v1.9h2.4v-1.9h0.5v4.2h-0.5v-1.9h-2.4v1.9H92z"/>
	<path d="M96.5,538.6v-4.2h3v0.4h-2.6v1.4h2.3v0.4h-2.3v1.5h2.6v0.4H96.5z"/>
	<path d="M100.4,538.6v-4.2h0.5v1.9h2.4v-1.9h0.5v4.2h-0.5v-1.9h-2.4v1.9H100.4z"/>
	<path d="M104.4,538.6l1.9-4.2h0.4l1.9,4.2h-0.5l-0.5-1.1h-2.3l-0.5,1.1H104.4z M105.6,537h1.9l-1-2.1L105.6,537z"/>
	<path d="M111.1,538.7c-0.6,0-1.1-0.2-1.5-0.6c-0.4-0.4-0.6-0.9-0.6-1.5c0-0.6,0.2-1.1,0.6-1.5c0.4-0.4,0.9-0.6,1.5-0.6
		c0.4,0,0.7,0.1,0.9,0.2c0.2,0.1,0.5,0.3,0.7,0.5l-0.3,0.3c-0.4-0.4-0.8-0.6-1.3-0.6c-0.5,0-0.9,0.2-1.2,0.5
		c-0.3,0.3-0.5,0.7-0.5,1.2c0,0.5,0.2,0.9,0.5,1.2c0.3,0.3,0.7,0.5,1.2,0.5c0.3,0,0.5,0,0.7-0.1c0.2-0.1,0.4-0.3,0.6-0.5l0.3,0.3
		c-0.2,0.2-0.5,0.4-0.7,0.5C111.8,538.6,111.5,538.7,111.1,538.7z"/>
	<path d="M113.5,538.6v-4.2h0.5v1.6h1.1c0.5,0,0.9,0.1,1.2,0.3c0.3,0.2,0.5,0.5,0.5,0.9c0,0.4-0.1,0.7-0.4,1
		c-0.3,0.2-0.7,0.4-1.1,0.4H113.5z M114,538.2h1.1c0.3,0,0.6-0.1,0.8-0.2c0.2-0.2,0.3-0.4,0.3-0.7c0-0.3-0.1-0.5-0.3-0.6
		c-0.2-0.1-0.5-0.2-0.8-0.2H114V538.2z M117.2,538.6v-4.2h0.5v4.2H117.2z"/>
	<path d="M124.2,539.5v-0.9h-5.5v-4.2h0.5v3.8h2v-3.8h0.5v3.8h2v-3.8h0.5v3.8h0.5l-0.1,1.4H124.2z"/>
	<path d="M125.3,538.6v-4.2h3v0.4h-2.6v1.4h2.3v0.4h-2.3v1.5h2.6v0.4H125.3z"/>
	<path d="M129.2,538.6v-4.2h0.5v1.9h2.4v-1.9h0.5v4.2h-0.5v-1.9h-2.4v1.9H129.2z"/>
	<path d="M133.6,538.6v-4.2h0.5v1.9h2.4v-1.9h0.5v4.2h-0.5v-1.9h-2.4v1.9H133.6z"/>
	<path d="M138,538.6v-4.2h0.5v1.6h1.1c0.5,0,0.9,0.1,1.2,0.3c0.3,0.2,0.5,0.5,0.5,0.9c0,0.4-0.1,0.7-0.4,1c-0.3,0.2-0.7,0.4-1.1,0.4
		H138z M138.5,538.2h1.1c0.3,0,0.6-0.1,0.8-0.2c0.2-0.2,0.3-0.4,0.3-0.7c0-0.3-0.1-0.5-0.3-0.6c-0.2-0.1-0.5-0.2-0.8-0.2h-1.1V538.2
		z M141.7,538.6v-4.2h0.5v4.2H141.7z"/>
	<path d="M143.3,538.6v-4.2h0.5v3.5l2.5-3.5h0.5v4.2h-0.5v-3.5l-2.5,3.5H143.3z M145.6,533.8c-0.2,0.1-0.3,0.2-0.6,0.2
		c-0.2,0-0.4-0.1-0.6-0.2c-0.2-0.1-0.3-0.3-0.3-0.5l0.3-0.1c0.1,0.3,0.3,0.4,0.5,0.4c0.3,0,0.5-0.1,0.5-0.4l0.3,0.1
		C145.8,533.5,145.7,533.7,145.6,533.8z"/>
</g>
<g>
	<rect x="108.9" y="475.6" class="st37" width="67.7" height="45"/>
	<rect x="41.2" y="475.6" class="st38" width="67.7" height="45"/>
</g>
<g>
	<path d="M235.2,361.6l1.9-4.2h0.4l1.9,4.2H239l-0.5-1.1h-2.3l-0.5,1.1H235.2z M236.4,360h1.9l-1-2.1L236.4,360z"/>
	<path d="M240.2,361.6v-4.2h0.5v2.5l2.4-2.5h0.6l-1.8,1.8l1.9,2.4h-0.6l-1.6-2l-0.9,0.9v1.1H240.2z"/>
	<path d="M245.5,361.6v-3.8h-1.4v-0.4h3.3v0.4H246v3.8H245.5z"/>
	<path d="M248.1,361.6v-4.2h0.5v3.5l2.5-3.5h0.5v4.2h-0.5v-3.5l-2.5,3.5H248.1z"/>
	<path d="M252.6,361.6v-4.2h1.8c0.5,0,0.9,0.1,1.1,0.4c0.2,0.2,0.3,0.4,0.3,0.7c0,0.5-0.2,0.8-0.7,1c0.6,0.2,0.9,0.5,0.9,1
		c0,0.4-0.1,0.6-0.4,0.8c-0.3,0.2-0.6,0.3-1.1,0.3H252.6z M253.1,359.3h1.2c0.3,0,0.5-0.1,0.7-0.2c0.2-0.1,0.3-0.3,0.3-0.6
		c0-0.2-0.1-0.4-0.2-0.5s-0.4-0.2-0.7-0.2h-1.3V359.3z M253.1,361.2h1.4c0.3,0,0.6-0.1,0.8-0.2c0.2-0.1,0.3-0.3,0.3-0.6
		c0-0.2-0.1-0.4-0.3-0.5c-0.2-0.1-0.5-0.2-0.8-0.2h-1.3V361.2z"/>
	<path d="M256.8,361.6v-4.2h0.5v1.9h2.4v-1.9h0.5v4.2h-0.5v-1.9h-2.4v1.9H256.8z"/>
	<path d="M261.3,361.6v-4.2h0.5v1.6h1.1c0.5,0,0.9,0.1,1.2,0.3c0.3,0.2,0.5,0.5,0.5,0.9c0,0.4-0.1,0.7-0.4,1
		c-0.3,0.2-0.7,0.4-1.1,0.4H261.3z M261.7,361.2h1.1c0.3,0,0.6-0.1,0.8-0.2c0.2-0.2,0.3-0.4,0.3-0.7c0-0.3-0.1-0.5-0.3-0.6
		c-0.2-0.1-0.5-0.2-0.8-0.2h-1.1V361.2z M265,361.6v-4.2h0.5v4.2H265z"/>
	<path d="M266.5,361.6v-4.2h0.5v3.5l2.5-3.5h0.5v4.2h-0.5v-3.5l-2.5,3.5H266.5z M268.8,356.8c-0.2,0.1-0.3,0.2-0.6,0.2
		c-0.2,0-0.4-0.1-0.6-0.2c-0.2-0.1-0.3-0.3-0.3-0.5l0.3-0.1c0.1,0.3,0.3,0.4,0.5,0.4c0.3,0,0.5-0.1,0.5-0.4l0.3,0.1
		C269.1,356.5,269,356.7,268.8,356.8z"/>
	<path d="M270.3,362.4l2.8-5.6h0.4l-2.8,5.6H270.3z"/>
	<path d="M273.9,361.6v-4.2h3.3v4.2h-0.5v-3.8h-2.4v3.8H273.9z"/>
	<path d="M277.9,361.6l1.9-4.2h0.4l1.9,4.2h-0.5l-0.5-1.1h-2.3l-0.5,1.1H277.9z M279.1,360h1.9l-1-2.1L279.1,360z"/>
	<path d="M284.6,361.7c-0.6,0-1.1-0.2-1.5-0.6c-0.4-0.4-0.6-0.9-0.6-1.5c0-0.6,0.2-1.1,0.6-1.5c0.4-0.4,0.9-0.6,1.5-0.6
		c0.4,0,0.7,0.1,0.9,0.2c0.2,0.1,0.5,0.3,0.7,0.5l-0.3,0.3c-0.4-0.4-0.8-0.6-1.3-0.6c-0.5,0-0.9,0.2-1.2,0.5
		c-0.3,0.3-0.5,0.7-0.5,1.2c0,0.5,0.2,0.9,0.5,1.2c0.3,0.3,0.7,0.5,1.2,0.5c0.3,0,0.5,0,0.7-0.1c0.2-0.1,0.4-0.3,0.6-0.5l0.3,0.3
		c-0.2,0.2-0.5,0.4-0.7,0.5C285.3,361.6,284.9,361.7,284.6,361.7z"/>
	<path d="M288.9,361.7c-0.6,0-1.1-0.2-1.5-0.6c-0.4-0.4-0.6-0.9-0.6-1.5c0-0.6,0.2-1.1,0.6-1.5c0.4-0.4,0.9-0.6,1.5-0.6
		c0.4,0,0.7,0.1,0.9,0.2c0.2,0.1,0.5,0.3,0.7,0.5l-0.3,0.3c-0.4-0.4-0.8-0.6-1.3-0.6c-0.5,0-0.9,0.2-1.2,0.5
		c-0.3,0.3-0.5,0.7-0.5,1.2c0,0.5,0.2,0.9,0.5,1.2c0.3,0.3,0.7,0.5,1.2,0.5c0.3,0,0.5,0,0.7-0.1c0.2-0.1,0.4-0.3,0.6-0.5l0.3,0.3
		c-0.2,0.2-0.5,0.4-0.7,0.5C289.6,361.6,289.3,361.7,288.9,361.7z"/>
	<path d="M291.3,361.6v-4.2h0.5v3.5l2.5-3.5h0.5v4.2h-0.5v-3.5l-2.5,3.5H291.3z"/>
	<path d="M295.8,361.6v-4.2h1.8c0.5,0,0.9,0.1,1.1,0.4c0.2,0.2,0.3,0.4,0.3,0.7c0,0.5-0.2,0.8-0.7,1c0.6,0.2,0.9,0.5,0.9,1
		c0,0.4-0.1,0.6-0.4,0.8c-0.3,0.2-0.6,0.3-1.1,0.3H295.8z M296.2,359.3h1.2c0.3,0,0.5-0.1,0.7-0.2c0.2-0.1,0.3-0.3,0.3-0.6
		c0-0.2-0.1-0.4-0.2-0.5s-0.4-0.2-0.7-0.2h-1.3V359.3z M296.2,361.2h1.4c0.3,0,0.6-0.1,0.8-0.2c0.2-0.1,0.3-0.3,0.3-0.6
		c0-0.2-0.1-0.4-0.3-0.5c-0.2-0.1-0.5-0.2-0.8-0.2h-1.3V361.2z"/>
	<path d="M300,361.6v-4.2h0.5v1.9h2.4v-1.9h0.5v4.2h-0.5v-1.9h-2.4v1.9H300z"/>
	<path d="M304.4,361.6v-4.2h0.5v1.6h1.1c0.5,0,0.9,0.1,1.2,0.3c0.3,0.2,0.5,0.5,0.5,0.9c0,0.4-0.1,0.7-0.4,1
		c-0.3,0.2-0.7,0.4-1.1,0.4H304.4z M304.9,361.2h1.1c0.3,0,0.6-0.1,0.8-0.2c0.2-0.2,0.3-0.4,0.3-0.7c0-0.3-0.1-0.5-0.3-0.6
		c-0.2-0.1-0.5-0.2-0.8-0.2h-1.1V361.2z M308.1,361.6v-4.2h0.5v4.2H308.1z"/>
	<path d="M309.6,361.6v-4.2h0.5v3.5l2.5-3.5h0.5v4.2h-0.5v-3.5l-2.5,3.5H309.6z M312,356.8c-0.2,0.1-0.3,0.2-0.6,0.2
		c-0.2,0-0.4-0.1-0.6-0.2c-0.2-0.1-0.3-0.3-0.3-0.5l0.3-0.1c0.1,0.3,0.3,0.4,0.5,0.4c0.3,0,0.5-0.1,0.5-0.4l0.3,0.1
		C312.2,356.5,312.1,356.7,312,356.8z"/>
</g>
<g>
	<rect x="302.5" y="298.6" class="st39" width="67.5" height="45"/>
	<rect x="235" y="298.6" class="st40" width="67.5" height="45"/>
</g>
</svg>
