<?xml version="1.0" encoding="utf-8"?>
<!-- Generator: Adobe Illustrator 22.1.0, SVG Export Plug-In . SVG Version: 6.00 Build 0)  -->
<svg version="1.1" xmlns="http://www.w3.org/2000/svg" xmlns:xlink="http://www.w3.org/1999/xlink" x="0px" y="0px"
	 viewBox="0 0 420.9 595.3" style="enable-background:new 0 0 420.9 595.3;" xml:space="preserve">
<style type="text/css">
	.st0{font-family:'GothamPro-Light';}
	.st1{font-size:21px;}
	.st2{fill:none;stroke:#000000;stroke-width:0.25;stroke-miterlimit:10;}
	.st3{font-family:'GothamPro';}
	.st4{font-size:7px;}
	.st5{font-size:10.0368px;}
	.st6{fill:none;stroke:#000000;stroke-width:0.5;stroke-miterlimit:10;}
	.st7{font-size:7.3194px;}
	.st8{font-size:5.2273px;}
	.st9{fill:none;stroke:#000000;stroke-width:0.5;stroke-linejoin:round;stroke-miterlimit:10;}
</style>
<g id="Слой_2">
	<text transform="matrix(1 0 0 1 121.4575 58.6929)" class="st0 st1">ШОПИНГ-ТРЕКЕР</text>
</g>
<g id="Слой_8">
	<g>
		<text transform="matrix(1 0 0 1 336.2212 546.1865)" class="st3 st4">@stylary</text>
	</g>
	<g>
		<text transform="matrix(1 0 0 1 64.422 546.1862)" class="st3 st4">stylary.ru</text>
	</g>
	<g>
		<text transform="matrix(1 0 0 1 187.6845 546.1863)" class="st3 st4">#шопингтрекер</text>
	</g>
</g>
<g id="Слой_6">
	<text transform="matrix(1 0 0 1 246.25 524.9375)" class="st0 st5">ИТОГО за год</text>
	<rect x="320.5" y="511.7" class="st6" width="45.6" height="13.2"/>
</g>
<g id="Слой_7">
	<g>
		<text transform="matrix(1 0 0 1 205.1131 96.9224)"><tspan x="0" y="0" class="st3 st7">Закрашивайте пакет в дни, когда работаете </tspan><tspan x="-24.1" y="8.8" class="st3 st7">с клиентами или отправляетесь с ними на шопинг. </tspan><tspan x="-0.9" y="17.6" class="st3 st7">В конце года вы сможете понять, насколько </tspan><tspan x="3.9" y="26.3" class="st3 st7">активными оказались последние 365 дней. </tspan></text>
	</g>
</g>
<g id="Слой_4">
	<g>
		<text transform="matrix(1 0 0 1 67.3955 152.9253)" class="st3 st8">ПН</text>
		<text transform="matrix(1 0 0 1 79.7559 152.8965)" class="st3 st8">ВТ</text>
		<text transform="matrix(1 0 0 1 91.6572 152.8965)" class="st3 st8">СР</text>
		<text transform="matrix(1 0 0 1 103.8164 152.8965)" class="st3 st8">ЧТ</text>
		<text transform="matrix(1 0 0 1 115.668 152.8965)" class="st3 st8">ПТ</text>
		<g>
			<text transform="matrix(1 0 0 1 127.5381 152.957)" class="st3 st8">СБ</text>
		</g>
		<g>
			<text transform="matrix(1 0 0 1 139.4976 152.957)" class="st3 st8">ВС</text>
		</g>
	</g>
	<g>
		<g>
			<g>
				<polygon class="st9" points="65.7,175.4 75.3,175.4 74.3,167.1 66.6,167.1 				"/>
				<path class="st9" d="M72.3,167.1c0-1.7-0.2-3.1-1.8-3.1c-1.7,0-1.9,1.4-1.9,3.1"/>
			</g>
			<g>
				<polygon class="st9" points="77.7,175.4 87.3,175.4 86.3,167.1 78.6,167.1 				"/>
				<path class="st9" d="M84.3,167.1c0-1.7-0.2-3.1-1.8-3.1c-1.7,0-1.9,1.4-1.9,3.1"/>
			</g>
			<g>
				<polygon class="st9" points="89.7,175.4 99.3,175.4 98.3,167.1 90.6,167.1 				"/>
				<path class="st9" d="M96.3,167.1c0-1.7-0.2-3.1-1.8-3.1c-1.7,0-1.9,1.4-1.9,3.1"/>
			</g>
			<g>
				<polygon class="st9" points="101.7,175.4 111.3,175.4 110.3,167.1 102.6,167.1 				"/>
				<path class="st9" d="M108.3,167.1c0-1.7-0.2-3.1-1.8-3.1c-1.7,0-1.9,1.4-1.9,3.1"/>
			</g>
			<g>
				<polygon class="st9" points="113.7,175.4 123.3,175.4 122.3,167.1 114.6,167.1 				"/>
				<path class="st9" d="M120.3,167.1c0-1.7-0.2-3.1-1.8-3.1c-1.7,0-1.9,1.4-1.9,3.1"/>
			</g>
			<g>
				<polygon class="st9" points="125.7,175.4 135.2,175.4 134.3,167.1 126.6,167.1 				"/>
				<path class="st9" d="M132.3,167.1c0-1.7-0.2-3.1-1.8-3.1c-1.7,0-1.9,1.4-1.9,3.1"/>
			</g>
			<g>
				<polygon class="st9" points="137.7,175.4 147.2,175.4 146.3,167.1 138.6,167.1 				"/>
				<path class="st9" d="M144.3,167.1c0-1.7-0.2-3.1-1.8-3.1c-1.7,0-1.9,1.4-1.9,3.1"/>
			</g>
		</g>
		<g>
			<g>
				<polygon class="st9" points="65.7,195.9 75.3,195.9 74.3,187.6 66.6,187.6 				"/>
				<path class="st9" d="M72.3,187.6c0-1.7-0.2-3.1-1.8-3.1c-1.7,0-1.9,1.4-1.9,3.1"/>
			</g>
			<g>
				<polygon class="st9" points="77.7,195.9 87.3,195.9 86.3,187.6 78.6,187.6 				"/>
				<path class="st9" d="M84.3,187.6c0-1.7-0.2-3.1-1.8-3.1c-1.7,0-1.9,1.4-1.9,3.1"/>
			</g>
			<g>
				<polygon class="st9" points="89.7,195.9 99.3,195.9 98.3,187.6 90.6,187.6 				"/>
				<path class="st9" d="M96.3,187.6c0-1.7-0.2-3.1-1.8-3.1c-1.7,0-1.9,1.4-1.9,3.1"/>
			</g>
			<g>
				<polygon class="st9" points="101.7,195.9 111.3,195.9 110.3,187.6 102.6,187.6 				"/>
				<path class="st9" d="M108.3,187.6c0-1.7-0.2-3.1-1.8-3.1c-1.7,0-1.9,1.4-1.9,3.1"/>
			</g>
			<g>
				<polygon class="st9" points="113.7,195.9 123.3,195.9 122.3,187.6 114.6,187.6 				"/>
				<path class="st9" d="M120.3,187.6c0-1.7-0.2-3.1-1.8-3.1c-1.7,0-1.9,1.4-1.9,3.1"/>
			</g>
			<g>
				<polygon class="st9" points="125.7,195.9 135.2,195.9 134.3,187.6 126.6,187.6 				"/>
				<path class="st9" d="M132.3,187.6c0-1.7-0.2-3.1-1.8-3.1c-1.7,0-1.9,1.4-1.9,3.1"/>
			</g>
			<g>
				<polygon class="st9" points="137.7,195.9 147.2,195.9 146.3,187.6 138.6,187.6 				"/>
				<path class="st9" d="M144.3,187.6c0-1.7-0.2-3.1-1.8-3.1c-1.7,0-1.9,1.4-1.9,3.1"/>
			</g>
		</g>
		<g>
			<g>
				<polygon class="st9" points="65.7,216.4 75.3,216.4 74.3,208.2 66.6,208.2 				"/>
				<path class="st9" d="M72.3,208.2c0-1.7-0.2-3.1-1.8-3.1c-1.7,0-1.9,1.4-1.9,3.1"/>
			</g>
			<g>
				<polygon class="st9" points="77.7,216.4 87.3,216.4 86.3,208.2 78.6,208.2 				"/>
				<path class="st9" d="M84.3,208.2c0-1.7-0.2-3.1-1.8-3.1c-1.7,0-1.9,1.4-1.9,3.1"/>
			</g>
			<g>
				<polygon class="st9" points="89.7,216.4 99.3,216.4 98.3,208.2 90.6,208.2 				"/>
				<path class="st9" d="M96.3,208.2c0-1.7-0.2-3.1-1.8-3.1c-1.7,0-1.9,1.4-1.9,3.1"/>
			</g>
			<g>
				<polygon class="st9" points="101.7,216.4 111.3,216.4 110.3,208.2 102.6,208.2 				"/>
				<path class="st9" d="M108.3,208.2c0-1.7-0.2-3.1-1.8-3.1c-1.7,0-1.9,1.4-1.9,3.1"/>
			</g>
			<g>
				<polygon class="st9" points="113.7,216.4 123.3,216.4 122.3,208.2 114.6,208.2 				"/>
				<path class="st9" d="M120.3,208.2c0-1.7-0.2-3.1-1.8-3.1c-1.7,0-1.9,1.4-1.9,3.1"/>
			</g>
			<g>
				<polygon class="st9" points="125.7,216.4 135.2,216.4 134.3,208.2 126.6,208.2 				"/>
				<path class="st9" d="M132.3,208.2c0-1.7-0.2-3.1-1.8-3.1c-1.7,0-1.9,1.4-1.9,3.1"/>
			</g>
			<g>
				<polygon class="st9" points="137.7,216.4 147.2,216.4 146.3,208.2 138.6,208.2 				"/>
				<path class="st9" d="M144.3,208.2c0-1.7-0.2-3.1-1.8-3.1c-1.7,0-1.9,1.4-1.9,3.1"/>
			</g>
		</g>
		<g>
			<g>
				<polygon class="st9" points="65.7,237 75.3,237 74.3,228.7 66.6,228.7 				"/>
				<path class="st9" d="M72.3,228.7c0-1.7-0.2-3.1-1.8-3.1c-1.7,0-1.9,1.4-1.9,3.1"/>
			</g>
			<g>
				<polygon class="st9" points="77.7,237 87.3,237 86.3,228.7 78.6,228.7 				"/>
				<path class="st9" d="M84.3,228.7c0-1.7-0.2-3.1-1.8-3.1c-1.7,0-1.9,1.4-1.9,3.1"/>
			</g>
			<g>
				<polygon class="st9" points="89.7,237 99.3,237 98.3,228.7 90.6,228.7 				"/>
				<path class="st9" d="M96.3,228.7c0-1.7-0.2-3.1-1.8-3.1c-1.7,0-1.9,1.4-1.9,3.1"/>
			</g>
			<g>
				<polygon class="st9" points="101.7,237 111.3,237 110.3,228.7 102.6,228.7 				"/>
				<path class="st9" d="M108.3,228.7c0-1.7-0.2-3.1-1.8-3.1c-1.7,0-1.9,1.4-1.9,3.1"/>
			</g>
			<g>
				<polygon class="st9" points="113.7,237 123.3,237 122.3,228.7 114.6,228.7 				"/>
				<path class="st9" d="M120.3,228.7c0-1.7-0.2-3.1-1.8-3.1c-1.7,0-1.9,1.4-1.9,3.1"/>
			</g>
			<g>
				<polygon class="st9" points="125.7,237 135.2,237 134.3,228.7 126.6,228.7 				"/>
				<path class="st9" d="M132.3,228.7c0-1.7-0.2-3.1-1.8-3.1c-1.7,0-1.9,1.4-1.9,3.1"/>
			</g>
			<g>
				<polygon class="st9" points="137.7,237 147.2,237 146.3,228.7 138.6,228.7 				"/>
				<path class="st9" d="M144.3,228.7c0-1.7-0.2-3.1-1.8-3.1c-1.7,0-1.9,1.4-1.9,3.1"/>
			</g>
		</g>
		<g>
			<g>
				<polygon class="st9" points="65.7,257.5 75.3,257.5 74.3,249.3 66.6,249.3 				"/>
				<path class="st9" d="M72.3,249.3c0-1.7-0.2-3.1-1.8-3.1c-1.7,0-1.9,1.4-1.9,3.1"/>
			</g>
			<g>
				<polygon class="st9" points="77.7,257.5 87.3,257.5 86.3,249.3 78.6,249.3 				"/>
				<path class="st9" d="M84.3,249.3c0-1.7-0.2-3.1-1.8-3.1c-1.7,0-1.9,1.4-1.9,3.1"/>
			</g>
			<g>
				<polygon class="st9" points="89.7,257.5 99.3,257.5 98.3,249.3 90.6,249.3 				"/>
				<path class="st9" d="M96.3,249.3c0-1.7-0.2-3.1-1.8-3.1c-1.7,0-1.9,1.4-1.9,3.1"/>
			</g>
			<g>
				<polygon class="st9" points="101.7,257.5 111.3,257.5 110.3,249.3 102.6,249.3 				"/>
				<path class="st9" d="M108.3,249.3c0-1.7-0.2-3.1-1.8-3.1c-1.7,0-1.9,1.4-1.9,3.1"/>
			</g>
			<g>
				<polygon class="st9" points="113.7,257.5 123.3,257.5 122.3,249.3 114.6,249.3 				"/>
				<path class="st9" d="M120.3,249.3c0-1.7-0.2-3.1-1.8-3.1c-1.7,0-1.9,1.4-1.9,3.1"/>
			</g>
			<g>
				<polygon class="st9" points="125.7,257.5 135.2,257.5 134.3,249.3 126.6,249.3 				"/>
				<path class="st9" d="M132.3,249.3c0-1.7-0.2-3.1-1.8-3.1c-1.7,0-1.9,1.4-1.9,3.1"/>
			</g>
			<g>
				<polygon class="st9" points="137.7,257.5 147.2,257.5 146.3,249.3 138.6,249.3 				"/>
				<path class="st9" d="M144.3,249.3c0-1.7-0.2-3.1-1.8-3.1c-1.7,0-1.9,1.4-1.9,3.1"/>
			</g>
		</g>
		<g>
			<g>
				<polygon class="st9" points="65.7,278.1 75.3,278.1 74.3,269.8 66.6,269.8 				"/>
				<path class="st9" d="M72.3,269.8c0-1.7-0.2-3.1-1.8-3.1c-1.7,0-1.9,1.4-1.9,3.1"/>
			</g>
			<g>
				<polygon class="st9" points="77.7,278.1 87.3,278.1 86.3,269.8 78.6,269.8 				"/>
				<path class="st9" d="M84.3,269.8c0-1.7-0.2-3.1-1.8-3.1c-1.7,0-1.9,1.4-1.9,3.1"/>
			</g>
			<g>
				<polygon class="st9" points="89.7,278.1 99.3,278.1 98.3,269.8 90.6,269.8 				"/>
				<path class="st9" d="M96.3,269.8c0-1.7-0.2-3.1-1.8-3.1c-1.7,0-1.9,1.4-1.9,3.1"/>
			</g>
			<g>
				<polygon class="st9" points="101.7,278.1 111.3,278.1 110.3,269.8 102.6,269.8 				"/>
				<path class="st9" d="M108.3,269.8c0-1.7-0.2-3.1-1.8-3.1c-1.7,0-1.9,1.4-1.9,3.1"/>
			</g>
			<g>
				<polygon class="st9" points="113.7,278.1 123.3,278.1 122.3,269.8 114.6,269.8 				"/>
				<path class="st9" d="M120.3,269.8c0-1.7-0.2-3.1-1.8-3.1c-1.7,0-1.9,1.4-1.9,3.1"/>
			</g>
			<g>
				<polygon class="st9" points="125.7,278.1 135.2,278.1 134.3,269.8 126.6,269.8 				"/>
				<path class="st9" d="M132.3,269.8c0-1.7-0.2-3.1-1.8-3.1c-1.7,0-1.9,1.4-1.9,3.1"/>
			</g>
			<g>
				<polygon class="st9" points="137.7,278.1 147.2,278.1 146.3,269.8 138.6,269.8 				"/>
				<path class="st9" d="M144.3,269.8c0-1.7-0.2-3.1-1.8-3.1c-1.7,0-1.9,1.4-1.9,3.1"/>
			</g>
		</g>
		<g>
			<g>
				<polygon class="st9" points="65.7,298.6 75.3,298.6 74.3,290.4 66.6,290.4 				"/>
				<path class="st9" d="M72.3,290.4c0-1.7-0.2-3.1-1.8-3.1c-1.7,0-1.9,1.4-1.9,3.1"/>
			</g>
			<g>
				<polygon class="st9" points="77.7,298.6 87.3,298.6 86.3,290.4 78.6,290.4 				"/>
				<path class="st9" d="M84.3,290.4c0-1.7-0.2-3.1-1.8-3.1c-1.7,0-1.9,1.4-1.9,3.1"/>
			</g>
			<g>
				<polygon class="st9" points="89.7,298.6 99.3,298.6 98.3,290.4 90.6,290.4 				"/>
				<path class="st9" d="M96.3,290.4c0-1.7-0.2-3.1-1.8-3.1c-1.7,0-1.9,1.4-1.9,3.1"/>
			</g>
			<g>
				<polygon class="st9" points="101.7,298.6 111.3,298.6 110.3,290.4 102.6,290.4 				"/>
				<path class="st9" d="M108.3,290.4c0-1.7-0.2-3.1-1.8-3.1c-1.7,0-1.9,1.4-1.9,3.1"/>
			</g>
			<g>
				<polygon class="st9" points="113.7,298.6 123.3,298.6 122.3,290.4 114.6,290.4 				"/>
				<path class="st9" d="M120.3,290.4c0-1.7-0.2-3.1-1.8-3.1c-1.7,0-1.9,1.4-1.9,3.1"/>
			</g>
			<g>
				<polygon class="st9" points="125.7,298.6 135.2,298.6 134.3,290.4 126.6,290.4 				"/>
				<path class="st9" d="M132.3,290.4c0-1.7-0.2-3.1-1.8-3.1c-1.7,0-1.9,1.4-1.9,3.1"/>
			</g>
			<g>
				<polygon class="st9" points="137.7,298.6 147.2,298.6 146.3,290.4 138.6,290.4 				"/>
				<path class="st9" d="M144.3,290.4c0-1.7-0.2-3.1-1.8-3.1c-1.7,0-1.9,1.4-1.9,3.1"/>
			</g>
		</g>
		<g>
			<g>
				<polygon class="st9" points="65.7,319.2 75.3,319.2 74.3,310.9 66.6,310.9 				"/>
				<path class="st9" d="M72.3,310.9c0-1.7-0.2-3.1-1.8-3.1c-1.7,0-1.9,1.4-1.9,3.1"/>
			</g>
			<g>
				<polygon class="st9" points="77.7,319.2 87.3,319.2 86.3,310.9 78.6,310.9 				"/>
				<path class="st9" d="M84.3,310.9c0-1.7-0.2-3.1-1.8-3.1c-1.7,0-1.9,1.4-1.9,3.1"/>
			</g>
			<g>
				<polygon class="st9" points="89.7,319.2 99.3,319.2 98.3,310.9 90.6,310.9 				"/>
				<path class="st9" d="M96.3,310.9c0-1.7-0.2-3.1-1.8-3.1c-1.7,0-1.9,1.4-1.9,3.1"/>
			</g>
			<g>
				<polygon class="st9" points="101.7,319.2 111.3,319.2 110.3,310.9 102.6,310.9 				"/>
				<path class="st9" d="M108.3,310.9c0-1.7-0.2-3.1-1.8-3.1c-1.7,0-1.9,1.4-1.9,3.1"/>
			</g>
			<g>
				<polygon class="st9" points="113.7,319.2 123.3,319.2 122.3,310.9 114.6,310.9 				"/>
				<path class="st9" d="M120.3,310.9c0-1.7-0.2-3.1-1.8-3.1c-1.7,0-1.9,1.4-1.9,3.1"/>
			</g>
			<g>
				<polygon class="st9" points="125.7,319.2 135.2,319.2 134.3,310.9 126.6,310.9 				"/>
				<path class="st9" d="M132.3,310.9c0-1.7-0.2-3.1-1.8-3.1c-1.7,0-1.9,1.4-1.9,3.1"/>
			</g>
			<g>
				<polygon class="st9" points="137.7,319.2 147.2,319.2 146.3,310.9 138.6,310.9 				"/>
				<path class="st9" d="M144.3,310.9c0-1.7-0.2-3.1-1.8-3.1c-1.7,0-1.9,1.4-1.9,3.1"/>
			</g>
		</g>
		<g>
			<g>
				<polygon class="st9" points="65.7,339.7 75.3,339.7 74.3,331.5 66.6,331.5 				"/>
				<path class="st9" d="M72.3,331.5c0-1.7-0.2-3.1-1.8-3.1c-1.7,0-1.9,1.4-1.9,3.1"/>
			</g>
			<g>
				<polygon class="st9" points="77.7,339.7 87.3,339.7 86.3,331.5 78.6,331.5 				"/>
				<path class="st9" d="M84.3,331.5c0-1.7-0.2-3.1-1.8-3.1c-1.7,0-1.9,1.4-1.9,3.1"/>
			</g>
			<g>
				<polygon class="st9" points="89.7,339.7 99.3,339.7 98.3,331.5 90.6,331.5 				"/>
				<path class="st9" d="M96.3,331.5c0-1.7-0.2-3.1-1.8-3.1c-1.7,0-1.9,1.4-1.9,3.1"/>
			</g>
			<g>
				<polygon class="st9" points="101.7,339.7 111.3,339.7 110.3,331.5 102.6,331.5 				"/>
				<path class="st9" d="M108.3,331.5c0-1.7-0.2-3.1-1.8-3.1c-1.7,0-1.9,1.4-1.9,3.1"/>
			</g>
			<g>
				<polygon class="st9" points="113.7,339.7 123.3,339.7 122.3,331.5 114.6,331.5 				"/>
				<path class="st9" d="M120.3,331.5c0-1.7-0.2-3.1-1.8-3.1c-1.7,0-1.9,1.4-1.9,3.1"/>
			</g>
			<g>
				<polygon class="st9" points="125.7,339.7 135.2,339.7 134.3,331.5 126.6,331.5 				"/>
				<path class="st9" d="M132.3,331.5c0-1.7-0.2-3.1-1.8-3.1c-1.7,0-1.9,1.4-1.9,3.1"/>
			</g>
			<g>
				<polygon class="st9" points="137.7,339.7 147.2,339.7 146.3,331.5 138.6,331.5 				"/>
				<path class="st9" d="M144.3,331.5c0-1.7-0.2-3.1-1.8-3.1c-1.7,0-1.9,1.4-1.9,3.1"/>
			</g>
		</g>
		<g>
			<g>
				<polygon class="st9" points="65.7,360.3 75.3,360.3 74.3,352 66.6,352 				"/>
				<path class="st9" d="M72.3,352c0-1.7-0.2-3.1-1.8-3.1c-1.7,0-1.9,1.4-1.9,3.1"/>
			</g>
			<g>
				<polygon class="st9" points="77.7,360.3 87.3,360.3 86.3,352 78.6,352 				"/>
				<path class="st9" d="M84.3,352c0-1.7-0.2-3.1-1.8-3.1c-1.7,0-1.9,1.4-1.9,3.1"/>
			</g>
			<g>
				<polygon class="st9" points="89.7,360.3 99.3,360.3 98.3,352 90.6,352 				"/>
				<path class="st9" d="M96.3,352c0-1.7-0.2-3.1-1.8-3.1c-1.7,0-1.9,1.4-1.9,3.1"/>
			</g>
			<g>
				<polygon class="st9" points="101.7,360.3 111.3,360.3 110.3,352 102.6,352 				"/>
				<path class="st9" d="M108.3,352c0-1.7-0.2-3.1-1.8-3.1c-1.7,0-1.9,1.4-1.9,3.1"/>
			</g>
			<g>
				<polygon class="st9" points="113.7,360.3 123.3,360.3 122.3,352 114.6,352 				"/>
				<path class="st9" d="M120.3,352c0-1.7-0.2-3.1-1.8-3.1c-1.7,0-1.9,1.4-1.9,3.1"/>
			</g>
			<g>
				<polygon class="st9" points="125.7,360.3 135.2,360.3 134.3,352 126.6,352 				"/>
				<path class="st9" d="M132.3,352c0-1.7-0.2-3.1-1.8-3.1c-1.7,0-1.9,1.4-1.9,3.1"/>
			</g>
			<g>
				<polygon class="st9" points="137.7,360.3 147.2,360.3 146.3,352 138.6,352 				"/>
				<path class="st9" d="M144.3,352c0-1.7-0.2-3.1-1.8-3.1c-1.7,0-1.9,1.4-1.9,3.1"/>
			</g>
		</g>
		<g>
			<g>
				<polygon class="st9" points="65.7,380.8 75.3,380.8 74.3,372.6 66.6,372.6 				"/>
				<path class="st9" d="M72.3,372.6c0-1.7-0.2-3.1-1.8-3.1c-1.7,0-1.9,1.4-1.9,3.1"/>
			</g>
			<g>
				<polygon class="st9" points="77.7,380.8 87.3,380.8 86.3,372.6 78.6,372.6 				"/>
				<path class="st9" d="M84.3,372.6c0-1.7-0.2-3.1-1.8-3.1c-1.7,0-1.9,1.4-1.9,3.1"/>
			</g>
			<g>
				<polygon class="st9" points="89.7,380.8 99.3,380.8 98.3,372.6 90.6,372.6 				"/>
				<path class="st9" d="M96.3,372.6c0-1.7-0.2-3.1-1.8-3.1c-1.7,0-1.9,1.4-1.9,3.1"/>
			</g>
			<g>
				<polygon class="st9" points="101.7,380.8 111.3,380.8 110.3,372.6 102.6,372.6 				"/>
				<path class="st9" d="M108.3,372.6c0-1.7-0.2-3.1-1.8-3.1c-1.7,0-1.9,1.4-1.9,3.1"/>
			</g>
			<g>
				<polygon class="st9" points="113.7,380.8 123.3,380.8 122.3,372.6 114.6,372.6 				"/>
				<path class="st9" d="M120.3,372.6c0-1.7-0.2-3.1-1.8-3.1c-1.7,0-1.9,1.4-1.9,3.1"/>
			</g>
			<g>
				<polygon class="st9" points="125.7,380.8 135.2,380.8 134.3,372.6 126.6,372.6 				"/>
				<path class="st9" d="M132.3,372.6c0-1.7-0.2-3.1-1.8-3.1c-1.7,0-1.9,1.4-1.9,3.1"/>
			</g>
			<g>
				<polygon class="st9" points="137.7,380.8 147.2,380.8 146.3,372.6 138.6,372.6 				"/>
				<path class="st9" d="M144.3,372.6c0-1.7-0.2-3.1-1.8-3.1c-1.7,0-1.9,1.4-1.9,3.1"/>
			</g>
		</g>
		<g>
			<g>
				<polygon class="st9" points="65.7,401.4 75.3,401.4 74.3,393.1 66.6,393.1 				"/>
				<path class="st9" d="M72.3,393.1c0-1.7-0.2-3.1-1.8-3.1c-1.7,0-1.9,1.4-1.9,3.1"/>
			</g>
			<g>
				<polygon class="st9" points="77.7,401.4 87.3,401.4 86.3,393.1 78.6,393.1 				"/>
				<path class="st9" d="M84.3,393.1c0-1.7-0.2-3.1-1.8-3.1c-1.7,0-1.9,1.4-1.9,3.1"/>
			</g>
			<g>
				<polygon class="st9" points="89.7,401.4 99.3,401.4 98.3,393.1 90.6,393.1 				"/>
				<path class="st9" d="M96.3,393.1c0-1.7-0.2-3.1-1.8-3.1c-1.7,0-1.9,1.4-1.9,3.1"/>
			</g>
			<g>
				<polygon class="st9" points="101.7,401.4 111.3,401.4 110.3,393.1 102.6,393.1 				"/>
				<path class="st9" d="M108.3,393.1c0-1.7-0.2-3.1-1.8-3.1c-1.7,0-1.9,1.4-1.9,3.1"/>
			</g>
			<g>
				<polygon class="st9" points="113.7,401.4 123.3,401.4 122.3,393.1 114.6,393.1 				"/>
				<path class="st9" d="M120.3,393.1c0-1.7-0.2-3.1-1.8-3.1c-1.7,0-1.9,1.4-1.9,3.1"/>
			</g>
			<g>
				<polygon class="st9" points="125.7,401.4 135.2,401.4 134.3,393.1 126.6,393.1 				"/>
				<path class="st9" d="M132.3,393.1c0-1.7-0.2-3.1-1.8-3.1c-1.7,0-1.9,1.4-1.9,3.1"/>
			</g>
			<g>
				<polygon class="st9" points="137.7,401.4 147.2,401.4 146.3,393.1 138.6,393.1 				"/>
				<path class="st9" d="M144.3,393.1c0-1.7-0.2-3.1-1.8-3.1c-1.7,0-1.9,1.4-1.9,3.1"/>
			</g>
		</g>
		<g>
			<g>
				<polygon class="st9" points="65.7,421.9 75.3,421.9 74.3,413.6 66.6,413.6 				"/>
				<path class="st9" d="M72.3,413.6c0-1.7-0.2-3.1-1.8-3.1c-1.7,0-1.9,1.4-1.9,3.1"/>
			</g>
			<g>
				<polygon class="st9" points="77.7,421.9 87.3,421.9 86.3,413.6 78.6,413.6 				"/>
				<path class="st9" d="M84.3,413.6c0-1.7-0.2-3.1-1.8-3.1c-1.7,0-1.9,1.4-1.9,3.1"/>
			</g>
			<g>
				<polygon class="st9" points="89.7,421.9 99.3,421.9 98.3,413.6 90.6,413.6 				"/>
				<path class="st9" d="M96.3,413.6c0-1.7-0.2-3.1-1.8-3.1c-1.7,0-1.9,1.4-1.9,3.1"/>
			</g>
			<g>
				<polygon class="st9" points="101.7,421.9 111.3,421.9 110.3,413.6 102.6,413.6 				"/>
				<path class="st9" d="M108.3,413.6c0-1.7-0.2-3.1-1.8-3.1c-1.7,0-1.9,1.4-1.9,3.1"/>
			</g>
			<g>
				<polygon class="st9" points="113.7,421.9 123.3,421.9 122.3,413.6 114.6,413.6 				"/>
				<path class="st9" d="M120.3,413.6c0-1.7-0.2-3.1-1.8-3.1c-1.7,0-1.9,1.4-1.9,3.1"/>
			</g>
			<g>
				<polygon class="st9" points="125.7,421.9 135.2,421.9 134.3,413.6 126.6,413.6 				"/>
				<path class="st9" d="M132.3,413.6c0-1.7-0.2-3.1-1.8-3.1c-1.7,0-1.9,1.4-1.9,3.1"/>
			</g>
			<g>
				<polygon class="st9" points="137.7,421.9 147.2,421.9 146.3,413.6 138.6,413.6 				"/>
				<path class="st9" d="M144.3,413.6c0-1.7-0.2-3.1-1.8-3.1c-1.7,0-1.9,1.4-1.9,3.1"/>
			</g>
		</g>
		<g>
			<g>
				<polygon class="st9" points="65.7,442.5 75.3,442.5 74.3,434.2 66.6,434.2 				"/>
				<path class="st9" d="M72.3,434.2c0-1.7-0.2-3.1-1.8-3.1c-1.7,0-1.9,1.4-1.9,3.1"/>
			</g>
			<g>
				<polygon class="st9" points="77.7,442.5 87.3,442.5 86.3,434.2 78.6,434.2 				"/>
				<path class="st9" d="M84.3,434.2c0-1.7-0.2-3.1-1.8-3.1c-1.7,0-1.9,1.4-1.9,3.1"/>
			</g>
			<g>
				<polygon class="st9" points="89.7,442.5 99.3,442.5 98.3,434.2 90.6,434.2 				"/>
				<path class="st9" d="M96.3,434.2c0-1.7-0.2-3.1-1.8-3.1c-1.7,0-1.9,1.4-1.9,3.1"/>
			</g>
			<g>
				<polygon class="st9" points="101.7,442.5 111.3,442.5 110.3,434.2 102.6,434.2 				"/>
				<path class="st9" d="M108.3,434.2c0-1.7-0.2-3.1-1.8-3.1c-1.7,0-1.9,1.4-1.9,3.1"/>
			</g>
			<g>
				<polygon class="st9" points="113.7,442.5 123.3,442.5 122.3,434.2 114.6,434.2 				"/>
				<path class="st9" d="M120.3,434.2c0-1.7-0.2-3.1-1.8-3.1c-1.7,0-1.9,1.4-1.9,3.1"/>
			</g>
			<g>
				<polygon class="st9" points="125.7,442.5 135.2,442.5 134.3,434.2 126.6,434.2 				"/>
				<path class="st9" d="M132.3,434.2c0-1.7-0.2-3.1-1.8-3.1c-1.7,0-1.9,1.4-1.9,3.1"/>
			</g>
			<g>
				<polygon class="st9" points="137.7,442.5 147.2,442.5 146.3,434.2 138.6,434.2 				"/>
				<path class="st9" d="M144.3,434.2c0-1.7-0.2-3.1-1.8-3.1c-1.7,0-1.9,1.4-1.9,3.1"/>
			</g>
		</g>
		<g>
			<g>
				<polygon class="st9" points="65.7,463 75.3,463 74.3,454.7 66.6,454.7 				"/>
				<path class="st9" d="M72.3,454.7c0-1.7-0.2-3.1-1.8-3.1c-1.7,0-1.9,1.4-1.9,3.1"/>
			</g>
			<g>
				<polygon class="st9" points="77.7,463 87.3,463 86.3,454.7 78.6,454.7 				"/>
				<path class="st9" d="M84.3,454.7c0-1.7-0.2-3.1-1.8-3.1c-1.7,0-1.9,1.4-1.9,3.1"/>
			</g>
			<g>
				<polygon class="st9" points="89.7,463 99.3,463 98.3,454.7 90.6,454.7 				"/>
				<path class="st9" d="M96.3,454.7c0-1.7-0.2-3.1-1.8-3.1c-1.7,0-1.9,1.4-1.9,3.1"/>
			</g>
			<g>
				<polygon class="st9" points="101.7,463 111.3,463 110.3,454.7 102.6,454.7 				"/>
				<path class="st9" d="M108.3,454.7c0-1.7-0.2-3.1-1.8-3.1c-1.7,0-1.9,1.4-1.9,3.1"/>
			</g>
			<g>
				<polygon class="st9" points="113.7,463 123.3,463 122.3,454.7 114.6,454.7 				"/>
				<path class="st9" d="M120.3,454.7c0-1.7-0.2-3.1-1.8-3.1c-1.7,0-1.9,1.4-1.9,3.1"/>
			</g>
			<g>
				<polygon class="st9" points="125.7,463 135.2,463 134.3,454.7 126.6,454.7 				"/>
				<path class="st9" d="M132.3,454.7c0-1.7-0.2-3.1-1.8-3.1c-1.7,0-1.9,1.4-1.9,3.1"/>
			</g>
			<g>
				<polygon class="st9" points="137.7,463 147.2,463 146.3,454.7 138.6,454.7 				"/>
				<path class="st9" d="M144.3,454.7c0-1.7-0.2-3.1-1.8-3.1c-1.7,0-1.9,1.4-1.9,3.1"/>
			</g>
		</g>
		<g>
			<g>
				<polygon class="st9" points="65.7,483.5 75.3,483.5 74.3,475.3 66.6,475.3 				"/>
				<path class="st9" d="M72.3,475.3c0-1.7-0.2-3.1-1.8-3.1c-1.7,0-1.9,1.4-1.9,3.1"/>
			</g>
			<g>
				<polygon class="st9" points="77.7,483.5 87.3,483.5 86.3,475.3 78.6,475.3 				"/>
				<path class="st9" d="M84.3,475.3c0-1.7-0.2-3.1-1.8-3.1c-1.7,0-1.9,1.4-1.9,3.1"/>
			</g>
			<g>
				<polygon class="st9" points="89.7,483.5 99.3,483.5 98.3,475.3 90.6,475.3 				"/>
				<path class="st9" d="M96.3,475.3c0-1.7-0.2-3.1-1.8-3.1c-1.7,0-1.9,1.4-1.9,3.1"/>
			</g>
			<g>
				<polygon class="st9" points="101.7,483.5 111.3,483.5 110.3,475.3 102.6,475.3 				"/>
				<path class="st9" d="M108.3,475.3c0-1.7-0.2-3.1-1.8-3.1c-1.7,0-1.9,1.4-1.9,3.1"/>
			</g>
			<g>
				<polygon class="st9" points="113.7,483.5 123.3,483.5 122.3,475.3 114.6,475.3 				"/>
				<path class="st9" d="M120.3,475.3c0-1.7-0.2-3.1-1.8-3.1c-1.7,0-1.9,1.4-1.9,3.1"/>
			</g>
			<g>
				<polygon class="st9" points="125.7,483.5 135.2,483.5 134.3,475.3 126.6,475.3 				"/>
				<path class="st9" d="M132.3,475.3c0-1.7-0.2-3.1-1.8-3.1c-1.7,0-1.9,1.4-1.9,3.1"/>
			</g>
			<g>
				<polygon class="st9" points="137.7,483.5 147.2,483.5 146.3,475.3 138.6,475.3 				"/>
				<path class="st9" d="M144.3,475.3c0-1.7-0.2-3.1-1.8-3.1c-1.7,0-1.9,1.4-1.9,3.1"/>
			</g>
		</g>
		<g>
			<g>
				<polygon class="st9" points="65.7,504.1 75.3,504.1 74.3,495.8 66.6,495.8 				"/>
				<path class="st9" d="M72.3,495.8c0-1.7-0.2-3.1-1.8-3.1c-1.7,0-1.9,1.4-1.9,3.1"/>
			</g>
			<g>
				<polygon class="st9" points="77.7,504.1 87.3,504.1 86.3,495.8 78.6,495.8 				"/>
				<path class="st9" d="M84.3,495.8c0-1.7-0.2-3.1-1.8-3.1c-1.7,0-1.9,1.4-1.9,3.1"/>
			</g>
			<g>
				<polygon class="st9" points="89.7,504.1 99.3,504.1 98.3,495.8 90.6,495.8 				"/>
				<path class="st9" d="M96.3,495.8c0-1.7-0.2-3.1-1.8-3.1c-1.7,0-1.9,1.4-1.9,3.1"/>
			</g>
			<g>
				<polygon class="st9" points="101.7,504.1 111.3,504.1 110.3,495.8 102.6,495.8 				"/>
				<path class="st9" d="M108.3,495.8c0-1.7-0.2-3.1-1.8-3.1c-1.7,0-1.9,1.4-1.9,3.1"/>
			</g>
			<g>
				<polygon class="st9" points="113.7,504.1 123.3,504.1 122.3,495.8 114.6,495.8 				"/>
				<path class="st9" d="M120.3,495.8c0-1.7-0.2-3.1-1.8-3.1c-1.7,0-1.9,1.4-1.9,3.1"/>
			</g>
			<g>
				<polygon class="st9" points="125.7,504.1 135.2,504.1 134.3,495.8 126.6,495.8 				"/>
				<path class="st9" d="M132.3,495.8c0-1.7-0.2-3.1-1.8-3.1c-1.7,0-1.9,1.4-1.9,3.1"/>
			</g>
			<g>
				<polygon class="st9" points="137.7,504.1 147.2,504.1 146.3,495.8 138.6,495.8 				"/>
				<path class="st9" d="M144.3,495.8c0-1.7-0.2-3.1-1.8-3.1c-1.7,0-1.9,1.4-1.9,3.1"/>
			</g>
		</g>
	</g>
	<g>
		<g>
			<polygon class="st9" points="65.7,524.6 75.3,524.6 74.3,516.4 66.6,516.4 			"/>
			<path class="st9" d="M72.3,516.4c0-1.7-0.2-3.1-1.8-3.1c-1.7,0-1.9,1.4-1.9,3.1"/>
		</g>
		<g>
			<polygon class="st9" points="77.7,524.6 87.3,524.6 86.3,516.4 78.6,516.4 			"/>
			<path class="st9" d="M84.3,516.4c0-1.7-0.2-3.1-1.8-3.1c-1.7,0-1.9,1.4-1.9,3.1"/>
		</g>
		<g>
			<polygon class="st9" points="89.7,524.6 99.3,524.6 98.3,516.4 90.6,516.4 			"/>
			<path class="st9" d="M96.3,516.4c0-1.7-0.2-3.1-1.8-3.1c-1.7,0-1.9,1.4-1.9,3.1"/>
		</g>
		<g>
			<polygon class="st9" points="101.7,524.6 111.3,524.6 110.3,516.4 102.6,516.4 			"/>
			<path class="st9" d="M108.3,516.4c0-1.7-0.2-3.1-1.8-3.1c-1.7,0-1.9,1.4-1.9,3.1"/>
		</g>
		<g>
			<polygon class="st9" points="113.7,524.6 123.3,524.6 122.3,516.4 114.6,516.4 			"/>
			<path class="st9" d="M120.3,516.4c0-1.7-0.2-3.1-1.8-3.1c-1.7,0-1.9,1.4-1.9,3.1"/>
		</g>
		<g>
			<polygon class="st9" points="125.7,524.6 135.2,524.6 134.3,516.4 126.6,516.4 			"/>
			<path class="st9" d="M132.3,516.4c0-1.7-0.2-3.1-1.8-3.1c-1.7,0-1.9,1.4-1.9,3.1"/>
		</g>
		<g>
			<polygon class="st9" points="137.7,524.6 147.2,524.6 146.3,516.4 138.6,516.4 			"/>
			<path class="st9" d="M144.3,516.4c0-1.7-0.2-3.1-1.8-3.1c-1.7,0-1.9,1.4-1.9,3.1"/>
		</g>
	</g>
	<g>
		<text transform="matrix(1 0 0 1 176.9463 152.8965)" class="st3 st8">ПН</text>
		<text transform="matrix(1 0 0 1 189.3062 152.8965)" class="st3 st8">ВТ</text>
		<text transform="matrix(1 0 0 1 201.208 152.8965)" class="st3 st8">СР</text>
		<text transform="matrix(1 0 0 1 213.3672 152.8965)" class="st3 st8">ЧТ</text>
		<text transform="matrix(1 0 0 1 225.2183 152.8965)" class="st3 st8">ПТ</text>
		<g>
			<text transform="matrix(1 0 0 1 237.0889 152.957)" class="st3 st8">СБ</text>
		</g>
		<g>
			<text transform="matrix(1 0 0 1 249.0479 152.957)" class="st3 st8">ВС</text>
		</g>
	</g>
	<g>
		<polygon class="st9" points="175.3,524.6 184.9,524.6 183.9,516.4 176.2,516.4 		"/>
		<path class="st9" d="M181.9,516.4c0-1.7-0.2-3.1-1.8-3.1c-1.7,0-1.9,1.4-1.9,3.1"/>
	</g>
	<g>
		<g>
			<g>
				<polygon class="st9" points="175.2,175.4 184.8,175.4 183.9,167.1 176.2,167.1 				"/>
				<path class="st9" d="M181.9,167.1c0-1.7-0.2-3.1-1.8-3.1c-1.7,0-1.9,1.4-1.9,3.1"/>
			</g>
			<g>
				<polygon class="st9" points="187.2,175.4 196.8,175.4 195.9,167.1 188.2,167.1 				"/>
				<path class="st9" d="M193.9,167.1c0-1.7-0.2-3.1-1.8-3.1c-1.7,0-1.9,1.4-1.9,3.1"/>
			</g>
			<g>
				<polygon class="st9" points="199.2,175.4 208.8,175.4 207.9,167.1 200.2,167.1 				"/>
				<path class="st9" d="M205.9,167.1c0-1.7-0.2-3.1-1.8-3.1c-1.7,0-1.9,1.4-1.9,3.1"/>
			</g>
			<g>
				<polygon class="st9" points="211.2,175.4 220.8,175.4 219.9,167.1 212.2,167.1 				"/>
				<path class="st9" d="M217.9,167.1c0-1.7-0.2-3.1-1.8-3.1c-1.7,0-1.9,1.4-1.9,3.1"/>
			</g>
			<g>
				<polygon class="st9" points="223.2,175.4 232.8,175.4 231.9,167.1 224.1,167.1 				"/>
				<path class="st9" d="M229.9,167.1c0-1.7-0.2-3.1-1.8-3.1c-1.7,0-1.9,1.4-1.9,3.1"/>
			</g>
			<g>
				<polygon class="st9" points="235.2,175.4 244.8,175.4 243.9,167.1 236.1,167.1 				"/>
				<path class="st9" d="M241.9,167.1c0-1.7-0.2-3.1-1.8-3.1c-1.7,0-1.9,1.4-1.9,3.1"/>
			</g>
			<g>
				<polygon class="st9" points="247.2,175.4 256.8,175.4 255.9,167.1 248.1,167.1 				"/>
				<path class="st9" d="M253.9,167.1c0-1.7-0.2-3.1-1.8-3.1c-1.7,0-1.9,1.4-1.9,3.1"/>
			</g>
		</g>
		<g>
			<g>
				<polygon class="st9" points="175.2,195.9 184.8,195.9 183.9,187.6 176.2,187.6 				"/>
				<path class="st9" d="M181.9,187.6c0-1.7-0.2-3.1-1.8-3.1c-1.7,0-1.9,1.4-1.9,3.1"/>
			</g>
			<g>
				<polygon class="st9" points="187.2,195.9 196.8,195.9 195.9,187.6 188.2,187.6 				"/>
				<path class="st9" d="M193.9,187.6c0-1.7-0.2-3.1-1.8-3.1c-1.7,0-1.9,1.4-1.9,3.1"/>
			</g>
			<g>
				<polygon class="st9" points="199.2,195.9 208.8,195.9 207.9,187.6 200.2,187.6 				"/>
				<path class="st9" d="M205.9,187.6c0-1.7-0.2-3.1-1.8-3.1c-1.7,0-1.9,1.4-1.9,3.1"/>
			</g>
			<g>
				<polygon class="st9" points="211.2,195.9 220.8,195.9 219.9,187.6 212.2,187.6 				"/>
				<path class="st9" d="M217.9,187.6c0-1.7-0.2-3.1-1.8-3.1c-1.7,0-1.9,1.4-1.9,3.1"/>
			</g>
			<g>
				<polygon class="st9" points="223.2,195.9 232.8,195.9 231.9,187.6 224.1,187.6 				"/>
				<path class="st9" d="M229.9,187.6c0-1.7-0.2-3.1-1.8-3.1c-1.7,0-1.9,1.4-1.9,3.1"/>
			</g>
			<g>
				<polygon class="st9" points="235.2,195.9 244.8,195.9 243.9,187.6 236.1,187.6 				"/>
				<path class="st9" d="M241.9,187.6c0-1.7-0.2-3.1-1.8-3.1c-1.7,0-1.9,1.4-1.9,3.1"/>
			</g>
			<g>
				<polygon class="st9" points="247.2,195.9 256.8,195.9 255.9,187.6 248.1,187.6 				"/>
				<path class="st9" d="M253.9,187.6c0-1.7-0.2-3.1-1.8-3.1c-1.7,0-1.9,1.4-1.9,3.1"/>
			</g>
		</g>
		<g>
			<g>
				<polygon class="st9" points="175.2,216.4 184.8,216.4 183.9,208.2 176.2,208.2 				"/>
				<path class="st9" d="M181.9,208.2c0-1.7-0.2-3.1-1.8-3.1c-1.7,0-1.9,1.4-1.9,3.1"/>
			</g>
			<g>
				<polygon class="st9" points="187.2,216.4 196.8,216.4 195.9,208.2 188.2,208.2 				"/>
				<path class="st9" d="M193.9,208.2c0-1.7-0.2-3.1-1.8-3.1c-1.7,0-1.9,1.4-1.9,3.1"/>
			</g>
			<g>
				<polygon class="st9" points="199.2,216.4 208.8,216.4 207.9,208.2 200.2,208.2 				"/>
				<path class="st9" d="M205.9,208.2c0-1.7-0.2-3.1-1.8-3.1c-1.7,0-1.9,1.4-1.9,3.1"/>
			</g>
			<g>
				<polygon class="st9" points="211.2,216.4 220.8,216.4 219.9,208.2 212.2,208.2 				"/>
				<path class="st9" d="M217.9,208.2c0-1.7-0.2-3.1-1.8-3.1c-1.7,0-1.9,1.4-1.9,3.1"/>
			</g>
			<g>
				<polygon class="st9" points="223.2,216.4 232.8,216.4 231.9,208.2 224.1,208.2 				"/>
				<path class="st9" d="M229.9,208.2c0-1.7-0.2-3.1-1.8-3.1c-1.7,0-1.9,1.4-1.9,3.1"/>
			</g>
			<g>
				<polygon class="st9" points="235.2,216.4 244.8,216.4 243.9,208.2 236.1,208.2 				"/>
				<path class="st9" d="M241.9,208.2c0-1.7-0.2-3.1-1.8-3.1c-1.7,0-1.9,1.4-1.9,3.1"/>
			</g>
			<g>
				<polygon class="st9" points="247.2,216.4 256.8,216.4 255.9,208.2 248.1,208.2 				"/>
				<path class="st9" d="M253.9,208.2c0-1.7-0.2-3.1-1.8-3.1c-1.7,0-1.9,1.4-1.9,3.1"/>
			</g>
		</g>
		<g>
			<g>
				<polygon class="st9" points="175.2,237 184.8,237 183.9,228.7 176.2,228.7 				"/>
				<path class="st9" d="M181.9,228.7c0-1.7-0.2-3.1-1.8-3.1c-1.7,0-1.9,1.4-1.9,3.1"/>
			</g>
			<g>
				<polygon class="st9" points="187.2,237 196.8,237 195.9,228.7 188.2,228.7 				"/>
				<path class="st9" d="M193.9,228.7c0-1.7-0.2-3.1-1.8-3.1c-1.7,0-1.9,1.4-1.9,3.1"/>
			</g>
			<g>
				<polygon class="st9" points="199.2,237 208.8,237 207.9,228.7 200.2,228.7 				"/>
				<path class="st9" d="M205.9,228.7c0-1.7-0.2-3.1-1.8-3.1c-1.7,0-1.9,1.4-1.9,3.1"/>
			</g>
			<g>
				<polygon class="st9" points="211.2,237 220.8,237 219.9,228.7 212.2,228.7 				"/>
				<path class="st9" d="M217.9,228.7c0-1.7-0.2-3.1-1.8-3.1c-1.7,0-1.9,1.4-1.9,3.1"/>
			</g>
			<g>
				<polygon class="st9" points="223.2,237 232.8,237 231.9,228.7 224.1,228.7 				"/>
				<path class="st9" d="M229.9,228.7c0-1.7-0.2-3.1-1.8-3.1c-1.7,0-1.9,1.4-1.9,3.1"/>
			</g>
			<g>
				<polygon class="st9" points="235.2,237 244.8,237 243.9,228.7 236.1,228.7 				"/>
				<path class="st9" d="M241.9,228.7c0-1.7-0.2-3.1-1.8-3.1c-1.7,0-1.9,1.4-1.9,3.1"/>
			</g>
			<g>
				<polygon class="st9" points="247.2,237 256.8,237 255.9,228.7 248.1,228.7 				"/>
				<path class="st9" d="M253.9,228.7c0-1.7-0.2-3.1-1.8-3.1c-1.7,0-1.9,1.4-1.9,3.1"/>
			</g>
		</g>
		<g>
			<g>
				<polygon class="st9" points="175.2,257.5 184.8,257.5 183.9,249.3 176.2,249.3 				"/>
				<path class="st9" d="M181.9,249.3c0-1.7-0.2-3.1-1.8-3.1c-1.7,0-1.9,1.4-1.9,3.1"/>
			</g>
			<g>
				<polygon class="st9" points="187.2,257.5 196.8,257.5 195.9,249.3 188.2,249.3 				"/>
				<path class="st9" d="M193.9,249.3c0-1.7-0.2-3.1-1.8-3.1c-1.7,0-1.9,1.4-1.9,3.1"/>
			</g>
			<g>
				<polygon class="st9" points="199.2,257.5 208.8,257.5 207.9,249.3 200.2,249.3 				"/>
				<path class="st9" d="M205.9,249.3c0-1.7-0.2-3.1-1.8-3.1c-1.7,0-1.9,1.4-1.9,3.1"/>
			</g>
			<g>
				<polygon class="st9" points="211.2,257.5 220.8,257.5 219.9,249.3 212.2,249.3 				"/>
				<path class="st9" d="M217.9,249.3c0-1.7-0.2-3.1-1.8-3.1c-1.7,0-1.9,1.4-1.9,3.1"/>
			</g>
			<g>
				<polygon class="st9" points="223.2,257.5 232.8,257.5 231.9,249.3 224.1,249.3 				"/>
				<path class="st9" d="M229.9,249.3c0-1.7-0.2-3.1-1.8-3.1c-1.7,0-1.9,1.4-1.9,3.1"/>
			</g>
			<g>
				<polygon class="st9" points="235.2,257.5 244.8,257.5 243.9,249.3 236.1,249.3 				"/>
				<path class="st9" d="M241.9,249.3c0-1.7-0.2-3.1-1.8-3.1c-1.7,0-1.9,1.4-1.9,3.1"/>
			</g>
			<g>
				<polygon class="st9" points="247.2,257.5 256.8,257.5 255.9,249.3 248.1,249.3 				"/>
				<path class="st9" d="M253.9,249.3c0-1.7-0.2-3.1-1.8-3.1c-1.7,0-1.9,1.4-1.9,3.1"/>
			</g>
		</g>
		<g>
			<g>
				<polygon class="st9" points="175.2,278.1 184.8,278.1 183.9,269.8 176.2,269.8 				"/>
				<path class="st9" d="M181.9,269.8c0-1.7-0.2-3.1-1.8-3.1c-1.7,0-1.9,1.4-1.9,3.1"/>
			</g>
			<g>
				<polygon class="st9" points="187.2,278.1 196.8,278.1 195.9,269.8 188.2,269.8 				"/>
				<path class="st9" d="M193.9,269.8c0-1.7-0.2-3.1-1.8-3.1c-1.7,0-1.9,1.4-1.9,3.1"/>
			</g>
			<g>
				<polygon class="st9" points="199.2,278.1 208.8,278.1 207.9,269.8 200.2,269.8 				"/>
				<path class="st9" d="M205.9,269.8c0-1.7-0.2-3.1-1.8-3.1c-1.7,0-1.9,1.4-1.9,3.1"/>
			</g>
			<g>
				<polygon class="st9" points="211.2,278.1 220.8,278.1 219.9,269.8 212.2,269.8 				"/>
				<path class="st9" d="M217.9,269.8c0-1.7-0.2-3.1-1.8-3.1c-1.7,0-1.9,1.4-1.9,3.1"/>
			</g>
			<g>
				<polygon class="st9" points="223.2,278.1 232.8,278.1 231.9,269.8 224.1,269.8 				"/>
				<path class="st9" d="M229.9,269.8c0-1.7-0.2-3.1-1.8-3.1c-1.7,0-1.9,1.4-1.9,3.1"/>
			</g>
			<g>
				<polygon class="st9" points="235.2,278.1 244.8,278.1 243.9,269.8 236.1,269.8 				"/>
				<path class="st9" d="M241.9,269.8c0-1.7-0.2-3.1-1.8-3.1c-1.7,0-1.9,1.4-1.9,3.1"/>
			</g>
			<g>
				<polygon class="st9" points="247.2,278.1 256.8,278.1 255.9,269.8 248.1,269.8 				"/>
				<path class="st9" d="M253.9,269.8c0-1.7-0.2-3.1-1.8-3.1c-1.7,0-1.9,1.4-1.9,3.1"/>
			</g>
		</g>
		<g>
			<g>
				<polygon class="st9" points="175.2,298.6 184.8,298.6 183.9,290.4 176.2,290.4 				"/>
				<path class="st9" d="M181.9,290.4c0-1.7-0.2-3.1-1.8-3.1c-1.7,0-1.9,1.4-1.9,3.1"/>
			</g>
			<g>
				<polygon class="st9" points="187.2,298.6 196.8,298.6 195.9,290.4 188.2,290.4 				"/>
				<path class="st9" d="M193.9,290.4c0-1.7-0.2-3.1-1.8-3.1c-1.7,0-1.9,1.4-1.9,3.1"/>
			</g>
			<g>
				<polygon class="st9" points="199.2,298.6 208.8,298.6 207.9,290.4 200.2,290.4 				"/>
				<path class="st9" d="M205.9,290.4c0-1.7-0.2-3.1-1.8-3.1c-1.7,0-1.9,1.4-1.9,3.1"/>
			</g>
			<g>
				<polygon class="st9" points="211.2,298.6 220.8,298.6 219.9,290.4 212.2,290.4 				"/>
				<path class="st9" d="M217.9,290.4c0-1.7-0.2-3.1-1.8-3.1c-1.7,0-1.9,1.4-1.9,3.1"/>
			</g>
			<g>
				<polygon class="st9" points="223.2,298.6 232.8,298.6 231.9,290.4 224.1,290.4 				"/>
				<path class="st9" d="M229.9,290.4c0-1.7-0.2-3.1-1.8-3.1c-1.7,0-1.9,1.4-1.9,3.1"/>
			</g>
			<g>
				<polygon class="st9" points="235.2,298.6 244.8,298.6 243.9,290.4 236.1,290.4 				"/>
				<path class="st9" d="M241.9,290.4c0-1.7-0.2-3.1-1.8-3.1c-1.7,0-1.9,1.4-1.9,3.1"/>
			</g>
			<g>
				<polygon class="st9" points="247.2,298.6 256.8,298.6 255.9,290.4 248.1,290.4 				"/>
				<path class="st9" d="M253.9,290.4c0-1.7-0.2-3.1-1.8-3.1c-1.7,0-1.9,1.4-1.9,3.1"/>
			</g>
		</g>
		<g>
			<g>
				<polygon class="st9" points="175.2,319.2 184.8,319.2 183.9,310.9 176.2,310.9 				"/>
				<path class="st9" d="M181.9,310.9c0-1.7-0.2-3.1-1.8-3.1c-1.7,0-1.9,1.4-1.9,3.1"/>
			</g>
			<g>
				<polygon class="st9" points="187.2,319.2 196.8,319.2 195.9,310.9 188.2,310.9 				"/>
				<path class="st9" d="M193.9,310.9c0-1.7-0.2-3.1-1.8-3.1c-1.7,0-1.9,1.4-1.9,3.1"/>
			</g>
			<g>
				<polygon class="st9" points="199.2,319.2 208.8,319.2 207.9,310.9 200.2,310.9 				"/>
				<path class="st9" d="M205.9,310.9c0-1.7-0.2-3.1-1.8-3.1c-1.7,0-1.9,1.4-1.9,3.1"/>
			</g>
			<g>
				<polygon class="st9" points="211.2,319.2 220.8,319.2 219.9,310.9 212.2,310.9 				"/>
				<path class="st9" d="M217.9,310.9c0-1.7-0.2-3.1-1.8-3.1c-1.7,0-1.9,1.4-1.9,3.1"/>
			</g>
			<g>
				<polygon class="st9" points="223.2,319.2 232.8,319.2 231.9,310.9 224.1,310.9 				"/>
				<path class="st9" d="M229.9,310.9c0-1.7-0.2-3.1-1.8-3.1c-1.7,0-1.9,1.4-1.9,3.1"/>
			</g>
			<g>
				<polygon class="st9" points="235.2,319.2 244.8,319.2 243.9,310.9 236.1,310.9 				"/>
				<path class="st9" d="M241.9,310.9c0-1.7-0.2-3.1-1.8-3.1c-1.7,0-1.9,1.4-1.9,3.1"/>
			</g>
			<g>
				<polygon class="st9" points="247.2,319.2 256.8,319.2 255.9,310.9 248.1,310.9 				"/>
				<path class="st9" d="M253.9,310.9c0-1.7-0.2-3.1-1.8-3.1c-1.7,0-1.9,1.4-1.9,3.1"/>
			</g>
		</g>
		<g>
			<g>
				<polygon class="st9" points="175.2,339.7 184.8,339.7 183.9,331.5 176.2,331.5 				"/>
				<path class="st9" d="M181.9,331.5c0-1.7-0.2-3.1-1.8-3.1c-1.7,0-1.9,1.4-1.9,3.1"/>
			</g>
			<g>
				<polygon class="st9" points="187.2,339.7 196.8,339.7 195.9,331.5 188.2,331.5 				"/>
				<path class="st9" d="M193.9,331.5c0-1.7-0.2-3.1-1.8-3.1c-1.7,0-1.9,1.4-1.9,3.1"/>
			</g>
			<g>
				<polygon class="st9" points="199.2,339.7 208.8,339.7 207.9,331.5 200.2,331.5 				"/>
				<path class="st9" d="M205.9,331.5c0-1.7-0.2-3.1-1.8-3.1c-1.7,0-1.9,1.4-1.9,3.1"/>
			</g>
			<g>
				<polygon class="st9" points="211.2,339.7 220.8,339.7 219.9,331.5 212.2,331.5 				"/>
				<path class="st9" d="M217.9,331.5c0-1.7-0.2-3.1-1.8-3.1c-1.7,0-1.9,1.4-1.9,3.1"/>
			</g>
			<g>
				<polygon class="st9" points="223.2,339.7 232.8,339.7 231.9,331.5 224.1,331.5 				"/>
				<path class="st9" d="M229.9,331.5c0-1.7-0.2-3.1-1.8-3.1c-1.7,0-1.9,1.4-1.9,3.1"/>
			</g>
			<g>
				<polygon class="st9" points="235.2,339.7 244.8,339.7 243.9,331.5 236.1,331.5 				"/>
				<path class="st9" d="M241.9,331.5c0-1.7-0.2-3.1-1.8-3.1c-1.7,0-1.9,1.4-1.9,3.1"/>
			</g>
			<g>
				<polygon class="st9" points="247.2,339.7 256.8,339.7 255.9,331.5 248.1,331.5 				"/>
				<path class="st9" d="M253.9,331.5c0-1.7-0.2-3.1-1.8-3.1c-1.7,0-1.9,1.4-1.9,3.1"/>
			</g>
		</g>
		<g>
			<g>
				<polygon class="st9" points="175.2,360.3 184.8,360.3 183.9,352 176.2,352 				"/>
				<path class="st9" d="M181.9,352c0-1.7-0.2-3.1-1.8-3.1c-1.7,0-1.9,1.4-1.9,3.1"/>
			</g>
			<g>
				<polygon class="st9" points="187.2,360.3 196.8,360.3 195.9,352 188.2,352 				"/>
				<path class="st9" d="M193.9,352c0-1.7-0.2-3.1-1.8-3.1c-1.7,0-1.9,1.4-1.9,3.1"/>
			</g>
			<g>
				<polygon class="st9" points="199.2,360.3 208.8,360.3 207.9,352 200.2,352 				"/>
				<path class="st9" d="M205.9,352c0-1.7-0.2-3.1-1.8-3.1c-1.7,0-1.9,1.4-1.9,3.1"/>
			</g>
			<g>
				<polygon class="st9" points="211.2,360.3 220.8,360.3 219.9,352 212.2,352 				"/>
				<path class="st9" d="M217.9,352c0-1.7-0.2-3.1-1.8-3.1c-1.7,0-1.9,1.4-1.9,3.1"/>
			</g>
			<g>
				<polygon class="st9" points="223.2,360.3 232.8,360.3 231.9,352 224.1,352 				"/>
				<path class="st9" d="M229.9,352c0-1.7-0.2-3.1-1.8-3.1c-1.7,0-1.9,1.4-1.9,3.1"/>
			</g>
			<g>
				<polygon class="st9" points="235.2,360.3 244.8,360.3 243.9,352 236.1,352 				"/>
				<path class="st9" d="M241.9,352c0-1.7-0.2-3.1-1.8-3.1c-1.7,0-1.9,1.4-1.9,3.1"/>
			</g>
			<g>
				<polygon class="st9" points="247.2,360.3 256.8,360.3 255.9,352 248.1,352 				"/>
				<path class="st9" d="M253.9,352c0-1.7-0.2-3.1-1.8-3.1c-1.7,0-1.9,1.4-1.9,3.1"/>
			</g>
		</g>
		<g>
			<g>
				<polygon class="st9" points="175.2,380.8 184.8,380.8 183.9,372.6 176.2,372.6 				"/>
				<path class="st9" d="M181.9,372.6c0-1.7-0.2-3.1-1.8-3.1c-1.7,0-1.9,1.4-1.9,3.1"/>
			</g>
			<g>
				<polygon class="st9" points="187.2,380.8 196.8,380.8 195.9,372.6 188.2,372.6 				"/>
				<path class="st9" d="M193.9,372.6c0-1.7-0.2-3.1-1.8-3.1c-1.7,0-1.9,1.4-1.9,3.1"/>
			</g>
			<g>
				<polygon class="st9" points="199.2,380.8 208.8,380.8 207.9,372.6 200.2,372.6 				"/>
				<path class="st9" d="M205.9,372.6c0-1.7-0.2-3.1-1.8-3.1c-1.7,0-1.9,1.4-1.9,3.1"/>
			</g>
			<g>
				<polygon class="st9" points="211.2,380.8 220.8,380.8 219.9,372.6 212.2,372.6 				"/>
				<path class="st9" d="M217.9,372.6c0-1.7-0.2-3.1-1.8-3.1c-1.7,0-1.9,1.4-1.9,3.1"/>
			</g>
			<g>
				<polygon class="st9" points="223.2,380.8 232.8,380.8 231.9,372.6 224.1,372.6 				"/>
				<path class="st9" d="M229.9,372.6c0-1.7-0.2-3.1-1.8-3.1c-1.7,0-1.9,1.4-1.9,3.1"/>
			</g>
			<g>
				<polygon class="st9" points="235.2,380.8 244.8,380.8 243.9,372.6 236.1,372.6 				"/>
				<path class="st9" d="M241.9,372.6c0-1.7-0.2-3.1-1.8-3.1c-1.7,0-1.9,1.4-1.9,3.1"/>
			</g>
			<g>
				<polygon class="st9" points="247.2,380.8 256.8,380.8 255.9,372.6 248.1,372.6 				"/>
				<path class="st9" d="M253.9,372.6c0-1.7-0.2-3.1-1.8-3.1c-1.7,0-1.9,1.4-1.9,3.1"/>
			</g>
		</g>
		<g>
			<g>
				<polygon class="st9" points="175.2,401.4 184.8,401.4 183.9,393.1 176.2,393.1 				"/>
				<path class="st9" d="M181.9,393.1c0-1.7-0.2-3.1-1.8-3.1c-1.7,0-1.9,1.4-1.9,3.1"/>
			</g>
			<g>
				<polygon class="st9" points="187.2,401.4 196.8,401.4 195.9,393.1 188.2,393.1 				"/>
				<path class="st9" d="M193.9,393.1c0-1.7-0.2-3.1-1.8-3.1c-1.7,0-1.9,1.4-1.9,3.1"/>
			</g>
			<g>
				<polygon class="st9" points="199.2,401.4 208.8,401.4 207.9,393.1 200.2,393.1 				"/>
				<path class="st9" d="M205.9,393.1c0-1.7-0.2-3.1-1.8-3.1c-1.7,0-1.9,1.4-1.9,3.1"/>
			</g>
			<g>
				<polygon class="st9" points="211.2,401.4 220.8,401.4 219.9,393.1 212.2,393.1 				"/>
				<path class="st9" d="M217.9,393.1c0-1.7-0.2-3.1-1.8-3.1c-1.7,0-1.9,1.4-1.9,3.1"/>
			</g>
			<g>
				<polygon class="st9" points="223.2,401.4 232.8,401.4 231.9,393.1 224.1,393.1 				"/>
				<path class="st9" d="M229.9,393.1c0-1.7-0.2-3.1-1.8-3.1c-1.7,0-1.9,1.4-1.9,3.1"/>
			</g>
			<g>
				<polygon class="st9" points="235.2,401.4 244.8,401.4 243.9,393.1 236.1,393.1 				"/>
				<path class="st9" d="M241.9,393.1c0-1.7-0.2-3.1-1.8-3.1c-1.7,0-1.9,1.4-1.9,3.1"/>
			</g>
			<g>
				<polygon class="st9" points="247.2,401.4 256.8,401.4 255.9,393.1 248.1,393.1 				"/>
				<path class="st9" d="M253.9,393.1c0-1.7-0.2-3.1-1.8-3.1c-1.7,0-1.9,1.4-1.9,3.1"/>
			</g>
		</g>
		<g>
			<g>
				<polygon class="st9" points="175.2,421.9 184.8,421.9 183.9,413.6 176.2,413.6 				"/>
				<path class="st9" d="M181.9,413.6c0-1.7-0.2-3.1-1.8-3.1c-1.7,0-1.9,1.4-1.9,3.1"/>
			</g>
			<g>
				<polygon class="st9" points="187.2,421.9 196.8,421.9 195.9,413.6 188.2,413.6 				"/>
				<path class="st9" d="M193.9,413.6c0-1.7-0.2-3.1-1.8-3.1c-1.7,0-1.9,1.4-1.9,3.1"/>
			</g>
			<g>
				<polygon class="st9" points="199.2,421.9 208.8,421.9 207.9,413.6 200.2,413.6 				"/>
				<path class="st9" d="M205.9,413.6c0-1.7-0.2-3.1-1.8-3.1c-1.7,0-1.9,1.4-1.9,3.1"/>
			</g>
			<g>
				<polygon class="st9" points="211.2,421.9 220.8,421.9 219.9,413.6 212.2,413.6 				"/>
				<path class="st9" d="M217.9,413.6c0-1.7-0.2-3.1-1.8-3.1c-1.7,0-1.9,1.4-1.9,3.1"/>
			</g>
			<g>
				<polygon class="st9" points="223.2,421.9 232.8,421.9 231.9,413.6 224.1,413.6 				"/>
				<path class="st9" d="M229.9,413.6c0-1.7-0.2-3.1-1.8-3.1c-1.7,0-1.9,1.4-1.9,3.1"/>
			</g>
			<g>
				<polygon class="st9" points="235.2,421.9 244.8,421.9 243.9,413.6 236.1,413.6 				"/>
				<path class="st9" d="M241.9,413.6c0-1.7-0.2-3.1-1.8-3.1c-1.7,0-1.9,1.4-1.9,3.1"/>
			</g>
			<g>
				<polygon class="st9" points="247.2,421.9 256.8,421.9 255.9,413.6 248.1,413.6 				"/>
				<path class="st9" d="M253.9,413.6c0-1.7-0.2-3.1-1.8-3.1c-1.7,0-1.9,1.4-1.9,3.1"/>
			</g>
		</g>
		<g>
			<g>
				<polygon class="st9" points="175.2,442.5 184.8,442.5 183.9,434.2 176.2,434.2 				"/>
				<path class="st9" d="M181.9,434.2c0-1.7-0.2-3.1-1.8-3.1c-1.7,0-1.9,1.4-1.9,3.1"/>
			</g>
			<g>
				<polygon class="st9" points="187.2,442.5 196.8,442.5 195.9,434.2 188.2,434.2 				"/>
				<path class="st9" d="M193.9,434.2c0-1.7-0.2-3.1-1.8-3.1c-1.7,0-1.9,1.4-1.9,3.1"/>
			</g>
			<g>
				<polygon class="st9" points="199.2,442.5 208.8,442.5 207.9,434.2 200.2,434.2 				"/>
				<path class="st9" d="M205.9,434.2c0-1.7-0.2-3.1-1.8-3.1c-1.7,0-1.9,1.4-1.9,3.1"/>
			</g>
			<g>
				<polygon class="st9" points="211.2,442.5 220.8,442.5 219.9,434.2 212.2,434.2 				"/>
				<path class="st9" d="M217.9,434.2c0-1.7-0.2-3.1-1.8-3.1c-1.7,0-1.9,1.4-1.9,3.1"/>
			</g>
			<g>
				<polygon class="st9" points="223.2,442.5 232.8,442.5 231.9,434.2 224.1,434.2 				"/>
				<path class="st9" d="M229.9,434.2c0-1.7-0.2-3.1-1.8-3.1c-1.7,0-1.9,1.4-1.9,3.1"/>
			</g>
			<g>
				<polygon class="st9" points="235.2,442.5 244.8,442.5 243.9,434.2 236.1,434.2 				"/>
				<path class="st9" d="M241.9,434.2c0-1.7-0.2-3.1-1.8-3.1c-1.7,0-1.9,1.4-1.9,3.1"/>
			</g>
			<g>
				<polygon class="st9" points="247.2,442.5 256.8,442.5 255.9,434.2 248.1,434.2 				"/>
				<path class="st9" d="M253.9,434.2c0-1.7-0.2-3.1-1.8-3.1c-1.7,0-1.9,1.4-1.9,3.1"/>
			</g>
		</g>
		<g>
			<g>
				<polygon class="st9" points="175.2,463 184.8,463 183.9,454.7 176.2,454.7 				"/>
				<path class="st9" d="M181.9,454.7c0-1.7-0.2-3.1-1.8-3.1c-1.7,0-1.9,1.4-1.9,3.1"/>
			</g>
			<g>
				<polygon class="st9" points="187.2,463 196.8,463 195.9,454.7 188.2,454.7 				"/>
				<path class="st9" d="M193.9,454.7c0-1.7-0.2-3.1-1.8-3.1c-1.7,0-1.9,1.4-1.9,3.1"/>
			</g>
			<g>
				<polygon class="st9" points="199.2,463 208.8,463 207.9,454.7 200.2,454.7 				"/>
				<path class="st9" d="M205.9,454.7c0-1.7-0.2-3.1-1.8-3.1c-1.7,0-1.9,1.4-1.9,3.1"/>
			</g>
			<g>
				<polygon class="st9" points="211.2,463 220.8,463 219.9,454.7 212.2,454.7 				"/>
				<path class="st9" d="M217.9,454.7c0-1.7-0.2-3.1-1.8-3.1c-1.7,0-1.9,1.4-1.9,3.1"/>
			</g>
			<g>
				<polygon class="st9" points="223.2,463 232.8,463 231.9,454.7 224.1,454.7 				"/>
				<path class="st9" d="M229.9,454.7c0-1.7-0.2-3.1-1.8-3.1c-1.7,0-1.9,1.4-1.9,3.1"/>
			</g>
			<g>
				<polygon class="st9" points="235.2,463 244.8,463 243.9,454.7 236.1,454.7 				"/>
				<path class="st9" d="M241.9,454.7c0-1.7-0.2-3.1-1.8-3.1c-1.7,0-1.9,1.4-1.9,3.1"/>
			</g>
			<g>
				<polygon class="st9" points="247.2,463 256.8,463 255.9,454.7 248.1,454.7 				"/>
				<path class="st9" d="M253.9,454.7c0-1.7-0.2-3.1-1.8-3.1c-1.7,0-1.9,1.4-1.9,3.1"/>
			</g>
		</g>
		<g>
			<g>
				<polygon class="st9" points="175.2,483.5 184.8,483.5 183.9,475.3 176.2,475.3 				"/>
				<path class="st9" d="M181.9,475.3c0-1.7-0.2-3.1-1.8-3.1c-1.7,0-1.9,1.4-1.9,3.1"/>
			</g>
			<g>
				<polygon class="st9" points="187.2,483.5 196.8,483.5 195.9,475.3 188.2,475.3 				"/>
				<path class="st9" d="M193.9,475.3c0-1.7-0.2-3.1-1.8-3.1c-1.7,0-1.9,1.4-1.9,3.1"/>
			</g>
			<g>
				<polygon class="st9" points="199.2,483.5 208.8,483.5 207.9,475.3 200.2,475.3 				"/>
				<path class="st9" d="M205.9,475.3c0-1.7-0.2-3.1-1.8-3.1c-1.7,0-1.9,1.4-1.9,3.1"/>
			</g>
			<g>
				<polygon class="st9" points="211.2,483.5 220.8,483.5 219.9,475.3 212.2,475.3 				"/>
				<path class="st9" d="M217.9,475.3c0-1.7-0.2-3.1-1.8-3.1c-1.7,0-1.9,1.4-1.9,3.1"/>
			</g>
			<g>
				<polygon class="st9" points="223.2,483.5 232.8,483.5 231.9,475.3 224.1,475.3 				"/>
				<path class="st9" d="M229.9,475.3c0-1.7-0.2-3.1-1.8-3.1c-1.7,0-1.9,1.4-1.9,3.1"/>
			</g>
			<g>
				<polygon class="st9" points="235.2,483.5 244.8,483.5 243.9,475.3 236.1,475.3 				"/>
				<path class="st9" d="M241.9,475.3c0-1.7-0.2-3.1-1.8-3.1c-1.7,0-1.9,1.4-1.9,3.1"/>
			</g>
			<g>
				<polygon class="st9" points="247.2,483.5 256.8,483.5 255.9,475.3 248.1,475.3 				"/>
				<path class="st9" d="M253.9,475.3c0-1.7-0.2-3.1-1.8-3.1c-1.7,0-1.9,1.4-1.9,3.1"/>
			</g>
		</g>
		<g>
			<g>
				<polygon class="st9" points="175.2,504.1 184.8,504.1 183.9,495.8 176.2,495.8 				"/>
				<path class="st9" d="M181.9,495.8c0-1.7-0.2-3.1-1.8-3.1c-1.7,0-1.9,1.4-1.9,3.1"/>
			</g>
			<g>
				<polygon class="st9" points="187.2,504.1 196.8,504.1 195.9,495.8 188.2,495.8 				"/>
				<path class="st9" d="M193.9,495.8c0-1.7-0.2-3.1-1.8-3.1c-1.7,0-1.9,1.4-1.9,3.1"/>
			</g>
			<g>
				<polygon class="st9" points="199.2,504.1 208.8,504.1 207.9,495.8 200.2,495.8 				"/>
				<path class="st9" d="M205.9,495.8c0-1.7-0.2-3.1-1.8-3.1c-1.7,0-1.9,1.4-1.9,3.1"/>
			</g>
			<g>
				<polygon class="st9" points="211.2,504.1 220.8,504.1 219.9,495.8 212.2,495.8 				"/>
				<path class="st9" d="M217.9,495.8c0-1.7-0.2-3.1-1.8-3.1c-1.7,0-1.9,1.4-1.9,3.1"/>
			</g>
			<g>
				<polygon class="st9" points="223.2,504.1 232.8,504.1 231.9,495.8 224.1,495.8 				"/>
				<path class="st9" d="M229.9,495.8c0-1.7-0.2-3.1-1.8-3.1c-1.7,0-1.9,1.4-1.9,3.1"/>
			</g>
			<g>
				<polygon class="st9" points="235.2,504.1 244.8,504.1 243.9,495.8 236.1,495.8 				"/>
				<path class="st9" d="M241.9,495.8c0-1.7-0.2-3.1-1.8-3.1c-1.7,0-1.9,1.4-1.9,3.1"/>
			</g>
			<g>
				<polygon class="st9" points="247.2,504.1 256.8,504.1 255.9,495.8 248.1,495.8 				"/>
				<path class="st9" d="M253.9,495.8c0-1.7-0.2-3.1-1.8-3.1c-1.7,0-1.9,1.4-1.9,3.1"/>
			</g>
		</g>
	</g>
	<g>
		<text transform="matrix(1 0 0 1 286.4971 152.8965)" class="st3 st8">ПН</text>
		<text transform="matrix(1 0 0 1 298.8574 152.8965)" class="st3 st8">ВТ</text>
		<text transform="matrix(1 0 0 1 310.7588 152.8965)" class="st3 st8">СР</text>
		<text transform="matrix(1 0 0 1 322.9189 152.8965)" class="st3 st8">ЧТ</text>
		<text transform="matrix(1 0 0 1 334.7715 152.8965)" class="st3 st8">ПТ</text>
		<g>
			<text transform="matrix(1 0 0 1 346.6396 152.957)" class="st3 st8">СБ</text>
		</g>
		<g>
			<text transform="matrix(1 0 0 1 358.5996 152.957)" class="st3 st8">ВС</text>
		</g>
	</g>
	<g>
		<g>
			<g>
				<polygon class="st9" points="284.8,175.4 294.4,175.4 293.4,167.1 285.7,167.1 				"/>
				<path class="st9" d="M291.4,167.1c0-1.7-0.2-3.1-1.8-3.1c-1.7,0-1.9,1.4-1.9,3.1"/>
			</g>
			<g>
				<polygon class="st9" points="296.8,175.4 306.4,175.4 305.4,167.1 297.7,167.1 				"/>
				<path class="st9" d="M303.4,167.1c0-1.7-0.2-3.1-1.8-3.1c-1.7,0-1.9,1.4-1.9,3.1"/>
			</g>
			<g>
				<polygon class="st9" points="308.8,175.4 318.4,175.4 317.4,167.1 309.7,167.1 				"/>
				<path class="st9" d="M315.4,167.1c0-1.7-0.2-3.1-1.8-3.1c-1.7,0-1.9,1.4-1.9,3.1"/>
			</g>
			<g>
				<polygon class="st9" points="320.8,175.4 330.4,175.4 329.4,167.1 321.7,167.1 				"/>
				<path class="st9" d="M327.4,167.1c0-1.7-0.2-3.1-1.8-3.1c-1.7,0-1.9,1.4-1.9,3.1"/>
			</g>
			<g>
				<polygon class="st9" points="332.8,175.4 342.4,175.4 341.4,167.1 333.7,167.1 				"/>
				<path class="st9" d="M339.4,167.1c0-1.7-0.2-3.1-1.8-3.1c-1.7,0-1.9,1.4-1.9,3.1"/>
			</g>
			<g>
				<polygon class="st9" points="344.8,175.4 354.4,175.4 353.4,167.1 345.7,167.1 				"/>
				<path class="st9" d="M351.4,167.1c0-1.7-0.2-3.1-1.8-3.1c-1.7,0-1.9,1.4-1.9,3.1"/>
			</g>
			<g>
				<polygon class="st9" points="356.8,175.4 366.3,175.4 365.4,167.1 357.7,167.1 				"/>
				<path class="st9" d="M363.4,167.1c0-1.7-0.2-3.1-1.8-3.1c-1.7,0-1.9,1.4-1.9,3.1"/>
			</g>
		</g>
		<g>
			<g>
				<polygon class="st9" points="284.8,195.9 294.4,195.9 293.4,187.6 285.7,187.6 				"/>
				<path class="st9" d="M291.4,187.6c0-1.7-0.2-3.1-1.8-3.1c-1.7,0-1.9,1.4-1.9,3.1"/>
			</g>
			<g>
				<polygon class="st9" points="296.8,195.9 306.4,195.9 305.4,187.6 297.7,187.6 				"/>
				<path class="st9" d="M303.4,187.6c0-1.7-0.2-3.1-1.8-3.1c-1.7,0-1.9,1.4-1.9,3.1"/>
			</g>
			<g>
				<polygon class="st9" points="308.8,195.9 318.4,195.9 317.4,187.6 309.7,187.6 				"/>
				<path class="st9" d="M315.4,187.6c0-1.7-0.2-3.1-1.8-3.1c-1.7,0-1.9,1.4-1.9,3.1"/>
			</g>
			<g>
				<polygon class="st9" points="320.8,195.9 330.4,195.9 329.4,187.6 321.7,187.6 				"/>
				<path class="st9" d="M327.4,187.6c0-1.7-0.2-3.1-1.8-3.1c-1.7,0-1.9,1.4-1.9,3.1"/>
			</g>
			<g>
				<polygon class="st9" points="332.8,195.9 342.4,195.9 341.4,187.6 333.7,187.6 				"/>
				<path class="st9" d="M339.4,187.6c0-1.7-0.2-3.1-1.8-3.1c-1.7,0-1.9,1.4-1.9,3.1"/>
			</g>
			<g>
				<polygon class="st9" points="344.8,195.9 354.4,195.9 353.4,187.6 345.7,187.6 				"/>
				<path class="st9" d="M351.4,187.6c0-1.7-0.2-3.1-1.8-3.1c-1.7,0-1.9,1.4-1.9,3.1"/>
			</g>
			<g>
				<polygon class="st9" points="356.8,195.9 366.3,195.9 365.4,187.6 357.7,187.6 				"/>
				<path class="st9" d="M363.4,187.6c0-1.7-0.2-3.1-1.8-3.1c-1.7,0-1.9,1.4-1.9,3.1"/>
			</g>
		</g>
		<g>
			<g>
				<polygon class="st9" points="284.8,216.4 294.4,216.4 293.4,208.2 285.7,208.2 				"/>
				<path class="st9" d="M291.4,208.2c0-1.7-0.2-3.1-1.8-3.1c-1.7,0-1.9,1.4-1.9,3.1"/>
			</g>
			<g>
				<polygon class="st9" points="296.8,216.4 306.4,216.4 305.4,208.2 297.7,208.2 				"/>
				<path class="st9" d="M303.4,208.2c0-1.7-0.2-3.1-1.8-3.1c-1.7,0-1.9,1.4-1.9,3.1"/>
			</g>
			<g>
				<polygon class="st9" points="308.8,216.4 318.4,216.4 317.4,208.2 309.7,208.2 				"/>
				<path class="st9" d="M315.4,208.2c0-1.7-0.2-3.1-1.8-3.1c-1.7,0-1.9,1.4-1.9,3.1"/>
			</g>
			<g>
				<polygon class="st9" points="320.8,216.4 330.4,216.4 329.4,208.2 321.7,208.2 				"/>
				<path class="st9" d="M327.4,208.2c0-1.7-0.2-3.1-1.8-3.1c-1.7,0-1.9,1.4-1.9,3.1"/>
			</g>
			<g>
				<polygon class="st9" points="332.8,216.4 342.4,216.4 341.4,208.2 333.7,208.2 				"/>
				<path class="st9" d="M339.4,208.2c0-1.7-0.2-3.1-1.8-3.1c-1.7,0-1.9,1.4-1.9,3.1"/>
			</g>
			<g>
				<polygon class="st9" points="344.8,216.4 354.4,216.4 353.4,208.2 345.7,208.2 				"/>
				<path class="st9" d="M351.4,208.2c0-1.7-0.2-3.1-1.8-3.1c-1.7,0-1.9,1.4-1.9,3.1"/>
			</g>
			<g>
				<polygon class="st9" points="356.8,216.4 366.3,216.4 365.4,208.2 357.7,208.2 				"/>
				<path class="st9" d="M363.4,208.2c0-1.7-0.2-3.1-1.8-3.1c-1.7,0-1.9,1.4-1.9,3.1"/>
			</g>
		</g>
		<g>
			<g>
				<polygon class="st9" points="284.8,237 294.4,237 293.4,228.7 285.7,228.7 				"/>
				<path class="st9" d="M291.4,228.7c0-1.7-0.2-3.1-1.8-3.1c-1.7,0-1.9,1.4-1.9,3.1"/>
			</g>
			<g>
				<polygon class="st9" points="296.8,237 306.4,237 305.4,228.7 297.7,228.7 				"/>
				<path class="st9" d="M303.4,228.7c0-1.7-0.2-3.1-1.8-3.1c-1.7,0-1.9,1.4-1.9,3.1"/>
			</g>
			<g>
				<polygon class="st9" points="308.8,237 318.4,237 317.4,228.7 309.7,228.7 				"/>
				<path class="st9" d="M315.4,228.7c0-1.7-0.2-3.1-1.8-3.1c-1.7,0-1.9,1.4-1.9,3.1"/>
			</g>
			<g>
				<polygon class="st9" points="320.8,237 330.4,237 329.4,228.7 321.7,228.7 				"/>
				<path class="st9" d="M327.4,228.7c0-1.7-0.2-3.1-1.8-3.1c-1.7,0-1.9,1.4-1.9,3.1"/>
			</g>
			<g>
				<polygon class="st9" points="332.8,237 342.4,237 341.4,228.7 333.7,228.7 				"/>
				<path class="st9" d="M339.4,228.7c0-1.7-0.2-3.1-1.8-3.1c-1.7,0-1.9,1.4-1.9,3.1"/>
			</g>
			<g>
				<polygon class="st9" points="344.8,237 354.4,237 353.4,228.7 345.7,228.7 				"/>
				<path class="st9" d="M351.4,228.7c0-1.7-0.2-3.1-1.8-3.1c-1.7,0-1.9,1.4-1.9,3.1"/>
			</g>
			<g>
				<polygon class="st9" points="356.8,237 366.3,237 365.4,228.7 357.7,228.7 				"/>
				<path class="st9" d="M363.4,228.7c0-1.7-0.2-3.1-1.8-3.1c-1.7,0-1.9,1.4-1.9,3.1"/>
			</g>
		</g>
		<g>
			<g>
				<polygon class="st9" points="284.8,257.5 294.4,257.5 293.4,249.3 285.7,249.3 				"/>
				<path class="st9" d="M291.4,249.3c0-1.7-0.2-3.1-1.8-3.1c-1.7,0-1.9,1.4-1.9,3.1"/>
			</g>
			<g>
				<polygon class="st9" points="296.8,257.5 306.4,257.5 305.4,249.3 297.7,249.3 				"/>
				<path class="st9" d="M303.4,249.3c0-1.7-0.2-3.1-1.8-3.1c-1.7,0-1.9,1.4-1.9,3.1"/>
			</g>
			<g>
				<polygon class="st9" points="308.8,257.5 318.4,257.5 317.4,249.3 309.7,249.3 				"/>
				<path class="st9" d="M315.4,249.3c0-1.7-0.2-3.1-1.8-3.1c-1.7,0-1.9,1.4-1.9,3.1"/>
			</g>
			<g>
				<polygon class="st9" points="320.8,257.5 330.4,257.5 329.4,249.3 321.7,249.3 				"/>
				<path class="st9" d="M327.4,249.3c0-1.7-0.2-3.1-1.8-3.1c-1.7,0-1.9,1.4-1.9,3.1"/>
			</g>
			<g>
				<polygon class="st9" points="332.8,257.5 342.4,257.5 341.4,249.3 333.7,249.3 				"/>
				<path class="st9" d="M339.4,249.3c0-1.7-0.2-3.1-1.8-3.1c-1.7,0-1.9,1.4-1.9,3.1"/>
			</g>
			<g>
				<polygon class="st9" points="344.8,257.5 354.4,257.5 353.4,249.3 345.7,249.3 				"/>
				<path class="st9" d="M351.4,249.3c0-1.7-0.2-3.1-1.8-3.1c-1.7,0-1.9,1.4-1.9,3.1"/>
			</g>
			<g>
				<polygon class="st9" points="356.8,257.5 366.3,257.5 365.4,249.3 357.7,249.3 				"/>
				<path class="st9" d="M363.4,249.3c0-1.7-0.2-3.1-1.8-3.1c-1.7,0-1.9,1.4-1.9,3.1"/>
			</g>
		</g>
		<g>
			<g>
				<polygon class="st9" points="284.8,278.1 294.4,278.1 293.4,269.8 285.7,269.8 				"/>
				<path class="st9" d="M291.4,269.8c0-1.7-0.2-3.1-1.8-3.1c-1.7,0-1.9,1.4-1.9,3.1"/>
			</g>
			<g>
				<polygon class="st9" points="296.8,278.1 306.4,278.1 305.4,269.8 297.7,269.8 				"/>
				<path class="st9" d="M303.4,269.8c0-1.7-0.2-3.1-1.8-3.1c-1.7,0-1.9,1.4-1.9,3.1"/>
			</g>
			<g>
				<polygon class="st9" points="308.8,278.1 318.4,278.1 317.4,269.8 309.7,269.8 				"/>
				<path class="st9" d="M315.4,269.8c0-1.7-0.2-3.1-1.8-3.1c-1.7,0-1.9,1.4-1.9,3.1"/>
			</g>
			<g>
				<polygon class="st9" points="320.8,278.1 330.4,278.1 329.4,269.8 321.7,269.8 				"/>
				<path class="st9" d="M327.4,269.8c0-1.7-0.2-3.1-1.8-3.1c-1.7,0-1.9,1.4-1.9,3.1"/>
			</g>
			<g>
				<polygon class="st9" points="332.8,278.1 342.4,278.1 341.4,269.8 333.7,269.8 				"/>
				<path class="st9" d="M339.4,269.8c0-1.7-0.2-3.1-1.8-3.1c-1.7,0-1.9,1.4-1.9,3.1"/>
			</g>
			<g>
				<polygon class="st9" points="344.8,278.1 354.4,278.1 353.4,269.8 345.7,269.8 				"/>
				<path class="st9" d="M351.4,269.8c0-1.7-0.2-3.1-1.8-3.1c-1.7,0-1.9,1.4-1.9,3.1"/>
			</g>
			<g>
				<polygon class="st9" points="356.8,278.1 366.3,278.1 365.4,269.8 357.7,269.8 				"/>
				<path class="st9" d="M363.4,269.8c0-1.7-0.2-3.1-1.8-3.1c-1.7,0-1.9,1.4-1.9,3.1"/>
			</g>
		</g>
		<g>
			<g>
				<polygon class="st9" points="284.8,298.6 294.4,298.6 293.4,290.4 285.7,290.4 				"/>
				<path class="st9" d="M291.4,290.4c0-1.7-0.2-3.1-1.8-3.1c-1.7,0-1.9,1.4-1.9,3.1"/>
			</g>
			<g>
				<polygon class="st9" points="296.8,298.6 306.4,298.6 305.4,290.4 297.7,290.4 				"/>
				<path class="st9" d="M303.4,290.4c0-1.7-0.2-3.1-1.8-3.1c-1.7,0-1.9,1.4-1.9,3.1"/>
			</g>
			<g>
				<polygon class="st9" points="308.8,298.6 318.4,298.6 317.4,290.4 309.7,290.4 				"/>
				<path class="st9" d="M315.4,290.4c0-1.7-0.2-3.1-1.8-3.1c-1.7,0-1.9,1.4-1.9,3.1"/>
			</g>
			<g>
				<polygon class="st9" points="320.8,298.6 330.4,298.6 329.4,290.4 321.7,290.4 				"/>
				<path class="st9" d="M327.4,290.4c0-1.7-0.2-3.1-1.8-3.1c-1.7,0-1.9,1.4-1.9,3.1"/>
			</g>
			<g>
				<polygon class="st9" points="332.8,298.6 342.4,298.6 341.4,290.4 333.7,290.4 				"/>
				<path class="st9" d="M339.4,290.4c0-1.7-0.2-3.1-1.8-3.1c-1.7,0-1.9,1.4-1.9,3.1"/>
			</g>
			<g>
				<polygon class="st9" points="344.8,298.6 354.4,298.6 353.4,290.4 345.7,290.4 				"/>
				<path class="st9" d="M351.4,290.4c0-1.7-0.2-3.1-1.8-3.1c-1.7,0-1.9,1.4-1.9,3.1"/>
			</g>
			<g>
				<polygon class="st9" points="356.8,298.6 366.3,298.6 365.4,290.4 357.7,290.4 				"/>
				<path class="st9" d="M363.4,290.4c0-1.7-0.2-3.1-1.8-3.1c-1.7,0-1.9,1.4-1.9,3.1"/>
			</g>
		</g>
		<g>
			<g>
				<polygon class="st9" points="284.8,319.2 294.4,319.2 293.4,310.9 285.7,310.9 				"/>
				<path class="st9" d="M291.4,310.9c0-1.7-0.2-3.1-1.8-3.1c-1.7,0-1.9,1.4-1.9,3.1"/>
			</g>
			<g>
				<polygon class="st9" points="296.8,319.2 306.4,319.2 305.4,310.9 297.7,310.9 				"/>
				<path class="st9" d="M303.4,310.9c0-1.7-0.2-3.1-1.8-3.1c-1.7,0-1.9,1.4-1.9,3.1"/>
			</g>
			<g>
				<polygon class="st9" points="308.8,319.2 318.4,319.2 317.4,310.9 309.7,310.9 				"/>
				<path class="st9" d="M315.4,310.9c0-1.7-0.2-3.1-1.8-3.1c-1.7,0-1.9,1.4-1.9,3.1"/>
			</g>
			<g>
				<polygon class="st9" points="320.8,319.2 330.4,319.2 329.4,310.9 321.7,310.9 				"/>
				<path class="st9" d="M327.4,310.9c0-1.7-0.2-3.1-1.8-3.1c-1.7,0-1.9,1.4-1.9,3.1"/>
			</g>
			<g>
				<polygon class="st9" points="332.8,319.2 342.4,319.2 341.4,310.9 333.7,310.9 				"/>
				<path class="st9" d="M339.4,310.9c0-1.7-0.2-3.1-1.8-3.1c-1.7,0-1.9,1.4-1.9,3.1"/>
			</g>
			<g>
				<polygon class="st9" points="344.8,319.2 354.4,319.2 353.4,310.9 345.7,310.9 				"/>
				<path class="st9" d="M351.4,310.9c0-1.7-0.2-3.1-1.8-3.1c-1.7,0-1.9,1.4-1.9,3.1"/>
			</g>
			<g>
				<polygon class="st9" points="356.8,319.2 366.3,319.2 365.4,310.9 357.7,310.9 				"/>
				<path class="st9" d="M363.4,310.9c0-1.7-0.2-3.1-1.8-3.1c-1.7,0-1.9,1.4-1.9,3.1"/>
			</g>
		</g>
		<g>
			<g>
				<polygon class="st9" points="284.8,339.7 294.4,339.7 293.4,331.5 285.7,331.5 				"/>
				<path class="st9" d="M291.4,331.5c0-1.7-0.2-3.1-1.8-3.1c-1.7,0-1.9,1.4-1.9,3.1"/>
			</g>
			<g>
				<polygon class="st9" points="296.8,339.7 306.4,339.7 305.4,331.5 297.7,331.5 				"/>
				<path class="st9" d="M303.4,331.5c0-1.7-0.2-3.1-1.8-3.1c-1.7,0-1.9,1.4-1.9,3.1"/>
			</g>
			<g>
				<polygon class="st9" points="308.8,339.7 318.4,339.7 317.4,331.5 309.7,331.5 				"/>
				<path class="st9" d="M315.4,331.5c0-1.7-0.2-3.1-1.8-3.1c-1.7,0-1.9,1.4-1.9,3.1"/>
			</g>
			<g>
				<polygon class="st9" points="320.8,339.7 330.4,339.7 329.4,331.5 321.7,331.5 				"/>
				<path class="st9" d="M327.4,331.5c0-1.7-0.2-3.1-1.8-3.1c-1.7,0-1.9,1.4-1.9,3.1"/>
			</g>
			<g>
				<polygon class="st9" points="332.8,339.7 342.4,339.7 341.4,331.5 333.7,331.5 				"/>
				<path class="st9" d="M339.4,331.5c0-1.7-0.2-3.1-1.8-3.1c-1.7,0-1.9,1.4-1.9,3.1"/>
			</g>
			<g>
				<polygon class="st9" points="344.8,339.7 354.4,339.7 353.4,331.5 345.7,331.5 				"/>
				<path class="st9" d="M351.4,331.5c0-1.7-0.2-3.1-1.8-3.1c-1.7,0-1.9,1.4-1.9,3.1"/>
			</g>
			<g>
				<polygon class="st9" points="356.8,339.7 366.3,339.7 365.4,331.5 357.7,331.5 				"/>
				<path class="st9" d="M363.4,331.5c0-1.7-0.2-3.1-1.8-3.1c-1.7,0-1.9,1.4-1.9,3.1"/>
			</g>
		</g>
		<g>
			<g>
				<polygon class="st9" points="284.8,360.3 294.4,360.3 293.4,352 285.7,352 				"/>
				<path class="st9" d="M291.4,352c0-1.7-0.2-3.1-1.8-3.1c-1.7,0-1.9,1.4-1.9,3.1"/>
			</g>
			<g>
				<polygon class="st9" points="296.8,360.3 306.4,360.3 305.4,352 297.7,352 				"/>
				<path class="st9" d="M303.4,352c0-1.7-0.2-3.1-1.8-3.1c-1.7,0-1.9,1.4-1.9,3.1"/>
			</g>
			<g>
				<polygon class="st9" points="308.8,360.3 318.4,360.3 317.4,352 309.7,352 				"/>
				<path class="st9" d="M315.4,352c0-1.7-0.2-3.1-1.8-3.1c-1.7,0-1.9,1.4-1.9,3.1"/>
			</g>
			<g>
				<polygon class="st9" points="320.8,360.3 330.4,360.3 329.4,352 321.7,352 				"/>
				<path class="st9" d="M327.4,352c0-1.7-0.2-3.1-1.8-3.1c-1.7,0-1.9,1.4-1.9,3.1"/>
			</g>
			<g>
				<polygon class="st9" points="332.8,360.3 342.4,360.3 341.4,352 333.7,352 				"/>
				<path class="st9" d="M339.4,352c0-1.7-0.2-3.1-1.8-3.1c-1.7,0-1.9,1.4-1.9,3.1"/>
			</g>
			<g>
				<polygon class="st9" points="344.8,360.3 354.4,360.3 353.4,352 345.7,352 				"/>
				<path class="st9" d="M351.4,352c0-1.7-0.2-3.1-1.8-3.1c-1.7,0-1.9,1.4-1.9,3.1"/>
			</g>
			<g>
				<polygon class="st9" points="356.8,360.3 366.3,360.3 365.4,352 357.7,352 				"/>
				<path class="st9" d="M363.4,352c0-1.7-0.2-3.1-1.8-3.1c-1.7,0-1.9,1.4-1.9,3.1"/>
			</g>
		</g>
		<g>
			<g>
				<polygon class="st9" points="284.8,380.8 294.4,380.8 293.4,372.6 285.7,372.6 				"/>
				<path class="st9" d="M291.4,372.6c0-1.7-0.2-3.1-1.8-3.1c-1.7,0-1.9,1.4-1.9,3.1"/>
			</g>
			<g>
				<polygon class="st9" points="296.8,380.8 306.4,380.8 305.4,372.6 297.7,372.6 				"/>
				<path class="st9" d="M303.4,372.6c0-1.7-0.2-3.1-1.8-3.1c-1.7,0-1.9,1.4-1.9,3.1"/>
			</g>
			<g>
				<polygon class="st9" points="308.8,380.8 318.4,380.8 317.4,372.6 309.7,372.6 				"/>
				<path class="st9" d="M315.4,372.6c0-1.7-0.2-3.1-1.8-3.1c-1.7,0-1.9,1.4-1.9,3.1"/>
			</g>
			<g>
				<polygon class="st9" points="320.8,380.8 330.4,380.8 329.4,372.6 321.7,372.6 				"/>
				<path class="st9" d="M327.4,372.6c0-1.7-0.2-3.1-1.8-3.1c-1.7,0-1.9,1.4-1.9,3.1"/>
			</g>
			<g>
				<polygon class="st9" points="332.8,380.8 342.4,380.8 341.4,372.6 333.7,372.6 				"/>
				<path class="st9" d="M339.4,372.6c0-1.7-0.2-3.1-1.8-3.1c-1.7,0-1.9,1.4-1.9,3.1"/>
			</g>
			<g>
				<polygon class="st9" points="344.8,380.8 354.4,380.8 353.4,372.6 345.7,372.6 				"/>
				<path class="st9" d="M351.4,372.6c0-1.7-0.2-3.1-1.8-3.1c-1.7,0-1.9,1.4-1.9,3.1"/>
			</g>
			<g>
				<polygon class="st9" points="356.8,380.8 366.3,380.8 365.4,372.6 357.7,372.6 				"/>
				<path class="st9" d="M363.4,372.6c0-1.7-0.2-3.1-1.8-3.1c-1.7,0-1.9,1.4-1.9,3.1"/>
			</g>
		</g>
		<g>
			<g>
				<polygon class="st9" points="284.8,401.4 294.4,401.4 293.4,393.1 285.7,393.1 				"/>
				<path class="st9" d="M291.4,393.1c0-1.7-0.2-3.1-1.8-3.1c-1.7,0-1.9,1.4-1.9,3.1"/>
			</g>
			<g>
				<polygon class="st9" points="296.8,401.4 306.4,401.4 305.4,393.1 297.7,393.1 				"/>
				<path class="st9" d="M303.4,393.1c0-1.7-0.2-3.1-1.8-3.1c-1.7,0-1.9,1.4-1.9,3.1"/>
			</g>
			<g>
				<polygon class="st9" points="308.8,401.4 318.4,401.4 317.4,393.1 309.7,393.1 				"/>
				<path class="st9" d="M315.4,393.1c0-1.7-0.2-3.1-1.8-3.1c-1.7,0-1.9,1.4-1.9,3.1"/>
			</g>
			<g>
				<polygon class="st9" points="320.8,401.4 330.4,401.4 329.4,393.1 321.7,393.1 				"/>
				<path class="st9" d="M327.4,393.1c0-1.7-0.2-3.1-1.8-3.1c-1.7,0-1.9,1.4-1.9,3.1"/>
			</g>
			<g>
				<polygon class="st9" points="332.8,401.4 342.4,401.4 341.4,393.1 333.7,393.1 				"/>
				<path class="st9" d="M339.4,393.1c0-1.7-0.2-3.1-1.8-3.1c-1.7,0-1.9,1.4-1.9,3.1"/>
			</g>
			<g>
				<polygon class="st9" points="344.8,401.4 354.4,401.4 353.4,393.1 345.7,393.1 				"/>
				<path class="st9" d="M351.4,393.1c0-1.7-0.2-3.1-1.8-3.1c-1.7,0-1.9,1.4-1.9,3.1"/>
			</g>
			<g>
				<polygon class="st9" points="356.8,401.4 366.3,401.4 365.4,393.1 357.7,393.1 				"/>
				<path class="st9" d="M363.4,393.1c0-1.7-0.2-3.1-1.8-3.1c-1.7,0-1.9,1.4-1.9,3.1"/>
			</g>
		</g>
		<g>
			<g>
				<polygon class="st9" points="284.8,421.9 294.4,421.9 293.4,413.6 285.7,413.6 				"/>
				<path class="st9" d="M291.4,413.6c0-1.7-0.2-3.1-1.8-3.1c-1.7,0-1.9,1.4-1.9,3.1"/>
			</g>
			<g>
				<polygon class="st9" points="296.8,421.9 306.4,421.9 305.4,413.6 297.7,413.6 				"/>
				<path class="st9" d="M303.4,413.6c0-1.7-0.2-3.1-1.8-3.1c-1.7,0-1.9,1.4-1.9,3.1"/>
			</g>
			<g>
				<polygon class="st9" points="308.8,421.9 318.4,421.9 317.4,413.6 309.7,413.6 				"/>
				<path class="st9" d="M315.4,413.6c0-1.7-0.2-3.1-1.8-3.1c-1.7,0-1.9,1.4-1.9,3.1"/>
			</g>
			<g>
				<polygon class="st9" points="320.8,421.9 330.4,421.9 329.4,413.6 321.7,413.6 				"/>
				<path class="st9" d="M327.4,413.6c0-1.7-0.2-3.1-1.8-3.1c-1.7,0-1.9,1.4-1.9,3.1"/>
			</g>
			<g>
				<polygon class="st9" points="332.8,421.9 342.4,421.9 341.4,413.6 333.7,413.6 				"/>
				<path class="st9" d="M339.4,413.6c0-1.7-0.2-3.1-1.8-3.1c-1.7,0-1.9,1.4-1.9,3.1"/>
			</g>
			<g>
				<polygon class="st9" points="344.8,421.9 354.4,421.9 353.4,413.6 345.7,413.6 				"/>
				<path class="st9" d="M351.4,413.6c0-1.7-0.2-3.1-1.8-3.1c-1.7,0-1.9,1.4-1.9,3.1"/>
			</g>
			<g>
				<polygon class="st9" points="356.8,421.9 366.3,421.9 365.4,413.6 357.7,413.6 				"/>
				<path class="st9" d="M363.4,413.6c0-1.7-0.2-3.1-1.8-3.1c-1.7,0-1.9,1.4-1.9,3.1"/>
			</g>
		</g>
		<g>
			<g>
				<polygon class="st9" points="284.8,442.5 294.4,442.5 293.4,434.2 285.7,434.2 				"/>
				<path class="st9" d="M291.4,434.2c0-1.7-0.2-3.1-1.8-3.1c-1.7,0-1.9,1.4-1.9,3.1"/>
			</g>
			<g>
				<polygon class="st9" points="296.8,442.5 306.4,442.5 305.4,434.2 297.7,434.2 				"/>
				<path class="st9" d="M303.4,434.2c0-1.7-0.2-3.1-1.8-3.1c-1.7,0-1.9,1.4-1.9,3.1"/>
			</g>
			<g>
				<polygon class="st9" points="308.8,442.5 318.4,442.5 317.4,434.2 309.7,434.2 				"/>
				<path class="st9" d="M315.4,434.2c0-1.7-0.2-3.1-1.8-3.1c-1.7,0-1.9,1.4-1.9,3.1"/>
			</g>
			<g>
				<polygon class="st9" points="320.8,442.5 330.4,442.5 329.4,434.2 321.7,434.2 				"/>
				<path class="st9" d="M327.4,434.2c0-1.7-0.2-3.1-1.8-3.1c-1.7,0-1.9,1.4-1.9,3.1"/>
			</g>
			<g>
				<polygon class="st9" points="332.8,442.5 342.4,442.5 341.4,434.2 333.7,434.2 				"/>
				<path class="st9" d="M339.4,434.2c0-1.7-0.2-3.1-1.8-3.1c-1.7,0-1.9,1.4-1.9,3.1"/>
			</g>
			<g>
				<polygon class="st9" points="344.8,442.5 354.4,442.5 353.4,434.2 345.7,434.2 				"/>
				<path class="st9" d="M351.4,434.2c0-1.7-0.2-3.1-1.8-3.1c-1.7,0-1.9,1.4-1.9,3.1"/>
			</g>
			<g>
				<polygon class="st9" points="356.8,442.5 366.3,442.5 365.4,434.2 357.7,434.2 				"/>
				<path class="st9" d="M363.4,434.2c0-1.7-0.2-3.1-1.8-3.1c-1.7,0-1.9,1.4-1.9,3.1"/>
			</g>
		</g>
		<g>
			<g>
				<polygon class="st9" points="284.8,463 294.4,463 293.4,454.7 285.7,454.7 				"/>
				<path class="st9" d="M291.4,454.7c0-1.7-0.2-3.1-1.8-3.1c-1.7,0-1.9,1.4-1.9,3.1"/>
			</g>
			<g>
				<polygon class="st9" points="296.8,463 306.4,463 305.4,454.7 297.7,454.7 				"/>
				<path class="st9" d="M303.4,454.7c0-1.7-0.2-3.1-1.8-3.1c-1.7,0-1.9,1.4-1.9,3.1"/>
			</g>
			<g>
				<polygon class="st9" points="308.8,463 318.4,463 317.4,454.7 309.7,454.7 				"/>
				<path class="st9" d="M315.4,454.7c0-1.7-0.2-3.1-1.8-3.1c-1.7,0-1.9,1.4-1.9,3.1"/>
			</g>
			<g>
				<polygon class="st9" points="320.8,463 330.4,463 329.4,454.7 321.7,454.7 				"/>
				<path class="st9" d="M327.4,454.7c0-1.7-0.2-3.1-1.8-3.1c-1.7,0-1.9,1.4-1.9,3.1"/>
			</g>
			<g>
				<polygon class="st9" points="332.8,463 342.4,463 341.4,454.7 333.7,454.7 				"/>
				<path class="st9" d="M339.4,454.7c0-1.7-0.2-3.1-1.8-3.1c-1.7,0-1.9,1.4-1.9,3.1"/>
			</g>
			<g>
				<polygon class="st9" points="344.8,463 354.4,463 353.4,454.7 345.7,454.7 				"/>
				<path class="st9" d="M351.4,454.7c0-1.7-0.2-3.1-1.8-3.1c-1.7,0-1.9,1.4-1.9,3.1"/>
			</g>
			<g>
				<polygon class="st9" points="356.8,463 366.3,463 365.4,454.7 357.7,454.7 				"/>
				<path class="st9" d="M363.4,454.7c0-1.7-0.2-3.1-1.8-3.1c-1.7,0-1.9,1.4-1.9,3.1"/>
			</g>
		</g>
		<g>
			<g>
				<polygon class="st9" points="284.8,483.5 294.4,483.5 293.4,475.3 285.7,475.3 				"/>
				<path class="st9" d="M291.4,475.3c0-1.7-0.2-3.1-1.8-3.1c-1.7,0-1.9,1.4-1.9,3.1"/>
			</g>
			<g>
				<polygon class="st9" points="296.8,483.5 306.4,483.5 305.4,475.3 297.7,475.3 				"/>
				<path class="st9" d="M303.4,475.3c0-1.7-0.2-3.1-1.8-3.1c-1.7,0-1.9,1.4-1.9,3.1"/>
			</g>
			<g>
				<polygon class="st9" points="308.8,483.5 318.4,483.5 317.4,475.3 309.7,475.3 				"/>
				<path class="st9" d="M315.4,475.3c0-1.7-0.2-3.1-1.8-3.1c-1.7,0-1.9,1.4-1.9,3.1"/>
			</g>
			<g>
				<polygon class="st9" points="320.8,483.5 330.4,483.5 329.4,475.3 321.7,475.3 				"/>
				<path class="st9" d="M327.4,475.3c0-1.7-0.2-3.1-1.8-3.1c-1.7,0-1.9,1.4-1.9,3.1"/>
			</g>
			<g>
				<polygon class="st9" points="332.8,483.5 342.4,483.5 341.4,475.3 333.7,475.3 				"/>
				<path class="st9" d="M339.4,475.3c0-1.7-0.2-3.1-1.8-3.1c-1.7,0-1.9,1.4-1.9,3.1"/>
			</g>
			<g>
				<polygon class="st9" points="344.8,483.5 354.4,483.5 353.4,475.3 345.7,475.3 				"/>
				<path class="st9" d="M351.4,475.3c0-1.7-0.2-3.1-1.8-3.1c-1.7,0-1.9,1.4-1.9,3.1"/>
			</g>
			<g>
				<polygon class="st9" points="356.8,483.5 366.3,483.5 365.4,475.3 357.7,475.3 				"/>
				<path class="st9" d="M363.4,475.3c0-1.7-0.2-3.1-1.8-3.1c-1.7,0-1.9,1.4-1.9,3.1"/>
			</g>
		</g>
		<g>
			<g>
				<polygon class="st9" points="284.8,504.1 294.4,504.1 293.4,495.8 285.7,495.8 				"/>
				<path class="st9" d="M291.4,495.8c0-1.7-0.2-3.1-1.8-3.1c-1.7,0-1.9,1.4-1.9,3.1"/>
			</g>
			<g>
				<polygon class="st9" points="296.8,504.1 306.4,504.1 305.4,495.8 297.7,495.8 				"/>
				<path class="st9" d="M303.4,495.8c0-1.7-0.2-3.1-1.8-3.1c-1.7,0-1.9,1.4-1.9,3.1"/>
			</g>
			<g>
				<polygon class="st9" points="308.8,504.1 318.4,504.1 317.4,495.8 309.7,495.8 				"/>
				<path class="st9" d="M315.4,495.8c0-1.7-0.2-3.1-1.8-3.1c-1.7,0-1.9,1.4-1.9,3.1"/>
			</g>
			<g>
				<polygon class="st9" points="320.8,504.1 330.4,504.1 329.4,495.8 321.7,495.8 				"/>
				<path class="st9" d="M327.4,495.8c0-1.7-0.2-3.1-1.8-3.1c-1.7,0-1.9,1.4-1.9,3.1"/>
			</g>
			<g>
				<polygon class="st9" points="332.8,504.1 342.4,504.1 341.4,495.8 333.7,495.8 				"/>
				<path class="st9" d="M339.4,495.8c0-1.7-0.2-3.1-1.8-3.1c-1.7,0-1.9,1.4-1.9,3.1"/>
			</g>
			<g>
				<polygon class="st9" points="344.8,504.1 354.4,504.1 353.4,495.8 345.7,495.8 				"/>
				<path class="st9" d="M351.4,495.8c0-1.7-0.2-3.1-1.8-3.1c-1.7,0-1.9,1.4-1.9,3.1"/>
			</g>
			<g>
				<polygon class="st9" points="356.8,504.1 366.3,504.1 365.4,495.8 357.7,495.8 				"/>
				<path class="st9" d="M363.4,495.8c0-1.7-0.2-3.1-1.8-3.1c-1.7,0-1.9,1.4-1.9,3.1"/>
			</g>
		</g>
	</g>
</g>
</svg>
