<?xml version="1.0" encoding="utf-8"?>
<!-- Generator: Adobe Illustrator 22.1.0, SVG Export Plug-In . SVG Version: 6.00 Build 0)  -->
<svg version="1.1" xmlns="http://www.w3.org/2000/svg" xmlns:xlink="http://www.w3.org/1999/xlink" x="0px" y="0px"
	 viewBox="0 0 420.9 595.3" style="enable-background:new 0 0 420.9 595.3;" xml:space="preserve">
<style type="text/css">
	.st0{font-family:'GothamPro';}
	.st1{font-size:7.3px;}
	.st2{font-family:'GothamPro-Light';}
	.st3{font-size:21px;}
	.st4{fill:#6B6966;}
	.st5{font-size:12px;}
	.st6{font-size:6px;}
</style>
<g id="Layer_1">
</g>
<g id="Слой_4">
	<g>
		<text transform="matrix(1 0 0 1 40.6852 487.5599)"><tspan x="0" y="0" class="st0 st1">Проект модельного </tspan><tspan x="0" y="9.8" class="st0 st1">релиза</tspan></text>
	</g>
	<g>
		<path d="M177.3,510.5c0,0.4,0,0.9,0,1.4c-0.5,0-0.9,0-1.3,0c0,0.5,0,0.9,0,1.4c0.4,0,0.8,0,1.3,0c0,0.5,0,0.9,0,1.4
			c-0.4,0-0.8,0-1.3,0c0,0.5,0,0.9,0,1.4c-0.5,0-0.9,0-1.4,0c0,0.5,0,0.9,0,1.4c0.9,0,1.8,0,2.7,0l0,0c0,0.9,0,1.8,0,2.8
			c0.5,0,1,0,1.4,0l0,0c0,0.4,0,0.9,0,1.3c-2.3,0-4.6,0-6.9,0c0-0.9,0-1.8,0-2.7c-0.5,0-1,0-1.4,0l0,0c0-0.9,0-1.8,0-2.8
			c-0.5,0-0.9,0-1.4,0c0-0.9,0-1.8,0-2.7c-0.5,0-0.9,0-1.4,0c0,0.5,0,0.9,0,1.3c-0.5,0-0.9,0-1.4,0l0,0c0-0.9,0-1.9,0-2.8l0,0
			c0.4,0,0.9,0,1.4,0c0-0.5,0-1,0-1.4l0,0c0.4,0,0.9,0,1.4,0c0-0.5,0-1,0-1.4c0.5,0,0.9,0,1.3,0c0-0.5,0-0.9,0-1.4
			c-0.5,0-0.9,0-1.3,0c0-0.5,0-0.9,0-1.3c-0.5,0-0.9,0-1.4,0c0,0.5,0,0.9,0,1.3c-1.4,0-2.7,0-4.2,0c0,1,0,1.9,0,2.8l0,0
			c-1.8,0-3.7,0-5.6,0c0,0.5,0,0.9,0,1.4c-0.5,0-0.9,0-1.4,0c0-0.4,0-0.9,0-1.4c-0.5,0-0.9,0-1.4,0c0-0.5,0-0.9,0-1.4
			c-0.5,0-0.9,0-1.4,0l0,0c0-0.5,0-0.9,0-1.4c0.5,0,0.9,0,1.3,0c0-0.5,0-0.9,0-1.4c-0.5,0-0.9,0-1.3,0c0-0.5,0-0.9,0-1.4
			c-1,0-1.8,0-2.8,0c0,0.9,0,1.8,0,2.7c-1,0-1.9,0-2.7,0c0-0.5,0-0.9,0-1.4c0.5,0,0.9,0,1.4,0c0-0.5,0-0.9,0-1.3c-0.5,0-0.9,0-1.3,0
			c0,0.5,0,0.9,0,1.3c-0.5,0-0.9,0-1.3,0c0-1,0-1.9,0-2.8c1.4,0,2.7,0,4.1,0c0-0.5,0-0.9,0-1.4c0.5,0,0.9,0,1.3,0c0-0.5,0-0.9,0-1.4
			c-1.8,0-3.7,0-5.4,0c0-0.5,0-0.9,0-1.4c0.5,0,0.9,0,1.3,0c0-0.5,0-0.9,0-1.4c0.5,0,0.9,0,1.4,0c0,0.5,0,0.9,0,1.3
			c0.5,0,0.9,0,1.4,0c0-0.5,0-0.9,0-1.3c0.5,0,0.9,0,1.4,0c0,0.5,0,1,0,1.4c0.5,0,0.9,0,1.4,0c0,0.5,0,0.9,0,1.3c1,0,1.9,0,2.8,0
			c0,0.5,0,0.9,0,1.4c0.5,0,0.9,0,1.3,0c0,0.5,0,0.9,0.1,1.4c-0.5,0-0.9,0-1.4,0c0,0.9,0,1.8,0,2.7c0.9,0,1.8,0,2.7,0
			c0,0.5,0,0.9,0,1.4c-0.5,0-1,0-1.4,0c0,0.5,0,0.9,0,1.3c1.4,0,2.7,0,4.1,0c0-0.9,0-1.8,0-2.8c0.5,0,0.9,0,1.3,0c0-0.5,0-0.9,0-1.3
			c-0.9,0-1.8,0-2.8,0c0,0.5,0,0.9,0,1.4c-0.5,0-0.9,0-1.4,0c0-0.4,0-0.9,0-1.4c-0.5,0-0.9,0-1.4,0c0-0.5,0-0.9,0-1.4
			c2.7,0,5.5,0,8.3,0c0,0.5,0,0.9,0,1.4c-0.5,0-0.9,0-1.4,0c0,0.5,0,0.9,0,1.3c0.5,0,0.9,0,1.3,0c0-0.5,0-0.9,0-1.3
			c0.4,0,0.9,0,1.4,0c0-1,0-1.8,0-2.8c0.5,0,0.9,0,1.4,0c0-0.5,0-0.9,0-1.4c0.5,0,0.9,0,1.4,0c0,1.9,0,3.7,0,5.5c0.5,0,0.9,0,1.4,0
			c0-0.5,0-0.9,0-1.3c1.4,0,2.7,0,4.1,0c0-0.5,0-0.9,0-1.4c-0.9,0-1.8,0-2.7,0c0-0.9,0-1.8,0-2.7c-0.5,0-0.9,0-1.4,0
			c0-0.5,0-0.9,0-1.4c0.5,0,0.9,0,1.4,0c0-0.5,0-0.9,0-1.3c-0.5,0-0.9,0-1.3,0c0,0.5,0,0.9,0,1.3c-0.5,0-0.9,0-1.4,0
			c0-0.5,0-1,0-1.4c-0.5,0-0.9,0-1.3,0c0-0.5,0-0.9,0-1.4c0.5,0,0.9,0,1.4,0c0-1.9,0-3.7,0-5.5c0.5,0,0.9,0,1.4,0c0,0.9,0,1.8,0,2.7
			c0.5,0,0.9,0,1.4,0l0,0c0,0.5,0,0.9,0,1.4c-0.5,0-0.9,0-1.3,0c0,0.5,0,0.9,0,1.3c0.9,0,1.8,0,2.7,0c0-0.9,0-1.8,0-2.7l0,0
			c0.9,0,1.8,0,2.7,0c0,0.4,0,0.9,0,1.4c-0.4,0-0.9,0-1.3,0c0,0.5,0,0.9,0,1.4c0.4,0,0.8,0,1.3,0c0,0.5,0,1,0,1.4l0,0
			c-0.9,0-1.8,0-2.7,0c0,0.5,0,0.9,0,1.4c0.9,0,1.8,0,2.7,0l0,0c0,0.4,0,0.9,0,1.4c-0.9,0-1.8,0-2.7,0c0,0.5,0,0.9,0,1.4
			c0.9,0,1.8,0,2.7,0c0,0.5,0,0.9,0,1.4c0.5,0,0.9,0,1.4,0c0,0.5,0,0.9,0,1.4c0.5,0,0.9,0,1.4,0c0-0.9,0-1.8,0-2.7
			c0.5,0,0.9,0,1.4,0c0,1.3,0,2.7,0,4.1c-1.3,0-2.7,0-4.1,0c0,1,0,1.9,0,2.8l0,0c-0.5,0-0.9,0-1.3,0c0,0.5,0,0.9,0,1.4
			C176.4,510.5,176.9,510.5,177.3,510.5L177.3,510.5z M174.5,514.7c0-1.4,0-2.7,0-4.1c-1.4,0-2.7,0-4.1,0c0,1.4,0,2.7,0,4.1
			C171.8,514.7,173.1,514.7,174.5,514.7z M171.8,517.4c0.4,0,0.9,0,1.3,0c0-0.4,0-0.9,0-1.3c-0.5,0-0.9,0-1.3,0
			C171.8,516.6,171.8,517,171.8,517.4z M174.5,518.9c-0.5,0-0.9,0-1.3,0c0,0.5,0,0.9,0,1.3c0.5,0,0.9,0,1.3,0
			C174.5,519.7,174.5,519.3,174.5,518.9z"/>
		<path d="M137.2,477.3c0-0.4,0-0.9,0-1.4c-0.5,0-0.9,0-1.4,0c0-2.8,0-5.5,0-8.3c0.4,0,0.8,0,1.3,0c0,1.3,0,2.7,0,4.1
			c0.5,0,0.9,0,1.4,0c0-0.4,0-0.8,0-1.3c0.9,0,1.8,0,2.7,0c0,0.4,0,0.8,0,1.3c-0.4,0-0.8,0-1.3,0c0,1.9,0,3.7,0,5.6
			c0.4,0,0.9,0,1.3,0l0,0c0,0.9,0,1.8,0,2.7c1,0,1.9,0,2.7,0c0-0.5,0-0.9,0-1.3c-0.5,0-0.9,0-1.3,0c0-0.5,0-0.9,0-1.4l0,0
			c0.4,0,0.9,0,1.4,0c0-0.5,0-1,0-1.4l0,0c0.5,0,0.9,0,1.4,0l0,0c0,0.4,0,0.9,0,1.4c0.5,0,1,0,1.4,0l0,0c0,0.9,0,1.8,0,2.8
			c-0.5,0-0.9,0-1.4,0c0,0.5,0,0.9,0,1.4c-0.9,0-1.8,0-2.8,0c0,0.5,0,0.9,0,1.3c-0.5,0-0.9,0-1.4,0c0-0.5,0-0.9,0-1.4
			c-0.5,0-0.9,0-1.4,0l0,0c0-0.9,0-1.8,0-2.8c-0.5,0-1,0-1.4,0l0,0c0-0.4,0-0.9,0-1.4C138,477.3,137.6,477.3,137.2,477.3
			L137.2,477.3z M138.5,473.2c-0.5,0-0.9,0-1.3,0c0,0.5,0,0.9,0,1.3c0.5,0,0.9,0,1.3,0C138.5,474,138.5,473.6,138.5,473.2z"/>
		<path d="M157.9,482.9c0.4,0,0.9,0,1.4,0c0-0.5,0-0.9,0-1.4c1,0,1.8,0,2.8,0c0,0.9,0,1.8,0,2.7c0.5,0,0.9,0,1.4,0c0,0,0,0,0,0
			c0,0.4,0,0.9,0,1.4c-0.4,0-0.8,0-1.3,0c0,0.5,0,0.9,0,1.4c0.4,0,0.8,0,1.3,0c0,0.5,0,1,0,1.4l0,0c-0.5,0-0.9,0-1.3,0
			c0,0.5,0,0.9,0,1.4c0.5,0,0.9,0,1.3,0l0,0c0,0.4,0,0.9,0,1.4c0.5,0,1,0,1.4,0l0,0c0,0.5,0,0.9,0,1.4c0.5,0,0.9,0,1.4,0
			c0,0.5,0,0.9,0,1.4c0.9,0,1.8,0,2.7,0c0,0.5,0,0.9,0,1.4c-0.9,0-1.8,0-2.7,0c0,0.5,0,0.9,0,1.4c-0.5,0-0.9,0-1.4,0
			c0-0.4,0-0.9,0-1.4c-0.5,0-0.9,0-1.4,0c0-0.9,0-1.8,0-2.8c-0.5,0-0.9,0-1.4,0c0-0.5,0-0.9,0-1.4c-1,0-1.8,0-2.7,0
			c0-0.9,0-1.8,0-2.7c0.5,0,0.9,0,1.3,0c0-1,0-1.8,0-2.8c-0.5,0-0.9,0-1.3,0l0,0c0-0.4,0-0.9,0-1.4c-0.5,0-0.9,0-1.4,0
			C157.9,483.7,157.9,483.3,157.9,482.9L157.9,482.9z"/>
		<path d="M134.3,474.5c-3.2,0-6.4,0-9.6,0c0-3.2,0-6.4,0-9.6c3.2,0,6.4,0,9.6,0C134.3,468.1,134.3,471.3,134.3,474.5z M126.1,466.3
			c0,2.3,0,4.6,0,6.8c2.3,0,4.6,0,6.8,0c0-2.3,0-4.6,0-6.8C130.7,466.3,128.4,466.3,126.1,466.3z"/>
		<path d="M181.4,474.5c-3.2,0-6.4,0-9.6,0c0-3.2,0-6.4,0-9.6c3.2,0,6.4,0,9.6,0C181.4,468.1,181.4,471.3,181.4,474.5z M180,473.1
			c0-2.3,0-4.6,0-6.8c-2.3,0-4.6,0-6.8,0c0,2.3,0,4.6,0,6.8C175.5,473.1,177.7,473.1,180,473.1z"/>
		<path d="M134.3,521.6c-3.2,0-6.4,0-9.6,0c0-3.2,0-6.4,0-9.6c3.2,0,6.4,0,9.6,0C134.3,515.1,134.3,518.3,134.3,521.6z M133,520.2
			c0-2.3,0-4.6,0-6.8c-2.3,0-4.6,0-6.8,0c0,2.3,0,4.6,0,6.8C128.4,520.2,130.7,520.2,133,520.2z"/>
		<path d="M142.7,510.5c0-1.8,0-3.7,0-5.5c-0.5,0-0.9,0-1.4,0c0,0.4,0,0.8,0,1.4c-0.5,0-1,0-1.4,0c0-0.5,0-0.9,0-1.4
			c-0.5,0-0.9,0-1.3,0c0,0.5,0,0.9,0,1.3c0.5,0,0.9,0,1.3,0c0,0.4,0,0.9,0,1.4c-1.4,0-2.7,0-4.1,0c0,0.5,0,0.9,0,1.4
			c-0.5,0-1,0-1.4,0l0,0c0-0.5,0-0.9,0-1.4c-0.5,0-0.9,0-1.4,0c0-0.5,0-0.9,0-1.4l0,0c0.4,0,0.9,0,1.4,0c0-0.5,0-1,0-1.4l0,0
			c0.5,0,0.9,0,1.4,0c0,0.5,0,0.9,0,1.4c0.5,0,0.9,0,1.3,0c0-0.5,0-0.9,0-1.3c-0.5,0-0.9,0-1.3,0c0-0.5,0-0.9,0-1.4
			c1.5,0,2.8,0,4.2,0c0-0.5,0-0.9,0-1.4c0.5,0,0.9,0,1.4,0c0-0.5,0-0.9,0-1.3c0.5,0,0.9,0,1.4,0c0,0.9,0,1.8,0,2.7
			c0.5,0,0.9,0,1.4,0l0,0c0,0.5,0,0.9,0,1.4c0.5,0,0.9,0,1.4,0c0,0.5,0,0.9,0,1.4c-0.5,0-0.9,0-1.3,0c0,1.4,0,2.8,0,4.1
			C143.6,510.5,143.1,510.5,142.7,510.5L142.7,510.5z"/>
		<path d="M152.4,470.4c0-1.4,0-2.7,0-4.2c-0.5,0-1,0-1.4,0l0,0c0-0.4,0-0.9,0-1.3c0.9,0,1.8,0,2.7,0c0,1.3,0,2.7,0,4.1
			c0.9,0,1.8,0,2.8,0c0-0.4,0-0.9,0-1.3l0,0c0.4,0,0.9,0,1.3,0c0,1.4,0,2.7,0,4.2c-0.4,0-0.9,0-1.3,0c0-0.5,0-0.9,0-1.4
			c-0.5,0-0.9,0-1.3,0c0,0.5,0,0.9,0,1.3c0.5,0,0.9,0,1.3,0c0,1.4,0,2.7,0,4.1c-1.4,0-2.7,0-4.2,0c0,1,0,1.9,0,2.8l0,0
			c-0.9,0-1.8,0-2.8,0c0-0.5,0-1,0-1.4l0,0c0.4,0,0.9,0,1.4,0c0-1,0-1.9,0-2.8c0.5,0,0.9,0,1.4,0c0-1,0-1.9,0-2.8l0,0
			c0.5,0,0.9,0,1.3,0c0-0.5,0-0.9,0-1.4C153.2,470.4,152.8,470.4,152.4,470.4L152.4,470.4z M155.1,474.5c0-0.5,0-0.9,0-1.3
			c-0.5,0-0.9,0-1.3,0c0,0.5,0,0.9,0,1.3C154.2,474.5,154.6,474.5,155.1,474.5z"/>
		<path d="M126.1,482.9c0.5,0,0.9,0,1.4,0l0,0c0,1.4,0,2.7,0,4.1c0.9,0,1.8,0,2.7,0c0-0.4,0-0.8,0-1.3c-0.4,0-0.8,0-1.3,0
			c0-0.5,0-0.9,0-1.4c0.4,0,0.8,0,1.3,0c0-1.9,0-3.7,0-5.6l0,0c0.5,0,0.9,0,1.4,0l0,0c0,0.4,0,0.9,0,1.4c0.5,0,1,0,1.4,0l0,0
			c0,0.5,0,0.9,0,1.4l0,0c-0.5,0-0.9,0-1.3,0c0,0.5,0,0.9,0,1.4c0.5,0,0.9,0,1.3,0l0,0c0,0.5,0,0.9,0,1.4l0,0c-0.4,0-0.9,0-1.4,0
			c0,1.4,0,2.8,0,4.2l0,0c-0.4,0-0.9,0-1.4,0c0,0.9,0,1.8,0,2.8c-1,0-1.9,0-2.8,0l0,0c0-0.5,0-0.9,0-1.4c0.5,0,0.9,0,1.4,0
			c0-0.5,0-0.9,0-1.3c-0.5,0-0.9,0-1.3,0c0,0.5,0,0.9,0,1.3c-0.5,0-0.9,0-1.4,0l0,0c0-0.4,0-0.9,0-1.4c-0.5,0-0.9,0-1.4,0
			c0-0.9,0-1.8,0-2.7c0.4,0,0.8,0,1.4,0C126.1,484.7,126.1,483.7,126.1,482.9L126.1,482.9z"/>
		<path d="M169,471.8c0.4,0,0.9,0,1.3,0c0,1.4,0,2.7,0,4.1c-0.4,0-0.8,0-1.3,0c0,0.5,0,0.9,0,1.4c0.4,0,0.8,0,1.3,0
			c0,1.9,0,3.7,0,5.5c-0.4,0-0.8,0-1.3,0c0,0.5,0,0.9,0,1.4c-1,0-1.8,0-2.8,0c0,0.5,0,0.9,0,1.3c-0.5,0-0.9,0-1.4,0
			c0-0.4,0-0.8,0-1.4c-0.5,0-1,0-1.4,0c0,0,0,0,0,0c0-0.4,0-0.9,0-1.4c1.4,0,2.8,0,4.2,0c0-1,0-1.9,0-2.8c0.5,0,0.9,0,1.4,0
			c0-0.5,0-0.9,0-1.3c-0.5,0-0.9,0-1.3,0c0,0.5,0,0.9,0,1.3c-0.4,0-0.9,0-1.4,0c0-1,0-1.9,0-2.8l0,0c0.5,0,0.9,0,1.3,0
			c0-0.5,0-0.9,0-1.4c-0.5,0-0.9,0-1.3,0l0,0c0-0.9,0-1.8,0-2.7c0.5,0,0.9,0,1.4,0c0,0.4,0,0.8,0,1.3c0.5,0,0.9,0,1.4,0
			C169,473.6,169,472.7,169,471.8L169,471.8z"/>
		<path d="M142.7,473.2c0-1.4,0-2.7,0-4.1c0.9,0,1.8,0,2.8,0c0-0.5,0-1,0-1.4l0,0c0.4,0,0.9,0,1.4,0c0,1.4,0,2.7,0,4.1
			c0.5,0,0.9,0,1.4,0c0-0.4,0-0.8,0-1.3c0.5,0,1,0,1.4,0l0,0c0,0.9,0,1.9,0,2.8c-0.4,0-0.9,0-1.4,0c0,1,0,1.8,0,2.8
			c0.5,0,0.9,0,1.3,0c0,0.5,0,0.9,0,1.4l0,0c-0.9,0-1.9,0-2.8,0l0,0c0-0.4,0-0.9,0-1.4c-0.5,0-1,0-1.4,0l0,0c0-0.5,0-0.9,0-1.4
			c0.5,0,0.9,0,1.4,0c0-0.5,0-0.9,0-1.3c-0.5,0-0.9,0-1.3,0c0,0.5,0,0.9,0,1.3c-0.5,0-0.9,0-1.4,0l0,0c0-0.4,0-0.9,0-1.4
			C143.6,473.1,143.1,473.1,142.7,473.2L142.7,473.2z"/>
		<path d="M131.6,496.7c0-2.8,0-5.6,0-8.3l0,0c0.5,0,0.9,0,1.4,0l0,0c0,0.4,0,0.9,0,1.4c1,0,1.9,0,2.8,0c0,0.5,0,0.9,0,1.4
			c-1,0-1.9,0-2.7,0c0,0.5,0,0.9,0,1.4c1.4,0,2.8,0,4.1,0c0,0.4,0,0.9,0,1.4c-0.5,0-0.9,0-1.3,0c0,0.5,0,0.9,0,1.4
			c0.9,0,1.8,0,2.7,0l0,0c0,0.4,0,0.9,0,1.4c-0.5,0-0.9,0-1.4,0c0,0.5,0,0.9,0,1.4c-1,0-1.9,0-2.7,0l0,0c0-0.4,0-0.9,0-1.4
			C133.4,496.7,132.5,496.7,131.6,496.7L131.6,496.7z M134.3,494c-0.5,0-0.9,0-1.3,0c0,0.5,0,0.9,0,1.3c0.5,0,0.9,0,1.3,0
			C134.3,494.8,134.3,494.4,134.3,494z"/>
		<path d="M163.4,467.6c0.4,0,0.9,0,1.4,0c0,0.5,0,0.9,0,1.4c0.5,0,0.9,0,1.3,0c0,0.5,0,0.9,0,1.4c-0.4,0-0.8,0-1.3,0
			c0,0.5,0,0.9,0,1.4c-0.5,0-0.9,0-1.4,0c0,0.5,0,1,0,1.4l0,0c-0.4,0-0.9,0-1.3,0c0,0.9,0,1.8,0,2.8c0.4,0,0.8,0,1.4,0
			c0,0.5,0,0.9,0,1.4c0,0,0,0,0,0c-1.9,0-3.7,0-5.6,0l0,0c0-1.4,0-2.7,0-4.2c0.5,0,0.9,0,1.4,0c0,0.9,0,1.8,0,2.7c0.5,0,0.9,0,1.3,0
			c0-0.9,0-1.8,0-2.7c-0.5,0-0.9,0-1.4,0c0-0.4,0-0.9,0-1.4c0.9,0,1.8,0,2.8,0c0-0.5,0-1,0-1.4l0,0c0.4,0,0.9,0,1.4,0
			C163.5,469.4,163.5,468.5,163.4,467.6L163.4,467.6z"/>
		<path d="M130.2,509.1c-0.4,0-0.9,0-1.4,0c0-0.5,0-0.9,0-1.3c-0.5,0-0.9,0-1.4,0c0,0.9,0,1.8,0,2.7c-0.5,0-0.9,0-1.4,0
			c0-1.3,0-2.7,0-4.1c1.3,0,2.7,0,4.1,0c0-0.5,0-1,0-1.4c0.5,0,0.9,0,1.4,0c0-0.5,0-0.9,0-1.3c-0.5,0-0.9,0-1.3,0c0,0.5,0,0.9,0,1.3
			c-0.4,0-0.9,0-1.4,0c0-1,0-1.9,0-2.8l0,0c0.4,0,0.9,0,1.4,0c0-0.5,0-0.9,0-1.4c0.5,0,1,0,1.4,0l0,0c0,0.4,0,0.9,0,1.4
			c0.5,0,1,0,1.4,0c0,0.4,0,0.9,0,1.4c0.5,0,0.9,0,1.4,0c0,0.5,0,0.9,0,1.4l0,0c-0.4,0-0.9,0-1.4,0c0,0.5,0,1,0,1.4l0,0
			c-0.4,0-0.9,0-1.4,0c0,0.5,0,0.9,0,1.4c-0.5,0-0.9,0-1.4,0C130.2,508.3,130.2,508.7,130.2,509.1L130.2,509.1z"/>
		<path d="M166.2,516.1c-1.4,0-2.7,0-4.1,0c0-0.5,0-0.9,0-1.4c-0.5,0-0.9,0-1.4,0c0-0.5,0-0.9,0-1.4c-0.5,0-1,0-1.4,0l0,0
			c0-0.5,0-0.9,0-1.4c1.4,0,2.8,0,4.2,0c0-0.5,0-0.9,0-1.4l0,0c0.5,0,0.9,0,1.4,0c0-0.5,0-0.9,0-1.4c1,0,1.9,0,2.8,0
			c0,0.5,0,0.9,0,1.4l0,0c-0.4,0-0.9,0-1.4,0c0,0.5,0,1,0,1.4l0,0c-0.4,0-0.9,0-1.4,0c0,0.5,0,0.9,0,1.4c-0.5,0-0.9,0-1.3,0
			c0,0.5,0,0.9,0,1.4c0.9,0,1.8,0,2.7,0l0,0C166.2,515.1,166.2,515.6,166.2,516.1L166.2,516.1z"/>
		<path d="M173.2,478.7c0-0.4,0-0.9,0-1.4c-0.5,0-0.9,0-1.4,0c0-0.5,0-0.9,0-1.3c2.3,0,4.5,0,6.9,0c0,0.4,0,0.8,0,1.3
			c0.9,0,1.8,0,2.7,0c0,0.5,0,0.9,0,1.4c-1.3,0-2.7,0-4.1,0c0-0.4,0-0.8,0-1.3c-0.5,0-0.9,0-1.4,0c0,0.9,0,1.8,0,2.7l0,0
			c-0.4,0-0.9,0-1.4,0c0-0.5,0-0.9,0-1.4C174,478.7,173.6,478.7,173.2,478.7L173.2,478.7z"/>
		<path d="M133,481.5c0.9,0,1.8,0,2.8,0c0,0.4,0,0.9,0,1.4c1,0,1.9,0,2.8,0l0,0c0,0.5,0,0.9,0,1.4c-0.9,0-1.8,0-2.7,0
			c0,0.5,0,0.9,0,1.4c0.5,0,0.9,0,1.3,0c0,0.5,0,0.9,0,1.4c-0.5,0-0.9,0-1.3,0c0,0.5,0,0.9,0,1.4c-0.9,0-1.9,0-2.8,0l0,0
			c0-0.5,0-0.9,0-1.4c0.5,0,0.9,0,1.3,0c0-0.5,0-0.9,0-1.4c-0.5,0-0.9,0-1.3,0c0-0.5,0-0.9,0-1.4l0,0c0.5,0,0.9,0,1.3,0
			c0-0.5,0-0.9,0-1.4c-0.5,0-0.9,0-1.3,0l0,0C133,482.4,133,481.9,133,481.5L133,481.5z"/>
		<path d="M177.3,491.1c0,0.4,0,0.9,0,1.4c-0.9,0-1.9,0-2.8,0l0,0c0-0.9,0-1.8,0-2.8c-1,0-1.9,0-2.8,0c0-0.5,0-0.9,0-1.4l0,0
			c0.5,0,0.9,0,1.3,0c0-0.5,0-0.9,0-1.4c-0.5,0-0.9,0-1.3,0l0,0c0-0.5,0-0.9,0-1.4l0,0c0.9,0,1.8,0,2.8,0c0,1,0,1.8,0,2.8
			c1,0,1.9,0,2.8,0l0,0c0,0.5,0,0.9,0,1.4l0,0c-0.5,0-0.9,0-1.3,0c0,0.5,0,0.9,0,1.4C176.4,491.2,176.9,491.2,177.3,491.1
			L177.3,491.1z"/>
		<path d="M175.9,480.1c0.4,0,0.9,0,1.4,0c0,0.5,0,0.9,0,1.4c0.5,0,0.9,0,1.4,0c0,0.5,0,0.9,0,1.4c-0.4,0-0.8,0-1.4,0
			c0,1.4,0,2.8,0,4.2l0,0c-0.5,0-0.9,0-1.4,0c0-1,0-1.8,0-2.8c-1.4,0-2.8,0-4.1,0l0,0c0-0.4,0-0.9,0-1.4c0.4,0,0.9,0,1.4,0
			c0-0.5,0-1,0-1.4l0,0c0.4,0,0.9,0,1.4,0c0,0.5,0,0.9,0,1.3c0.5,0,0.9,0,1.4,0C175.9,481.8,175.9,481,175.9,480.1L175.9,480.1z"/>
		<path d="M163.5,520.2c-0.4,0-0.9,0-1.4,0c0,0.5,0,0.9,0,1.4c-1.4,0-2.7,0-4.2,0c0-0.4,0-0.9,0-1.3l0,0c0.9,0,1.8,0,2.7,0
			c0-0.5,0-0.9,0-1.4c-0.4,0-0.8,0-1.4,0c0-1,0-1.9,0-2.8c0,0,0,0,0,0c0.4,0,0.9,0,1.4,0c0,0.4,0,0.8,0,1.3c1,0,1.8,0,2.8,0
			C163.4,518.4,163.4,519.3,163.5,520.2L163.5,520.2z"/>
		<path d="M156.5,514.7c0,0.4,0,0.9,0,1.4c-0.5,0-0.9,0-1.4,0c0,0.5,0,0.9,0,1.4c-0.5,0-0.9,0-1.4,0c0-0.4,0-0.8,0-1.4
			c-0.5,0-1,0-1.4,0l0,0c0-2.3,0-4.6,0-6.9c0.5,0,0.9,0,1.4,0l0,0c0,1.8,0,3.7,0,5.6C154.7,514.7,155.6,514.7,156.5,514.7
			L156.5,514.7z"/>
		<path d="M152.4,478.7c0.9,0,1.8,0,2.8,0c0,0.5,0,0.9,0,1.4c0.5,0,0.9,0,1.4,0c0,0.5,0,0.9,0,1.4c0.5,0,0.9,0,1.4,0
			c0,0.5,0,1,0,1.4l0,0c-0.9,0-1.9,0-2.8,0c0-0.4,0-0.9,0-1.4c-1,0-1.9,0-2.8,0C152.4,480.5,152.4,479.6,152.4,478.7L152.4,478.7z"
			/>
		<path d="M130.2,478.7c-0.4,0-0.9,0-1.4,0c0-0.4,0-0.9,0-1.4c-0.5,0-1,0-1.4,0l0,0c0-0.4,0-0.9,0-1.3c2.3,0,4.6,0,6.9,0
			c0,0.4,0,0.8,0,1.3c-0.4,0-0.8,0-1.4,0c0,0.5,0,1,0,1.4l0,0c-0.5,0-0.9,0-1.4,0l0,0c0-0.5,0-0.9,0-1.3c-0.5,0-0.9,0-1.4,0
			C130.2,477.8,130.2,478.3,130.2,478.7L130.2,478.7z"/>
		<path d="M138.5,514.7c0,0.5,0,0.9,0,1.4c0.5,0,0.9,0,1.4,0c0,0.5,0,0.9,0,1.4c-0.9,0-1.8,0-2.7,0c0,0.5,0,0.9,0,1.4
			c-0.5,0-0.9,0-1.4,0c0-1.8,0-3.6,0-5.5c0.4,0,0.8,0,1.3,0c0,0.4,0,0.8,0,1.3C137.6,514.7,138,514.7,138.5,514.7z"/>
		<path d="M145.5,520.2c0-0.4,0-0.9,0-1.4c-0.5,0-0.9,0-1.4,0c0-0.5,0-1,0-1.4l0,0c0.9,0,1.8,0,2.8,0c0,0.5,0,0.9,0,1.3
			c0.5,0,0.9,0,1.4,0c0-0.5,0-0.9,0-1.3c1,0,1.9,0,2.8,0l0,0c0,0.5,0,0.9,0,1.4l0,0c-0.4,0-0.9,0-1.4,0c0,0.5,0,0.9,0,1.4
			C148.2,520.2,146.8,520.2,145.5,520.2L145.5,520.2z"/>
		<path d="M127.4,492.5c0.9,0,1.8,0,2.7,0c0,0.9,0,1.8,0,2.7c-0.9,0-1.7,0-2.7,0c0,0.5,0,0.9,0,1.4c-0.5,0-0.9,0-1.4,0
			c0-0.9,0-1.7,0-2.7c0.4,0,0.8,0,1.4,0C127.5,493.4,127.5,493,127.4,492.5L127.4,492.5z"/>
		<path d="M169,471.8c-0.4,0-0.9,0-1.4,0c0-0.9,0-1.8,0-2.7c0.4,0,0.8,0,1.3,0c0-1.4,0-2.7,0-4.1c0.5,0,0.9,0,1.4,0
			c0,1.8,0,3.6,0,5.5c-0.4,0-0.8,0-1.4,0C169,470.9,169,471.3,169,471.8L169,471.8z"/>
		<path d="M144.1,517.4c-0.4,0-0.9,0-1.4,0c0,0.5,0,0.9,0,1.3c-0.5,0-0.9,0-1.4,0c0-1.4,0-2.7,0-4.1l0,0c0.5,0,0.9,0,1.4,0
			c0-0.5,0-0.9,0-1.3c0.5,0,0.9,0,1.3,0C144.1,514.8,144.1,516.1,144.1,517.4L144.1,517.4z"/>
		<path d="M138.6,468.9c0-1.3,0-2.7,0-4.1c0.4,0,0.8,0,1.3,0c0,0.4,0,0.8,0,1.3c0.9,0,1.8,0,2.7,0c0,0.5,0,0.9,0,1.4
			c-0.9,0-1.7,0-2.7,0c0,0.5,0,0.9,0,1.4C139.5,468.9,139,468.9,138.6,468.9z"/>
		<path d="M177.3,498.1c0.4,0,0.9,0,1.4,0c0-0.5,0-0.9,0-1.4c0.5,0,0.9,0,1.4,0c0,0.9,0,1.7,0,2.7c0.5,0,0.9,0,1.4,0
			c0,0.5,0,0.9,0,1.4c-0.9,0-1.8,0-2.7,0c0-0.4,0-0.8,0-1.4c-0.5,0-1,0-1.4,0l0,0C177.3,499,177.3,498.5,177.3,498.1L177.3,498.1z"
			/>
		<path d="M177.3,517.5c0-0.4,0-0.9,0-1.4c0.9,0,1.8,0,2.8,0c0-1,0-1.8,0-2.8c0.5,0,0.9,0,1.3,0c0,1.3,0,2.7,0,4.1
			C180,517.4,178.7,517.4,177.3,517.5L177.3,517.5z"/>
		<path d="M138.5,481.4c-0.4,0-0.9,0-1.4,0c0-0.5,0-0.9,0-1.3c-0.5,0-0.9,0-1.3,0c0-0.9,0-1.8,0-2.8c0.4,0,0.9,0,1.3,0l0,0
			c0,0.4,0,0.9,0,1.4c0.5,0,1,0,1.4,0l0,0C138.5,479.6,138.5,480.5,138.5,481.4L138.5,481.4z"/>
		<path d="M141.3,477.3c0-1.4,0-2.7,0-4.2c0.5,0,0.9,0,1.4,0l0,0c0,0.4,0,0.9,0,1.4c0.5,0,1,0,1.4,0l0,0c0,0.5,0,0.9,0,1.4l0,0
			c-0.4,0-0.9,0-1.4,0c0,0.5,0,1,0,1.4l0,0C142.2,477.3,141.8,477.3,141.3,477.3L141.3,477.3z"/>
		<path d="M141.3,521.6c-1.9,0-3.6,0-5.5,0c0-0.4,0-0.8,0-1.3c1.8,0,3.6,0,5.5,0C141.3,520.7,141.3,521.1,141.3,521.6z"/>
		<path d="M157.9,520.2c-0.4,0-0.9,0-1.4,0c0,0.5,0,0.9,0,1.4c-0.5,0-0.9,0-1.4,0c0-0.4,0-0.8,0-1.3c-0.5,0-0.9,0-1.4,0
			c0-0.5,0-0.9,0-1.3c1.3,0,2.7,0,4.1,0C157.9,519.3,157.9,519.8,157.9,520.2L157.9,520.2z"/>
		<path d="M169,518.8c-1.4,0-2.7,0-4.1,0c0-0.4,0-0.9,0-1.3c0.4,0,0.8,0,1.3,0c0-0.5,0-1,0-1.4l0,0c0.4,0,0.9,0,1.4,0
			c0,0.5,0,0.9,0,1.4c0.5,0,0.9,0,1.4,0C169,518,169,518.4,169,518.8L169,518.8z"/>
		<path d="M156.5,467.6c-0.4,0-0.9,0-1.3,0c0-0.9,0-1.8,0-2.7c0.9,0,1.8,0,2.7,0c0,0.4,0,0.8,0,1.3c-0.4,0-0.8,0-1.4,0
			C156.5,466.7,156.5,467.2,156.5,467.6L156.5,467.6z"/>
		<path d="M159.3,513.3c0,0.9,0,1.9,0,2.8c0,0,0,0,0,0c-0.4,0-0.9,0-1.4,0c0-0.5,0-0.9,0-1.4c-0.5,0-1,0-1.4,0l0,0
			c0-0.5,0-0.9,0-1.4C157.5,513.3,158.4,513.3,159.3,513.3L159.3,513.3z"/>
		<path d="M163.5,466.2c0-0.4,0-0.9,0-1.3c1.4,0,2.7,0,4.1,0c0,0.4,0,0.8,0,1.3C166.2,466.2,164.8,466.2,163.5,466.2L163.5,466.2z"
			/>
		<path d="M127.4,477.3c0,0.4,0,0.9,0,1.3c-0.9,0-1.8,0-2.7,0c0-0.9,0-1.8,0-2.7c0.4,0,0.8,0,1.3,0c0,0.4,0,0.8,0,1.4
			C126.6,477.3,127,477.3,127.4,477.3L127.4,477.3z"/>
		<path d="M180.1,492.5c0,0.4,0,0.9,0,1.4c0.5,0,0.9,0,1.4,0c0,0.5,0,0.9,0,1.4c-0.9,0-1.8,0-2.7,0c0-0.9,0-1.8,0-2.7
			C179.2,492.5,179.6,492.5,180.1,492.5L180.1,492.5z"/>
		<path d="M162.1,470.4c-0.9,0-1.8,0-2.7,0c0-0.5,0-0.9,0-1.3c0.4,0,0.8,0,1.3,0c0-0.5,0-0.9,0-1.4c0.5,0,1,0,1.4,0l0,0
			C162.1,468.5,162.1,469.5,162.1,470.4L162.1,470.4z"/>
		<path d="M131.6,500.9c0-0.9,0-1.9,0-2.8l0,0c0.9,0,1.9,0,2.8,0l0,0c0,0.5,0,0.9,0,1.4c-0.4,0-0.9,0-1.4,0c0,0.5,0,0.9,0,1.4
			C132.5,500.8,132.1,500.8,131.6,500.9L131.6,500.9z"/>
		<path d="M127.4,502.2c0,0.9,0,1.8,0,2.8c-0.4,0-0.8,0-1.3,0c0-0.4,0-0.8,0-1.3c-0.5,0-0.9,0-1.4,0c0-0.5,0-0.9,0-1.4
			C125.6,502.2,126.5,502.2,127.4,502.2C127.4,502.2,127.4,502.2,127.4,502.2z"/>
		<path d="M134.4,509.1c0,0.4,0,0.9,0,1.3c-1.4,0-2.7,0-4.1,0c0-0.4,0-0.9,0-1.3l0,0C131.6,509.2,133,509.2,134.4,509.1L134.4,509.1
			z"/>
		<path d="M138.6,511.9c-0.9,0-1.8,0-2.8,0c0-0.4,0-0.8,0-1.3c0.4,0,0.8,0,1.3,0c0-0.5,0-0.9,0-1.4c0.5,0,0.9,0,1.4,0
			C138.5,510.1,138.5,511,138.6,511.9C138.5,511.9,138.6,511.9,138.6,511.9z"/>
		<path d="M178.7,510.5c0.4,0,0.9,0,1.4,0c0-0.5,0-0.9,0-1.4c0.5,0,0.9,0,1.4,0c0,0.9,0,1.8,0,2.7c-0.9,0-1.8,0-2.7,0
			C178.7,511.4,178.7,511,178.7,510.5L178.7,510.5z"/>
		<path d="M141.3,514.7c-0.4,0-0.9,0-1.4,0c0-0.5,0-0.9,0-1.4c-0.5,0-0.9,0-1.4,0c0-0.5,0-1,0-1.4c0,0,0,0,0,0c0.9,0,1.8,0,2.8,0
			l0,0C141.3,512.8,141.3,513.8,141.3,514.7L141.3,514.7z"/>
		<path d="M164.8,489.8c0.9,0,1.9,0,2.8,0l0,0c0,0.5,0,0.9,0,1.4c-1,0-1.9,0-2.8,0l0,0C164.9,490.7,164.9,490.2,164.8,489.8
			L164.8,489.8z"/>
		<path d="M131.6,498.1c-0.9,0-1.8,0-2.7,0c0-0.4,0-0.9,0-1.4c0.9,0,1.8,0,2.7,0l0,0C131.6,497.1,131.6,497.6,131.6,498.1
			L131.6,498.1z"/>
		<path d="M127.5,482.9c0-0.9,0-1.8,0-2.7c0.4,0,0.9,0,1.3,0c0,0.9,0,1.7,0,2.7C128.3,482.8,127.9,482.8,127.5,482.9L127.5,482.9z"
			/>
		<path d="M167.6,489.8c0-0.4,0-0.9,0-1.4c0.9,0,1.9,0,2.8,0l0,0c0,0.5,0,0.9,0,1.4C169.4,489.8,168.5,489.8,167.6,489.8
			L167.6,489.8z"/>
		<path d="M173.2,481.4c-0.4,0-0.9,0-1.3,0c0-0.9,0-1.8,0-2.7c0.4,0,0.9,0,1.3,0l0,0C173.1,479.6,173.1,480.5,173.2,481.4
			L173.2,481.4z"/>
		<path d="M151,518.8c0.4,0,0.9,0,1.3,0c0,0.9,0,1.8,0,2.7c-0.4,0-0.8,0-1.3,0C151,520.6,151,519.7,151,518.8L151,518.8z"/>
		<path d="M163.5,480.1c-0.9,0-1.8,0-2.7,0c0-0.4,0-0.9,0-1.4c0.9,0,1.8,0,2.7,0l0,0C163.4,479.1,163.4,479.6,163.5,480.1
			L163.5,480.1z"/>
		<path d="M145.4,520.2c0,0.4,0,0.9,0,1.3c-0.9,0-1.8,0-2.7,0c0-0.4,0-0.8,0-1.3C143.7,520.2,144.6,520.2,145.4,520.2L145.4,520.2z"
			/>
		<path d="M163.4,520.2c0.9,0,1.8,0,2.7,0c0,0.4,0,0.9,0,1.3c-0.9,0-1.7,0-2.7,0C163.5,521.1,163.5,520.7,163.4,520.2L163.4,520.2z"
			/>
		<path d="M180.1,484.2c0-0.4,0-0.9,0-1.3c0.5,0,0.9,0,1.3,0c0,0.4,0,0.8,0,1.3C181,484.2,180.5,484.2,180.1,484.2L180.1,484.2z"/>
		<path d="M171.8,485.6c-0.4,0-0.9,0-1.3,0c0-0.4,0-0.9,0-1.4c0.4,0,0.9,0,1.3,0l0,0C171.8,484.7,171.8,485.2,171.8,485.6
			L171.8,485.6z"/>
		<path d="M164.9,488.4c0-0.4,0-0.9,0-1.4c0.4,0,0.8,0,1.3,0c0,0.4,0,0.8,0,1.4C165.7,488.4,165.3,488.4,164.9,488.4
			C164.9,488.4,164.9,488.4,164.9,488.4z"/>
		<path d="M170.4,488.4c0-0.4,0-0.9,0-1.4c0.5,0,0.9,0,1.4,0l0,0c0,0.5,0,0.9,0,1.4l0,0C171.3,488.4,170.8,488.4,170.4,488.4
			L170.4,488.4z"/>
		<path d="M180.1,492.5c0-0.4,0-0.9,0-1.3c0.4,0,0.9,0,1.3,0c0,0.4,0,0.8,0,1.3C181,492.5,180.5,492.5,180.1,492.5L180.1,492.5z"/>
		<path d="M174.5,492.5c0,0.5,0,0.9,0,1.4l0,0c-0.5,0-0.9,0-1.4,0l0,0c0-0.5,0-0.9,0-1.4C173.7,492.5,174.1,492.5,174.5,492.5
			L174.5,492.5z"/>
		<path d="M146.9,466.2c0-0.5,0-0.8,0-1.3c0.4,0,0.9,0,1.3,0c0,0.4,0,0.8,0,1.3C147.8,466.2,147.3,466.2,146.9,466.2z"/>
		<path d="M126.1,499.4c-0.4,0-0.9,0-1.3,0c0-0.5,0-0.9,0-1.3c0.4,0,0.8,0,1.3,0C126.1,498.6,126.1,499,126.1,499.4L126.1,499.4z"/>
		<path d="M160.6,466.2c-0.4,0-0.8,0-1.3,0c0-0.4,0-0.9,0-1.3c0.4,0,0.8,0,1.3,0C160.6,465.3,160.6,465.8,160.6,466.2z"/>
		<path d="M145.5,467.6c-0.4,0-0.9,0-1.3,0c0-0.4,0-0.9,0-1.3c0.4,0,0.8,0,1.3,0C145.4,466.7,145.4,467.2,145.5,467.6L145.5,467.6z"
			/>
		<path d="M151,466.2c0,0.4,0,0.9,0,1.3c-0.4,0-0.9,0-1.3,0c0-0.4,0-0.8,0-1.3C150.1,466.2,150.6,466.2,151,466.2L151,466.2z"/>
		<path d="M126.1,499.5c0.4,0,0.9,0,1.4,0c0,0.5,0,0.9,0,1.4c0,0,0,0,0,0c-0.4,0-0.9,0-1.4,0C126.1,500.3,126.1,499.9,126.1,499.5
			L126.1,499.5z"/>
		<path d="M163.4,466.2c0,0.5,0,0.9,0,1.4l0,0c-0.5,0-0.9,0-1.4,0l0,0c0-0.4,0-0.9,0-1.4C162.6,466.2,163,466.2,163.4,466.2
			L163.4,466.2z"/>
		<path d="M149.6,470.4c0-0.4,0-0.9,0-1.3c0.4,0,0.9,0,1.4,0c0,0.4,0,0.9,0,1.3l0,0C150.5,470.4,150.1,470.4,149.6,470.4
			L149.6,470.4z"/>
		<path d="M128.9,502.2c-0.5,0-1,0-1.4,0c0,0,0,0,0,0c0-0.5,0-0.9,0-1.4c0,0,0,0,0,0c0.4,0,0.9,0,1.4,0
			C128.8,501.3,128.8,501.8,128.9,502.2L128.9,502.2z"/>
		<path d="M126.1,491.1c-0.4,0-0.9,0-1.3,0c0-0.4,0-0.9,0-1.4c0.4,0,0.9,0,1.3,0l0,0C126.1,490.2,126.1,490.7,126.1,491.1
			L126.1,491.1z"/>
		<path d="M151,470.4c0.5,0,0.9,0,1.4,0l0,0c0,0.5,0,0.9,0,1.4l0,0c-0.5,0-0.9,0-1.4,0C151,471.2,151,470.8,151,470.4L151,470.4z"/>
		<path d="M180.1,488.4c0.4,0,0.9,0,1.3,0c0,0.4,0,0.8,0,1.3c-0.4,0-0.8,0-1.3,0C180.1,489.3,180.1,488.9,180.1,488.4z"/>
		<path d="M163.4,488.4c0.5,0,1,0,1.4,0c0,0,0,0,0,0c0,0.5,0,0.9,0,1.4l0,0c-0.5,0-0.9,0-1.4,0l0,0
			C163.5,489.3,163.5,488.8,163.4,488.4L163.4,488.4z"/>
		<path d="M141.3,510.5c-0.4,0-0.9,0-1.4,0c0-0.4,0-0.8,0-1.3c0.4,0,0.8,0,1.4,0C141.3,509.6,141.3,510.1,141.3,510.5
			C141.3,510.5,141.3,510.5,141.3,510.5z"/>
		<path d="M163.4,473.2c0.4,0,0.9,0,1.3,0c0,0.4,0,0.9,0,1.3c-0.4,0-0.8,0-1.3,0C163.5,474,163.5,473.6,163.4,473.2L163.4,473.2z"/>
		<path d="M178.7,510.5c-0.5,0-0.9,0-1.4,0l0,0c0-0.5,0-0.9,0-1.4l0,0c0.4,0,0.9,0,1.4,0C178.7,509.6,178.7,510.1,178.7,510.5
			L178.7,510.5z"/>
		<path d="M166.2,477.3c-0.5,0-0.9,0-1.4,0c0,0,0,0,0,0c0-0.4,0-0.9,0-1.4c0.5,0,0.9,0,1.4,0l0,0
			C166.2,476.4,166.2,476.8,166.2,477.3L166.2,477.3z"/>
		<path d="M141.3,511.9c0-0.5,0-1,0-1.4c0,0,0,0,0,0c0.5,0,0.9,0,1.4,0l0,0c0,0.5,0,0.9,0,1.4C142.2,511.9,141.7,511.9,141.3,511.9
			L141.3,511.9z"/>
		<path d="M180.1,484.2c0,0.4,0,0.9,0,1.3c-0.4,0-0.9,0-1.3,0c0-0.4,0-0.8,0-1.3C179.2,484.2,179.6,484.2,180.1,484.2L180.1,484.2z"
			/>
		<path d="M157.9,477.3c0,0.5,0,0.9,0,1.4l0,0c-0.4,0-0.9,0-1.3,0c0-0.4,0-0.9,0-1.4C157,477.3,157.5,477.3,157.9,477.3L157.9,477.3
			z"/>
		<path d="M177.3,489.8c0.4,0,0.9,0,1.3,0c0,0.4,0,0.9,0,1.4c-0.4,0-0.9,0-1.3,0l0,0C177.3,490.7,177.3,490.2,177.3,489.8
			L177.3,489.8z"/>
		<path d="M163.5,478.7c0-0.5,0-1,0-1.4c0,0,0,0,0,0c0.5,0,0.9,0,1.4,0c0,0,0,0,0,0c0,0.4,0,0.9,0,1.4
			C164.3,478.7,163.9,478.7,163.5,478.7L163.5,478.7z"/>
		<path d="M133,478.7c0.4,0,0.9,0,1.3,0c0,0.4,0,0.9,0,1.4c-0.4,0-0.9,0-1.3,0l0,0C133,479.6,133,479.1,133,478.7L133,478.7z"/>
		<path d="M157.9,478.7c0.4,0,0.9,0,1.3,0c0,0.4,0,0.9,0,1.3c-0.4,0-0.8,0-1.3,0C157.9,479.6,157.9,479.1,157.9,478.7L157.9,478.7z"
			/>
		<path d="M163.4,480.1c0.4,0,0.9,0,1.3,0c0,0.4,0,0.9,0,1.3c-0.4,0-0.8,0-1.3,0C163.5,481,163.5,480.5,163.4,480.1L163.4,480.1z"/>
		<path d="M152.4,516.1c0,0.4,0,0.9,0,1.4c-0.5,0-0.9,0-1.4,0l0,0c0-0.5,0-0.9,0-1.4l0,0C151.5,516.1,151.9,516.1,152.4,516.1
			L152.4,516.1z"/>
		<path d="M126.1,482.8c-0.4,0-0.9,0-1.3,0c0-0.4,0-0.9,0-1.3c0.4,0,0.8,0,1.3,0C126.1,482,126.1,482.4,126.1,482.8L126.1,482.8z"/>
		<path d="M127.5,492.5c-0.4,0-0.9,0-1.4,0c0-0.5,0-0.9,0-1.4l0,0c0.5,0,0.9,0,1.4,0l0,0C127.4,491.6,127.4,492.1,127.5,492.5
			L127.5,492.5z"/>
		<path d="M138.5,482.9c0-0.5,0-0.9,0-1.4l0,0c0.5,0,0.9,0,1.4,0l0,0c0,0.5,0,0.9,0,1.4C139.4,482.8,139,482.8,138.5,482.9
			L138.5,482.9z"/>
		<path d="M170.4,518.8c0,0.4,0,0.9,0,1.4c-0.5,0-0.9,0-1.4,0l0,0c0-0.5,0-0.9,0-1.4l0,0C169.5,518.8,169.9,518.8,170.4,518.8
			L170.4,518.8z"/>
		<path d="M177.3,487c0.4,0,0.9,0,1.3,0c0,0.4,0,0.9,0,1.4c-0.4,0-0.9,0-1.3,0l0,0C177.3,487.9,177.3,487.5,177.3,487L177.3,487z"/>
		<path d="M178.7,520.2c0-0.4,0-0.9,0-1.3c0.4,0,0.9,0,1.3,0c0,0.4,0,0.8,0,1.3C179.6,520.2,179.1,520.2,178.7,520.2L178.7,520.2z"
			/>
		<path d="M169,520.2c0,0.4,0,0.9,0,1.3c-0.4,0-0.9,0-1.3,0c0-0.4,0-0.8,0-1.3C168.1,520.2,168.6,520.2,169,520.2L169,520.2z"/>
		<path d="M163.5,495.3c0,0.4,0,0.9,0,1.4c0.5,0,0.9,0,1.4,0c0,0.5,0,0.9,0,1.4c-0.4,0-0.9,0-1.4,0c0,0.4,0,0.9,0,1.4
			c-1,0-1.8,0-2.8,0c0,0.9,0,1.8,0,2.7c-0.5,0-0.9,0-1.4,0c0-0.9,0-1.8,0-2.7c-0.5,0-0.9,0-1.4,0c0,0.4,0,0.8,0,1.4
			c-0.5,0-1,0-1.4,0c0-0.4,0-0.9,0-1.4c-0.4,0-0.9,0-1.4,0c0-0.5,0-1,0-1.4l0,0c0.4,0,0.9,0,1.4,0c0-0.5,0-1,0-1.4l0,0
			c0.9,0,1.9,0,2.8,0c0,0.5,0,0.9,0,1.4c0.5,0,0.9,0,1.3,0c0-0.5,0-0.9,0-1.3c-0.5,0-0.9,0-1.3,0c0-1.4,0-2.7,0-4.2c1,0,1.9,0,2.8,0
			c0,0.4,0,0.9,0,1.4c-0.5,0-0.9,0-1.4,0c0,0.5,0,0.9,0,1.4C161.6,495.3,162.6,495.3,163.5,495.3z"/>
		<path d="M135.8,488.4c0.9,0,1.8,0,2.8,0c0-0.4,0-0.9,0-1.3c0.5,0,0.9,0,1.4,0c0,0.4,0,0.8,0,1.3c0.5,0,0.9,0,1.4,0
			c0-0.9,0-1.8,0-2.7c0.5,0,0.9,0,1.4,0l0,0c0,1.4,0,2.7,0,4.2c1,0,1.9,0,2.8,0l0,0c0,0.5,0,0.9,0,1.4l0,0c-0.4,0-0.9,0-1.4,0
			c0,0.5,0,0.9,0,1.4c-0.5,0-0.9,0-1.4,0c0-0.4,0-0.8,0-1.3c-1.4,0-2.8,0-4.2,0c0-0.4,0-0.9,0-1.4c-0.9,0-1.9,0-2.8,0
			C135.8,489.3,135.8,488.8,135.8,488.4z"/>
		<path d="M152.4,482.9c0.9,0,1.9,0,2.8,0c0,0.9,0,1.8,0,2.7c0.4,0,0.9,0,1.3,0c0,1,0,1.8,0,2.8c-0.4,0-0.9,0-1.3,0l0,0
			c0-0.5,0-0.9,0-1.4c-1,0-1.9,0-2.8,0c0,0.5,0,0.9,0,1.4l0,0c-0.5,0-0.9,0-1.4,0c0-0.9,0-1.8,0-2.8c-0.9,0-1.8,0-2.7,0
			c0-0.5,0-1,0-1.4l0,0c0.4,0,0.9,0,1.4,0c0-0.5,0-0.9,0-1.4c0.5,0,1,0,1.4,0l0,0c0,0.5,0,0.9,0,1.4c0.5,0,1,0,1.4,0
			c0,0.4,0,0.9,0,1.3c0.5,0,1,0,1.4,0c0-0.5,0-0.9,0-1.3c-0.5,0-0.9,0-1.4,0C152.4,483.8,152.4,483.3,152.4,482.9L152.4,482.9z"/>
		<path d="M146.8,487c0.9,0,1.8,0,2.7,0c0,0.4,0,0.9,0,1.4c0.5,0,1,0,1.4,0c0,0.4,0,0.9,0,1.4c-0.5,0-0.9,0-1.4,0c0,0.5,0,0.9,0,1.4
			c0.9,0,1.8,0,2.7,0c0,0.5,0,0.9,0,1.4c-1.8,0-3.6,0-5.5,0c0,0.5,0,0.9,0,1.4c-0.5,0-0.9,0-1.4,0c0,0,0,0,0,0c0-0.9,0-1.9,0-2.8
			l0,0c0.9,0,1.8,0,2.7,0c0-1,0-1.9,0-2.8c-0.5,0-0.9,0-1.4,0l0,0C146.9,487.9,146.9,487.5,146.8,487L146.8,487z"/>
		<path d="M139.9,498.1c0-0.4,0-0.9,0-1.4c1.8,0,3.6,0,5.5,0c0-0.5,0-1,0-1.4l0,0c0.4,0,0.9,0,1.3,0c0,0.9,0,1.8,0,2.7
			c-0.4,0-0.8,0-1.3,0c0,0.9,0,1.8,0,2.7c-0.5,0-0.9,0-1.4,0c0-0.4,0-0.8,0-1.3c-0.5,0-0.9,0-1.4,0c0-0.5,0-0.9,0-1.4
			C141.7,498.1,140.8,498.1,139.9,498.1L139.9,498.1z"/>
		<path d="M155.1,488.4c0,0.9,0,1.8,0,2.8c0.5,0,0.9,0,1.4,0c0,0.5,0,0.9,0,1.4c-0.4,0-0.8,0-1.4,0c0,0.5,0,1,0,1.4l0,0
			c-0.5,0-0.9,0-1.4,0l0,0c0-1.4,0-2.7,0-4.1c-0.5,0-0.9,0-1.4,0c0-0.5,0-1,0-1.4l0,0C153.3,488.4,154.2,488.4,155.1,488.4
			L155.1,488.4z"/>
		<path d="M148.2,510.5c0,0.4,0,0.9,0,1.3c-1.4,0-2.7,0-4.2,0c0-0.4,0-0.9,0-1.3c0.4,0,0.9,0,1.4,0c0-0.4,0-0.9,0-1.4
			c0.5,0,1,0,1.4,0l0,0c0,0.4,0,0.9,0,1.4C147.3,510.5,147.8,510.5,148.2,510.5L148.2,510.5z"/>
		<path d="M134.4,500.8c0-0.5,0-0.9,0-1.4c0.9,0,1.8,0,2.7,0c0,0.9,0,1.8,0,2.7c-0.4,0-0.8,0-1.3,0c0-0.4,0-0.8,0-1.3
			C135.3,500.8,134.8,500.8,134.4,500.8z"/>
		<path d="M139.9,498.1c0,0.9,0,1.8,0,2.7c-0.4,0-0.9,0-1.3,0c0-0.9,0-1.7,0-2.7C139,498.1,139.5,498.1,139.9,498.1L139.9,498.1z"/>
		<path d="M153.8,496.7c-0.4,0-0.9,0-1.3,0c0-0.9,0-1.8,0-2.7c0.4,0,0.9,0,1.3,0l0,0C153.8,494.8,153.8,495.8,153.8,496.7
			L153.8,496.7z"/>
		<path d="M145.5,495.3c-0.9,0-1.8,0-2.7,0c0-0.5,0-0.9,0-1.3c0.9,0,1.8,0,2.8,0c0,0,0,0,0,0C145.5,494.4,145.5,494.9,145.5,495.3
			L145.5,495.3z"/>
		<path d="M138.5,495.3c0-0.4,0-0.9,0-1.3c0.9,0,1.8,0,2.7,0c0,0.4,0,0.8,0,1.3C140.3,495.3,139.4,495.3,138.5,495.3L138.5,495.3z"
			/>
		<path d="M137.1,492.5c0-0.4,0-0.9,0-1.4c0.5,0,1,0,1.4,0c0,0.4,0,0.9,0,1.4C138,492.5,137.6,492.5,137.1,492.5z"/>
		<path d="M149.6,495.3c0-0.4,0-0.8,0-1.3c0.4,0,0.8,0,1.3,0c0,0.4,0,0.8,0,1.3C150.5,495.3,150.1,495.3,149.6,495.3z"/>
		<path d="M151,498.1c-0.5,0-0.9,0-1.4,0c0-0.4,0-0.9,0-1.3c0.5,0,0.9,0,1.4,0C151,497.2,151,497.6,151,498.1z"/>
		<path d="M155.2,498.1c-0.4,0-0.9,0-1.4,0c0-0.5,0-0.9,0-1.4l0,0c0.5,0,0.9,0,1.4,0l0,0C155.1,497.1,155.1,497.6,155.2,498.1
			L155.2,498.1z"/>
		<path d="M133,500.8c0.5,0,0.9,0,1.4,0c0,0.4,0,0.9,0,1.4c-0.5,0-1,0-1.4,0C133,501.8,133,501.3,133,500.8z"/>
		<path d="M144.1,503.6c0-0.4,0-0.9,0-1.3c0.4,0,0.9,0,1.3,0c0,0.4,0,0.8,0,1.3C145,503.6,144.5,503.6,144.1,503.6L144.1,503.6z"/>
		<path d="M148.2,507.8c0,0.5,0,0.9,0,1.4l0,0c-0.5,0-0.9,0-1.4,0l0,0c0-0.4,0-0.9,0-1.4C147.3,507.8,147.8,507.8,148.2,507.8z"/>
		<path d="M169,500.8c-0.9,0-1.9,0-2.8,0l0,0c0-0.5,0-0.9,0-1.4c0.9,0,1.8,0,2.8,0C169,499.9,169,500.4,169,500.8z"/>
		<path d="M166.2,499.5c-0.4,0-0.9,0-1.4,0c0-0.5,0-1,0-1.4c0.4,0,0.9,0,1.4,0C166.2,498.6,166.2,499,166.2,499.5z"/>
		<path d="M148.2,509.2c0.9,0,1.8,0,2.7,0c0,1.4,0,2.7,0,4.1c-0.4,0-0.8,0-1.3,0c0-0.9,0-1.8,0-2.7c-0.5,0-1,0-1.4,0l0,0
			C148.2,510.1,148.2,509.6,148.2,509.2L148.2,509.2z"/>
		<path d="M146.9,513.3c0.4,0,0.8,0,1.3,0c0,0.9,0,1.8,0,2.7c-0.4,0-0.8,0-1.3,0C146.9,515.1,146.9,514.3,146.9,513.3z"/>
		<path d="M153.8,506.4c0,0.5,0,0.9,0,1.4c-0.4,0-0.9,0-1.3,0c0-0.5,0-0.9,0-1.4C152.9,506.4,153.3,506.4,153.8,506.4z"/>
		<path d="M151,516.1c-0.4,0-0.9,0-1.3,0c0-0.4,0-0.9,0-1.3c0.4,0,0.8,0,1.3,0C151,515.2,151,515.6,151,516.1L151,516.1z"/>
		<path d="M166.2,500.8c0,0.4,0,0.9,0,1.3c-1.4,0-2.7,0-4.1,0c0-0.4,0-0.8,0-1.3C163.5,500.8,164.9,500.8,166.2,500.8L166.2,500.8z"
			/>
		<path d="M173.1,512c0,0.4,0,0.8,0,1.3c-0.4,0-0.9,0-1.3,0c0-0.4,0-0.8,0-1.3C172.2,512,172.6,512,173.1,512z"/>
		<path d="M156.5,513.3c-0.4,0-0.9,0-1.3,0c0-0.5,0-0.9,0-1.4c0.4,0,0.9,0,1.3,0C156.5,512.4,156.5,512.8,156.5,513.3z"/>
		<circle cx="168.3" cy="508.5" r="1"/>
		<path d="M148.2,484.2c-0.9,0-1.8,0-2.7,0c0-0.5,0-0.9,0-1.4c0.4,0,0.8,0,1.3,0c0-0.5,0-0.9,0-1.3c0.5,0,0.9,0,1.4,0
			C148.2,482.4,148.2,483.3,148.2,484.2L148.2,484.2z"/>
		<path d="M141.3,485.6c-0.9,0-1.8,0-2.8,0c0-0.5,0-1,0-1.4c0.9,0,1.8,0,2.8,0C141.3,484.7,141.3,485.2,141.3,485.6z"/>
		<path d="M142.7,485.6c0-0.4,0-0.9,0-1.3c0.4,0,0.9,0,1.3,0c0,0.4,0,0.8,0,1.3C143.6,485.6,143.1,485.6,142.7,485.6L142.7,485.6z"
			/>
		<path d="M146.9,487c-0.4,0-0.9,0-1.3,0c0-0.4,0-0.9,0-1.3c0.4,0,0.8,0,1.3,0C146.8,486.1,146.8,486.6,146.9,487L146.9,487z"/>
		<path d="M145.5,489.8c0-0.4,0-0.9,0-1.4c0.5,0,0.9,0,1.4,0l0,0c0,0.5,0,0.9,0,1.4C146.3,489.8,145.9,489.8,145.5,489.8
			L145.5,489.8z"/>
		<path d="M152.4,481.4c0,0.5,0,0.9,0,1.4l0,0c-0.5,0-0.9,0-1.4,0l0,0c0-0.4,0-0.9,0-1.4C151.5,481.4,151.9,481.4,152.4,481.4z"/>
		<path d="M155.1,493.9c0.9,0,1.8,0,2.7,0c0,0.4,0,0.9,0,1.4c-0.4,0-0.8,0-1.3,0c0,0.5,0,1,0,1.4l0,0c-0.5,0-0.9,0-1.4,0l0,0
			C155.2,495.8,155.2,494.8,155.1,493.9L155.1,493.9z"/>
		<path d="M159.3,485.6c0,0.4,0,0.9,0,1.3c-0.4,0-0.9,0-1.3,0c0-0.4,0-0.8,0-1.3C158.4,485.6,158.9,485.6,159.3,485.6L159.3,485.6z"
			/>
		<path d="M127.5,467.6c1.4,0,2.7,0,4.1,0c0,1.4,0,2.7,0,4.1c-1.3,0-2.7,0-4.1,0C127.5,470.4,127.5,469.1,127.5,467.6z"/>
		<path d="M174.6,471.7c0-1.4,0-2.7,0-4.1c1.4,0,2.7,0,4.1,0c0,1.3,0,2.7,0,4.1C177.3,471.7,176,471.7,174.6,471.7z"/>
		<path d="M127.5,518.8c0-1.4,0-2.7,0-4.1c1.4,0,2.7,0,4.1,0c0,1.4,0,2.7,0,4.1C130.2,518.8,128.9,518.8,127.5,518.8z"/>
		<path d="M151,474.5c-0.4,0-0.9,0-1.4,0c0-0.5,0-1,0-1.4c0.4,0,0.9,0,1.4,0C151,473.6,151,474.1,151,474.5z"/>
	</g>
	<g>
		<text transform="matrix(1 0 0 1 205.5676 487.56)"><tspan x="0" y="0" class="st0 st1">Проект договора </tspan><tspan x="0" y="9.8" class="st0 st1">с фотографом и стилистом</tspan></text>
	</g>
	<g>
		<path d="M364.4,517.4c0,0.4,0,0.9,0,1.4c0.5,0,0.9,0,1.4,0c0,0.9,0,1.8,0,2.7c-2.3,0-4.5,0-6.9,0c0-0.4,0-0.9,0-1.3
			c0.9,0,1.8,0,2.7,0c0-0.5,0-0.9,0-1.3c-0.9,0-1.8,0-2.7,0c0,0.5,0,0.9,0,1.3c-0.4,0-0.9,0-1.4,0c0-0.5,0-0.9,0-1.4
			c-0.5,0-0.9,0-1.4,0c0-0.9,0-1.8,0-2.8c-0.5,0-1,0-1.4,0l0,0c0-0.5,0-0.9,0-1.4c-0.5,0-0.9,0-1.4,0c0-1,0-1.9,0-2.8l0,0
			c0.5,0,0.9,0,1.4,0c0,0.5,0,0.9,0,1.3c0.5,0,0.9,0,1.3,0c0-1.4,0-2.8,0-4.2c0.9,0,1.9,0,2.8,0c0-0.5,0-0.9,0-1.4
			c0.9,0,1.8,0,2.7,0c0-0.5,0-0.9,0-1.3c-0.9,0-1.8,0-2.7,0c0,0.5,0,0.9,0,1.3c-0.5,0-0.9,0-1.4,0c0-0.5,0-1,0-1.4
			c-0.5,0-0.9,0-1.4,0c0,0.9,0,1.8,0,2.7c-0.9,0-1.8,0-2.8,0c0-0.5,0-0.9,0-1.4c0.5,0,0.9,0,1.3,0c0-0.5,0-0.9,0-1.4
			c-0.5,0-0.9,0-1.3,0c0-0.5,0-0.9,0-1.4c0.5,0,1,0,1.4,0c0-0.5,0-0.9,0-1.4c-0.5,0-0.9,0-1.4,0c0-0.5,0-0.9,0-1.4
			c0.9,0,1.9,0,2.8,0l0,0c0,0.5,0,0.9,0,1.4c0.5,0,1,0,1.4,0c0,0.4,0,0.9,0,1.3c1.9,0,3.7,0,5.5,0c0-0.5,0-0.9,0-1.3
			c-1.9,0-3.7,0-5.5,0c0-0.5,0-1,0-1.4l0,0c3.2,0,6.4,0,9.7,0c0,0.5,0,0.9,0,1.4l0,0c-0.4,0-0.9,0-1.4,0c0,1.4,0,2.8,0,4.2l0,0
			c-0.5,0-0.9,0-1.4,0c0-0.4,0-0.9,0-1.3c-0.5,0-1,0-1.4,0c0,0.5,0,0.9,0,1.3c0.5,0,0.9,0,1.4,0c0,0.5,0,0.9,0,1.4
			c-0.4,0-0.9,0-1.3,0c0,1,0,1.9,0,2.7c0.5,0,0.9,0,1.3,0c0-0.9,0-1.9,0-2.8c0.5,0,1,0,1.4,0l0,0c0,1.4,0,2.8,0,4.2l0,0
			c-0.4,0-0.9,0-1.4,0c0,0.5,0,0.9,0,1.4c-0.5,0-0.9,0-1.4,0c0,0.5,0,0.9,0,1.4c-0.5,0-0.9,0-1.4,0c0,0.5,0,0.9,0,1.4
			C362.6,517.5,363.5,517.5,364.4,517.4L364.4,517.4z M361.6,514.7c0-1.4,0-2.8,0-4.1c-1.4,0-2.7,0-4.1,0c0,1.4,0,2.7,0,4.1
			C358.9,514.7,360.2,514.7,361.6,514.7z M357.5,517.4c0.9,0,1.8,0,2.7,0c0-0.5,0-0.9,0-1.3c-0.9,0-1.8,0-2.7,0
			C357.5,516.6,357.5,517,357.5,517.4z"/>
		<path d="M360.2,498.1c0-0.5,0-0.9,0-1.4l0,0c0.5,0,0.9,0,1.4,0c0-1,0-1.9,0-2.8c0.5,0,0.9,0,1.3,0c0-0.5,0-0.9,0-1.4
			c-0.5,0-0.9,0-1.3,0c0-0.4,0-0.9,0-1.4c-1,0-1.8,0-2.8,0c0-0.5,0-0.9,0-1.4c-1,0-1.9,0-2.7,0c0-0.5,0-0.9,0-1.4c0.5,0,1,0,1.4,0
			c0-0.5,0-0.9,0-1.4c-0.5,0-0.9,0-1.3,0c0-0.5,0-0.9,0-1.4c0.5,0,0.9,0,1.3,0c0-0.9,0-1.8,0-2.8c0.5,0,0.9,0,1.3,0
			c0-0.5,0-0.9,0-1.4c-1.4,0-2.7,0-4.1,0c0-0.5,0-0.9,0-1.4l0,0c0.4,0,0.9,0,1.4,0c0-0.5,0-1,0-1.4l0,0c0.5,0,0.9,0,1.4,0
			c0,0.5,0,0.9,0,1.4c0.5,0,0.9,0,1.3,0c0-0.5,0-0.9,0-1.3c-0.5,0-0.9,0-1.3,0c0-0.9,0-1.9,0-2.8l0,0c0.9,0,1.8,0,2.8,0
			c0,0.4,0,0.9,0,1.4c1,0,1.9,0,2.8,0l0,0c0,0.9,0,1.8,0,2.8c0.5,0,0.9,0,1.4,0c0,0.5,0,0.9,0,1.4c-1.3,0-2.7,0-4.1,0
			c0,0.5,0,0.9,0,1.4c1.3,0,2.7,0,4.1,0c0,1,0,1.8,0,2.8c0.5,0,0.9,0,1.4,0c0-0.4,0-0.8,0-1.3c0.5,0,1,0,1.4,0l0,0
			c0,0.9,0,1.9,0,2.8c-0.5,0-0.9,0-1.4,0c0,0.5,0,0.9,0,1.3c0.5,0,0.9,0,1.3,0c0-0.5,0-0.9,0-1.3c0.4,0,0.9,0,1.3,0
			c0,1.9,0,3.7,0,5.5c-0.4,0-0.8,0-1.3,0c0,0.5,0,0.9,0,1.4c-0.5,0-0.9,0-1.4,0c0,0.5,0,0.9,0,1.4c-0.9,0-1.8,0-2.7,0
			c0,0.5,0,0.9,0,1.4c0.4,0,0.8,0,1.3,0c0,1.4,0,2.7,0,4.1c-1.8,0-3.6,0-5.4,0c0-0.9,0-1.8,0-2.7
			C359.3,498.1,359.8,498.1,360.2,498.1c0,0.4,0,0.9,0,1.3c1,0,1.8,0,2.7,0c0-0.5,0-0.9,0-1.3C362,498.1,361.1,498.1,360.2,498.1z
			 M365.8,491.1c0.4,0,0.9,0,1.3,0c0-0.5,0-0.9,0-1.3c-0.5,0-0.9,0-1.3,0C365.8,490.3,365.8,490.7,365.8,491.1c-0.4,0-0.9,0-1.4,0
			c0-0.4,0-0.9,0-1.3c-0.5,0-1,0-1.4,0c0,0.5,0,0.9,0,1.3c0.5,0,0.9,0,1.4,0c0,0.5,0,0.9,0,1.4c0.5,0,0.9,0,1.3,0
			C365.8,492,365.8,491.6,365.8,491.1z M361.6,485.6c0,0.9,0,1.8,0,2.7c1,0,1.8,0,2.7,0c0-0.5,0-0.9,0-1.4c-0.5,0-0.9,0-1.3,0
			c0-0.9,0-1.8,0-2.7c-1.4,0-2.8,0-4.1,0c0,1.4,0,2.7,0,4.1c0.5,0,0.9,0,1.3,0c0-0.9,0-1.8,0-2.7
			C360.7,485.6,361.1,485.6,361.6,485.6z M360.3,478.7c0,0.5,0,0.9,0,1.3c0.5,0,0.9,0,1.3,0c0-0.5,0-0.9,0-1.3
			C361.1,478.7,360.7,478.7,360.3,478.7z"/>
		<path d="M317.3,498.1c0,0.4,0,0.9,0,1.4c-0.9,0-1.8,0-2.7,0c0,0.5,0,0.9,0,1.3c-0.5,0-0.9,0-1.4,0c0-0.4,0-0.8,0-1.3
			c-0.5,0-0.9,0-1.3,0c0-1.4,0-2.7,0-4.1c0.4,0,0.8,0,1.3,0c0-0.5,0-0.9,0-1.4c-0.4,0-0.8,0-1.3,0c0-1,0-1.8,0-2.8
			c0.4,0,0.8,0,1.3,0c0,0.4,0,0.9,0,1.3c0.9,0,1.8,0,2.8,0c0-0.9,0-1.8,0-2.7c1,0,1.9,0,2.8,0l0,0c0,0.5,0,0.9,0,1.4
			c-0.5,0-0.9,0-1.4,0c0,0.5,0,0.9,0,1.3c0.5,0,0.9,0,1.3,0c0-0.5,0-0.9,0-1.3c0.5,0,0.9,0,1.4,0c0,0.5,0,0.9,0,1.4
			c1.4,0,2.8,0,4.2,0c0,0.5,0,0.9,0,1.4c0.5,0,0.9,0,1.3,0c0,1.4,0,2.7,0,4.1c-0.9,0-1.8,0-2.7,0c0,0.5,0,0.9,0,1.4l0,0
			c-1.4,0-2.7,0-4.2,0c0-0.5,0-0.9,0-1.4l0,0c0.9,0,1.8,0,2.7,0c0-0.5,0-0.9,0-1.4c-0.5,0-0.9,0-1.4,0c0-0.5,0-0.9,0-1.4
			c0.5,0,0.9,0,1.4,0c0-0.5,0-0.9,0-1.3c-0.5,0-0.9,0-1.3,0c0,0.5,0,0.9,0,1.3c-0.5,0-0.9,0-1.4,0l0,0c0-0.5,0-0.9,0-1.3
			c-1.4,0-2.8,0-4.2,0c0,0.9,0,1.8,0,2.7c-0.5,0-0.9,0-1.3,0c0,0.5,0,0.9,0,1.4C314.6,498.1,316,498.1,317.3,498.1L317.3,498.1z"/>
		<path d="M346.4,473.2c0-0.4,0-0.9,0-1.4c0.9,0,1.9,0,2.8,0l0,0c0,1.4,0,2.8,0,4.2c0.5,0,1,0,1.4,0l0,0c0,1.4,0,2.7,0,4.2
			c0.5,0,0.9,0,1.4,0c0,0.9,0,1.8,0,2.7c1.4,0,2.7,0,4.1,0c0,0.5,0,0.9,0,1.4c-0.9,0-1.8,0-2.7,0c0,0.5,0,0.9,0,1.4
			c-0.5,0-0.9,0-1.4,0c0-0.5,0-0.9,0-1.4c-0.5,0-0.9,0-1.3,0c0,0.5,0,0.9,0,1.3c0.5,0,0.9,0,1.3,0c0,0.5,0,0.9,0,1.4
			c1,0,1.8,0,2.7,0c0,0.5,0,0.9,0,1.4c-0.9,0-1.8,0-2.8,0c0,0.5,0,0.9,0,1.4c-0.5,0-0.9,0-1.4,0c0-0.4,0-0.9,0-1.4c-1,0-1.8,0-2.8,0
			c0,0.5,0,0.9,0,1.4c-0.5,0-0.9,0-1.4,0c0-0.9,0-1.9,0-2.8l0,0c0.5,0,0.9,0,1.4,0c0-0.5,0-0.9,0-1.4c0.5,0,0.9,0,1.3,0
			c0-0.5,0-0.9,0-1.4c-0.5,0-0.9,0-1.4,0c0-0.5,0-0.9,0-1.4c0.9,0,1.8,0,2.7,0c0-0.5,0-0.9,0-1.4c-0.9,0-1.8,0-2.7,0
			c0-1.4,0-2.7,0-4.2c-1,0-1.9,0-2.8,0c0-0.5,0-0.9,0-1.4l0,0c0.9,0,1.8,0,2.7,0c0-1,0-1.9,0-2.8
			C347.2,473.1,346.8,473.1,346.4,473.2L346.4,473.2z"/>
		<path d="M322.9,481.5c0-2.7,0-5.5,0-8.3c0.5,0,0.9,0,1.4,0c0,0.9,0,1.8,0,2.7c0.5,0,0.9,0,1.4,0c0-1.8,0-3.6,0-5.5
			c-0.9,0-1.8,0-2.7,0c0-1.4,0-2.7,0-4.1c1.3,0,2.7,0,4.1,0c0,3.2,0,6.4,0,9.7c1,0,1.9,0,2.8,0l0,0c0,0.5,0,0.9,0,1.4
			c-0.5,0-0.9,0-1.3,0c0,0.9,0,1.8,0,2.8c0.5,0,0.9,0,1.4,0c0,1,0,1.9,0,2.8c-1.4,0-2.7,0-4.2,0c0-0.5,0-1,0-1.4c0.5,0,0.9,0,1.4,0
			c0-1.4,0-2.8,0-4.1c-0.5,0-0.9,0-1.4,0c0,0.5,0,0.9,0,1.4c-0.5,0-0.9,0-1.3,0c0,0.5,0,0.9,0,1.4c0.5,0,0.9,0,1.4,0
			c0,0.5,0,0.9,0,1.4C324.7,481.5,323.8,481.5,322.9,481.5L322.9,481.5z M324.3,467.6c0,0.5,0,0.9,0,1.3c0.5,0,0.9,0,1.3,0
			c0-0.5,0-0.9,0-1.3C325.1,467.6,324.7,467.6,324.3,467.6z"/>
		<path d="M350.5,518.8c-1.4,0-2.7,0-4.1,0c0,0.5,0,0.9,0,1.4c0.9,0,1.7,0,2.7,0c0,0.5,0,0.9,0,1.4c-2.3,0-4.5,0-6.8,0
			c0-0.4,0-0.8,0-1.3c0.9,0,1.8,0,2.7,0c0-0.9,0-1.8,0-2.8c0.5,0,0.9,0,1.4,0c0-1,0-1.9,0-2.8c0.5,0,0.9,0,1.4,0c0-0.5,0-0.9,0-1.3
			c-0.5,0-0.9,0-1.3,0c0,0.5,0,0.9,0,1.3c-0.5,0-0.9,0-1.4,0l0,0c0-0.9,0-1.9,0-2.8l0,0c1.4,0,2.7,0,4.1,0c0-0.5,0-0.9,0-1.4
			c-0.9,0-1.8,0-2.7,0c0-0.5,0-0.9,0-1.3c1.9,0,3.7,0,5.5,0c0,0.5,0,0.9,0,1.3c0.5,0,0.9,0,1.4,0c0,0.5,0,0.9,0,1.4l0,0
			c-0.9,0-1.8,0-2.8,0c0,0.5,0,1,0,1.4c-0.5,0-0.9,0-1.3,0c0,0.5,0,0.9,0,1.4c0.5,0,0.9,0,1.3,0c0,0.4,0,0.9,0,1.4
			c0.5,0,0.9,0,1.4,0c0,0.5,0,0.9,0,1.4l0,0c-0.4,0-0.9,0-1.4,0C350.5,518,350.5,518.4,350.5,518.8L350.5,518.8z M347.8,517.4
			c0.5,0,0.9,0,1.3,0c0-0.5,0-0.9,0-1.3c-0.5,0-0.9,0-1.3,0C347.8,516.5,347.8,516.9,347.8,517.4z"/>
		<path d="M321.4,474.5c-3.2,0-6.4,0-9.6,0c0-3.2,0-6.4,0-9.6c3.2,0,6.4,0,9.6,0C321.4,468.1,321.4,471.3,321.4,474.5z M320,473.1
			c0-2.3,0-4.6,0-6.9c-2.3,0-4.6,0-6.8,0c0,2.3,0,4.6,0,6.9C315.5,473.1,317.8,473.1,320,473.1z"/>
		<path d="M311.8,511.9c3.2,0,6.4,0,9.6,0c0,3.2,0,6.4,0,9.6c-3.2,0-6.4,0-9.6,0C311.8,518.4,311.8,515.2,311.8,511.9z M320,520.2
			c0-2.3,0-4.6,0-6.9c-2.3,0-4.6,0-6.8,0c0,2.3,0,4.6,0,6.9C315.5,520.2,317.7,520.2,320,520.2z"/>
		<path d="M358.9,474.5c0-3.2,0-6.4,0-9.6c3.2,0,6.4,0,9.6,0c0,3.2,0,6.4,0,9.6C365.3,474.5,362.1,474.5,358.9,474.5z M360.3,466.3
			c0,2.3,0,4.6,0,6.9c2.3,0,4.6,0,6.8,0c0-2.3,0-4.6,0-6.9C364.8,466.3,362.6,466.3,360.3,466.3z"/>
		<path d="M320.1,484.2c-0.4,0-0.9,0-1.4,0c0,0.5,0,0.9,0,1.4c-0.5,0-0.9,0-1.4,0c0-0.4,0-0.8,0-1.3c-0.5,0-0.9,0-1.4,0
			c0,0.4,0,0.8,0,1.3c-0.5,0-0.9,0-1.4,0c0,1.4,0,2.8,0,4.1c-0.5,0-0.9,0-1.4,0c0-0.4,0-0.8,0-1.3c-0.5,0-0.9,0-1.4,0
			c0-0.9,0-1.8,0-2.8c0.4,0,0.8,0,1.3,0c0-1,0-1.8,0-2.8c-0.4,0-0.8,0-1.3,0c0-0.5,0-0.9,0-1.4c0.9,0,1.7,0,2.7,0c0,0.4,0,0.8,0,1.3
			c1.4,0,2.8,0,4.2,0c0-0.4,0-0.9,0-1.3c-0.4,0-0.8,0-1.3,0c0-1.4,0-2.7,0-4.1c0.4,0,0.8,0,1.3,0c0,0.9,0,1.8,0,2.7c0.5,0,1,0,1.4,0
			l0,0c0,0.4,0,0.9,0,1.4c1,0,1.9,0,2.8,0l0,0c0,0.9,0,1.9,0,2.8l0,0c-0.5,0-0.9,0-1.4,0l0,0c0-0.5,0-0.9,0-1.3c-0.5,0-0.9,0-1.4,0
			C320.1,483.4,320.1,483.8,320.1,484.2L320.1,484.2z"/>
		<path d="M315.9,506.4c0-0.4,0-0.9,0-1.4c-0.9,0-1.8,0-2.7,0c0-0.5,0-0.9-0.1-1.4c-0.4,0-0.8,0-1.3,0c0-0.5,0-0.9,0-1.4
			c1.3,0,2.7,0,4.1,0c0-0.5,0-0.9,0-1.3c0.9,0,1.8,0,2.8,0c0,0.4,0,0.9,0,1.3c-0.5,0-0.9,0-1.4,0c0,1,0,1.8,0,2.7c0.5,0,0.9,0,1.3,0
			c0-0.9,0-1.8,0-2.7c0.5,0,0.9,0,1.4,0l0,0c0,0.4,0,0.9,0,1.4c0.5,0,0.9,0,1.4,0c0,0.5,0,0.9,0,1.4c-0.4,0-0.8,0-1.3,0
			c0,0.5,0,0.9,0,1.4c0.9,0,1.8,0,2.7,0l0,0c0,0.5,0,0.9,0,1.4l0,0c-1.4,0-2.7,0-4.1,0c0-0.4,0-0.9,0-1.4
			C317.7,506.4,316.8,506.4,315.9,506.4L315.9,506.4z"/>
		<path d="M322.9,509.2c0-0.5,0-1,0-1.4l0,0c0.9,0,1.8,0,2.7,0c0-0.5,0-0.9,0-1.4c-0.9,0-1.8,0-2.7,0l0,0c0-0.4,0-0.9,0-1.4
			c0.4,0,0.9,0,1.4,0c0-0.5,0-1,0-1.4l0,0c0.9,0,1.8,0,2.8,0c0-0.5,0-0.9,0-1.4c0.5,0,0.9,0,1.4,0c0-0.5,0-0.9,0-1.4
			c0.5,0,0.9,0,1.4,0c0,0.9,0,1.8,0,2.8c0.5,0,0.9,0,1.3,0c0,0.5,0,0.9,0,1.4c-0.9,0-1.8,0-2.7,0c0,1,0,1.8,0,2.8
			c-0.5,0-0.9,0-1.4,0c0,0.5,0,0.9,0,1.4l0,0C325.6,509.1,324.2,509.1,322.9,509.2L322.9,509.2z"/>
		<path d="M353.3,475.9c0-0.9,0-1.8,0-2.7c0.4,0,0.9,0,1.3,0c0,0.4,0,0.8,0,1.3c0.5,0,0.9,0,1.4,0c0-0.9,0-1.8,0-2.7c0,0,0,0,0,0
			c0.4,0,0.9,0,1.4,0c0,1.4,0,2.8,0,4.1l0,0c-0.4,0-0.9,0-1.4,0c0,1,0,1.9,0,2.8l0,0c-0.4,0-0.9,0-1.4,0c0,0.5,0,1,0,1.4l0,0
			c-0.5,0-0.9,0-1.4,0c0-1,0-1.9,0-2.8l0,0c0.5,0,0.9,0,1.3,0c0-0.5,0-0.9,0-1.4C354.2,475.9,353.7,475.9,353.3,475.9L353.3,475.9z"
			/>
		<path d="M329.8,520.2c-0.4,0-0.9,0-1.4,0c0,0.5,0,0.9,0,1.4c-1.9,0-3.7,0-5.5,0c0-0.4,0-0.8,0-1.3c0.4,0,0.8,0,1.3,0
			c0-0.5,0-0.9,0-1.4c1.4,0,2.7,0,4.2,0c0-0.5,0-1,0-1.4l0,0c0.5,0,0.9,0,1.4,0C329.8,518.4,329.8,519.3,329.8,520.2L329.8,520.2z"
			/>
		<path d="M328.4,517.4c-0.9,0-1.8,0-2.8,0c0-0.5,0-0.9,0-1.4c-0.5,0-0.9,0-1.3,0c0-0.9,0-1.8,0-2.8c0.4,0,0.9,0,1.3,0l0,0
			c0,0.5,0,0.9,0,1.3c1,0,1.9,0,2.8,0c0-0.5,0-0.9,0-1.3c0.9,0,1.8,0,2.8,0c0,0.5,0,0.9,0,1.3c-0.4,0-0.9,0-1.4,0c0,0.5,0,0.9,0,1.4
			c-0.4,0-0.9,0-1.4,0C328.4,516.6,328.4,517,328.4,517.4L328.4,517.4z"/>
		<path d="M345,511.9c-0.4,0-0.9,0-1.4,0c0,0.5,0,0.9,0,1.4c-0.5,0-1,0-1.4,0l0,0c0-0.4,0-0.9,0-1.4c-0.5,0-1,0-1.4,0l0,0
			c0-0.9,0-1.8,0-2.8c0.5,0,0.9,0,1.4,0c0-0.5,0-0.9,0-1.4c1,0,1.9,0,2.7,0C345,509.1,345,510.5,345,511.9L345,511.9z"/>
		<path d="M329.8,474.5c-0.4,0-0.9,0-1.3,0c0-0.9,0-1.8,0-2.7c0.4,0,0.8,0,1.3,0c0-1,0-1.8,0-2.7c0.5,0,0.9,0,1.4,0
			c0,0.4,0,0.8,0,1.4c0.5,0,1,0,1.4,0l0,0c0,0.5,0,0.9,0,1.4c0.5,0,0.9,0,1.4,0c0,0.5,0,0.9,0,1.4c-0.4,0-0.9,0-1.4,0
			c0,0.5,0,0.9,0,1.4c-0.5,0-0.9,0-1.4,0l0,0c0-0.5,0-0.9,0-1.3c-0.5,0-0.9,0-1.4,0C329.8,473.7,329.8,474.1,329.8,474.5
			L329.8,474.5z"/>
		<path d="M349.2,471.8c0-0.9,0-1.8,0-2.8c-0.5,0-1,0-1.4,0l0,0c0-0.4,0-0.9,0-1.3c0.9,0,1.8,0,2.7,0c0,0.9,0,1.8,0,2.7
			c0.5,0,1,0,1.4,0l0,0c0,1.9,0,3.7,0,5.6l0,0c-0.5,0-0.9,0-1.4,0l0,0c0-1.4,0-2.8,0-4.2C350,471.8,349.6,471.8,349.2,471.8
			L349.2,471.8z"/>
		<path d="M320.1,488.4c0-0.4,0-0.9,0-1.4c0.4,0,0.9,0,1.4,0c0-0.5,0-1,0-1.4l0,0c0.4,0,0.9,0,1.4,0c0-0.5,0-1,0-1.4l0,0
			c0.9,0,1.8,0,2.7,0c0,0.5,0,0.9,0,1.4c-0.5,0-0.9,0-1.3,0c0,0.5,0,0.9,0,1.4c-0.4,0-0.9,0-1.4,0c0,0.5,0,0.9,0,1.4
			C321.9,488.4,321,488.4,320.1,488.4L320.1,488.4z"/>
		<path d="M339.5,513.3c0,1.4,0,2.7,0,4.1c-0.5,0-0.9,0-1.4,0l0,0c0-0.4,0-0.9,0-1.4c-1.4,0-2.8,0-4.2,0l0,0c0-0.5,0-0.9,0-1.4
			c1.4,0,2.8,0,4.2,0c0-0.5,0-0.9,0-1.4C338.5,513.3,339,513.3,339.5,513.3L339.5,513.3z"/>
		<path d="M347.8,469c0,0.4,0,0.9,0,1.3c-0.9,0-1.8,0-2.7,0c0-0.4,0-0.8,0-1.3c-0.5,0-0.9,0-1.4,0c0-0.5,0-1,0-1.4l0,0
			c0.4,0,0.9,0,1.4,0c0-0.5,0-1,0-1.4l0,0c0.4,0,0.9,0,1.4,0c0,0.9,0,1.8,0,2.8C346.9,469,347.3,469,347.8,469L347.8,469z"/>
		<path d="M327,511.9c0-0.9,0-1.9,0-2.8l0,0c1.4,0,2.7,0,4.1,0c0,0.5,0,0.9,0,1.4c-0.5,0-0.9,0-1.3,0c0,0.5,0,0.9,0,1.4
			C328.8,511.9,327.9,511.9,327,511.9L327,511.9z"/>
		<path d="M357.4,496.7c0,0.9,0,1.8,0,2.8c-0.4,0-0.9,0-1.4,0c0,0.5,0,1,0,1.4l0,0c-0.9,0-1.9,0-2.8,0c0-0.5,0-0.9,0-1.4
			c0.5,0,0.9,0,1.4,0c0-0.5,0-0.9,0-1.4c0.5,0,0.9,0,1.4,0c0-0.5,0-0.9,0-1.4C356.6,496.7,357,496.7,357.4,496.7L357.4,496.7z"/>
		<path d="M336.7,470.4c0-0.4,0-0.9,0-1.3c0.9,0,1.8,0,2.7,0c0,0.4,0,0.8,0,1.3c0.9,0,1.8,0,2.8,0c0,0.5,0,1,0,1.4l0,0
			c-1.4,0-2.7,0-4.2,0c0-0.5,0-0.9,0-1.4C337.6,470.4,337.1,470.4,336.7,470.4L336.7,470.4z"/>
		<path d="M315.9,506.4c0,1.4,0,2.7,0,4.1c-0.9,0-1.8,0-2.7,0c0-0.9,0-1.8,0-2.7c0.4,0,0.8,0,1.3,0c0-0.5,0-0.9,0-1.4
			C315,506.4,315.5,506.4,315.9,506.4L315.9,506.4z"/>
		<path d="M343.6,467.6c-0.9,0-1.8,0-2.7,0c0-0.4,0-0.9,0-1.4c0.4,0,0.8,0,1.3,0c0-0.5,0-0.9,0-1.3c0.9,0,1.8,0,2.8,0
			c0,0.4,0,0.9,0,1.3l0,0c-0.4,0-0.9,0-1.4,0C343.6,466.7,343.6,467.2,343.6,467.6L343.6,467.6z"/>
		<path d="M342.2,471.8c0.4,0,0.9,0,1.4,0c0,0.9,0,1.8,0,2.8c0.5,0,1,0,1.4,0l0,0c0,0.5,0,0.9,0,1.4l0,0c-0.9,0-1.8,0-2.8,0
			C342.2,474.5,342.2,473.1,342.2,471.8L342.2,471.8z"/>
		<path d="M322.9,510.5c-1.8,0-3.6,0-5.5,0c0-0.5,0-0.9,0-1.3c1.9,0,3.7,0,5.5,0l0,0C322.9,509.6,322.8,510.1,322.9,510.5
			L322.9,510.5z"/>
		<path d="M332.5,517.4c0,1.4,0,2.7,0,4.1c-0.9,0-1.8,0-2.7,0c0-0.4,0-0.9,0-1.3l0,0c0.5,0,0.9,0,1.4,0c0-1,0-1.9,0-2.8
			C331.6,517.4,332.1,517.5,332.5,517.4L332.5,517.4z"/>
		<path d="M324.2,503.6c-0.4,0-0.9,0-1.4,0c0-1.4,0-2.8,0-4.2l0,0c0.5,0,0.9,0,1.4,0C324.2,500.9,324.2,502.3,324.2,503.6
			L324.2,503.6z"/>
		<path d="M333.9,467.7c0.4,0,0.9,0,1.4,0c0,0.9,0,1.8,0,2.7l0,0c-0.9,0-1.9,0-2.8,0l0,0c0-0.4,0-0.9,0-1.4c0.4,0,0.9,0,1.4,0
			C333.9,468.5,333.9,468.1,333.9,467.7C333.9,467.6,333.9,467.7,333.9,467.7z"/>
		<path d="M354.7,516.1c0,0.9,0,1.8,0,2.8c-0.9,0-1.9,0-2.8,0l0,0c0-0.5,0-0.9,0-1.4l0,0c0.5,0,0.9,0,1.4,0c0-0.5,0-0.9,0-1.4
			C353.8,516.1,354.3,516.1,354.7,516.1L354.7,516.1z"/>
		<path d="M314.5,478.7c-0.9,0-1.8,0-2.7,0c0-0.9,0-1.8,0-2.7c0.4,0,0.8,0,1.3,0c0,0.4,0,0.8,0,1.3c0.5,0,0.9,0,1.4,0
			C314.5,477.8,314.5,478.2,314.5,478.7L314.5,478.7z"/>
		<path d="M363,477.3c0-0.4,0-0.9,0-1.3c1.4,0,2.7,0,4.1,0c0,0.4,0,0.8,0,1.3C365.7,477.3,364.4,477.3,363,477.3L363,477.3z"/>
		<path d="M365.8,499.5c0-0.5,0-0.9,0-1.4c0.9,0,1.8,0,2.7,0c0,0.9,0,1.8,0,2.7c-0.4,0-0.8,0-1.3,0c0-0.4,0-0.8,0-1.3
			C366.7,499.5,366.3,499.5,365.8,499.5z"/>
		<path d="M338.1,517.4c0,0.5,0,0.9,0,1.4l0,0c-0.4,0-0.9,0-1.4,0c0,0.5,0,0.9,0,1.4c-0.5,0-0.9,0-1.3,0c0-0.9,0-1.8,0-2.7
			C336.3,517.5,337.2,517.5,338.1,517.4L338.1,517.4z"/>
		<path d="M338.1,518.8c0.9,0,1.8,0,2.7,0c0,0.5,0,0.9,0,1.4c-0.4,0-0.8,0-1.3,0c0,0.5,0,0.9,0,1.3c-0.5,0-0.9,0-1.4,0
			C338.1,520.6,338.1,519.7,338.1,518.8L338.1,518.8z"/>
		<path d="M351.9,518.8c0,0.4,0,0.9,0,1.4c0.5,0,0.9,0,1.4,0c0,0.5,0,0.9,0,1.3c-0.9,0-1.7,0-2.7,0c0-0.9,0-1.8,0-2.7l0,0
			C351,518.8,351.5,518.8,351.9,518.8L351.9,518.8z"/>
		<path d="M360.2,496.7c-0.9,0-1.9,0-2.8,0l0,0c0-0.5,0-0.9,0-1.4c0.9,0,1.8,0,2.8,0C360.2,495.8,360.2,496.3,360.2,496.7
			L360.2,496.7z"/>
		<path d="M367.2,484.2c0-0.9,0-1.9,0-2.8l0,0c0.4,0,0.9,0,1.3,0c0,0.9,0,1.8,0,2.7C368,484.2,367.6,484.2,367.2,484.2L367.2,484.2z
			"/>
		<path d="M335.3,470.4c0.5,0,0.9,0,1.4,0l0,0c0,0.9,0,1.9,0,2.8l0,0c-0.5,0-0.9,0-1.4,0C335.3,472.2,335.3,471.3,335.3,470.4
			L335.3,470.4z"/>
		<path d="M318.7,498.1c-0.5,0-0.9,0-1.4,0l0,0c0-0.9,0-1.8,0-2.8c0.5,0,1,0,1.4,0l0,0C318.7,496.2,318.7,497.1,318.7,498.1
			L318.7,498.1z"/>
		<path d="M356.1,469c0,0.9,0,1.9,0,2.8c0,0,0,0,0,0c-0.4,0-0.9,0-1.3,0c0-0.9,0-1.8,0-2.8C355.2,469,355.6,469,356.1,469L356.1,469
			z"/>
		<path d="M318.7,488.4c-0.9,0-1.8,0-2.7,0c0-0.5,0-0.9,0-1.3c0.9,0,1.8,0,2.7,0C318.7,487.5,318.7,487.9,318.7,488.4L318.7,488.4z"
			/>
		<path d="M342.2,513.3c0,0.9,0,1.8,0,2.7c-0.4,0-0.9,0-1.4,0c0-0.9,0-1.8,0-2.7l0,0C341.3,513.3,341.8,513.3,342.2,513.3
			L342.2,513.3z"/>
		<path d="M365.8,513.3c0.9,0,1.8,0,2.7,0c0,0.4,0,0.9,0,1.3c-0.9,0-1.7,0-2.7,0C365.8,514.2,365.8,513.7,365.8,513.3L365.8,513.3z"
			/>
		<path d="M333.9,466.2c0,0.5,0,1,0,1.4c0,0,0,0,0,0c-0.9,0-1.8,0-2.7,0c0-0.5,0-1,0-1.4l0,0C332.1,466.2,333,466.2,333.9,466.2
			L333.9,466.2z"/>
		<path d="M333.9,466.2c0-0.4,0-0.9,0-1.3c0.9,0,1.8,0,2.7,0c0,0.4,0,0.9,0,1.3l0,0C335.8,466.2,334.8,466.2,333.9,466.2
			L333.9,466.2z"/>
		<path d="M331.2,466.2c-0.9,0-1.8,0-2.7,0c0-0.4,0-0.9,0-1.3c0.9,0,1.7,0,2.7,0C331.1,465.3,331.1,465.8,331.2,466.2L331.2,466.2z"
			/>
		<path d="M349.2,466.2c0-0.4,0-0.8,0-1.3c0.4,0,0.8,0,1.3,0c0,0.4,0,0.8,0,1.3C350.1,466.2,349.7,466.2,349.2,466.2z"/>
		<path d="M354.7,464.9c0,0.4,0,0.8,0,1.3c-0.4,0-0.8,0-1.3,0c0-0.4,0-0.8,0-1.3C353.8,464.9,354.2,464.9,354.7,464.9z"/>
		<path d="M336.7,466.2c0.4,0,0.9,0,1.3,0c0,0.4,0,0.9,0,1.3c-0.4,0-0.8,0-1.3,0C336.7,467.1,336.7,466.7,336.7,466.2L336.7,466.2z"
			/>
		<path d="M356.1,469c0-0.4,0-0.9,0-1.3c0.4,0,0.9,0,1.3,0c0,0.4,0,0.8,0,1.3C357,469,356.5,469,356.1,469L356.1,469z"/>
		<path d="M351.9,470.4c0-0.4,0-0.9,0-1.3c0.4,0,0.9,0,1.3,0c0,0.4,0,0.8,0,1.3C352.8,470.4,352.4,470.4,351.9,470.4L351.9,470.4z"
			/>
		<path d="M345,474.5c0-0.4,0-0.9,0-1.4c0.5,0,0.9,0,1.4,0l0,0c0,0.5,0,0.9,0,1.4C345.9,474.5,345.4,474.5,345,474.5L345,474.5z"/>
		<path d="M329.8,475.9c0-0.5,0-0.9,0-1.4l0,0c0.5,0,0.9,0,1.4,0l0,0c0,0.5,0,0.9,0,1.4C330.7,475.9,330.2,475.9,329.8,475.9
			L329.8,475.9z"/>
		<path d="M321.4,477.3c-0.5,0-0.8,0-1.3,0c0-0.4,0-0.9,0-1.3c0.4,0,0.8,0,1.3,0C321.4,476.4,321.4,476.8,321.4,477.3z"/>
		<path d="M320.1,502.2c0-0.4,0-0.9,0-1.3c0.4,0,0.9,0,1.3,0c0,0.4,0,0.8,0,1.3C321,502.2,320.5,502.2,320.1,502.2L320.1,502.2z"/>
		<path d="M351.9,475.9c0.5,0,0.9,0,1.4,0l0,0c0,0.5,0,0.9,0,1.4l0,0c-0.5,0-0.9,0-1.4,0C351.9,476.8,351.9,476.3,351.9,475.9
			L351.9,475.9z"/>
		<path d="M314.5,478.7c0.4,0,0.9,0,1.3,0c0,0.4,0,0.9,0,1.3c-0.4,0-0.8,0-1.3,0C314.5,479.6,314.5,479.1,314.5,478.7L314.5,478.7z"
			/>
		<path d="M356.1,500.8c0.4,0,0.9,0,1.4,0c0,0.5,0,0.9,0,1.4l0,0c-0.5,0-0.9,0-1.4,0l0,0C356.1,501.8,356.1,501.3,356.1,500.8
			L356.1,500.8z"/>
		<path d="M320.1,480.1c0-0.4,0-0.9,0-1.3c0.4,0,0.9,0,1.3,0c0,0.4,0,0.8,0,1.3C321,480.1,320.5,480.1,320.1,480.1L320.1,480.1z"/>
		<path d="M367.1,503.6c0.4,0,0.9,0,1.3,0c0,0.4,0,0.9,0,1.3c-0.4,0-0.8,0-1.3,0C367.2,504.5,367.2,504,367.1,503.6L367.1,503.6z"/>
		<path d="M367.2,481.4c-0.4,0-0.9,0-1.3,0c0-0.4,0-0.9,0-1.3c0.4,0,0.8,0,1.3,0C367.1,480.6,367.1,481,367.2,481.4L367.2,481.4z"/>
		<path d="M367.2,507.8c0-0.4,0-0.9,0-1.4c0.4,0,0.8,0,1.3,0c0,0.4,0,0.8,0,1.4C368.1,507.8,367.6,507.8,367.2,507.8
			C367.2,507.8,367.2,507.8,367.2,507.8z"/>
		<path d="M365.8,507.8c0.5,0,1,0,1.4,0c0,0,0,0,0,0c0,0.5,0,0.9,0,1.4l0,0c-0.5,0-0.9,0-1.4,0l0,0
			C365.8,508.7,365.8,508.2,365.8,507.8L365.8,507.8z"/>
		<path d="M321.5,485.6c-0.4,0-0.9,0-1.4,0c0-0.5,0-0.9,0-1.4l0,0c0.5,0,0.9,0,1.4,0l0,0C321.5,484.7,321.5,485.2,321.5,485.6
			L321.5,485.6z"/>
		<path d="M367.1,509.2c0.4,0,0.9,0,1.3,0c0,0.4,0,0.9,0,1.3c-0.4,0-0.8,0-1.3,0C367.2,510,367.2,509.6,367.1,509.2L367.1,509.2z"/>
		<path d="M322.8,510.5c0.4,0,0.9,0,1.3,0c0,0.4,0,0.9,0,1.3c-0.4,0-0.8,0-1.3,0C322.9,511.4,322.9,511,322.8,510.5L322.8,510.5z"/>
		<path d="M325.6,513.3c0-0.4,0-0.9,0-1.4c0.5,0,0.9,0,1.4,0l0,0c0,0.5,0,0.9,0,1.4C326.5,513.3,326,513.3,325.6,513.3L325.6,513.3z
			"/>
		<path d="M340.9,513.3c-0.5,0-0.9,0-1.4,0l0,0c0-0.5,0-0.9,0-1.4c0.5,0,0.9,0,1.4,0l0,0C340.8,512.4,340.8,512.8,340.9,513.3
			L340.9,513.3z"/>
		<path d="M318.7,488.4c0.5,0,0.9,0,1.4,0l0,0c0,0.5,0,0.9,0,1.4c-0.5,0-0.9,0-1.4,0l0,0C318.7,489.3,318.7,488.8,318.7,488.4
			L318.7,488.4z"/>
		<path d="M345,514.7c0,0.4,0,0.9,0,1.3c-0.4,0-0.9,0-1.3,0c0-0.4,0-0.8,0-1.3C344.1,514.7,344.6,514.7,345,514.7L345,514.7z"/>
		<path d="M333.9,516.1c0,0.4,0,0.9,0,1.4c-0.5,0-0.9,0-1.4,0l0,0c0-0.5,0-0.9,0-1.4C333,516.1,333.5,516.1,333.9,516.1L333.9,516.1
			z"/>
		<path d="M364.4,517.5c0-0.4,0-0.9,0-1.3c0.4,0,0.9,0,1.3,0c0,0.4,0,0.8,0,1.3C365.3,517.4,364.8,517.4,364.4,517.5L364.4,517.5z"
			/>
		<path d="M368.5,517.4c-0.4,0-0.8,0-1.3,0c0-0.4,0-0.8,0-1.3c0.4,0,0.8,0,1.3,0C368.5,516.5,368.5,516.9,368.5,517.4z"/>
		<path d="M368.5,518.9c0,0.4,0,0.8,0,1.3c-0.4,0-0.9,0-1.3,0c0-0.4,0-0.8,0-1.3C367.6,518.9,368,518.9,368.5,518.9z"/>
		<path d="M356,520.3c0,0.4,0,0.8,0,1.3c-0.4,0-0.9,0-1.3,0c0-0.4,0-0.8,0-1.3C355.1,520.3,355.6,520.3,356,520.3z"/>
		<path d="M351.9,496.7c0,0.9,0,1.8,0,2.7c-0.4,0-0.9,0-1.3,0c0,0.5,0,0.9,0,1.4c0.9,0,1.8,0,2.7,0c0,0.5,0,0.9,0,1.4
			c-0.4,0-0.9,0-1.4,0c0,1.4,0,2.8,0,4.2c-0.4,0-0.9,0-1.4,0c0,0.4,0,0.9,0,1.4c-1.9,0-3.7,0-5.6,0c0-0.4,0-0.9,0-1.4
			c0.5,0,0.9,0,1.4,0c0-0.5,0-1,0-1.4l0,0c0.5,0,0.9,0,1.4,0c0,0.5,0,0.9,0,1.4c0.5,0,0.9,0,1.3,0c0-0.5,0-0.9,0-1.3
			c-0.5,0-0.9,0-1.3,0c0-0.5,0-0.9,0-1.4c0.5,0,0.9,0,1.4,0c0-0.5,0-0.9,0-1.4c-0.9,0-1.8,0-2.7,0c0-0.5,0-0.9,0-1.4
			c0.9,0,1.8,0,2.7,0c0-1,0-1.9,0-2.8l0,0c0.4,0,0.9,0,1.4,0c0-0.5,0-1,0-1.4l0,0C351,496.7,351.5,496.7,351.9,496.7L351.9,496.7z"
			/>
		<path d="M353.3,506.4c0,0.5,0,0.9,0,1.4c-0.4,0-0.9,0-1.4,0c0-0.5,0-1,0-1.4C352.4,506.4,352.8,506.4,353.3,506.4z"/>
		<path d="M358.9,511.9c0.5,0,0.8,0,1.3,0c0,0.4,0,0.9,0,1.3c-0.4,0-0.8,0-1.3,0C358.9,512.8,358.9,512.4,358.9,511.9z"/>
		<path d="M350.5,514.7c0-0.5,0-0.9,0-1.4c0.4,0,0.9,0,1.3,0c0,0.5,0,0.9,0,1.4C351.4,514.7,351,514.7,350.5,514.7z"/>
		<path d="M357.5,495.3c-1.4,0-2.7,0-4.1,0c0,0.4,0,0.9,0,1.4c-0.5,0-1,0-1.4,0l0,0c0-0.5,0-0.9,0-1.3c-0.5,0-0.9,0-1.4,0
			c0,0.5,0,0.9,0,1.3l0,0c-0.4,0-0.9,0-1.4,0c0,0.5,0,1,0,1.4l0,0c-0.5,0-0.9,0-1.4,0c0-0.5,0-0.9,0-1.3c-0.5,0-0.9,0-1.4,0
			c0,0.9,0,1.8,0,2.7c-0.5,0-0.9,0-1.4,0c0-1.4,0-2.8,0-4.2c0.5,0,0.9,0,1.3,0c0-0.5,0-0.9,0-1.4c-0.5,0-0.9,0-1.3,0
			c0-0.5,0-0.9,0-1.4l0,0c1.4,0,2.7,0,4.1,0c0-0.9,0-1.8,0-2.8c0.5,0,1,0,1.4,0c0,0.4,0,0.9,0,1.4c0.4,0,0.9,0,1.4,0
			c0,0.5,0,0.9,0,1.4c0.5,0,0.9,0,1.4,0c0,0.5,0,0.9,0,1.4c0.5,0,0.9,0,1.4,0c0-0.9,0-1.8,0-2.7c-0.4,0-0.8,0-1.3,0
			c0-0.5,0-0.9,0-1.4c0.9,0,1.8,0,2.7,0c0,0.4,0,0.9,0,1.4c0.4,0,0.9,0,1.4,0c0,0.5,0,1,0,1.4l0,0c-0.5,0-0.9,0-1.3,0
			c0,0.5,0,0.9,0,1.4c0.5,0,0.9,0,1.3,0l0,0C357.5,494.4,357.5,494.8,357.5,495.3z"/>
		<path d="M357.4,492.5c0.4,0,0.9,0,1.3,0c0,0.4,0,0.9,0,1.4c-0.4,0-0.9,0-1.3,0l0,0C357.5,493.5,357.5,493,357.4,492.5L357.4,492.5
			z"/>
		<path d="M361.6,492.5c0,0.5,0,0.9,0,1.4c-0.4,0-0.9,0-1.3,0c0-0.5,0-0.9,0-1.4C360.7,492.5,361.2,492.5,361.6,492.5z"/>
		<path d="M346.4,489.8c0,0.4,0,0.9,0,1.4c-0.5,0-0.9,0-1.4,0c0,0.5,0,1,0,1.4l0,0c-0.9,0-1.9,0-2.8,0c0-0.5,0-0.9,0-1.4
			c-0.5,0-0.9,0-1.3,0c0,0.5,0,0.9,0,1.3c0.5,0,0.9,0,1.3,0c0,0.9,0,1.9,0,2.8c-0.5,0-0.9,0-1.4,0l0,0c0-0.4,0-0.9,0-1.4
			c-0.5,0-0.9,0-1.4,0c0-0.5,0-0.9,0-1.4c-1.4,0-2.7,0-4.1,0c0-0.5,0-0.9,0-1.4c0.9,0,1.8,0,2.7,0c0-1.4,0-2.7,0-4.1
			c-0.4,0-0.8,0-1.3,0c0-0.5,0-1,0-1.4l0,0c0.4,0,0.9,0,1.4,0c0-0.5,0-0.9,0-1.4c0.5,0,1,0,1.4,0c0,0.9,0,1.8,0,2.8
			c1.4,0,2.7,0,4.1,0c0,0.5,0,0.9,0,1.4c0.5,0,0.9,0,1.4,0c0,0.5,0,0.9,0,1.4C345.5,489.8,345.9,489.8,346.4,489.8z M339.5,489.7
			c0.9,0,1.8,0,2.7,0c0-0.5,0-0.9,0-1.3c-0.9,0-1.8,0-2.7,0C339.5,488.9,339.5,489.3,339.5,489.7z"/>
		<path d="M336.7,477.3c2.8,0,5.6,0,8.3,0c0,0.5,0,0.9,0,1.4l0,0c-1.4,0-2.7,0-4.2,0c0,1.9,0,3.7,0,5.6l0,0c-0.5,0-0.9,0-1.4,0
			c0-1.8,0-3.6,0-5.5c-0.5,0-0.9,0-1.4,0c0,0.4,0,0.9,0,1.3c-0.9,0-1.8,0-2.8,0c0-0.5,0-0.9,0-1.4l0,0c0.4,0,0.9,0,1.4,0
			C336.7,478.2,336.7,477.7,336.7,477.3L336.7,477.3z"/>
		<path d="M324.2,488.4c0-0.5,0-0.9,0-1.4c0.9,0,1.8,0,2.8,0c0,0.5,0,0.9,0,1.4c0.9,0,1.8,0,2.7,0c0,0.5,0,0.9,0,1.4
			c-0.4,0-0.8,0-1.3,0c0,0.5,0,0.9,0,1.4c0.9,0,1.8,0,2.7,0c0,0.5,0,0.9,0,1.3c-1.3,0-2.7,0-4.1,0c0-0.9,0-1.8,0-2.7
			c-0.5,0-0.9,0-1.4,0c0-0.5,0-0.9,0-1.4C325.1,488.4,324.7,488.4,324.2,488.4z"/>
		<path d="M338.1,498.1c0.4,0,0.9,0,1.4,0c0-0.9,0-1.8,0-2.8c0.5,0,1,0,1.4,0l0,0c0,1.4,0,2.7,0,4.2c0.5,0,0.9,0,1.4,0
			c0,0.5,0,0.9,0,1.4c-0.5,0-0.9,0-1.4,0c0,0.5,0,0.9,0,1.4c-0.5,0-0.9,0-1.4,0l0,0c0-0.4,0-0.9,0-1.4c-1,0-1.9,0-2.8,0l0,0
			c0-0.4,0-0.9,0-1.4c0.4,0,0.9,0,1.4,0C338.1,499,338.1,498.5,338.1,498.1L338.1,498.1z"/>
		<path d="M335.3,500.8c-1.9,0-3.7,0-5.6,0c0-0.4,0-0.9,0-1.4c0.9,0,1.8,0,2.8,0c0-0.5,0-1,0-1.4c0,0,0,0,0,0c0.4,0,0.9,0,1.4-0.1
			c0-0.9,0-1.8,0-2.7c0.5,0,0.9,0,1.4,0C335.3,497.2,335.3,499,335.3,500.8z"/>
		<path d="M331.1,475.9c0.4,0,0.9,0,1.4,0c0-0.5,0-0.9,0-1.4c0.5,0,0.9,0,1.4,0c0,0.4,0,0.9,0,1.4c0.9,0,1.8,0,2.7,0
			c0,0.5,0,1,0,1.4l0,0c-0.4,0-0.9,0-1.4,0c0,0.5,0,1,0,1.4l0,0c-0.5,0-0.9,0-1.4,0c0-0.4,0-0.9,0-1.4c-0.9,0-1.8,0-2.8,0
			C331.1,476.8,331.1,476.4,331.1,475.9z"/>
		<path d="M335.3,485.6c0,0.9,0,1.8,0,2.8c0.5,0,0.9,0,1.4,0c0,0.5,0,0.9,0,1.4c-0.9,0-1.8,0-2.7,0c0-1.4,0-2.7,0-4.1
			C334.4,485.6,334.9,485.6,335.3,485.6C335.3,485.6,335.3,485.6,335.3,485.6z"/>
		<path d="M322.8,488.4c0.5,0,0.9,0,1.4,0c0,0.9,0,1.8,0,2.7c-0.5,0-0.9,0-1.4,0C322.8,490.2,322.8,489.3,322.8,488.4z"/>
		<path d="M329.7,496.7c0.9,0,1.8,0,2.8,0c0,0.5,0,0.9,0,1.4c0,0,0,0,0,0c-0.9,0-1.8,0-2.8,0C329.8,497.6,329.8,497.1,329.7,496.7
			L329.7,496.7z"/>
		<path d="M331.2,487c-0.9,0-1.8,0-2.8,0c0-0.5,0-0.9,0-1.4l0,0c0.9,0,1.9,0,2.8,0l0,0C331.1,486.1,331.1,486.5,331.2,487L331.2,487
			z"/>
		<path d="M329.8,495.3c0,0.5,0,1,0,1.4c0,0,0,0,0,0c-0.9,0-1.8,0-2.7,0c0-0.5,0-0.9,0-1.4C328,495.3,328.9,495.3,329.8,495.3
			L329.8,495.3z"/>
		<path d="M332.5,481.5c0-0.9,0-1.8,0-2.8c0.5,0,1,0,1.4,0c0,0.9,0,1.8,0,2.8C333.4,481.5,333,481.5,332.5,481.5z"/>
		<path d="M338.1,498.1c-0.4,0-0.9,0-1.3,0c0-0.4,0-0.9,0-1.3c0.4,0,0.8,0,1.3,0C338.1,497.2,338.1,497.6,338.1,498.1L338.1,498.1z"
			/>
		<path d="M327,499.5c0-0.4,0-0.9,0-1.3c0.5,0,0.9,0,1.3,0c0,0.4,0,0.8,0,1.3C327.9,499.4,327.4,499.4,327,499.5L327,499.5z"/>
		<path d="M327,499.4c0,0.4,0,0.9,0,1.3c-0.4,0-0.9,0-1.3,0c0-0.4,0-0.8,0-1.3C326.1,499.5,326.6,499.5,327,499.4L327,499.4z"/>
		<path d="M335.3,502.2c0-0.5,0-0.9,0-1.4c0.5,0,0.9,0,1.4,0l0,0c0,0.5,0,0.9,0,1.4l0,0C336.2,502.2,335.8,502.2,335.3,502.2
			L335.3,502.2z"/>
		<path d="M331.1,482.8c0-0.4,0-0.9,0-1.4c0.5,0,1,0,1.4,0c0,0.4,0,0.9,0,1.4C332,482.8,331.6,482.8,331.1,482.8z"/>
		<path d="M336.7,481.5c0.4,0,0.8,0,1.3,0c0,0.4,0,0.8,0,1.3c-0.4,0-0.8,0-1.3,0C336.7,482.4,336.7,482,336.7,481.5z"/>
		<path d="M329.8,482.8c0.5,0,0.9,0,1.4,0c0,0.5,0,0.9,0,1.4l0,0c-0.4,0-0.9,0-1.4,0C329.8,483.7,329.8,483.3,329.8,482.8z"/>
		<path d="M335.3,484.2c-0.4,0-0.9,0-1.4,0c0-0.4,0-0.8,0-1.3c0.4,0,0.8,0,1.4,0C335.3,483.3,335.3,483.8,335.3,484.2
			C335.3,484.2,335.3,484.2,335.3,484.2z"/>
		<path d="M328.4,485.6c-0.4,0-0.9,0-1.3,0c0-0.4,0-0.9,0-1.3c0.4,0,0.8,0,1.3,0C328.4,484.7,328.4,485.2,328.4,485.6L328.4,485.6z"
			/>
		<path d="M331.2,485.6c0-0.5,0-1,0-1.4c0,0,0,0,0,0c0.4,0,0.9,0,1.3,0c0,0.5,0,0.9,0,1.4C332,485.6,331.6,485.6,331.2,485.6
			L331.2,485.6z"/>
		<path d="M336.7,485.6c-0.5,0-1,0-1.4,0c0,0,0,0,0,0c0-0.5,0-0.9,0-1.4c0,0,0,0,0,0c0.4,0,0.9,0,1.4,0
			C336.7,484.7,336.7,485.2,336.7,485.6L336.7,485.6z"/>
		<path d="M331.1,487c0.4,0,0.9,0,1.3,0c0,0.4,0,0.9,0,1.3c-0.4,0-0.8,0-1.3,0C331.2,487.9,331.2,487.4,331.1,487L331.1,487z"/>
		<path d="M320.1,491.2c0-0.5,0-0.9,0-1.4c0.4,0,0.9,0,1.3,0c0,0.5,0,0.9,0,1.4C321,491.2,320.5,491.2,320.1,491.2z"/>
		<path d="M333.9,492.5c-0.4,0-0.8,0-1.3,0c0-0.4,0-0.8,0-1.3c0.4,0,0.8,0,1.3,0C333.9,491.6,333.9,492,333.9,492.5z"/>
		<path d="M329.8,495.3c0-0.4,0-0.9,0-1.3c0.4,0,0.9,0,1.3,0c0,0.4,0,0.8,0,1.3C330.7,495.3,330.2,495.3,329.8,495.3L329.8,495.3z"
			/>
		<path d="M338,494c0,0.4,0,0.8,0,1.3c-0.4,0-0.8,0-1.3,0c0-0.4,0-0.8,0-1.3C337.2,494,337.6,494,338,494z"/>
		<path d="M340.8,484.2c0.9,0,1.8,0,2.7,0c0,0.4,0,0.9,0,1.3c-0.9,0-1.7,0-2.7,0C340.9,485.1,340.9,484.7,340.8,484.2L340.8,484.2z"
			/>
		<path d="M345,478.7c0.4,0,0.9,0,1.3,0c0,0.4,0,0.9,0,1.3c-0.4,0-0.8,0-1.3,0C345,479.6,345,479.1,345,478.7L345,478.7z"/>
		<path d="M342.3,481.4c0-0.4,0-0.8,0-1.3c0.4,0,0.9,0,1.3,0c0,0.4,0,0.8,0,1.3C343.2,481.4,342.8,481.4,342.3,481.4z"/>
		<path d="M347.8,481.4c0,0.5,0,0.9,0,1.4c-0.5,0-0.9,0-1.4,0l0,0c0-0.4,0-0.9,0-1.4C346.9,481.4,347.3,481.4,347.8,481.4z"/>
		<path d="M346.4,482.8c0,0.4,0,0.9,0,1.3c-0.4,0-0.9,0-1.3,0c0-0.4,0-0.8,0-1.3C345.5,482.8,345.9,482.8,346.4,482.8L346.4,482.8z"
			/>
		<path d="M346.4,487c-0.4,0-0.9,0-1.3,0c0-0.4,0-0.9,0-1.3c0.4,0,0.8,0,1.3,0C346.4,486.1,346.4,486.6,346.4,487L346.4,487z"/>
		<path d="M338,474.6c0.5,0,0.9,0,1.4-0.1c0-0.4,0-0.8,0-1.3c0.5,0,0.9,0,1.4,0c0,0.9,0,1.8,0,2.7c-0.9,0-1.8,0-2.7,0
			C338.1,475.4,338.1,475,338,474.6C338.1,474.5,338,474.6,338,474.6z"/>
		<path d="M333.9,474.5c0-0.5,0-0.9,0-1.4c0.5,0,0.9,0,1.4,0c0,0.4,0,0.9,0,1.4C334.8,474.5,334.4,474.5,333.9,474.5z"/>
		<path d="M336.7,473.2c0.4,0,0.9,0,1.4,0c0,0.5,0,0.9,0,1.4c0,0,0,0,0,0c-0.4,0-0.9,0-1.4,0C336.7,474,336.7,473.6,336.7,473.2
			L336.7,473.2z"/>
		<path d="M318.7,467.7c0,1.4,0,2.7,0,4.1c-1.4,0-2.7,0-4.1,0c0-1.3,0-2.7,0-4.1C315.9,467.7,317.3,467.7,318.7,467.7z"/>
		<path d="M318.6,518.8c-1.4,0-2.7,0-4.1,0c0-1.4,0-2.7,0-4.1c1.3,0,2.7,0,4.1,0C318.6,516.1,318.6,517.4,318.6,518.8z"/>
		<path d="M365.7,471.7c-1.4,0-2.7,0-4.1,0c0-1.4,0-2.7,0-4.1c1.4,0,2.7,0,4.1,0C365.7,469,365.7,470.3,365.7,471.7z"/>
		<path d="M343.6,503.6c0,0.9,0,1.8,0,2.7c-0.9,0-1.8,0-2.7,0c0-0.4,0-0.8,0-1.3c-0.9,0-1.8,0-2.7,0c0,0.4,0,0.8,0,1.3
			c0.4,0,0.8,0,1.3,0c0,0.5,0,0.9,0,1.4c-1.3,0-2.7,0-4.1,0c0,0.5,0,1,0,1.4l0,0c-0.4,0-0.9,0-1.4,0c0,0.5,0,1,0,1.4l0,0
			c-0.4,0-0.9,0-1.4,0c0-0.9,0-1.9,0-2.8l0,0c0.5,0,0.9,0,1.3,0c0-0.5,0-0.9,0-1.4c-0.5,0-0.9,0-1.3,0l0,0c0-0.4,0-0.9,0-1.4
			c0.5,0,0.9,0,1.3,0c0-0.5,0-0.9,0-1.4c-0.4,0-0.8,0-1.3,0c0-0.5,0-0.9,0-1.4c0.9,0,1.8,0,2.7,0l0,0c0,0.5,0,0.9,0,1.3
			c0.5,0,0.9,0,1.4,0c0-0.5,0-0.9,0-1.3l0,0c0.9,0,1.9,0,2.8,0l0,0c0,0.4,0,0.9,0,1.4C340.9,503.6,342.3,503.6,343.6,503.6
			L343.6,503.6z"/>
		<path d="M333.9,514.7c-0.5,0-0.9,0-1.4,0c0-0.9,0-1.8,0-2.8c0.5,0,0.9,0,1.4,0c0-0.5,0-1,0-1.4l0,0c0.5,0,0.9,0,1.4,0l0,0
			c0,0.9,0,1.8,0,2.8c-0.4,0-0.9,0-1.4,0C333.9,513.8,333.9,514.2,333.9,514.7z"/>
		<path d="M332.6,507.7c-0.4,0-0.9,0-1.3,0c0-0.4,0-0.9,0-1.4c0.4,0,0.9,0,1.3,0l0,0C332.5,506.8,332.5,507.3,332.6,507.7
			L332.6,507.7z"/>
		<ellipse transform="matrix(0.9531 -0.3025 0.3025 0.9531 -140.3602 124.5379)" cx="331.8" cy="515.4" rx="1" ry="1"/>
		<circle cx="330.5" cy="516.8" r="1"/>
		<path d="M339.5,511.9c-0.4,0-0.9,0-1.4,0c0,0.5,0,0.9,0,1.4c-0.4,0-0.9,0-1.4,0c0-0.9,0-1.8,0-2.8c-0.5,0-1,0-1.4,0l0,0
			c0-0.5,0-0.9,0-1.4l0,0c0.9,0,1.8,0,2.7,0c0,0.4,0,0.9,0,1.4c0.5,0,0.9,0,1.4,0C339.5,511,339.5,511.5,339.5,511.9z"/>
		<path d="M345,503.6c-0.5,0-0.9,0-1.4,0l0,0c0-0.5,0-0.9,0-1.4c0.5,0,0.9,0,1.4,0C345,502.7,345,503.2,345,503.6L345,503.6z"/>
		<path d="M346.4,505c-0.4,0-0.9,0-1.4,0c0-0.5,0-0.9,0-1.4l0,0c0.5,0,0.9,0,1.4,0C346.4,504.1,346.4,504.6,346.4,505L346.4,505z"/>
		<path d="M343.6,500.8c0-0.4,0-0.9,0-1.4c0.5,0,1,0,1.4,0c0,0.4,0,0.9,0,1.4C344.5,500.8,344.1,500.8,343.6,500.8z"/>
		<path d="M343.6,502.2c-0.4,0-0.9,0-1.4,0c0-0.5,0-1,0-1.4c0.5,0,0.9,0,1.4,0C343.6,501.3,343.6,501.8,343.6,502.2z"/>
		<path d="M345,493.9c0,0.5,0,0.9,0,1.4c-0.5,0-0.9,0-1.4,0c0-0.4,0-0.9,0-1.4C344.1,493.9,344.6,493.9,345,493.9z"/>
		<path d="M342.2,495.3c0.5,0,0.9,0,1.4,0c0,0.4,0,0.9,0,1.3c-0.5,0-0.9,0-1.4,0C342.2,496.2,342.2,495.7,342.2,495.3z"/>
	</g>
	<g>
		<text transform="matrix(1 0 0 1 41.1572 130.3938)"><tspan x="0" y="0" class="st0 st1">Любое фото, сделанное любым человеком с использованием любой техники, защищается </tspan><tspan x="0" y="9.8" class="st0 st1">авторским правом на основании ст. 1265 ГК РФ. Фотография относится к произведениям </tspan><tspan x="0" y="19.5" class="st0 st1">искусства так же, как и живопись, графика, скульптура, рисунок, карикатура, комикс, </tspan><tspan x="0" y="29.3" class="st0 st1">эскиз дизайна, макет, кинематография и т.д., и ее автор обладает всеми имущественными </tspan><tspan x="0" y="39" class="st0 st1">и неимущественными правами на этот объект. </tspan><tspan x="0" y="58.6" class="st0 st1">Автор может публиковать сделанное им фото под собственным именем или псевдонимом, </tspan><tspan x="0" y="68.3" class="st0 st1">получать за публикацию гонорар или размещать фотоиллюстрацию совершенно </tspan><tspan x="0" y="78.1" class="st0 st1">бесплатно, использовать ее для коллажа или в качестве заставки, посылать фотографии </tspan><tspan x="0" y="87.8" class="st0 st1">друзьям по электронной почте, дарить и др. </tspan><tspan x="0" y="107.4" class="st0 st1">Разрешение на использование фотографий может давать их автор – фотограф, если он </tspan><tspan x="0" y="117.1" class="st0 st1">не передал такое право другим лицам по договору (ст. 1270 ГК РФ). Художник по свету, </tspan><tspan x="0" y="126.9" class="st0 st1">художник-постановщик, дизайнер, стилист, визажист, режиссёр и другие творческие </tspan><tspan x="0" y="136.6" class="st0 st1">участники съемки не создают фотографию, но могут стать её авторами, если между ними </tspan><tspan x="0" y="146.4" class="st0 st1">и фотографом будет заключен договор о распределении авторских прав на фотографии </tspan><tspan x="0" y="156.2" class="st0 st1">(ст. 1258 ГК РФ). </tspan><tspan x="0" y="175.7" class="st0 st1">Те, кто оказывают техническое, консультационное, организационное или материальное </tspan><tspan x="0" y="185.4" class="st0 st1">содействие не признаются авторами фото (автор идеи, помощники - ст. 1226 ГК РФ). </tspan><tspan x="0" y="205" class="st0 st1">Если с моделью есть договор, из которого следует, что модель позирует за плату, то </tspan><tspan x="0" y="214.7" class="st0 st1">специальное согласие модели не требуется (ст. 152 ГК РФ). Договор с моделью может </tspan><tspan x="0" y="224.5" class="st0 st1">заключать как фотограф, так и заказчик, в зависимости от того, кто собирается </tspan><tspan x="0" y="234.2" class="st0 st1">использовать фотографии. Если модель позировала не за плату, но в общественных </tspan><tspan x="0" y="244" class="st0 st1">интересах – например, реклама вакцинации населения, борьбы с курением, то договор </tspan><tspan x="0" y="253.8" class="st0 st1">можно не заключать. </tspan><tspan x="0" y="273.3" class="st0 st1">В ст. 1301 ГК РФ установлена компенсация за нарушение исключительных имущественных </tspan><tspan x="0" y="283" class="st0 st1">прав, в том числе за использование фотографий без согласия автора, но с указанием его </tspan><tspan x="0" y="292.8" class="st0 st1">имени, в размере от 10 тысяч до 5 миллионов рублей. Статьей 1300 ГК РФ аналогичные </tspan><tspan x="0" y="302.6" class="st0 st1">компенсации авторам фотографий предусмотрены и за нарушение чисто авторских прав, </tspan><tspan x="0" y="312.3" class="st0 st1">то есть использование фото без указания его авторства и за внесение изменений в фото</tspan><tspan x="0" y="322.1" class="st0 st1">без согласования с автором.</tspan></text>
	</g>
	<text transform="matrix(1 0 0 1 70.9526 58.6929)" class="st2 st3">ЮРИДИЧЕСКИЕ ОСНОВЫ</text>
	<text transform="matrix(1 0 0 1 97.7807 81.37)" class="st2 st3">РАБОТЫ СТИЛИСТА</text>
	<g>
		<text transform="matrix(1 0 0 1 41.1572 107.7166)" class="st4 st2 st5">Авторские права на фото</text>
	</g>
	<g>
		<text transform="matrix(1 0 0 1 212.3392 538.5829)" class="st0 st6">Действие настоящих законов актуально на 15.10.2018</text>
	</g>
</g>
</svg>
