<?xml version="1.0" encoding="utf-8"?>
<!-- Generator: Adobe Illustrator 22.1.0, SVG Export Plug-In . SVG Version: 6.00 Build 0)  -->
<svg version="1.1" id="Layer_1" xmlns="http://www.w3.org/2000/svg" xmlns:xlink="http://www.w3.org/1999/xlink" x="0px" y="0px"
	 viewBox="0 0 420.9 595.3" style="enable-background:new 0 0 420.9 595.3;" xml:space="preserve">
<style type="text/css">
	.st0{fill:#6B6966;}
	.st1{fill:#90C05B;}
	.st2{fill:#8DBF5C;}
	.st3{fill:#A8CA59;}
	.st4{fill:#AACB60;}
	.st5{fill:#D0DF8C;}
	.st6{fill:#2E432D;}
	.st7{fill:#30321E;}
	.st8{fill:#516947;}
	.st9{fill:#6CA65E;}
	.st10{fill:#739155;}
	.st11{fill:#43452F;}
	.st12{fill:#6B7349;}
	.st13{fill:#9B9F52;}
	.st14{fill:#CECB4E;}
	.st15{fill:#A9B153;}
	.st16{fill:#CED654;}
	.st17{fill:#F4EC4D;}
	.st18{fill:#F3EB4C;}
	.st19{fill:#F5F088;}
	.st20{fill:#F8F4A9;}
	.st21{fill:#EED847;}
	.st22{fill:#F0D04D;}
	.st23{fill:#F1D96C;}
	.st24{fill:#F9F5B3;}
	.st25{fill:#FAF9D3;}
	.st26{fill:#BF9E4C;}
	.st27{fill:#BEA46B;}
	.st28{fill:#B9954B;}
	.st29{fill:#F3C845;}
	.st30{fill:#B9A74E;}
	.st31{fill:#E4976F;}
	.st32{fill:#E49785;}
	.st33{fill:#F2CD9E;}
	.st34{fill:#F4CE93;}
	.st35{fill:#FEFAD2;}
	.st36{fill:#E09C6D;}
	.st37{fill:#E49BA8;}
	.st38{fill:#E9CCC5;}
	.st39{fill:#EFC6CA;}
	.st40{fill:#FAEDEF;}
	.st41{fill:#957557;}
	.st42{fill:#C17558;}
	.st43{fill:#E7AB4A;}
	.st44{fill:#ECB167;}
	.st45{fill:#E7A257;}
	.st46{fill:#7B503B;}
	.st47{fill:#B95B44;}
	.st48{fill:#B87447;}
	.st49{fill:#DB7943;}
	.st50{fill:#DD7C54;}
	.st51{fill:#29150F;}
	.st52{fill:#4B271D;}
	.st53{fill:#8C4942;}
	.st54{fill:#B74D44;}
	.st55{fill:#D24A43;}
	.st56{fill:#D55853;}
	.st57{fill:#DA7164;}
	.st58{fill:#E2929B;}
	.st59{fill:#ECC5C6;}
	.st60{fill:#FAECED;}
	.st61{fill:#464E82;}
	.st62{fill:#54538A;}
	.st63{fill:#7165A8;}
	.st64{fill:#9A83BA;}
	.st65{fill:#C6944A;}
	.st66{fill:#3F486D;}
	.st67{fill:#4E62A8;}
	.st68{fill:#606DB0;}
	.st69{fill:#7586C1;}
	.st70{fill:#90A1D2;}
	.st71{fill:#394860;}
	.st72{fill:#4F6C7C;}
	.st73{fill:#6EADA9;}
	.st74{fill:#6CA39A;}
	.st75{fill:#81C0A2;}
	.st76{fill:#3A5450;}
	.st77{fill:#51776E;}
	.st78{fill:#7CBE9E;}
	.st79{fill:#71B26B;}
	.st80{fill:#7FBB70;}
</style>
<g>
	<path d="M122.4,45v-1h11.3v1h-5.1v13.7h-1.1V45H122.4z"/>
	<path d="M136.3,58.7V44h10.5v1h-9.4v5.8h8.4v1h-8.4v5.9h9.5v1H136.3z M139.1,42.6v-1.7h1.5v1.7H139.1z M142.5,42.6v-1.7h1.5v1.7
		H142.5z"/>
	<path d="M149.5,58.7V44h11.4v14.7h-1.1V45h-9.2v13.7H149.5z"/>
	<path d="M162.9,58.5l0.3-0.9c0.4,0.2,0.8,0.3,1.4,0.3c0.2,0,0.4,0,0.5-0.1s0.4-0.1,0.6-0.3c0.2-0.2,0.4-0.4,0.6-0.7
		s0.4-0.7,0.6-1.3s0.4-1.2,0.5-2s0.2-1.7,0.3-2.9s0.1-2.4,0.1-3.9V44h9v14.7h-1.1V45h-6.9v1.8c0,1.5,0,2.8-0.1,4
		c-0.1,1.2-0.2,2.2-0.3,3s-0.3,1.5-0.5,2.1c-0.2,0.6-0.4,1.1-0.7,1.4s-0.5,0.6-0.8,0.8s-0.6,0.3-0.9,0.4s-0.6,0.1-0.9,0.1
		c-0.3,0-0.6,0-0.9-0.1C163.4,58.7,163.1,58.6,162.9,58.5z"/>
	<path d="M179.4,58.7l6.8-14.8h1l6.8,14.8h-1.2l-1.9-4.1h-8.7l-1.9,4.1H179.4z M182.9,53.6h7.8l-3.9-8.5L182.9,53.6z"/>
	<path d="M196,58.7l4.7-6.1c-1.3-0.2-2.3-0.6-3-1.4c-0.7-0.8-1.1-1.7-1.1-3c0-1.2,0.5-2.3,1.4-3.1c1-0.8,2.2-1.2,3.8-1.2h6.2v14.7
		h-1.1v-5.9h-5l-4.5,5.9H196z M197.7,48.4c0,1,0.4,1.9,1.2,2.5c0.8,0.6,1.8,0.9,3.1,0.9h5V45h-5c-1.3,0-2.4,0.3-3.1,0.9
		C198.1,46.5,197.7,47.3,197.7,48.4z"/>
	<path d="M217.6,58.7V44h6.1c1.4,0,2.6,0.3,3.5,1c0.9,0.7,1.3,1.6,1.3,2.7c0,0.5-0.1,0.9-0.2,1.3c-0.1,0.4-0.3,0.7-0.6,1
		c-0.3,0.3-0.5,0.5-0.8,0.7s-0.6,0.3-0.9,0.5c2.2,0.6,3.3,1.8,3.3,3.5c0,1.2-0.5,2.2-1.4,2.9c-1,0.7-2.2,1.1-3.8,1.1H217.6z
		 M218.7,50.8h4.9c1.1,0,2-0.3,2.7-0.8s1-1.3,1-2.3c0-0.8-0.3-1.5-1-2c-0.6-0.5-1.5-0.7-2.7-0.7h-5V50.8z M218.7,57.7h5.3
		c1.3,0,2.3-0.3,3-0.8c0.7-0.5,1.1-1.3,1.1-2.2c0-0.9-0.4-1.6-1.2-2.1c-0.8-0.5-1.9-0.7-3.3-0.7h-5V57.7z"/>
	<path d="M232.2,58.7V44h10.5v1h-9.4v5.8h8.4v1h-8.4v5.9h9.5v1H232.2z"/>
	<path d="M244.6,51.3c0-1.4,0.3-2.6,0.9-3.8c0.6-1.2,1.5-2.1,2.6-2.8c1.1-0.7,2.4-1,3.8-1c0.6,0,1.2,0.1,1.8,0.2s1,0.3,1.5,0.5
		s0.9,0.5,1.2,0.7c0.4,0.3,0.7,0.6,1.2,1l-0.7,0.7c-0.7-0.7-1.5-1.2-2.2-1.6s-1.7-0.6-2.7-0.6c-0.9,0-1.7,0.2-2.5,0.5
		s-1.4,0.8-2,1.4c-0.5,0.6-1,1.3-1.3,2.1c-0.3,0.8-0.5,1.7-0.5,2.6c0,0.9,0.2,1.8,0.5,2.6c0.3,0.8,0.8,1.5,1.3,2.1
		c0.6,0.6,1.2,1.1,2,1.4c0.8,0.3,1.6,0.5,2.4,0.5c1,0,1.9-0.2,2.7-0.6s1.6-1,2.4-1.7l0.7,0.7c-0.9,0.8-1.7,1.5-2.6,1.9
		c-0.9,0.4-2,0.7-3.2,0.7c-1.4,0-2.6-0.3-3.7-1c-1.1-0.7-2-1.6-2.6-2.7C244.9,54,244.6,52.7,244.6,51.3z"/>
	<path d="M260.2,58.7V44h1.1v6.8h9.4V44h1.1v14.7h-1.1v-6.9h-9.4v6.9H260.2z"/>
	<path d="M274.3,58.7l6.8-14.8h1l6.8,14.8h-1.2l-1.9-4.1h-8.7l-1.9,4.1H274.3z M277.7,53.6h7.8l-3.9-8.5L277.7,53.6z"/>
</g>
<g>
	<path class="st0" d="M135.1,67.9v-0.6h6.5v0.6h-2.9v7.8h-0.6v-7.8H135.1z"/>
	<path class="st0" d="M141.8,72.6c0-0.4,0.1-0.9,0.2-1.2s0.3-0.7,0.6-1s0.6-0.5,0.9-0.7s0.7-0.3,1.2-0.3c0.6,0,1.1,0.1,1.5,0.4
		s0.8,0.7,1,1.2s0.3,1,0.3,1.6c0,0.1,0,0.2,0,0.2h-5.1c0.1,0.7,0.3,1.3,0.8,1.8s1,0.7,1.6,0.7c0.8,0,1.5-0.3,2.1-1l0.4,0.4
		c-0.3,0.4-0.7,0.7-1.1,0.9s-0.9,0.3-1.4,0.3c-0.4,0-0.8-0.1-1.1-0.2s-0.7-0.4-1-0.6s-0.5-0.6-0.7-1S141.8,73.1,141.8,72.6z
		 M142.4,72.4h4.5c0-0.3-0.1-0.6-0.2-0.9s-0.2-0.5-0.4-0.8s-0.4-0.4-0.7-0.5S145,70,144.6,70c-0.6,0-1.1,0.2-1.5,0.7
		S142.4,71.7,142.4,72.4z"/>
	<path class="st0" d="M149.2,75.7v-6.1h5.1v6.1h-0.6v-5.6h-3.9v5.6H149.2z"/>
	<path class="st0" d="M155.4,75.7l0.1-0.5c0.2,0.1,0.3,0.1,0.5,0.1c0.1,0,0.2,0,0.3,0s0.2-0.1,0.3-0.2s0.2-0.2,0.3-0.3
		s0.1-0.4,0.2-0.6s0.1-0.6,0.2-1s0.1-0.8,0.1-1.4s0-1.2,0-1.9v-0.3h4.2v6.1H161v-5.6h-3v0.2c0,0.7,0,1.3-0.1,1.9s-0.1,1-0.1,1.4
		c-0.1,0.4-0.1,0.7-0.2,1s-0.2,0.5-0.3,0.6s-0.2,0.3-0.4,0.4s-0.3,0.1-0.4,0.2s-0.3,0-0.5,0C155.9,75.8,155.7,75.8,155.4,75.7z"/>
	<path class="st0" d="M163.8,75.7v-6.1h0.6v2.3h1.8c0.3,0,0.6,0,0.9,0.1s0.5,0.2,0.7,0.3s0.4,0.3,0.5,0.6s0.2,0.5,0.2,0.8
		c0,0.6-0.2,1.1-0.6,1.4s-0.9,0.5-1.6,0.5H163.8z M164.4,75.2h1.8c0.5,0,0.9-0.1,1.2-0.4s0.5-0.6,0.5-1c0-0.4-0.2-0.7-0.5-1
		s-0.7-0.3-1.3-0.3h-1.8V75.2z M169.8,75.7v-6.1h0.6v6.1H169.8z"/>
	<path class="st0" d="M172.6,75.7v-6.1h0.6v5.3l4.1-5.3h0.6v6.1h-0.6v-5.3l-4.1,5.3H172.6z M173.7,67.2l0.5-0.1
		c0.2,0.6,0.5,0.9,1.1,0.9c0.6,0,1-0.3,1.1-0.9l0.5,0.1c-0.1,0.4-0.3,0.7-0.6,1s-0.7,0.4-1.1,0.4s-0.8-0.1-1.1-0.4
		S173.7,67.6,173.7,67.2z"/>
	<path class="st0" d="M183.3,75.7l1.9-2.4c-0.5-0.1-0.9-0.3-1.3-0.6c-0.3-0.3-0.5-0.7-0.5-1.2c0-0.5,0.2-1,0.6-1.3s0.9-0.5,1.6-0.5
		h2.7v6.1h-0.6v-2.3h-2l-1.8,2.3H183.3z M184.1,71.4c0,0.4,0.2,0.8,0.5,1s0.7,0.4,1.2,0.4h2v-2.7h-2.1c-0.5,0-0.9,0.1-1.2,0.4
		S184.1,71,184.1,71.4z"/>
	<path class="st0" d="M190.6,77.6v-8h0.6v1.4c0.7-1,1.5-1.5,2.5-1.5c0.4,0,0.7,0.1,1.1,0.2s0.7,0.4,1,0.6s0.5,0.6,0.7,1
		s0.3,0.9,0.3,1.3c0,0.5-0.1,0.9-0.3,1.3s-0.4,0.7-0.7,1s-0.6,0.5-1,0.6s-0.7,0.2-1.1,0.2c-1,0-1.9-0.5-2.5-1.5v3.2H190.6z
		 M191.2,72.7c0,0.5,0.1,1,0.4,1.4s0.5,0.7,0.9,0.9s0.8,0.3,1.2,0.3c0.7,0,1.3-0.2,1.7-0.7s0.7-1.1,0.7-1.9c0-0.4-0.1-0.8-0.2-1.1
		s-0.3-0.6-0.5-0.8s-0.5-0.4-0.8-0.5S194,70,193.7,70c-0.3,0-0.6,0.1-0.9,0.2s-0.6,0.3-0.8,0.5s-0.4,0.5-0.6,0.8
		S191.2,72.3,191.2,72.7z"/>
	<path class="st0" d="M198.6,75.7v-6.1h0.6v3.9l3.8-3.9h0.8l-2.7,2.7l2.8,3.4h-0.7l-2.4-3l-1.5,1.5v1.5H198.6z"/>
	<path class="st0" d="M205.2,75.7v-6.1h0.6v5.3l4.1-5.3h0.6v6.1H210v-5.3l-4.1,5.3H205.2z"/>
	<path class="st0" d="M212.8,75.7v-6.1h0.6v5.3l4.1-5.3h0.6v6.1h-0.6v-5.3l-4.1,5.3H212.8z M213.8,67.2l0.5-0.1
		c0.2,0.6,0.5,0.9,1.1,0.9c0.6,0,1-0.3,1.1-0.9l0.5,0.1c-0.1,0.4-0.3,0.7-0.6,1s-0.7,0.4-1.1,0.4s-0.8-0.1-1.1-0.4
		S213.9,67.6,213.8,67.2z"/>
	<path class="st0" d="M223.9,75.7v-6.1h0.6v3.9l3.8-3.9h0.8l-2.7,2.7l2.8,3.4h-0.7l-2.4-3l-1.5,1.5v1.5H223.9z"/>
	<path class="st0" d="M230,72.6c0-0.4,0.1-0.8,0.2-1.2s0.4-0.7,0.7-1s0.6-0.5,1-0.7s0.8-0.3,1.3-0.3c0.6,0,1.1,0.1,1.6,0.4
		s0.9,0.7,1.1,1.2s0.4,1,0.4,1.6c0,0.6-0.1,1.1-0.4,1.6s-0.6,0.9-1.1,1.2s-1,0.4-1.6,0.4c-0.4,0-0.9-0.1-1.2-0.3s-0.7-0.4-1-0.7
		s-0.5-0.6-0.6-1S230,73.1,230,72.6z M230.6,72.6c0,0.7,0.2,1.4,0.7,1.9s1.1,0.8,1.8,0.8c0.4,0,0.9-0.1,1.2-0.4s0.7-0.6,0.9-1
		s0.3-0.8,0.3-1.3c0-0.7-0.2-1.4-0.7-1.9s-1.1-0.8-1.8-0.8c-0.5,0-0.9,0.1-1.3,0.4s-0.7,0.6-0.9,1S230.6,72.2,230.6,72.6z"/>
	<path class="st0" d="M236.7,75.7l0.1-0.5c0.2,0.1,0.3,0.1,0.5,0.1c0.1,0,0.2,0,0.3,0s0.2-0.1,0.3-0.2s0.2-0.2,0.3-0.3
		s0.1-0.4,0.2-0.6s0.1-0.6,0.2-1s0.1-0.8,0.1-1.4s0-1.2,0-1.9v-0.3h4.2v6.1h-0.6v-5.6h-3v0.2c0,0.7,0,1.3-0.1,1.9s-0.1,1-0.1,1.4
		c-0.1,0.4-0.1,0.7-0.2,1c-0.1,0.3-0.2,0.5-0.3,0.6c-0.1,0.2-0.2,0.3-0.4,0.4s-0.3,0.1-0.4,0.2s-0.3,0-0.5,0
		C237.2,75.8,237,75.8,236.7,75.7z"/>
	<path class="st0" d="M244.7,72.6c0-0.4,0.1-0.8,0.2-1.2s0.4-0.7,0.7-1s0.6-0.5,1-0.7s0.8-0.3,1.3-0.3c0.6,0,1.1,0.1,1.6,0.4
		s0.9,0.7,1.1,1.2s0.4,1,0.4,1.6c0,0.6-0.1,1.1-0.4,1.6s-0.6,0.9-1.1,1.2s-1,0.4-1.6,0.4c-0.4,0-0.9-0.1-1.2-0.3s-0.7-0.4-1-0.7
		s-0.5-0.6-0.6-1S244.7,73.1,244.7,72.6z M245.3,72.6c0,0.7,0.2,1.4,0.7,1.9s1.1,0.8,1.8,0.8c0.4,0,0.9-0.1,1.2-0.4s0.7-0.6,0.9-1
		s0.3-0.8,0.3-1.3c0-0.7-0.2-1.4-0.7-1.9s-1.1-0.8-1.8-0.8c-0.5,0-0.9,0.1-1.3,0.4s-0.7,0.6-0.9,1S245.3,72.2,245.3,72.6z"/>
	<path class="st0" d="M252.8,77.6v-8h0.6v1.4c0.7-1,1.5-1.5,2.5-1.5c0.4,0,0.7,0.1,1.1,0.2s0.7,0.4,1,0.6s0.5,0.6,0.7,1
		s0.3,0.9,0.3,1.3c0,0.5-0.1,0.9-0.3,1.3s-0.4,0.7-0.7,1s-0.6,0.5-1,0.6s-0.7,0.2-1.1,0.2c-1,0-1.9-0.5-2.5-1.5v3.2H252.8z
		 M253.4,72.7c0,0.5,0.1,1,0.4,1.4s0.5,0.7,0.9,0.9s0.8,0.3,1.2,0.3c0.7,0,1.3-0.2,1.7-0.7s0.7-1.1,0.7-1.9c0-0.4-0.1-0.8-0.2-1.1
		s-0.3-0.6-0.5-0.8s-0.5-0.4-0.8-0.5s-0.6-0.2-0.9-0.2c-0.3,0-0.6,0.1-0.9,0.2s-0.6,0.3-0.8,0.5s-0.4,0.5-0.6,0.8
		S253.4,72.3,253.4,72.7z"/>
	<path class="st0" d="M260.7,75.7v-6.1h0.6v5.3l4.1-5.3h0.6v6.1h-0.6v-5.3l-4.1,5.3H260.7z"/>
	<path class="st0" d="M267.5,70.1v-0.5h5.2v0.5h-2.3v5.6h-0.6v-5.6H267.5z"/>
</g>
<rect x="41.2" y="102" class="st1" width="65.8" height="27.3"/>
<rect x="106.9" y="102" class="st2" width="65.8" height="27.3"/>
<rect x="172.7" y="102" class="st3" width="65.8" height="27.3"/>
<rect x="238.4" y="102" class="st4" width="65.8" height="27.3"/>
<rect x="304.2" y="102" class="st5" width="65.8" height="27.3"/>
<rect x="41.2" y="129.3" class="st6" width="65.8" height="27.3"/>
<rect x="106.9" y="129.3" class="st7" width="65.8" height="27.3"/>
<rect x="172.7" y="129.3" class="st8" width="65.8" height="27.3"/>
<rect x="238.4" y="129.3" class="st9" width="65.8" height="27.3"/>
<rect x="304.2" y="129.3" class="st10" width="65.8" height="27.3"/>
<rect x="41.2" y="156.6" class="st11" width="65.8" height="27.3"/>
<rect x="106.9" y="156.6" class="st12" width="65.8" height="27.3"/>
<rect x="172.7" y="156.6" class="st13" width="65.8" height="27.3"/>
<rect x="238.4" y="156.6" class="st14" width="65.8" height="27.3"/>
<rect x="304.2" y="156.6" class="st15" width="65.8" height="27.3"/>
<rect x="41.2" y="183.9" class="st16" width="65.8" height="27.3"/>
<rect x="106.9" y="183.9" class="st17" width="65.8" height="27.3"/>
<rect x="172.7" y="183.9" class="st18" width="65.8" height="27.3"/>
<rect x="238.4" y="183.9" class="st19" width="65.8" height="27.3"/>
<rect x="304.2" y="183.9" class="st20" width="65.8" height="27.3"/>
<rect x="41.2" y="211.2" class="st21" width="65.8" height="27.3"/>
<rect x="106.9" y="211.2" class="st22" width="65.8" height="27.3"/>
<rect x="172.7" y="211.2" class="st23" width="65.8" height="27.3"/>
<rect x="238.4" y="211.2" class="st24" width="65.8" height="27.3"/>
<rect x="304.2" y="211.2" class="st25" width="65.8" height="27.3"/>
<rect x="41.2" y="238.5" class="st26" width="65.8" height="27.3"/>
<rect x="106.9" y="238.5" class="st27" width="65.8" height="27.3"/>
<rect x="172.7" y="238.5" class="st28" width="65.8" height="27.3"/>
<rect x="238.4" y="238.5" class="st29" width="65.8" height="27.3"/>
<rect x="304.2" y="238.5" class="st30" width="65.8" height="27.3"/>
<rect x="41.2" y="265.7" class="st31" width="65.8" height="27.3"/>
<rect x="106.9" y="265.7" class="st32" width="65.8" height="27.3"/>
<rect x="172.7" y="265.7" class="st33" width="65.8" height="27.3"/>
<rect x="238.4" y="265.7" class="st34" width="65.8" height="27.3"/>
<rect x="304.2" y="265.7" class="st35" width="65.8" height="27.3"/>
<rect x="41.2" y="293" class="st36" width="65.8" height="27.3"/>
<rect x="106.9" y="293" class="st37" width="65.8" height="27.3"/>
<rect x="172.7" y="293" class="st38" width="65.8" height="27.3"/>
<rect x="238.4" y="293" class="st39" width="65.8" height="27.3"/>
<rect x="304.2" y="293" class="st40" width="65.8" height="27.3"/>
<rect x="41.2" y="320.3" class="st41" width="65.8" height="27.3"/>
<rect x="106.9" y="320.3" class="st42" width="65.8" height="27.3"/>
<rect x="172.7" y="320.3" class="st43" width="65.8" height="27.3"/>
<rect x="238.4" y="320.3" class="st44" width="65.8" height="27.3"/>
<rect x="304.2" y="320.3" class="st45" width="65.8" height="27.3"/>
<rect x="41.2" y="347.6" class="st46" width="65.8" height="27.3"/>
<rect x="106.9" y="347.6" class="st47" width="65.8" height="27.3"/>
<rect x="172.7" y="347.6" class="st48" width="65.8" height="27.3"/>
<rect x="238.4" y="347.6" class="st49" width="65.8" height="27.3"/>
<rect x="304.2" y="347.6" class="st50" width="65.8" height="27.3"/>
<rect x="41.2" y="374.9" class="st51" width="65.8" height="27.3"/>
<rect x="106.9" y="374.9" class="st52" width="65.8" height="27.3"/>
<rect x="172.7" y="374.9" class="st53" width="65.8" height="27.3"/>
<rect x="238.4" y="374.9" class="st54" width="65.8" height="27.3"/>
<rect x="304.2" y="374.9" class="st55" width="65.8" height="27.3"/>
<rect x="41.2" y="402.2" class="st56" width="65.8" height="27.3"/>
<rect x="106.9" y="402.2" class="st57" width="65.8" height="27.3"/>
<rect x="172.7" y="402.2" class="st58" width="65.8" height="27.3"/>
<rect x="238.4" y="402.2" class="st59" width="65.8" height="27.3"/>
<rect x="304.2" y="402.2" class="st60" width="65.8" height="27.3"/>
<rect x="41.2" y="429.4" class="st61" width="65.8" height="27.3"/>
<rect x="106.9" y="429.4" class="st62" width="65.8" height="27.3"/>
<rect x="172.7" y="429.4" class="st63" width="65.8" height="27.3"/>
<rect x="238.4" y="429.4" class="st64" width="65.8" height="27.3"/>
<rect x="304.2" y="429.4" class="st65" width="65.8" height="27.3"/>
<rect x="41.2" y="456.7" class="st66" width="65.8" height="27.3"/>
<rect x="106.9" y="456.7" class="st67" width="65.8" height="27.3"/>
<rect x="172.7" y="456.7" class="st68" width="65.8" height="27.3"/>
<rect x="238.4" y="456.7" class="st69" width="65.8" height="27.3"/>
<rect x="304.2" y="456.7" class="st70" width="65.8" height="27.3"/>
<rect x="41.2" y="484" class="st71" width="65.8" height="27.3"/>
<rect x="106.9" y="484" class="st72" width="65.8" height="27.3"/>
<rect x="172.7" y="484" class="st73" width="65.8" height="27.3"/>
<rect x="238.4" y="484" class="st74" width="65.8" height="27.3"/>
<rect x="304.2" y="484" class="st75" width="65.8" height="27.3"/>
<rect x="41.2" y="511.3" class="st76" width="65.8" height="27.3"/>
<rect x="106.9" y="511.3" class="st77" width="65.8" height="27.3"/>
<rect x="172.7" y="511.3" class="st78" width="65.8" height="27.3"/>
<rect x="238.4" y="511.3" class="st79" width="65.8" height="27.3"/>
<rect x="304.2" y="511.3" class="st80" width="65.8" height="27.3"/>
</svg>
