<?xml version="1.0" encoding="utf-8"?>
<!-- Generator: Adobe Illustrator 22.1.0, SVG Export Plug-In . SVG Version: 6.00 Build 0)  -->
<svg version="1.1" id="Layer_1" xmlns="http://www.w3.org/2000/svg" xmlns:xlink="http://www.w3.org/1999/xlink" x="0px" y="0px"
	 viewBox="0 0 420.9 595.3" style="enable-background:new 0 0 420.9 595.3;" xml:space="preserve">
<style type="text/css">
	.st0{fill:#6B6966;}
	.st1{fill:#9D5F77;}
	.st2{fill:#C8698C;}
	.st3{fill:#DE80A7;}
	.st4{fill:#E294B5;}
	.st5{fill:#E1A2B2;}
	.st6{fill:#B75461;}
	.st7{fill:#D26170;}
	.st8{fill:#D9697D;}
	.st9{fill:#DC798E;}
	.st10{fill:#E18E9C;}
	.st11{fill:#AD4C43;}
	.st12{fill:#C85960;}
	.st13{fill:#DB737E;}
	.st14{fill:#D7666C;}
	.st15{fill:#DB737C;}
	.st16{fill:#EFCC7C;}
	.st17{fill:#F5D98A;}
	.st18{fill:#EBD889;}
	.st19{fill:#E5D19D;}
	.st20{fill:#F8F4AB;}
	.st21{fill:#453941;}
	.st22{fill:#4E474A;}
	.st23{fill:#5B5355;}
	.st24{fill:#84757A;}
	.st25{fill:#BDB7B1;}
	.st26{fill:#5B5D8E;}
	.st27{fill:#6F69A8;}
	.st28{fill:#8F80BA;}
	.st29{fill:#C5934A;}
	.st30{fill:#9D9D9F;}
	.st31{fill:#495A87;}
	.st32{fill:#586CA5;}
	.st33{fill:#687AB9;}
	.st34{fill:#8293CA;}
	.st35{fill:#96A6D6;}
	.st36{fill:#4E658F;}
	.st37{fill:#5570A8;}
	.st38{fill:#6990CC;}
	.st39{fill:#84B3E4;}
	.st40{fill:#95C8EB;}
	.st41{fill:#5C8290;}
	.st42{fill:#689DA5;}
	.st43{fill:#75BEBE;}
	.st44{fill:#72B5C5;}
	.st45{fill:#8DCADB;}
	.st46{fill:#567D75;}
	.st47{fill:#72B9A7;}
	.st48{fill:#7CC0B9;}
	.st49{fill:#78BDA1;}
	.st50{fill:#96C9AD;}
	.st51{fill:#43604F;}
	.st52{fill:#66A278;}
	.st53{fill:#69A684;}
	.st54{fill:#79BB90;}
	.st55{fill:#5B6873;}
	.st56{fill:#81919C;}
	.st57{fill:#6C7072;}
	.st58{fill:#878E8F;}
	.st59{fill:#ABAFB1;}
	.st60{fill:#7A7876;}
	.st61{fill:#9C978F;}
	.st62{fill:#B9B7AC;}
	.st63{fill:#D3CEBC;}
	.st64{fill:#E2E0D3;}
</style>
<g>
	<path d="M124.3,51.3c0-1.4,0.3-2.6,0.9-3.8c0.6-1.2,1.5-2.1,2.6-2.8c1.1-0.7,2.4-1,3.8-1c0.6,0,1.2,0.1,1.8,0.2s1,0.3,1.5,0.5
		s0.9,0.5,1.2,0.7c0.4,0.3,0.7,0.6,1.2,1l-0.7,0.7c-0.7-0.7-1.5-1.2-2.2-1.6s-1.7-0.6-2.7-0.6c-0.9,0-1.7,0.2-2.5,0.5
		s-1.4,0.8-2,1.4c-0.5,0.6-1,1.3-1.3,2.1c-0.3,0.8-0.5,1.7-0.5,2.6c0,0.9,0.2,1.8,0.5,2.6c0.3,0.8,0.8,1.5,1.3,2.1s1.2,1.1,2,1.4
		c0.8,0.3,1.6,0.5,2.4,0.5c1,0,1.9-0.2,2.7-0.6s1.6-1,2.4-1.7l0.7,0.7c-0.9,0.8-1.7,1.5-2.6,1.9c-0.9,0.4-2,0.7-3.2,0.7
		c-1.4,0-2.6-0.3-3.7-1c-1.1-0.7-2-1.6-2.6-2.7C124.6,54,124.3,52.7,124.3,51.3z"/>
	<path d="M139.9,58.7V44h6.1c1.4,0,2.6,0.3,3.5,1s1.3,1.6,1.3,2.7c0,0.5-0.1,0.9-0.2,1.3s-0.3,0.7-0.6,1c-0.3,0.3-0.5,0.5-0.8,0.7
		s-0.6,0.3-0.9,0.5c2.2,0.6,3.3,1.8,3.3,3.5c0,1.2-0.5,2.2-1.4,2.9c-1,0.7-2.2,1.1-3.8,1.1H139.9z M141,50.8h4.9
		c1.1,0,2-0.3,2.7-0.8s1-1.3,1-2.3c0-0.8-0.3-1.5-1-2c-0.6-0.5-1.5-0.7-2.7-0.7h-5V50.8z M141,57.7h5.3c1.3,0,2.3-0.3,3-0.8
		c0.7-0.5,1.1-1.3,1.1-2.2c0-0.9-0.4-1.6-1.2-2.1c-0.8-0.5-1.9-0.7-3.3-0.7h-5V57.7z"/>
	<path d="M154.5,58.7V44h10.5v1h-9.4v5.8h8.4v1h-8.4v5.9h9.5v1H154.5z"/>
	<path d="M167.1,45v-1h11.3v1h-5.1v13.7h-1.1V45H167.1z"/>
	<path d="M177.5,58.5l0.3-0.9c0.4,0.2,0.8,0.3,1.4,0.3c0.2,0,0.4,0,0.5-0.1s0.4-0.1,0.6-0.3c0.2-0.2,0.4-0.4,0.6-0.7
		s0.4-0.7,0.6-1.3s0.4-1.2,0.5-2s0.2-1.7,0.3-2.9s0.1-2.4,0.1-3.9V44h9v14.7h-1.1V45h-6.9v1.8c0,1.5,0,2.8-0.1,4
		c-0.1,1.2-0.2,2.2-0.3,3s-0.3,1.5-0.5,2.1c-0.2,0.6-0.4,1.1-0.7,1.4s-0.5,0.6-0.8,0.8s-0.6,0.3-0.9,0.4s-0.6,0.1-0.9,0.1
		c-0.3,0-0.6,0-0.9-0.1C178,58.7,177.7,58.6,177.5,58.5z"/>
	<path d="M194.5,51.3c0-1,0.2-2,0.5-2.9c0.4-0.9,0.9-1.7,1.5-2.4c0.6-0.7,1.4-1.3,2.4-1.7s1.9-0.6,3-0.6c1.1,0,2.1,0.2,3,0.6
		c0.9,0.4,1.7,1,2.3,1.7c0.6,0.7,1.1,1.5,1.5,2.4c0.4,0.9,0.5,1.9,0.5,2.9c0,1-0.2,2-0.5,2.9c-0.4,0.9-0.9,1.7-1.5,2.4
		c-0.6,0.7-1.4,1.3-2.4,1.7c-0.9,0.4-1.9,0.6-3,0.6c-1.1,0-2.1-0.2-3-0.6c-0.9-0.4-1.7-1-2.3-1.7c-0.6-0.7-1.1-1.5-1.5-2.4
		S194.5,52.4,194.5,51.3z M195.6,51.3c0,1.2,0.3,2.3,0.8,3.3c0.5,1,1.3,1.8,2.3,2.4s2,0.9,3.2,0.9s2.3-0.3,3.2-0.9
		c1-0.6,1.7-1.4,2.2-2.4c0.5-1,0.8-2.1,0.8-3.3c0-0.9-0.2-1.8-0.5-2.6c-0.3-0.8-0.8-1.5-1.3-2.1c-0.6-0.6-1.2-1.1-2-1.4
		c-0.8-0.4-1.6-0.5-2.5-0.5c-1.2,0-2.3,0.3-3.2,0.9c-1,0.6-1.7,1.4-2.2,2.4C195.9,49,195.6,50.1,195.6,51.3z"/>
	<path d="M212.3,58.7V44h10.5v1h-9.4v5.8h8.4v1h-8.4v5.9h9.5v1H212.3z"/>
	<path d="M229.4,58.5l0.3-0.9c0.4,0.2,0.8,0.3,1.4,0.3c0.2,0,0.4,0,0.5-0.1s0.4-0.1,0.6-0.3c0.2-0.2,0.4-0.4,0.6-0.7
		c0.2-0.3,0.4-0.7,0.6-1.3s0.4-1.2,0.5-2c0.1-0.8,0.2-1.7,0.3-2.9s0.1-2.4,0.1-3.9V44h9v14.7h-1.1V45h-6.9v1.8c0,1.5,0,2.8-0.1,4
		c-0.1,1.2-0.2,2.2-0.3,3s-0.3,1.5-0.5,2.1c-0.2,0.6-0.4,1.1-0.7,1.4c-0.2,0.4-0.5,0.6-0.8,0.8c-0.3,0.2-0.6,0.3-0.9,0.4
		c-0.3,0.1-0.6,0.1-0.9,0.1c-0.3,0-0.6,0-0.9-0.1C229.9,58.7,229.6,58.6,229.4,58.5z"/>
	<path d="M247.2,58.7V44h10.5v1h-9.4v5.8h8.4v1h-8.4v5.9h9.5v1H247.2z"/>
	<path d="M259.8,45v-1h11.3v1H266v13.7h-1.1V45H259.8z"/>
	<path d="M272.1,51.3c0-1,0.2-2,0.5-2.9c0.4-0.9,0.9-1.7,1.5-2.4c0.6-0.7,1.4-1.3,2.4-1.7s1.9-0.6,3-0.6c1.1,0,2.1,0.2,3,0.6
		c0.9,0.4,1.7,1,2.3,1.7c0.6,0.7,1.1,1.5,1.5,2.4c0.4,0.9,0.5,1.9,0.5,2.9c0,1-0.2,2-0.5,2.9c-0.4,0.9-0.9,1.7-1.5,2.4
		c-0.6,0.7-1.4,1.3-2.4,1.7c-0.9,0.4-1.9,0.6-3,0.6c-1.1,0-2.1-0.2-3-0.6c-0.9-0.4-1.7-1-2.3-1.7c-0.6-0.7-1.1-1.5-1.5-2.4
		S272.1,52.4,272.1,51.3z M273.2,51.3c0,1.2,0.3,2.3,0.8,3.3c0.5,1,1.3,1.8,2.3,2.4s2,0.9,3.2,0.9s2.3-0.3,3.2-0.9
		c1-0.6,1.7-1.4,2.2-2.4c0.5-1,0.8-2.1,0.8-3.3c0-0.9-0.2-1.8-0.5-2.6c-0.3-0.8-0.8-1.5-1.3-2.1c-0.6-0.6-1.2-1.1-2-1.4
		c-0.8-0.4-1.6-0.5-2.5-0.5c-1.2,0-2.3,0.3-3.2,0.9c-1,0.6-1.7,1.4-2.2,2.4C273.4,49,273.2,50.1,273.2,51.3z"/>
</g>
<g>
	<path class="st0" d="M121.9,71.5c0-0.8,0.2-1.5,0.5-2.2s0.9-1.2,1.5-1.6s1.4-0.6,2.2-0.6c0.4,0,0.7,0,1,0.1s0.6,0.2,0.9,0.3
		s0.5,0.3,0.7,0.4s0.4,0.3,0.7,0.6l-0.4,0.4c-0.4-0.4-0.8-0.7-1.3-0.9s-1-0.3-1.6-0.3c-0.5,0-1,0.1-1.4,0.3s-0.8,0.5-1.1,0.8
		s-0.6,0.7-0.7,1.2s-0.3,1-0.3,1.5c0,0.5,0.1,1,0.3,1.5s0.4,0.9,0.7,1.2s0.7,0.6,1.1,0.8s0.9,0.3,1.4,0.3c0.6,0,1.1-0.1,1.5-0.3
		s0.9-0.5,1.3-1l0.4,0.4c-0.5,0.5-1,0.8-1.5,1.1s-1.1,0.4-1.8,0.4c-0.8,0-1.5-0.2-2.1-0.6s-1.1-0.9-1.5-1.6S121.9,72.3,121.9,71.5z"
		/>
	<path class="st0" d="M131,75.7v-6.1h2.8c0.6,0,1.1,0.1,1.4,0.4s0.5,0.6,0.5,1.1c0,0.6-0.3,1.1-1,1.4c0.4,0.1,0.7,0.3,1,0.5
		c0.3,0.3,0.4,0.6,0.4,1c0,0.5-0.2,0.9-0.6,1.2s-0.9,0.5-1.6,0.5H131z M131.6,72.3h2.1c0.4,0,0.8-0.1,1.1-0.3s0.4-0.5,0.4-0.9
		c0-0.3-0.1-0.6-0.4-0.7s-0.6-0.3-1.1-0.3h-2.2V72.3z M131.6,75.2h2.3c0.5,0,0.9-0.1,1.2-0.3s0.4-0.5,0.4-0.9c0-0.4-0.2-0.6-0.5-0.8
		s-0.8-0.3-1.3-0.3h-2.1V75.2z"/>
	<path class="st0" d="M137.5,72.6c0-0.4,0.1-0.9,0.2-1.2s0.3-0.7,0.6-1s0.6-0.5,0.9-0.7s0.7-0.3,1.2-0.3c0.6,0,1.1,0.1,1.5,0.4
		s0.8,0.7,1,1.2s0.3,1,0.3,1.6c0,0.1,0,0.2,0,0.2h-5.1c0.1,0.7,0.3,1.3,0.8,1.8s1,0.7,1.6,0.7c0.8,0,1.5-0.3,2.1-1l0.4,0.4
		c-0.3,0.4-0.7,0.7-1.1,0.9s-0.9,0.3-1.4,0.3c-0.4,0-0.8-0.1-1.1-0.2s-0.7-0.4-1-0.6s-0.5-0.6-0.7-1S137.5,73.1,137.5,72.6z
		 M138.1,72.4h4.5c0-0.3-0.1-0.6-0.2-0.9s-0.2-0.5-0.4-0.8s-0.4-0.4-0.7-0.5s-0.6-0.2-0.9-0.2c-0.6,0-1.1,0.2-1.5,0.7
		S138.2,71.7,138.1,72.4z"/>
	<path class="st0" d="M143.9,70.1v-0.5h5.2v0.5h-2.3v5.6h-0.6v-5.6H143.9z"/>
	<path class="st0" d="M149.3,75.7l0.1-0.5c0.2,0.1,0.3,0.1,0.5,0.1c0.1,0,0.2,0,0.3,0s0.2-0.1,0.3-0.2s0.2-0.2,0.3-0.3
		s0.1-0.4,0.2-0.6s0.1-0.6,0.2-1s0.1-0.8,0.1-1.4s0-1.2,0-1.9v-0.3h4.2v6.1h-0.6v-5.6h-3v0.2c0,0.7,0,1.3-0.1,1.9s-0.1,1-0.1,1.4
		c-0.1,0.4-0.1,0.7-0.2,1s-0.2,0.5-0.3,0.6s-0.2,0.3-0.4,0.4s-0.3,0.1-0.4,0.2s-0.3,0-0.5,0C149.7,75.8,149.5,75.8,149.3,75.7z"/>
	<path class="st0" d="M157.7,75.7v-6.1h0.6v2.3h1.8c0.3,0,0.6,0,0.9,0.1s0.5,0.2,0.7,0.3s0.4,0.3,0.5,0.6s0.2,0.5,0.2,0.8
		c0,0.6-0.2,1.1-0.6,1.4s-0.9,0.5-1.6,0.5H157.7z M158.3,75.2h1.8c0.5,0,0.9-0.1,1.2-0.4s0.5-0.6,0.5-1c0-0.4-0.2-0.7-0.5-1
		s-0.7-0.3-1.3-0.3h-1.8V75.2z M163.6,75.7v-6.1h0.6v6.1H163.6z"/>
	<path class="st0" d="M166.5,75.7v-6.1h0.6v5.3l4.1-5.3h0.6v6.1h-0.6v-5.3l-4.1,5.3H166.5z M167.5,67.2l0.5-0.1
		c0.2,0.6,0.5,0.9,1.1,0.9c0.6,0,1-0.3,1.1-0.9l0.5,0.1c-0.1,0.4-0.3,0.7-0.6,1s-0.7,0.4-1.1,0.4s-0.8-0.1-1.1-0.4
		S167.6,67.6,167.5,67.2z"/>
	<path class="st0" d="M177,75.7l2.5-3.1l-2.4-3h0.7l2.1,2.6l2.1-2.6h0.7l-2.4,3l2.5,3.1h-0.7l-2.2-2.7l-2.2,2.7H177z"/>
	<path class="st0" d="M183.7,72.6c0-0.4,0.1-0.8,0.2-1.2s0.4-0.7,0.7-1s0.6-0.5,1-0.7s0.8-0.3,1.3-0.3c0.6,0,1.1,0.1,1.6,0.4
		s0.9,0.7,1.1,1.2s0.4,1,0.4,1.6c0,0.6-0.1,1.1-0.4,1.6s-0.6,0.9-1.1,1.2s-1,0.4-1.6,0.4c-0.4,0-0.9-0.1-1.2-0.3s-0.7-0.4-1-0.7
		s-0.5-0.6-0.6-1S183.7,73.1,183.7,72.6z M184.3,72.6c0,0.7,0.2,1.4,0.7,1.9s1.1,0.8,1.8,0.8c0.4,0,0.9-0.1,1.2-0.4s0.7-0.6,0.9-1
		s0.3-0.8,0.3-1.3c0-0.7-0.2-1.4-0.7-1.9s-1.1-0.8-1.8-0.8c-0.5,0-0.9,0.1-1.3,0.4s-0.7,0.6-0.9,1S184.3,72.2,184.3,72.6z"/>
	<path class="st0" d="M190.5,75.7l0.1-0.5c0.2,0.1,0.3,0.1,0.5,0.1c0.1,0,0.2,0,0.3,0s0.2-0.1,0.3-0.2s0.2-0.2,0.3-0.3
		s0.1-0.4,0.2-0.6s0.1-0.6,0.2-1s0.1-0.8,0.1-1.4s0-1.2,0-1.9v-0.3h4.2v6.1H196v-5.6h-3v0.2c0,0.7,0,1.3-0.1,1.9s-0.1,1-0.1,1.4
		c-0.1,0.4-0.1,0.7-0.2,1c-0.1,0.3-0.2,0.5-0.3,0.6c-0.1,0.2-0.2,0.3-0.4,0.4s-0.3,0.1-0.4,0.2s-0.3,0-0.5,0
		C190.9,75.8,190.7,75.8,190.5,75.7z"/>
	<path class="st0" d="M198.4,72.6c0-0.4,0.1-0.8,0.2-1.2s0.4-0.7,0.7-1s0.6-0.5,1-0.7s0.8-0.3,1.3-0.3c0.6,0,1.1,0.1,1.6,0.4
		s0.9,0.7,1.1,1.2s0.4,1,0.4,1.6c0,0.6-0.1,1.1-0.4,1.6s-0.6,0.9-1.1,1.2s-1,0.4-1.6,0.4c-0.4,0-0.9-0.1-1.2-0.3s-0.7-0.4-1-0.7
		s-0.5-0.6-0.6-1S198.4,73.1,198.4,72.6z M199.1,72.6c0,0.7,0.2,1.4,0.7,1.9s1.1,0.8,1.8,0.8c0.4,0,0.9-0.1,1.2-0.4s0.7-0.6,0.9-1
		s0.3-0.8,0.3-1.3c0-0.7-0.2-1.4-0.7-1.9s-1.1-0.8-1.8-0.8c-0.5,0-0.9,0.1-1.3,0.4s-0.7,0.6-0.9,1S199.1,72.2,199.1,72.6z"/>
	<path class="st0" d="M205.3,75.2h0.8c0.6-1,0.9-2.4,0.9-4.3v-1.3h4.1v5.6h1l-0.1,2.3h-0.5v-1.7h-5.6l-0.1,1.7h-0.5V75.2z
		 M206.8,75.2h3.8v-5.1h-2.9v1.1c0,0.8-0.1,1.6-0.2,2.3S207,74.8,206.8,75.2z"/>
	<path class="st0" d="M213.6,75.7v-6.1h0.6v2.7h4.1v-2.7h0.6v6.1h-0.6v-2.9h-4.1v2.9H213.6z"/>
	<path class="st0" d="M221.1,75.7v-6.1h0.6v2.3h1.8c0.3,0,0.6,0,0.9,0.1s0.5,0.2,0.7,0.3s0.4,0.3,0.5,0.6s0.2,0.5,0.2,0.8
		c0,0.6-0.2,1.1-0.6,1.4s-0.9,0.5-1.6,0.5H221.1z M221.7,75.2h1.8c0.5,0,0.9-0.1,1.2-0.4s0.5-0.6,0.5-1c0-0.4-0.2-0.7-0.5-1
		s-0.7-0.3-1.3-0.3h-1.8V75.2z M227,75.7v-6.1h0.6v6.1H227z"/>
	<path class="st0" d="M229.9,75.7v-6.1h0.6v5.3l4.1-5.3h0.6v6.1h-0.6v-5.3l-4.1,5.3H229.9z M230.9,67.2l0.5-0.1
		c0.2,0.6,0.5,0.9,1.1,0.9c0.6,0,1-0.3,1.1-0.9l0.5,0.1c-0.1,0.4-0.3,0.7-0.6,1s-0.7,0.4-1.1,0.4s-0.8-0.1-1.1-0.4
		S231,67.6,230.9,67.2z"/>
	<path class="st0" d="M241,75.7v-6.1h0.6v3.9l3.8-3.9h0.8l-2.7,2.7l2.8,3.4h-0.7l-2.4-3l-1.5,1.5v1.5H241z"/>
	<path class="st0" d="M247,72.6c0-0.4,0.1-0.8,0.2-1.2s0.4-0.7,0.7-1s0.6-0.5,1-0.7s0.8-0.3,1.3-0.3c0.6,0,1.1,0.1,1.6,0.4
		s0.9,0.7,1.1,1.2s0.4,1,0.4,1.6c0,0.6-0.1,1.1-0.4,1.6s-0.6,0.9-1.1,1.2s-1,0.4-1.6,0.4c-0.4,0-0.9-0.1-1.2-0.3s-0.7-0.4-1-0.7
		s-0.5-0.6-0.6-1S247,73.1,247,72.6z M247.7,72.6c0,0.7,0.2,1.4,0.7,1.9s1.1,0.8,1.8,0.8c0.4,0,0.9-0.1,1.2-0.4s0.7-0.6,0.9-1
		s0.3-0.8,0.3-1.3c0-0.7-0.2-1.4-0.7-1.9s-1.1-0.8-1.8-0.8c-0.5,0-0.9,0.1-1.3,0.4s-0.7,0.6-0.9,1S247.7,72.2,247.7,72.6z"/>
	<path class="st0" d="M253.8,75.7l0.1-0.5c0.2,0.1,0.3,0.1,0.5,0.1c0.1,0,0.2,0,0.3,0s0.2-0.1,0.3-0.2s0.2-0.2,0.3-0.3
		s0.1-0.4,0.2-0.6s0.1-0.6,0.2-1s0.1-0.8,0.1-1.4s0-1.2,0-1.9v-0.3h4.2v6.1h-0.6v-5.6h-3v0.2c0,0.7,0,1.3-0.1,1.9s-0.1,1-0.1,1.4
		c-0.1,0.4-0.1,0.7-0.2,1c-0.1,0.3-0.2,0.5-0.3,0.6c-0.1,0.2-0.2,0.3-0.4,0.4s-0.3,0.1-0.4,0.2s-0.3,0-0.5,0
		C254.3,75.8,254,75.8,253.8,75.7z"/>
	<path class="st0" d="M261.8,72.6c0-0.4,0.1-0.8,0.2-1.2s0.4-0.7,0.7-1s0.6-0.5,1-0.7s0.8-0.3,1.3-0.3c0.6,0,1.1,0.1,1.6,0.4
		s0.9,0.7,1.1,1.2s0.4,1,0.4,1.6c0,0.6-0.1,1.1-0.4,1.6s-0.6,0.9-1.1,1.2s-1,0.4-1.6,0.4c-0.4,0-0.9-0.1-1.2-0.3s-0.7-0.4-1-0.7
		s-0.5-0.6-0.6-1S261.8,73.1,261.8,72.6z M262.4,72.6c0,0.7,0.2,1.4,0.7,1.9s1.1,0.8,1.8,0.8c0.4,0,0.9-0.1,1.2-0.4s0.7-0.6,0.9-1
		s0.3-0.8,0.3-1.3c0-0.7-0.2-1.4-0.7-1.9s-1.1-0.8-1.8-0.8c-0.5,0-0.9,0.1-1.3,0.4s-0.7,0.6-0.9,1S262.4,72.2,262.4,72.6z"/>
	<path class="st0" d="M269.9,77.6v-8h0.6v1.4c0.7-1,1.5-1.5,2.5-1.5c0.4,0,0.7,0.1,1.1,0.2s0.7,0.4,1,0.6s0.5,0.6,0.7,1
		s0.3,0.9,0.3,1.3c0,0.5-0.1,0.9-0.3,1.3s-0.4,0.7-0.7,1s-0.6,0.5-1,0.6s-0.7,0.2-1.1,0.2c-1,0-1.9-0.5-2.5-1.5v3.2H269.9z
		 M270.4,72.7c0,0.5,0.1,1,0.4,1.4s0.5,0.7,0.9,0.9s0.8,0.3,1.2,0.3c0.7,0,1.3-0.2,1.7-0.7s0.7-1.1,0.7-1.9c0-0.4-0.1-0.8-0.2-1.1
		s-0.3-0.6-0.5-0.8s-0.5-0.4-0.8-0.5s-0.6-0.2-0.9-0.2c-0.3,0-0.6,0.1-0.9,0.2s-0.6,0.3-0.8,0.5s-0.4,0.5-0.6,0.8
		S270.4,72.3,270.4,72.7z"/>
	<path class="st0" d="M277.8,75.7v-6.1h0.6v5.3l4.1-5.3h0.6v6.1h-0.6v-5.3l-4.1,5.3H277.8z"/>
	<path class="st0" d="M284.6,70.1v-0.5h5.2v0.5h-2.3v5.6h-0.6v-5.6H284.6z"/>
</g>
<rect x="41.2" y="102" class="st1" width="65.8" height="33.6"/>
<rect x="106.9" y="102" class="st2" width="65.8" height="33.6"/>
<rect x="172.7" y="102" class="st3" width="65.8" height="33.6"/>
<rect x="238.4" y="102" class="st4" width="65.8" height="33.6"/>
<rect x="304.2" y="102" class="st5" width="65.8" height="33.6"/>
<rect x="41.2" y="135.6" class="st6" width="65.8" height="33.6"/>
<rect x="106.9" y="135.6" class="st7" width="65.8" height="33.6"/>
<rect x="172.7" y="135.6" class="st8" width="65.8" height="33.6"/>
<rect x="238.4" y="135.6" class="st9" width="65.8" height="33.6"/>
<rect x="304.2" y="135.6" class="st10" width="65.8" height="33.6"/>
<rect x="41.2" y="169.2" class="st11" width="65.8" height="33.6"/>
<rect x="106.9" y="169.2" class="st12" width="65.8" height="33.6"/>
<rect x="172.7" y="169.2" class="st13" width="65.8" height="33.6"/>
<rect x="238.4" y="169.2" class="st14" width="65.8" height="33.6"/>
<rect x="304.2" y="169.2" class="st15" width="65.8" height="33.6"/>
<rect x="41.2" y="202.8" class="st16" width="65.8" height="33.6"/>
<rect x="106.9" y="202.8" class="st17" width="65.8" height="33.6"/>
<rect x="172.7" y="202.8" class="st18" width="65.8" height="33.6"/>
<rect x="238.4" y="202.8" class="st19" width="65.8" height="33.6"/>
<rect x="304.2" y="202.8" class="st20" width="65.8" height="33.6"/>
<rect x="41.2" y="236.4" class="st21" width="65.8" height="33.6"/>
<rect x="106.9" y="236.4" class="st22" width="65.8" height="33.6"/>
<rect x="172.7" y="236.4" class="st23" width="65.8" height="33.6"/>
<rect x="238.4" y="236.4" class="st24" width="65.8" height="33.6"/>
<rect x="304.2" y="236.4" class="st25" width="65.8" height="33.6"/>
<rect x="41.2" y="269.9" class="st26" width="65.8" height="33.6"/>
<rect x="106.9" y="269.9" class="st27" width="65.8" height="33.6"/>
<rect x="172.7" y="269.9" class="st28" width="65.8" height="33.6"/>
<rect x="238.4" y="269.9" class="st29" width="65.8" height="33.6"/>
<rect x="304.2" y="269.9" class="st30" width="65.8" height="33.6"/>
<rect x="41.2" y="303.5" class="st31" width="65.8" height="33.6"/>
<rect x="106.9" y="303.5" class="st32" width="65.8" height="33.6"/>
<rect x="172.7" y="303.5" class="st33" width="65.8" height="33.6"/>
<rect x="238.4" y="303.5" class="st34" width="65.8" height="33.6"/>
<rect x="304.2" y="303.5" class="st35" width="65.8" height="33.6"/>
<rect x="41.2" y="337.1" class="st36" width="65.8" height="33.6"/>
<rect x="106.9" y="337.1" class="st37" width="65.8" height="33.6"/>
<rect x="172.7" y="337.1" class="st38" width="65.8" height="33.6"/>
<rect x="238.4" y="337.1" class="st39" width="65.8" height="33.6"/>
<rect x="304.2" y="337.1" class="st40" width="65.8" height="33.6"/>
<rect x="41.2" y="370.7" class="st41" width="65.8" height="33.6"/>
<rect x="106.9" y="370.7" class="st42" width="65.8" height="33.6"/>
<rect x="172.7" y="370.7" class="st43" width="65.8" height="33.6"/>
<rect x="238.4" y="370.7" class="st44" width="65.8" height="33.6"/>
<rect x="304.2" y="370.7" class="st45" width="65.8" height="33.6"/>
<rect x="41.2" y="404.3" class="st46" width="65.8" height="33.6"/>
<rect x="106.9" y="404.3" class="st47" width="65.8" height="33.6"/>
<rect x="172.7" y="404.3" class="st48" width="65.8" height="33.6"/>
<rect x="238.4" y="404.3" class="st49" width="65.8" height="33.6"/>
<rect x="304.2" y="404.3" class="st50" width="65.8" height="33.6"/>
<rect x="41.2" y="437.8" class="st51" width="65.8" height="33.6"/>
<rect x="106.9" y="437.8" class="st52" width="65.8" height="33.6"/>
<rect x="172.7" y="437.8" class="st53" width="65.8" height="33.6"/>
<rect x="238.4" y="437.8" class="st54" width="65.8" height="33.6"/>
<rect x="304.2" y="437.8" class="st50" width="65.8" height="33.6"/>
<rect x="41.2" y="471.4" class="st55" width="65.8" height="33.6"/>
<rect x="106.9" y="471.4" class="st56" width="65.8" height="33.6"/>
<rect x="172.7" y="471.4" class="st57" width="65.8" height="33.6"/>
<rect x="238.4" y="471.4" class="st58" width="65.8" height="33.6"/>
<rect x="304.2" y="471.4" class="st59" width="65.8" height="33.6"/>
<rect x="41.2" y="505" class="st60" width="65.8" height="33.6"/>
<rect x="106.9" y="505" class="st61" width="65.8" height="33.6"/>
<rect x="172.7" y="505" class="st62" width="65.8" height="33.6"/>
<rect x="238.4" y="505" class="st63" width="65.8" height="33.6"/>
<rect x="304.2" y="505" class="st64" width="65.8" height="33.6"/>
</svg>
